<svg xmlns="http://www.w3.org/2000/svg" width="518" height="512" viewBox="0 0 518 512">
    <style>
    .ani-lightSpeedIn {
        animation: lightSpeedIn 1.5s infinite both linear;
    }

    @keyframes lightSpeedIn {
        0% {
            transform: translateX(35%) skewX(-5deg);
            opacity: 1;
        }

        25% {
            transform: translateX(17.5%) skewX(-2.5deg);
        }

        50% {
            transform: translateX(0%) skewX(0deg);
        }

        75% {
            transform: translateX(-17.5%) skewX(0deg);
        }

        100% {
            transform: translateX(-35%) skewX(0deg);
            // opacity: .70;
        }
    }
</style>
    <g class="ani-lightSpeedIn" transform="translate(0 -45.001)">
        <path d="M8,426H504c4,0,8-4,8-8V393H0v25C0,422,4,426,8,426Z" fill="#fcf3e3" />
        <path d="M512,122V393H0V337l6-17L0,303V271c0-4,3-8,7-10l26-10c3-1,5-4,6-7L76,119c1-4,5-7,10-7H502A10.021,10.021,0,0,1,512,122Z" fill="#e6f7fe" />
        <path d="M-11307-3792a84,84,0,0,1,51.374-61.587A84,84,0,0,1-11176-3844c9,5,20-1,20-11v-218h21a10.019,10.019,0,0,1,10,10v271Zm-314,0a84,84,0,0,1,82.5-68.2,84,84,0,0,1,82.5,68.2Z" transform="translate(11637 4185)" fill="#d3effd" />
        <path d="M0,337H25a7.887,7.887,0,0,0,8-8V311a7.887,7.887,0,0,0-8-8H0Z" fill="#ffe07d" />
        <path d="M-11290-4040c-2-5-2-11-2-17,0-5,0-11,2-16h181v25c0,4-4,8-8,8Zm-323,0c-4,0-8-4-8-8v-25h181c2,5,2,11,2,16,0,6,0,12-2,17Z" transform="translate(11627 4466)" fill="#f8e7c7" />
        <path d="M-11306.8-4015.8a57.2,57.2,0,0,1,57.2-57.2,57.2,57.2,0,0,1,57.2,57.2,57.2,57.2,0,0,1-57.2,57.2A57.2,57.2,0,0,1-11306.8-4015.8Zm-314.2,0a57.2,57.2,0,0,1,57.2-57.2,57.2,57.2,0,0,1,57.2,57.2,57.2,57.2,0,0,1-57.2,57.2A57.2,57.2,0,0,1-11621-4015.8Z" transform="translate(11662.7 4425.3)" fill="#838383" />
        <path d="M-11307-3995a57,57,0,0,0,69.132-8.869A57,57,0,0,0-11229-4073a57,57,0,0,1,27.284,59.2,57,57,0,0,1-46.09,46.089,57.076,57.076,0,0,1-10.034.891A57.006,57.006,0,0,1-11307-3995Zm-314,0a57,57,0,0,0,69.133-8.869A57,57,0,0,0-11543-4073a56.994,56.994,0,0,1,27.283,59.193,57,57,0,0,1-46.089,46.092,57.1,57.1,0,0,1-10.035.891A57.011,57.011,0,0,1-11621-3995Z" transform="translate(11670 4433)" fill="#5a5a5a" />
        <circle cx="16.6" cy="16.6" r="16.6" transform="translate(82.3 392.9)" fill="#e6f7fe" />
        <circle cx="16.6" cy="16.6" r="16.6" transform="translate(396.5 392.9)" fill="#e6f7fe" />
        <path d="M109,145h57c4,0,8,4,8,8v88a7.887,7.887,0,0,1-8,8H82c-5,0-9-5-7-10l26-88C102,148,106,145,109,145Z" fill="#91dafa" />
        <path d="M143,145V249h23a7.887,7.887,0,0,0,8-8V153c0-4-4-8-8-8Z" fill="#75cff9" />
        <path d="M215,249h17c5,0,8-3,8-8V153a7.887,7.887,0,0,0-8-8H215c-4,0-8,4-8,8v88A7.887,7.887,0,0,0,215,249Z" fill="#6cbff8" />
        <path d="M-11474.5-4040a7.888,7.888,0,0,1-8-8v-17c0-4,4-8,8-8h171a7.885,7.885,0,0,1,8,8v17c0,5-3,8-8,8Zm-139-15a7.5,7.5,0,0,1-7.5-7.5,7.5,7.5,0,0,1,7.5-7.5h14a7.5,7.5,0,0,1,7.5,7.5,7.5,7.5,0,0,1-7.5,7.5Z" transform="translate(11765.5 4345)" fill="#5766cb" />
        <path d="M265,112V89c0-6-4-10-10-10H193c-6,0-11,4-11,10v23Z" fill="#838383" />
        <path d="M-11450-3879a6.454,6.454,0,0,1-6-6v-13a6.452,6.452,0,0,0-6-6h-13a6.454,6.454,0,0,1-6-6v-21a5.765,5.765,0,0,1,6-6h13c3,0,6-3,6-7v-12a5.765,5.765,0,0,1,6-6h21q6,0,6,6v12a6.835,6.835,0,0,0,7,7h12q6,0,6,6v21a5.764,5.764,0,0,1-6,6h-12c-4,0-7,3-7,6v13a5.764,5.764,0,0,1-6,6Zm-171-160,8-26a9.738,9.738,0,0,1,10-8h22c4,0,8,3,10,8l8,26Z" transform="translate(11816 4118)" fill="#e175a5" />
    </g>
</svg>