<?xml version="1.0" encoding="utf-8"?>
<!-- Generator: Adobe Illustrator 23.0.3, SVG Export Plug-In . SVG Version: 6.00 Build 0)  -->
<svg version="1.1" id="Layer_1" xmlns="http://www.w3.org/2000/svg" xmlns:xlink="http://www.w3.org/1999/xlink" x="0px" y="0px"
	 viewBox="0 0 3401.6 3401.6" style="enable-background:new 0 0 3401.6 3401.6;" xml:space="preserve">
<style type="text/css">
	.st0{fill:#90DFAA;}
	.st1{fill:#79CC90;}
	.st2{fill:#324A5E;}
	.st3{fill:#FFFFFF;}
	.st4{fill:#E6E9EE;}
	.st5{fill:#FF7058;}
	.st6{fill:#54C0EB;}
</style>
<g>
	<path class="st0" d="M1236,2461.8l875.3,875.3c0,0,0,0,0,0L1010,2235.7L2574.8,670.9l796.6,796.6
		C3257.8,646.4,2553.1,14.2,1700.8,14.2C769.3,14.2,14.2,769.3,14.2,1700.8c0,787.4,539.5,1448.7,1269.1,1634.5l-460.4-460.4
		L1236,2461.8z"/>
	<path class="st1" d="M3371.4,1467.5l-796.6-796.6L1010,2235.7l1101.4,1101.4c733.1-183.3,1276.1-846.4,1276.1-1636.3
		C3387.4,1621.6,3381.9,1543.7,3371.4,1467.5z M822.9,2874.9l460.4,460.4c133.5,34,273.4,52.1,417.5,52.1
		c141.6,0,279.1-17.5,410.5-50.3L1236,2461.8L822.9,2874.9z"/>
	<path class="st2" d="M2551.8,2887.1h-1702c-17.4,0-31.4-14-31.4-31.4V698.8c0-17.4,14-31.4,31.4-31.4h1702.6
		c17.4,0,31.4,14,31.4,31.4v2157.5C2583.2,2873.1,2569.1,2887.1,2551.8,2887.1z"/>
	<polygon class="st3" points="992.1,794.4 992.1,2549.8 2162.4,2549.8 2162.4,2303.3 2409.5,2303.3 2409.5,794.4 	"/>
	<polygon class="st4" points="2162.4,2549.8 2409.5,2303.3 2162.4,2303.3 	"/>
	<path class="st5" d="M1839.7,596.6v-48.8c0-76.8-62.1-138.9-138.9-138.9s-138.9,62.1-138.9,138.9v48.8h-245.1v284.6h768.8V596.6
		H1839.7z"/>
	<circle class="st0" cx="1700.8" cy="547.9" r="69.5"/>
	<path class="st4" d="M1985.3,2078.9h-791.5v-791.5h791.5L1985.3,2078.9L1985.3,2078.9z M1272,2001.4h635.9v-635.9H1272V2001.4z"/>
	<polygon class="st6" points="1643.3,1920.5 1352.1,1629.3 1489.7,1491.7 1643.3,1645.3 2070.2,1219.2 2207.8,1356.8 	"/>
</g>
</svg>
