<svg xmlns="http://www.w3.org/2000/svg" xmlns:xlink="http://www.w3.org/1999/xlink" width="176" height="86" viewBox="0 0 176 86"><defs><clipPath id="a"><rect width="176" height="86" transform="translate(1052 533)" fill="#fff" stroke="#707070" stroke-width="1"/></clipPath></defs><g transform="translate(-1052 -533)" clip-path="url(#a)"><g transform="translate(0 -7)"><rect width="176" height="176" transform="translate(1052 538)" fill="#fff" opacity="0.48"/><g transform="translate(949.083 334.856)"><g transform="translate(134.146 204.743)"><g transform="translate(79.258 5.042)"><rect width="16.272" height="6.204" fill="#a18d81"/></g><rect width="113.542" height="75.155" transform="translate(0 11.246)" fill="#f1eedb"/><rect width="113.542" height="10.839" transform="translate(0 75.561)" fill="#e0c5b4"/><rect width="25.942" height="17.371" transform="translate(43.8 65.378)" fill="#dcd9c8"/><g transform="translate(18.013 5.042)"><rect width="16.272" height="6.204" fill="#a18d81"/></g><g transform="translate(18.013 5.041)"><path d="M160.573,137.425c-2.737,3.9-9.323,5.175-16.271,6.2h16.271Z" transform="translate(-144.302 -137.425)" fill="#1d1d1b" opacity="0.1"/></g><g transform="translate(79.258 5.041)"><path d="M205.306,137.425c-2.738,3.9-9.323,5.175-16.273,6.2h16.273Z" transform="translate(-189.033 -137.425)" fill="#1d1d1b" opacity="0.1"/></g><rect width="49.519" height="3.651" transform="translate(32.012 82.749)" fill="#dcd9c8"/><rect width="49.519" height="9.128" transform="translate(32.012 52.856)" fill="#df4937"/><rect width="3.423" height="20.766" transform="translate(35.842 61.984)" fill="#a18d81"/><rect width="3.423" height="20.766" transform="translate(74.278 61.984)" fill="#a18d81"/><rect width="10.155" height="15.86" transform="translate(45.54 66.89)" fill="#06aaba"/><rect width="10.155" height="15.86" transform="translate(57.848 66.89)" fill="#06aaba"/><g transform="translate(5.72 16.687)"><rect width="12.293" height="14.719" fill="#dcd9c8"/><rect width="9.443" height="12.323" transform="translate(1.425 1.198)" fill="#06aaba"/><rect width="10.668" height="1.198" transform="translate(0.799 4.735)" fill="#dcd9c8"/></g><g transform="translate(95.53 16.687)"><rect width="12.293" height="14.719" fill="#dcd9c8"/><rect width="9.443" height="12.323" transform="translate(1.425 1.198)" fill="#06aaba"/><rect width="10.668" height="1.198" transform="translate(0.826 4.735)" fill="#dcd9c8"/></g><g transform="translate(23.549 16.687)"><rect width="12.293" height="14.719" fill="#dcd9c8"/><rect width="9.443" height="12.323" transform="translate(1.425 1.198)" fill="#06aaba"/><rect width="10.668" height="1.198" transform="translate(0.799 4.735)" fill="#dcd9c8"/></g><g transform="translate(77.701 16.687)"><rect width="12.293" height="14.719" fill="#dcd9c8"/><rect width="9.443" height="12.323" transform="translate(1.425 1.198)" fill="#06aaba"/><rect width="10.668" height="1.198" transform="translate(0.826 4.735)" fill="#dcd9c8"/></g><g transform="translate(41.378 16.687)"><rect width="12.293" height="14.719" fill="#dcd9c8"/><rect width="9.443" height="12.323" transform="translate(1.425 1.198)" fill="#06aaba"/><rect width="10.668" height="1.198" transform="translate(0.799 4.735)" fill="#dcd9c8"/></g><g transform="translate(59.872 16.687)"><rect width="12.293" height="14.719" fill="#dcd9c8"/><rect width="9.443" height="12.323" transform="translate(1.425 1.198)" fill="#06aaba"/><rect width="10.668" height="1.198" transform="translate(0.826 4.735)" fill="#dcd9c8"/></g><g transform="translate(5.72 35.342)"><rect width="12.293" height="14.719" fill="#dcd9c8"/><rect width="9.443" height="12.323" transform="translate(1.425 1.198)" fill="#06aaba"/><rect width="10.668" height="1.198" transform="translate(0.799 4.735)" fill="#dcd9c8"/></g><g transform="translate(95.53 35.342)"><rect width="12.293" height="14.719" fill="#dcd9c8"/><rect width="9.443" height="12.323" transform="translate(1.425 1.198)" fill="#06aaba"/><rect width="10.668" height="1.198" transform="translate(0.826 4.735)" fill="#dcd9c8"/></g><g transform="translate(23.549 35.342)"><rect width="12.293" height="14.719" fill="#dcd9c8"/><rect width="9.443" height="12.323" transform="translate(1.425 1.198)" fill="#06aaba"/><rect width="10.668" height="1.198" transform="translate(0.799 4.735)" fill="#dcd9c8"/></g><g transform="translate(77.701 35.342)"><rect width="12.293" height="14.719" fill="#dcd9c8"/><rect width="9.443" height="12.323" transform="translate(1.425 1.198)" fill="#06aaba"/><rect width="10.668" height="1.198" transform="translate(0.826 4.735)" fill="#dcd9c8"/></g><g transform="translate(41.378 35.342)"><rect width="12.293" height="14.719" fill="#dcd9c8"/><rect width="9.443" height="12.323" transform="translate(1.425 1.198)" fill="#06aaba"/><rect width="10.668" height="1.198" transform="translate(0.799 4.735)" fill="#dcd9c8"/></g><g transform="translate(59.872 35.342)"><rect width="12.293" height="14.719" fill="#dcd9c8"/><rect width="9.443" height="12.323" transform="translate(1.425 1.198)" fill="#06aaba"/><rect width="10.668" height="1.198" transform="translate(0.826 4.735)" fill="#dcd9c8"/></g><g transform="translate(5.72 53.997)"><rect width="21.336" height="17.286" fill="#dcd9c8"/><rect width="18.94" height="14.89" transform="translate(1.198 1.198)" fill="#06aaba"/><rect width="19.692" height="1.198" transform="translate(0.799 4.735)" fill="#dcd9c8"/></g><g transform="translate(86.486 53.997)"><rect width="21.336" height="17.286" fill="#dcd9c8"/><rect width="18.94" height="14.89" transform="translate(1.198 1.198)" fill="#06aaba"/><rect width="19.692" height="1.198" transform="translate(0.846 4.735)" fill="#dcd9c8"/></g><g transform="translate(49.534)"><rect width="14.498" height="14.498" rx="1.875" fill="#df4937"/><g transform="translate(1.95 1.95)"><rect width="3.124" height="10.599" transform="translate(3.738)" fill="#f6f6f6"/><rect width="10.599" height="3.124" transform="translate(0 3.737)" fill="#f6f6f6"/></g></g><g transform="translate(37.08 53.959)"><path d="M161.439,176.619h-2.252v2.627a.244.244,0,0,1-.149.226.725.725,0,0,1-.66,0,.244.244,0,0,1-.149-.226v-5.759a.237.237,0,0,1,.149-.227.83.83,0,0,1,.66,0,.237.237,0,0,1,.149.227v2.4h2.252v-2.4a.237.237,0,0,1,.149-.227.83.83,0,0,1,.66,0,.237.237,0,0,1,.149.227v5.759a.244.244,0,0,1-.149.226.725.725,0,0,1-.66,0,.244.244,0,0,1-.149-.226Z" transform="translate(-158.228 -173.139)" fill="#a18d81"/><path d="M164.567,179.6a2.944,2.944,0,0,1-.805-.105,1.663,1.663,0,0,1-.642-.334,1.547,1.547,0,0,1-.424-.6,2.339,2.339,0,0,1-.155-.9v-2.532a2.341,2.341,0,0,1,.155-.9,1.568,1.568,0,0,1,.424-.6,1.681,1.681,0,0,1,.642-.334,2.944,2.944,0,0,1,.805-.1,2.909,2.909,0,0,1,.8.1,1.719,1.719,0,0,1,.646.334,1.573,1.573,0,0,1,.434.6,2.287,2.287,0,0,1,.159.9v2.532a2.284,2.284,0,0,1-.159.9,1.552,1.552,0,0,1-.434.6,1.7,1.7,0,0,1-.646.334A2.91,2.91,0,0,1,164.567,179.6Zm1.076-4.472a1.135,1.135,0,0,0-.285-.849,1.1,1.1,0,0,0-.791-.274,1.077,1.077,0,0,0-.791.274,1.155,1.155,0,0,0-.277.849v2.532a1.152,1.152,0,0,0,.277.848,1.071,1.071,0,0,0,.791.274,1.093,1.093,0,0,0,.791-.274,1.131,1.131,0,0,0,.285-.848Z" transform="translate(-156.636 -173.139)" fill="#a18d81"/><path d="M168.487,178.792a1.39,1.39,0,0,0,.813-.226.787.787,0,0,0,.326-.7.86.86,0,0,0-.216-.613,1.878,1.878,0,0,0-.544-.392,7.706,7.706,0,0,0-.709-.305,3.8,3.8,0,0,1-.711-.348,1.8,1.8,0,0,1-.542-.526,1.48,1.48,0,0,1-.218-.843,1.562,1.562,0,0,1,.19-.8,1.527,1.527,0,0,1,.493-.518,1.979,1.979,0,0,1,.674-.274,3.549,3.549,0,0,1,.733-.079,4.758,4.758,0,0,1,.5.031,3.121,3.121,0,0,1,.538.1,1.552,1.552,0,0,1,.429.192.346.346,0,0,1,.177.3.573.573,0,0,1-.022.152.6.6,0,0,1-.073.162.427.427,0,0,1-.127.13.307.307,0,0,1-.175.052.416.416,0,0,1-.19-.052c-.066-.034-.146-.073-.24-.112a2.306,2.306,0,0,0-.334-.114,1.873,1.873,0,0,0-.485-.052,1.582,1.582,0,0,0-.813.186.65.65,0,0,0-.318.605.638.638,0,0,0,.218.509,2.146,2.146,0,0,0,.542.33q.327.144.711.283a2.935,2.935,0,0,1,.709.37,1.929,1.929,0,0,1,.544.591,1.8,1.8,0,0,1,.216.935,2,2,0,0,1-.153.817,1.567,1.567,0,0,1-.43.579,1.817,1.817,0,0,1-.656.344,2.874,2.874,0,0,1-.823.114,3.042,3.042,0,0,1-.809-.1,2.7,2.7,0,0,1-.633-.252,1.448,1.448,0,0,1-.412-.33.558.558,0,0,1-.144-.344.466.466,0,0,1,.032-.166.584.584,0,0,1,.089-.162.552.552,0,0,1,.137-.122.3.3,0,0,1,.157-.048.349.349,0,0,1,.235.11,3.637,3.637,0,0,0,.285.234,2.123,2.123,0,0,0,.407.236A1.514,1.514,0,0,0,168.487,178.792Z" transform="translate(-155.165 -173.146)" fill="#a18d81"/><path d="M170.593,173.488a.268.268,0,0,1,.1-.209.4.4,0,0,1,.271-.086h1.763a2.9,2.9,0,0,1,.778.1,1.609,1.609,0,0,1,.628.33,1.578,1.578,0,0,1,.42.6,2.291,2.291,0,0,1,.153.889v.068a2.226,2.226,0,0,1-.157.887,1.572,1.572,0,0,1-.434.6,1.73,1.73,0,0,1-.646.334,2.927,2.927,0,0,1-.8.1h-1.121v2.15a.244.244,0,0,1-.149.226.725.725,0,0,1-.66,0,.244.244,0,0,1-.149-.226Zm.958.522v2.358h1.121a1.08,1.08,0,0,0,.791-.279,1.14,1.14,0,0,0,.285-.852v-.1a1.129,1.129,0,0,0-.285-.849,1.094,1.094,0,0,0-.791-.274Z" transform="translate(-153.663 -173.139)" fill="#a18d81"/><path d="M174.635,173.488a.239.239,0,0,1,.149-.227.833.833,0,0,1,.661,0,.239.239,0,0,1,.149.227v5.759a.246.246,0,0,1-.149.226.728.728,0,0,1-.661,0,.246.246,0,0,1-.149-.226Z" transform="translate(-152.171 -173.139)" fill="#a18d81"/><path d="M180.376,173.192a.255.255,0,0,1,.24.13.545.545,0,0,1,.077.278.574.574,0,0,1-.081.305.263.263,0,0,1-.236.13h-1.392v5.211a.244.244,0,0,1-.149.226.725.725,0,0,1-.66,0,.244.244,0,0,1-.149-.226v-5.211h-1.4a.262.262,0,0,1-.235-.126.54.54,0,0,1-.081-.3.558.558,0,0,1,.077-.283.257.257,0,0,1,.24-.134Z" transform="translate(-151.554 -173.139)" fill="#a18d81"/><path d="M180.359,179.566a.887.887,0,0,1-.2-.026.782.782,0,0,1-.194-.078.481.481,0,0,1-.145-.123.249.249,0,0,1-.055-.156.258.258,0,0,1,.01-.078l1.8-5.638a.4.4,0,0,1,.227-.234.884.884,0,0,1,.379-.079.922.922,0,0,1,.385.079.4.4,0,0,1,.23.234l1.791,5.638a.249.249,0,0,1,.018.078.224.224,0,0,1-.059.148.573.573,0,0,1-.144.122.777.777,0,0,1-.194.082.768.768,0,0,1-.208.032.448.448,0,0,1-.2-.044.247.247,0,0,1-.122-.148l-.371-1.236h-2.233l-.371,1.236a.247.247,0,0,1-.122.148A.472.472,0,0,1,180.359,179.566Zm2.722-2.167-.905-2.983-.9,2.983Z" transform="translate(-150.279 -173.153)" fill="#a18d81"/><path d="M184.685,179.552a.557.557,0,0,1-.289-.079.246.246,0,0,1-.137-.226v-5.759a.239.239,0,0,1,.149-.227.833.833,0,0,1,.661,0,.239.239,0,0,1,.149.227v5.245h2.351a.237.237,0,0,1,.218.126.589.589,0,0,1,0,.561.235.235,0,0,1-.218.131Z" transform="translate(-148.618 -173.139)" fill="#a18d81"/><path d="M161.439,176.619h-2.252v2.627a.244.244,0,0,1-.149.226.725.725,0,0,1-.66,0,.244.244,0,0,1-.149-.226v-5.759a.237.237,0,0,1,.149-.227.83.83,0,0,1,.66,0,.237.237,0,0,1,.149.227v2.4h2.252v-2.4a.237.237,0,0,1,.149-.227.83.83,0,0,1,.66,0,.237.237,0,0,1,.149.227v5.759a.244.244,0,0,1-.149.226.725.725,0,0,1-.66,0,.244.244,0,0,1-.149-.226Z" transform="translate(-158.228 -173.139)" fill="#fff"/><path d="M164.567,179.6a2.944,2.944,0,0,1-.805-.105,1.663,1.663,0,0,1-.642-.334,1.547,1.547,0,0,1-.424-.6,2.339,2.339,0,0,1-.155-.9v-2.532a2.341,2.341,0,0,1,.155-.9,1.568,1.568,0,0,1,.424-.6,1.681,1.681,0,0,1,.642-.334,2.944,2.944,0,0,1,.805-.1,2.909,2.909,0,0,1,.8.1,1.719,1.719,0,0,1,.646.334,1.573,1.573,0,0,1,.434.6,2.287,2.287,0,0,1,.159.9v2.532a2.284,2.284,0,0,1-.159.9,1.552,1.552,0,0,1-.434.6,1.7,1.7,0,0,1-.646.334A2.91,2.91,0,0,1,164.567,179.6Zm1.076-4.472a1.135,1.135,0,0,0-.285-.849,1.1,1.1,0,0,0-.791-.274,1.077,1.077,0,0,0-.791.274,1.155,1.155,0,0,0-.277.849v2.532a1.152,1.152,0,0,0,.277.848,1.071,1.071,0,0,0,.791.274,1.093,1.093,0,0,0,.791-.274,1.131,1.131,0,0,0,.285-.848Z" transform="translate(-156.636 -173.139)" fill="#fff"/><path d="M168.487,178.792a1.39,1.39,0,0,0,.813-.226.787.787,0,0,0,.326-.7.86.86,0,0,0-.216-.613,1.878,1.878,0,0,0-.544-.392,7.706,7.706,0,0,0-.709-.305,3.8,3.8,0,0,1-.711-.348,1.8,1.8,0,0,1-.542-.526,1.48,1.48,0,0,1-.218-.843,1.562,1.562,0,0,1,.19-.8,1.527,1.527,0,0,1,.493-.518,1.979,1.979,0,0,1,.674-.274,3.549,3.549,0,0,1,.733-.079,4.758,4.758,0,0,1,.5.031,3.121,3.121,0,0,1,.538.1,1.552,1.552,0,0,1,.429.192.346.346,0,0,1,.177.3.573.573,0,0,1-.022.152.6.6,0,0,1-.073.162.427.427,0,0,1-.127.13.307.307,0,0,1-.175.052.416.416,0,0,1-.19-.052c-.066-.034-.146-.073-.24-.112a2.306,2.306,0,0,0-.334-.114,1.873,1.873,0,0,0-.485-.052,1.582,1.582,0,0,0-.813.186.65.65,0,0,0-.318.605.638.638,0,0,0,.218.509,2.146,2.146,0,0,0,.542.33q.327.144.711.283a2.935,2.935,0,0,1,.709.37,1.929,1.929,0,0,1,.544.591,1.8,1.8,0,0,1,.216.935,2,2,0,0,1-.153.817,1.567,1.567,0,0,1-.43.579,1.817,1.817,0,0,1-.656.344,2.874,2.874,0,0,1-.823.114,3.042,3.042,0,0,1-.809-.1,2.7,2.7,0,0,1-.633-.252,1.448,1.448,0,0,1-.412-.33.558.558,0,0,1-.144-.344.466.466,0,0,1,.032-.166.584.584,0,0,1,.089-.162.552.552,0,0,1,.137-.122.3.3,0,0,1,.157-.048.349.349,0,0,1,.235.11,3.637,3.637,0,0,0,.285.234,2.123,2.123,0,0,0,.407.236A1.514,1.514,0,0,0,168.487,178.792Z" transform="translate(-155.165 -173.146)" fill="#fff"/><path d="M170.593,173.488a.268.268,0,0,1,.1-.209.4.4,0,0,1,.271-.086h1.763a2.9,2.9,0,0,1,.778.1,1.609,1.609,0,0,1,.628.33,1.578,1.578,0,0,1,.42.6,2.291,2.291,0,0,1,.153.889v.068a2.226,2.226,0,0,1-.157.887,1.572,1.572,0,0,1-.434.6,1.73,1.73,0,0,1-.646.334,2.927,2.927,0,0,1-.8.1h-1.121v2.15a.244.244,0,0,1-.149.226.725.725,0,0,1-.66,0,.244.244,0,0,1-.149-.226Zm.958.522v2.358h1.121a1.08,1.08,0,0,0,.791-.279,1.14,1.14,0,0,0,.285-.852v-.1a1.129,1.129,0,0,0-.285-.849,1.094,1.094,0,0,0-.791-.274Z" transform="translate(-153.663 -173.139)" fill="#fff"/><path d="M174.635,173.488a.239.239,0,0,1,.149-.227.833.833,0,0,1,.661,0,.239.239,0,0,1,.149.227v5.759a.246.246,0,0,1-.149.226.728.728,0,0,1-.661,0,.246.246,0,0,1-.149-.226Z" transform="translate(-152.171 -173.139)" fill="#fff"/><path d="M180.376,173.192a.255.255,0,0,1,.24.13.545.545,0,0,1,.077.278.574.574,0,0,1-.081.305.263.263,0,0,1-.236.13h-1.392v5.211a.244.244,0,0,1-.149.226.725.725,0,0,1-.66,0,.244.244,0,0,1-.149-.226v-5.211h-1.4a.262.262,0,0,1-.235-.126.54.54,0,0,1-.081-.3.558.558,0,0,1,.077-.283.257.257,0,0,1,.24-.134Z" transform="translate(-151.554 -173.139)" fill="#fff"/><path d="M180.359,179.566a.887.887,0,0,1-.2-.026.782.782,0,0,1-.194-.078.481.481,0,0,1-.145-.123.249.249,0,0,1-.055-.156.258.258,0,0,1,.01-.078l1.8-5.638a.4.4,0,0,1,.227-.234.884.884,0,0,1,.379-.079.922.922,0,0,1,.385.079.4.4,0,0,1,.23.234l1.791,5.638a.249.249,0,0,1,.018.078.224.224,0,0,1-.059.148.573.573,0,0,1-.144.122.777.777,0,0,1-.194.082.768.768,0,0,1-.208.032.448.448,0,0,1-.2-.044.247.247,0,0,1-.122-.148l-.371-1.236h-2.233l-.371,1.236a.247.247,0,0,1-.122.148A.472.472,0,0,1,180.359,179.566Zm2.722-2.167-.905-2.983-.9,2.983Z" transform="translate(-150.279 -173.153)" fill="#fff"/><path d="M184.685,179.552a.557.557,0,0,1-.289-.079.246.246,0,0,1-.137-.226v-5.759a.239.239,0,0,1,.149-.227.833.833,0,0,1,.661,0,.239.239,0,0,1,.149.227v5.245h2.351a.237.237,0,0,1,.218.126.589.589,0,0,1,0,.561.235.235,0,0,1-.218.131Z" transform="translate(-148.618 -173.139)" fill="#fff"/></g><path d="M180.809,134.2a10.942,10.942,0,0,1-13.422,12.21,2.56,2.56,0,0,0,2.393,1.661h9.364a2.566,2.566,0,0,0,2.567-2.567v-9.364A2.548,2.548,0,0,0,180.809,134.2Z" transform="translate(-117.766 -133.574)" fill="#1d1d1b" opacity="0.15"/><path d="M163.391,180.206c-3.033,0-5.994-.1-8.865-.275V181.4h49.519v-8.863C196.059,177.114,180.85,180.206,163.391,180.206Z" transform="translate(-122.514 -119.42)" fill="#1d1d1b" opacity="0.15"/><path d="M135.323,160.649h12.294V145.93C146.432,153.051,143.457,158.808,135.323,160.649Z" transform="translate(-129.604 -129.244)" fill="#1d1d1b" opacity="0.1"/><path d="M148.335,160.649h12.294V145.93C159.444,153.051,156.469,158.808,148.335,160.649Z" transform="translate(-124.8 -129.244)" fill="#1d1d1b" opacity="0.1"/><path d="M161.347,160.649h12.292V145.93C172.456,153.051,169.481,158.808,161.347,160.649Z" transform="translate(-119.996 -129.244)" fill="#1d1d1b" opacity="0.1"/><path d="M174.884,160.649h12.292V145.93C185.993,153.051,183.017,158.808,174.884,160.649Z" transform="translate(-114.999 -129.244)" fill="#1d1d1b" opacity="0.1"/><path d="M187.9,160.649h12.292V145.93C199.005,153.051,196.029,158.808,187.9,160.649Z" transform="translate(-110.195 -129.244)" fill="#1d1d1b" opacity="0.1"/><path d="M135.323,174.274h12.294V159.555C146.432,166.676,143.457,172.433,135.323,174.274Z" transform="translate(-129.604 -124.214)" fill="#1d1d1b" opacity="0.1"/><path d="M148.335,174.274h12.294V159.555C159.444,166.676,156.469,172.433,148.335,174.274Z" transform="translate(-124.8 -124.214)" fill="#1d1d1b" opacity="0.1"/><path d="M161.347,174.274h12.292V159.555C172.456,166.676,169.481,172.433,161.347,174.274Z" transform="translate(-119.996 -124.214)" fill="#1d1d1b" opacity="0.1"/><path d="M174.884,174.274h12.292V159.555C185.993,166.676,183.017,172.433,174.884,174.274Z" transform="translate(-114.999 -124.214)" fill="#1d1d1b" opacity="0.1"/><path d="M187.9,174.274h12.292V159.555C199.005,166.676,196.029,172.433,187.9,174.274Z" transform="translate(-110.195 -124.214)" fill="#1d1d1b" opacity="0.1"/><path d="M200.908,160.649H213.2V145.93C212.017,153.051,209.041,158.808,200.908,160.649Z" transform="translate(-105.391 -129.244)" fill="#1d1d1b" opacity="0.1"/><path d="M200.908,174.274H213.2V159.555C212.017,166.676,209.041,172.433,200.908,174.274Z" transform="translate(-105.391 -124.214)" fill="#1d1d1b" opacity="0.1"/><path d="M135.324,190.466H156.66V173.18C155.419,184.258,147.69,189.462,135.324,190.466Z" transform="translate(-129.603 -119.184)" fill="#1d1d1b" opacity="0.1"/><path d="M194.33,190.466h21.336V173.18C214.425,184.258,206.7,189.462,194.33,190.466Z" transform="translate(-107.82 -119.184)" fill="#1d1d1b" opacity="0.1"/><path d="M200.129,181.41H158.442l-3.915-2.4h49.519Z" transform="translate(-122.514 -117.03)" fill="#1d1d1b" opacity="0.1"/><path d="M174.561,198.456H164.407c4.6-2.644,8.711-6.35,10.154-15.859Z" transform="translate(-118.867 -115.707)" fill="#1d1d1b" opacity="0.1"/><path d="M183.55,198.456H173.4c4.6-2.644,8.711-6.35,10.154-15.859Z" transform="translate(-115.548 -115.707)" fill="#1d1d1b" opacity="0.1"/><rect width="2.011" height="2.852" transform="translate(52.7 73.394)" fill="#dcd9c8"/><rect width="2.011" height="2.852" transform="translate(58.832 73.394)" fill="#dcd9c8"/></g></g></g></g></svg>