<svg xmlns="http://www.w3.org/2000/svg" width="567.281" height="237.247" viewBox="0 0 567.281 237.247"><g transform="translate(-966.754 -157.808)" style="isolation:isolate"><g transform="translate(966.754 266.653)"><g transform="translate(12.343 10.221)"><rect width="118.848" height="116.166" transform="translate(0.728 0.728)" fill="#f7f6f1"/><path d="M1095.733,545.194l-.087-.728h-53.995c-.016.242-.033.485-.049.728h-1.569c-.016.242-.034.484-.05.727h80.956c.045-.063.09-.126.134-.191.07-.1.139-.2.209-.3.054-.078.108-.158.162-.237Zm29.952,49.44v4.785h.728v-4.785Zm0,0v4.785h.728v-4.785Zm-29.952-49.44-.087-.728h-53.995c-.016.242-.033.485-.049.728h-1.569c-.016.242-.034.484-.05.727h80.956c.045-.063.09-.126.134-.191.07-.1.139-.2.209-.3.054-.078.108-.158.162-.237Zm-88.9-.728V662.088h120.3V544.466Zm118.848,116.166H1008.293V545.921h117.393Z" transform="translate(-1006.837 -544.466)" fill="#97c4de"/></g><g transform="translate(27.955 22.946)"><rect width="17.075" height="21.215" fill="#bddbe6"/><rect width="17.075" height="21.215" transform="translate(26.248)" fill="#bddbe6"/><rect width="17.072" height="21.215" transform="translate(52.495)" fill="#bddbe6"/><rect width="17.075" height="21.215" transform="translate(0 32.895)" fill="#bddbe6"/><rect width="17.075" height="21.215" transform="translate(26.248 32.895)" fill="#bddbe6"/><rect width="17.072" height="21.215" transform="translate(52.495 32.895)" fill="#bddbe6"/><rect width="31.884" height="24.007" transform="translate(0 65.788)" fill="#bddbe6"/><rect width="30.116" height="24.007" transform="translate(39.451 65.788)" fill="#bddbe6"/><rect width="9.987" height="89.794" transform="translate(82.396)" fill="#bddbe6"/></g><g transform="translate(27.955 22.946)"><path d="M1064.234,585.791l-6.7,6.7v-6.7Z" transform="translate(-1057.535 -585.791)" fill="#a0c8e3"/><path d="M1057.535,799.432h4.961l-4.961,4.96Z" transform="translate(-1057.535 -733.645)" fill="#a0c8e3"/><path d="M1083.1,740.829l9.2-9.2v8.766l-.437.437Z" transform="translate(-1075.226 -686.718)" fill="#a0c8e3"/><path d="M1145.611,692.617h8.766l-11.605,11.605v-8.766Z" transform="translate(-1116.524 -659.721)" fill="#a0c8e3"/><path d="M1189.923,648.944l2.555-2.555v2.555Z" transform="translate(-1149.156 -627.728)" fill="#a0c8e3"/><path d="M1245.08,585.791v1.182l-17.071,17.072v-8.766l9.487-9.487Z" transform="translate(-1175.514 -585.791)" fill="#a0c8e3"/><path d="M1223.225,799.432h1.933v6.833l-17.173,17.173h-8.763Z" transform="translate(-1155.591 -733.645)" fill="#a0c8e3"/><path d="M1335.1,719.063v8.766l-9.987,9.987V729.05Z" transform="translate(-1242.713 -678.024)" fill="#a0c8e3"/><path d="M1069.036,692.617h5.283L1057.535,709.4v-5.284Z" transform="translate(-1057.535 -659.721)" fill="#a0c8e3"/><path d="M1159.846,589.279v5.287l-14.855,14.855h-2.22v-3.067Z" transform="translate(-1116.524 -588.205)" fill="#a0c8e3"/><path d="M1057.535,692.617h3.423l-3.423,3.423Z" transform="translate(-1057.535 -659.721)" fill="#a0c8e3"/><path d="M1071.325,585.791h3.285v19.244l-1.972,1.972h-15.1V599.58Z" transform="translate(-1057.535 -585.791)" fill="#a0c8e3"/><path d="M1152.842,585.791l-10.07,10.071V585.791Z" transform="translate(-1116.524 -585.791)" fill="#a0c8e3"/><path d="M1268.7,644.479l4.542-4.542v4.542Z" transform="translate(-1203.674 -623.264)" fill="#a0c8e3"/><path d="M1077.987,799.432h11.432v11.1l-12.91,12.91h-18.974v-3.554Z" transform="translate(-1057.535 -733.645)" fill="#a0c8e3"/><path d="M1185.648,799.432h3.53l-3.53,3.53Z" transform="translate(-1146.198 -733.645)" fill="#a0c8e3"/><path d="M1161.873,736.357l11.193-11.193v11.193Z" transform="translate(-1129.744 -682.247)" fill="#a0c8e3"/><path d="M1245.08,692.617v6.307l-14.908,14.908h-2.163V693.466l.85-.85Z" transform="translate(-1175.514 -659.721)" fill="#a0c8e3"/><path d="M1335.1,585.791v16.387l-9.987,9.987V589.636l3.845-3.845Z" transform="translate(-1242.713 -585.791)" fill="#a0c8e3"/><path d="M1264.667,864.395l5.783-5.783v5.783Z" transform="translate(-1200.884 -774.601)" fill="#a0c8e3"/><path d="M1335.1,784.519v22.529l-6.071,6.07h-3.917V794.505Z" transform="translate(-1242.713 -723.323)" fill="#a0c8e3"/></g><g transform="translate(25.762 20.753)"><path d="M1050.413,578.67v25.6h21.46v-25.6Zm2.194,23.408V580.864h17.072v21.215Z" transform="translate(-1050.413 -578.67)" fill="#d6e6f0"/><path d="M1135.65,578.67v25.6h21.46v-25.6Zm2.194,23.408V580.864h17.073v21.215Z" transform="translate(-1109.402 -578.67)" fill="#d6e6f0"/><path d="M1220.884,578.67v25.6h21.46v-25.6Zm19.266,23.408h-17.073V580.864h17.073Z" transform="translate(-1168.39 -578.67)" fill="#d6e6f0"/><path d="M1050.413,685.487v25.6h21.46v-25.6Zm2.194,2.194h17.072V708.9h-17.072Z" transform="translate(-1050.413 -652.594)" fill="#d6e6f0"/><path d="M1135.65,685.487v25.6h21.46v-25.6Zm19.267,2.194V708.9h-17.073V687.681Z" transform="translate(-1109.402 -652.594)" fill="#d6e6f0"/><path d="M1220.884,685.487v25.6h21.46v-25.6Zm19.266,23.41h-17.073V687.681h17.073Z" transform="translate(-1168.39 -652.594)" fill="#d6e6f0"/><path d="M1050.413,792.309v28.4h36.271v-28.4Zm34.077,26.2h-31.884V794.5h31.884Z" transform="translate(-1050.413 -726.522)" fill="#d6e6f0"/><path d="M1178.521,792.309v28.4h34.505v-28.4Zm32.311,26.2h-30.117V794.5h30.117Z" transform="translate(-1139.072 -726.522)" fill="#d6e6f0"/><path d="M1317.984,578.67v94.182h14.376V578.67Zm12.182,91.988h-9.989V580.864h9.989Z" transform="translate(-1235.589 -578.67)" fill="#d6e6f0"/></g><g transform="translate(8.31 3.088)"><path d="M1001.944,529.607l-2.97-5.253h121.785v5.253Z" transform="translate(-997.362 -523.414)" fill="#f7f6f1"/><path d="M1086.581,528.415l-3.442-.92h3.332c-.03-.252-.06-.505-.092-.757-.008-.061-.014-.123-.021-.183h-55.219c-.019.312-.039.625-.059.94h1.57c-.02.313-.04.626-.06.94h18.894c.006-.078.013-.154.02-.231.006-.059.011-.119.018-.178s.013-.13.021-.2c.011-.113.025-.225.039-.336h6.278c.07.1.142.192.213.287l.111.148c.049.065.1.13.148.194.073.1.146.192.22.286l.019.025h28.013C1086.582,528.429,1086.582,528.421,1086.581,528.415Zm0,0-3.442-.92h3.332c-.03-.252-.06-.505-.092-.757-.008-.061-.014-.123-.021-.183h-55.219c-.019.312-.039.625-.059.94h1.57c-.02.313-.04.626-.06.94h18.894c.006-.078.013-.154.02-.231.006-.059.011-.119.018-.178s.013-.13.021-.2c.011-.113.025-.225.039-.336h6.278c.07.1.142.192.213.287l.111.148c.049.065.1.13.148.194.073.1.146.192.22.286l.019.025h28.013C1086.582,528.429,1086.582,528.421,1086.581,528.415Zm-92.84-7.113.026.046,4.006,7.087h120.3V521.3Zm5.13,5.252-1.907-3.372H1116.2v3.372Z" transform="translate(-993.741 -521.302)" fill="#89b9dc"/></g><path d="M1099.4,511.275H966.754l2.858,3.134H1099.4Z" transform="translate(-966.754 -511.275)" fill="#89b9dc"/></g><g transform="translate(1242.394 248.823)"><rect width="291.641" height="134.805" transform="translate(0 11.426)" fill="#d6e6f0"/><g transform="translate(12.667 26.012)"><rect width="20.496" height="25.47" transform="translate(90.412)" fill="#89b9dc"/><rect width="20.496" height="25.47" transform="translate(58.903)" fill="#89b9dc"/><rect width="20.496" height="25.47" transform="translate(27.391)" fill="#89b9dc"/><rect width="20.496" height="25.47" transform="translate(90.412 39.488)" fill="#89b9dc"/><rect width="20.496" height="25.47" transform="translate(58.903 39.488)" fill="#89b9dc"/><rect width="20.496" height="25.47" transform="translate(27.391 39.488)" fill="#89b9dc"/><rect width="38.275" height="28.823" transform="translate(72.633 78.979)" fill="#89b9dc"/><rect width="36.16" height="28.823" transform="translate(27.391 78.979)" fill="#89b9dc"/><rect width="20.496" height="25.47" transform="translate(153.678)" fill="#89b9dc"/><rect width="20.496" height="25.47" transform="translate(185.19)" fill="#89b9dc"/><rect width="20.496" height="25.47" transform="translate(122.169)" fill="#89b9dc"/><rect width="20.496" height="25.47" transform="translate(185.19 39.488)" fill="#89b9dc"/><rect width="20.496" height="25.47" transform="translate(153.678 39.488)" fill="#89b9dc"/><rect width="20.496" height="25.47" transform="translate(122.169 39.488)" fill="#89b9dc"/><rect width="38.278" height="28.823" transform="translate(167.408 78.979)" fill="#89b9dc"/><rect width="36.157" height="28.823" transform="translate(122.169 78.979)" fill="#89b9dc"/><rect width="20.496" height="25.47" transform="translate(248.456)" fill="#89b9dc"/><rect width="20.496" height="25.47" transform="translate(216.943)" fill="#89b9dc"/><rect width="20.496" height="25.47" transform="translate(248.456 39.488)" fill="#89b9dc"/><rect width="20.496" height="25.47" transform="translate(216.943 39.488)" fill="#89b9dc"/><rect width="16.788" height="28.824" transform="translate(262.185 78.979)" fill="#89b9dc"/><rect width="36.157" height="28.823" transform="translate(216.943 78.979)" fill="#89b9dc"/><rect width="11.991" height="107.803" fill="#89b9dc"/></g><g transform="translate(12.667 26.012)"><path d="M1915,537.845v3.777l-11.991,11.991V544.43l6.584-6.585Z" transform="translate(-1903.011 -537.845)" fill="#a0c8e3"/><path d="M1903.011,750.168,1915,738.177v9.179l-11.991,11.991Z" transform="translate(-1903.011 -676.488)" fill="#a0c8e3"/><path d="M2007.941,666.08l-15.98,15.98v-9.179l6.8-6.8Z" transform="translate(-1964.57 -626.592)" fill="#a0c8e3"/><path d="M2114.791,537.845v3.46l-20.5,20.5v-9.182l14.773-14.774Z" transform="translate(-2035.392 -537.845)" fill="#a0c8e3"/><path d="M2035.215,836.595l22.84-22.841v9.183L2044.4,836.595Z" transform="translate(-1994.504 -728.792)" fill="#a0c8e3"/><path d="M2138.882,794.326h6.083l-6.083,6.083Z" transform="translate(-2066.249 -715.346)" fill="#a0c8e3"/><path d="M2215.228,666.08h1.886v7.3L2198.94,691.55h-2.323v-6.86Z" transform="translate(-2106.205 -626.592)" fill="#a0c8e3"/><path d="M2322.2,556.826v9.183l-10.443,10.442h-9.182Z" transform="translate(-2179.535 -550.981)" fill="#a0c8e3"/><path d="M2406.083,537.845l-4.015,4.015v-4.015Z" transform="translate(-2248.391 -537.845)" fill="#a0c8e3"/><path d="M1903.011,690.335,1915,678.344v5.535l-11.991,11.991Z" transform="translate(-1903.011 -635.08)" fill="#a0c8e3"/><path d="M2017.838,561.772v5.538l-12.567,12.564h-5.534Z" transform="translate(-1969.951 -554.404)" fill="#a0c8e3"/><path d="M2096.185,537.845l-1.89,1.89v-1.89Z" transform="translate(-2035.392 -537.845)" fill="#a0c8e3"/><path d="M1903.011,586.22,1915,574.23v23.6l-11.991,11.991Z" transform="translate(-1903.011 -563.026)" fill="#a0c8e3"/><path d="M2011.364,537.845l-19.4,19.4v-19.4Z" transform="translate(-1964.57 -537.845)" fill="#a0c8e3"/><path d="M1903.011,832.686,1915,820.695v20.7h-11.991Z" transform="translate(-1903.011 -733.595)" fill="#a0c8e3"/><path d="M1991.961,794.326h16.315l-16.315,16.316Z" transform="translate(-1964.57 -715.346)" fill="#a0c8e3"/><path d="M2013.853,717.879l13.755-13.755v13.755Z" transform="translate(-1979.72 -652.921)" fill="#a0c8e3"/><path d="M2142.088,607.569l5.78-5.779v5.779Z" transform="translate(-2068.468 -582.099)" fill="#a0c8e3"/><path d="M2094.993,666.08h19.8v3.8l-20.5,20.5v-23.6Z" transform="translate(-2035.392 -626.592)" fill="#a0c8e3"/><path d="M2217.114,537.845v11.778l-13.692,13.692h-6.8V546.523l8.678-8.678Z" transform="translate(-2106.205 -537.845)" fill="#a0c8e3"/><path d="M2300.262,537.845l-.517.517v-.517Z" transform="translate(-2177.577 -537.845)" fill="#a0c8e3"/><path d="M2103.77,884.039l1.73-1.73v1.73Z" transform="translate(-2041.949 -776.236)" fill="#a0c8e3"/><path d="M2242.9,734.762l6.243-6.243v6.243Z" transform="translate(-2138.24 -669.803)" fill="#a0c8e3"/><path d="M2156.893,794.326h20.264v3.335l-25.488,25.489h-12.787V812.337Z" transform="translate(-2066.249 -715.346)" fill="#a0c8e3"/><path d="M2307.712,666.08h12.529V677.15l-14.4,14.4h-6.1v-17.5Z" transform="translate(-2177.577 -626.592)" fill="#a0c8e3"/><path d="M2402.068,666.08h.057l-.057.056Z" transform="translate(-2248.391 -626.592)" fill="#a0c8e3"/><path d="M2422.564,537.845v19.048l-6.421,6.422h-14.075v-9.524l15.946-15.946Z" transform="translate(-2248.391 -537.845)" fill="#a0c8e3"/><path d="M2512.435,537.845l-8.033,8.032v-8.032Z" transform="translate(-2319.212 -537.845)" fill="#a0c8e3"/></g><g transform="translate(114.217 26.012)"><path d="M2242.146,857.537v9.179l-.179.179h-9.179Z" transform="translate(-2232.789 -759.093)" fill="#a0c8e3"/><path d="M2317.13,794.326l-17.385,17.384V802.53l8.2-8.2Z" transform="translate(-2279.126 -715.346)" fill="#a0c8e3"/><path d="M2418.253,666.08h4.312v4.87l-20.5,20.5v-9.179Z" transform="translate(-2349.941 -626.592)" fill="#a0c8e3"/><path d="M2524.9,549.743v9.182l-12.624,12.624H2504.4v-1.31Z" transform="translate(-2420.763 -546.079)" fill="#a0c8e3"/><path d="M2609.108,537.845l-1.589,1.589v-1.589Z" transform="translate(-2492.126 -537.845)" fill="#a0c8e3"/><path d="M2479.479,794.326h8.223v.959l-27.864,27.864h-9.183Z" transform="translate(-2383.566 -715.346)" fill="#a0c8e3"/><path d="M2627.534,666.08h.482v8.7l-16.773,16.773h-3.723v-5.456Z" transform="translate(-2492.126 -626.592)" fill="#a0c8e3"/><path d="M2736.012,562.179v9.179l-8.8,8.8h-9.18Z" transform="translate(-2568.611 -554.686)" fill="#a0c8e3"/><path d="M2703.306,856.672v9.183l-.442.442h-9.183Z" transform="translate(-2551.756 -758.494)" fill="#a0c8e3"/><path d="M2771.229,794.324v2.508l-16.789,16.788v-9.182l.967-.967,9.146-9.147Z" transform="translate(-2593.805 -715.345)" fill="#a0c8e3"/><path d="M2398.941,861.6v5.538l-2.57,2.57h-5.538Z" transform="translate(-2342.166 -761.903)" fill="#a0c8e3"/><path d="M2463.827,794.326,2446.656,811.5v-5.538l11.633-11.633Z" transform="translate(-2380.798 -715.346)" fill="#a0c8e3"/><path d="M2529.968,720.421l12.624-12.624v5.538l-7.086,7.086Z" transform="translate(-2438.456 -655.463)" fill="#a0c8e3"/><path d="M2614.643,666.08l-7.124,7.124v-5.535l1.589-1.589Z" transform="translate(-2492.126 -626.592)" fill="#a0c8e3"/><path d="M2658.2,609.569l4.889-4.889v4.889Z" transform="translate(-2527.203 -584.099)" fill="#a0c8e3"/><path d="M2724.953,537.845l-15.1,15.1V547.41l9.565-9.565Z" transform="translate(-2562.948 -537.845)" fill="#a0c8e3"/><path d="M2324.557,794.326H2335.9V806.58l-16.569,16.569h-19.587v-4.011Z" transform="translate(-2279.126 -715.346)" fill="#a0c8e3"/><path d="M2446.656,794.326h3.171l-3.171,3.172Z" transform="translate(-2380.798 -715.346)" fill="#a0c8e3"/><path d="M2425.853,719.189l13.172-13.172v13.172Z" transform="translate(-2366.402 -654.231)" fill="#a0c8e3"/><path d="M2554.088,608.879l5.2-5.2v5.2Z" transform="translate(-2455.148 -583.409)" fill="#a0c8e3"/><path d="M2505.684,666.08H2524.9v4.384l-20.5,20.5v-23.6Z" transform="translate(-2420.763 -626.592)" fill="#a0c8e3"/><path d="M2628.016,537.845v12.119l-13.351,13.351h-7.146V546.862l9.017-9.017Z" transform="translate(-2492.126 -537.845)" fill="#a0c8e3"/><path d="M2710.957,537.845l-1.1,1.1v-1.1Z" transform="translate(-2562.948 -537.845)" fill="#a0c8e3"/><path d="M2533.184,861.782l11.634-11.633v11.633Z" transform="translate(-2440.681 -753.979)" fill="#a0c8e3"/><path d="M2672.862,747.573h-.542l.542-.542Z" transform="translate(-2536.972 -682.615)" fill="#a0c8e3"/><path d="M2613.452,794.326h23.6l-28.823,28.823h-.709V800.258Z" transform="translate(-2492.126 -715.346)" fill="#a0c8e3"/><path d="M2723.765,666.08h6.584v17.015l-8.456,8.455h-12.041V679.992Z" transform="translate(-2562.948 -626.592)" fill="#a0c8e3"/><path d="M2776.624,841.205v14.388h-14.387Z" transform="translate(-2599.2 -747.79)" fill="#a0c8e3"/></g><g transform="translate(10.474 23.817)"><g transform="translate(90.413)"><path d="M2189.5,530.718v29.858h24.884V530.718Zm2.193,27.664V532.912h20.5v25.471Z" transform="translate(-2189.498 -530.718)" fill="#f7f6f1"/></g><g transform="translate(58.903)"><path d="M2087.17,530.718v29.858h24.884V530.718Zm22.69,27.664h-20.5V532.912h20.5Z" transform="translate(-2087.17 -530.718)" fill="#f7f6f1"/></g><g transform="translate(27.392)"><path d="M1984.843,530.718v29.858h24.883V530.718Zm22.689,27.664h-20.495V532.912h20.495Z" transform="translate(-1984.843 -530.718)" fill="#f7f6f1"/></g><path d="M2189.5,658.961v29.857h24.884V658.961Zm22.69,27.663h-20.5V661.155h20.5Z" transform="translate(-2099.085 -619.47)" fill="#f7f6f1"/><path d="M2087.17,658.961v29.857h24.884V658.961Zm22.69,27.663h-20.5V661.155h20.5Z" transform="translate(-2028.267 -619.47)" fill="#f7f6f1"/><path d="M1984.843,658.961v29.857h24.883V658.961Zm22.689,27.663h-20.495V661.155h20.495Z" transform="translate(-1957.451 -619.47)" fill="#f7f6f1"/><path d="M2153.7,789.039c-.086-.143-.172-.286-.256-.427s-.155-.266-.229-.4c-.039-.069-.078-.137-.115-.205q-.169-.305-.325-.6l-.1-.206h-5.151q-.182,1.1-.369,2.194h6.77C2153.851,789.275,2153.777,789.157,2153.7,789.039Zm0,0c-.086-.143-.173-.286-.256-.427s-.155-.266-.229-.4c-.039-.069-.078-.138-.115-.205q-.169-.305-.325-.6c-.035-.069-.07-.137-.1-.206h-5.151q-.182,1.1-.369,2.194h6.77C2153.851,789.275,2153.777,789.157,2153.7,789.039Zm-21.95-1.839v33.21h42.665V787.2Zm40.471,31.016h-38.278V789.394h38.278Z" transform="translate(-2059.123 -708.22)" fill="#f7f6f1"/><path d="M1984.843,787.2v33.21h40.543V787.2Zm38.35,2.194v28.822h-36.156V789.394Z" transform="translate(-1957.451 -708.22)" fill="#f7f6f1"/><path d="M2394.946,530.718v29.858h24.884V530.718Zm22.69,27.664h-20.5V532.912h20.5Z" transform="translate(-2241.268 -530.718)" fill="#f7f6f1"/><path d="M2497.278,530.718v29.858h24.883V530.718Zm2.194,27.664V532.912h20.5v25.471Z" transform="translate(-2312.089 -530.718)" fill="#f7f6f1"/><g transform="translate(122.168)"><path d="M2292.619,530.718v29.858H2317.5V530.718Zm2.194,27.664V532.912h20.5v25.471Z" transform="translate(-2292.619 -530.718)" fill="#f7f6f1"/></g><path d="M2497.278,658.961v29.857h24.883V658.961Zm22.689,27.663h-20.5V661.155h20.5Z" transform="translate(-2312.089 -619.47)" fill="#f7f6f1"/><path d="M2394.946,658.961v29.857h24.884V658.961Zm22.69,27.663h-20.5V661.155h20.5Z" transform="translate(-2241.268 -619.47)" fill="#f7f6f1"/><path d="M2292.619,658.961v29.857H2317.5V658.961Zm22.69,27.663h-20.5V661.155h20.5Z" transform="translate(-2170.452 -619.47)" fill="#f7f6f1"/><path d="M2439.531,787.2v33.21H2482.2V787.2ZM2480,789.394v28.822h-38.277V789.394Z" transform="translate(-2272.124 -708.22)" fill="#f7f6f1"/><path d="M2302.018,787.2c-.043.165-.087.33-.132.5l-.042.151c-.041.151-.083.3-.126.455-.1.366-.211.732-.32,1.093h13.668c.08-.372.16-.741.241-1.107l.087-.4q.075-.348.152-.692Zm0,0c-.043.165-.087.33-.132.5l-.042.151c-.041.151-.083.3-.126.455-.1.366-.211.732-.32,1.093h13.668c.08-.372.16-.741.241-1.107.028-.133.056-.263.087-.4q.075-.348.152-.692Zm-9.4,0v33.21h40.545V787.2Zm38.351,31.016h-36.157V789.394h36.157Z" transform="translate(-2170.452 -708.22)" fill="#f7f6f1"/><path d="M2805.054,530.718v29.858h1.2V530.718Z" transform="translate(-2525.089 -530.718)" fill="#f7f6f1"/><path d="M2702.727,530.718v29.858h24.884V530.718Zm2.194,27.664V532.912h20.5v25.471Z" transform="translate(-2454.272 -530.718)" fill="#f7f6f1"/><path d="M2600.4,530.718v29.858h24.885V530.718Zm22.691,27.664h-20.5V532.912h20.5Z" transform="translate(-2383.455 -530.718)" fill="#f7f6f1"/><path d="M2805.054,658.961v29.857h1.2V658.961Z" transform="translate(-2525.089 -619.47)" fill="#f7f6f1"/><path d="M2702.727,658.961v29.857h24.884V658.961Zm22.691,27.663h-20.5V661.155h20.5Z" transform="translate(-2454.272 -619.47)" fill="#f7f6f1"/><path d="M2602.592,668.322v18.3s0-18.308,0-18.308A.012.012,0,0,0,2602.592,668.322Zm-2.193-9.361v29.857h24.885V658.961Zm22.691,27.663h-20.5V661.155h20.5Z" transform="translate(-2383.455 -619.47)" fill="#f7f6f1"/><path d="M2749.506,789.394h16.789V787.2h-18.982v33.21h18.982v-2.194h-16.789Z" transform="translate(-2485.129 -708.22)" fill="#f7f6f1"/><path d="M2600.4,787.2v33.21h40.544V787.2Zm38.351,31.016h-36.156V789.394h36.156Z" transform="translate(-2383.455 -708.22)" fill="#f7f6f1"/><path d="M1895.888,530.718v112.19h16.379V530.718Zm14.186,110h-11.991v-107.8h11.991Z" transform="translate(-1895.888 -530.718)" fill="#f7f6f1"/></g><g transform="translate(0 3.593)"><rect width="290.7" height="5.953" transform="translate(0.94 0.94)" fill="#f7f6f1"/><path d="M1875.078,470.994c-.025.313-.049.626-.074.94h1.572c-.022.275-.043.55-.065.827,0,.038-.006.075-.009.113h215.314q-.053-.463-.1-.94h33.819c0-.274,0-.55,0-.825,0-.039,0-.077,0-.116Zm-13.2-5.953v7.834h291.64v-1.881h-289.76v-4.073h289.76v-1.881Z" transform="translate(-1861.876 -465.041)" fill="#97c4de"/></g><rect width="291.641" height="3.593" transform="translate(0 0)" fill="#97c4de"/></g><g transform="translate(1088.567 157.808)"><g transform="translate(0)"><g transform="translate(6.799 3.846)"><path d="M1392.709,178.208l-2.909-4.861h147.744l-2.909,4.861Z" transform="translate(-1388.142 -172.408)" fill="#f7f6f1"/><path d="M1384.414,170.3l4.034,6.741h142.994l4.032-6.741Zm5.1,4.86-1.784-2.98h144.427l-1.784,2.98Z" transform="translate(-1384.414 -170.296)" fill="#97c4de"/></g><path d="M1527.337,157.808h-165l2.858,3.845h159.288Z" transform="translate(-1362.334 -157.808)" fill="#97c4de"/></g><g transform="translate(10.833 10.586)"><rect width="141.537" height="224.646" transform="translate(0.728 0.728)" fill="#f7f6f1"/><path d="M1539.052,306.132V354.68h.727V306.605Zm0,68.718v14.078c.084-.011.163-.019.233-.021l.051,0a.784.784,0,0,1,.236.018l.021.009c.007.006.015.011.022.019a.228.228,0,0,1,.016.018.223.223,0,0,1,.022.034.476.476,0,0,1,.038.073l.019.045c.011.029.022.061.033.1s.019.064.028.1l.007.026V374.893Zm0,14.078c.084-.011.163-.019.233-.021l.051,0a.784.784,0,0,1,.236.018l.021.009c.007.006.015.011.022.019a.228.228,0,0,1,.016.018.223.223,0,0,1,.022.034.476.476,0,0,1,.038.073l.019.045c.011.029.022.061.033.1s.019.064.028.1l.007.026V374.893l-.727-.043Zm0-82.8V354.68h.727V306.605ZM1397.514,192.186v226.1h142.994v-226.1Zm141.538,224.646H1398.97V193.641h140.082Z" transform="translate(-1397.514 -192.186)" fill="#97c4de"/></g><rect width="43.415" height="53.71" transform="translate(31.851 182.977)" fill="#97c4de"/><rect width="43.415" height="53.71" transform="translate(89.737 182.977)" fill="#97c4de"/><g transform="translate(21.877 134.887)"><rect width="118.351" height="25.647" fill="#97c4de"/><g transform="translate(11.025 7.073)"><path d="M1476.639,619.151v4.513h-4.1v-4.513h-3.36v12.231h3.36v-4.789h4.1v4.789H1480V619.151Z" transform="translate(-1469.179 -619.047)" fill="#f7f6f1"/><path d="M1526.536,622.872a6.349,6.349,0,0,0-1.249-2,6.2,6.2,0,0,0-1.947-1.413,5.886,5.886,0,0,0-2.534-.534,6.115,6.115,0,0,0-2.506.508,6.333,6.333,0,0,0-1.982,1.361,6.164,6.164,0,0,0-1.3,1.972,5.987,5.987,0,0,0-.465,2.326A6.173,6.173,0,0,0,1515,627.4a6.265,6.265,0,0,0,3.2,3.395,5.888,5.888,0,0,0,2.532.534,6.023,6.023,0,0,0,2.507-.518,6.378,6.378,0,0,0,1.973-1.369,6.286,6.286,0,0,0,1.291-1.964,5.923,5.923,0,0,0,.465-2.316A6.215,6.215,0,0,0,1526.536,622.872Zm-3.135,3.411a3.2,3.2,0,0,1-.5,1.042,2.542,2.542,0,0,1-.87.741,2.689,2.689,0,0,1-3.377-.714,3.142,3.142,0,0,1-.516-1.025,4.141,4.141,0,0,1-.172-1.2,4.31,4.31,0,0,1,.163-1.18,3.1,3.1,0,0,1,.509-1.034,2.565,2.565,0,0,1,.87-.732,2.66,2.66,0,0,1,1.249-.276,2.69,2.69,0,0,1,1.232.267,2.658,2.658,0,0,1,.879.707,2.98,2.98,0,0,1,.525,1.016,4.212,4.212,0,0,1,.172,1.2A4.407,4.407,0,0,1,1523.4,626.283Z" transform="translate(-1500.581 -618.892)" fill="#f7f6f1"/><path d="M1572.162,625.946a2.839,2.839,0,0,0-.741-1.025,4.765,4.765,0,0,0-1.164-.732,12.649,12.649,0,0,0-1.524-.569q-.534-.171-.957-.292a5.525,5.525,0,0,1-.715-.251,1.476,1.476,0,0,1-.448-.283.54.54,0,0,1-.155-.4.482.482,0,0,1,.267-.465,1.554,1.554,0,0,1,.715-.138,3.771,3.771,0,0,1,1.128.18,9.72,9.72,0,0,1,1.043.387,9.583,9.583,0,0,1,1.068.551l1.447-2.774c-.276-.138-.585-.283-.93-.438s-.714-.3-1.11-.432a10.608,10.608,0,0,0-1.233-.327,6.546,6.546,0,0,0-1.309-.129,5.554,5.554,0,0,0-1.732.267,4.533,4.533,0,0,0-1.455.784,3.681,3.681,0,0,0-1.008,1.293,4.106,4.106,0,0,0-.37,1.791,3.6,3.6,0,0,0,.181,1.19,2.567,2.567,0,0,0,.56.921,3.762,3.762,0,0,0,.964.723,8.93,8.93,0,0,0,1.395.594q.552.19,1.043.327t.87.276a1.989,1.989,0,0,1,.594.32.554.554,0,0,1,.216.438.45.45,0,0,1-.216.387,1.442,1.442,0,0,1-.767.147,4.973,4.973,0,0,1-1.42-.207,9.068,9.068,0,0,1-1.25-.465,10.234,10.234,0,0,1-1.257-.672l-1.447,2.946a8.456,8.456,0,0,0,1.2.585,12.11,12.11,0,0,0,1.344.449,11.922,11.922,0,0,0,1.4.292,9.518,9.518,0,0,0,1.378.1,7.266,7.266,0,0,0,1.68-.2,4.49,4.49,0,0,0,1.5-.647,3.313,3.313,0,0,0,1.068-1.2,3.852,3.852,0,0,0,.405-1.852A3.721,3.721,0,0,0,1572.162,625.946Z" transform="translate(-1533.725 -618.813)" fill="#f7f6f1"/><path d="M1614.322,621.847a4.482,4.482,0,0,0-.853-1.36,4.288,4.288,0,0,0-1.3-.965,3.723,3.723,0,0,0-1.655-.37h-5.271v12.231h3.36v-3.756h2a3.808,3.808,0,0,0,1.645-.354,3.869,3.869,0,0,0,1.274-.947,4.487,4.487,0,0,0,1.112-2.938A4.089,4.089,0,0,0,1614.322,621.847Zm-3.368,2.567a.788.788,0,0,1-.578.285H1608.6V622.08h1.688a.934.934,0,0,1,.619.276,1.351,1.351,0,0,1,.311,1.033A1.5,1.5,0,0,1,1610.954,624.414Z" transform="translate(-1563.344 -619.047)" fill="#f7f6f1"/><path d="M1645.692,619.151v12.231h3.36V619.151Z" transform="translate(-1591.337 -619.047)" fill="#f7f6f1"/><path d="M1666.168,619.151v2.928h3.531v9.3h3.36v-9.3h3.514v-2.928Z" transform="translate(-1605.508 -619.047)" fill="#f7f6f1"/><path d="M1713.324,619.151h-3.066L1706,631.382h3.427l.725-2.394h3.255l.741,2.394h3.411Zm-2.67,7.6,1.136-3.79,1.086,3.79Z" transform="translate(-1633.077 -619.047)" fill="#f7f6f1"/><path d="M1755.8,628.454v-9.3h-3.36v12.231h8.907v-2.928Z" transform="translate(-1665.211 -619.047)" fill="#f7f6f1"/></g></g><g transform="translate(31.852 25.888)"><rect width="27.121" height="33.703" fill="#89b9dc"/><rect width="27.121" height="33.703" transform="translate(74.178)" fill="#89b9dc"/><rect width="27.125" height="33.703" transform="translate(37.087)" fill="#89b9dc"/><rect width="27.121" height="33.703" transform="translate(0 65.814)" fill="#89b9dc"/><rect width="27.121" height="33.703" transform="translate(74.178 65.814)" fill="#89b9dc"/><rect width="27.125" height="33.703" transform="translate(37.087 65.814)" fill="#89b9dc"/></g><g transform="translate(31.852 25.888)"><path d="M1485.95,241.877l-20.18,20.18v-9.183l11-11Z" transform="translate(-1465.77 -241.877)" fill="#a0c8e3"/><path d="M1478.046,455.6h9.182L1465.77,477.06v-9.183Z" transform="translate(-1465.77 -389.788)" fill="#a0c8e3"/><path d="M1609.922,306.775l19.823-19.822v9.179L1619.1,306.775Z" transform="translate(-1565.533 -273.072)" fill="#a0c8e3"/><path d="M1719.354,242.275l-12.7,12.7v-9.179l3.914-3.914h8.384Z" transform="translate(-1632.48 -241.877)" fill="#a0c8e3"/><path d="M1639.213,540.771l10.8-10.8v9.179l-1.624,1.623Z" transform="translate(-1585.804 -441.254)" fill="#a0c8e3"/><path d="M1728.775,455.6l-22.116,22.113v-9.179l12.934-12.934Z" transform="translate(-1632.48 -389.788)" fill="#a0c8e3"/><path d="M1550.09,348.725l1.156-1.156v1.156Z" transform="translate(-1524.125 -315.023)" fill="#a0c8e3"/><path d="M1613.334,241.877v.99l-27.125,27.125v-5.535l22.58-22.58Z" transform="translate(-1549.122 -241.877)" fill="#a0c8e3"/><path d="M1465.77,270.576l27.122-27.121v23.6l-9.618,9.618h-17.5Z" transform="translate(-1465.77 -242.969)" fill="#a0c8e3"/><path d="M1600.328,241.877,1586.209,256V241.877Z" transform="translate(-1549.122 -241.877)" fill="#a0c8e3"/><path d="M1478.715,513.055l23.135-23.135v23.135Z" transform="translate(-1474.729 -413.539)" fill="#a0c8e3"/><path d="M1586.811,455.6h23.6l-24.2,24.2V456.2Z" transform="translate(-1549.122 -389.788)" fill="#a0c8e3"/><path d="M1733.78,249.022v23.6l-7.9,7.9h-19.218v-4.381Z" transform="translate(-1632.48 -246.821)" fill="#a0c8e3"/><path d="M1734.548,478.084v23.6l-3.181,3.181h-23.6Z" transform="translate(-1633.248 -405.347)" fill="#a0c8e3"/></g><g transform="translate(31.851 25.889)"><path d="M1465.768,241.88v33.7h27.122v-33.7Zm24.928,31.509h-22.735V244.074H1490.7Z" transform="translate(-1465.768 -241.88)" fill="#d6e6f0"/><path d="M1706.658,241.88v33.7h27.122v-33.7Zm2.193,2.194h22.735v29.315h-22.735Z" transform="translate(-1632.48 -241.88)" fill="#d6e6f0"/><path d="M1586.215,241.88v33.7h27.122v-33.7Zm24.928,31.509h-22.734V244.074h22.734Z" transform="translate(-1549.125 -241.88)" fill="#d6e6f0"/><path d="M1465.768,455.605v33.7h27.122v-33.7Zm24.928,31.509h-22.735V457.8H1490.7Z" transform="translate(-1465.768 -389.792)" fill="#d6e6f0"/><path d="M1706.658,455.605v33.7h27.122v-33.7Zm2.193,2.194h22.735v29.315h-22.735Z" transform="translate(-1632.48 -389.792)" fill="#d6e6f0"/><path d="M1586.215,455.605v33.7h27.122v-33.7Zm24.928,31.509h-22.734V457.8h22.734Z" transform="translate(-1549.125 -389.792)" fill="#d6e6f0"/></g><rect width="1.157" height="47.266" transform="translate(106.702 186.686)" fill="#f7f6f1"/><rect width="1.157" height="47.266" transform="translate(46.821 186.686)" fill="#f7f6f1"/><g transform="translate(0 169.235)"><g transform="translate(6.799 3.846)"><path d="M1392.709,727.787l-2.909-4.861h147.744l-2.909,4.861Z" transform="translate(-1388.142 -721.986)" fill="#f7f6f1"/><path d="M1520.555,720.814c-.066.088-.136.175-.207.263-.055.07-.113.14-.171.209-.038.047-.076.093-.114.138-.093.111-.188.222-.286.331h1.516q.1-.481.209-.941Zm0,0c-.066.088-.136.175-.207.263-.055.07-.112.139-.171.209-.036.045-.075.092-.114.138-.093.111-.188.222-.286.331h1.516q.1-.481.209-.941Zm-136.141-.939,2.579,4.309.728,1.217.727,1.215h142.994l4.032-6.741Zm5.1,4.86-.339-.565-.728-1.217-.717-1.2h144.427l-.717,1.2-.729,1.217-.338.565Z" transform="translate(-1384.414 -719.875)" fill="#97c4de"/></g><path d="M1527.337,707.386h-165l2.858,3.845h159.288Z" transform="translate(-1362.334 -707.386)" fill="#97c4de"/></g><g transform="translate(4.635 69.91)"><g transform="translate(0 2.298)"><path d="M1382.794,400.055a2.35,2.35,0,0,1,0-4.7H1531.5a2.35,2.35,0,1,1,0,4.7Z" transform="translate(-1379.502 -394.414)" fill="#f7f6f1"/><path d="M1531.714,393.265a3.278,3.278,0,0,0-2.327-.964H1380.678a3.291,3.291,0,0,0,0,6.581h148.709a3.29,3.29,0,0,0,2.327-5.617ZM1529.387,397H1380.678a1.41,1.41,0,1,1,0-2.82h148.709a1.41,1.41,0,1,1,0,2.82Z" transform="translate(-1377.387 -392.301)" fill="#97c4de"/></g><g transform="translate(3.788)"><rect width="146.259" height="0.843" transform="translate(0.728 0.728)" fill="#f7f6f1"/><path d="M1537.4,384.837H1389.69v2.3H1537.4v-2.3Z" transform="translate(-1389.69 -384.837)" fill="#97c4de"/></g><g transform="translate(3.788 8.88)"><rect width="146.259" height="0.843" transform="translate(0.728 0.728)" fill="#f7f6f1"/><path d="M1537.4,413.673H1389.69v2.3H1537.4v-2.3Z" transform="translate(-1389.69 -413.673)" fill="#97c4de"/></g></g></g></g></svg>