<svg xmlns="http://www.w3.org/2000/svg" width="496.359" height="233.032" viewBox="0 0 496.359 233.032">
  <g id="img-doctors" transform="translate(-162.649 1078.13)">
    <g id="Group_95628" data-name="Group 95628">
      <path id="Path_210896" data-name="Path 210896" d="M575.517-991.359c-.208,0-2,.261-2.415,3.274s1.007,6.8,3.049,6.746-.634-10.021-.634-10.021Z" fill="#d1aeab" fill-rule="evenodd"/>
      <path id="Path_210897" data-name="Path 210897" d="M599.989-968.483s.12,8.772,1.95,11.446,14.193,8.9,14.193,8.9-18.63,13.958-23.017,15.3-17.427-17.133-17.427-17.133,7.669-2.949,8.5-6.908a36.306,36.306,0,0,0,.142-9.6s11.442,4.358,15.664-2Z" fill="#e8c5c2" fill-rule="evenodd"/>
      <path id="Path_210898" data-name="Path 210898" d="M599.989-968.483s.1,7.471,1.556,10.726c-.577.534-1.115.993-1.577,1.349-2.519,1.949-6.522,3.049-11.534,2.066a8.729,8.729,0,0,1-4.364-2.122,3.8,3.8,0,0,0,.114-.418,36.306,36.306,0,0,0,.142-9.6s11.442,4.358,15.664-2Z" fill="#d1aeab" fill-rule="evenodd"/>
      <path id="Path_210899" data-name="Path 210899" d="M604.908-1010.7c-.658-.423-.552-7.62-12.929-7.387s-14.737,8.223-17.247,9.51-2.865,8.479-2.659,11.379,3.133,7.162,3.021,9.145,1.3,8.292,1.3,8.292l31.292.6s4.3-2.213,4.021-15.722-3.893-15.942-6.8-15.82Z" fill="#41324d" fill-rule="evenodd"/>
      <path id="Path_210900" data-name="Path 210900" d="M599.49-1003.915a120.284,120.284,0,0,0-12.625.063c-4.276.434-9.028,4-9.81,6.392s-1.814,21.651,1.112,26,4.2,7.921,9.209,8.9,9.014-.117,11.534-2.066,7.328-6.925,8.3-10.8a17.551,17.551,0,0,0,.11-7.483s5-1.046,4.211-6.808-5.076-2.1-5.076-2.1-.176,6.45-.924,6.44-1.957-2.429-1.73-6.563.988-5.032-.054-7.613a10.334,10.334,0,0,0-4.255-4.364Z" fill="#e8c5c2" fill-rule="evenodd"/>
      <path id="Path_210901" data-name="Path 210901" d="M576.1-981.764c.154,4.653,0,7.229,2.072,10.3s4.2,7.922,9.209,8.9,9.014-.116,11.534-2.065,7.449-7.413,8.3-10.8a18.085,18.085,0,0,0,.16-7.495c-.733.049-3.328,4.2-3.761,5.533s-2.662,5.978-3.559,4.894-1.842-4.623-4.429-5.943-9.613-2.044-12.414.561-2.23,6.3-3.7,4.7-3.263-10.187-3.263-10.187c-.245.1-.145,1.206-.145,1.592Zm8.031,5.7a43.216,43.216,0,0,1,7.847-.166c3.446.352,4.65.806,4.546,1.034s-2.74,3.868-4.047,4.137-1.2-.662-2.146-.787-2.11-.09-2.442.372-.831.724-1.7-.1-3.923-4.509-2.055-4.488Z" fill="#41324d" fill-rule="evenodd"/>
      <path id="Path_210908" data-name="Path 210908" d="M590-992.155c-.05.062-.416,1.887-.836,4.063-.624,3.239-1.228,6.516-1.232,6.809,0,.088,4.379.6,4.391.605l-.018,1.25c-.016,0-5.733-.084-5.715-1.246.005-.342.706-4.361,1.342-7.651a28.8,28.8,0,0,1,1.088-4.611l.979.781Z" fill="#ad8d89"/>
      <path id="Path_210909" data-name="Path 210909" d="M584.456-975.38l10.733.364S588.514-969.2,584.456-975.38Z" fill="#eef4f7" fill-rule="evenodd"/>
      <path id="Path_210910" data-name="Path 210910" d="M577.862-951.846s-23.851,12.475-25.563,15.925-16.853,56.013-16.853,56.013,8.742,4.017,12.471,4.567,13.617.2,13.617.2L559.116-845.1H638.43l-1.864-27.286-2.352-20.719,23.154-4.626s-14.357-40.089-17-41.12-29.3-12.507-29.3-12.507l-18.012,22.57s-15.12-22.106-15.193-23.056Z" fill="#c9ddfb" fill-rule="evenodd"/>
      <path id="Path_210911" data-name="Path 210911" d="M634.216-893.108l5.94-1.186c-1.4-2.674-4.582-9.446-4.582-15.966,0-8.367,3.218-29.243-.142-25.737,0,0-4.879,12.445-5.087,20.713s3.87,22.176,3.87,22.176Z" fill="#b1caf0" fill-rule="evenodd"/>
      <path id="Path_210912" data-name="Path 210912" d="M636.946-866.852l-.38-5.541L636.1-876.5l-1.57-13.846H614.184s-2.153-22.6-3.662-24.942-7.37,0-7.37,0l-4.968,34.02-20.049-.344s1.972,18.1,3.322,20.989,6.746,0,21.174-2.885,13.753-4.344,16.036-5.12c1.453-.494,11.3.785,18.275,1.781Zm-.76-8.9-.085-.752-.468-4.131-37.445-.642L636.1-876.5l.085.752Z" fill="#b1caf0" fill-rule="evenodd"/>
      <path id="Path_210913" data-name="Path 210913" d="M605-845.1a5.833,5.833,0,0,1,1.056-3.929c4.151-6.412,11.473-17.259,18.994-8.688a45.334,45.334,0,0,1,7.741,12.617Z" fill="#b1caf0" fill-rule="evenodd"/>
      <path id="Path_210914" data-name="Path 210914" d="M557.257-875.045c2.414-.03,4.278-.1,4.278-.1l.567-6.516,1.7-37.178s-3.1,5.742-3.1,8.948-1.609-1.241-3.373-1.758,3.01,9.979.571,11.427-5.553-1.8-5.4,3.1,4.983,5.756,4.671,13.65a59.193,59.193,0,0,0,.085,8.422Z" fill="#b1caf0" fill-rule="evenodd"/>
      <path id="Path_210915" data-name="Path 210915" d="M608.251-954.174l3.779,2.828-18.869,23.717-3.339-4.476S608.293-954.174,608.251-954.174Z" fill="#cfdef5" fill-rule="evenodd"/>
      <path id="Path_210916" data-name="Path 210916" d="M578.887-953.57l14.4,17.3-3.467,4.252-14.746-19.369s3.894-2.177,3.811-2.178Z" fill="#dce8fa" fill-rule="evenodd"/>
      <path id="Path_210917" data-name="Path 210917" d="M546.78-875.573c.251,5.471.375,14.526-1.139,19.684a53.22,53.22,0,0,0-1.317,10.786h14.793l2.418-30.039s-9.888.352-13.617-.2c-.341-.05-.724-.13-1.138-.232Z" fill="#e8c5c2" fill-rule="evenodd"/>
      <path id="Path_210918" data-name="Path 210918" d="M546.78-875.573c.056,1.221.1,2.619.132,4.114a57.562,57.562,0,0,0,14.227,1.23l.4-4.912s-9.888.352-13.617-.2c-.341-.05-.724-.13-1.138-.232Z" fill="#d1aeab" fill-rule="evenodd"/>
      <path id="Path_210919" data-name="Path 210919" d="M638.8-937.523c-.021.042-7.463,14.627-6.162,26.755,1.315,12.266,1.429,15.925,1.429,15.936l-.938.037c0-.01-.112-3.616-1.427-15.877-1.329-12.4,6.237-27.228,6.258-27.27l.84.419Zm-100.728,53.35c.017.014,5.775,4.993,19.681,5.2l-.014.938c-14.24-.209-20.255-5.408-20.273-5.422l.606-.713Zm104.768-39.642c-.02.042-7.05,14.787-5.864,22.75l-.93.136c-1.227-8.247,5.922-23.24,5.943-23.283l.851.4Zm-6.662,26.558,17.667-3.941.2.912-17.667,3.941Zm-71.913-21.559-1.752,38.9-.938-.039,1.7-37.692.054-1.213.937.039Zm-7.38-7.458c0,.057.352,19.8,3.629,26.648l-.849.4c-3.362-7.025-3.717-26.977-3.719-27.034l.938-.016Zm-4.734,10.957c.007.044,2.325,15.608,8.2,23.575l-.758.553c-6.013-8.152-8.365-23.946-8.372-23.992l.929-.137ZM574.407-947c.021.039,7.338,13.566,9.927,23.581l-.908.233c-2.56-9.9-9.826-23.332-9.846-23.371l.827-.443Zm-18.49,10.2c.013.005,4.519,1.776,6.693,9.921l-.909.239c-2.052-7.692-6.134-9.292-6.146-9.3l.362-.863Zm9.849-2.624c.025.029,8.586,9.859,12.255,19.425l-.877.332c-3.607-9.4-12.065-19.117-12.089-19.145l.711-.613Zm4.857,83.379a29.679,29.679,0,0,0,3.01,10.943H572.6a30.485,30.485,0,0,1-2.919-10.909Zm58.066-12.978,5.836,23.921h-.965l-5.782-23.7.911-.221Zm-7.52.233L607.633-845.1h-1.082l13.8-24.151.817.463Zm8.422-68.754c-.045.047-15.327,15.962-13.577,29l-.932.122c-1.81-13.487,13.782-29.722,13.827-29.769l.683.644ZM620.61-890.79a12.381,12.381,0,0,1,1.754-5.009,13.392,13.392,0,0,1,3.384-4.095l.559.752a12.469,12.469,0,0,0-3.125,3.8,11.446,11.446,0,0,0-1.63,4.564l-.941-.014Zm-5.95-4.63a95.949,95.949,0,0,1,11.17-9.08l.529.774a94.891,94.891,0,0,0-11.043,8.975l-.656-.673Z" fill="#99afd1"/>
      <path id="Path_210920" data-name="Path 210920" d="M573.919-913.555l28.663-5.013a3.876,3.876,0,0,1,4.478,3.129l7.066,40.1a3.869,3.869,0,0,1-3.141,4.462l-28.663,5.013a3.879,3.879,0,0,1-4.478-3.129l-7.071-40.1a3.865,3.865,0,0,1,3.141-4.461Z" fill="#41324d" fill-rule="evenodd"/>
      <path id="Path_210921" data-name="Path 210921" d="M654.981-897.256S659.242-883.8,659-878.513s-7.08,7.092-12.643,7.01-24.223-1.761-33.577-3.8-21.974-2.225-23.39-1.915-11.192,1.47-12.636.849a5.341,5.341,0,0,1-2.726-3.825c-.329-1.556-.641-2.946-.641-2.946s-1.684-2.756-1.723-4.266.017-1.158.031-2.213-1.254-3.679-.916-5.391,2.288-1.684,2.288-1.684a12.029,12.029,0,0,1,3.241,1.289c1.5.911,2.43,1.3,3.7,1.13a4.263,4.263,0,0,0,2.283-1.373,16.627,16.627,0,0,1-3.66-3.8c-1.012-1.794-2.155-3.092-1.976-4a2.063,2.063,0,0,1,2.51-1.246,15.95,15.95,0,0,1,5.414,4.5c1.666,2.465,2.492,2.808,5.743,4.8s3.6,3.486,5.493,4.8,12.111,2.411,16.458,1.9,24.838-.567,24.838-.567l-1.119-4.2s19.034-3.791,18.993-3.794Z" fill="#e8c5c2" fill-rule="evenodd"/>
      <path id="Path_210922" data-name="Path 210922" d="M654.981-897.255s.4,1.268.951,3.178c-5.318.62-15.427,2.617-19.207,3.38l-.736-2.764s19.034-3.791,18.993-3.794Z" fill="#d1aeab" fill-rule="evenodd"/>
      <path id="Path_210923" data-name="Path 210923" d="M638.125-888.934c.013.007,4.612,2.648,5.847,7.071l-.9.25c-1.131-4.051-5.4-6.5-5.413-6.51l.472-.811Z" fill="#d1aeab"/>
      <path id="Path_210924" data-name="Path 210924" d="M610.562-989.242a2.247,2.247,0,0,0-.61-1.642,1.4,1.4,0,0,0-1.964-.252,1.4,1.4,0,0,0-.514.821c-.389,1.215-1.116,4.33-.4,4.731s1.57-1.68,2.373-.84,1.48-.879.688-1.732-2.6,1.745-2.206.117.829-2.069,1.285-1.461,1.358.84,1.349.259Z" fill="#d1aeab" fill-rule="evenodd"/>
      <path id="Path_210925" data-name="Path 210925" d="M603.659-1005.751c.01,0,3.581,1.093,3.581,7.123H606.3c0-5.347-2.925-6.233-2.933-6.236l.294-.887Zm1.559-2.886c.016,0,5.563.848,5.821,12.214l-.937.018c-.24-10.583-5.024-11.3-5.038-11.308l.154-.924Zm-3.889,2.328c-.035-.017-12.069-6.165-21.6-.357l-.488-.8c9.981-6.083,22.476.3,22.512.32l-.423.836Zm1.818-2.792c-.018-.022-6.29-7.971-17.609-4.5l-.275-.894c11.93-3.662,18.6,4.785,18.616,4.809l-.732.583Z" fill="#7d6b8c"/>
      <path id="Path_210926" data-name="Path 210926" d="M583.763-955.762a13.4,13.4,0,0,0-4.2,2.809,15.9,15.9,0,0,0-4.545,9.767,33.748,33.748,0,0,0,.808,11.765c1.267,5.416,3.445,10,5.19,11.831l-1.661,1.574c-1.981-2.077-4.408-7.086-5.763-12.887a35.994,35.994,0,0,1-.844-12.57,18.125,18.125,0,0,1,5.236-11.134,15.157,15.157,0,0,1,6.436-3.752,6.41,6.41,0,0,1-.66,2.6Z" fill="#4b555e"/>
      <path id="Path_210927" data-name="Path 210927" d="M581.762-921.1a5.817,5.817,0,0,1,5.795,5.839,5.817,5.817,0,0,1-5.839,5.794,5.816,5.816,0,0,1-5.8-5.815,5.827,5.827,0,0,1,5.838-5.818Z" fill="#b7bbbb" fill-rule="evenodd"/>
      <path id="Path_210928" data-name="Path 210928" d="M581.761-920.365a5.083,5.083,0,0,1,5.066,5.1,5.084,5.084,0,0,1-5.1,5.066,5.083,5.083,0,0,1-5.066-5.082A5.093,5.093,0,0,1,581.761-920.365Z" fill="#f3f3f4" fill-rule="evenodd"/>
      <path id="Path_210929" data-name="Path 210929" d="M581.761-918.419a3.137,3.137,0,0,1,3.127,3.148,3.139,3.139,0,0,1-3.149,3.128,3.139,3.139,0,0,1-3.127-3.138A3.144,3.144,0,0,1,581.761-918.419Z" fill="#b7bbbb" fill-rule="evenodd"/>
      <path id="Path_210930" data-name="Path 210930" d="M600.661-960.933c5.886,1.469,14.858,7.486,12.67,31.353l-2.474-.223c.7-7.689.689-25.334-9.671-28.905A11.916,11.916,0,0,1,600.661-960.933Z" fill="#4b555e"/>
      <path id="Path_210931" data-name="Path 210931" d="M604.891-919.136c-.012.058-3.893,20.035-2.966,24.142.808,3.579,2.6,2.605,2.608,2.6l.425.9c-.008,0-2.914,1.544-4-3.286-.971-4.3,2.951-24.49,2.962-24.548l.974.19Z" fill="#b7bbbb"/>
      <path id="Path_210932" data-name="Path 210932" d="M614.449-915.706a88.157,88.157,0,0,1-8.765,16.945,18.641,18.641,0,0,1-4.484,4.729c-1.612,1.053-3.2,1.285-4.639.262a6.514,6.514,0,0,1-1.91-2.379l.884-.458a5.542,5.542,0,0,0,1.6,2.027c1.053.746,2.259.543,3.521-.281a17.69,17.69,0,0,0,4.217-4.472,86.988,86.988,0,0,0,8.641-16.714l.935.341Z" fill="#b7bbbb"/>
      <path id="Path_210933" data-name="Path 210933" d="M603.165-918.565c0-.015-.066-5.362,2.228-9.161a7.4,7.4,0,0,1,4.769-3.776h.006a4.946,4.946,0,0,1,2.984.352,5.694,5.694,0,0,1,2.33,1.981,9.473,9.473,0,0,1,1.051,7.539,67.748,67.748,0,0,1-2.163,7.089l-1.86-.713a65.482,65.482,0,0,0,2.085-6.815,7.52,7.52,0,0,0-.752-5.967,3.727,3.727,0,0,0-1.514-1.31,2.959,2.959,0,0,0-1.794-.206,5.509,5.509,0,0,0-3.443,2.855c-2,3.307-1.941,8.147-1.941,8.16l-1.987-.026Z" fill="#3b434a"/>
      <path id="Path_210934" data-name="Path 210934" d="M604.924-893.345a1.416,1.416,0,0,1,1.982.293,1.5,1.5,0,0,1,.146.244c.253.713.581,1.366-.075,1.9-1.186.963-5.021-.816-2.053-2.437Z" fill="#fff" fill-rule="evenodd"/>
      <path id="Path_210935" data-name="Path 210935" d="M596.03-895.438a3.094,3.094,0,0,0-.161-2.517,1.476,1.476,0,0,0-2.013-.554,1.474,1.474,0,0,0-.582,1.96c.6,1.026,2.3,1.809,2.755,1.111Z" fill="#fff" fill-rule="evenodd"/>
      <path id="Path_210936" data-name="Path 210936" d="M603.035-985.128l3.3-4.362c-.026.648-.077,1.011-.154,1.79l-2.128,3.61-1.022-1.038Z" fill="#f3f3f4"/>
      <path id="Path_210937" data-name="Path 210937" d="M603.33-971.338l4.2-11.779a6.912,6.912,0,0,0,1.926-.9l-5,13.606-1.126-.925Z" fill="#f3f3f4"/>
      <path id="Path_210938" data-name="Path 210938" d="M575.362-986.963s8.282.6,10.25.605,18.652-.94,18.652-.94-.443,12.01.685,14.26,1.13,2.248,1.13,2.248-4.592,7.125-10.946,7.949-8.953.924-13.422-3.438a19.651,19.651,0,0,1-5.632-11.482c0-1.23-.717-9.2-.717-9.2Z" fill="#e4edf2" fill-rule="evenodd"/>
      <path id="Path_210939" data-name="Path 210939" d="M575.363-986.954h.007c4.084.338,6.733.412,10.816.593-1.676,6.016.767,15.962,1.852,18.643a27.978,27.978,0,0,0,2.688,5.221c-.669-.011-1.306.021-1.935.043-2.475-.241-3.534-.363-7.081-3.826s-5.623-10.243-5.623-11.473-.725-9.2-.725-9.2Z" fill="#eef4f7" fill-rule="evenodd"/>
      <path id="Path_210940" data-name="Path 210940" d="M576.73-982.962c1.84.337,8.36,1.531,9.018,1.6.75.082,17.077-1.749,17.121-1.755l.166,1.2c-.044.005-16.46,1.852-17.333,1.756-.68-.075-6.291-1.1-8.586-1.521-.141-.467-.271-.9-.386-1.288Z" fill="#d1dee6"/>
      <path id="Path_210941" data-name="Path 210941" d="M578.684-976.632c2.572.669,6.949,1.756,7.756,1.626,1.347-.218,14.943-2.231,14.984-2.237l.187,1.2c-.039.006-13.8,2.048-14.972,2.238-.888.143-4.845-.8-7.517-1.487-.148-.446-.294-.894-.438-1.34Z" fill="#d1dee6"/>
      <path id="Path_210942" data-name="Path 210942" d="M581.6-970.089c.013.006,5.694,1.979,6.6,1.745,1.071-.277,13.924-3.3,13.964-3.306l.266,1.186c-.04.009-12.878,3.026-13.948,3.3-1.235.319-6.451-1.624-6.465-1.63l-.417-1.3Z" fill="#d1dee6"/>
    </g>
    <g id="Group_95629" data-name="Group 95629">
      <path id="Path_210943" data-name="Path 210943" d="M558.813-845.1l-.747-14.891-63.2-1.414q-.467,8.19-.958,16.3Z" fill="#6182ad" fill-rule="evenodd"/>
      <path id="Path_210944" data-name="Path 210944" d="M558.814-845.1l-.747-14.891-63.2-1.414q-.467,8.19-.958,16.3Z" fill="#516f96" fill-rule="evenodd"/>
      <path id="Path_210945" data-name="Path 210945" d="M504.026-1020.248c-8.653,9.861-4.369,15.622-6.017,19.424s-4.891,12.93-1.4,19.524-3.794,11.668-2.153,18.72,4.866,16.1,25.7,14.73,26.542-8.513,27.884-17.871-5.318-17.263-3.581-21.134,1.32-12.193-1.487-18.137-1.94-6.007-2.544-9.773c-2.381-14.809-27.345-15.8-36.4-5.483Z" fill="#27374a" fill-rule="evenodd"/>
      <path id="Path_210946" data-name="Path 210946" d="M507.525-963.948c7.544,1.918,16.206,2.21,26.706.409a98.664,98.664,0,0,1,9.647,4.01c3.083,1.653,2,99.264,2,99.264l-47.485-1.063,2.069-97.191s5.894-2.344,7.06-5.43Z" fill="#cbd9f5" fill-rule="evenodd"/>
      <path id="Path_210947" data-name="Path 210947" d="M546.015-878.011l-.006,1.126c-13.382,9.109-37.094,10.888-37.167,10.894l-.067-.929c.074-.006,24.194-1.815,37.24-11.091Z" fill="#a7acc9" fill-rule="evenodd"/>
      <path id="Path_210948" data-name="Path 210948" d="M545.931-922.611c.076,6.529.115,13.371.128,20.034a21.782,21.782,0,0,1-10.783,11.027c-10.8,4.866-10.119,7.476-18.742,8.2-4.207.352-12.484-3.4-17.449-10.251l.557-26.165a45.267,45.267,0,0,1,3.3-4.513s12.876,3.465,21.058,3.465c6.926,0,17.4-5.921,21.936-1.791Z" fill="#cbd9f5" fill-rule="evenodd"/>
      <path id="Path_210949" data-name="Path 210949" d="M545.931-922.611c.076,6.529.115,13.371.128,20.034a21.782,21.782,0,0,1-10.783,11.027c-10.8,4.866-10.119,7.476-18.742,8.2-4.207.352-12.484-3.4-17.449-10.251l.557-26.165a45.267,45.267,0,0,1,3.3-4.513s12.876,3.465,21.058,3.465c6.926,0,17.4-5.921,21.936-1.791Z" fill="#becded" fill-rule="evenodd"/>
      <path id="Path_210950" data-name="Path 210950" d="M507.895-965.762a58.683,58.683,0,0,0,25.957,1.291s4.523,1.954,7.71,3.523c-1.639.425-3.526.86-5.7,1.3-18.028,3.663-26.685.882-30.585-1.6,1-.788,2.24-3.52,2.615-4.515Z" fill="#b7bbbb" fill-rule="evenodd"/>
      <path id="Path_210951" data-name="Path 210951" d="M530.88-894.051l.24,48.949h33.845l-2.1-38.429a5.26,5.26,0,0,0,3.892-2.034c1.122-1.355,2.071-3.616,2.151-7.378.177-8.346-8.445-47.343-10.68-57.3-1.079-4.81-11.125-7.766-15.447-9.987L534.925-964l-4.12,52.884c-1.39-.051-2.816-.1-4.205-.149-3.681-.127-7.111-.243-8.947-.338v-.041L504.5-961.738s-13.587,4.387-16.021,8.877-14.579,55.7-14.738,61.653c-.31,11.606,8.837,15.09,14.533,14.718L484.99-845.1h30.027l1.729-43.62c4.852-1.962,9.481-3.616,14.135-5.328Z" fill="#f3f3f4" fill-rule="evenodd"/>
      <path id="Path_210952" data-name="Path 210952" d="M530.88-894.051l.032,6.559.273.1-.3-6.661Zm-8.64,3.188c2.909-1.1,5.771-2.132,8.64-3.188l-18.015-4.765s-.344,2.561.593,3.856c.453.625,4.609,2.415,8.782,4.1Z" fill="#d4d6d6"/>
      <path id="Path_210953" data-name="Path 210953" d="M530.884-893.3l.028,5.776a129.5,129.5,0,0,0,20.611,7.956c6.726,2,10.028,2.432,11.679,2.171l-.336-6.133c.086,0,.173,0,.259-.012L530.883-893.3ZM488.273-876.49l-.813,7.774L516.5-882.432l.249-6.29c3.607-1.458,7.091-2.746,10.553-4.015-10.415,3.384-39.026,16.248-39.026,16.248Z" fill="#d4d6d6"/>
      <path id="Path_210954" data-name="Path 210954" d="M512.7-977.024s.228,12.881-4.029,15.983-4.254,2.924-4.254,2.924,14.277,7.512,24.554,3.658,8.525-5.848,8.525-5.848-5.926,1.289-7.9-3.2-1.253-13.89-1.253-13.89-9.85,5.915-15.643.369Z" fill="#f9dcd6" fill-rule="evenodd"/>
      <path id="Path_210955" data-name="Path 210955" d="M512.7-974.652a43.788,43.788,0,0,1-.219,4.623,11.262,11.262,0,0,0,1.034.661c4.741,2.67,10.223,2.656,14.71-1.015-.051-2.569.119-4.608.119-4.608s-9.85,5.436-15.644.339Z" fill="#e8c5c2" fill-rule="evenodd"/>
      <path id="Path_210956" data-name="Path 210956" d="M506.358-996.571c-4.413-4.234-7.27,2.469-5.068,5.622,1.55,2.22,4.872,2.839,4.883,2.332l.184-7.954Z" fill="#e8c5c2" fill-rule="evenodd"/>
      <path id="Path_210957" data-name="Path 210957" d="M535.411-995.973c4.6-4.049,7.149,2.765,4.8,5.824-1.652,2.155-5,2.636-4.987,2.129l.183-7.953Z" fill="#e8c5c2" fill-rule="evenodd"/>
      <path id="Path_210958" data-name="Path 210958" d="M505.309-999.788a22.527,22.527,0,0,0-.149,2.623c.035,5.959.236,19.674,8.359,24.249s18.418,1.276,22.169-14.806a55.613,55.613,0,0,0,1.784-15.319s-1.814-.27-9.583-1.344-16.94-7.148-16.94-7.148c-1.348.646-4.266,8.075-5.639,11.746Z" fill="#f9dcd6" fill-rule="evenodd"/>
      <path id="Path_210963" data-name="Path 210963" d="M518.785-996.607a.518.518,0,0,1,.581-.432.5.5,0,0,1,.458.537v.011l-1.212,9.554,2.964.492a.5.5,0,0,1,.425.564v.006a.523.523,0,0,1-.6.4l-3.452-.572-.488-.081.059-.462,1.271-10.014Z" fill="#d1aeab"/>
      <path id="Path_210964" data-name="Path 210964" d="M513.586-982.114a.475.475,0,0,1-.1-.663l.024-.029a.545.545,0,0,1,.734-.075c.012.01,4.453,3.518,11.244-.009a.538.538,0,0,1,.709.194.478.478,0,0,1-.176.651l-.031.017C518.575-978.177,513.6-982.1,513.586-982.114Z" fill="#d1aeab"/>
      <path id="Path_210965" data-name="Path 210965" d="M533.85-964.472s3.851.5,5.935.791c3.1,4.379,6.194,13.881,5.878,13.9-.536.03-5.176,1.466-8.318,2.559,1.253,2.212,4.138,6.672,4.138,6.672l-7,29.675-3.983-.254,3.354-53.343Z" fill="#fff" fill-rule="evenodd"/>
      <path id="Path_210966" data-name="Path 210966" d="M507.894-965.763s10.279,54.169,9.76,54.159-2.855-.106-2.855-.106l-12.992-24.667,3.4-9.07s-7.25,2.856-7.057,1.973,4.011-17.581,4.011-17.581l5.73-4.707Z" fill="#fff" fill-rule="evenodd"/>
      <path id="Path_210967" data-name="Path 210967" d="M534.479-910.876s8.738-5.639,14.3-6.758,7.7,2.455,8.971,3.739,1.63,2.787-.075,3.509-7.4.548-7.468.909-11.44-1.7-15.733-1.4Z" fill="#f9dcd6" fill-rule="evenodd"/>
      <path id="Path_210968" data-name="Path 210968" d="M514.4-911.719l-1.53,12.9s-4.83-2.993-8.991-2.776-5.369,2.01-5.315,1.479-.419-10.846,15.836-11.606Z" fill="#f9dcd6" fill-rule="evenodd"/>
      <path id="Path_210969" data-name="Path 210969" d="M500-924.038l-5.283,22.573-1.015-.247,5.283-22.574,1.014.247Z" fill="#d4d6d6"/>
      <path id="Path_210970" data-name="Path 210970" d="M546.273-928.139l3.013,10.352-1,.306-3.012-10.352,1-.306Z" fill="#d4d6d6"/>
      <path id="Path_210971" data-name="Path 210971" d="M511.432-965.9a15.942,15.942,0,0,0-3.2,2.411,16.589,16.589,0,0,0-3.6,5.269c-.207.12-.207.1-.207.1l.135.068a23.6,23.6,0,0,0-1.669,6.38,41.98,41.98,0,0,0,.95,14.233c1.49,6.552,4.05,12.1,6.1,14.313l-1.95,1.9c-2.329-2.513-5.182-8.573-6.778-15.589a44.788,44.788,0,0,1-.992-15.205c.647-5.129,2.5-9.907,6.155-13.47a19.213,19.213,0,0,1,5.79-3.851,28.882,28.882,0,0,1-.731,3.441Z" fill="#4b555e"/>
      <path id="Path_210972" data-name="Path 210972" d="M510.809-924.951a7.038,7.038,0,0,1,7.213,6.861,7.039,7.039,0,0,1-6.861,7.214,7.04,7.04,0,0,1-7.214-6.862c0-.059,0-.118,0-.176A6.951,6.951,0,0,1,510.809-924.951Z" fill="#b7bbbb" fill-rule="evenodd"/>
      <path id="Path_210973" data-name="Path 210973" d="M510.809-924.062a6.151,6.151,0,0,1,6.3,6,6.152,6.152,0,0,1-6,6.3,6.152,6.152,0,0,1-6.3-6c0-.051,0-.1,0-.151A6.074,6.074,0,0,1,510.809-924.062Z" fill="#f3f3f4" fill-rule="evenodd"/>
      <path id="Path_210974" data-name="Path 210974" d="M510.808-921.711a3.8,3.8,0,0,1,3.9,3.7,3.8,3.8,0,0,1-3.7,3.9,3.8,3.8,0,0,1-3.9-3.7c0-.033,0-.066,0-.1a3.749,3.749,0,0,1,3.7-3.8Z" fill="#b7bbbb" fill-rule="evenodd"/>
      <path id="Path_210975" data-name="Path 210975" d="M528.252-971.512c6.2,2.833,13.734,10.947,11.686,33.94l-2.678-.249c1.364-15.322-1.7-23.419-5.511-27.691l.006-.009h-.009a14.532,14.532,0,0,0-3.256-2.733c-.125-1.088-.2-2.2-.234-3.259Z" fill="#4b555e"/>
      <path id="Path_210976" data-name="Path 210976" d="M530.8-925.934c-.007.037-1.425,7.548-2.417,14.739l-1.07-.044c1-7.294,2.426-14.869,2.433-14.906l1.055.212Z" fill="#b7bbbb"/>
      <path id="Path_210977" data-name="Path 210977" d="M541.143-922.113a108.386,108.386,0,0,1-5.006,11.241l-1.187-.05a107.862,107.862,0,0,0,5.185-11.571l1.013.38Z" fill="#b7bbbb"/>
      <path id="Path_210978" data-name="Path 210978" d="M528.928-925.3c0-.017-.071-5.974,2.412-10.206,1.479-2.519,3.337-3.848,5.163-4.206h.006a5.211,5.211,0,0,1,3.231.392,6.225,6.225,0,0,1,2.522,2.208,10.8,10.8,0,0,1,1.138,8.4,76.8,76.8,0,0,1-2.342,7.9l-2.013-.8A74.313,74.313,0,0,0,541.3-929.2a8.592,8.592,0,0,0-.815-6.649,4.076,4.076,0,0,0-1.638-1.459,3.14,3.14,0,0,0-1.943-.23c-1.261.25-2.594,1.251-3.727,3.181-2.162,3.684-2.1,9.075-2.1,9.091l-2.15-.029Z" fill="#3b434a"/>
      <path id="Path_210979" data-name="Path 210979" d="M513.34-947.9c.007.037,2.2,12.946,12.559,17.085l-.327.867c-10.832-4.331-13.112-17.741-13.119-17.785l.892-.167Z" fill="#a7acc9"/>
      <path id="Path_210980" data-name="Path 210980" d="M487.887-896.65c.034-.016,11.85-5.4,17.016-5.4v.929c-4.967,0-16.616,5.307-16.65,5.323l-.367-.852Z" fill="#d4d6d6"/>
      <path id="Path_210981" data-name="Path 210981" d="M553.592-951.622c-.01.007-3.613,2.288-6.49,17.565l-.892-.175c2.95-15.672,6.88-18.166,6.891-18.174l.49.784Z" fill="#d4d6d6"/>
      <path id="Path_210982" data-name="Path 210982" d="M490.951-952.7a45.218,45.218,0,0,1,8.4,23.317l-.906.069a44.191,44.191,0,0,0-8.2-22.8l.7-.587Z" fill="#d4d6d6"/>
      <path id="Path_210985" data-name="Path 210985" d="M560.975-871.733a84.811,84.811,0,0,1-22.644,21.16l-.48-.788a83.766,83.766,0,0,0,22.381-20.909l.743.535Z" fill="#b7bbbb"/>
      <path id="Path_210986" data-name="Path 210986" d="M504.641-997.732l1.984,8.756,1.036-.163-2.472-9.229-.549.636Z" fill="#fafbff"/>
      <path id="Path_210987" data-name="Path 210987" d="M537.81-997.206l-3.6,8.659-1-.185,4.186-9.542.408,1.069Z" fill="#fafbff"/>
      <path id="Path_210988" data-name="Path 210988" d="M535.6-988.606s-13.42-2.322-15.691-2.2-14.22,1.584-14.22,1.584.564,9.2,2.958,11.97,6.9,6.912,13.051,6.169,11.483-4.491,13.9-17.523Z" fill="#eef4f7" fill-rule="evenodd"/>
      <path id="Path_210989" data-name="Path 210989" d="M519.185-990.753c-3.276.283-12.832,1.449-13.464,1.527.05.729.162,2.138.367,3.77.407,2.876,1.178,6.608,2.558,8.2,2.068,2.39,5.709,5.8,10.624,6.216-.173-3.558.443-13.267-.085-19.715Z" fill="#e4edf2" fill-rule="evenodd"/>
      <path id="Path_210990" data-name="Path 210990" d="M509.925-981.11l9.2-1.237,10.469,1.009-.063,1.083-10.379-1-9.1,1.213-.127-1.07Zm.907,4.921,8.4-1.021,8.864,1.06-.082,1.079-8.732-1.04-8.277.98-.175-1.059Zm-2.412-9.2,10.691-1.378,11.275,1.055-.064,1.083-11.183-1.044-10.593,1.355-.127-1.071Z" fill="#d1dee6"/>
    </g>
    <g id="Group_95630" data-name="Group 95630">
      <path id="Path_210991" data-name="Path 210991" d="M437.037-1037.106s-3.727.177-9.051,4.244c-10.885,8.314-11.87,22.967-8.063,39.877,1.656,7.355,1.94,26.414-2.831,46.153l70.269-2.965s-16.774-26.7-16.6-43.321-4.593-31.477-13.489-40.849-20.237-3.138-20.237-3.138Z" fill="#51463f" fill-rule="evenodd"/>
      <path id="Path_210992" data-name="Path 210992" d="M432.091-962.848s-15.6,10.273-20.339,20.443-8.873,36.583-8.873,36.583c2.215.154,6.027,1.236,10.372-1.264,0,0-5.285-29.6,18.84-55.762Z" fill="#395c4d" fill-rule="evenodd"/>
      <path id="Path_210993" data-name="Path 210993" d="M439.361-986.357s1.078,9.726-.444,14.5-10.827,12.732-10.827,12.732,2.927,18.7,10.737,18.641c1.56-.012,24.78-25,25.916-26.156,0,0-6.847-4.263-8.349-10.345s-.6-20.1-.6-20.1-9.381,14.012-16.435,10.723Z" fill="#f9dcd6" fill-rule="evenodd"/>
      <path id="Path_210994" data-name="Path 210994" d="M431.019-961.8c-1.668,1.6-2.929,2.679-2.929,2.679s2.927,18.7,10.737,18.641c1.293-.011,17.463-17.176,23.608-23.713-.2.072-.39.131-.6.206-18.694,6.718-27.078,5.21-30.816,2.186Z" fill="#fafbff" fill-rule="evenodd"/>
      <path id="Path_210995" data-name="Path 210995" d="M496.481-923.216c6.823,22.5,11.9,42.266,15.619,65.46h-4.26s-7.372-39.121-11.1-48.376a23.559,23.559,0,0,1-.262-17.085Z" fill="#354861" fill-rule="evenodd"/>
      <path id="Path_210996" data-name="Path 210996" d="M421.8-867.032s-6.035,7.243-8.165,20.943c-.046.3-.089.633-.132.985h77.587a10.42,10.42,0,0,0-.562-.985,60.7,60.7,0,0,1-8.991-21.875s-51.577,4.719-59.738.932Z" fill="#4d7362" fill-rule="evenodd"/>
      <path id="Path_210997" data-name="Path 210997" d="M418.449-861.565a50.371,50.371,0,0,0-3.6,9.642c1.211,2.044,2.616,4.429,4.009,6.82h45.348c5.23-5.771,14.031-12.3,19.135-15.894-.665-2-1.106-3.677-1.385-4.881l-4.375-1.746c-3.114.258-7.819.626-13.218.981-11,3.04-30.219,7.272-45.915,5.077Z" fill="#395c4d" fill-rule="evenodd"/>
      <path id="Path_210998" data-name="Path 210998" d="M419.313-874.828l.532,11.584s10.471,3.409,27.156,2.21,26.364-3.514,26.364-3.514l-.262-9.617s-32.143,3.8-53.791-.662Z" fill="#43405c" fill-rule="evenodd"/>
      <path id="Path_210999" data-name="Path 210999" d="M439.361-986.357s.923,8.331-.146,13.357a11.793,11.793,0,0,1-.3,1.143c-.027.086-.058.174-.091.262,3.712.46,10.5-.412,16.154-10.607q.333-.6.648-1.2c-.3-6.355.168-13.674.168-13.674s-9.381,14.012-16.435,10.723Z" fill="#e8c7c0" fill-rule="evenodd"/>
      <path id="Path_211000" data-name="Path 211000" d="M425-1015.322a152.282,152.282,0,0,1,.327,15.7c-.356,6.455,3.993,13.793,12.69,16.181s15.975-7.427,17.128-11.317a24.8,24.8,0,0,0,1.154-4.686s4.172.8,5.325-4.951-.355-7.781-1.686-7.781a3.874,3.874,0,0,0-2.485,1.5l-.024-.139c-.965,3.627-2.972,10.761-2.972,10.761s.133-4.668,0-8.355a40.038,40.038,0,0,0-.991-6.769c-11.156-.223-16.9-5.587-19.587-9.385a14.223,14.223,0,0,1-1.8-1.807s-5.3,5.561-7.075,11.043Zm25.944-.854a56.693,56.693,0,0,1-14.135-6.235C439.6-1019.647,444.052-1016.854,450.943-1016.176Z" fill="#f9dcd6" fill-rule="evenodd"/>
      <path id="Path_211001" data-name="Path 211001" d="M436.6-1008.368c0,.017-.136,5.966-2.349,7.979-.859.783-1.247,1.338-1.139,1.734.12.432.8.843,2.053,1.309l-.373,1c-1.6-.594-2.494-1.223-2.714-2.028-.228-.841.272-1.724,1.452-2.8,1.87-1.7,2-7.212,2-7.228l1.069.034Z" fill="#bd9b94"/>
      <path id="Path_211002" data-name="Path 211002" d="M432.45-993.29c.011.011,3.837,3.9,9.937-.924l.666.836c-6.856,5.425-11.349.857-11.363.844l.759-.757Z" fill="#bd9b94"/>
      <path id="Path_211009" data-name="Path 211009" d="M460.881-1009.366s-1.4-1.7-2.529,0-2.839,5.636-1.419,6.829,1.708-3.647,2.329-2.409.888.973.932-.862-2.64,1.393-2.241-.133,1.442-3.67,1.886-2.366,1.775-.221,1.042-1.06Z" fill="#e8c7c0" fill-rule="evenodd"/>
      <path id="Path_211010" data-name="Path 211010" d="M434.945-968.585c-19,21.2-23.47,26.113-23.569,45.933-.026,5.116,6.923,49.644,6.923,49.644s7.026,2.652,21.2,2.652,33.52-2.829,33.52-2.829l3.872-29.264s4.825-.974,11.747,1.5,8.342,2.3,8.342,2.3c.837-13.69,7.007-45.092-14.554-62.6-1.1-.895-15.59-11.3-20.394-12.382s-4.189-2.45-4.189-2.45-4.909,14.119-10.531,23.227-9.792,11.848-9.792,11.848-6.567-9.283-2.574-27.585Z" fill="#51806b" fill-rule="evenodd"/>
      <path id="Path_211011" data-name="Path 211011" d="M411.376-922.652c-.012,2.526,1.675,14.659,3.387,26.3,2.694,1.075,6.345-3.222,13.361,2.516,8.867,7.252,10.947,10.966,18.216,5.308s16.613-6.208,22.5-1.955a10.907,10.907,0,0,0,6.215,1.886l1.832-13.85a15.067,15.067,0,0,1,2.947-.186c-3.01-8.533-6.471-18.722-6.471-20.473,0-3.1-4.524-.619-4.524-.619s-5.332-5.577-16.568-2.479-11.228,8.124-23.008,5.611-17.889-6.078-17.89-2.057Z" fill="#4d7362" fill-rule="evenodd"/>
      <path id="Path_211012" data-name="Path 211012" d="M414.27-915.134c.021.078,7.075,27.27,13.418,36.161l.872-.619c-6.227-8.73-13.234-35.732-13.254-35.81l-1.036.267ZM467.8-904.966c-.017.072-5.908,25.073-13.185,29.692l.574.9c7.65-4.856,13.635-30.271,13.652-30.344l-1.041-.246Zm-12.253.9c-.014.058-4.771,20.694-6.212,26.7l1.04.246c1.733-7.22,6.2-26.648,6.215-26.7l-1.043-.238Z" fill="#5aa684" fill-rule="evenodd"/>
      <path id="Path_211013" data-name="Path 211013" d="M473.6-877.593l2.613-19.753c-3.259-5.3-6.69-8.437-5.964-21.42.869-15.561,2.158-28,6.057-33.538,2.608-3.707,5.96-5.507,7.9-7.406q-.857-.783-1.777-1.535c-.359-.292-2.149-1.6-4.562-3.267a69.764,69.764,0,0,0-13.12,27.8c-4.44,20.239,0,50.132,0,50.132l5.106,13.83,3.752-4.84Z" fill="#4d7362" fill-rule="evenodd"/>
      <path id="Path_211014" data-name="Path 211014" d="M481.663-952.452a46.1,46.1,0,0,0-6.48,20.262,206.493,206.493,0,0,0,0,27.273l-1.069.071a207.512,207.512,0,0,1,0-27.431,47.284,47.284,0,0,1,6.656-20.763l.893.589Zm4.262,3.276c.028.068,9.7,23.492,7.56,36.356l-1.057-.171c2.09-12.572-7.466-35.718-7.494-35.784l.99-.4Z" fill="#5aa684"/>
      <path id="Path_211015" data-name="Path 211015" d="M478.127-964.511c-17.792,15.854-18.249,55.2-15.692,73.527,1.228,8.792,2.9,17.4,4.55,24.689,2.386-2.953,4.24-5.275,4.614-5.744-9.164-26.113-9.177-70.38,9.828-90.189a28.832,28.832,0,0,0-3.3-2.283Z" fill="#354861" fill-rule="evenodd"/>
      <path id="Path_211016" data-name="Path 211016" d="M471.7-845.1l-.1-3.123,11.5,3.123Z" fill="#fee3b0" fill-rule="evenodd"/>
      <path id="Path_211017" data-name="Path 211017" d="M520.039-859.013,495.167-845.1H482.894l-11.287-3.123,29.272-15.506,19.16,4.718Z" fill="#ebd19c" fill-rule="evenodd"/>
      <path id="Path_211018" data-name="Path 211018" d="M521.354-845.1c-.681-8.072-1.317-13.911-1.317-13.911L495.161-845.1Z" fill="#d6bb86" fill-rule="evenodd"/>
      <path id="Path_211019" data-name="Path 211019" d="M510.926-845.1l-.328-9.891-6.208,3.537.211,6.354Z" fill="#fee3b0" fill-rule="evenodd"/>
      <path id="Path_211020" data-name="Path 211020" d="M440.021-941.288S435.84-928.063,436-919.4s3.5,49.042,3.5,49.042h-2.963s-2.84-38.609-2.84-49.892A61.787,61.787,0,0,1,437.523-941l2.5-.287Z" fill="#5aa684" fill-rule="evenodd"/>
      <path id="Path_211021" data-name="Path 211021" d="M437.519-941c0,.034-5.858-18.427.716-29.322a11.088,11.088,0,0,0,1.223-4.371c-1.726.609-4.141,3.194-4.141,3.194s-10.526,10.935-10.526,12.1c1.775.543,6.286,2.2,6.286,2.2s-4.248,4.038-5.158,4.679A34.145,34.145,0,0,0,437.519-941Z" fill="#529979" fill-rule="evenodd"/>
      <path id="Path_211022" data-name="Path 211022" d="M456.393-976.985s-1.977,6.429-4.409,13.262S437.519-941,437.519-941L459-950.637l-6.123-6.278,10.294-.353-1.133-16.358a11.148,11.148,0,0,0-5.638-3.359Z" fill="#529979" fill-rule="evenodd"/>
      <path id="Path_211023" data-name="Path 211023" d="M423.865-949.254c-.026.043-8.96,15.167-14,17.448-5.222,2.364-6.1,1.411-6.1,1.409l.759-.756s.362.429,4.9-1.626c4.724-2.139,13.489-16.975,13.514-17.018l.923.543Z" fill="#dbdbdb"/>
      <path id="Path_211024" data-name="Path 211024" d="M405.043-931.9a9.374,9.374,0,0,0-2.933-.1c-.569.28-.956,2.18-.116,2.515s3.336-.025,3.5-.633.168-1.593-.452-1.779Z" fill="#656c73" fill-rule="evenodd"/>
      <path id="Path_211025" data-name="Path 211025" d="M417.092-951.745c-.027.045-9.656,15.486-9.023,19.339.576,3.506,5.635,2.534,5.649,2.532l.193,1.048c-.017,0-6.144,1.185-6.9-3.408-.7-4.248,9.142-20.025,9.169-20.07l.909.559Z" fill="#dbdbdb"/>
      <path id="Path_211026" data-name="Path 211026" d="M413.041-930.274a9.36,9.36,0,0,1,2.818-.818c.621.132,1.464,1.879.731,2.41s-3.238.793-3.549.243-.554-1.5,0-1.835Z" fill="#656c73" fill-rule="evenodd"/>
      <path id="Path_211027" data-name="Path 211027" d="M436.069-931.817c2.451,0,4.438,2.512,4.438,5.611s-1.987,5.611-4.437,5.611-4.437-2.512-4.437-5.611,1.986-5.611,4.437-5.611Z" fill="#dadcdd" fill-rule="evenodd"/>
      <path id="Path_211028" data-name="Path 211028" d="M439.157-972.739c-.026.022-7.321,6.088-10.868,11.67,2.772,3.978-5.113,13.978-5.146,14l-1.678-1.618c.027-.02,6.443-7.708,4.682-11.28-4.246-.2-9.226,9.733-9.239,9.763l-2.189-1.006c.016-.034,5.616-11.32,11.545-11.15,3.795-5.945,13.318-13.491,13.345-13.514h0a22.775,22.775,0,0,1-.393,2.871c-.018.088-.038.174-.057.26Z" fill="#656c73"/>
      <path id="Path_211029" data-name="Path 211029" d="M478.1-906.123c.035,0,12.074-.332,17.087,3.506l-.654.844c-4.708-3.6-16.379-3.286-16.412-3.285Z" fill="#5aa684"/>
      <path id="Path_211030" data-name="Path 211030" d="M471.12-855.668c.558,1.4,1.963,6.451,3.074,10.566h6.114c-1.741-6.449-4.217-14.7-4.985-16.7-1.338,1.966-2.76,4.036-4.2,6.132Z" fill="#354861" fill-rule="evenodd"/>
      <path id="Path_211031" data-name="Path 211031" d="M457.963-980.612c1.557,2.878-3.444,9.11-5.464,11.547-3.907,4.712-9.2,11.1-10.5,23.393-1.691,16.009-2.557,17.866-2.557,17.867h-2.449s.9-1.924,2.61-18.111c1.376-13.027,6.938-19.734,11.04-24.681,1.062-1.281,2.021-2.438,2.761-3.543,2.015-3.009,2.523-4.242,2.633-4.737a28.953,28.953,0,0,1-.348-3.5s2.062.984,2.278,1.763Z" fill="#656c73"/>
      <path id="Path_211032" data-name="Path 211032" d="M434.538-928.944s2.663,1.378,4.481.531.838,2.8.838,2.8-3.056.075-4.166,1.888c-1.764-.442-2.462-3.669-1.154-5.217Z" fill="#ccc" fill-rule="evenodd"/>
      <path id="Path_211033" data-name="Path 211033" d="M441.039-931.154c1.862,0,3.372,1.8,3.372,4.023s-1.509,4.023-3.372,4.023-3.373-1.8-3.373-4.023S439.176-931.154,441.039-931.154Z" fill="#fafbff" fill-rule="evenodd"/>
      <path id="Path_211034" data-name="Path 211034" d="M441.039-930.6c1.409,0,2.551,1.554,2.551,3.47s-1.142,3.47-2.551,3.47-2.552-1.554-2.552-3.47S439.629-930.6,441.039-930.6Z" fill="#dadcdd" fill-rule="evenodd"/>
      <path id="Path_211035" data-name="Path 211035" d="M447.439-871.529h4.835v10.951h-4.835Z" fill="#4d7362" fill-rule="evenodd"/>
      <path id="Path_211036" data-name="Path 211036" d="M426.848-871.73h4.835v10.951h-4.835Z" fill="#4d7362" fill-rule="evenodd"/>
      <path id="Path_211037" data-name="Path 211037" d="M407.485-905.464c-2.526,20.833,2.851,32.489,15.568,60.361h19.456c-.983-2.516-3.393-2.826-7.229-7-4.307-4.686-18.593-34.909-19.8-41.386-.984-5.259-1.362-6.626-2.226-13.594h0a11.981,11.981,0,0,1-5.761,1.62Z" fill="#f9dcd6" fill-rule="evenodd"/>
      <path id="Path_211038" data-name="Path 211038" d="M407.486-905.464c-.174,1.436-.309,2.827-.409,4.184a41.433,41.433,0,0,0,6.714-1.712c-.162-1.138-.338-2.462-.54-4.091h0a11.981,11.981,0,0,1-5.761,1.62Z" fill="#e8c7c0" fill-rule="evenodd"/>
      <path id="Path_211039" data-name="Path 211039" d="M442.515-845.1a6.739,6.739,0,0,0-2.627-2.94c-1.5,1.031-3,1.979-4.334,2.94Z" fill="#e8c7c0" fill-rule="evenodd"/>
      <path id="Path_211040" data-name="Path 211040" d="M442.51-845.1l-.018-.045-.066.045Z" fill="#d1aeab" fill-rule="evenodd"/>
      <path id="Path_211041" data-name="Path 211041" d="M495.236-898.907c-1.577,9.739-4.32,24.5-6.888,27.645-3.088,3.776-20.448,18.5-28.643,26.16H438.094c1.7-1.156,3.575-2.336,5.349-3.7,4.7-3.625,9.807-6.995,14.466-12.2,7.507-8.39,11.178-13.4,16.151-19.628l2.873-22.145c9.29-.821,11,2.221,18.3,3.872Z" fill="#f9dcd6" fill-rule="evenodd"/>
      <path id="Path_211042" data-name="Path 211042" d="M495.236-898.907c-.256,1.581-.543,3.294-.854,5.069-5.565-2.165-12.947-3.434-18.075-4.111l.627-4.832c9.29-.82,11,2.222,18.3,3.873Z" fill="#e8c7c0" fill-rule="evenodd"/>
      <path id="Path_211043" data-name="Path 211043" d="M495.161-845.1l24.877-13.91,2.437,13.911Z" fill="#ebd19c" fill-rule="evenodd"/>
      <path id="Path_211044" data-name="Path 211044" d="M518.407-858.715,494.067-845.1h2.19l22.677-12.681-.524-.932Z" fill="#fee3b0" fill-rule="evenodd"/>
      <path id="Path_211045" data-name="Path 211045" d="M449.112-1003.313l1.094.383c1.818-2.734,6.848-6.757,6.953-6.881a3.787,3.787,0,0,1,1.017-1.6c-1.907.745-8.615,6.836-9.063,8.094Z" fill="#e6e6e6"/>
      <path id="Path_211046" data-name="Path 211046" d="M450.631-991.114l1.047.5c1.558-3.176,4.133-5.653,5.692-8.829a5.52,5.52,0,0,1-1.075,0l-5.664,8.326Z" fill="#e6e6e6"/>
      <path id="Path_211047" data-name="Path 211047" d="M450.457-1003.559s-12.061-2.258-14.149-2.1-11.14,2.257-11.288,2.28c0,0-.752,6.5,1.818,11.6s3.982,5.268,3.982,5.268c10.9,6.623,16.84.873,21.624-4.281l-1.988-12.769Z" fill="#eef4f7" fill-rule="evenodd"/>
      <path id="Path_211048" data-name="Path 211048" d="M450.458-1003.559s-12.062-2.258-14.149-2.1c-.237.018-.579.065-1,.132-.3.928-.525,3.257.209,9.11a47.675,47.675,0,0,0,3.257,12.829c6.126.572,10.2-3.472,13.667-7.208l-1.988-12.769Z" fill="#e4edf2" fill-rule="evenodd"/>
      <path id="Path_211049" data-name="Path 211049" d="M447.939-1000.2l-11.97-1.6-9.4,2.651.3,1.16,9.183-2.588,11.741,1.567.149-1.193Zm-2.029,9.408-9.04-1.206-7.52,2.119.3,1.161,7.3-2.058,8.811,1.175.148-1.192Zm1.635-4.282-11.514-1.536-8.036,2.264.3,1.161,7.816-2.2,11.286,1.506.149-1.193Z" fill="#d1dee6" fill-rule="evenodd"/>
    </g>
    <g id="Group_95631" data-name="Group 95631">
      <path id="Path_211050" data-name="Path 211050" d="M387.06-1004.631s-1.085,8.85,1.594,14.616a8.456,8.456,0,0,0,3.383,3.94c6.78,3.853-24.443,21.295-24.443,21.295l-10.42-19.28.253-.95s6.789-.05,8.7-6.034l.029-.1a24.262,24.262,0,0,0-.626-8.963,9.684,9.684,0,0,0,1.121.32,30.9,30.9,0,0,0-.982-4.848h16.2a22.377,22.377,0,0,0,2.008-2.464,17.371,17.371,0,0,1,2.227.508c-.025.617-.045,1.273-.058,1.956Z" fill="#f9dcd6" fill-rule="evenodd"/>
      <path id="Path_211051" data-name="Path 211051" d="M387.059-1004.631a38.592,38.592,0,0,0,.352,10.645,44.292,44.292,0,0,1-23.049,6,8.072,8.072,0,0,0,1.762-3.061l.029-.1a24.262,24.262,0,0,0-.626-8.963,9.894,9.894,0,0,0,1.121.32,30.9,30.9,0,0,0-.982-4.848h16.2a22.376,22.376,0,0,0,2.008-2.464,17.37,17.37,0,0,1,2.227.508c-.024.617-.045,1.273-.058,1.956Z" fill="#e8c7c0" fill-rule="evenodd"/>
      <path id="Path_211052" data-name="Path 211052" d="M394.771-987.572c-12.729,4.692-22.92,8.364-36.685,2.03l-12.4,24.751-7,115.688h82.37l-6.563-126.382-19.722-16.088Z" fill="#d7eaf7" fill-rule="evenodd"/>
      <path id="Path_211053" data-name="Path 211053" d="M364.865-971.247,355.917-845.1H333.952l2.713-55.234s-36.336,6.186-21.883-25.35c12.225-33.111,13.671-45.261,42.645-59.323,0,0,7.436,13.794,7.438,13.763Z" fill="#f3f3f4" fill-rule="evenodd"/>
      <path id="Path_211054" data-name="Path 211054" d="M360.9-915.292l-.482,6.8c-1.577,1.017-3.986,2.877-4.274,3.5-.4.871-3.518,1.542-7.811,3.841a86.5,86.5,0,0,1-11.843,4.443l.177-3.622s-.36.061-.988.14L351.7-907.7l-1.007-4.561,8.838-3.289,1.364.27Z" fill="#e7e8e9" fill-rule="evenodd"/>
      <path id="Path_211055" data-name="Path 211055" d="M394.045-988.165s21.944,7.191,28.327,11.874c15.687,11.511,2.037,33.871,2.109,35.467l4.367,95.721H371.511l-2.129-68.515-23.152-4.76,8.658-18.662,14.188,2.1,24.969-53.222Z" fill="#f3f3f4" fill-rule="evenodd"/>
      <path id="Path_211056" data-name="Path 211056" d="M401.227-952.9l-6.709,15.2s-8.623-1.47-11.38-.465l-2.757,1s12.3-13.533,20.846-15.744Z" fill="#e7e8e9" fill-rule="evenodd"/>
      <path id="Path_211057" data-name="Path 211057" d="M424.722-941.629a2.73,2.73,0,0,0-.24.805l.85,18.616c-3.1,8.005-6.624,16.54-8.739,19.776-4.408,6.745-39.338-3.237-41.154-4.059a41.027,41.027,0,0,0-5.879-1.389l-.174-5.742-1.311-.27c13.108,2.536,37.025,7.039,40.285,6.783,4.523-.356,9.784-15.911,10.591-18.926s5.775-15.594,5.775-15.594Z" fill="#e7e8e9" fill-rule="evenodd"/>
      <path id="Path_211058" data-name="Path 211058" d="M386.214-851.927c0-.034-1.186-12.278,6.392-16.784a8.08,8.08,0,0,1,5.036-1.15,9.627,9.627,0,0,1,5.123,2.275,15.206,15.206,0,0,1,3.865,5.044,22.054,22.054,0,0,1,2,11.554l-2.792-.29a18.7,18.7,0,0,0-1.678-9.8,12.173,12.173,0,0,0-3.073-4.041,6.986,6.986,0,0,0-3.7-1.669,5.544,5.544,0,0,0-3.452.8c-5.914,3.516-4.932,13.743-4.929,13.772l-2.793.29Z" fill="#4b555e"/>
      <path id="Path_211059" data-name="Path 211059" d="M401.193-862.737c.007-.066,2.475-23.162,9.469-27.506,6.778-4.209,11.006,1.612,11.018,1.628l.917-.668c-.013-.018-4.859-6.688-12.536-1.92-7.461,4.634-9.991,28.28-10,28.347l1.129.117Z" fill="#b7bbbb"/>
      <path id="Path_211060" data-name="Path 211060" d="M420.258-888.672c.072-.209,2.192-2.149,2.192-2.149C426.69-888.136,423.472-884.053,420.258-888.672Z" fill="#e7e8e9" fill-rule="evenodd"/>
      <path id="Path_211061" data-name="Path 211061" d="M420.127-858.964c.009-.068,3.268-23.622-2.857-29.91-6.3-6.467-12.61-1.158-12.627-1.143l.721.871c.015-.013,5.529-4.652,11.093,1.06,5.738,5.89,2.556,28.9,2.547,28.969l1.124.152Z" fill="#b7bbbb"/>
      <path id="Path_211062" data-name="Path 211062" d="M406.717-888.853c.022-.216-1.07-2.837-1.07-2.837C400.721-891.039,401.9-886.041,406.717-888.853Z" fill="#e7e8e9" fill-rule="evenodd"/>
      <path id="Path_211063" data-name="Path 211063" d="M400.591-857.452a52.611,52.611,0,0,1,.945-5.676l-1.561-.389a42.413,42.413,0,0,0-1.074,5.843c-1.422,10.826,15.872,15.311,19.688,4.877a47.249,47.249,0,0,0,1.823-6.4l-1.563-.387a51.333,51.333,0,0,1-1.863,6.2c-2.893,7.915-17.482,4.191-16.4-4.074Z" fill="#3b434a"/>
      <path id="Path_211064" data-name="Path 211064" d="M403.241-985.01l-14.588-5-19.72,55.051,7.182.928L392.036-959.1l-2.638-9.938,7.471,6.856,6.372-22.823Z" fill="#fff" fill-rule="evenodd"/>
      <path id="Path_211065" data-name="Path 211065" d="M348.661-982.781c.356-.1,11.785-3.452,11.785-3.452l4.737,14.912L362.358-935.9l-5.046-.763-5.892-25.525,6.008-9.236-9.1,3.65.331-15.008Z" fill="#fff" fill-rule="evenodd"/>
      <path id="Path_211066" data-name="Path 211066" d="M349.407-937.857c1.348.947,3.23,3.027,5.9,3.4l-7.992,13.233c-4.875-1.159-12.932-.787-14.089-6.792-1.222-6.34,7.49-13.283,11.3-12.777s4.885,2.94,4.885,2.94Z" fill="#f9dcd6" fill-rule="evenodd"/>
      <path id="Path_211067" data-name="Path 211067" d="M360.24-915.416l-9.381,3.724-1.7-6.021,11.081,2.3Z" fill="#f9dcd6" fill-rule="evenodd"/>
      <path id="Path_211068" data-name="Path 211068" d="M370.62-934.745a29.693,29.693,0,0,1,15.37-4.191c8.372.3,8.528,1.241,8.528,1.241l-2.566,5.924-21.333-2.974Z" fill="#f9dcd6" fill-rule="evenodd"/>
      <path id="Path_211069" data-name="Path 211069" d="M383.7-856.736l37.656-.2s.153,5.581.257,11.836H383.7Z" fill="#fff" fill-rule="evenodd"/>
      <path id="Path_211070" data-name="Path 211070" d="M336.135-900.411l15.027-7.732-2.4-8.73,1.183-.321,2.543,9.235.138.5-.477.215-13.578,6.084-2.431.746Z" fill="#e7e8e9"/>
      <path id="Path_211071" data-name="Path 211071" d="M344.823-964.779V-943.9h-1.231v-20.881Z" fill="#d3d4d4"/>
      <path id="Path_211072" data-name="Path 211072" d="M355.617-1035.5s-1.823,16.77,1.824,27.111,8.556,13.416,14.447,13.275,13.676-5.729,15.709-10.34,1.894-6.289,1.894-6.289,3.085,1.328,4.628-4.542,4.209-18.865,0-26.272-16.411-10.2-28.474-7.126-10.028,14.183-10.028,14.183Z" fill="#f9dcd6" fill-rule="evenodd"/>
      <path id="Path_211073" data-name="Path 211073" d="M356.652-1011.037c.229.917.49,1.8.788,2.65,3.647,10.342,8.556,13.416,14.447,13.276s13.676-5.729,15.71-10.34c1.67-3.786,1.875-5.6,1.894-6.12-.713.07-2.4-.549-2.079-8.17,0,0-1.8,8.445-2.743,9.273s-4.34,5.337-5.971,3.374-2.4-3.1-4.907-3.153-6.589,1.772-8.608,1.189-2.683,1.814-3.649,2.454-4.537-3.233-4.881-4.432Z" fill="#f9dcd6" fill-rule="evenodd"/>
      <path id="Path_211074" data-name="Path 211074" d="M396.29-1034.42a19.445,19.445,0,0,0-2.171-8.135c-4.208-7.406-16.411-10.2-28.474-7.126-9.785,2.494-10.294,10.274-10.137,13.124a32.634,32.634,0,0,0,14.861.171c9.255-1.817,11.122-3.243,13.227.741a41.246,41.246,0,0,1,3.173,8.43,44.734,44.734,0,0,0,9.522-7.2Z" fill="#e8c7c0" fill-rule="evenodd"/>
      <path id="Path_211075" data-name="Path 211075" d="M350.177-1036.056c1.756,3.763,5.079,5.656,5.108,5.1s.982-5.937,2.361-6.985-.351,1.188,7.715-.419,12.413-3.424,16.2-1.607c6.009,2.882,4.987,23.9,5.19,23.9.415,0,.742-.726,1.063-1.7.356-1.077.7-2.458,1.156-3.495a4.349,4.349,0,0,1,.586-1.023c1.263-1.537,3.082-.83,4.208.978s.462,4.6.462,4.6a44.089,44.089,0,0,0,3.255-12.43c.64-6.736,4.9-20.273-9.687-22.467-11.131-14.565-45.439-6.019-37.617,15.55Z" fill="#262c31" fill-rule="evenodd"/>
      <path id="Path_211076" data-name="Path 211076" d="M368.594-1027.766c-.007.04-2.557,14.132-2.029,15.009.436.725,5.538-.245,5.552-.248l.19,1.036c-.016,0-5.824,1.124-6.65-.248-.355-.589.076-4.281.616-7.939.577-3.905,1.278-7.774,1.282-7.8l1.039.186Z" fill="#d1aea7"/>
      <path id="Path_211081" data-name="Path 211081" d="M365-1007.435a13.5,13.5,0,0,0,10.494-1.623l.551.9a14.624,14.624,0,0,1-11.356,1.731l.311-1.007Z" fill="#d1aea7"/>
      <path id="Path_211082" data-name="Path 211082" d="M376.334-1011.1c.008,0,2.787-.535,3.289,2.8l-1.048.152c-.339-2.252-2.071-1.915-2.075-1.914l-.166-1.04Z" fill="#d1aea7"/>
      <path id="Path_211083" data-name="Path 211083" d="M392.561-1019.762s-.747-1.535-1.506-.8l-.079.082a5.533,5.533,0,0,0-.95,2.038c2.452-1.356,2.513,3.407,2.513,3.422l-.792.012c0-.011-.053-3.937-1.965-2.276v.016a4.2,4.2,0,0,0,.625,3.4l.1.1-.522.594c-.055-.048-.107-.1-.154-.147a4.912,4.912,0,0,1-.838-4.054,7.733,7.733,0,0,1,1.385-3.621l.125-.132c1.553-1.491,2.76,1.015,2.764,1.022l-.708.353Z" fill="#d1aea7"/>
      <path id="Path_211086" data-name="Path 211086" d="M413.764-977.863a94.688,94.688,0,0,0-10.042,21.675l-.96-.3a95.746,95.746,0,0,1,10.16-21.925l.842.549Z" fill="#d3d4d4"/>
      <path id="Path_211087" data-name="Path 211087" d="M392.4-931.339a26.5,26.5,0,0,1,5.389,14.116l-1,.055a25.433,25.433,0,0,0-5.169-13.542l.782-.627Zm-1.127,1.9c.009.026,3.2,9.362-2.048,14.243l-.685-.734c4.775-4.438,1.789-13.171,1.781-13.2l.952-.314Z" fill="#d3d4d4"/>
      <path id="Path_211088" data-name="Path 211088" d="M325.137-923.714a33.373,33.373,0,0,1,7.873-2.461l.2.98a32.292,32.292,0,0,0-7.62,2.374l-.449-.893Z" fill="#d3d4d4"/>
      <path id="Path_211089" data-name="Path 211089" d="M384.969-1016.86l3.759-3.788c-.173.415-.35,1.2-.682,2.147l-1.964,2.627-1.113-.986Z" fill="#f3f3f4"/>
      <path id="Path_211090" data-name="Path 211090" d="M385.291-1003.76l4.568-7.884a2.611,2.611,0,0,0,1.862-.434l-5.2,9.2-1.226-.879Z" fill="#f3f3f4"/>
      <path id="Path_211091" data-name="Path 211091" d="M354.842-1018.6s9.015.57,11.159.575,20.307-.893,20.307-.893-.483,11.41.746,13.548,1.23,2.136,1.23,2.136-5,6.769-11.918,7.552-9.747.878-14.613-3.267a17.7,17.7,0,0,1-6.128-10.909c0-1.168-.78-8.742-.78-8.742Z" fill="#e4edf2" fill-rule="evenodd"/>
      <path id="Path_211092" data-name="Path 211092" d="M354.843-1018.595h.008c4.447.321,7.33.392,11.775.564-1.825,5.716.835,15.164,2.016,17.712a25.6,25.6,0,0,0,2.926,4.961c-.728-.01-1.422.02-2.106.04-2.7-.228-3.847-.345-7.71-3.634s-6.122-9.731-6.122-10.9-.789-8.743-.789-8.743Z" fill="#eef4f7" fill-rule="evenodd"/>
      <path id="Path_211093" data-name="Path 211093" d="M356.331-1014.8c2,.321,9.1,1.455,9.817,1.523.817.079,18.592-1.661,18.64-1.666l.181,1.143c-.048.005-17.921,1.76-18.871,1.669-.74-.071-6.849-1.045-9.348-1.445-.153-.444-.294-.856-.419-1.224Z" fill="#d1dee6"/>
      <path id="Path_211094" data-name="Path 211094" d="M358.459-1008.79c2.8.636,7.565,1.668,8.444,1.545,1.466-.207,16.27-2.12,16.312-2.125l.2,1.14c-.042.006-15.02,1.946-16.3,2.126-.967.136-5.275-.763-8.185-1.412q-.241-.636-.476-1.273Z" fill="#d1dee6"/>
      <path id="Path_211095" data-name="Path 211095" d="M361.629-1002.573c.015.006,6.2,1.88,7.185,1.658,1.166-.263,15.16-3.132,15.2-3.141l.289,1.127c-.043.009-14.02,2.875-15.185,3.136-1.345.3-7.023-1.542-7.039-1.548l-.453-1.232Z" fill="#d1dee6"/>
    </g>
    <g id="Group_95632" data-name="Group 95632">
      <path id="Path_211096" data-name="Path 211096" d="M258.294-855.342a26.484,26.484,0,0,1-.54,10.239h12.008l-1.05-9.883Z" fill="#e8c5c2" fill-rule="evenodd"/>
      <path id="Path_211097" data-name="Path 211097" d="M260.723-921.1s.424,28.073-.4,32.389-3.811,34.423-3.811,34.423l7.733.33L275.492-900.2l-.2-17.574S260.786-921.1,260.73-921.1Z" fill="#eef4f7" fill-rule="evenodd"/>
      <path id="Path_211098" data-name="Path 211098" d="M260.723-921.1s.021,1.4.045,3.623l14.563,3.645-.047-3.935s-14.506-3.331-14.562-3.334Z" fill="#d5e3eb" fill-rule="evenodd"/>
      <path id="Path_211099" data-name="Path 211099" d="M298.678-1063.167c-26.516,2.058-19.04,46.088-7.13,47.687-1.441-1.6-4.285-12.174-4.369-19.175-.058-4.74.336-7.646,2.631-9.967a132.7,132.7,0,0,0,9.7-10.969s-.77-7.574-.833-7.576Z" fill="#473b33" fill-rule="evenodd"/>
      <path id="Path_211100" data-name="Path 211100" d="M287.472-1034.41c-.258-.184-1-1.495-2.182-.8s-.95,5.283.08,7.5,2.293,1.4,2.293,1.4-.189-8.182-.191-8.1Z" fill="#d1aeab" fill-rule="evenodd"/>
      <path id="Path_211101" data-name="Path 211101" d="M316.207-1019.29s.463,11.432,2.355,14.6,8.334,10.936,8.849,14.524-15.333.3-15.333.3l-.657-26.956s4.845-2.467,4.786-2.47Z" fill="#51463f" fill-rule="evenodd"/>
      <path id="Path_211102" data-name="Path 211102" d="M296.684-1062.924c-9.9,4.944-.83,7.367.718,7.429,3.826.152,19.646,11.012,21.464,14.46,1.163,13.064,2.89,14.325-2.024,26.7,0,0,7.168-1.971,10.8-8.394,10.1-17.854-10.361-49.645-30.961-40.2Z" fill="#473b33" fill-rule="evenodd"/>
      <path id="Path_211103" data-name="Path 211103" d="M298.459-1009.283s1.934,14.822-.726,16.913-8.288,3.884-8.288,3.884,3.193,6.924,18.241,5.361,23.333-5.865,22.636-5.9-11.948-2.934-12.968-9.012-.833-18.571-.833-18.571-12.355,11.382-18.062,7.32Z" fill="#f9dcd6" fill-rule="evenodd"/>
      <path id="Path_211104" data-name="Path 211104" d="M298.495-1008.995c.117.968.492,4.249.609,7.665,5.438,1.926,12.65.149,17.464-7l.016-.025c-.092-3.385-.08-6.406-.07-7.65-1.763,1.425-6.453,5.01-11.008,6.693a11.255,11.255,0,0,1-4.159.9,5.994,5.994,0,0,1-2.853-.586Z" fill="#d1aeab" fill-rule="evenodd"/>
      <path id="Path_211105" data-name="Path 211105" d="M325.036-992.482s6.76,2.82,14.29,6.359l-44.5,36.83s-5.049-26.076-7.408-38.46c2.62-1.824,4.617-3.208,4.617-3.208,15.278,9.306,33.148-1.516,33-1.522Z" fill="#eef4f7" fill-rule="evenodd"/>
      <path id="Path_211106" data-name="Path 211106" d="M325.036-992.482c15.4,6.424,34.155,12.635,37.553,26.885,4.44,18.625,10.453,33.148,7.073,62.293,0,0-11.093-2.1-17.5-4.693l-6.412-2.595,10.355,62.649,1.131,2.839h-97.19L271.3-896.822l-1.147-22.1-13.166-2.65L267.821-973.1s5.832-4.945,10.759-8.45,13.451-9.407,13.451-9.407L301-961.216s24.174-31.261,24.03-31.267Z" fill="#7ab5b4" fill-rule="evenodd"/>
      <path id="Path_211107" data-name="Path 211107" d="M269.966-918.959l-5.106-1.028a49.832,49.832,0,0,0,2.413-9.736c1.779-10.536-7.792-3.7,1.79-41.164,0,0,1.676,27.863,2.3,33.978s-.469,16.342-.469,16.342l-.933,1.608Z" fill="#69a1a0" fill-rule="evenodd"/>
      <path id="Path_211108" data-name="Path 211108" d="M354.274-859l1.827,11.058,1.131,2.838h-31.5c-5.731-1.115-11.021-2.347-13.306-3.386-5.843-2.66,10.551-1.141,26.9-2.661A22.152,22.152,0,0,0,354.273-859Zm-74.7,13.9c-5.784-4.166-8.81-8.221-8.206-10.3,1.172-4.042,11.573,3.429,26.206,10.3Z" fill="#69a1a0" fill-rule="evenodd"/>
      <path id="Path_211109" data-name="Path 211109" d="M356.3-906.554c-1.482-.454-2.9-.939-4.146-1.442l-6.412-2.6,4.794,29.005A144.384,144.384,0,0,1,336-883.41c-9.069-1.9-39.4-4.948-39.4-4.948s.763-4.318-1.907-4.318-11.158,7.537-16.69,6.2c-3.871-.934-6.153-5.247-7.11-8.5l.4-1.85-.389-7.48c.011,0,55.423-1.736,58.738-2.9s7.747-3.069,6.353-5.237-.924-7.071-3.038-16.376,9.842-31.385,11.064-30.724-4.5,16.882-6.1,26.138-2.158,17.129-1.067,17.367a64.045,64.045,0,0,1,8.477,2.829l10.965,6.646Z" fill="#69a1a0" fill-rule="evenodd"/>
      <path id="Path_211110" data-name="Path 211110" d="M271.367-936.908l51.663-5.267,7.82,76.132-51.663,5.267-7.82-76.131Z" fill="#dce8fa" fill-rule="evenodd"/>
      <path id="Path_211111" data-name="Path 211111" d="M326.665-906.784l2.281,22.21c-12.376-1.772-32.341-3.779-32.341-3.779s.763-4.318-1.908-4.318-11.158,7.537-16.69,6.2a6.692,6.692,0,0,1-1.519-.571L274.7-904.425c10.859-.361,41.963-1.443,51.961-2.36Z" fill="#cfdef5" fill-rule="evenodd"/>
      <path id="Path_211112" data-name="Path 211112" d="M287.419-1042.849s-2.3,11.548.642,20.486,5.352,13.213,10.838,15.4,12.971.52,17.919-6.826,5.619-11.139,5.619-11.139a3.844,3.844,0,0,0,4.871-1.324c2.051-2.79,3.621-7.254,1.767-8.083s-3.87-.908-5.076,1.017-1.765,6.022-2.955,7.6-.054-1.511-.434-5.414-1.774-10.052-1.774-10.052a31.655,31.655,0,0,0-9.759-9.1,74.958,74.958,0,0,0-11.176-5.379s-8.241,8.571-10.481,12.8Z" fill="#f9dcd6" fill-rule="evenodd"/>
      <path id="Path_211113" data-name="Path 211113" d="M302.151-1034.655c0,.015.464,5.393-1.648,7.745-.421.469-.855.886-1.247,1.264h0a10.238,10.238,0,0,0-1.038,1.086c-.385.51-.349.974.659,1.637,2.193,1.447,2.636,1.133,2.637,1.132l.679.833s-1.1.782-3.962-1.106c-1.739-1.147-1.726-2.046-.93-3.1a10.87,10.87,0,0,1,1.149-1.213h0c.371-.357.781-.752,1.193-1.209,1.811-2.017,1.386-6.976,1.386-6.99l1.118-.079Z" fill="#ad8d89"/>
      <path id="Path_211114" data-name="Path 211114" d="M296.494-1018.054c.02.011,7.257,3.819,11.766-.624l.815.723c-5.109,5.036-13.1.828-13.124.817l.544-.916Z" fill="#ad8d89"/>
      <path id="Path_211118" data-name="Path 211118" d="M327.873-1032.9s1.83,1.046.567,1.88-1.051-1.116-2.03-.415-1.433,2.829-.787,2.971.947,2.011-.632,2.267-.605-1.33-1.376-1.129-1.118-2.5.856-4.463,3.434-1.11,3.4-1.112Z" fill="#ad8d89"/>
      <path id="Path_211119" data-name="Path 211119" d="M322.312-993.714l-22.419,31.03L303-959.533l23.974-32.126s-4.9-2.067-4.663-2.057Z" fill="#69a1a0" fill-rule="evenodd"/>
      <path id="Path_211120" data-name="Path 211120" d="M294.034-991.3l9.133,31.548-2.964,3.3-10.722-33.258,4.554-1.591Z" fill="#90cccb" fill-rule="evenodd"/>
      <path id="Path_211121" data-name="Path 211121" d="M368.086-903.619s.389,12.364-1.116,14.854-68.54-7.1-68.54-7.1l.742-17.261s43.171,3.816,44.915,3.889,1.252-3.96,1.252-3.96,22.481,9.494,22.747,9.581Z" fill="#eef4f7" fill-rule="evenodd"/>
      <path id="Path_211122" data-name="Path 211122" d="M368.086-903.619h0c0,1.231.045,2.481.045,3.722v.1c-13.387-5.535-19.805-8.959-22.839-10.863a8.976,8.976,0,0,0,.082-2.166q-.008-.187-.033-.372h0l22.747,9.581Z" fill="#d5e3eb" fill-rule="evenodd"/>
      <path id="Path_211123" data-name="Path 211123" d="M276.911-862.378c.033.049,6.122,9.438,18.847,17.276h-1.952c-11.985-7.779-17.741-16.648-17.773-16.7l.879-.581Zm39.094,9c.075,0,26.479-1.154,27.076-15.037l1.055.044c-.638,14.846-28,16.035-28.081,16.039l-.05-1.047Z" fill="#90cccb"/>
      <path id="Path_211124" data-name="Path 211124" d="M304.684-938.112a2.261,2.261,0,0,1,2.153,2.363,2.261,2.261,0,0,1-2.363,2.154,2.261,2.261,0,0,1-2.154-2.354,2.264,2.264,0,0,1,2.36-2.164Zm-18,2.134a2.26,2.26,0,0,1,2.152,2.364,2.262,2.262,0,0,1-2.365,2.153,2.261,2.261,0,0,1-2.152-2.355,2.263,2.263,0,0,1,2.359-2.163Z" fill="#cfdef5" fill-rule="evenodd"/>
      <path id="Path_211125" data-name="Path 211125" d="M266.953-959.156l1.362,19.831-1.05.07-1.365-19.83,1.051-.071Zm91.327-12.592c-.043.02-15.212,6.8-19.818,38.427l-1.068-.151c4.69-32.208,20.385-39.228,20.43-39.249ZM346.339-942a42.407,42.407,0,0,1,14.768-18.672l.615.848a41.264,41.264,0,0,0-14.386,18.167l-1-.343Zm-2.868,12.348c.017-.037,6.106-12.853,17.151-14.893l.192,1.031c-10.513,1.942-16.374,14.278-16.392,14.314l-.95-.452ZM329.16-963.765c.014.023,4.893,8.27,6.455,24.191l-1.048.1c-1.54-15.692-6.3-23.743-6.318-23.766l.911-.524Zm-15.06,6.334c.034.044,11.936,15,17.122,33.319l-1.015.282c-5.128-18.114-16.9-32.91-16.936-32.952l.829-.648Zm-29.7-17.162c-.022.048-7.787,16.5-6.323,26.371l-1.043.153c-1.511-10.187,6.387-26.915,6.41-26.963l.955.439Zm-13,4.469-1.419,33.015-1.053-.045,1.418-33.015,1.055.045Z" fill="#90cccb"/>
      <path id="Path_211126" data-name="Path 211126" d="M299.1-911.394c-2.461-.2-4.889-.612-8.292-4.2s-7.861-7.914-8.945-7.961-1.7,2.733-.952,3.749,3.838,2.674,3.783,3.95-.233,3.141-1.222,3.147a13.656,13.656,0,0,1-5.806-.543c-2.676-.95-4.99-4.592-5.793-3.151s-.6,4.9.306,6.658-.6,3.715.011,5.513a18.023,18.023,0,0,1,.774,5c.084,1.48,2.436,5.371,3.208,5.8s5.07.413,10.149-1.634a71.647,71.647,0,0,1,12.217-3.265s.564-13.111.563-13.063Z" fill="#f9dcd6" fill-rule="evenodd"/>
      <path id="Path_211127" data-name="Path 211127" d="M299.1-911.4a14.259,14.259,0,0,1-2.467-.376l-.76,13.965c1.6-.341,2.666-.523,2.666-.523s.564-13.111.562-13.063Z" fill="#e8c5c2" fill-rule="evenodd"/>
      <path id="Path_211128" data-name="Path 211128" d="M343.651-913.817l-7.648-2.4.013-.445c0-.039.421-13.562,1.093-15.787l1.035.308c-.57,1.882-.959,12.725-1.038,15.063l6.771,2.209-.227,1.051Z" fill="#90cccb"/>
      <path id="Path_211129" data-name="Path 211129" d="M298.856-995.087a17.651,17.651,0,0,0-5.215,3.141,17.928,17.928,0,0,0-5.123,11.01,38.048,38.048,0,0,0,.911,13.264c1.428,6.106,3.884,11.275,5.852,13.338l-1.871,1.774c-2.235-2.342-4.969-7.989-6.5-14.528a40.6,40.6,0,0,1-.951-14.17,20.432,20.432,0,0,1,5.9-12.552,17.072,17.072,0,0,1,7.255-4.228,21.173,21.173,0,0,1-.261,2.952Z" fill="#4b555e"/>
      <path id="Path_211130" data-name="Path 211130" d="M296.115-956.033a6.559,6.559,0,0,1,6.534,6.582,6.558,6.558,0,0,1-6.582,6.533,6.557,6.557,0,0,1-6.534-6.557,6.569,6.569,0,0,1,6.582-6.558Z" fill="#b7bbbb" fill-rule="evenodd"/>
      <path id="Path_211131" data-name="Path 211131" d="M296.115-955.207a5.731,5.731,0,0,1,5.711,5.751,5.73,5.73,0,0,1-5.751,5.71,5.73,5.73,0,0,1-5.711-5.731A5.74,5.74,0,0,1,296.115-955.207Z" fill="#f3f3f4" fill-rule="evenodd"/>
      <path id="Path_211132" data-name="Path 211132" d="M296.115-953.012a3.537,3.537,0,0,1,3.523,3.551,3.537,3.537,0,0,1-3.551,3.522,3.536,3.536,0,0,1-3.523-3.536A3.543,3.543,0,0,1,296.115-953.012Z" fill="#b7bbbb" fill-rule="evenodd"/>
      <path id="Path_211133" data-name="Path 211133" d="M316.991-1000.943c6.636,1.657,17.186,8.441,14.721,35.347l-2.789-.253c.795-8.668.032-28.667-11.647-32.693a22.8,22.8,0,0,1-.284-2.4Z" fill="#4b555e"/>
      <path id="Path_211134" data-name="Path 211134" d="M322.19-953.819c-.013.064-4.388,22.586-3.344,27.216.911,4.034,2.935,2.936,2.942,2.933l.479,1.014c-.009,0-3.286,1.741-4.514-3.7-1.094-4.85,3.327-27.608,3.339-27.674l1.1.215Z" fill="#b7bbbb"/>
      <path id="Path_211135" data-name="Path 211135" d="M332.964-949.952c-.908,2.494-5.133,12.452-9.881,19.1a21.01,21.01,0,0,1-5.055,5.331c-1.818,1.188-3.6,1.448-5.23.3a7.323,7.323,0,0,1-2.153-2.681l1-.517a6.265,6.265,0,0,0,1.8,2.286c1.188.84,2.547.612,3.968-.317a19.931,19.931,0,0,0,4.754-5.042c4.675-6.547,8.845-16.379,9.742-18.842l1.055.385Z" fill="#b7bbbb"/>
      <path id="Path_211136" data-name="Path 211136" d="M320.244-953.179c0-.017-.075-6.045,2.512-10.328,1.54-2.55,3.476-3.894,5.377-4.257h.006a5.575,5.575,0,0,1,3.364.4,6.42,6.42,0,0,1,2.626,2.234c1.37,1.975,1.993,4.944,1.186,8.5a76.286,76.286,0,0,1-2.438,7.991l-2.1-.8a73.815,73.815,0,0,0,2.35-7.682,8.484,8.484,0,0,0-.848-6.729,4.223,4.223,0,0,0-1.706-1.476,3.341,3.341,0,0,0-2.023-.232,6.214,6.214,0,0,0-3.88,3.219c-2.253,3.728-2.19,9.184-2.19,9.2l-2.239-.03Z" fill="#3b434a"/>
      <path id="Path_211137" data-name="Path 211137" d="M322.227-924.74a1.6,1.6,0,0,1,2.238.333,1.653,1.653,0,0,1,.162.272c.285.8.656,1.54-.084,2.142-1.337,1.087-5.66-.919-2.315-2.747Z" fill="#fff" fill-rule="evenodd"/>
      <path id="Path_211138" data-name="Path 211138" d="M312.2-927.1a3.485,3.485,0,0,0-.181-2.838,1.664,1.664,0,0,0-2.255-.671,1.663,1.663,0,0,0-.67,2.255c.682,1.157,2.589,2.039,3.106,1.253Z" fill="#fff" fill-rule="evenodd"/>
      <path id="Path_211141" data-name="Path 211141" d="M307.226-908.77c.046.043,15.378,15.025,49.432,15.025v1.075c-34.487,0-50.129-15.28-50.175-15.324Z" fill="#d5e3eb"/>
      <path id="Path_211142" data-name="Path 211142" d="M346.39-908.356c.031.011,10.926,4.155,16.128,14.913l-.972.467c-5.016-10.373-15.51-14.364-15.541-14.375l.384-1Z" fill="#d5e3eb"/>
      <path id="Path_211143" data-name="Path 211143" d="M266.876-906.784c.008.044,2.811,15.3-3.888,30.432l-.988-.434c6.566-14.83,3.823-29.765,3.816-29.808Z" fill="#d5e3eb"/>
      <path id="Path_211144" data-name="Path 211144" d="M297.268-1062.176c0,.011.049,3.875.792,5.489l-1.058.425c-.832-1.806-.885-5.9-.885-5.914Z" fill="#856e60"/>
      <path id="Path_211145" data-name="Path 211145" d="M318.168-1031.771l5.08.1c-.139.4-.223.738-.515,1.578h-3.926l-.638-1.68Z" fill="#f3f3f4"/>
      <path id="Path_211146" data-name="Path 211146" d="M317.194-1016.774l5.875-7.915a4.058,4.058,0,0,0,2.053.028l-6.615,8.966-1.313-1.079Z" fill="#f3f3f4"/>
      <path id="Path_211147" data-name="Path 211147" d="M285.9-1031.9s9.656.651,11.951.657,21.746-1.019,21.746-1.019c-.239,6.014-1.808,10.326,1.187,15.865,0,0-4.425,9.752-11.834,10.646s-10.437,1-15.649-3.727a20.649,20.649,0,0,1-6.565-12.446c0-1.332-.837-9.975-.837-9.975Z" fill="#e4edf2" fill-rule="evenodd"/>
      <path id="Path_211148" data-name="Path 211148" d="M287.393-1031.8c2.8.182,8.722.554,10.454.558.341,0,1.064-.021,2.045-.059l1.755.056c-2.439,6.522,1.116,17.3,2.7,20.209a28.04,28.04,0,0,0,3.692,5.393c-6.751.785-9.741.693-14.732-3.835-5.211-4.729-6.565-11.114-6.565-12.446,0-1.307-.8-9.639-.836-9.964h.01c.51.032,1,.06,1.486.088Z" fill="#eef4f7" fill-rule="evenodd"/>
      <path id="Path_211149" data-name="Path 211149" d="M293.17-1014.239c.015.007,9.309,2.148,10.364,1.875,1.248-.322,13.564-3.684,13.61-3.694l.309,1.382c-.046.011-12.344,3.368-13.59,3.69-1.441.371-10.193-1.734-10.209-1.741l-.485-1.512Zm-5.674-15.009c2.144.394,12.416,1.626,13.183,1.71.875.1,17.24-1.879,17.292-1.886l.193,1.4c-.052.006-16.522,2-17.539,1.888-.792-.087-10-1.123-12.681-1.613-.164-.545-.315-1.05-.448-1.5Zm2.278,7.381c3,.78,10.772,1.888,11.713,1.736,1.571-.254,14.754-2.442,14.8-2.449l.218,1.4c-.045.007-13.416,2.228-14.785,2.45-1.036.167-8.319-.778-11.434-1.575-.172-.52-.343-1.042-.511-1.562Z" fill="#d1dee6"/>
    </g>
    <g id="Group_95633" data-name="Group 95633">
      <path id="Path_211150" data-name="Path 211150" d="M219.523-1016.623s1.39,8.067-3.355,9.646-31.185,7.444-37.541,15.694-13.641,17.351-14.819,44.772-2.878,37.268,3.118,40.321,18.229-2.4,18.229-2.4L180.514-845.1H283.657l-2.64-63.341s15.861,2.2,17.57-1.922,3.9-13.442,1.784-41.511-3.179-32.948-9.652-36.785-44.088-16.761-46.593-20.81-24.6-7.15-24.6-7.15Z" fill="#ededed" fill-rule="evenodd"/>
      <path id="Path_211151" data-name="Path 211151" d="M240.653-1025.4c.087,15.32,4.877,17.722,6.873,19.112L228.345-989.22l-14.785-19.356a8.6,8.6,0,0,0,5.624-5.5c1.541-4.506,1.541-12.861,1.541-12.861s10.887,7.083,19.928,1.537Z" fill="#d7c2b6" fill-rule="evenodd"/>
      <path id="Path_211152" data-name="Path 211152" d="M240.668-1024.358c.175,8.579,1.886,12.871,3.653,15.224-3.786,3.5-6.759,5.092-13.178,6.289,0,0-6.542,1.379-13.11-6.008-.467-.525-.912-1.013-1.338-1.471a8.629,8.629,0,0,0,2.49-3.75c1.291-3.775,1.5-10.248,1.534-12.252a40.578,40.578,0,0,0,4.963,1.727,20.329,20.329,0,0,0,9.544,1.153A23.092,23.092,0,0,0,240.668-1024.358Z" fill="#b8a092" fill-rule="evenodd"/>
      <path id="Path_211153" data-name="Path 211153" d="M209.644-1048.577c-5.422-2.779-7.729,15.419,3.917,15.47Z" fill="#b8a092" fill-rule="evenodd"/>
      <path id="Path_211154" data-name="Path 211154" d="M251.249-1046.55c5.614-1.885,5.926,16.729-5.5,14.848Z" fill="#b8a092" fill-rule="evenodd"/>
      <path id="Path_211155" data-name="Path 211155" d="M205.414-1057.56c-.464,3.486-.238,8.048,3.214,17.25,11.367,30.285,38.175,21.622,40.02,7.964,1.748-4.259,5.6-20.662,5.6-20.662,6.387-22.067-25.147-30.552-38.215-21.618a9.054,9.054,0,0,0-7.48,4.692c-2.187,3.685-2.915,9.762-3.134,12.374Z" fill="#41324d" fill-rule="evenodd"/>
      <path id="Path_211156" data-name="Path 211156" d="M210.927-1054.75c-.931,6.6-1.99,29.9,10.424,38.964s25.044-2.376,27.029-11.254c.692-3.092,2.319-23.411,1.653-28.969-16.9-1.038-23.341-3.707-32.108-7.323-1.411,3.58-3.844,5.558-7,8.583Z" fill="#d7c2b6" fill-rule="evenodd"/>
      <path id="Path_211157" data-name="Path 211157" d="M210.849-1038.359c.955,8.41,3.715,17.619,10.5,22.576,12.415,9.066,25.043-2.376,27.029-11.254.246-1.1.609-4.367.947-8.375a23.515,23.515,0,0,0-2.831,4.7c-.529,1.55-3.254,6.948-4.349,5.688s-2.091-3.834-5.252-5.368-11.745-2.376-15.167.652-2.884,5.781-4.682,3.928-6.188-12.528-6.2-12.551Zm11.845,9.192a55.407,55.407,0,0,1,9.587-.192c4.21.409,5.681.937,5.555,1.2s-3.348,4.5-4.946,4.808-1.463-.77-2.621-.913-2.578-.1-2.984.433-1.014.841-2.079-.12-4.794-5.241-2.511-5.217Z" fill="#41324d" fill-rule="evenodd"/>
      <path id="Path_211158" data-name="Path 211158" d="M223.347-1028.371l12.6.121C233.1-1023.1,226.575-1024.695,223.347-1028.371Z" fill="#fff" fill-rule="evenodd"/>
      <path id="Path_211161" data-name="Path 211161" d="M230.3-1047.874l-1.628,13.96,6.38.347-.077,1.307-7.81-.426,1.79-15.335,1.346.146Z" fill="#b8a092"/>
      <path id="Path_211166" data-name="Path 211166" d="M211.619-953.175v-1.388l1.456.371s1.427-8.43-4.05-8.43-8.1,6.057-13.2,3.028-8.3-5.031-8.842-5.79-4.067-10.488-4.067-10.488l1.8,23.84s24.841-1.241,26.893-1.143Z" fill="#d3d4d4" fill-rule="evenodd"/>
      <path id="Path_211167" data-name="Path 211167" d="M281.045-989.22s-5.1,7.023-8.169,19.078-.215,13.53-4.883,13.53-14.369,1.592-19.253,5.246a26.7,26.7,0,0,0-4.633,4.523l28.587,7.746,2.148-9.963s-.4-12.475.583-17,4.572-19,6.764-21.081-1.143-2.078-1.143-2.078Z" fill="#d3d4d4" fill-rule="evenodd"/>
      <path id="Path_211168" data-name="Path 211168" d="M215.11-1006.654c-2.447.71-5.556,1.431-10.829,3.041l22.506,52.8,25.625-53.847a65.3,65.3,0,0,1-6-3.016l-19.56,24.909-11.741-23.887Z" fill="#d5e3eb" fill-rule="evenodd"/>
      <path id="Path_211169" data-name="Path 211169" d="M224.955-990.963c-.022.52,4.849,0,4.849,0l6.116,6.668s-5.055,9.958-5.724,9.93l-5.925-.253c-.7-.03-3.442-11.974-3.442-11.974s4-4.376,4.126-4.371Z" fill="#b1caf0" fill-rule="evenodd"/>
      <path id="Path_211170" data-name="Path 211170" d="M224.32-974.616l-4.331,22.1,16.282,4.07s-4.062-20.705-5.46-26.588c-.291.419-.508.668-.614.664l-5.877-.251Z" fill="#99afd1" fill-rule="evenodd"/>
      <path id="Path_211171" data-name="Path 211171" d="M232.427-845.1l1.2-80.224-7.665-2.9L223.436-845.1Z" fill="#f9f9f9" fill-rule="evenodd"/>
      <path id="Path_211172" data-name="Path 211172" d="M185.153-908.589h0l-1.19,16.278c8.162-1.807,22.022-7.737,33.97-11.255,18.489-5.443,9.294-2.4,30.864,3.606,13.185,3.672,24.7,6.132,32.859,6.931l-.642-15.413s.229.032.63.079c-.147-.047,3.732,1.079-.438-.135s-47.714-17.2-50.682-17.773c-33.287,14.161-45.371,17.681-45.371,17.681h0Z" fill="#d6d6d6" fill-rule="evenodd"/>
      <path id="Path_211173" data-name="Path 211173" d="M211.619-953.175l-5.283,16.01s-11.417-.2-15.918-.393l-4.5-.192L184.6-953.576s6.828-4.415,13.515-2.6,13.255,2.942,13.508,3Z" fill="#d7c2b6" fill-rule="evenodd"/>
      <path id="Path_211174" data-name="Path 211174" d="M206.025-936.888s22.057,9.716,24.5,10.711c-5.124,2.134-16.657,6.841-16.657,6.841L197.3-937.26l8.727.372Z" fill="#e6e6e6" fill-rule="evenodd"/>
      <path id="Path_211175" data-name="Path 211175" d="M256.436-951.5s9.282-2.1,12.213-1.973,6.193,4.411,6.193,4.411l-1.965,10.09L246.648-946s5.966-5.659,9.789-5.5Z" fill="#d7c2b6" fill-rule="evenodd"/>
      <path id="Path_211176" data-name="Path 211176" d="M216.55-938.277a9.591,9.591,0,0,1,2.226,1.117c4.508,2.571,16,9.127,27.081,10.2l-.108,1.144c-11.33-1.1-22.978-7.745-27.546-10.351-1.045-.6-1.691-.964-1.7-.964l.051-1.151Zm63.364-48.865c-.023.071-8.1,24.432-7.07,36.41l1.076-.088c-1.012-11.764,7-35.921,7.02-35.99l-1.026-.333Zm-5.352,31.459c.014-.057,5.276-19.878,14.14-20.7l.105,1.145c-8.054.746-13.118,19.8-13.132,19.853l-1.113-.3Zm1.688,3.49c.007-.013,2.641-4.733,13.576-5.575l.086,1.148c-10.323.794-12.659,4.994-12.665,5.006l-1-.579Zm1.407,14.2c.025.006,8.973,1.971,16.293,12.289l-.941.663c-7.063-9.956-15.58-11.826-15.6-11.832l.253-1.12Zm-2.864.063c.031.038,10.985,13.4,13.844,21.976l-1.1.363c-2.795-8.38-13.612-21.578-13.643-21.617l.895-.723Zm-1.679,1.551c0,.024,1.091,8.532-1.8,14.978l-1.057-.468c2.759-6.157,1.711-14.355,1.708-14.379l1.147-.131Zm-58.1-12.663c.057.051,19.817,17.843,44.882,23.458l-.252,1.12c-25.361-5.681-45.342-23.672-45.4-23.724l.77-.855Z" fill="#b7bbbb"/>
      <path id="Path_211177" data-name="Path 211177" d="M214.014-1008.884l13.606,18.131-9.552,7.987-8.5-22.356,4.447-3.761Z" fill="#e1ebf0" fill-rule="evenodd"/>
      <path id="Path_211178" data-name="Path 211178" d="M245.178-1008.826l-17.556,18.073,8.831,8.77,12.289-24.425Z" fill="#e1ebf0" fill-rule="evenodd"/>
      <path id="Path_211179" data-name="Path 211179" d="M208.034-1006.151l17.807,55.267-13.228-3.429-5.367-10.951,2.675-5.1s-14.969.76-14.814.131c.121-.491,5.246-24.564,8.48-34.032a43.707,43.707,0,0,1,4.45-1.885Z" fill="#f9f9f9" fill-rule="evenodd"/>
      <path id="Path_211180" data-name="Path 211180" d="M249.285-1007.38,227.83-950.551l9.546,2.379L251.935-971.5l-2.641-6.853,12.821-.979-7.942-26.41-4.884-1.64Z" fill="#f9f9f9" fill-rule="evenodd"/>
      <path id="Path_211181" data-name="Path 211181" d="M169.169-920.353c.02-.039,7.026-13.553,16.539-14.79l.145,1.143c-8.906,1.157-15.643,14.144-15.663,14.181l-1.021-.534ZM190.846-972.8c.011.024,3.7,8.34,4.385,12.762l-1.142.172c-.662-4.282-4.288-12.452-4.3-12.475l1.056-.46Zm7.188,12.549c.014-.01,4.986-3.752,7.867-3.629l-.05,1.152c-2.47-.1-7.106,3.384-7.119,3.394l-.7-.917Zm-18.972,33.844c.021.025,7.233,8.964,21.382,6.335l.209,1.131c-14.82,2.755-22.459-6.711-22.481-6.737l.89-.728Zm4.084-50.042,2.068,21.835-1.149.1L182-976.348Zm-7.211-.537c.009.015,3,5.111,6.523,15.8l-1.1.359c-3.481-10.578-6.421-15.577-6.429-15.592l1-.57Zm.38,20.042c-.027.032-9.746,11.187-6.377,26.056l-1.127.254c-3.5-15.438,6.6-27.026,6.628-27.06l.877.749Z" fill="#b7bbbb"/>
      <path id="Path_211182" data-name="Path 211182" d="M229.284-897.38a3.366,3.366,0,0,1,3.207,3.519,3.366,3.366,0,0,1-3.519,3.207,3.367,3.367,0,0,1-3.208-3.506,3.372,3.372,0,0,1,3.517-3.221Z" fill="#d6d6d6" fill-rule="evenodd"/>
      <path id="Path_211183" data-name="Path 211183" d="M240.036-861.053c0-.035-1.355-12.1,6.057-16.662a7.97,7.97,0,0,1,4.954-1.211,9.505,9.505,0,0,1,5.09,2.169,15.008,15.008,0,0,1,3.891,4.922,21.764,21.764,0,0,1,2.144,11.374l-2.761-.244a18.453,18.453,0,0,0-1.8-9.649,12.017,12.017,0,0,0-3.094-3.942,6.9,6.9,0,0,0-3.671-1.593,5.479,5.479,0,0,0-3.4.841c-5.785,3.559-4.662,13.638-4.659,13.667l-2.752.329Z" fill="#4b555e"/>
      <path id="Path_211184" data-name="Path 211184" d="M254.653-871.952c.007-.065,2.1-22.9,8.934-27.292,6.626-4.255,10.887,1.427,10.9,1.443l.894-.673c-.013-.018-4.9-6.529-12.4-1.708-7.295,4.684-9.435,28.062-9.441,28.129l1.115.1Z" fill="#b7bbbb"/>
      <path id="Path_211185" data-name="Path 211185" d="M273.083-897.836c.068-.207,2.132-2.153,2.132-2.153C279.44-897.4,276.326-893.324,273.083-897.836Z" fill="#f3f3f4" fill-rule="evenodd"/>
      <path id="Path_211186" data-name="Path 211186" d="M273.4-868.51c.009-.068,2.871-23.365-3.27-29.48-6.314-6.289-12.464-.955-12.481-.94l.726.849c.014-.013,5.387-4.675,10.964.881,5.752,5.728,2.958,28.491,2.949,28.556l1.112.133Z" fill="#b7bbbb"/>
      <path id="Path_211187" data-name="Path 211187" d="M259.716-897.812c.019-.214-1.1-2.784-1.1-2.784C253.762-899.88,255-894.964,259.716-897.812Z" fill="#f3f3f4" fill-rule="evenodd"/>
      <path id="Path_211188" data-name="Path 211188" d="M254.14-866.731a51.887,51.887,0,0,1,.847-5.617l-1.547-.361a41.914,41.914,0,0,0-.972,5.784c-1.24,10.706,15.9,14.875,19.506,4.518a46.545,46.545,0,0,0,1.7-6.341l-1.549-.359a50.508,50.508,0,0,1-1.745,6.151c-2.737,7.856-17.192,4.4-16.245-3.776Z" fill="#3b434a"/>
      <path id="Path_211189" data-name="Path 211189" d="M237.476-865.768l37.165-.762s.553,12.978.675,21.427H237.791Z" fill="#f9f9f9" fill-rule="evenodd"/>
      <path id="Path_211190" data-name="Path 211190" d="M208.722-878.918a331.431,331.431,0,0,1,.734,33.815h1.06a332.24,332.24,0,0,0-.735-33.9l-1.058.086Z" fill="#b7bbbb"/>
      <path id="Path_211191" data-name="Path 211191" d="M223.007-891.78a27.4,27.4,0,0,0-10.137,10.9l.5.687a26.609,26.609,0,0,1,9.852-10.59l-.21-1Zm.981-5.459a11.875,11.875,0,0,0-13.336-1.28l.194,1.009a11.4,11.4,0,0,1,12.822,1.193Z" fill="#b7bbbb"/>
      <path id="Path_211192" data-name="Path 211192" d="M206.344-1047.36l6.6,8.78,1.373-.216L206-1048.771l.344,1.411Z" fill="#fafbff"/>
      <path id="Path_211193" data-name="Path 211193" d="M252.681-1046.574l-3.469,8.777-1.321-.245,5.218-10.256-.427,1.724Z" fill="#fafbff"/>
      <path id="Path_211194" data-name="Path 211194" d="M250.493-1037.874s-17.691-3.078-20.686-2.916-18.746,2.1-18.746,2.1.743,12.2,3.9,15.864,9.1,9.16,17.206,8.176,15.138-5.952,18.326-23.223Z" fill="#eef4f7" fill-rule="evenodd"/>
      <path id="Path_211195" data-name="Path 211195" d="M230.53-1040.784c-.29-.013-.533-.016-.719-.006-2.994.162-18.746,2.1-18.746,2.1s.718,11.78,3.739,15.667l.016.021c.048.061.1.119.145.176l.141.163.009.01.136.155.018.02.131.148.027.03.125.139h0q.15.16.3.324l.026.028.107.114.079.083.1.1.064.066.1.109.086.089.1.1.051.052.129.13.024.024.119.118.027.026.087.085.13.127.007.007.182.173.007.007c.62.589,1.3,1.179,2.024,1.747l.054.042.185.142.034.025.194.146.041.03.209.153h.006l.219.157.03.021.218.15.008.005a17.078,17.078,0,0,0,10.318,3.223c-.476-3.621.7-17.683-.285-26.238Z" fill="#e4edf2" fill-rule="evenodd"/>
      <path id="Path_211196" data-name="Path 211196" d="M215.878-1027.94l13.95-1.807,12.771,1.5-.087,1.436-12.648-1.489-13.815,1.779-.173-1.419Zm1.234,6.522,12.87-1.521,10.59,1.573-.11,1.43-10.413-1.546-12.7,1.467-.237-1.4Zm-3.279-12.2,15.983-1.994,13.867,1.565-.087,1.436-13.741-1.552-15.85,1.964Z" fill="#d1dee6"/>
    </g>
  </g>
</svg>
