<?xml version="1.0" encoding="utf-8"?>
<!-- Generator: Adobe Illustrator 27.7.0, SVG Export Plug-In . SVG Version: 6.00 Build 0)  -->
<svg version="1.1" id="Layer_1" xmlns="http://www.w3.org/2000/svg" xmlns:xlink="http://www.w3.org/1999/xlink" x="0px" y="0px"
	 viewBox="0 0 176 86" style="enable-background:new 0 0 176 86;" xml:space="preserve">
<style type="text/css">
	.st0{fill:#E5E5E4;}
	.st1{fill:#373D49;}
	.st2{fill:#485060;}
	.st3{fill:#FFFFFF;}
	.st4{fill:#FCD737;}
	.st5{fill:#F9A921;}
	.st6{fill:#CBCBCA;}
	.st7{fill:#7FCAC3;}
	.st8{fill:#4E4F4F;}
	.st9{opacity:0.35;fill:#4E4F4F;}
	.st10{fill:#FFCC2B;}
	.st11{opacity:0.77;fill:#B4B2B4;}
	.st12{fill:#F9A01E;}
	.st13{fill:#DFE9F7;}
	.st14{fill:#F47C20;}
	.st15{fill:#E63B34;}
	.st16{fill:#F05552;}
	.st17{fill:#C52A29;}
	.st18{fill:#67BC6A;}
	.st19{fill:#A3B7CD;}
	.st20{fill:#6E8293;}
	.st21{fill:url(#SVGID_1_);}
	.st22{fill:#F5A61C;}
	.st23{fill:#FFCD34;}
	.st24{fill:#43449C;}
	.st25{fill:#F59AB5;}
	.st26{fill:#DC4B85;}
	.st27{fill:#73B7B4;}
	.st28{fill:#81CAC9;}
	.st29{fill:#EF518B;}
	.st30{fill:#F174AA;}
	.st31{fill:#1A1E4C;}
	.st32{fill:#4FC2BC;}
	.st33{fill:#4D58A7;}
	.st34{fill:#5961AC;}
	.st35{fill:#5BC5C3;}
	.st36{fill:#7CCECF;}
</style>
<g>
	<polygon class="st0" points="153.9,37.9 155.2,40.1 79,91 11.5,51.3 22,43.9 75.8,66.5 138.7,39.3 	"/>
	<path class="st1" d="M15.6,49c-1,0.6-1,1.5,0.1,2.1l56.8,32.8c1,0.6,2.7,0.6,3.7,0l77-44.5c1-0.6,1-1.5-0.1-2.1L96.3,4.5
		c-1-0.6-2.7-0.6-3.7,0L15.6,49z"/>
	<path class="st2" d="M15.6,46c-1,0.6-1,1.5,0.1,2.1l56.8,32.8c1,0.6,2.7,0.6,3.7,0l77-44.5c1-0.6,1-1.5-0.1-2.1L96.3,1.6
		c-1-0.6-2.7-0.6-3.7,0L15.6,46z"/>
	<polygon class="st3" points="22.8,45.9 76.2,76.8 146.7,36.2 93.2,5.3 	"/>
	<path class="st4" d="M107.8,14.2c-1.2,0.7-1.2,1.8,0,2.5l19,11c1.2,0.7,3.2,0.7,4.4,0c1.9-1.1,1.9-2.9,0-4l-16.4-9.5
		C112.9,13.1,109.7,13.1,107.8,14.2z"/>
	<path class="st4" d="M117.5,15.8l-3.4,2l11,6.3l3.4-2c1.9-1.1,1.9-2.8,0-3.9l-4.3-2.5C122.4,14.7,119.4,14.7,117.5,15.8z
		 M123.4,17.3c0.7-0.4,1.8-0.4,2.4,0c0.7,0.4,0.7,1,0,1.4c-0.7,0.4-1.8,0.4-2.4,0C122.7,18.4,122.7,17.7,123.4,17.3z"/>
	<path class="st4" d="M123.4,18.7c0.3,0.2,0.6,0.2,0.9,0.3l4.7,2.7c-0.2,0.1-0.3,0.2-0.5,0.4l0,0l-11-6.3l0,0
		c0.2-0.1,0.4-0.2,0.6-0.3l4.7,2.7C122.9,18.4,123.1,18.6,123.4,18.7z"/>
	<path class="st5" d="M107.8,16.7l19,11c1.1,0.6,2.9,0.7,4.1,0.1c-0.1,0.1-0.2,0.1-0.3,0.2c-1.2,0.7-3.2,0.7-4.4,0l-19-11
		c-1.2-0.7-1.2-1.8,0-2.5c0.1-0.1,0.2-0.1,0.3-0.2C106.6,15.1,106.7,16.1,107.8,16.7z"/>
	<g>
		<g>
			<polygon class="st6" points="122,35.2 94.2,19.2 95.5,18.4 123.3,34.5 			"/>
			<polygon class="st6" points="117.8,37.6 90.1,21.6 91.4,20.8 119.2,36.9 			"/>
		</g>
		<path class="st7" d="M90.8,16.2l-6.1,0.7l0.2-1.5l-1.5-0.2l-0.3,2.1c0,0.1,0.1,0.3,0.3,0.4c0,0,0,0,0,0c0.2,0.1,0.5,0.2,0.7,0.1
			l6.9-0.8C91.1,16.8,91,16.5,90.8,16.2z"/>
	</g>
	<g>
		<g>
			<polygon class="st6" points="108.1,44 80.3,28 81.6,27.2 109.4,43.2 			"/>
			<polygon class="st6" points="104,46.4 76.2,30.3 77.5,29.6 105.3,45.6 			"/>
		</g>
		<path class="st7" d="M77,24.9l-6.1,0.7l0.2-1.5l-1.5-0.2l-0.3,2.1c0,0.1,0.1,0.3,0.3,0.4c0,0,0,0,0,0c0.2,0.1,0.5,0.2,0.7,0.1
			l6.9-0.8C77.2,25.5,77.1,25.2,77,24.9z"/>
	</g>
	<g>
		<g>
			<polygon class="st6" points="93.4,52.5 65.6,36.5 66.9,35.7 94.7,51.8 			"/>
			<polygon class="st6" points="89.3,54.9 61.5,38.9 62.8,38.1 90.6,54.2 			"/>
		</g>
		<path class="st7" d="M62.3,33.5l-6.1,0.7l0.2-1.5l-1.5-0.2l-0.3,2.1c0,0.1,0.1,0.3,0.3,0.4c0,0,0,0,0,0c0.2,0.1,0.5,0.2,0.7,0.1
			l6.9-0.8C62.5,34.1,62.4,33.8,62.3,33.5z"/>
	</g>
	<g>
		<g>
			<polygon class="st6" points="78.8,61.4 51.1,45.3 52.4,44.6 80.2,60.6 			"/>
			<polygon class="st6" points="74.7,63.8 46.9,47.7 48.3,47 76,63 			"/>
		</g>
		<path class="st7" d="M47.7,42.3L41.6,43l0.2-1.5l-1.5-0.2L40,43.5c0,0.1,0.1,0.3,0.3,0.4c0,0,0,0,0,0C40.5,44,40.8,44,41,44
			l6.9-0.8C47.9,42.9,47.9,42.6,47.7,42.3z"/>
	</g>
	<g>
		<g>
			<polygon class="st4" points="86.1,26.7 90.7,25.8 90.9,26.1 87.8,29.7 84.4,31.6 83.7,30.2 83.5,30 82.7,28.6 			"/>
			<g>
				<path class="st8" d="M81,34.5l-2.5-4.4L44.2,49.7c-1,0.6-1.3,1.8-0.8,2.8l0.5,0.9c0.6,1,1.8,1.3,2.8,0.8L81,34.5z"/>
				
					<rect x="78.7" y="30.3" transform="matrix(0.4969 0.8678 -0.8678 0.4969 68.1526 -54.2742)" class="st8" width="4.3" height="2.7"/>
				
					<rect x="81.3" y="29" transform="matrix(0.4969 0.8678 -0.8678 0.4969 68.1671 -56.9425)" class="st8" width="3.9" height="2.7"/>
				<polygon class="st9" points="83,32.7 81.1,29.3 81.5,29 83.5,32.4 				"/>
				
					<rect x="76.7" y="32" transform="matrix(0.4969 0.8678 -0.8678 0.4969 68.1427 -52.4269)" class="st10" width="5.1" height="1"/>
				
					<rect x="54.4" y="44.9" transform="matrix(0.4969 0.8678 -0.8678 0.4969 68.0043 -26.5653)" class="st10" width="5.1" height="1"/>
			</g>
		</g>
		<polygon class="st11" points="40.5,52.1 51.3,56.8 95.7,28.7 90.9,26.1 		"/>
	</g>
</g>
<g>
	<path class="st0" d="M137.4,86l8.8,5c0.6,0.4,1.4,0.3,2,0l26.7-15.9c0.6-0.4,1-1,1-1.7c0-0.7-0.4-1.3-1-1.7l-1.2-0.7l-32.2,15.4
		L137.4,86z"/>
	<g>
		<ellipse class="st12" cx="120.4" cy="69.6" rx="5.6" ry="5.7"/>
		<path class="st12" d="M117.5,72.4c-1,0.6-1,1.6,0,2.2l25,14.4c1,0.6,2.7,0.6,3.8,0l27.3-15.7c1-0.6,1-1.6,0-2.2l-25-14.4
			c-1-0.6-2.7-0.6-3.8,0L117.5,72.4z"/>
		<polygon class="st13" points="118,66.8 144.3,81.9 172.6,65.6 146.4,50.4 		"/>
		<path class="st13" d="M118,73.1l26,15c0.1,0.1,0.3,0.1,0.5,0l28.1-16.2l-26.3-15.2L118,73.1z"/>
		<polygon class="st13" points="118,66.8 118,73.1 126.2,77.8 127.8,72.5 		"/>
		<polygon class="st13" points="172.6,71.9 172.6,66.1 167.5,69.1 168.1,74.5 		"/>
		<path class="st6" d="M117.8,67.6c-1-0.6-1-1.6,0-2.2l27.3-15.7c1-0.6,2.7-0.6,3.8,0l23.8,13.7V67l-26.1,15c-1,0.6-2.7,0.6-3.8,0
			L117.8,67.6z"/>
		<path class="st12" d="M117.8,64.5c-1,0.6-1,1.6,0,2.2l25,14.4c1,0.6,2.7,0.6,3.8,0l27.3-15.7c1-0.6,1-1.6,0-2.2l-25-14.4
			c-1-0.6-2.7-0.6-3.8,0L117.8,64.5z"/>
		<polygon class="st14" points="116.8,72.3 118,73.1 118,66.8 116.8,66.1 		"/>
		<path class="st6" d="M118,72.5l26.1,15c0.1,0.1,0.3,0.1,0.5,0l28.1-16.8v1.2l-28.1,16.2c-0.2,0.1-0.4,0.1-0.5,0l-26-15V72.5z"/>
		<polygon class="st12" points="117.1,66 117.5,66.5 117,66.2 		"/>
		<polygon class="st15" points="125.4,77.3 128,78.8 128,75.3 125.4,73.8 		"/>
	</g>
	<g>
		<g>
			<ellipse class="st16" cx="124.3" cy="60.7" rx="4.7" ry="4.8"/>
			<path class="st15" d="M121.9,63c-0.9,0.5-0.9,1.3,0,1.8L143,77.1c0.9,0.5,2.3,0.5,3.2,0l23-13.3c0.9-0.5,0.9-1.3,0-1.8
				l-21.1-12.2c-0.9-0.5-2.3-0.5-3.2,0L121.9,63z"/>
			<polygon class="st13" points="122.3,58.3 144.5,71.1 168.4,57.3 146.2,44.5 			"/>
			<path class="st13" d="M122.3,63.7l22,12.7c0.1,0.1,0.3,0.1,0.4,0l23.7-13.7l-22.2-12.8L122.3,63.7z"/>
			<polygon class="st13" points="122.3,58.3 122.3,63.7 129.2,67.6 130.5,63.1 			"/>
			<polygon class="st13" points="168.4,62.6 168.4,57.8 164.1,60.3 164.6,64.9 			"/>
			<path class="st6" d="M122.1,59c-0.9-0.5-0.9-1.3,0-1.8l23-13.3c0.9-0.5,2.3-0.5,3.2,0l20.1,11.6v3l-22,12.7
				c-0.9,0.5-2.3,0.5-3.2,0L122.1,59z"/>
			<path class="st16" d="M122.1,56.4c-0.9,0.5-0.9,1.3,0,1.8l21.1,12.2c0.9,0.5,2.3,0.5,3.2,0l23-13.3c0.9-0.5,0.9-1.3,0-1.8
				l-21.1-12.2c-0.9-0.5-2.3-0.5-3.2,0L122.1,56.4z"/>
			<polygon class="st17" points="121.2,63 122.3,63.7 122.3,58.3 121.2,57.7 			"/>
			<path class="st6" d="M122.3,63.1l22,12.7c0.1,0.1,0.3,0.1,0.4,0l23.7-14.2v1l-23.7,13.7c-0.2,0.1-0.4,0.1-0.5,0l-21.9-12.7V63.1z
				"/>
			<polygon class="st16" points="121.5,57.7 121.8,58.1 121.5,57.9 			"/>
			<polygon class="st18" points="128.5,67.2 130.7,68.5 130.7,65.5 128.5,64.3 			"/>
		</g>
		<polygon class="st17" points="136.4,54.3 147.9,61 149.6,60 138.1,53.4 		"/>
		<polygon class="st17" points="141.5,54.1 148.3,58.1 150,57.1 143.2,53.2 		"/>
	</g>
</g>
<g>
	<path class="st0" d="M65.3,15.3l0-1.7l0,0c0-0.3-0.2-0.5-0.5-0.7L51.5,5.1c-0.7-0.4-2-0.4-2.8,0.1L29.3,16.4l-5.2,3l0,0l-3.9,2.3
		c-0.4,0.3-0.7,0.6-0.7,0.9l0,0v1.9l0,0c0,0.2,0.2,0.5,0.5,0.6l13.3,7.7c0.7,0.4,2,0.4,2.8-0.1l28.5-16.5
		C65.1,15.9,65.3,15.6,65.3,15.3L65.3,15.3z"/>
	<g>
		<polygon class="st19" points="62.4,14.8 62.4,13.1 60.6,14.1 61.6,15.3 		"/>
		<polygon class="st19" points="16.5,22.1 16.5,24 17.4,23.9 17.8,22.7 		"/>
		<path class="st19" d="M30.3,32.4L17,24.7c-0.7-0.4-0.6-1.1,0.2-1.6L45.7,6.6c0.8-0.5,2.1-0.5,2.8-0.1l13.3,7.7
			c0.7,0.4,0.6,1.1-0.2,1.6L33.2,32.3C32.3,32.7,31.1,32.8,30.3,32.4z"/>
		<path class="st20" d="M24.2,28.4L23,27.7c-0.2-0.1-0.4-0.5-0.4-0.7l0,0c0-0.3,0.2-0.4,0.4-0.3l1.2,0.7c0.2,0.1,0.4,0.5,0.4,0.7
			l0,0C24.6,28.4,24.5,28.5,24.2,28.4z"/>
		<g>
			<path class="st13" d="M30.3,30.6L17,22.9c-0.7-0.4-0.6-1.1,0.2-1.6L45.7,4.8c0.8-0.5,2.1-0.5,2.8-0.1l13.3,7.7
				c0.7,0.4,0.6,1.1-0.2,1.6L33.2,30.5C32.3,31,31.1,31,30.3,30.6z"/>
			<linearGradient id="SVGID_1_" gradientUnits="userSpaceOnUse" x1="18.2891" y1="17.9667" x2="59.6765" y2="17.9667">
				<stop  offset="0" style="stop-color:#775CA7"/>
				<stop  offset="1" style="stop-color:#579FD7"/>
			</linearGradient>
			<polygon class="st21" points="34,30 18.3,20.6 43.7,6 59.7,15.2 			"/>
			<path class="st19" d="M55.4,11.1l-4.7-2.7c-0.1-0.1-0.1-0.2,0-0.2l0,0c0.1-0.1,0.3-0.1,0.4,0l4.7,2.7c0.1,0.1,0.1,0.2,0,0.2l0,0
				C55.7,11.2,55.6,11.2,55.4,11.1z"/>
			<path class="st19" d="M57.1,11.8c-0.1,0.1-0.3,0.1-0.4,0c-0.1-0.1-0.1-0.2,0-0.3c0.1-0.1,0.3-0.1,0.4,0
				C57.2,11.6,57.2,11.8,57.1,11.8z"/>
		</g>
		<g>
			<path class="st20" d="M53.3,20.4L51,21.7c-0.2,0.1-0.3,0-0.3-0.3l0,0c0-0.3,0.2-0.6,0.3-0.7l2.3-1.3c0.2-0.1,0.3,0,0.3,0.3l0,0
				C53.7,19.9,53.5,20.2,53.3,20.4z"/>
			<path class="st20" d="M59.7,16.7l-4.4,2.6c-0.2,0.1-0.3,0-0.3-0.3l0,0c0-0.3,0.2-0.6,0.3-0.7l4.4-2.6c0.2-0.1,0.3,0,0.3,0.3l0,0
				C60,16.3,59.9,16.6,59.7,16.7z"/>
		</g>
	</g>
</g>
<g>
	<ellipse class="st0" cx="14.9" cy="76.5" rx="11.1" ry="6.4"/>
	<g>
		<path class="st22" d="M36.2,1.9l-1-0.6l0,0c-0.8-0.6-2-0.5-3.4,0.3C29,3.2,28.1,5.9,28,6.7c0,0,0,0,0,0c0,0,0,0,0,0.1c0,0,0,0,0,0
			c0,0,0,0,0,0c0,0,0,0,0,0c0,0,0,0,0,0c0,0,0,0,0,0c0,0,0,0,0,0c0,0,0,0,0,0l1.4,0.9c0-0.2,0.2-0.5,0.4-0.9l0.4,0
			c0.1-0.5,0.3-1.1,0.6-1.6c0,0,0-0.1,0.1-0.1c0.3-0.4,0.6-0.8,1-1C32.4,3.8,33,4.1,33,4.9c0,1.2-0.8,1.7-1.7,2.9
			c-0.7,0.9-0.7,1.5-0.7,2.2v1.8l0.8,0.5c-0.7,0.6-1.3,1.7-1.3,2.6c0,0.5,0.2,0.8,0.4,1l0,0l0,0c0,0,0.1,0,0.1,0.1l1.3,0.8l0.8-0.7
			l0-1.1c0.3-0.4,0.6-1,0.7-1.5l1-0.8l-1.5-1l0,0c-0.2-0.1-0.5,0-0.9,0.1l0-1l1-0.6V9.5c0-0.6,0-1,0.5-1.6C34.9,6.5,36,4.8,36,3.2
			c0-0.3,0-0.6-0.1-0.9l0.3,0.1L36.2,1.9z"/>
		<g>
			<path class="st23" d="M29.3,7.8c0-0.1,0.6-3.6,3.9-5.4c2.2-1.3,4.2-0.7,4.2,1.6c0,1.7-1.1,3.3-2.5,4.8c-0.5,0.5-0.5,1-0.5,1.6
				v0.9l-2.4,1.4v-1.8c0-0.7,0-1.4,0.7-2.2c0.9-1.2,1.7-1.7,1.7-2.9c0-0.8-0.5-1.1-1.2-0.7c-1.1,0.6-1.6,1.9-1.7,2.7L29.3,7.8z
				 M34.8,14c0,1.1-0.7,2.4-1.7,2.9c-0.9,0.5-1.7,0.1-1.7-1c0-1.1,0.7-2.4,1.7-2.9C34.1,12.5,34.8,12.9,34.8,14z"/>
		</g>
	</g>
	<g>
		<ellipse class="st0" cx="37.4" cy="88.3" rx="11.1" ry="6.4"/>
		<path class="st24" d="M42.7,89.2c0,0,2.5-1.8,3.5-0.8c0.4,0.4-0.2,1.4-2.2,2.5c-2.1,1.2-2.3,1.3-3.2,1.1
			C39.6,91.7,39.2,89.3,42.7,89.2z"/>
		<path class="st24" d="M33.6,84.7c0,0,2.5-1.8,3.5-0.8c0.4,0.4-0.2,1.4-2.2,2.5c-2.1,1.2-2.3,1.3-3.2,1.1
			C30.4,87.2,30,84.8,33.6,84.7z"/>
		<g>
			<g>
				<path class="st25" d="M31.3,34l1,12c0,0,1,1.2,2.2-0.1c0,0,2.1-10.8,1.2-13.6L31.3,34z"/>
				<path class="st25" d="M35.1,35c-1.1,0.9-2.6,0.7-3.5-0.3c-0.9-1.1-0.7-2.6,0.3-3.5c1.1-0.9,2.6-0.7,3.5,0.3
					C36.3,32.6,36.1,34.1,35.1,35z"/>
			</g>
			<path class="st25" d="M34.5,45.9l-0.3,10c0,0-0.9-0.3-1.3,0.4L32.3,46L34.5,45.9z"/>
			<path class="st25" d="M33.8,58.5c-0.6,0-1.1-0.5-1.2-1.3c-0.1-0.8,0.3-1.4,0.9-1.5c0.6,0,1.1,0.5,1.2,1.3
				C34.8,57.8,34.4,58.5,33.8,58.5z"/>
			<path class="st26" d="M35.6,38.5L31.7,39l-0.4-4.8c0,0-0.7-1.1,0.2-2.4c0.8-1.3,2.3-1.2,2.7-1c0.5,0.2,1.4,0.5,1.8,1.9
				c0.2,0.7-0.1,1.3-0.1,1.3S35.9,37.3,35.6,38.5z"/>
		</g>
		<path class="st27" d="M39.8,58.1l-2.7,15l-3.4,12.7c-1.1,0.8-1.7,1-2.4,0l1.1-12.6l0.1-16.6L39.8,58.1z"/>
		<path class="st28" d="M45.9,58.4l-0.2,14.9l-2.8,17.1c-1,0.7-1.7,0.7-2.5,0l0.2-16.8l-1.5-15.2H45.9z"/>
		<path class="st28" d="M45.8,53.8l0.1,4.6c0,0-3.2,3.2-7.6,0c0,0-3.4,0.3-5.8-1.9c0,0-0.5-2.8,0.8-4.5L45.8,53.8z"/>
		<path class="st29" d="M39.7,33.4c0,0,3.6,0.4,5.3,3.2c1.7,2.9,0.2,8.4,0.2,8.4l0.4,8.9c0,0-7.7,3.4-13.2,0l0.6-9.3
			c0,0-1.2-5.3-1-7c0.2-1.7-0.6-5.3,2.6-6.7L39.7,33.4z"/>
		<path class="st25" d="M36,25.9c0,2.9,1.2,5,4.2,5c2,0,3-2.5,3-5c0-2.5-1.6-4.1-3.6-4.1C37.6,21.8,36,23.4,36,25.9z"/>
		<path class="st30" d="M34.7,30.9l5,2.5c0,0,3.6,0.4,5.3,3.2c0.4,0.7,0.6,1.5,0.7,2.3l-0.2,0c0,0-9.7-2.9-13.3-5.2
			C32.5,32.6,33.3,31.5,34.7,30.9z"/>
		<path class="st25" d="M40.6,29.5l0.2,5.3c0,0-3.3,0.8-3.8-1.5v-5L40.6,29.5z"/>
		<path class="st26" d="M42.7,54.9c0.1-4.1-0.1-8.8-0.1-8.8c-2.3-6.1,0.6-11.4,0.6-11.4c0.7,0.5,3.5,1.6,3.6,2.7
			c0.5,3.8-0.8,8.4-0.8,8.4l-0.3,8.1C45.8,53.8,45.5,54.4,42.7,54.9z"/>
		<path class="st31" d="M37.6,30.2c-1.1-0.8-1.6-2.4-1.6-4.2c0-2.5,1.6-4.1,3.6-4.1c1.5,0,2.7,0.9,3.3,2.4l-2.1,2l-0.6,4.7
			L37.6,30.2z"/>
		<path class="st25" d="M39.8,27.7c0,0.5,0.4,1,1,1c0.5,0,1-0.4,1-1s-0.4-1-1-1C40.3,26.7,39.8,27.1,39.8,27.7z"/>
		<path class="st25" d="M67.3,24.9l-1.7,1.4l-0.4-0.5l1.7-1.4c0.1-0.1,0.3-0.1,0.4,0l0,0C67.5,24.6,67.5,24.8,67.3,24.9z"/>
		<g>
			<path class="st25" d="M45.6,38.7l11.4-4c0,0,0.8-1.6-0.7-2.4c0,0-10.9,1-13.3,2.5L45.6,38.7z"/>
			<path class="st25" d="M45.7,34.7c1.1,0.8,1.4,2.4,0.5,3.5c-0.8,1.1-2.4,1.4-3.5,0.5c-1.1-0.8-1.4-2.4-0.5-3.5
				C43,34.2,44.6,33.9,45.7,34.7z"/>
		</g>
		<path class="st25" d="M55.5,32.7l8.5-5.8c0,0,0.4,1.3,1.2,1.2l-8.2,6.5L55.5,32.7z"/>
		<path class="st25" d="M66.3,26.1c0.2,0.2,0.4,0.5,0.4,0.8c-0.1,0.3-0.5,0.6-0.8,0.9c-0.6,0.5-1.4,0.6-1.7,0.1
			c-0.4-0.4-0.2-1.2,0.4-1.7C65.2,25.7,65.9,25.6,66.3,26.1z"/>
		<path class="st30" d="M48.9,33.4l1.5,3.7l-4.6,1.6c0,0-0.9,0.9-2.4,0.5s-1.7-1.9-1.7-2.4c0.1-0.5,0.1-1.4,1.4-2.2
			c0.6-0.3,1.2-0.3,1.2-0.3S47.7,33.4,48.9,33.4z"/>
		<circle class="st31" cx="39.6" cy="21.8" r="1.5"/>
		<circle class="st31" cx="38.1" cy="23.8" r="1.5"/>
		<circle class="st31" cx="37.4" cy="23" r="1.5"/>
		<circle class="st31" cx="38.1" cy="22" r="1.5"/>
		<circle class="st31" cx="41.7" cy="21.8" r="1.5"/>
		<circle class="st31" cx="42.3" cy="23.6" r="1.5"/>
		<circle class="st31" cx="37" cy="25.4" r="1.5"/>
		<circle class="st31" cx="37" cy="24.4" r="1.5"/>
	</g>
	<path class="st24" d="M17.7,76.6c0,0,2.5-1.8,3.5-0.8c0.4,0.4-0.2,1.4-2.2,2.5c-2.1,1.2-2.3,1.3-3.2,1.1
		C14.5,79.1,14.1,76.7,17.7,76.6z"/>
	<path class="st24" d="M9.2,74c0,0,2.5-1.8,3.5-0.8c0.4,0.4-0.2,1.4-2.2,2.5c-2.1,1.2-2.3,1.3-3.2,1.1C6.1,76.5,5.6,74.1,9.2,74z"/>
	<g>
		<g>
			<path class="st25" d="M6.7,22.7l1,12c0,0,1,1.2,2.2-0.1c0,0,2.1-10.8,1.2-13.6L6.7,22.7z"/>
			
				<ellipse transform="matrix(9.428210e-02 -0.9955 0.9955 9.428210e-02 -13.6475 28.6371)" class="st25" cx="8.9" cy="21.8" rx="2.5" ry="2.5"/>
		</g>
		<path class="st25" d="M9.9,34.6l-0.3,10c0,0-0.9-0.3-1.3,0.4L7.7,34.7L9.9,34.6z"/>
		<path class="st25" d="M9.2,47.2c-0.6,0-1.1-0.5-1.2-1.3C8,45.1,8.4,44.5,9,44.4c0.6,0,1.1,0.5,1.2,1.3
			C10.2,46.5,9.8,47.2,9.2,47.2z"/>
		<path class="st32" d="M11.2,27.3l-4.1,0.5l-0.4-4.8c0,0-0.7-1.1,0.2-2.4c0.8-1.3,2.3-1.2,2.7-1c0.5,0.2,1.4,0.5,1.8,1.9
			c0.2,0.7-0.1,1.3-0.1,1.3S11.4,26.1,11.2,27.3z"/>
	</g>
	<path class="st33" d="M15.2,46.8l-2.6,14.4L9.1,74.9c-0.9,0.8-1.5,0.8-2.4,0.1l1.1-14.2l0.1-15.5L15.2,46.8z"/>
	<path class="st34" d="M21,47.1l-0.4,13.2l-3,17.1c-0.9,0.7-1.5,0.7-2.4,0.1l0.3-16.7l-1.8-13.8H21z"/>
	<path class="st34" d="M21.3,42.4L21,47.1c0,0-3,3.2-7.4,0c0,0-3.4,0.3-5.8-1.9c0,0-0.5-2.8,0.8-4.5L21.3,42.4z"/>
	<path class="st35" d="M15.1,22.1c0,0,3.6,0.4,5.3,3.2s0.2,8.4,0.2,8.4l0.4,8.9c0,0-7.7,3.4-13.2,0l0.6-9.3c0,0-1.2-5.3-1-7
		c0.2-1.7-0.6-5.3,2.6-6.7L15.1,22.1z"/>
	<path class="st25" d="M11.4,14.7c0,2.9,1.2,5,4.2,5c2,0,3-2.5,3-5c0-2.5-1.6-4.1-3.6-4.1S11.4,12.2,11.4,14.7z"/>
	<path class="st36" d="M10.1,19.6l5,2.5c0,0,3.6,0.4,5.3,3.2c0.4,0.7,0.6,1.5,0.7,2.3l-0.2,0c0,0-9.7-2.9-13.3-5.2
		C7.9,21.4,8.7,20.2,10.1,19.6z"/>
	<path class="st25" d="M16,18.2l0.2,5.3c0,0-3.3,0.8-3.8-1.5v-5L16,18.2z"/>
	<path class="st32" d="M18.1,43.6c0.1-4.1-0.1-8.8-0.1-8.8c-2.3-6.1,0.6-11.4,0.6-11.4c0.7,0.5,3,2.2,3.1,3.2C22.1,29.9,21,35,21,35
		l0.3,7.4C21.3,42.4,20.9,43.2,18.1,43.6z"/>
	<path class="st31" d="M13,18.9c-1.1-0.8-1.6-2.4-1.6-4.2c0-2.5,1.6-4.1,3.6-4.1c1.5,0,2.7,0.9,3.3,2.4l-2.1,2l-0.6,4.7L13,18.9z"/>
	<path class="st25" d="M15.2,16.4c0,0.5,0.4,1,1,1c0.5,0,1-0.4,1-1c0-0.5-0.4-1-1-1C15.7,15.4,15.2,15.9,15.2,16.4z"/>
	<g>
		<g>
			<path class="st25" d="M16.4,26.8l1.4,12c0,0,1.3,1.1,2.5-0.1c0,0,1.4-10.8,0.5-13.6L16.4,26.8z"/>
			<path class="st25" d="M20.2,27.7c-1,0.9-2.6,0.8-3.5-0.2c-0.9-1-0.8-2.6,0.2-3.5c1-0.9,2.6-0.8,3.5,0.2
				C21.4,25.2,21.3,26.8,20.2,27.7z"/>
		</g>
		<path class="st25" d="M20.3,38.6l0,10.3c0,0-1.3-0.4-1.7,0.3l-0.8-10.4L20.3,38.6z"/>
		<path class="st25" d="M19.7,51.2c-0.3,0-0.7,0.1-0.9-0.1c-0.2-0.2-0.3-0.7-0.3-1.2c-0.1-0.8,0.3-1.5,0.9-1.5
			c0.6-0.1,1.1,0.5,1.2,1.3C20.6,50.5,20.3,51.2,19.7,51.2z"/>
		<path class="st36" d="M21.1,31.2L17,31.8L16.4,27c0,0-0.7-1.1,0.1-2.4c0.8-1.3,2.2-1.3,2.7-1.1c0.5,0.2,1.4,0.4,1.8,1.8
			c0.2,0.7,0.1,1.3,0.1,1.3S21.3,30.1,21.1,31.2z"/>
	</g>
	<polygon class="st31" points="14.9,10.6 17.7,9.9 19.4,10.7 18.3,12.9 14.1,12.8 	"/>
</g>
</svg>
