<svg xmlns="http://www.w3.org/2000/svg" xmlns:xlink="http://www.w3.org/1999/xlink" width="176" height="86" viewBox="0 0 176 86"><defs><clipPath id="a"><rect width="176" height="86" transform="translate(139 534)" fill="#fff" stroke="#707070" stroke-width="1"/></clipPath><linearGradient id="b" x1="152.668" y1="-54.594" x2="153.72" y2="-54.594" gradientUnits="objectBoundingBox"><stop offset="0" stop-color="#040000"/><stop offset="0.319" stop-color="#141010"/><stop offset="0.676" stop-color="#2c2929"/><stop offset="0.829" stop-color="#1b1818"/><stop offset="1" stop-color="#040000"/></linearGradient><linearGradient id="c" x1="389.031" y1="-131.134" x2="389.323" y2="-131.4" gradientUnits="objectBoundingBox"><stop offset="0" stop-color="#002027"/><stop offset="1" stop-color="#070102"/></linearGradient><linearGradient id="d" x1="-38.519" y1="3.248" x2="-37.518" y2="3.248" xlink:href="#c"/><linearGradient id="e" x1="-369.417" y1="-36.788" x2="-368.365" y2="-36.788" xlink:href="#b"/><linearGradient id="f" x1="1.853" y1="-4.363" x2="1.448" y2="-5.592" gradientUnits="objectBoundingBox"><stop offset="0" stop-color="#a4aeb6"/><stop offset="0.528" stop-color="#cfd4d8"/><stop offset="0.609" stop-color="#c7cdd1"/><stop offset="1" stop-color="#a6b0b5"/></linearGradient></defs><g transform="translate(-139 -534)"><g clip-path="url(#a)"><g transform="translate(0 2)"><rect width="105" height="80" transform="translate(139 538)" fill="#fff" opacity="0"/><g transform="translate(-165.807 357.477)"><g transform="translate(356.255 314.806)"><g transform="translate(0)"><g transform="translate(1.561)"><path d="M465.783,733.716l.5,13.327,5.605.225-2.625-14.417Z" transform="translate(-465.783 -732.851)" fill="#232427"/></g><g transform="translate(0 12.14)"><path d="M459.387,811.218l-.115-1.981,4.794.01,16.237,2.683s.587.2.064,1.4-7.528,2.519-12.4.72-4.729-2.3-4.729-2.3l-.087.724S460.518,812.167,459.387,811.218Z" transform="translate(-459.27 -803.079)" fill="#221613"/><path d="M459.267,789.688s-.056-5.792.5-5.925,1.74,2.131,3.973,1.4a13.066,13.066,0,0,0,3.447-1.632s4.871,3.73,6.148,4.33,8.934,1.535,7.047,4.663c0,0-1.712,1.73-9.022,1.378S467.374,791.106,459.267,789.688Z" transform="translate(-459.265 -783.53)" fill="#393332"/><path d="M490.1,788.974l-4.872-4.895a3.228,3.228,0,0,1,1.7-.549c.13,0,6.148,4.33,6.148,4.33Z" transform="translate(-479.01 -783.53)" fill="#484140"/><g transform="translate(6.138 0.646)"><path d="M485.486,790.638a.3.3,0,1,1-.3-.344A.323.323,0,0,1,485.486,790.638Z" transform="translate(-484.888 -789.32)" fill="#060000"/><path d="M488.261,786.23a4.413,4.413,0,0,0-2.756,1.231c-.058.383.2.25.2.25a4.93,4.93,0,0,1,2.732-1.274C488.513,786.278,488.261,786.23,488.261,786.23Z" transform="translate(-485.351 -786.226)" fill="#221613"/></g><g transform="translate(7.25 1.649)"><path d="M490.131,795.157a.3.3,0,1,1-.3-.344A.324.324,0,0,1,490.131,795.157Z" transform="translate(-489.533 -793.76)" fill="#060000"/><path d="M493.1,790.42a5.122,5.122,0,0,0-2.954,1.31c-.058.383.2.25.2.25a5.993,5.993,0,0,1,3.012-1.376C493.436,790.444,493.1,790.42,493.1,790.42Z" transform="translate(-489.995 -790.416)" fill="#221613"/></g><g transform="translate(8.501 2.677)"><path d="M495.351,799.535a.3.3,0,1,1-.3-.343A.323.323,0,0,1,495.351,799.535Z" transform="translate(-494.753 -798.118)" fill="#060000"/><path d="M498.511,794.711c-1.392-.083-3.141,1.331-3.141,1.331-.058.383.2.25.2.25a6.43,6.43,0,0,1,3.2-1.4C498.844,794.736,498.511,794.711,498.511,794.711Z" transform="translate(-495.216 -794.707)" fill="#221613"/></g><path d="M475.464,820.425l1.218-.357-1.131-.367Z" transform="translate(-471.584 -811.036)" fill="#51453f"/><g transform="translate(9.668 3.573)"><path d="M500.225,803.29a.3.3,0,1,1-.3-.344A.323.323,0,0,1,500.225,803.29Z" transform="translate(-499.627 -801.868)" fill="#060000"/><path d="M503.481,798.45c-1.392-.084-3.239,1.335-3.239,1.335-.058.383.2.249.2.249a6.626,6.626,0,0,1,3.3-1.4C503.815,798.474,503.481,798.45,503.481,798.45Z" transform="translate(-500.089 -798.446)" fill="#221613"/></g></g></g></g><path d="M484.738,575.246c-.905,1.739-4.261.061-7.314-1.983a16.728,16.728,0,0,1-3.211-2.408l-5.136-13.77-.464-2.277-1.637-13.884s6.861-1.873,6.93-1.885,5.677.869,5.677.869l.627,6.146c.116.6.244,1.212.371,1.861.046.22.093.429.139.649C482.8,558.725,486.364,572.124,484.738,575.246Z" transform="translate(-108.874 -270.658)" fill="#1e1e21"/><path d="M431.694,585.195c-1.524,1.738-3.655,1.441-6.307,1.98-1.952.4-2.928.353-4.149-.762a57.609,57.609,0,0,1-2.825-9.143,81.271,81.271,0,0,1-.786-8.278,46.113,46.113,0,0,0-.772-4.971c-.261-2.02-.658-1.555-1.723-7.505s-3.515-19.673-3.547-22.06a3.668,3.668,0,0,1,.5-1.4c1.075-2.069,2.62-6.22,5.763-7.823,3.758-1.935,8.237-.918,8.874,1.151,1.326,4.346.209,14.68-.355,18.781-.543,4.114.334,12.978.637,15.1s.115,2.192.762,7.015c.2,1.518.585,3.379,1.055,5.351.4,1.592.835,3.257,1.294,4.86C430.889,580.221,431.067,583.444,431.694,585.195Z" transform="translate(-66.751 -259.379)" fill="#1e1e21"/><g transform="translate(341.81 316.807)"><path d="M401.177,746.835c.962-.507,2.3.332,2.3.332l1.051,9.737,1.356,4.075,3.75,2.342a3.032,3.032,0,0,1-.9,2.873,1.949,1.949,0,0,1-.987.388h0a4.292,4.292,0,0,1-2.291-.216,8.646,8.646,0,0,1-4.871-5.843c-.878-3.642-2.255-10.133-1.3-12.236C399.67,747.447,401.175,746.835,401.177,746.835Z" transform="translate(-398.964 -745.362)" fill="#221613"/><path d="M425.848,746.593a6.917,6.917,0,0,0-3.028,1.782c-1.011,1.226-4.346-.795-4.417-.933a30.854,30.854,0,0,1-.255-3.271c.052-.057,3.621-2.8,4.018-2.964S425.848,746.593,425.848,746.593Z" transform="translate(-413.548 -741.202)" fill="#232427"/><path d="M409.767,746.44c.519.03.525.406.525.406s-1.6,1.3-1.3,2.058a2.088,2.088,0,0,0,1.793,1.183A7.834,7.834,0,0,1,414.2,751.3a2.262,2.262,0,0,1,.89,2.194,19.215,19.215,0,0,1-.66,2.255c-.159.682-.271,1.4-.376,2.092a9.926,9.926,0,0,0-.044,3.076c.287,1.759,1.229,3.249-.469,4.627-1.036.679-2.332.165-3.269-.44-3.058-1.973-3.783-4.716-4.249-8.852-.252-2.23-.849-6.772-.056-8.567C406.356,746.806,409.292,746.412,409.767,746.44Z" transform="translate(-403.988 -745.184)" fill="#393332"/><g transform="translate(7.201 5.683)"><path d="M430.531,771.318l2.612-6.393a3.227,3.227,0,0,1,1.167,1.35c.051.12-1.595,7.349-1.595,7.349Z" transform="translate(-430.17 -764.925)" fill="#484140"/><g transform="translate(1.417 0.444)"><path d="M435.393,767.362a.3.3,0,1,1,.2-.409A.323.323,0,0,1,435.393,767.362Z" transform="translate(-434.94 -766.78)" fill="#060000"/><path d="M437.948,769.426a4.413,4.413,0,0,0-2.206-2.059c-.375.1-.151.284-.151.284a4.931,4.931,0,0,1,2.238,2.021C438,769.677,437.948,769.426,437.948,769.426Z" transform="translate(-435.384 -767.227)" fill="#221613"/></g><g transform="translate(0.853 1.891)"><path d="M433.04,773.4a.3.3,0,1,1,.2-.41A.324.324,0,0,1,433.04,773.4Z" transform="translate(-432.587 -772.818)" fill="#060000"/><path d="M435.745,775.615c-.465-1.315-2.356-2.211-2.356-2.211-.375.1-.151.284-.151.284a5.993,5.993,0,0,1,2.44,2.238C435.852,775.931,435.745,775.615,435.745,775.615Z" transform="translate(-433.031 -773.264)" fill="#221613"/></g><g transform="translate(0.374 3.451)"><path d="M431.04,779.913a.3.3,0,1,1,.2-.409A.323.323,0,0,1,431.04,779.913Z" transform="translate(-430.587 -779.331)" fill="#060000"/><path d="M433.836,782.292c-.465-1.315-2.448-2.375-2.448-2.375-.375.1-.151.284-.151.284a6.428,6.428,0,0,1,2.532,2.4C433.942,782.609,433.836,782.292,433.836,782.292Z" transform="translate(-431.03 -779.777)" fill="#221613"/></g><g transform="translate(0 4.876)"><path d="M429.479,785.864a.3.3,0,1,1,.2-.409A.323.323,0,0,1,429.479,785.864Z" transform="translate(-429.025 -785.282)" fill="#060000"/><path d="M432.317,788.33c-.465-1.315-2.49-2.463-2.49-2.463-.375.1-.151.284-.151.284a6.627,6.627,0,0,1,2.574,2.49C432.424,788.647,432.317,788.33,432.317,788.33Z" transform="translate(-429.47 -785.727)" fill="#221613"/></g></g></g><path d="M452.518,675.707c-1.17,3.936-13.534,16.382-22.706,21.181-2.471-.5-5.384-4.318-5.312-7.816,0-.568-.185.568,0,0,5.132-3.253,16.479-17.749,17.43-17.813h.012C447.392,670.888,453.528,672.358,452.518,675.707Z" transform="translate(-76.51 -371.163)" fill="#1e1e21"/><path d="M524.816,384.543s3.823.935,5.416,2.4,7.34,11.709,7.34,11.709l-10.192,3.032Z" transform="translate(-152.858 -153.172)" fill="#e2e2e1" fill-rule="evenodd"/><g transform="translate(336.874 216.109)"><g transform="translate(1.834)"><path d="M439.91,361.953s-2.034.453-2.034,1.208,5.477,2.527,9.128,2.554,8.058-1.415,8.1-1.881S451.542,361.816,439.91,361.953Z" transform="translate(-425.452 -352.096)" fill="#e4e0df"/><path d="M443.468,320.83l-2.2,13.736s3.652,4.655,9.392,5.02,6.574-1.734,6.574-1.734l-2.8-16.736Z" transform="translate(-428.035 -320.83)" fill="#eaa481"/><path d="M386.124,394.641c-.651-4.381,1.728-15.8,1.728-15.8,4.591-1.834,7.664-2.8,7.664-2.8h0l.8-.317h11.227l3.474,5.09.051.016h0a13.122,13.122,0,0,1,1.345-5.723l4.371,2.874,2.093-1.043,3.67,1.825a53.65,53.65,0,0,1,1.881,12.976c.054,6.754-2.741,16.258-3.5,21.981s-1.778,3.141-1.778,3.141-5.46,2.78-26.611-.689c0,0,3.34,1.2.629-5.1C393.174,411.069,386.775,399.022,386.124,394.641Z" transform="translate(-386.011 -362.103)" fill="#50c1e9"/></g><path d="M478.192,398.9l6.614,29.333-5.095,4.911-5.88-5.606L476.763,399Z" transform="translate(-450.961 -380.2)" fill="#091e42"/><g transform="translate(23.054 13.455)"><path d="M477.345,377l-2.748,1.526,2.022,4.259a1.519,1.519,0,0,0,1.5.775,1.412,1.412,0,0,0,1.314-.984l1.045-4.247Z" transform="translate(-474.597 -376.999)" fill="#091e42"/></g><path d="M512.728,384.57l-3.67-1.825s1.452,8.159-.655,14.268c-1.513,4.387-2.133,6.323-2.212,8.223,0,0-1.491,8.507-1.46,9.53.117,3.824.115.033-.124,7.9-.063,2.069.088,27.011.491,28.485.139.509.682,1.725,1.1,1.848,1.729.506,8.178-.368,8.178-.368s-3.666-26.139-3.057-33.106c.356-4.07,4.788-15.151,4.734-21.9A32.837,32.837,0,0,0,512.728,384.57Z" transform="translate(-474.354 -367.914)" fill="#eeeeed"/><path d="M509.476,383.134l1.019.461s1.9,8.285,1.9,9.535l-2.291.833,2.291,1.249s-4.439,10.319-7.338,19.848c-.171.564.31-4.234.66-8.521C506.081,402.027,508.654,395.462,509.476,383.134Z" transform="translate(-474.677 -368.209)" fill="#e2e2e1"/><path d="M434.711,372.4a62.283,62.283,0,0,1,5.443-5.329s-11.437-1.826-10.824-3.129c0,0-.618,0-1.4.9-.538.621-2.245,2.712-2.245,2.712Z" transform="translate(-414.351 -353.612)" fill="#2a8bad"/><path d="M486.07,370.265a7.534,7.534,0,0,1,4.66,4.782s4.138-1.671,4.242-3.405c0,0-1.826-3.162-3.7-3.5C491.269,368.144,490.4,369.074,486.07,370.265Z" transform="translate(-460.268 -356.81)" fill="#2a8bad"/><path d="M389.911,374.425a44.6,44.6,0,0,1-6.081,2.427c-3.93.9-4.2,1.593-4.977,3.726-1.614,4.461,1.074,13.73,2.6,17.437,1.638,3.97,5.112,11.635,4.421,14.45-1.011,4.115-1.983,31.888-1.24,34.4l13.355.432a3.258,3.258,0,0,0,3.448-2.26c.765-3.571,2.194-34.1,2.8-36.653.421-2.857-2.051-13.974-5.59-20.85C395.1,382.964,391.15,377.132,389.911,374.425Z" transform="translate(-378.355 -361.587)" fill="#e2e2e1"/><path d="M410.61,374.425a13.436,13.436,0,0,1-3.719,1.512c-.406.154-.852.329-1.317.516,5.036,3.505,7.605,11.063,10.679,14.165,2.411.7,3.806,1.2,3.806,1.2a12.822,12.822,0,0,0-2.7,1.532c1,2.718,6.215,7.355,7.244,16.494.127-.563.241-1.06.335-1.455.421-2.857-.081-11.681-3.013-18.476C418.3,383.66,412.023,376.7,410.61,374.425Z" transform="translate(-399.054 -361.587)" fill="#eeeeed"/><g transform="translate(21.958 49.24)"><path d="M471.881,527.505a.945.945,0,1,1-.715-1.091A.923.923,0,0,1,471.881,527.505Z" transform="translate(-470.02 -526.388)" fill="#35548a" opacity="0.5"/></g><g transform="translate(21.256 54.57)"><path d="M468.951,549.754a.945.945,0,1,1-.715-1.091A.923.923,0,0,1,468.951,549.754Z" transform="translate(-467.09 -548.637)" fill="#35548a" opacity="0.5"/></g><g transform="translate(28.445 10.533)"><path d="M503.4,364.8l.116,1.4a8.119,8.119,0,0,1,3.169,6.422l1.1.145C508.237,370.139,505.526,366.567,503.4,364.8Z" transform="translate(-501.888 -364.802)" fill="#060000"/><path d="M507.573,425.581l.726.016s-.032,8.924-6.979,9.474l.18-.532S507.488,434.122,507.573,425.581Z" transform="translate(-500.31 -411.022)" fill="#7d7d7d"/><path d="M505.912,418.969l-.726-.037s-.618,8.9,6.271,9.957l-.141-.543S505.375,427.493,505.912,418.969Z" transform="translate(-503.239 -405.965)" fill="#7d7d7d"/><path d="M505.529,402.854l.13-2.862c.058-1.315.234-2.97,2.193-2.87,2,.1,1.979,1.741,1.92,3.057l-.129,2.86,1.13.052.2-4.316a3.264,3.264,0,0,0-6.464-.293l-.2,4.317Z" transform="translate(-502.583 -388.374)" fill="#060000"/><path d="M498.917,461.911a.6.6,0,0,1-.474.7l-.631.121a.6.6,0,0,1-.7-.473h0a.6.6,0,0,1,.473-.7l.633-.12a.6.6,0,0,1,.7.472Z" transform="translate(-497.103 -438.281)" fill="#060000"/><path d="M526.612,456.656a.594.594,0,0,1,.775-.327l.6.241a.6.6,0,0,1,.328.777h0a.6.6,0,0,1-.776.328l-.6-.242a.6.6,0,0,1-.327-.776Z" transform="translate(-519.509 -434.37)" fill="#060000"/></g><g transform="translate(11.676 8.559)"><path d="M427.336,365.334c-.729,3.853.342,9.2,1.593,12.959l1.095-.327c-1.791-5.014-2.637-13.618.959-19.287a10.344,10.344,0,0,1,.339-2.119C429.247,358.429,427.834,362.7,427.336,365.334Z" transform="translate(-427.099 -356.56)" fill="#060000"/><rect width="1.811" height="1.566" transform="translate(1.529 21.579) rotate(-16.661)" fill="#b9b7b7"/><path d="M434.791,453.245a3.819,3.819,0,1,1-3.644-3.941A3.795,3.795,0,0,1,434.791,453.245Z" transform="translate(-427.143 -427.085)" fill="#b9b7b7"/><path d="M435.092,453.259a3.174,3.174,0,1,1-3.029-3.276A3.154,3.154,0,0,1,435.092,453.259Z" transform="translate(-428.353 -427.602)" fill="#fafafa"/><path d="M437.632,456.53a2.013,2.013,0,1,1-1.92-2.077A2,2,0,0,1,437.632,456.53Z" transform="translate(-432.05 -431.001)" fill="url(#b)"/><path d="M437.753,454.81a1.941,1.941,0,1,1-1.853-2A1.929,1.929,0,0,1,437.753,454.81Z" transform="translate(-432.25 -429.75)" fill="#b9b7b7"/><path d="M437.878,454.321a1.71,1.71,0,1,1-1.632-1.765A1.7,1.7,0,0,1,437.878,454.321Z" transform="translate(-432.697 -429.56)" fill="#fafafa"/></g></g><g transform="translate(339.088 187.978)"><path d="M530.772,268.028c1.051-1.361,1.607-3.608.491-6.485a2.961,2.961,0,0,0-2.735-1.72l-4.18,1.123,1.179,9.254,3.844-1.033A2.961,2.961,0,0,0,530.772,268.028Z" transform="translate(-491.591 -246.293)" fill="#ffbe9d"/><path d="M389.815,282.248c-1.368-1.042-2.488-3.067-2.156-6.135a2.962,2.962,0,0,1,2.2-2.371h4.328l1.263,9.243h-3.98A2.963,2.963,0,0,1,389.815,282.248Z" transform="translate(-387.6 -256.89)" fill="#ffbe9d"/><path d="M438.977,210.069c1.848,3.591,2.849,19.08,1.422,22.636s-5.308,8.251-9.812,9.167c-6.282,1.278-16.6-4.5-18.675-8.31-1.634-3-5.072-14.378-3.7-20.04s8.147-9.828,16.85-10.118C430.94,203.208,436.688,205.622,438.977,210.069Z" transform="translate(-403.033 -203.393)" fill="#ffbe9d"/><path d="M447.913,271.732c-.785-1.526.361-6.221,3.547-6.608s3,5.345,2.231,6.915A3.513,3.513,0,0,0,447.913,271.732Z" transform="translate(-433.284 -250.323)" opacity="0.12"/><path d="M515.293,270.1c.641-1.5-1.148-6.117-3.039-6.149-3.05-.05-2.9,4.772-2.068,6.208C511.422,268.257,513.588,268.236,515.293,270.1Z" transform="translate(-480.429 -249.443)" opacity="0.12"/><path d="M402.088,288.345c-.248-.167-.441-.139-.537-.476a3.4,3.4,0,0,1-.039-.976,2.127,2.127,0,0,0-.48-1.505c-.38-.446-.96-.763-1.484-.357a1.131,1.131,0,0,0-.221,1.41c.067.127.229.022.21-.1-.078-.434.214-.989.722-.753a1.336,1.336,0,0,1,.584.87c.06.414,0,.844.042,1.261.053.543.549,1.478,1.217,1.02A.234.234,0,0,0,402.088,288.345Z" transform="translate(-396.406 -265.334)" fill="#d89878"/><path d="M455.188,277.438a2.277,2.277,0,0,1,2.509.154c.148.109-.035.366-.189.263a1.914,1.914,0,0,0-2.1-.073C455.205,277.947,454.979,277.6,455.188,277.438Z" transform="translate(-438.935 -259.463)" fill="#1e0000"/><path d="M517.7,275.332a2.162,2.162,0,0,1,2.385-.119c.151.086.006.348-.149.268a1.821,1.821,0,0,0-1.994.153C517.767,275.81,517.518,275.505,517.7,275.332Z" transform="translate(-486.486 -257.782)" fill="#1e0000"/><g transform="translate(13.975 17.805)"><path d="M516.568,283.539c.417.674.646,1.7-.471,2.192-1.316.575-4.29,1.035-4.652-1.207S515.518,281.843,516.568,283.539Z" transform="translate(-495.737 -281.361)" fill="#fff"/><path d="M453.136,286.727c.422.682,1.156,1.711.05,2.258-1.5.741-5.344,1.236-5.709-1.031S452.074,285.013,453.136,286.727Z" transform="translate(-447.093 -283.838)" fill="#fff"/><path d="M452.626,284.39a3.463,3.463,0,0,0-2.733-3.959c-3.318-.538-4.452,2.953-3.757,3.487.455-.677,1.271-2.444,3.62-2.217C451.841,281.9,452.091,283.277,452.626,284.39Z" transform="translate(-445.94 -279.74)" fill="#1e0000"/><path d="M510.78,281.3a3.135,3.135,0,0,1,2.366-3.524c2.836-.5,3.773,2.572,3.175,3.051a3.023,3.023,0,0,0-3.07-1.929C511.47,279.1,511.245,280.315,510.78,281.3Z" transform="translate(-495.192 -277.724)" fill="#1e0000"/></g><g transform="translate(25.807 21.316)"><path d="M495.421,295.167c.026-.072.116-.067.17-.039a5.634,5.634,0,0,0,1.109.6c.334.1,2.808.1,2.231-.99-.473-.9-.909-1.272-.787-2.334a.105.105,0,0,1,.01-.028,2.046,2.046,0,0,0,.179,1.084c.375.7,1.076.849,1.616,1.36.768.727.258,1.616-.5,2.277a3.388,3.388,0,0,1-.723.386C497.506,297.942,494.817,296.808,495.421,295.167Z" transform="translate(-495.334 -292.379)" fill="#d89878"/><path d="M499.17,298.19a1.441,1.441,0,0,1,1.15-.468,1.312,1.312,0,0,1,1.129.67.726.726,0,0,1,.019.073.5.5,0,0,1,.143.536c-.166.46-1.009.57-1.413.529a1.6,1.6,0,0,1-.93-.388A.722.722,0,0,1,499.17,298.19Z" transform="translate(-498.146 -296.442)" fill="#f3ceb5"/></g><path d="M513.165,258.358a.609.609,0,0,0-.661.672c.053.7.106,1.317.687,1.209a5.663,5.663,0,0,1,2.749.081c1.216.349.978-.672,1-.94a.67.67,0,0,0-.449-.752A8.436,8.436,0,0,0,513.165,258.358Z" transform="translate(-482.582 -245.163)" fill="#1e0000"/><path d="M447.5,259.18a.789.789,0,0,0-.592,1.062c.31.842.593,1.584,1.283,1.245a7.489,7.489,0,0,1,3.47-.879c1.644,0,.989-1.175.928-1.515a.856.856,0,0,0-.826-.767A11.158,11.158,0,0,0,447.5,259.18Z" transform="translate(-432.651 -245.163)" fill="#1e0000"/><g transform="translate(14.903 19.555)"><path d="M449.82,287.135a2.13,2.13,0,0,0,2.211,1.92,1.932,1.932,0,0,0,1.865-2.1,2.129,2.129,0,0,0-2.21-1.919A1.934,1.934,0,0,0,449.82,287.135Z" transform="translate(-449.813 -285.029)" fill="#55969a"/><path d="M449.82,287.135a2.13,2.13,0,0,0,2.211,1.92,1.932,1.932,0,0,0,1.865-2.1,2.129,2.129,0,0,0-2.21-1.919A1.934,1.934,0,0,0,449.82,287.135Z" transform="translate(-449.813 -285.029)" fill="#1e0000"/><path d="M451.873,288.938a1.628,1.628,0,0,0,1.688,1.466,1.475,1.475,0,0,0,1.424-1.606,1.627,1.627,0,0,0-1.687-1.465A1.576,1.576,0,0,0,451.873,288.938Z" transform="translate(-451.376 -286.779)" fill="#412618"/><path d="M452.939,289.629a1.285,1.285,0,0,0,1.332,1.158,1.165,1.165,0,0,0,1.125-1.27,1.284,1.284,0,0,0-1.334-1.156A1.164,1.164,0,0,0,452.939,289.629Z" transform="translate(-452.187 -287.561)" fill="#111110"/><path d="M459.379,289.137a.72.72,0,0,0,.767.548.561.561,0,0,0,.49-.694.715.715,0,0,0-.764-.548A.562.562,0,0,0,459.379,289.137Z" transform="translate(-457.076 -287.622)" fill="#fff"/><path d="M461.4,294.709a.339.339,0,0,0,.364.26.265.265,0,0,0,.234-.33.341.341,0,0,0-.364-.261A.268.268,0,0,0,461.4,294.709Z" transform="translate(-458.619 -292.137)" fill="#fff"/></g><g transform="translate(29.943 18.8)"><path d="M512.606,283.878a1.939,1.939,0,0,0,1.963,1.825,1.8,1.8,0,0,0,1.656-2,1.938,1.938,0,0,0-1.963-1.824A1.8,1.8,0,0,0,512.606,283.878Z" transform="translate(-512.6 -281.876)" fill="#55969a"/><path d="M512.606,283.878a1.939,1.939,0,0,0,1.963,1.825,1.8,1.8,0,0,0,1.656-2,1.938,1.938,0,0,0-1.963-1.824A1.8,1.8,0,0,0,512.606,283.878Z" transform="translate(-512.6 -281.876)" fill="#1e0000"/><path d="M514.429,285.591a1.482,1.482,0,0,0,1.5,1.393,1.372,1.372,0,0,0,1.265-1.527,1.385,1.385,0,1,0-2.763.134Z" transform="translate(-513.988 -283.539)" fill="#412618"/><path d="M515.375,286.248a1.17,1.17,0,0,0,1.183,1.1,1.083,1.083,0,0,0,1-1.207,1.169,1.169,0,0,0-1.185-1.1A1.082,1.082,0,0,0,515.375,286.248Z" transform="translate(-514.707 -284.283)" fill="#111110"/><path d="M521.095,285.781a.644.644,0,0,0,.681.52.53.53,0,0,0,.435-.659.641.641,0,0,0-.679-.521A.531.531,0,0,0,521.095,285.781Z" transform="translate(-519.05 -284.341)" fill="#fff"/><path d="M522.889,291.075a.3.3,0,0,0,.323.247.251.251,0,0,0,.208-.314.306.306,0,0,0-.323-.248A.253.253,0,0,0,522.889,291.075Z" transform="translate(-520.42 -288.631)" fill="#fff"/></g><path d="M478.174,316.592c-1.961.115-4.8-.044-6.18-2.078-.12-.177-.229-.242-.357-.217l0,0s-.007,0-.011,0l-.027.008c-.286.026-.4.386-.376.619.127,1.051,1.582,1.778,2.473,2.123a5.3,5.3,0,0,0,4.589-.3C478.408,316.672,478.251,316.587,478.174,316.592Z" transform="translate(-451.19 -287.726)" fill="#d89878"/></g><path d="M503.019,431.155s-7.977,15.5-8.376,16.628a3.968,3.968,0,0,1-1.357,1.775s-17.933,4.746-20.236,5.1-1.582-1.335-1.582-1.335,7.639-16.8,8.3-18.323a3.3,3.3,0,0,1,2.634-1.67l19.622-3.862S504,429.249,503.019,431.155Z" transform="translate(-112.208 -187.33)" fill="#d7d6d7" fill-rule="evenodd"/><path d="M505.548,434.37s-7.977,15.5-8.376,16.628a3.968,3.968,0,0,1-1.357,1.775s-17.932,4.746-20.236,5.1a3.053,3.053,0,0,1-.893.028,1.535,1.535,0,0,1,.093-.35s7.639-16.8,8.3-18.324a3.3,3.3,0,0,1,2.634-1.67l19.621-3.862a2.065,2.065,0,0,1,.464.012A2.54,2.54,0,0,1,505.548,434.37Z" transform="translate(-114.737 -190.545)" fill="#b0afad" fill-rule="evenodd"/><path d="M491.732,477.217c-.256-1.2-1.278-1.883-2.458-3.47s-.893-1.786-.893-1.786-1.4-.339-1.253,1.454-.079,1.95-.079,1.95l-3.117-.849.494-1.208s-2.217-.018-2.471,1.2.04,1.427.04,1.427a1.461,1.461,0,0,0-.567,1.147,2.659,2.659,0,0,0,.3,1.333,2.232,2.232,0,0,0-.6,1.524c-.065,1.063,2.637,2.192,4.948,2.473a11.162,11.162,0,0,0,4.421-.44Z" transform="translate(-119.637 -219.63)" fill="#ffbe9d" fill-rule="evenodd"/><path d="M518.61,472.977a50.47,50.47,0,0,1-1.732,5.284,1.518,1.518,0,0,0,.119.542c.385.612,20.74,7.147,19.173-2.591a81.338,81.338,0,0,0-2.289-9.07l-3.136,6.2-10.971-.463S518.8,472.787,518.61,472.977Z" transform="translate(-146.822 -215.985)" fill="#e2e2e1" fill-rule="evenodd"/><path d="M344.869,389.707c.592,3.513-.574,6.42-1.386,7.047-1.094.858-1.493,1.865-4.8,4.926s-6.805,3.813-9.163,3.154-3.795-3.661-2.643-4.989c.322-.381.72-1.813,1.326-2.23,2.161-1.471,3.634-1.706,6.653-4.925,3.858-4.112,4.855-6.408,7.064-6.389A4.987,4.987,0,0,1,344.869,389.707Z" transform="translate(-2.029 -154.508)" fill="#eeeeed"/><g transform="translate(323.807 241.907)"><g transform="translate(18.175 1.877)"><path d="M412.586,447.251a1.441,1.441,0,0,1-.024.225c-.008.056-.016.129-.032.2a20.536,20.536,0,0,1-.885,3.138.472.472,0,0,1-.346.2.746.746,0,0,1-.233.008.491.491,0,0,1-.467-.434c-.056-.547.145-2.679.169-3.066a9.759,9.759,0,0,0-.692-1.971c-.04-.1-.081-.193-.113-.274-.081-.185-.137-.306-.137-.306h-.008c-.073.032-.588.25-1.247.483l-.008.008a7.636,7.636,0,0,1-2.953.611,1.018,1.018,0,0,1-.29-.113,6.906,6.906,0,0,1-2.615-4.433c-.459-.113-1.392-.137-2.076-.266a2.132,2.132,0,0,1-.676-.225.417.417,0,0,1-.145-.177,2.645,2.645,0,0,1-.1-.467,5.284,5.284,0,0,1,.29-2.2c.314-.965.845-1.762,1.32-1.827a.366.366,0,0,1,.088-.008,20.656,20.656,0,0,1,2.671.378.414.414,0,0,0,.1.016,8.274,8.274,0,0,1,1.561.475c1.022.474,5.6,5.5,5.954,6.566.008.016.016.048.032.089A34.4,34.4,0,0,1,412.586,447.251Z" transform="translate(-399.68 -436.364)" fill="#ffbe9d"/><path d="M413.768,443.887c-.158-.114-.712.262-1.533.967l-1.621.6-.008.008-2.9.378-.346.121a6.906,6.906,0,0,1-2.615-4.433c-.459-.113-1.392-.137-2.076-.266l-.306-.523.99-4.369a.365.365,0,0,1,.088-.008,20.655,20.655,0,0,1,2.671.378.414.414,0,0,0,.1.016,8.273,8.273,0,0,1,1.561.475c1.022.474,5.6,5.5,5.954,6.566C413.744,443.815,413.752,443.847,413.768,443.887Z" transform="translate(-401.723 -436.364)" fill="#ffbe9d"/><g transform="translate(7.975 8.312)"><path d="M433.628,471.316s.009.054.028.153a23.19,23.19,0,0,1,.411,3.5c-.094.713-1.093,2.515-1.1,3.282a.745.745,0,0,0,.229.594c.018.009.027.027.045.027l.009.009a.627.627,0,0,0,.695,0,19.251,19.251,0,0,0,1.872-3.4.146.146,0,0,0,0-.063c.059-.65-.217-4.121-.217-4.121C435.21,470.9,434.276,471.088,433.628,471.316Z" transform="translate(-432.971 -471.064)" fill="#ffbe9d"/></g><g transform="translate(5.941 8.553)"><path d="M425.569,472.521s.3,2.9.247,3.257-1.177,2.379-1.322,2.884a.578.578,0,0,0,.234.569c.243.2.586.281.73.119a27.8,27.8,0,0,0,2.017-3.1.464.464,0,0,0,.045-.108,35.33,35.33,0,0,0-.349-4.063A2.2,2.2,0,0,0,425.569,472.521Z" transform="translate(-424.481 -472.068)" fill="#ffbe9d"/></g><g transform="translate(4.924 8.921)"><path d="M422.5,476.843a1.792,1.792,0,0,1-.064.193,16.413,16.413,0,0,1-1.239,2.349.462.462,0,0,1-.612.08.656.656,0,0,1-.354-.555,10.011,10.011,0,0,1,.7-2.261L420.694,474c.008,0,.008-.008.008-.016.113-.056.217-.113.33-.161a1.641,1.641,0,0,1,1.312-.137S422.561,476.513,422.5,476.843Z" transform="translate(-420.235 -473.607)" fill="#ffbe9d"/></g></g><path d="M344.316,434.942a7.8,7.8,0,0,0,0,1.939c-8.435.241-11.8,2.446-16.6,1.11-3.247-.909-4.213-2.921-3.831-4.852a6.105,6.105,0,0,1,5.691-4.61c4.916-.072,11.622,1.448,17.132,2.124A7.556,7.556,0,0,0,344.316,434.942Z" transform="translate(-323.807 -428.527)" fill="#eeeeed"/></g><g transform="translate(340.895 183.122)"><path d="M430.47,196.96a13.943,13.943,0,0,0-2.643-6.722c-4.605-6.648-11.742-6.6-14.141-6.9-5.378-.657-11.4.317-11.433.918-.016.281,1.165.564,2.216.765a9.951,9.951,0,0,0-3.064,1.127c-3.132,1.8-4.195,4.868-4.853,6.765-2.418,6.969-1.162,9.688-.381,12.029.465.122,1.663-.56,2.87,2.526a12.774,12.774,0,0,1,1.041,3.643c.6.131,1.527.762,2.125.892-.147-1.976-.219-4.078-.185-6.294.079-5.1,2.891-3.456,3.725-7.4-.3-.995-1.594-5.95-.377-7.007.879-.765,2.466-.892,3.85-.831,6.495.289,9.4,3.641,12.872,3.433.514-.031.916-.866,1.334-1.654a5.324,5.324,0,0,0,.614-2.76c1.032.78,2.544,1.29,3.718,2.547C428.863,193.229,429.8,195.951,430.47,196.96Z" transform="translate(-395.14 -183.122)" fill="#211105"/><g transform="translate(2.693 20.397)"><path d="M413.291,279.569l-6.863-.186s.059.14-.043-.637l6.876-1.175Z" transform="translate(-406.384 -275.344)" fill="url(#c)"/><path d="M433.484,272.661a.121.121,0,0,0,.114.066c.379-.019,1.024.645,1.269.936.271,2.463,2.438,3.715,6.108,3.528a13.039,13.039,0,0,0,1.7-.193c2.994-.345,4.658-1.776,4.948-4.251a6.319,6.319,0,0,1,2.145-.549,3.129,3.129,0,0,1,1.523.267,4.326,4.326,0,0,0,4.694,3.965,9.066,9.066,0,0,0,1.2.012c.082,0,.167-.009.254-.016,3.092-.237,4.755-1.732,4.685-4.211.22-.413.652-1.047.926-1.067a.12.12,0,0,0,.106-.087,3.914,3.914,0,0,0-.022-2.171.121.121,0,0,0-.092-.075,37.908,37.908,0,0,0-6.586-.522q-.152.008-.3.019c-2.3.177-3.828.636-4.539,1.367a17.412,17.412,0,0,1-2.176.24,19.62,19.62,0,0,1-2.316-.018c-.837-.769-2.783-1.081-5.789-.927a50.8,50.8,0,0,0-8.054,1.438.122.122,0,0,0-.085.082A3.359,3.359,0,0,0,433.484,272.661Zm9.1,3.722a12.747,12.747,0,0,1-1.637.185c-1.919.1-5.18-.164-5.462-3.028a7.649,7.649,0,0,1,.045-2.746c.2-.143,1.569-.981,5.846-1.2,4.817-.246,5.589.739,5.62,1.347,0,.055.01.128.018.217C447.12,272.314,447.454,275.827,442.579,276.383Zm14.574-.564a8.826,8.826,0,0,1-1.15-.012c-4.1.009-4.239-3.517-4.286-4.676,0-.089-.007-.162-.011-.217-.047-.608.476-1.674,4.5-1.982q.315-.025.607-.039c3.1-.159,4.2.44,4.382.552a9.113,9.113,0,0,1,.366,2.738C461.671,275.146,458.847,275.733,457.153,275.82Z" transform="translate(-426.71 -268.273)" fill="url(#d)"/></g></g></g></g><g transform="translate(-912.5)"><rect width="105" height="80" transform="translate(1122 538)" fill="#fff" opacity="0"/><g transform="translate(-834.372 339.379)"><path d="M2098.354,230.365c11.113-.176,17.834,8.126,17.26,24.637s-2.151,26.265-19.124,25.277c-12.174-.708-14.265-24.146-12.181-34.123S2092.709,230.456,2098.354,230.365Z" transform="translate(-87.289 -22.076)" fill="#180705"/><g transform="translate(1968.372 239.672)"><path d="M1972.83,366.636l-2.18-6.752a2.205,2.205,0,0,0-2.278.674l2.059,6.673Z" transform="translate(-1968.372 -359.797)" fill="#f3f3f8"/><path d="M1992.853,402.767a8.742,8.742,0,0,1,1.777,5.059c.151,2.992-1.786,5.756-3.728,4.938s-4.487-3.517-5.861-6.468-5.887-15.063-5.887-15.063a5.37,5.37,0,0,1-3.24-1.475c-1.233-1.342-2.773-8.14-2.773-8.14s1.48.225,3.157.554c-.511-1.1-.233-2.017.1-2.064.449-.064,1.443.922,2.24,1.361,1.332.733,3.05.989,3.342,1.274.853.834,1.344,3.4,2.359,5.226C1987.334,393.356,1992.853,402.767,1992.853,402.767Z" transform="translate(-1971.985 -375.181)" fill="#ffbe9d"/><path d="M1979.6,396.5a3.75,3.75,0,0,0,1.809-1.615,2.629,2.629,0,0,1-2.055-2.108c-.266-1.775.351-2.263-.816-3.139a7.742,7.742,0,0,1-1.855-2.08l-2.953-.5s.49,4.011.87,5.451A5.245,5.245,0,0,0,1979.6,396.5Z" transform="translate(-1972.429 -380.445)" fill="#ebaf90"/><g transform="translate(0.419 5.382)"><path d="M1973.762,382.453a7.889,7.889,0,0,0-2.913-.426c-.47.081-.793.315-.747,1.236a1.692,1.692,0,0,0,.8,1.205,1.389,1.389,0,0,0-.707,1.086,1.745,1.745,0,0,0,1.028,1.631,1.065,1.065,0,0,0-.3,1.038,1.866,1.866,0,0,0,1.152,1.136,1.631,1.631,0,0,0,.052,1.2,5.663,5.663,0,0,0,2.8,1.606c1.173.324,1.51-.734,1.245-1.261a2.533,2.533,0,0,0-.962-.986,1.221,1.221,0,0,0,.491-.994c-.036-.625-1.3-1.2-1.3-1.2s.928-.328.88-1.079-1.55-1.4-1.55-1.4a.848.848,0,0,0,.909-.54A3.635,3.635,0,0,1,1973.762,382.453Z" transform="translate(-1970.098 -381.991)" fill="#ebaf90"/><path d="M1973.4,392.1a10.072,10.072,0,0,1,2.834.776.819.819,0,0,0,.792-.356,2.006,2.006,0,0,1-1.1,0A7.769,7.769,0,0,0,1973.4,392.1Z" transform="translate(-1972.602 -389.624)" fill="#906656"/><path d="M1974.727,403.077a13.733,13.733,0,0,1,3.184.538,1.5,1.5,0,0,0,.783-.633,1.691,1.691,0,0,1-1,.255C1977.065,403.219,1975.338,402.771,1974.727,403.077Z" transform="translate(-1973.605 -397.883)" fill="#906656"/><path d="M1978.225,412.046c.536-.2,2.635.405,3.14.558a1.344,1.344,0,0,0,.344-.394,1.686,1.686,0,0,1-.906.008C1980.176,412.1,1978.663,411.771,1978.225,412.046Z" transform="translate(-1976.254 -404.678)" fill="#906656"/></g></g><path d="M2029.533,403.966a6.264,6.264,0,0,1,.014,5.468c-1.434,2.789-10.166,19.061-12.607,22.031s-8.507,3.387-10.734.522-10.056-20.853-10.056-20.853a1.174,1.174,0,0,1,.394-.839,65.626,65.626,0,0,0,5.714-4.21c3.281,5.035,5.147,8.77,7.9,13.167,1.328,2.12,1.142,2.352,2.388.262l6.749-11.377S2025.325,403.015,2029.533,403.966Z" transform="translate(-21.043 -153.495)" fill="#e2e2e1" fill-rule="evenodd"/><g transform="translate(1994.647 244.499)"><path d="M2164.243,638.419c-.335-1.383-.758-3.332-1.169-5.444h12.289a25.681,25.681,0,0,0-.64,4.634c3.618,13.342,1.387,29.985,2.172,36.189.072.573,1.443,5.648,1.443,5.648l.737,1.633-.111.8-3.287.516-3.1-1.478a48.514,48.514,0,0,1-.536-6.05,7.837,7.837,0,0,1,.4-1.515l.262-.238C2170.03,661.635,2167.042,649.992,2164.243,638.419Z" transform="translate(-2142.137 -571.563)" fill="#ffbe9d" fill-rule="evenodd"/><path d="M2164.078,637.725c-.3-1.307-.658-2.971-1-4.75h12.289a34.542,34.542,0,0,0-.657,4.487A92.778,92.778,0,0,1,2164.078,637.725Z" transform="translate(-2142.137 -571.563)" fill="#ebaf90" fill-rule="evenodd"/><path d="M2092.123,638.883c-.153-1.487-.322-3.62-.456-5.908h11.205a27.592,27.592,0,0,0-1.294,5.525c3.1,11.134-1.279,24.221-1.575,33.381a2.749,2.749,0,0,0,.238.555l.328,2.454-5.607,6.817-2.659.211-3.04.474,1.337-1.208,2.164-.732s.794-.135,1.607-1.729c.475-.933.225-4.263.213-6.869C2094.534,661.075,2093.231,649.667,2092.123,638.883Z" transform="translate(-2086.224 -571.563)" fill="#ffbe9d" fill-rule="evenodd"/><path d="M2099.377,635.943c-.07-.927-.139-1.931-.2-2.968h11.205c-.5,1.719-.927,3.309-1.148,4.349C2105.366,636.963,2102,636.437,2099.377,635.943Z" transform="translate(-2093.735 -571.563)" fill="#ebaf90" fill-rule="evenodd"/><path d="M2091.369,490.488a166.906,166.906,0,0,0-3.561,32.287s-.026.4.7.512a87.215,87.215,0,0,0,32.452-.174.978.978,0,0,0,.679-.938c.1-.823-.525-4.269-.393-7.737s1.563-15.658-4.26-23.7S2091.369,490.488,2091.369,490.488Z" transform="translate(-2085.122 -461.059)" fill="#910683" fill-rule="evenodd"/><path d="M2135.281,800.637s.717.182.494,1.331-1.344,1.9-1.344,4.173v4.336s.032.489-.359.489h-.255c-.157,0-.3-.114-.3-.494v-4.83a4.408,4.408,0,0,0-.729-2.4C2132.422,802.981,2135.281,800.637,2135.281,800.637Z" transform="translate(-2119.169 -698.57)" fill="#393332" fill-rule="evenodd"/><path d="M2093.267,791.04a7.318,7.318,0,0,1,2.974,2.438.482.482,0,0,1-.278.579c-.409.234-3.09,2.1-3.613,3.312s-1.373,3.6-1.732,4.531a2.594,2.594,0,0,1-2.485,1.8h-7.027c-1.339,0-.882-.936.082-1.416s3.088-1.674,3.366-1.761.392-.006.392-.006-.3.111-.2.308.816.092,1.527.092a2.684,2.684,0,0,0,2.3-1.225c.54-.924,2.614-5.762,2.81-6.206S2092.933,792.092,2093.267,791.04Z" transform="translate(-2079.413 -691.3)" fill="#221613" fill-rule="evenodd"/><path d="M2203.378,805.3a10.475,10.475,0,0,0,.993,1.593,20.993,20.993,0,0,1,1.8,1.615c.2.32.579,1.305-.96,1.305H2199.7c-1.472,0-2.713-.32-2.729-1.272a43.78,43.78,0,0,0-.316-5.055c-.2-.73-.711-1.56-.464-2.279a9.166,9.166,0,0,1,1.224-2.09c.061-.051.156.472.156.472a2.114,2.114,0,0,0-.105.457c-.133,1.051.429,5.8.429,6.194s.6.653,1.688.863,3.342.4,4.186-.165a.237.237,0,0,0,.061-.291C2203.763,806.438,2203.378,805.3,2203.378,805.3Z" transform="translate(-2167.177 -697.413)" fill="#221613" fill-rule="evenodd"/><g transform="translate(0)"><path d="M2101.467,402.4s-4.4,4.894-4.868,5.582a25.664,25.664,0,0,0-2.747,5.288,7.017,7.017,0,0,0,1.177,4.865l.015,15.239c7.672,1.6,17.19,1.04,24.862,0l-1.256-6.37,6.361-23.3-9.347-2.3-6.237,1.216-2.53-1.282Z" transform="translate(-2089.622 -396.091)" fill="#6162c3" fill-rule="evenodd"/><path d="M2156.738,379.706h-8.768v7.367h3.484l5.284-1.558Z" transform="translate(-2130.696 -379.706)" fill="#eaa481" fill-rule="evenodd"/><path d="M2164.375,397.22l-6.36,3.12,3.016,3.053,4.219-4.887Z" transform="translate(-2138.305 -392.973)" fill="#404182" fill-rule="evenodd"/><path d="M2145.2,400.5l-2.463-3.069-1.208,1.175-.431,4.972Z" transform="translate(-2125.49 -393.131)" fill="#404182" fill-rule="evenodd"/><path d="M2174.949,404.523c-1.7-2.324-11.028-2.307-11.277-2.294a2.906,2.906,0,0,0-.789.315c-10.224,20.748-11.756,24.771-5.888,52.322,0,0,.106.619,1.312.887s14.312,1.463,14.312,1.463.745.215.533-.78-3.6-24.212-2.816-29.874a84.357,84.357,0,0,1,2.986-11.976C2174.151,412.177,2176.451,406.582,2174.949,404.523Z" transform="translate(-2134.947 -396.766)" fill="#e2e2e1" fill-rule="evenodd"/><path d="M2159.35,397.125a13.2,13.2,0,0,0,3.91.871c.425.084.892.182,1.381.289-4.3,4.382-5.449,12.4-7.9,16.037-2.232,1.123-1.673,1.137-1.673,1.137,2.25.639,1.082,1.788,1.082,1.788-.492,2.9-4.381,8.872-3.742,18.2-.226-.542-.557-2.416-.719-2.8-.839-3.62-.434-11.469,1.211-18.783C2155.326,406.986,2158.376,399.645,2159.35,397.125Z" transform="translate(-2133.194 -392.901)" fill="#eeeeed"/><path d="M2090.911,403.2s-4.859,10.592-5.285,11.56-.638,1.775-.142,3.925a3.076,3.076,0,0,1,.141,1.062c.018.793-.124,4.988-.124,4.988l-2.456,29.756a1.446,1.446,0,0,1-1.065,1.022c-.922.269-4.683,1.559-4.683,1.559s-.568.108-.568-.431,4.586-29.594,4.586-29.594l.461-6.964c-1.535-4.456-3.159-5.653.178-9.867.523-.66,1.245-1.622,1.961-2.592,2.1-2.837.679-3.518,2.981-4.078l3.573-.495A.46.46,0,0,1,2090.911,403.2Z" transform="translate(-2076.731 -397.38)" fill="#eeeeed" fill-rule="evenodd"/><path d="M2105.2,418.887c.019.794-.125,4.99-.125,4.99l-1.268,15.462-.411-19.815,1.354-1.234H2103a6.575,6.575,0,0,1-.44-2.224c0-1,4.148-10.8,5.329-13.573l2.157-.3a.459.459,0,0,1,.44.148s-4.86,10.592-5.286,11.563-.636,1.775-.139,3.923A3.031,3.031,0,0,1,2105.2,418.887Z" transform="translate(-2096.298 -396.731)" fill="#e2e2e1" fill-rule="evenodd"/><path d="M2146.143,425.454a.778.778,0,0,0-.753.675.589.589,0,0,0,.6.675.778.778,0,0,0,.753-.675A.589.589,0,0,0,2146.143,425.454Z" transform="translate(-2128.738 -414.361)" fill="#404182" fill-rule="evenodd"/><path d="M2134.979,454.728a.779.779,0,0,0-.753.675.59.59,0,0,0,.6.675.778.778,0,0,0,.752-.675A.589.589,0,0,0,2134.979,454.728Z" transform="translate(-2120.281 -436.537)" fill="#404182" fill-rule="evenodd"/><path d="M2131.964,507.1a.779.779,0,0,1-.753-.675.59.59,0,0,1,.6-.675.777.777,0,0,1,.752.675A.589.589,0,0,1,2131.964,507.1Z" transform="translate(-2117.998 -475.184)" fill="#404182" fill-rule="evenodd"/><g transform="translate(22.781 2.589)"><path d="M2188.177,398.928c.71,3.753-.333,8.96-1.552,12.621l-1.066-.318c1.744-4.884,3.112-13.016-1.314-19.19l.05-1.658C2186.315,392.2,2187.691,396.361,2188.177,398.928Z" transform="translate(-2180.956 -390.383)" fill="#060000"/><rect width="1.525" height="1.764" transform="translate(3.836 21.972) rotate(-73.338)" fill="#b9b7b7"/><path d="M2170.684,483.455a3.72,3.72,0,1,0,3.549-3.838A3.7,3.7,0,0,0,2170.684,483.455Z" transform="translate(-2170.681 -457.976)" fill="#b9b7b7"/><path d="M2174.332,483.46a3.092,3.092,0,1,0,2.95-3.19A3.072,3.072,0,0,0,2174.332,483.46Z" transform="translate(-2173.444 -458.472)" fill="#fafafa"/><path d="M2178.984,486.593a1.96,1.96,0,1,0,1.87-2.023A1.948,1.948,0,0,0,2178.984,486.593Z" transform="translate(-2176.969 -461.73)" fill="url(#e)"/><path d="M2179.3,484.937a1.891,1.891,0,1,0,1.8-1.951A1.879,1.879,0,0,0,2179.3,484.937Z" transform="translate(-2177.211 -460.53)" fill="#b9b7b7"/><path d="M2180.6,484.465a1.665,1.665,0,1,0,1.589-1.719A1.656,1.656,0,0,0,2180.6,484.465Z" transform="translate(-2178.191 -460.348)" fill="#fafafa"/></g><g transform="translate(6.263 3.115)"><path d="M2130.72,392.554l-.1,1.182a8.509,8.509,0,0,0-4.437,5.725l-1.081-.057C2125.134,396.8,2128.365,393.865,2130.72,392.554Z" transform="translate(-2119.636 -392.554)" fill="#060000"/><path d="M2112.173,445.47l-.7-.114s-1.557,8.551,5,10.313l-.077-.542S2110.735,453.664,2112.173,445.47Z" transform="translate(-2109.191 -432.553)" fill="#7d7d7d"/><path d="M2112.025,443.048l.7.094s-.991,8.635-7.776,8.418l.231-.5S2111.024,451.306,2112.025,443.048Z" transform="translate(-2104.371 -430.804)" fill="#7d7d7d"/><path d="M2116.147,426.181l.385-2.764c.178-1.27.3-2.885-1.589-3.138-1.933-.256-2.205,1.315-2.383,2.586l-.385,2.762-1.091-.151.581-4.168a3.179,3.179,0,0,1,6.241.869l-.581,4.168Z" transform="translate(-2109.017 -412.571)" fill="#060000"/><path d="M2129.6,484.489a.579.579,0,0,0,.329.751l.583.229a.582.582,0,0,0,.752-.329h0a.581.581,0,0,0-.329-.752l-.584-.228a.579.579,0,0,0-.751.328Z" transform="translate(-2123.013 -461.918)" fill="#060000"/><path d="M2104.323,475.007a.579.579,0,0,0-.684-.451l-.614.125a.58.58,0,0,0-.452.685h0a.581.581,0,0,0,.685.452l.614-.126a.579.579,0,0,0,.451-.685Z" transform="translate(-2102.561 -454.663)" fill="#060000"/></g></g></g><g transform="translate(1997.607 209.96)"><path d="M2090.014,299.555c-1.024-1.326-1.565-3.514-.478-6.315a2.885,2.885,0,0,1,2.664-1.676l4.071,1.094-1.148,9.012-3.743-1.006A2.884,2.884,0,0,1,2090.014,299.555Z" transform="translate(-2088.939 -278.385)" fill="#906656"/><g transform="translate(2.187)"><path d="M2224.722,313.241c1.333-1.015,2.423-2.987,2.1-5.975a2.883,2.883,0,0,0-2.138-2.309h-4.215l-1.23,9h3.876A2.884,2.884,0,0,0,2224.722,313.241Z" transform="translate(-2189.831 -288.543)" fill="#906656"/><path d="M2126.357,266.647c-2.019,3.713-12.07,9.339-18.189,8.095-3.952-.808-7.42-4.607-9.08-7.879-.177-.359-.34-.708-.474-1.048a19.8,19.8,0,0,1-.656-5.951c-.043-5.818.8-13.7,2.043-16.1,2.225-4.33,7.827-6.679,13.548-6.492,8.478.287,15.079,4.344,16.414,9.855S2127.95,263.724,2126.357,266.647Z" transform="translate(-2097.958 -237.262)" fill="#ffbe9d"/><path d="M2172.969,303.1c.765-1.486-.352-6.059-3.455-6.435s-2.919,5.206-2.173,6.734A3.421,3.421,0,0,1,2172.969,303.1Z" transform="translate(-2150.168 -282.247)" fill="#ebaf91"/><path d="M2110.309,301.522c-.624-1.46,1.118-5.958,2.96-5.988,2.97-.049,2.824,4.647,2.014,6.046C2114.08,299.73,2111.969,299.709,2110.309,301.522Z" transform="translate(-2107.216 -281.404)" fill="#ebaf91"/><path d="M2227.558,319.048c.241-.162.43-.135.522-.463a3.31,3.31,0,0,0,.038-.95,2.069,2.069,0,0,1,.467-1.466c.37-.434.935-.743,1.445-.348a1.1,1.1,0,0,1,.215,1.374c-.065.124-.223.021-.2-.094.075-.423-.209-.963-.7-.733a1.3,1.3,0,0,0-.569.847c-.058.4,0,.822-.04,1.228-.052.528-.535,1.439-1.185.993A.228.228,0,0,1,2227.558,319.048Z" transform="translate(-2196.044 -296.634)" fill="#7b4d23"/><path d="M2148.971,368.84c.209-.116-.354-.78-1.02-.76s-1.349.373-1.135.592.7.074,1.111.089S2148.68,369,2148.971,368.84Z" transform="translate(-2134.939 -336.359)" fill="#906656"/><path d="M2177.663,308.516a2.216,2.216,0,0,0-2.443.15c-.145.106.034.356.184.256a1.864,1.864,0,0,1,2.046-.071C2177.646,309.011,2177.866,308.672,2177.663,308.516Z" transform="translate(-2156.445 -291.008)" fill="#1e0000"/><path d="M2117.931,306.491a2.105,2.105,0,0,0-2.323-.115c-.148.084-.006.339.146.261a1.774,1.774,0,0,1,1.942.149C2117.863,306.957,2118.106,306.659,2117.931,306.491Z" transform="translate(-2111.281 -289.396)" fill="#1e0000"/><g transform="translate(2.815 18.459)"><path d="M2109.9,314.395c-.406.657-.629,1.659.459,2.135,1.281.56,4.178,1.008,4.531-1.176S2110.924,312.743,2109.9,314.395Z" transform="translate(-2109.568 -313.389)" fill="#fff"/><path d="M2168.423,317.461c-.411.664-1.126,1.666-.048,2.2,1.458.721,5.2,1.2,5.561-1S2169.457,315.792,2168.423,317.461Z" transform="translate(-2153.685 -315.763)" fill="#fff"/></g><g transform="translate(7.049 20.762)"><path d="M2131.808,325.6c-.025-.07-.113-.065-.166-.038a5.487,5.487,0,0,1-1.081.586c-.325.1-2.735.1-2.172-.964.461-.876.885-1.239.767-2.273a.112.112,0,0,0-.009-.027,1.992,1.992,0,0,1-.174,1.056c-.365.679-1.048.827-1.574,1.325-.748.708-.251,1.574.486,2.218a3.3,3.3,0,0,0,.7.376C2129.777,328.306,2132.4,327.2,2131.808,325.6Z" transform="translate(-2127.027 -322.888)" fill="#906656"/><path d="M2135.457,328.484a1.4,1.4,0,0,0-1.12-.455,1.276,1.276,0,0,0-1.1.653.686.686,0,0,0-.02.072.49.49,0,0,0-.139.522c.162.448.983.555,1.376.515a1.554,1.554,0,0,0,.906-.378A.7.7,0,0,0,2135.457,328.484Z" transform="translate(-2131.589 -326.782)" fill="#eecab2"/></g><path d="M2116.393,290.155a.593.593,0,0,1,.644.654c-.051.681-.1,1.282-.669,1.178a5.516,5.516,0,0,0-2.677.079c-1.184.34-.953-.654-.979-.916a.653.653,0,0,1,.438-.733A8.218,8.218,0,0,1,2116.393,290.155Z" transform="translate(-2109.13 -277.302)" fill="#1e0000"/><path d="M2175.077,290.955a.768.768,0,0,1,.577,1.035c-.3.82-.578,1.543-1.25,1.212a7.3,7.3,0,0,0-3.379-.856c-1.6,0-.964-1.144-.9-1.476a.834.834,0,0,1,.8-.747A10.862,10.862,0,0,1,2175.077,290.955Z" transform="translate(-2152.49 -277.302)" fill="#1e0000"/><g transform="translate(18.55 19.048)"><path d="M2178.435,317.867a2.075,2.075,0,0,1-2.153,1.87,1.882,1.882,0,0,1-1.816-2.05,2.073,2.073,0,0,1,2.152-1.869A1.883,1.883,0,0,1,2178.435,317.867Z" transform="translate(-2174.458 -315.816)" fill="#549094"/><path d="M2178.435,317.867a2.075,2.075,0,0,1-2.153,1.87,1.882,1.882,0,0,1-1.816-2.05,2.073,2.073,0,0,1,2.152-1.869A1.883,1.883,0,0,1,2178.435,317.867Z" transform="translate(-2174.458 -315.816)" fill="#1e0000"/><path d="M2179.411,319.6a1.585,1.585,0,0,1-1.644,1.427,1.436,1.436,0,0,1-1.387-1.564,1.585,1.585,0,0,1,1.643-1.427A1.536,1.536,0,0,1,2179.411,319.6Z" transform="translate(-2175.91 -317.493)" fill="#402417"/><path d="M2180.377,320.256a1.252,1.252,0,0,1-1.3,1.128,1.135,1.135,0,0,1-1.1-1.237,1.251,1.251,0,0,1,1.3-1.126A1.134,1.134,0,0,1,2180.377,320.256Z" transform="translate(-2177.125 -318.243)" fill="#10100e"/><path d="M2177.771,319.777a.7.7,0,0,1-.747.533.546.546,0,0,1-.478-.676.7.7,0,0,1,.744-.533A.548.548,0,0,1,2177.771,319.777Z" transform="translate(-2176.029 -318.302)" fill="#fff"/><path d="M2177.879,325.134a.331.331,0,0,1-.355.253.259.259,0,0,1-.228-.322.332.332,0,0,1,.354-.254A.261.261,0,0,1,2177.879,325.134Z" transform="translate(-2176.603 -322.629)" fill="#fff"/></g><g transform="translate(4.347 18.312)"><path d="M2119.419,314.732a1.889,1.889,0,0,1-1.912,1.777,1.75,1.75,0,0,1-1.613-1.948,1.887,1.887,0,0,1,1.912-1.776A1.751,1.751,0,0,1,2119.419,314.732Z" transform="translate(-2115.887 -312.782)" fill="#549094"/><path d="M2119.419,314.732a1.889,1.889,0,0,1-1.912,1.777,1.75,1.75,0,0,1-1.613-1.948,1.887,1.887,0,0,1,1.912-1.776A1.751,1.751,0,0,1,2119.419,314.732Z" transform="translate(-2115.887 -312.782)" fill="#1e0000"/><path d="M2120.286,316.375a1.443,1.443,0,0,1-1.46,1.357,1.336,1.336,0,0,1-1.231-1.487,1.349,1.349,0,1,1,2.691.13Z" transform="translate(-2117.177 -314.377)" fill="#402417"/><path d="M2121.144,317a1.14,1.14,0,0,1-1.152,1.072,1.056,1.056,0,0,1-.973-1.176,1.138,1.138,0,0,1,1.154-1.07A1.054,1.054,0,0,1,2121.144,317Z" transform="translate(-2118.256 -315.089)" fill="#10100e"/><path d="M2118.829,316.547a.628.628,0,0,1-.663.507.516.516,0,0,1-.425-.642.625.625,0,0,1,.661-.507A.517.517,0,0,1,2118.829,316.547Z" transform="translate(-2117.282 -315.145)" fill="#fff"/><path d="M2118.925,321.637a.3.3,0,0,1-.315.241.244.244,0,0,1-.2-.306.3.3,0,0,1,.315-.242A.247.247,0,0,1,2118.925,321.637Z" transform="translate(-2117.792 -319.256)" fill="#fff"/></g></g></g><path d="M2142.155,348.641a3.973,3.973,0,0,1-7.914-.088h.006a.664.664,0,0,1,.693-.615l6.529.07a.662.662,0,0,1,.68.633Z" transform="translate(-125.649 -111.141)" fill="#1e0000" fill-rule="evenodd"/><path d="M2146.352,358.921a4.256,4.256,0,0,1-4.573.2,2.478,2.478,0,0,1,2.277-1.307,2.561,2.561,0,0,1,2.3,1.1Z" transform="translate(-131.36 -118.626)" fill="#ba5448" fill-rule="evenodd"/><path d="M2136.749,347.961l6.131.064a1.244,1.244,0,0,1-.686,1.377c-.558.158-5,.006-5.31-.317a2.007,2.007,0,0,1-.135-1.125Z" transform="translate(-127.541 -111.159)" fill="#fff" fill-rule="evenodd"/><path d="M2175.173,336.393a3.681,3.681,0,1,0,3.807-3.55A3.681,3.681,0,0,0,2175.173,336.393Z" transform="translate(-156.654 -99.705)" fill="rgba(0,0,0,0.08)"/><path d="M2101.26,334.253a3.674,3.674,0,0,1-2.167,3.215c-.177-.359-.34-.708-.474-1.048a19.807,19.807,0,0,1-.655-5.951A3.675,3.675,0,0,1,2101.26,334.253Z" transform="translate(-98.169 -97.909)" fill="rgba(0,0,0,0.08)"/><path d="M2110.656,308.446a2.671,2.671,0,0,0-2.28.55c-.318-.2-.616-.457-.627-.73,0,0-.423.515.289,1.068a2.86,2.86,0,0,0-.3.432c-.361-.207-.742-.5-.754-.807,0,0-.514.627.552,1.241-.2.548-.187,1.05.024,1.218a2.944,2.944,0,0,1,2.99-1.879c1.734.191,1.954,1.378,2.407,2.34A3.054,3.054,0,0,0,2110.656,308.446Z" transform="translate(-104.911 -81.089)" fill="#1e0000"/><path d="M2174.1,310.75c-.012.317-.412.614-.781.822a3.275,3.275,0,0,0-.356-.385c.83-.576.376-1.13.376-1.13-.012.315-.406.609-.772.817a3.324,3.324,0,0,0-2.418-.452,3.373,3.373,0,0,0-2.662,3.856c.521-1.084.764-2.423,2.794-2.619,2.288-.221,3.083,1.5,3.526,2.159.308-.236.243-1.065-.216-1.852C2174.6,311.361,2174.1,310.75,2174.1,310.75Z" transform="translate(-150.767 -82.446)" fill="#1e0000"/><g transform="translate(1998.351 223.471)"><g transform="translate(14.7 0.498)"><path d="M2158.185,306.143c-.065,0-.13,0-.2,0a5.553,5.553,0,1,1,5.743-5.357h0A5.561,5.561,0,0,1,2158.185,306.143Zm0-10.561a5,5,0,1,0,.177,0C2158.3,295.583,2158.239,295.582,2158.181,295.582Z" transform="translate(-2152.63 -295.036)" fill="#1e0000"/></g><g transform="translate(0)"><path d="M2097.566,304.091q-.1,0-.2,0a5.553,5.553,0,1,1,5.743-5.356h0a5.552,5.552,0,0,1-5.544,5.36Zm-.008-10.561a5,5,0,1,0,.176,0Z" transform="translate(-2092.008 -292.984)" fill="#1e0000"/></g><g transform="translate(10.619 4.841)"><path d="M2140.028,314.216c-2.707-1.481-3.792-.21-3.8-.2l-.422-.346c.055-.068,1.387-1.633,4.487.064Z" transform="translate(-2135.803 -312.95)" fill="#1e0000"/></g><g transform="translate(25.244 4.756)"><path d="M2196.39,313.759a.273.273,0,0,1-.021-.545l7.713-.617a.276.276,0,0,1,.294.25.273.273,0,0,1-.25.294l-7.714.617Z" transform="translate(-2196.117 -312.598)" fill="#1e0000"/></g></g><path d="M2227.752,408.512a6.176,6.176,0,0,1,2.709,2.536c2.849,5.234,5.593,20.529,5.669,27.048.074,6.3-8.488,3.992-10.352-1.209-1.466-4.09-2.132-13.033-2.132-13.033S2219.848,410.988,2227.752,408.512Z" transform="translate(-192.685 -157.028)" fill="#eeeeed" fill-rule="evenodd"/><path d="M2236.01,443.983c.072.921.114,1.759.122,2.486.074,6.3-8.488,3.992-10.352-1.209-1.466-4.09-2.132-13.033-2.132-13.033s-2.384-8.076.557-12.662a15.714,15.714,0,0,0,.551,7.711c1.38,3.854,5.417,15.053,5.809,16.487C2230.761,444.48,2233.412,444.321,2236.01,443.983Z" transform="translate(-192.687 -165.401)" fill="#e2e2e1" fill-rule="evenodd"/><g transform="translate(1994.235 201.22)"><g transform="translate(0 0)"><path d="M2075.426,222.252c.98-10.146,6.132-18.627,10.04-17.451,4.306-5.763,20.852-4.87,28.417,4.87,6,7.725,3.311,19.81,3.274,27.4-.041,8.374,3.123,19.152-.834,22.063,2.084-2.482,1.08-7.931-.043-13.728-.783,6.622-1.542,13.885.428,16.3-2.5,0-10.318-1.449-11.087-6.282a25.964,25.964,0,0,1,.061-5.005c-1.054,4.62-1.491,7.6-.676,8.925-1.622-1.762-.265-13.138-.265-13.138.288-2.245,2.313-7.431,2.576-9.151.839-5.486,2.292-11.668-1.558-13.965-2.447-1.459-5.3-1.833-7.261-2.382a13.155,13.155,0,0,1-6.913-5.763c.548,4.626,2.373,5.357,5.086,6.25-5.273-.641-10.225-4.546-10.852-7.873-1.607,1.786-4.157,5-4.931,13.357a89.552,89.552,0,0,0-.1,12.131l.249-1.359c.766,3.124,1.894,16.69,4.966,19.7a15.444,15.444,0,0,1-3.951-6.141c.836,5.063,2.024,9.2,3.518,10.8-2.961-.7-7.093-7.173-8-10.512A85.321,85.321,0,0,1,2075.426,222.252Z" transform="translate(-2075.034 -201.22)"/><path d="M2120.713,432.266a2.523,2.523,0,0,1-.439-.357C2120.42,432.036,2120.567,432.156,2120.713,432.266Z" transform="translate(-2109.304 -375.972)"/><path d="M2148.521,247.3c.373-1.723,2.555-11.919,3.347-17.909s-.022-11.2-2.771-14.361c0,0,1.761,3.8,1.126,6.644-1.7-.93-6.208-4.131-6.208-4.131a39.774,39.774,0,0,0,4.373,4.175,36.9,36.9,0,0,1-7.072-1.972c-4.426-1.722-11.109-7.867-10.84-11.926.607,1.217,6.091,5.829,9.475,7.128-2.764-2.177-6.849-5.292-9.971-9.665.956,1.017,5.782,3.492,9.886,4.477-2-.649-7.127-3.026-8.438-4.932a21.146,21.146,0,0,1,11.251-.1c-5.913-2.763-11.633-1.7-13.809-.2.908-1.839,5.32-3.635,12.941-1.426,11.012,3.3,15.2,12.208,15.338,19.723s-2.694,19.544-3.439,28.247c-.414,5.393.391,9.4,2.5,10.272-4.181-1.075-4.664-8.823-3.848-13.994-1.724,8.512-2.387,10.41-1.118,12.268C2147.439,257.026,2147.494,252.041,2148.521,247.3Z" transform="translate(-2115.817 -201.867)" fill="#211105"/><path d="M2121.938,232.648c-.919,2.227,1.176,7.551,6.481,9.508a11.863,11.863,0,0,1-3.653-9.957c-1.139-1.617-2.428.749-1.951,2.7C2121.838,233.273,2121.938,232.648,2121.938,232.648Z" transform="translate(-2110.406 -224.281)" fill="#211105"/><path d="M2085.658,221.389c-2.757,2.353-5.763,7.23-6.384,21.163s1.3,26.667,5.846,27.883c0,0-3.279-10.613-2.644-14.749,0,0,2.333,7.256,4.242,9-.326-1.59-4.742-19.567-.251-37.207-.1,0-3.9,7.792-4.092,14.247,0,0,.435-16.169,6.91-19.469-1.463-.742-5.513,3.062-7.351,10.066,1.085-6.495,5-12.942,9.3-11.133C2089.79,219.411,2087.357,220.106,2085.658,221.389Z" transform="translate(-2078.16 -215.535)" fill="#211105"/></g></g><g transform="translate(1994.432 204.096)"><g transform="translate(0 11.343)"><path d="M2119.746,265.986c.1,1.748-10.167,2.518-22.458,1.729s-20.168-2.454-20.056-4.2l-.117-3.655c.9.93,8.19,2.265,20.481,3.055s20.708.532,20.82-1.212A7.562,7.562,0,0,1,2119.746,265.986Z" transform="translate(-2076.807 -259.862)" fill="#060000"/><path d="M2096.461,264.98c11.26.723,19.926.509,21.783-.878l-.26-.58c-.751,1.554-9.106,1.879-21.4,1.089s-19.609-2.121-20.74-3.52l.425.7C2078.365,263.358,2085.579,264.281,2096.461,264.98Z" transform="translate(-2075.846 -260.794)" fill="gray"/><path d="M2097.485,272.931c11.26.723,20.889.192,22.326-1.222l-.005-.433c-.734,1.268-9.9,2.076-22.2,1.287s-18.833-2.859-20.217-4.011l.019.577C2079.505,270.7,2086.6,272.232,2097.485,272.931Z" transform="translate(-2077.017 -266.445)" fill="gray"/></g><g transform="translate(6.405)"><path d="M2117.675,221.291a7.715,7.715,0,1,1-7.205-8.194A7.715,7.715,0,0,1,2117.675,221.291Z" transform="translate(-2102.26 -213.081)" fill="url(#f)"/><path d="M2119.147,223.863a7.01,7.01,0,1,1-6.547-7.445A7.01,7.01,0,0,1,2119.147,223.863Z" transform="translate(-2104.442 -215.597)" fill="#fff"/><path d="M2136.611,250.652" transform="translate(-2128.282 -241.542)" fill="none" stroke="#d32463" stroke-width="0.43"/><path d="M2132.412,242.182a1.282,1.282,0,1,1-1.2-1.361A1.282,1.282,0,0,1,2132.412,242.182Z" transform="translate(-2123.16 -234.092)" fill="#8393a1"/><path d="M2127.83,236.652a2.367,2.367,0,1,0,2.211,2.514A2.367,2.367,0,0,0,2127.83,236.652Zm-.281,4.374a2.016,2.016,0,1,1,2.142-1.883A2.016,2.016,0,0,1,2127.549,241.026Z" transform="translate(-2119.722 -230.933)" fill="#8393a1"/></g></g><g transform="translate(2018.908 256.299)"><path d="M2199.8,428.368a7.834,7.834,0,0,0-7.564,4.714s-1.475-4.714-8.05-4.714c-5.46,0-7.4,3.988-7.4,7.975,0,8.76,9.627,11.716,15.086,17.544,5.583-5.892,15.323-9.258,15.323-17.544C2207.2,432.356,2205.25,428.416,2199.8,428.368Z" transform="translate(-2176.787 -428.367)" fill="#ca1c1d" fill-rule="evenodd"/><path d="M2179.261,452.308a1.262,1.262,0,0,1,.132-.013h3.348l1.769-2.729a.653.653,0,0,1,1.184.211h0l.873,3.851,1.892-8.446a.652.652,0,0,1,1.282.057h0l1.14,8.712.947-3.58a.652.652,0,0,1,1.272.047l.69,3.662.6-1.293a.655.655,0,0,1,.593-.38h3.713a1.375,1.375,0,1,1-.03,1.308H2195.4l-1.281,2.76h0a.653.653,0,0,1-1.234-.154l-.531-2.825-1.056,3.992h0a.652.652,0,0,1-1.277-.081l-1.093-8.349-1.713,7.653a.652.652,0,0,1-1.278.025l-1.172-5.163-1.095,1.689a.651.651,0,0,1-.573.341h-3.246Z" transform="translate(-2178.661 -440.718)" fill="#fafbfb"/></g><path d="M2248.244,502.688a2.88,2.88,0,0,1-1.776-.363,1.936,1.936,0,0,1-.926-1.775c-.04-.684-.054-1.12-.054-1.12a13,13,0,0,0-.938-1.694,18.552,18.552,0,0,1-1.637-1.282c-.214-.271-.141-.859.55-.8a3.7,3.7,0,0,1-.777-.548.936.936,0,0,1-.088-.893c.122-.174,1.127.022,1.127.022s-.719-.513-.821-.783a.953.953,0,0,1,.076-.818,17.957,17.957,0,0,1,3.512.884,4.457,4.457,0,0,1,1.4.627l1,.726a12.762,12.762,0,0,0-1.283-1.726c-.461-.425-1.781-1.49-1.989-1.8a1.214,1.214,0,0,1-.117-.911c.051-.129.218-.284.662-.064s1.716,1.074,2.868,1.778a3.243,3.243,0,0,1,1.621,1.81,21.19,21.19,0,0,1,1.042,3.011c.179.606-.587,2.1-1.135,3.193S2249.4,502.632,2248.244,502.688Z" transform="translate(-207.674 -218.954)" fill="#ffbe9d" fill-rule="evenodd"/><path d="M2248.289,502.688a2.879,2.879,0,0,1-1.775-.363,1.936,1.936,0,0,1-.926-1.775c-.041-.684-.054-1.12-.054-1.12a12.983,12.983,0,0,0-.938-1.694,18.582,18.582,0,0,1-1.637-1.282.527.527,0,0,1-.059-.534,8.463,8.463,0,0,0,1.344.787c1.554.79,2.4,1.666,2.428,2.84.022,1.067,1.49,2.576,3.61,1.28-.478.92-1.062,1.816-1.99,1.861Zm-4.925-7.035c1.051.229,3.865,1.342,3.865,1.342a6.018,6.018,0,0,0-1.293-.817c-.75-.39-2.51-.978-3.355-1.445a.791.791,0,0,0,.15.375,3.689,3.689,0,0,0,.777.548.944.944,0,0,0-.145,0Zm-.534-1.505a4.531,4.531,0,0,1,.94.089s-.718-.513-.821-.783a1.083,1.083,0,0,1-.047-.487c1.907,1.071,4.555,1.73,4.885,2.273.35.577.525.678.346.643a30.794,30.794,0,0,0-4.709-1.665c-.231-.02-.428-.046-.594-.07Zm4.935-.117c.544.387.964.7.964.7l.024.007-.814-.588c-.057-.041-.115-.08-.174-.116Zm1.1.714a.483.483,0,0,0,.289-.121c.22-.185-.192-1.009-1.313-2.058a12.885,12.885,0,0,1-1.886-2.293c-.25-.052-.357.063-.4.162a1.214,1.214,0,0,0,.117.911c.208.312,1.528,1.376,1.989,1.8A11.219,11.219,0,0,1,2248.862,494.744Z" transform="translate(-207.72 -218.953)" fill="#ebaf90" fill-rule="evenodd"/></g></g><rect width="176" height="176" transform="translate(139 538)" fill="#fff" opacity="0"/></g></g></svg>