<svg xmlns="http://www.w3.org/2000/svg" width="236" height="63.538" viewBox="0 0 236 63.538">
  <g id="logo" transform="translate(-139 -1566)">
    <g id="Rectangle_34506" data-name="Rectangle 34506" transform="translate(139 1566)" fill="#fff" stroke="#707070" stroke-width="1" opacity="0">
      <rect width="236" height="63.538" stroke="none"/>
      <rect x="0.5" y="0.5" width="235" height="62.538" fill="none"/>
    </g>
    <g id="logo_n" transform="translate(139 1571.986)">
      <g id="Group_97064" data-name="Group 97064" transform="translate(0 0)">
        <g id="Group_97076" data-name="Group 97076" transform="translate(0.268 0.281)">
          <circle id="Ellipse_200" data-name="Ellipse 200" cx="25.42" cy="25.42" r="25.42" fill="#ffbc00"/>
        </g>
        <path id="Union_12" data-name="Union 12" d="M20.944,47.929c-.042,0-.061-.013-.062-.042l-.032-1.951-.562.009c-.03,0-.046-.016-.046-.05v-.1a.043.043,0,0,1,.045-.05l1.337-.021c.031,0,.046.016.046.051v.1c0,.035-.015.052-.045.052l-.5.008.032,1.951c0,.028-.02.042-.06.043Zm.943-.021c-.041,0-.061-.012-.061-.042L21.8,46.513c0-.036.019-.055.06-.055v.007l1.809-.029c.04,0,.061.012.062.038l.022,1.368c0,.028-.021.042-.06.042h-.152c-.041,0-.061-.012-.061-.042v-.129l-1.384.023v.129c0,.027-.019.042-.06.042Zm.2-.7.006.335.563-.009-.006-.335Zm.837-.014.005.336.547-.01-.005-.335Zm-.843-.517,0,.322.564-.009-.005-.322Zm.834-.014.005.322.547-.008,0-.322Zm-2.646.931a2.562,2.562,0,0,0,.1-.427q.029-.314.027-.941c0-.022.009-.033.029-.033v0l.278.051c.028.01.042.023.042.038a.042.042,0,0,1-.033.042.126.126,0,0,0-.071.112,6.429,6.429,0,0,1-.02.817q-.039.217-.081.386c0,.02-.015.029-.045.03C20.347,47.629,20.27,47.6,20.27,47.591Zm-2.46.021-3.3-.694a.042.042,0,0,1-.038-.045.033.033,0,0,1,0-.012l.026-.127a.038.038,0,0,1,.053-.032l1.607.342.18-.855-1.16-.244a.042.042,0,0,1-.038-.045.026.026,0,0,1,0-.011l.02-.1a.042.042,0,0,1,.043-.04h.012l1.16.244.152-.72-1-.21c-.074.092-.149.178-.225.256a1.854,1.854,0,0,1-.275.216.259.259,0,0,1-.085-.031c-.048-.03-.1-.057-.145-.085-.015-.012-.023-.02-.021-.027a.036.036,0,0,1,.021-.028A1.752,1.752,0,0,0,15.21,45a2.189,2.189,0,0,0,.215-.282,3.175,3.175,0,0,0,.226-.414c.022-.014.03-.022.042-.018l.256.136c.024.022.035.041.032.053a.05.05,0,0,1-.056.042.052.052,0,0,0-.065.032c-.074.125-.137.229-.19.312l.9.19.121-.572c.005-.025.028-.034.068-.026.189.04.28.073.276.1s-.022.044-.049.043-.042.016-.05.055l-.1.458,1.25.262c.03.007.042.021.037.045l-.028.129c-.008.034-.025.048-.055.042l-1.25-.262-.151.72,1.071.225a.041.041,0,0,1,.028.015.045.045,0,0,1,.009.031.025.025,0,0,1,0,.011l-.022.1c-.007.031-.025.045-.055.038l-1.071-.225-.181.855,1.428.3c.03.007.042.023.035.05l-.026.127c-.006.026-.019.04-.041.04Zm3.622-.125a10.931,10.931,0,0,1-.086-1.239c0-.038.019-.057.059-.057h.135c.042,0,.06.017.062.054a1.486,1.486,0,0,0-.039.359,2.734,2.734,0,0,0,.15.879c0,.015-.012.026-.037.032l-.22.021Zm5.686-.189-.356-1.323-.024.073a3.331,3.331,0,0,1-.185.427,2.568,2.568,0,0,1-.262.385.1.1,0,0,1-.071,0c-.056-.026-.113-.049-.171-.071a.085.085,0,0,1-.02-.028,2.038,2.038,0,0,0,.215-.272,2.294,2.294,0,0,0,.223-.428,4.621,4.621,0,0,0,.152-.519l-.8.214c-.03.008-.048-.005-.057-.038l-.027-.1c-.009-.034,0-.054.031-.062l.822-.221-.139-.513c-.042.018-.086.035-.125.051q-.256.095-.467.152A.082.082,0,0,1,25.77,45c-.048-.035-.1-.069-.145-.1-.005-.023.005-.038.035-.046l.22-.058a3.421,3.421,0,0,0,.451-.152,2.037,2.037,0,0,0,.336-.15,1.284,1.284,0,0,0,.309-.213A.071.071,0,0,1,27,44.264a.1.1,0,0,1,.067,0c.171.067.261.115.27.142s-.005.038-.035.046l-.117-.008a.333.333,0,0,0-.06.025,2.963,2.963,0,0,1-.342.2.573.573,0,0,1-.075.04l.151.559.7-.19c.029-.008.049.005.058.039l.026.1c.009.033,0,.054-.031.062l-.664.179a2.589,2.589,0,0,0,.3.269,2.1,2.1,0,0,0,.524.266c.024,0,.038.01.042.022s0,.02-.019.035a.868.868,0,0,1-.085.127.06.06,0,0,1-.033.035.186.186,0,0,1-.071,0,2.071,2.071,0,0,1-.455-.272c-.051-.04-.1-.082-.149-.128l.382,1.42c.006.023-.01.04-.05.05l-.147.04a.13.13,0,0,1-.032,0A.033.033,0,0,1,27.118,47.3Zm1.605-.472a.532.532,0,0,0-.115-.134c-.007-.025,0-.04.019-.045a1.532,1.532,0,0,0,.318-.045c.107-.028.151-.081.132-.156l-.61-2.271a1.387,1.387,0,0,0-.049-.154.367.367,0,0,1-.025-.063c-.008-.016.009-.033.048-.045h0l.328-.051c.038,0,.058.008.059.014.006.023-.008.04-.046.049-.049.033-.061.1-.036.187l.627,2.333c.045.172-.069.292-.342.364l-.264.071h-.006C28.746,46.881,28.733,46.863,28.723,46.826Zm-.536-.582-.462-1.722c-.007-.025.009-.043.05-.054h0c.187-.05.283-.062.29-.038a.045.045,0,0,1-.022.059c-.024.009-.031.032-.02.071l.432,1.611c.007.024-.009.042-.049.053l-.147.04a.136.136,0,0,1-.028,0A.039.039,0,0,1,28.187,46.244ZM21.952,46.2l-.011-.708c0-.025.019-.039.059-.039h0l1.52-.025c.042,0,.061.012.062.037l.012.708c0,.028-.02.042-.059.043l-1.52.025C21.974,46.245,21.953,46.232,21.952,46.2Zm.265-.542.005.375,1.094-.018-.005-.375Zm-10.756.273-.109-.053c-.014-.007-.012-.028,0-.062a.417.417,0,0,0,.022-.171l.005-.012a.692.692,0,0,0,.153.1c.118.057.193.052.226-.015l.684-1.411-.383-.185c-.028-.012-.034-.035-.018-.066l.045-.094a.042.042,0,0,1,.02-.025.043.043,0,0,1,.032,0h.008v.006l.864.418a.041.041,0,0,1,.026.052.049.049,0,0,1-.005.011l-.045.094c-.016.031-.037.041-.064.027l-.246-.119-.72,1.489a.19.19,0,0,1-.186.108A.774.774,0,0,1,11.461,45.935Zm20.588-.366-.55-.954c-.018-.031-.008-.055.027-.076v0l1.267-.73c.035-.021.058-.02.072,0l.556.965c.014.025,0,.047-.031.068l-.132.076c-.033.018-.056.016-.071-.008l-.077-.135-.9.521.078.135c.014.024,0,.047-.031.066l-.133.076a.085.085,0,0,1-.041.014A.036.036,0,0,1,32.049,45.568Zm-.232-.951.288.5.9-.519-.289-.5Zm-21.083.943-.141-.069a.039.039,0,0,1-.023-.057l.13-.268-.892-.427c-.018-.008-.019-.028,0-.06l.045-.093c.012-.023.026-.031.045-.021l.232.113.181-.373c.01-.02.029-.025.056-.012l.617.3.081-.167c.008-.015.025-.016.053,0,.165.079.241.132.231.155s-.028.035-.047.028-.037.005-.053.039l-.03.061.356.171a.032.032,0,0,1,.02.039v.008l-.046.1c-.015.029-.032.039-.052.029l-.359-.18-.114.233.411.2c.018.009.02.025.01.048l-.045.093c-.015.031-.031.042-.049.034l-.411-.2-.129.268a.035.035,0,0,1-.034.021A.092.092,0,0,1,10.734,45.561Zm-.373-.774.427.205.114-.234-.427-.206Zm10.052.463v-.1c0-.035.015-.052.045-.052l.987-.016c.031,0,.045.016.046.05v.1c0,.036-.015.055-.045.055l-.987.016C20.428,45.3,20.413,45.287,20.413,45.25Zm1.383-.062v-.1c0-.034.015-.051.045-.052h0L23.679,45c.031,0,.046.016.046.05v.1c0,.034-.015.051-.045.052l-1.839.03C21.811,45.237,21.8,45.221,21.8,45.187Zm-12.35-.252-.138-.067a.039.039,0,0,1-.023-.057l.572-1.18q-.128.038-.326.079a.126.126,0,0,1-.055-.059c-.022-.039-.044-.077-.067-.115A.045.045,0,0,1,9.4,43.49c.11-.023.222-.052.337-.086a1.749,1.749,0,0,0,.423-.175,1.483,1.483,0,0,0,.3-.217c.008-.021.016-.026.023-.022a1.133,1.133,0,0,1,.206.272.025.025,0,0,1-.012.015.028.028,0,0,1-.019,0h-.006a.11.11,0,0,0-.085,0,2.606,2.606,0,0,1-.36.221l-.69,1.424a.038.038,0,0,1-.035.021A.1.1,0,0,1,9.446,44.936Zm24.341-.372-1.394-2.418c-.013-.022,0-.044.033-.064l.923-.532a.191.191,0,0,1,.095-.032q.117,0,.129.025l-.008,1.074a.16.16,0,0,0,.013.053.09.09,0,0,0,.049.032,1.5,1.5,0,0,1,.49.195,1.076,1.076,0,0,1,.367.37.571.571,0,0,1,.08.3.432.432,0,0,1-.117.284.761.761,0,0,1-.274.225c-.056.034-.1.033-.115,0a.412.412,0,0,0-.148-.119c-.013-.022-.006-.042.021-.056l.171-.068a.321.321,0,0,0,.179-.208.282.282,0,0,0-.038-.218.953.953,0,0,0-.294-.3,1.832,1.832,0,0,0-.58-.224c-.027,0-.043-.006-.051-.019a.169.169,0,0,1-.013-.052l.036-1.035-.629.361,1.316,2.284c.014.025,0,.047-.035.068l-.132.076a.086.086,0,0,1-.042.013A.035.035,0,0,1,33.787,44.564Zm-22.219,0-1.04-.5c-.037-.019-.049-.039-.037-.065l.223-.462c.012-.025.036-.03.072-.011h0l1.04.5c.037.019.049.039.037.065l-.223.462a.036.036,0,0,1-.034.022A.094.094,0,0,1,11.568,44.566Zm-.784-.582.684.33.1-.208-.684-.33Zm20.342.432-.051-.086a.041.041,0,0,1,.006-.058l.009-.005,0,0,1.718-.989c.024-.014.045-.007.061.021l.052.089c.017.03.014.052-.01.066l-1.715.988a.052.052,0,0,1-.026.008A.048.048,0,0,1,31.126,44.416Zm.2-.584a1.863,1.863,0,0,0-.279-.189c-.009-.015.032-.085.125-.209h0a2.307,2.307,0,0,1,.29.191,1.348,1.348,0,0,1,.224.184A1.125,1.125,0,0,1,31.5,44,1.184,1.184,0,0,0,31.325,43.832Zm-19.275.074h-.008l-1.313-.636c-.019-.008-.022-.024-.012-.045l.046-.1c.012-.023.026-.03.044-.02l.356.171c.059-.074.122-.154.189-.242l-.332-.16c-.019-.009-.021-.025-.011-.049l.045-.092c.009-.024.024-.032.042-.023v0l.362.176a2.709,2.709,0,0,0,.167-.222.046.046,0,0,1,.052,0l.171.132c.027.021.034.042.023.066a.042.042,0,0,1-.053.024l-.011-.006a.063.063,0,0,0-.055.02c-.024.032-.046.064-.068.1l.482.234c.036.017.049.037.038.062l-.192.4.11.053c.02.009.025.026.013.049l-.046.1a.03.03,0,0,1-.028.021Zm-.681-.528h0l.4.193.131-.27-.342-.165C11.493,43.225,11.429,43.306,11.369,43.378Zm1.766.495-.629-.306c-.028-.012-.035-.035-.019-.066l.045-.095a.042.042,0,0,1,.052-.027h.008v0l.629.3a.041.041,0,0,1,.026.053.047.047,0,0,1-.005.011l-.045.093c-.011.022-.025.033-.041.033A.052.052,0,0,1,13.135,43.873Zm17.589-.312-.052-.089c-.017-.03-.015-.052.011-.066l.684-.4-.188-.325c-.012-.019,0-.042.035-.063.167-.1.257-.134.27-.111a.041.041,0,0,1-.009.061c-.021.015-.02.042,0,.078l.129.224.646-.372c.027-.015.049-.008.065.022l.052.089c.017.03.012.053-.014.068l-1.568.9a.049.049,0,0,1-.021.006C30.75,43.591,30.736,43.581,30.724,43.56Zm1.331,0a.035.035,0,0,1,0-.025,1.775,1.775,0,0,0,.013-.292,1.115,1.115,0,0,0-.041-.29.047.047,0,0,1,.007-.047h0l.236-.046c.039-.008.064,0,.075.016s0,.028-.013.045a.048.048,0,0,0-.023.059,1.993,1.993,0,0,1,.018.489c0,.03-.005.047-.014.052a.133.133,0,0,1-.067.013c-.052.007-.1.016-.156.026l-.024,0C32.059,43.568,32.055,43.567,32.055,43.565Zm-22-.81a1.041,1.041,0,0,0-.068-.12.042.042,0,0,1-.009-.043c.089-.014.178-.03.268-.048a1.352,1.352,0,0,0,.326-.114,1.1,1.1,0,0,0,.232-.145c.008-.012.015-.018.02-.018a1.146,1.146,0,0,1,.206.272.025.025,0,0,1-.03.017h-.006a.1.1,0,0,0-.085,0,1.567,1.567,0,0,1-.441.187,2.568,2.568,0,0,1-.358.067A.11.11,0,0,1,10.054,42.755Zm.769-.489h0Zm0,0h0ZM40.905,14.654a.935.935,0,0,1-.354-.409.9.9,0,0,1-.079-.67.832.832,0,0,1,.473-.5.821.821,0,0,1,1.129.268.879.879,0,0,1,.059.114.838.838,0,0,1,.059.637.855.855,0,0,1-.482.5l-.07.032-.607-1.239a.613.613,0,0,0-.309.348.542.542,0,0,0,.037.407.5.5,0,0,0,.529.29l.108.305a.732.732,0,0,1-.135.013A.709.709,0,0,1,40.905,14.654Zm.349-1.349.454.927a.536.536,0,0,0,.24-.256.551.551,0,0,0-.3-.679.5.5,0,0,0-.185-.036A.491.491,0,0,0,41.255,13.305ZM0,12.742l.272-.428,1.722.375.356.085c-.057-.072-.139-.176-.244-.316L1.06,11.073l.244-.384L3.277,11.94l-.171.274L1.455,11.167l1.252,1.675-.162.256L.47,12.658l1.679,1.065-.177.271Zm39.636-.275,1.467-.843.141.244L41.021,12a.74.74,0,0,1,.3.054.371.371,0,0,1,.151.147.654.654,0,0,1,.08.324l-.283.042a.487.487,0,0,0-.06-.229.329.329,0,0,0-.137-.132.284.284,0,0,0-.185-.028,1.028,1.028,0,0,0-.332.122l-.77.441Zm-.392-.644a.553.553,0,0,1,.136-.172,1.223,1.223,0,0,1-.336-.171,1.016,1.016,0,0,1-.248-.256.748.748,0,0,1-.149-.456.419.419,0,0,1,.2-.342.436.436,0,0,1,.256-.078.536.536,0,0,1,.27.085,1.455,1.455,0,0,1,.315.3,3.068,3.068,0,0,0,.4.41l.062-.039a.3.3,0,0,0,.156-.2.529.529,0,0,0-.115-.354.626.626,0,0,0-.238-.234.413.413,0,0,0-.3.01l-.14-.277a.608.608,0,0,1,.479,0,1.1,1.1,0,0,1,.428.406,1.056,1.056,0,0,1,.186.428.384.384,0,0,1-.052.287,1.086,1.086,0,0,1-.269.234l-.317.212a3.7,3.7,0,0,0-.409.3.6.6,0,0,0-.125.18Zm-.314-.928a.467.467,0,0,0,.094.269.708.708,0,0,0,.225.216.47.47,0,0,0,.256.072.61.61,0,0,0,.3-.12l.09-.059a2.467,2.467,0,0,1-.375-.364,1.253,1.253,0,0,0-.2-.2.274.274,0,0,0-.145-.049h0A.24.24,0,0,0,38.929,10.9ZM2.246,10.51l.185-.252,1.362,1-.185.252ZM2.8,9.756l.179-.219.185.153a.65.65,0,0,1,0-.325.8.8,0,0,1,.162-.306.85.85,0,0,1,.208-.185.6.6,0,0,1,.218-.085.428.428,0,0,1,.215.028,1.163,1.163,0,0,1,.292.192l.8.662-.2.242L4.069,9.26a.652.652,0,0,0-.238-.14.3.3,0,0,0-.187.018.449.449,0,0,0-.171.132.5.5,0,0,0-.131.357.575.575,0,0,0,.248.378l.713.587-.2.241Zm-1.073.371.185-.252.265.2-.185.251Zm36.226-.107,1.16-.9L38.944,8.9l.176-.137.171.219.143-.11a.632.632,0,0,1,.27-.139.362.362,0,0,1,.223.04.692.692,0,0,1,.216.193,1.671,1.671,0,0,1,.157.25l-.225.116a1.088,1.088,0,0,0-.1-.155.3.3,0,0,0-.167-.125.28.28,0,0,0-.2.081l-.124.1.222.286-.176.137L39.3,9.366l-1.16.9Zm-.6-.722,1.781-1.51.2.239-1.781,1.51ZM4.174,8.142l.212-.229L5.628,9.061l-.212.229Zm32.779.544a.935.935,0,0,1-.463-.279.9.9,0,0,1-.284-.611.833.833,0,0,1,.293-.624.821.821,0,0,1,1.157-.1A1.027,1.027,0,0,1,38,7.751a.857.857,0,0,1-.3.629l-.056.052-.964-.989a.618.618,0,0,0-.185.428.543.543,0,0,0,.163.374.493.493,0,0,0,.59.108l.2.257A.706.706,0,0,1,37.1,8.7.747.747,0,0,1,36.953,8.686Zm.631-.656a.534.534,0,0,0,.148-.319.514.514,0,0,0-.156-.385.519.519,0,0,0-.342-.165.5.5,0,0,0-.368.132l0,0ZM5.551,8.394l.192-.247a.379.379,0,0,0,.292.085.677.677,0,0,0,.47-.439.224.224,0,0,0-.053-.216.171.171,0,0,0-.177-.046,1.435,1.435,0,0,0-.3.153,2.788,2.788,0,0,1-.451.236.475.475,0,0,1-.247.02.384.384,0,0,1-.206-.114.416.416,0,0,1-.112-.381.851.851,0,0,1,.273-.453,1.089,1.089,0,0,1,.3-.212.483.483,0,0,1,.546.055l-.193.241q-.223-.171-.482.079a.6.6,0,0,0-.175.256A.18.18,0,0,0,5.27,7.6a.165.165,0,0,0,.172.04,1.968,1.968,0,0,0,.315-.163,3.167,3.167,0,0,1,.465-.243.442.442,0,0,1,.232-.016.4.4,0,0,1,.2.118.464.464,0,0,1,.125.427.929.929,0,0,1-.3.5.675.675,0,0,1-.932.138ZM3.7,7.7l.212-.229.242.225-.212.229ZM7.3,7.236A.965.965,0,0,1,7.049,7l-.631-.74-.172.149L6.1,6.242l.171-.148L6,5.774l.126-.333.383.45.241-.2.145.171-.241.205.641.752a.361.361,0,0,0,.136.118.17.17,0,0,0,.152-.054,1.176,1.176,0,0,0,.1-.1l.2.165a1.173,1.173,0,0,1-.162.171.585.585,0,0,1-.232.135.273.273,0,0,1-.079.012A.261.261,0,0,1,7.3,7.236Zm27.729-.249L35.7,5.254l.105-.266c-.082.065-.158.122-.228.171L34.051,6.227l-.271-.216.906-2.257.272.212-.637,1.446c-.064.149-.134.3-.209.443l.357-.27,1.355-.94.321.252L35.7,6.054a6.2,6.2,0,0,1-.352.774q.179-.149.413-.323L37,5.57l.268.209L35.281,7.188ZM7.084,5.421l.224-.171.157.2a.732.732,0,0,1,.013-.309A.373.373,0,0,1,7.6,4.974a.642.642,0,0,1,.311-.121l.078.275a.5.5,0,0,0-.218.085.339.339,0,0,0-.113.153.28.28,0,0,0,0,.188,1,1,0,0,0,.165.312l.539.7-.256.195Zm2.186.939a.7.7,0,0,0,.163-.077.379.379,0,0,0,.122-.115.252.252,0,0,0,.038-.137q0-.027-.051-.3L8.024,4.7l.282-.185.86.606a4.123,4.123,0,0,1,.326.256,3.481,3.481,0,0,1-.1-.392l-.212-1.04.262-.171L9.8,5.6a2.645,2.645,0,0,1,.062.493.491.491,0,0,1-.062.234.517.517,0,0,1-.165.167.712.712,0,0,1-.187.073ZM31.758,4.792l.1-.191a.557.557,0,0,1-.28.068.651.651,0,0,1-.286-.073.784.784,0,0,1-.4-.462.866.866,0,0,1,.082-.69,1.033,1.033,0,0,1,.315-.389.705.705,0,0,1,.387-.139.808.808,0,0,1,.4.092.683.683,0,0,1,.229.185.6.6,0,0,1,.119.252l.378-.747.28.142L32.02,4.925ZM31.6,3.224a.717.717,0,0,0-.349.363v.008a.685.685,0,0,0-.085.5.477.477,0,0,0,.243.3.464.464,0,0,0,.379.019.645.645,0,0,0,.342-.342.769.769,0,0,0,.1-.529.472.472,0,0,0-.256-.312.442.442,0,0,0-.375-.013ZM11.58,4.312a.844.844,0,0,1-.5-.493.845.845,0,0,1-.055-.7.973.973,0,0,1,1.124-.523.821.821,0,0,1,.5.479.877.877,0,0,1,.065.719.978.978,0,0,1-1.127.521Zm0-1.442a.511.511,0,0,0-.277.306.671.671,0,0,0,.061.507h0a.664.664,0,0,0,.349.374.534.534,0,0,0,.428-.02.515.515,0,0,0,.276-.306.825.825,0,0,0-.411-.883.536.536,0,0,0-.427.021ZM29.918,3.925l.367-.961a.649.649,0,0,0,.057-.269.29.29,0,0,0-.076-.171.449.449,0,0,0-.179-.119.5.5,0,0,0-.38-.01.572.572,0,0,0-.279.356l-.33.864L28.8,3.5l.6-1.58.263.1-.085.225a.639.639,0,0,1,.308-.107.8.8,0,0,1,.342.055.871.871,0,0,1,.241.139.578.578,0,0,1,.149.18.436.436,0,0,1,.042.213,1.2,1.2,0,0,1-.085.338l-.372.972ZM12.964,2.312l-.256.1L12.63,2.2l.256-.1-.062-.172a.635.635,0,0,1-.052-.3.362.362,0,0,1,.1-.2.689.689,0,0,1,.249-.149,1.656,1.656,0,0,1,.285-.075l.044.249a1.183,1.183,0,0,0-.179.05.3.3,0,0,0-.172.122.281.281,0,0,0,.017.217l.055.145.342-.127.078.208-.342.127.512,1.374-.289.113Zm15.114.967a.571.571,0,0,1,0-.219,1.223,1.223,0,0,1-.365.092,1.012,1.012,0,0,1-.356-.034.741.741,0,0,1-.41-.247.418.418,0,0,1-.073-.385.439.439,0,0,1,.145-.229.532.532,0,0,1,.256-.112,1.451,1.451,0,0,1,.436.02,2.98,2.98,0,0,0,.567.052l.02-.07a.3.3,0,0,0-.015-.256A.535.535,0,0,0,27.96,1.7a.633.633,0,0,0-.334-.021.412.412,0,0,0-.22.2l-.288-.118a.611.611,0,0,1,.362-.312,1.1,1.1,0,0,1,.588.032,1.043,1.043,0,0,1,.419.2.387.387,0,0,1,.149.251,1.116,1.116,0,0,1-.052.353l-.1.369a3.745,3.745,0,0,0-.114.493.606.606,0,0,0,.024.216Zm-.663-.892a.281.281,0,0,0-.143.057.239.239,0,0,0-.032.334.466.466,0,0,0,.247.143.711.711,0,0,0,.312.017.473.473,0,0,0,.243-.115.608.608,0,0,0,.15-.289l.027-.1A2.42,2.42,0,0,1,27.7,2.4a1.258,1.258,0,0,0-.215-.019ZM14.9.754l.329-.072.206.94,1.3-.284L16.525.4l.33-.072.5,2.282-.33.072L16.789,1.6l-1.3.283.235,1.076-.33.072ZM25.015,2.6l.141-1.062a.354.354,0,0,0-.234-.443.4.4,0,0,0-.1-.015.513.513,0,0,0-.36.076.553.553,0,0,0-.2.413l-.121.917-.311-.043L24.138.129l.309.042-.11.83a.728.728,0,0,1,.27-.14A.794.794,0,0,1,24.92.843a.708.708,0,0,1,.443.2.643.643,0,0,1,.1.534L25.324,2.64Zm-6.978-.272a.832.832,0,0,1-.31-.617.821.821,0,0,1,.639-.969.9.9,0,0,1,.128-.016.843.843,0,0,1,.619.162.854.854,0,0,1,.309.624l.006.076-1.374.145a.616.616,0,0,0,.221.409.541.541,0,0,0,.4.1.493.493,0,0,0,.451-.393h.325a.708.708,0,0,1-.247.437.937.937,0,0,1-.506.192.875.875,0,0,1-.135.01A.906.906,0,0,1,18.036,2.327ZM18.516.963a.528.528,0,0,0-.342.171.5.5,0,0,0-.125.367l1.025-.109a.537.537,0,0,0-.159-.312.513.513,0,0,0-.4-.116Zm4.791,1.465a.6.6,0,0,1-.256-.067.273.273,0,0,1-.128-.143.976.976,0,0,1-.014-.342l.069-.97L22.749.89l.015-.222.229.016.03-.418.324-.15-.042.589.316.022L23.606.95,23.29.928l-.07.987a.359.359,0,0,0,.015.178.172.172,0,0,0,.145.068,1.137,1.137,0,0,0,.135,0l.025.256a1.179,1.179,0,0,1-.164.011C23.353,2.43,23.33,2.43,23.306,2.429ZM20,2.243a.418.418,0,0,1-.178-.349.431.431,0,0,1,.076-.261.537.537,0,0,1,.217-.18,1.46,1.46,0,0,1,.423-.1,3.073,3.073,0,0,0,.559-.109V1.169a.309.309,0,0,0-.086-.242.539.539,0,0,0-.36-.095.625.625,0,0,0-.326.074.415.415,0,0,0-.155.256l-.309-.032a.609.609,0,0,1,.256-.4,1.1,1.1,0,0,1,.573-.135,1.051,1.051,0,0,1,.458.074.387.387,0,0,1,.213.2,1.087,1.087,0,0,1,.049.352l.007.382a3.586,3.586,0,0,0,.029.506.624.624,0,0,0,.085.2l-.326.006a.561.561,0,0,1-.068-.209,1.2,1.2,0,0,1-.323.19,1,1,0,0,1-.352.068l-.052,0A.736.736,0,0,1,20,2.243Zm.587-.659a1.193,1.193,0,0,0-.274.062.281.281,0,0,0-.121.095.238.238,0,0,0,.062.33.463.463,0,0,0,.277.068.7.7,0,0,0,.3-.071.477.477,0,0,0,.2-.178.611.611,0,0,0,.062-.319v-.1A2.5,2.5,0,0,1,20.591,1.584Zm1.369.748L22.046,0l.312.011-.085,2.333Z" transform="translate(4.361 2.035)" fill="#4e4d4d"/>
        <g id="Group_97062" data-name="Group 97062" transform="translate(5.34 5.366)">
          <path id="Path_212114" data-name="Path 212114" d="M46.759,26.492A20.275,20.275,0,1,1,26.483,6.218,20.276,20.276,0,0,1,46.759,26.492Z" transform="translate(-6.208 -6.218)" fill="#44b9e4"/>
        </g>
        <path id="Path_212120" data-name="Path 212120" d="M28.632,38.755a1.218,1.218,0,1,0-1.218,1.218,1.218,1.218,0,0,0,1.218-1.218Zm4.684-3.022a.121.121,0,0,0-.15-.191,8.237,8.237,0,0,0-.935.726,19.42,19.42,0,0,0-2-3.745,20.058,20.058,0,0,0-2.5-2.979q.729-.849,1.574-1.668a.121.121,0,0,0-.15-.191,14.442,14.442,0,0,0-1.831,1.472A14.421,14.421,0,0,0,25.5,27.685a.121.121,0,0,0-.15.191q.847.817,1.574,1.668a20.06,20.06,0,0,0-2.5,2.979,19.393,19.393,0,0,0-1.955,3.641,7.813,7.813,0,0,0-.815-.622.121.121,0,0,0-.15.191c.286.274.551.556.8.84a20.9,20.9,0,0,0-1,10.885.121.121,0,0,0,.241-.029,26.5,26.5,0,0,1,1.567-9.868,16.759,16.759,0,0,1,3.226,10.367.121.121,0,0,0,.241.029,12.505,12.505,0,0,0-3.252-10.979,25.112,25.112,0,0,1,4-6.951A25.118,25.118,0,0,1,31.374,37.1a12.492,12.492,0,0,0-3.139,10.853.121.121,0,1,0,.241-.029,16.782,16.782,0,0,1,3.115-10.221,26.452,26.452,0,0,1,1.515,9.721.121.121,0,0,0,.241.029A20.935,20.935,0,0,0,32.4,36.7q.431-.49.921-.965ZM21.833,32.758a1.905,1.905,0,1,0-1.906,1.906A1.905,1.905,0,0,0,21.833,32.758ZM10.693,27.685a.121.121,0,0,0-.15.191c8.584,8.277,7.765,19.441,7.756,19.553a.121.121,0,0,0,.241.029,20.2,20.2,0,0,0-3.115-14.934,18.5,18.5,0,0,0-4.733-4.838Zm25.949,5.073a1.892,1.892,0,1,0,0,.027Zm7.49-5.045a.122.122,0,0,0-.161-.028,18.5,18.5,0,0,0-4.733,4.838,20.189,20.189,0,0,0-3.115,14.934.121.121,0,0,0,.241-.029c-.009-.112-.824-11.278,7.756-19.553A.122.122,0,0,0,44.132,27.714Z" transform="translate(-1.491 -3.96)" fill="#ffbc00"/>
        <path id="Union_13" data-name="Union 13" d="M.027,26.834A25.672,25.672,0,1,1,25.68,51.354,25.675,25.675,0,0,1,.027,26.834Zm1.98-9.727A25.193,25.193,0,1,0,25.7.506h-.009A25.192,25.192,0,0,0,2.007,17.108Zm23.931,7.685a2.506,2.506,0,0,1-.275-.014c0-.331-.018-.777-.036-1.29-.191-.038-.395-.239-.652-.257a3.928,3.928,0,0,1-1.326-.965c-.107-.195-.214-.4-.31-.593-.566-1.883.618-2.4,2.217-2.73-.049-.525-.015-.975-.038-1.433-.231-.015-.466-.031-.692-.065a3.888,3.888,0,0,1-1.131-.479v-.038l-.052-.019a1.632,1.632,0,0,1-.408-2.152,4.75,4.75,0,0,1,1.967-1.1l.256-.195c-.019-.745-.019-1.475-.031-2.239l-.471-.008c-.99.229-1.8.587-2.661.085a3.14,3.14,0,0,0-.562-.049l.016-.058.4-.256a4.26,4.26,0,0,1-.576-.048l.007-.076c.545-.219.468-.141.655-.7.582-.93,2.229-.727,3.169-.684,0-.937,0-.937-.059-3.611l.052-.1c.129-.079.533-.162.581.086.041,2.5.041,2.5.029,3.5v.24c.99.252,2.382.829,2.741,1.958a3.715,3.715,0,0,1,.026.822A2.4,2.4,0,0,1,27.2,14.069c-.548.2-1.054.342-1.261.441.019.65.035,1.275.073,1.959.38.089.9.188,1.283.274a1.454,1.454,0,0,1,.847,2.127A2.624,2.624,0,0,1,26.179,19.9c-.039.833.062,1.761.085,2.64.226.2,1.126-.184,1.4-.276a3.411,3.411,0,0,0,.722-.791l.159-.059a1.881,1.881,0,0,1-.557,1.261,10.043,10.043,0,0,1-1.678.67,8.951,8.951,0,0,0-.059,1.429,2.318,2.318,0,0,1-.293.022Zm-1.89-4.124c-.3.884.465,1.619,1.314,1.858l.222.032c.028-1.049-.022-1.161-.062-2.6A1.924,1.924,0,0,0,24.047,20.669Zm2.036-3.149c0,.432-.031.922,0,1.38l.065.031a2.551,2.551,0,0,0,.751-.26.57.57,0,0,0,.107-.729h0a1.1,1.1,0,0,0-.87-.422Zm-1.051-2.753c-.584.259-1.187.5-.791,1.256l.042.018v.039h.01c.041,0,.054.009.247.148.176.054.429.127.669.181l.244.049,0,0c.01-1.264.021-1.415-.006-1.8Zm.914-3.51q-.034.979.015,1.957a4.414,4.414,0,0,0,1.01-.565l-.016-.035a.716.716,0,0,0,.248-.673,1.368,1.368,0,0,0-1.187-.686C25.993,11.255,25.969,11.255,25.946,11.257Zm-3.379-.846c-.112.156-.188.233.085.362a1.729,1.729,0,0,0,.342-.062l.1-.307c.172,0,.2,0,.336.167l.32-.139-.008-.136a1.259,1.259,0,0,0-.476-.093A1.273,1.273,0,0,0,22.566,10.41ZM31.61,24.432c-.96-.235-1.2-.785-1.588-1.555-.568-2.141-1.362-4.708-.972-6.854a2.881,2.881,0,0,1,2.2-2.081c.247-.08.513-.122.78-.185.917-.034,1.85.008,2.791.031.479.123,1.113.342.857,1.057a2.135,2.135,0,0,1-1.04.743c-1.22.229-2.617.022-3.659.479-.411.407-.42.295-.42.886a29.1,29.1,0,0,0,1.454,3.893c.142.513.285,1.027.446,1.539a2.193,2.193,0,0,1-.389,1.985,1.647,1.647,0,0,1-.45.062Zm-11.64-.279c-1.514-.518-.99-1.856-.706-3.008a12.105,12.105,0,0,0,1.018-4.22c-.45-1.254-1.782-1.06-2.809-1.1a3.658,3.658,0,0,1-2.244-.67,1.913,1.913,0,0,1-.392-1.561,15,15,0,0,1,4.4.387,1.568,1.568,0,0,0,.363.108,5.356,5.356,0,0,1,1.658,1.027c.129.17.259.358.392.529q.118.412.262.816c.042.573.042.573.052,1.145a32.358,32.358,0,0,1-.248,3.31,9.687,9.687,0,0,1-.775,2.884,1.168,1.168,0,0,1-.846.362A1.118,1.118,0,0,1,19.97,24.154ZM26.954,12.61l0,0h0Zm6.6-.023c-.478-.05-.9-.118-1.3-.188-.6-.354-.562-.374-.61-.984.136-1.131,1.2-1.244,2.177-1.278a3.787,3.787,0,0,1,1.96.676.892.892,0,0,1,.095,1.147,3.493,3.493,0,0,1-2.015.641C33.761,12.6,33.659,12.6,33.557,12.587ZM17.48,12.309a8.434,8.434,0,0,1-1.908-.217c-.551-.2-.863-.216-.951-.768.294-1.687,2.221-1.2,3.449-.954.621.257,1.5.721.95,1.551a2.533,2.533,0,0,1-1.356.395C17.6,12.316,17.542,12.313,17.48,12.309Z" transform="translate(0 0)" fill="#004187"/>
      </g>
      <path id="Union_14" data-name="Union 14" d="M42.407,36.365a2.373,2.373,0,0,1-.726-.126l-.118-.972a2.639,2.639,0,0,0,.639.095,1.4,1.4,0,0,0,.59-.109.938.938,0,0,0,.385-.336q.053-.081.445-1.026L41.108,27.8h1.214l1.384,3.507q.256.654.479,1.4a13.087,13.087,0,0,1,.456-1.379L46.056,27.8h1.13L44.663,34a9.463,9.463,0,0,1-.784,1.608,1.758,1.758,0,0,1-.65.582,1.841,1.841,0,0,1-.792.179ZM29.334,34.042q-2.394-.006-2.775-1.961l1.124-.152a1.356,1.356,0,0,0,.542.953,2.412,2.412,0,0,0,2.3.037.818.818,0,0,0,.4-.7.627.627,0,0,0-.342-.566,5.175,5.175,0,0,0-1.144-.342,10.136,10.136,0,0,1-1.759-.513,1.7,1.7,0,0,1-.689-.569,1.381,1.381,0,0,1-.245-.807,1.5,1.5,0,0,1,.665-1.268,3.07,3.07,0,0,1,1.843-.486,3.887,3.887,0,0,1,1.3.2,2.023,2.023,0,0,1,.86.539,1.987,1.987,0,0,1,.412.969l-1.1.152q-.152-1.017-1.443-1.018a2.126,2.126,0,0,0-1.091.221.648.648,0,0,0-.359.562.588.588,0,0,0,.342.531A7.277,7.277,0,0,0,29.4,30.2a11.175,11.175,0,0,1,1.813.533,1.575,1.575,0,0,1,.643.541,1.432,1.432,0,0,1,.228.814,1.671,1.671,0,0,1-.738,1.415,3.316,3.316,0,0,1-1.827.547Q29.428,34.047,29.334,34.042Zm143.03-.811a3.009,3.009,0,0,1-.873-2.328,2.953,2.953,0,0,1,3.116-3.237,3.015,3.015,0,0,1,2.154.817,3.1,3.1,0,0,1,.863,2.362l-.008.276H172.65a2.224,2.224,0,0,0,.633,1.552,1.952,1.952,0,0,0,1.374.523,1.78,1.78,0,0,0,1.764-1.255l1.159.128a2.57,2.57,0,0,1-1.048,1.474,3.378,3.378,0,0,1-1.881.5c-.049,0-.1,0-.145,0A3.237,3.237,0,0,1,172.364,33.231Zm.943-4.246a1.806,1.806,0,0,0-.588,1.292h3.714a1.969,1.969,0,0,0-.451-1.2,1.829,1.829,0,0,0-1.383-.574h-.042A1.868,1.868,0,0,0,173.307,28.986Zm-12.916,4.58a1.511,1.511,0,0,1-.619-1.27,1.575,1.575,0,0,1,.29-.94,1.938,1.938,0,0,1,.794-.638,5.319,5.319,0,0,1,1.529-.342,11.272,11.272,0,0,0,2.017-.351l.008-.266a1.12,1.12,0,0,0-.3-.886,1.907,1.907,0,0,0-1.282-.37,2.221,2.221,0,0,0-1.172.246,1.5,1.5,0,0,0-.571.924l-1.124-.152a2.183,2.183,0,0,1,.959-1.417,3.944,3.944,0,0,1,2.066-.446,3.785,3.785,0,0,1,1.641.3,1.387,1.387,0,0,1,.753.733,3.994,3.994,0,0,1,.157,1.272v1.377a13.085,13.085,0,0,0,.072,1.822,2.236,2.236,0,0,0,.29.731h-1.171a1.962,1.962,0,0,1-.239-.74,4.372,4.372,0,0,1-1.176.665,3.658,3.658,0,0,1-1.268.223c-.047,0-.093,0-.139,0A2.658,2.658,0,0,1,160.391,33.566Zm2.171-2.34a4.382,4.382,0,0,0-.994.21,1,1,0,0,0-.441.334.864.864,0,0,0,.2,1.2,1.666,1.666,0,0,0,1,.262,2.515,2.515,0,0,0,1.1-.237,1.691,1.691,0,0,0,.74-.628,2.181,2.181,0,0,0,.245-1.144V30.84A9.132,9.132,0,0,1,162.562,31.226Zm-15.937,2.005a3.011,3.011,0,0,1-.874-2.328,2.953,2.953,0,0,1,3.116-3.237,3.013,3.013,0,0,1,2.154.816,3.1,3.1,0,0,1,.863,2.363l-.008.277h-4.965a2.224,2.224,0,0,0,.633,1.551,1.955,1.955,0,0,0,1.375.523,1.777,1.777,0,0,0,1.762-1.254l1.16.128a2.552,2.552,0,0,1-1.05,1.472,3.373,3.373,0,0,1-1.881.5c-.049,0-.1,0-.145,0A3.235,3.235,0,0,1,146.625,33.231Zm.943-4.246a1.81,1.81,0,0,0-.589,1.292h3.715a1.967,1.967,0,0,0-.452-1.2,1.829,1.829,0,0,0-1.384-.574h-.039A1.874,1.874,0,0,0,147.568,28.986Zm-38.84,4.58a1.513,1.513,0,0,1-.618-1.27,1.579,1.579,0,0,1,.29-.941,1.94,1.94,0,0,1,.8-.638,5.238,5.238,0,0,1,1.528-.342,11.024,11.024,0,0,0,2.017-.351l.008-.266a1.121,1.121,0,0,0-.3-.886,1.9,1.9,0,0,0-1.287-.369,2.215,2.215,0,0,0-1.171.245,1.5,1.5,0,0,0-.571.925L108.3,29.52a2.182,2.182,0,0,1,.959-1.417,3.961,3.961,0,0,1,2.065-.444,3.769,3.769,0,0,1,1.642.295,1.393,1.393,0,0,1,.753.732,4,4,0,0,1,.156,1.273v1.377a13.215,13.215,0,0,0,.072,1.823,2.246,2.246,0,0,0,.29.73h-1.17a1.978,1.978,0,0,1-.236-.739,4.348,4.348,0,0,1-1.176.665,3.65,3.65,0,0,1-1.267.223c-.045,0-.091,0-.136,0A2.668,2.668,0,0,1,108.728,33.566Zm2.172-2.34a4.394,4.394,0,0,0-1,.21,1,1,0,0,0-.44.334.864.864,0,0,0,.2,1.2,1.666,1.666,0,0,0,1,.262,2.515,2.515,0,0,0,1.1-.237,1.685,1.685,0,0,0,.739-.628,2.18,2.18,0,0,0,.246-1.144V30.84A9.136,9.136,0,0,1,110.9,31.226Zm-27.208,2.34a1.51,1.51,0,0,1-.618-1.27,1.58,1.58,0,0,1,.289-.94,1.942,1.942,0,0,1,.8-.638,5.311,5.311,0,0,1,1.528-.342,11.279,11.279,0,0,0,2.018-.351l.007-.266a1.12,1.12,0,0,0-.3-.886,1.908,1.908,0,0,0-1.283-.37,2.208,2.208,0,0,0-1.171.246,1.5,1.5,0,0,0-.571.924l-1.124-.152a2.177,2.177,0,0,1,.957-1.417,3.951,3.951,0,0,1,2.067-.446,3.789,3.789,0,0,1,1.642.3,1.388,1.388,0,0,1,.752.733,3.944,3.944,0,0,1,.156,1.272v1.377a13.221,13.221,0,0,0,.073,1.822,2.192,2.192,0,0,0,.29.731H88.031a2.01,2.01,0,0,1-.238-.74,4.364,4.364,0,0,1-1.177.665,3.651,3.651,0,0,1-1.267.223c-.046,0-.093,0-.139,0A2.66,2.66,0,0,1,83.692,33.566Zm2.171-2.34a4.4,4.4,0,0,0-1,.21,1,1,0,0,0-.439.334.864.864,0,0,0,.2,1.2,1.663,1.663,0,0,0,.994.262,2.522,2.522,0,0,0,1.1-.237,1.685,1.685,0,0,0,.737-.628,2.182,2.182,0,0,0,.246-1.144V30.84A9.15,9.15,0,0,1,85.863,31.226Zm-9.207,2.005a3.011,3.011,0,0,1-.874-2.328A2.954,2.954,0,0,1,78.9,27.667a3.016,3.016,0,0,1,2.155.816,3.1,3.1,0,0,1,.863,2.363l-.008.277H76.942a2.224,2.224,0,0,0,.633,1.551,1.951,1.951,0,0,0,1.375.523,1.778,1.778,0,0,0,1.763-1.254l1.16.128a2.565,2.565,0,0,1-1.05,1.472,3.374,3.374,0,0,1-1.881.5c-.049,0-.1,0-.145,0A3.236,3.236,0,0,1,76.656,33.231Zm.94-4.246a1.819,1.819,0,0,0-.586,1.292h3.712a1.961,1.961,0,0,0-.451-1.2,1.829,1.829,0,0,0-1.383-.574h-.039A1.874,1.874,0,0,0,77.6,28.986ZM52.48,33.234a3.05,3.05,0,0,1-.888-2.383,3.065,3.065,0,0,1,.882-2.383,3.493,3.493,0,0,1,4.454,0,2.96,2.96,0,0,1,.894,2.319,3.158,3.158,0,0,1-.879,2.447,3.5,3.5,0,0,1-4.463,0Zm.838-4.143a2.444,2.444,0,0,0-.563,1.759h0a2.426,2.426,0,0,0,.57,1.765,1.91,1.91,0,0,0,1.415.58,1.829,1.829,0,0,0,1.358-.585,3.013,3.013,0,0,0,0-3.523,1.914,1.914,0,0,0-1.415-.578h-.025A1.829,1.829,0,0,0,53.319,29.091Zm70.21,4.112a3.13,3.13,0,0,1-.856-2.351,3.751,3.751,0,0,1,.381-1.763,2.535,2.535,0,0,1,1.018-1.072,2.885,2.885,0,0,1,1.415-.35,2.421,2.421,0,0,1,1.034.22,2.128,2.128,0,0,1,.79.612v-3h1.137v8.4l-1.058,0v-.76a1.985,1.985,0,0,1-.786.67,2.354,2.354,0,0,1-1.039.231h-.031A2.823,2.823,0,0,1,123.528,33.2Zm.811-4.127a2.614,2.614,0,0,0-.513,1.782h0a2.479,2.479,0,0,0,.546,1.761,1.694,1.694,0,0,0,1.27.574,1.657,1.657,0,0,0,1.243-.552,2.34,2.34,0,0,0,.526-1.669,2.764,2.764,0,0,0-.526-1.873,1.71,1.71,0,0,0-1.327-.59h-.005A1.588,1.588,0,0,0,124.339,29.076ZM94.629,33.8a.973.973,0,0,1-.493-.477A3.516,3.516,0,0,1,94,32.117v-3.5h-.819v-.809H94v-1.5l1.124-.621v2.119h1.137v.809H95.127v3.561a1.287,1.287,0,0,0,.1.636.619.619,0,0,0,.541.207,3.473,3.473,0,0,0,.5-.046l.152.914a4.272,4.272,0,0,1-.84.094l-.088,0A2.174,2.174,0,0,1,94.629,33.8Zm-60.191,0a.969.969,0,0,1-.493-.477,3.513,3.513,0,0,1-.133-1.21v-3.5h-.82v-.809h.82v-1.5l1.124-.621v2.119h1.135v.809H34.937v3.561a1.277,1.277,0,0,0,.1.636.618.618,0,0,0,.541.207,3.448,3.448,0,0,0,.495-.046l.152.914a4.28,4.28,0,0,1-.84.094l-.088,0A2.174,2.174,0,0,1,34.438,33.8Zm63.043.092V25.5h1.124V28.5a2.652,2.652,0,0,1,.9-.629,2.844,2.844,0,0,1,1.1-.208,2.565,2.565,0,0,1,1.68.507,2.323,2.323,0,0,1,.616,1.862V33.9h-1.125V30.036a1.271,1.271,0,0,0-1.407-1.48A1.857,1.857,0,0,0,99.121,29a1.984,1.984,0,0,0-.513,1.565V33.9Zm59.27,0V28.614h-1v-.809h.995v-.644a2.244,2.244,0,0,1,.2-1.07,1.291,1.291,0,0,1,.608-.545,2.48,2.48,0,0,1,1.027-.188,6.079,6.079,0,0,1,1.056.1l-.167.9a4.058,4.058,0,0,0-.663-.058,1.062,1.062,0,0,0-.721.2,1,1,0,0,0-.217.747v.556h1.3v.809h-1.3V33.9Zm10.7,0V27.805h1.02v.92a2.666,2.666,0,0,1,.715-.851,1.333,1.333,0,0,1,.73-.208,2.376,2.376,0,0,1,1.155.328l-.386.962a1.742,1.742,0,0,0-.817-.223,1.209,1.209,0,0,0-.658.19,1.014,1.014,0,0,0-.419.527,3.647,3.647,0,0,0-.215,1.257V33.9Zm-14.056,0V25.5h1.124v8.4Zm-19.95-8.4h1.239L136.076,31q.222.847.389,1.719l.413-1.553,1.754-5.672h1.454l1.314,4.251a22.787,22.787,0,0,1,.718,2.974q.176-.82.452-1.827l1.446-5.4h1.222l-2.52,8.4H141.55l-1.936-6.4-.29-.985q-.129.551-.268.985l-1.949,6.4-1.241,0Zm-17.659,8.4V27.805h1.027v.856a2.316,2.316,0,0,1,.9-.751,2.825,2.825,0,0,1,1.215-.248,2.969,2.969,0,0,1,.987.158,2.089,2.089,0,0,1,.732.414,1.548,1.548,0,0,1,.415.661,4.21,4.21,0,0,1,.138,1.251v3.747h-1.124v-3.71a2.354,2.354,0,0,0-.153-.98,1.065,1.065,0,0,0-.476-.48,1.607,1.607,0,0,0-.751-.17,1.8,1.8,0,0,0-1.289.454,2.079,2.079,0,0,0-.482,1.555V33.9Zm-25.067,0V25.5h1.124v8.4Zm-17.825,0V29.937H68.123V33.9H66.905V25.5h1.218v3.447h4.767V25.5h1.218v8.4Zm-13.27-5.282h-1v-.809h1v-.649a2.272,2.272,0,0,1,.2-1.07,1.3,1.3,0,0,1,.609-.545,2.5,2.5,0,0,1,1.027-.187,6.015,6.015,0,0,1,1.056.1l-.167.9a4,4,0,0,0-.663-.059,1.062,1.062,0,0,0-.722.2.992.992,0,0,0-.217.747V27.8h1.3v.809h-1.3v5.281l-1.121,0ZM37.289,33.9V27.805h1.02v.92a2.656,2.656,0,0,1,.715-.851,1.335,1.335,0,0,1,.731-.208,2.375,2.375,0,0,1,1.154.328l-.386.962a1.759,1.759,0,0,0-.819-.223,1.2,1.2,0,0,0-.657.188,1.02,1.02,0,0,0-.42.529,3.658,3.658,0,0,0-.215,1.256V33.9Zm-13.3,0V27.8h1.124V33.9Zm-7.292,0V27.805h1.019v.856a2.34,2.34,0,0,1,.9-.751,2.825,2.825,0,0,1,1.215-.248,3.006,3.006,0,0,1,.987.158,2.063,2.063,0,0,1,.731.414,1.542,1.542,0,0,1,.416.661,4.235,4.235,0,0,1,.137,1.251v3.747H20.971v-3.71a2.353,2.353,0,0,0-.152-.98,1.064,1.064,0,0,0-.477-.48,1.606,1.606,0,0,0-.75-.17,1.8,1.8,0,0,0-1.29.454,2.078,2.078,0,0,0-.48,1.555V33.9Zm-3.006,0V27.8h1.124V33.9Zm-3.113,0V26.847L7.9,33.9H6.81L4.146,26.712V33.9H2.974V25.5H4.8l2.18,5.947.436,1.243q.16-.465.489-1.346l2.2-5.844h1.637v8.4ZM23.987,26.68V25.5h1.124V26.68Zm-10.3,0V25.5h1.124V26.68Zm4.748-6.641c-.1,0-.15-.126-.15-.384a2.7,2.7,0,0,0-.351-1.065V18.5a4.634,4.634,0,0,0,1.2.171q1.3,0,1.3-.745V7.606h-2.8c-.2,0-.3-.114-.3-.342V6.58q0-.322.3-.323v0h6.305c.2,0,.3.107.3.322v.685c0,.228-.1.341-.3.341h-1.8V18.5q0,1.533-2.9,1.534Zm104.1-.095q-.4,0-.4-.235V10.673q-.15.236-.276.428a22.16,22.16,0,0,1-1.9,2.406,16.989,16.989,0,0,1-2.33,2,.685.685,0,0,1-.45-.126,12.219,12.219,0,0,0-.977-.746.549.549,0,0,1-.075-.212,13.6,13.6,0,0,0,1.828-1.362,15.316,15.316,0,0,0,2.156-2.342,30.134,30.134,0,0,0,1.852-3.045H116.53c-.2,0-.3-.115-.3-.342V6.657c0-.228.1-.342.3-.342h5.611V2.8q-.451.065-.877.107-1.78.171-3.232.17a.527.527,0,0,1-.549-.3c-.217-.27-.468-.57-.752-.894,0-.156.1-.233.3-.233h1.5a22.544,22.544,0,0,0,3.132-.19,13.4,13.4,0,0,0,2.374-.388,8.324,8.324,0,0,0,2.33-.828.488.488,0,0,1,.176-.064.662.662,0,0,1,.428.105q1.478,1.088,1.478,1.363c0,.157-.1.233-.3.233l-.706-.232a2.009,2.009,0,0,0-.428.064,19.933,19.933,0,0,1-2.53.66,3.462,3.462,0,0,1-.549.127V6.318h4.81c.2,0,.3.113.3.342v.676c0,.226-.1.342-.3.342h-4.532a17.608,17.608,0,0,0,1.427,2.214,13.848,13.848,0,0,0,2.881,2.6c.15.058.225.129.225.213,0,.058-.059.12-.176.192a5.768,5.768,0,0,1-.751.66.408.408,0,0,1-.276.17,1.318,1.318,0,0,1-.451-.126,13.9,13.9,0,0,1-2.429-2.514c-.25-.342-.493-.7-.727-1.065v9.687q0,.236-.4.235Zm46.988-.05c-.266,0-.4-.092-.4-.279V1.209c0-.17.133-.256.4-.256h7.011a1.253,1.253,0,0,1,.65.126q.653.409.653.58l-3.582,6.116a.989.989,0,0,0-.1.342.526.526,0,0,0,.176.341,10.084,10.084,0,0,1,2.153,2.727,7.043,7.043,0,0,1,.876,3.321,3.693,3.693,0,0,1-.525,1.98,2.843,2.843,0,0,1-1.6,1.234,5.031,5.031,0,0,1-2.309.384c-.436,0-.653-.129-.653-.384a2.749,2.749,0,0,0-.451-1.171c0-.171.1-.256.3-.256l1.2.172a2.124,2.124,0,0,0,1.7-.6,1.865,1.865,0,0,0,.5-1.363,6.262,6.262,0,0,0-.7-2.663,12.133,12.133,0,0,0-2.58-3.193c-.149-.086-.225-.179-.225-.279a1,1,0,0,1,.1-.342l3.608-5.791-4.781,0V19.615c0,.186-.142.279-.427.279Zm-156.711-.01c-.2,0-.3-.093-.3-.279V17.646H6c-.133,0-.2-.113-.2-.341V16.62c0-.171.066-.256.2-.256H7.71V13.636c0-.156.1-.234.3-.234h4.509V12.187c0-.112.1-.17.3-.17q1.8,0,1.8.256c0,.184-.068.285-.2.3s-.2.142-.2.383V13.4h2.6c.152,0,.225.081.225.236v.709c0,.215-.074.322-.225.322l-2.6,0v1.695h3.006c.135,0,.2.085.2.256v.685c0,.229-.066.341-.2.341H14.218v1.959c0,.184-.125.279-.375.279ZM9.41,16.363h3.112V14.668H9.41ZM3.4,19.882c-.2,0-.3-.092-.3-.276V10.959q-.651.6-1.7,1.405a.82.82,0,0,1-.5-.192q-.358-.256-.729-.49A.3.3,0,0,1,0,11.425q.875-.685,1.753-1.47a11.586,11.586,0,0,0,2-2.255A10.078,10.078,0,0,0,4.9,5.548c.009-.113.043-.168.093-.168A7.541,7.541,0,0,1,7,6.4q0,.194-.171.194a.745.745,0,0,0-.526.233A16.878,16.878,0,0,1,4.8,9.17V19.605q0,.276-.4.276Zm129.939,0c-.136,0-.2-.142-.2-.427a3.571,3.571,0,0,0-.5-1.044c0-.17.067-.256.2-.256a9.955,9.955,0,0,0,2.106.256q1.1,0,1.1-.764V2.144A8.372,8.372,0,0,0,136,1.078a2.652,2.652,0,0,1-.05-.447c0-.127.134-.192.4-.192l2.185.235c.232.086.351.149.351.192q0,.233-.376.233-.551.193-.55,1.129V18.154q0,1.725-2.812,1.725Zm-34.259,0c-.267,0-.4-.091-.4-.276v-.855H89.561V19.6c0,.185-.134.276-.4.276h-1c-.267,0-.4-.091-.4-.276V10.674c0-.242.133-.362.4-.362h11.926c.267,0,.4.086.4.256V19.6c0,.185-.133.276-.4.276ZM95.074,17.4h3.606V15.186H95.074Zm-5.518,0H93.27v-2.21H89.557Zm5.518-3.581h3.606V11.687H95.074Zm-5.518,0H93.27V11.683H89.557Zm75.361,6.065c-.252,0-.376-.092-.376-.276V18.571h-6.847V19.6c0,.185-.135.276-.4.276h-1c-.268,0-.4-.092-.4-.276v-7.23c0-.226.135-.34.4-.34h9.629c.268,0,.4.086.4.256V19.6c0,.185-.133.276-.4.276Zm-7.223-2.653h6.847V13.4H157.7ZM81.956,19.87c-.267,0-.4-.091-.4-.275V6.734H77.848q-.3,0-.3-.342V5.716c0-.228.1-.342.3-.342h8.816c.2,0,.3.112.3.342v.676c0,.225-.1.342-.3.342H83.359v12.86c0,.185-.134.275-.4.275Zm-42.379-.609c-.2,0-.3-.108-.3-.32V18.1c0-.184.1-.275.3-.275H50.4v-5.8H42.582c-.2,0-.3-.106-.3-.321v-.71c0-.214.1-.322.3-.322H50.4V5.823H43.661q-.528,1.046-1.1,1.981A12.136,12.136,0,0,1,41.079,9.57a1.759,1.759,0,0,1-.576-.085q-.528-.192-1.052-.342-.175-.084-.175-.147a.236.236,0,0,1,.1-.214,11.72,11.72,0,0,0,2.2-2.874,14.268,14.268,0,0,0,1-2.1,20.841,20.841,0,0,0,.9-2.98c.052-.125.119-.189.2-.189l1.828.531c.184.114.275.213.275.3a.327.327,0,0,1-.3.341.356.356,0,0,0-.376.3q-.451,1.367-.8,2.28H50.4V.533c0-.172.133-.256.4-.256q1.9,0,1.9.256a.3.3,0,0,1-.251.342c-.166.013-.25.155-.25.427V4.391h8.418c.2,0,.3.079.3.234V5.48c0,.23-.1.342-.3.342H52.2v4.851h7.215c.2,0,.3.107.3.322v.709c0,.215-.1.321-.3.321H52.2v5.8h9.62c.2,0,.3.091.3.275v.844c0,.212-.1.32-.3.32Zm37.966-1.7a16.516,16.516,0,0,0,.725-2.811q.228-2.063.276-6.175c0-.141.065-.212.2-.212l1.829.362c.183.072.276.156.276.257,0,.17-.075.262-.225.277-.252.085-.41.325-.476.724a42.532,42.532,0,0,1-.225,5.386q-.276,1.427-.577,2.533c0,.128-.1.192-.3.192Q77.544,17.69,77.544,17.56Zm7.665-.576a71.839,71.839,0,0,1-.452-8.175c0-.243.136-.362.4-.362v0h.9c.267,0,.4.119.4.359a9.767,9.767,0,0,0-.3,2.365,17.974,17.974,0,0,0,.9,5.814c0,.1-.085.171-.249.215q-.726.067-1.454.107ZM131.144,15.1c-.266,0-.4-.087-.4-.258V3.078c0-.171.134-.256.4-.256v0q1.9,0,1.9.256c0,.2-.085.315-.251.342s-.25.159-.25.428V14.837c0,.171-.133.258-.4.258ZM8.309,11.62c-.268,0-.4-.092-.4-.279V7.948c0-.184.135-.279.4-.279h7.609c.268,0,.4.094.4.278v3.394c0,.186-.134.279-.4.279ZM9.6,10.4h5.021v-1.5H9.6ZM154.7,10.328c-.2,0-.3-.113-.3-.341V9.3c0-.216.1-.323.3-.323h13.05c.184,0,.277.106.277.323v.685c0,.229-.093.341-.277.341ZM89.167,8.875q-.4,0-.4-.275V3.933c0-.171.134-.256.4-.256l0,0H99.181c.268,0,.4.085.4.256V8.6c0,.182-.133.275-.4.275Zm1.4-1.379h7.21V5.029h-7.21Zm73.119,1.168q-.525-.212-.977-.363c-.133-.041-.2-.076-.2-.106a.249.249,0,0,1,.075-.148,11.356,11.356,0,0,0,1.026-1.62,7.311,7.311,0,0,0,.727-1.788c.05-.171.118-.255.2-.255v0l1.5.514q.375.127.375.341c0,.1-.075.172-.225.212a.316.316,0,0,0-.326.256,13.029,13.029,0,0,1-1.5,2.853c-.1.172-.184.256-.251.256A.886.886,0,0,1,163.688,8.665Zm-6.212-1.348a12.348,12.348,0,0,0-.977-2q0-.192,1.4-.787h0a15.373,15.373,0,0,1,1.026,2.044,8.776,8.776,0,0,1,.677,1.788,7.1,7.1,0,0,1-1.7.446A8.15,8.15,0,0,0,157.476,7.316ZM7.2,6.323c-.134,0-.2-.078-.2-.237v-.71c0-.17.065-.256.2-.256H9.808q.2-.892.428-1.953H7.806c-.133,0-.2-.086-.2-.258V2.226c0-.18.065-.265.2-.265h2.656q.2-.854.352-1.788A.294.294,0,0,1,11.11,0l1.377.3c.217.043.326.148.326.32,0,.2-.109.3-.326.3a.42.42,0,0,0-.275.277c-.051.272-.092.526-.127.77h3.533c.266,0,.4.087.4.258v2.9h.8c.151,0,.225.085.225.256v.708c0,.157-.075.237-.225.237Zm4.19-1.205v0h2.93V3.165h-2.48Q11.619,4.225,11.393,5.118Zm-9.677.092A6.383,6.383,0,0,0,.964,4.7C.847,4.625.793,4.549.793,4.462q.725-.512,1.454-1.044A8.708,8.708,0,0,0,3.85,1.8,6.946,6.946,0,0,0,4.8.267C4.813.155,4.847.1,4.9.1a7.5,7.5,0,0,1,2,1.026c0,.128-.059.191-.176.191a.7.7,0,0,0-.526.257A10.3,10.3,0,0,1,4.12,3.954,16.552,16.552,0,0,1,2.193,5.381H2.179A.714.714,0,0,1,1.716,5.211ZM155.189,4.093c-.183,0-.275-.113-.275-.341V3.074c0-.225.092-.342.275-.342H160.4V.265q0-.256.4-.257,1.9,0,1.9.257c0,.2-.085.305-.252.319-.166.028-.249.177-.249.447v1.7h4.911c.2,0,.3.113.3.342v.677c0,.225-.1.341-.3.341ZM18.623,3.011c-.2,0-.3-.115-.3-.342V1.985c0-.217.1-.324.3-.324h4.611c.2,0,.3.107.3.324v.683q0,.343-.3.342ZM79.045,2.5c-.2,0-.3-.119-.3-.359V1.467c0-.228.1-.337.3-.337V1.124H85.56c.2,0,.3.115.3.342v.676c0,.24-.1.359-.3.359Zm9.118-.275c-.2,0-.3-.113-.3-.342V1.208c0-.225.1-.341.3-.341h12.121q.3,0,.3.341v.677c0,.227-.1.342-.3.342Zm0-1.361h0ZM136.345.439h0ZM160.8.008h0Z" transform="translate(58.033 0.843)" fill="#091e42"/>
      <path id="Path_212210" data-name="Path 212210" d="M71.684,47.578v3.183H75.1q.074,0,.074.121V51.1q0,.159-.074.159H71.171c-.075,0-.112-.04-.112-.121V47.2a.1.1,0,0,1,.086-.112.108.108,0,0,1,.028,0h3.933q.074,0,.075.112v.225c0,.1-.025.15-.075.15H72.962l.131.056q.093.047.093.1c0,.032-.028.053-.086.066-.086,0-.14.022-.159.066q-.075.132-.15.244h2a.067.067,0,0,1,.075.056.07.07,0,0,1,0,.018V48.4c0,.086-.025.121-.075.121h-.864a4.208,4.208,0,0,1-.066.59h1.077c.056,0,.086.025.086.075v.226c0,.075-.028.112-.086.112h-.965a1.359,1.359,0,0,0,.234.234,2.935,2.935,0,0,0,.45.309,1.78,1.78,0,0,0,.44.171c0,.038-.025.066-.074.085q-.159.171-.271.309-.047.056-.066.056a2.216,2.216,0,0,1-.553-.356,2.014,2.014,0,0,1-.412-.422,1.131,1.131,0,0,1-.1-.14,1.314,1.314,0,0,1-.171.234,1.716,1.716,0,0,1-.487.365,2.352,2.352,0,0,1-.637.281,3.585,3.585,0,0,1-.375-.412,2.013,2.013,0,0,0,.458-.171,1.753,1.753,0,0,0,.5-.327,1.411,1.411,0,0,0,.178-.215h-.949c-.05,0-.074-.038-.074-.112v-.225a.067.067,0,0,1,.056-.075h1.152a3.006,3.006,0,0,0,.093-.59h-.889a1.682,1.682,0,0,1-.178.187.212.212,0,0,1-.121.066.287.287,0,0,1-.121-.038q-.132-.065-.263-.121c-.044-.006-.066-.013-.066-.019a.137.137,0,0,1,.038-.056,3.813,3.813,0,0,0,.478-.468,1.752,1.752,0,0,0,.318-.5Zm4.275-.524h1.99q.14,0,.14.112v.862c0,.032.021.05.066.056a.77.77,0,0,0,.234.028h.038q.234,0,.3-.086a1.368,1.368,0,0,0,.171-.422q0-.028.1-.028a.36.36,0,0,1,.112.028,2,2,0,0,0,.291.112q.121.019.121.121a3,3,0,0,1-.309.7q-.113.16-.513.159h-.609a1.975,1.975,0,0,1-.5-.047c-.062-.025-.093-.062-.093-.112v-.965h-1.1v.066a1.8,1.8,0,0,1-.093.59.871.871,0,0,1-.337.412,2.186,2.186,0,0,1-.421.251.215.215,0,0,1-.159-.056q-.122-.159-.234-.281a.162.162,0,0,1-.056-.112,1.174,1.174,0,0,0,.618-.458.893.893,0,0,0,.093-.422v-.4q-.009-.106.144-.106Zm-.411,1.957h2.836a.191.191,0,0,1,.121.038.627.627,0,0,1,.15.225,5.4,5.4,0,0,1-.346.674,4.075,4.075,0,0,1-.4.505.44.44,0,0,1-.066.056q.171.056.356.1a9.148,9.148,0,0,0,1.048.206q.074.009.075.028a.127.127,0,0,1-.038.093,3.608,3.608,0,0,0-.309.309c-.044.056-.078.086-.1.086a.541.541,0,0,1-.131-.038q-.309-.056-.684-.159-.428-.121-.77-.257a3.716,3.716,0,0,1-.674.291,4,4,0,0,1-.729.2.155.155,0,0,1-.14-.074q-.085-.131-.171-.271a.115.115,0,0,1-.028-.066.037.037,0,0,1,.028-.038,4.9,4.9,0,0,0,.543-.121,3.514,3.514,0,0,0,.628-.206q-.094-.056-.159-.1a1.8,1.8,0,0,1-.469-.45,2.189,2.189,0,0,1-.337-.552h-.223c-.05,0-.075-.047-.075-.14v-.229c0-.068.022-.1.075-.1Zm.834.478a1.894,1.894,0,0,0,.112.171,2.125,2.125,0,0,0,.428.422,2.442,2.442,0,0,0,.356.2,1.527,1.527,0,0,0,.244-.178,2.576,2.576,0,0,0,.356-.468,1.062,1.062,0,0,0,.075-.14Zm-5.488,2.181H79.4q.074,0,.075.112V52c0,.086-.025.121-.075.121H76.222v.552h2.359q.15,0,.15.112v2.894q0,.113-.15.112H71.844q-.159,0-.159-.112V52.785q0-.112.159-.112h2.182a2.4,2.4,0,0,0,.085-.552H70.9c-.05,0-.075-.04-.075-.121v-.215q0-.11.073-.11Zm4.757,1V52.12h-.936a3.867,3.867,0,0,1-.066.552ZM78.045,55.3v-.412H72.362V55.3Zm-5.684-.862h5.684v-.393q-.206.009-.513.019H76.184q-.534,0-.534-.375v-.534H74.48a1.509,1.509,0,0,1-.281.428,2.021,2.021,0,0,1-.534.346,2.6,2.6,0,0,1-.711.273q-.225-.225-.412-.4a3.105,3.105,0,0,0,.524-.171,2.664,2.664,0,0,0,.544-.31,1.8,1.8,0,0,0,.15-.171h-1.4Zm3.858-1.283v.3q0,.159.178.159h1.133a3.139,3.139,0,0,0,.513-.038v-.421Zm6.721-5.5h3.632V47.5a1.835,1.835,0,0,0-.038-.422.513.513,0,0,1-.038-.171q0-.074.178-.075l.758.093c.068.038.1.066.1.086,0,.062-.034.093-.1.093q-.2.066-.2.428v.121h3.9q.112,0,.112.15v.3c0,.094-.038.14-.112.14H87.238v.609h2.894q.14,0,.14.112V50.58c0,.068-.047.1-.14.1H87.238v.609h3.146q.159,0,.159.112v1.086h.7q.121,0,.121.14v.309c0,.094-.041.14-.121.14h-.7v1.507q0,.1-.159.1h-.375c-.1,0-.15-.034-.15-.1v-.309H87.238v.749q0,.684-1,.684H85.59c-.05,0-.075-.056-.075-.171a1.749,1.749,0,0,0-.178-.44.066.066,0,0,1,.056-.075h.018a4.2,4.2,0,0,0,.749.075q.412,0,.412-.337v-.487H83.528c-.068,0-.1-.047-.1-.14v-.309c0-.093.034-.14.1-.14h3.043v-.609H82.855c-.075,0-.112-.047-.112-.14v-.309q0-.14.112-.14h3.716v-.609H83.528c-.068,0-.1-.047-.1-.14V51.43c0-.093.034-.14.1-.14h3.043v-.609H83.807q-.159,0-.159-.1V48.968q0-.112.159-.112h2.772v-.609H82.947c-.086,0-.121-.047-.121-.14v-.3c0-.091.04-.144.121-.144ZM89.6,50.1V49.46H87.239v.646Zm-3.024,0V49.46H84.317v.646Zm.664,1.789V52.5h2.623v-.609Zm0,1.2v.609h2.623v-.609Zm11.4-6.1a3.842,3.842,0,0,1,1.058.14q0,.075-.131.15a.357.357,0,0,0-.215.346q-.019.693-.056,1.283a9.032,9.032,0,0,0,.171,1.648,8.62,8.62,0,0,0,.513,1.5,5.908,5.908,0,0,0,.693,1.112,5.179,5.179,0,0,0,1.1,1.067,5.521,5.521,0,0,0,1.555.794.15.15,0,0,1-.093.14q-.187.206-.346.4c-.062.068-.1.1-.121.1a7.973,7.973,0,0,1-1.563-.941,4.13,4.13,0,0,1-1.039-1.067,6.831,6.831,0,0,1-.787-1.254,6.1,6.1,0,0,1-.44-1.171q-.038.141-.074.271a8.135,8.135,0,0,1-.5,1.292,4.951,4.951,0,0,1-.87,1.292,6.2,6.2,0,0,1-.889.75,5.486,5.486,0,0,1-1.489.824c-.05,0-.093-.034-.131-.1a2.782,2.782,0,0,0-.356-.367c-.05-.056-.075-.09-.075-.1,0-.038.021-.056.066-.056a7.688,7.688,0,0,0,1.227-.6,4.617,4.617,0,0,0,.993-.77,4.472,4.472,0,0,0,.855-1.142,5.964,5.964,0,0,0,.534-1.311,5.065,5.065,0,0,0,.257-1.32,17.379,17.379,0,0,0,.121-2.444,2.028,2.028,0,0,0-.038-.412c0-.044.025-.066.075-.066Zm9.567.215h5.253q.15,0,.15.121v1.792q0,.122-.15.121h-5.241c-.1,0-.15-.04-.15-.121V47.329q0-.122.15-.123Zm4.72,1.46v-.889h-4.186v.889Zm-5.094,1.2h5.992q.159,0,.159.112v4.233c0,.075-.053.112-.159.112h-1.442a9.3,9.3,0,0,0,1.171.5,12.788,12.788,0,0,0,1.46.365c.086.032.131.059.131.086q0,.086-.412.524a1.3,1.3,0,0,1-.171-.018,15.1,15.1,0,0,1-2.706-.974c-.062-.032-.093-.053-.093-.066q0-.086.365-.412h-2.623q.505.428.505.5t-.121.066q-.206,0-.225.047a18.36,18.36,0,0,1-2.7.862.145.145,0,0,1-.15-.093.77.77,0,0,0-.234-.271.182.182,0,0,1-.066-.121c0-.038.038-.059.112-.066a12.023,12.023,0,0,0,1.264-.356,7.61,7.61,0,0,0,1.273-.563h-1.339q-.15,0-.15-.112V49.977q.011-.11.161-.11Zm5.472,3.9v-.714h-4.935v.721Zm-4.935-1.273h4.935v-.749h-4.935Zm0-1.32h4.935v-.74h-4.935Zm12.554-3.221h-1.454c-.075,0-.112-.047-.112-.14V47.5q0-.14.112-.14h5.88q.14,0,.171.038.2.16.2.263L124.483,50.1h1.807a.225.225,0,0,1,.15.056.815.815,0,0,1,.187.318,10.759,10.759,0,0,1-.656,1.638,6.774,6.774,0,0,1-.758,1.2,3.982,3.982,0,0,1-.6.618,3.368,3.368,0,0,0,.327.187,8.43,8.43,0,0,0,2.079.74q.093.038.093.074a.18.18,0,0,1-.093.14q-.178.187-.327.375a.141.141,0,0,1-.14.112,2.264,2.264,0,0,1-.552-.215,10.182,10.182,0,0,1-1.938-.983,6.393,6.393,0,0,1-1.264.7,6.3,6.3,0,0,1-1.376.458.209.209,0,0,1-.187-.086l-.215-.309a.161.161,0,0,1-.047-.093c0-.038.025-.062.075-.074a8.853,8.853,0,0,0,1.039-.292,5.772,5.772,0,0,0,1.432-.693.539.539,0,0,0-.047-.028,5.083,5.083,0,0,1-1.218-1.292,7.37,7.37,0,0,1-.88-1.6,9.241,9.241,0,0,1-.609,2.145,4.382,4.382,0,0,1-.834,1.227,4.594,4.594,0,0,1-1.142.917q-.263-.271-.45-.487a3.552,3.552,0,0,0,.862-.664,4.953,4.953,0,0,0,.9-1.218,8.475,8.475,0,0,0,.609-2.107,21.785,21.785,0,0,0,.219-2.9Zm.87,2.736a5.627,5.627,0,0,0,.581,1.112,5.772,5.772,0,0,0,.824,1.067,6.225,6.225,0,0,0,.855.693,5.2,5.2,0,0,0,.721-.711,5.308,5.308,0,0,0,.693-1.171,7.771,7.771,0,0,0,.384-.993Zm-.3-.59h2.266l1.112-2.145H121.6q-.038,1.3-.1,2.145Zm9.638-2.518v3.183h3.42q.074,0,.074.121V51.1q0,.159-.074.159h-3.933c-.075,0-.112-.04-.112-.121V47.2a.1.1,0,0,1,.086-.112.108.108,0,0,1,.028,0h3.933q.074,0,.075.112v.225c0,.1-.025.15-.075.15h-2.144l.131.056q.093.047.093.1c0,.032-.028.053-.086.066-.086,0-.14.022-.159.066q-.075.132-.15.244h2a.066.066,0,0,1,.075.074V48.4c0,.086-.025.121-.075.121h-.861a4.207,4.207,0,0,1-.066.59H134.4c.056,0,.086.025.086.075v.226c0,.075-.028.112-.086.112h-.965a1.368,1.368,0,0,0,.234.234,2.934,2.934,0,0,0,.45.309,1.782,1.782,0,0,0,.44.171c0,.038-.025.066-.074.085q-.16.171-.271.309c-.032.038-.053.056-.066.056a2.216,2.216,0,0,1-.553-.356,2.014,2.014,0,0,1-.412-.422,1.131,1.131,0,0,1-.1-.14,1.315,1.315,0,0,1-.171.234,1.71,1.71,0,0,1-.487.365,2.355,2.355,0,0,1-.637.281,3.59,3.59,0,0,1-.375-.412,2.012,2.012,0,0,0,.458-.171,1.754,1.754,0,0,0,.5-.327,1.41,1.41,0,0,0,.178-.215h-.954c-.05,0-.075-.038-.075-.112v-.225a.067.067,0,0,1,.056-.075h1.152a3.008,3.008,0,0,0,.093-.59h-.889a1.687,1.687,0,0,1-.178.187.212.212,0,0,1-.121.066.288.288,0,0,1-.121-.038q-.132-.065-.263-.121c-.044-.006-.066-.013-.066-.019a.137.137,0,0,1,.038-.056,3.815,3.815,0,0,0,.477-.468,1.752,1.752,0,0,0,.318-.5Zm4.275-.524H137.4q.14,0,.14.112v.862c0,.032.021.05.066.056a.77.77,0,0,0,.234.028h.038q.234,0,.3-.086a1.369,1.369,0,0,0,.171-.422q0-.028.1-.028a.361.361,0,0,1,.112.028,2.007,2.007,0,0,0,.291.112q.121.019.121.121a3,3,0,0,1-.309.7q-.113.16-.513.159h-.609a1.975,1.975,0,0,1-.5-.047c-.062-.025-.093-.062-.093-.112v-.965h-1.1v.066a1.8,1.8,0,0,1-.093.59.871.871,0,0,1-.337.412,2.18,2.18,0,0,1-.422.251.215.215,0,0,1-.159-.056q-.122-.159-.234-.281a.162.162,0,0,1-.056-.112,1.174,1.174,0,0,0,.618-.458.893.893,0,0,0,.093-.422v-.4q0-.113.15-.113ZM135,49.011h2.837a.191.191,0,0,1,.121.038.625.625,0,0,1,.15.225,5.37,5.37,0,0,1-.346.674,4.074,4.074,0,0,1-.4.505.441.441,0,0,1-.066.056q.171.056.356.1a9.15,9.15,0,0,0,1.048.206q.074.009.075.028a.127.127,0,0,1-.038.093,3.6,3.6,0,0,0-.309.309c-.044.056-.078.086-.1.086a.54.54,0,0,1-.131-.038q-.309-.056-.684-.159-.428-.121-.77-.257a3.716,3.716,0,0,1-.674.291,4,4,0,0,1-.729.2.155.155,0,0,1-.14-.074q-.086-.131-.171-.271a.114.114,0,0,1-.028-.066.037.037,0,0,1,.028-.038,4.895,4.895,0,0,0,.543-.121,3.512,3.512,0,0,0,.628-.206q-.094-.056-.159-.1a1.8,1.8,0,0,1-.469-.45,2.189,2.189,0,0,1-.337-.552h-.235c-.05,0-.075-.047-.075-.14v-.229c0-.068.029-.1.08-.1Zm.834.478a1.9,1.9,0,0,0,.112.171,2.119,2.119,0,0,0,.428.422,2.447,2.447,0,0,0,.356.2,1.524,1.524,0,0,0,.244-.178,2.576,2.576,0,0,0,.356-.468,1.071,1.071,0,0,0,.075-.14Zm-5.488,2.181h8.511q.074,0,.075.112V52c0,.086-.025.121-.075.121h-3.183v.552h2.359q.15,0,.15.112v2.894q0,.113-.15.112h-6.741c-.106,0-.159-.038-.159-.112V52.785c0-.075.053-.112.159-.112h2.182a2.4,2.4,0,0,0,.086-.552h-3.211c-.05,0-.075-.04-.075-.121v-.215q0-.11.073-.11Zm4.757,1v-.552h-.936a3.865,3.865,0,0,1-.066.552ZM137.5,55.3v-.412h-5.677V55.3Zm-5.684-.862H137.5v-.393q-.206.009-.513.019h-1.348q-.534,0-.534-.375v-.534h-1.17a1.508,1.508,0,0,1-.281.428,2.02,2.02,0,0,1-.534.346,2.611,2.611,0,0,1-.711.271q-.225-.225-.412-.4a3.108,3.108,0,0,0,.524-.171,2.659,2.659,0,0,0,.544-.308,1.8,1.8,0,0,0,.15-.171h-1.391Zm3.858-1.283v.3q0,.159.178.159h1.133a3.139,3.139,0,0,0,.513-.038v-.421Zm6.721-5.5h3.632V47.5a1.832,1.832,0,0,0-.038-.422.513.513,0,0,1-.038-.171q0-.074.178-.075l.758.093c.068.038.1.066.1.086,0,.062-.034.093-.1.093q-.2.066-.2.428v.121h3.9q.112,0,.112.15v.3c0,.094-.038.14-.112.14h-3.895v.609h2.894q.14,0,.14.112V50.58c0,.068-.047.1-.14.1h-2.894v.609h3.146q.159,0,.159.112v1.086h.7q.121,0,.121.14v.309c0,.094-.041.14-.121.14h-.7v1.507q0,.1-.159.1h-.375c-.1,0-.15-.034-.15-.1v-.309h-2.621v.749q0,.684-1,.684h-.646c-.05,0-.075-.056-.075-.171a1.749,1.749,0,0,0-.178-.44.066.066,0,0,1,.056-.075h.018a4.2,4.2,0,0,0,.749.075q.412,0,.412-.337v-.487h-3.044q-.1,0-.1-.14v-.309q0-.14.1-.14h3.043v-.609h-3.716c-.075,0-.112-.047-.112-.14v-.309q0-.14.112-.14h3.716v-.609h-3.043c-.068,0-.1-.047-.1-.14V51.43q0-.14.1-.14h3.043v-.609H143.25q-.159,0-.159-.1V48.968c0-.075.053-.112.159-.112h2.772v-.609h-3.633c-.086,0-.121-.047-.121-.14v-.3c0-.091.045-.144.127-.144Zm6.658,2.434V49.46H146.69v.646Zm-3.024,0V49.46h-2.257v.646Zm.664,1.789V52.5h2.622v-.609Zm0,1.2v.609h2.622v-.609Zm7.358-4.073H155.1V47.054c0-.044.034-.066.1-.066q.684,0,.684.1c0,.075-.025.119-.075.131s-.086.066-.086.178v1.611h.824q.121,0,.121.14v.309c0,.1-.04.15-.121.15h-.693a7.9,7.9,0,0,0,.257.8,4.276,4.276,0,0,0,.552.993.108.108,0,0,1,.047.086q0,.028-.066.074a1.657,1.657,0,0,1-.257.271c-.038.044-.068.066-.093.066s-.053-.019-.086-.056a5.222,5.222,0,0,1-.477-.955.068.068,0,0,1-.009-.028v4.711c0,.086-.047.121-.14.121h-.384c-.068,0-.1-.04-.1-.121V51.6q-.113.393-.215.74a7.025,7.025,0,0,1-.428,1.086.221.221,0,0,1-.14-.038q-.187-.085-.375-.187c-.05,0-.074-.013-.074-.038a10.305,10.305,0,0,0,.543-1.264,7.53,7.53,0,0,0,.328-1.142,10.317,10.317,0,0,0,.215-1.152h-.906c-.068,0-.1-.05-.1-.15v-.3q0-.141.1-.141Zm3.97-2.022.646.356a.47.47,0,0,1,.038.086c0,.044-.047.066-.14.066q-.187,0-.234.086-.346.674-.664,1.227.178.206.337.428.356-.609.581-1.086a3.373,3.373,0,0,1,.571.513c0,.038-.028.056-.086.056q-.15,0-.187.066-.552.993-1.1,1.826l.749-.086a4.488,4.488,0,0,0-.171-.428q0-.047.375-.234.178.4.3.74a6.322,6.322,0,0,1,.178.656,1.568,1.568,0,0,1-.44.15q-.038-.225-.121-.534l-1.526.458a1.074,1.074,0,0,1-.271.215,3.974,3.974,0,0,1-.14-.749q0-.028.365-.093.422-.655.7-1.124a7.15,7.15,0,0,0-.524-.487,4.773,4.773,0,0,0-.581-.393q0-.074.337-.428.037-.056.074-.056.093.086.2.187a6.271,6.271,0,0,0,.327-.59q.288-.552.4-.824Zm3.455.028.628.365a.464.464,0,0,1,.038.086c0,.044-.044.066-.131.066q-.187,0-.244.093-.356.609-.684,1.124.14.187.291.375.056-.086.1-.15.4-.59.664-1.058a2.993,2.993,0,0,1,.571.534c0,.032-.028.047-.086.047q-.171,0-.206.056-.628.927-1.218,1.7l.855-.066a3.686,3.686,0,0,0-.131-.365q0-.047.412-.263.159.4.271.74a5.53,5.53,0,0,1,.178.656,1.829,1.829,0,0,1-.487.14,3.633,3.633,0,0,0-.121-.534.086.086,0,0,1-.009-.038l-1.6.393a1.231,1.231,0,0,1-.257.215,3.05,3.05,0,0,1-.159-.749q0-.028.356-.066.365-.477.637-.861a5.972,5.972,0,0,0-.487-.45,4.09,4.09,0,0,0-.581-.384,1.559,1.559,0,0,1,.337-.428.1.1,0,0,1,.075-.047q.1.086.215.187.187-.271.346-.543.29-.513.421-.778Zm-4.654,4.764h2.8q-.122-.655-.178-1.273-.113-1.208-.112-3.493c0-.044.027-.066.086-.066l.618.056c.056.013.086.04.086.086s-.034.08-.1.112a.267.267,0,0,0-.075.2,24.054,24.054,0,0,0,.234,3.933q.047.234.086.45h1.46a3.311,3.311,0,0,0-.505-.393.074.074,0,0,1-.038-.056.272.272,0,0,1,.019-.1l.215-.318a.237.237,0,0,1,.1-.028.171.171,0,0,1,.047.019,3.9,3.9,0,0,1,.59.478.086.086,0,0,1,.028.056.152.152,0,0,1-.028.093l-.178.257h.7q.074,0,.074.1V52.2c0,.094-.025.14-.074.14h-2.3a5.263,5.263,0,0,0,.291.946q.121.3.244.534a1.719,1.719,0,0,0,.257-.318,2.559,2.559,0,0,0,.384-.729.114.114,0,0,1,.112-.056q.721.263.721.337a.12.12,0,0,1-.075.112.245.245,0,0,0-.206.086,4.5,4.5,0,0,1-.628.917l-.206.206a1.93,1.93,0,0,0,.233.263.817.817,0,0,0,.505.3q.074,0,.131-.187a2.029,2.029,0,0,0,.131-.646.037.037,0,0,1,.038-.028.136.136,0,0,1,.093.047,1.721,1.721,0,0,1,.271.159q.121.066.121.086a4.935,4.935,0,0,1-.354.957.738.738,0,0,1-.187.215.466.466,0,0,1-.215.066,1.384,1.384,0,0,1-.74-.263,5.423,5.423,0,0,1-.513-.552.807.807,0,0,1-.086.074,7.042,7.042,0,0,1-1.358.684.57.57,0,0,1-.14.019.176.176,0,0,1-.159-.093,1.161,1.161,0,0,0-.225-.234.143.143,0,0,1-.066-.121q0-.019.056-.038a2.93,2.93,0,0,0,.6-.2,4.452,4.452,0,0,0,.888-.5.74.74,0,0,0,.131-.1.027.027,0,0,0-.009-.019,9.3,9.3,0,0,1-.656-1.807q-.009-.065-.019-.112h-1.5l-.074.618a8.412,8.412,0,0,1,1.112,1.1.11.11,0,0,1,.056.093q0,.038-.056.056-.291.318-.356.318a.107.107,0,0,1-.075-.038,7.361,7.361,0,0,0-.824-.824,4.444,4.444,0,0,1-.178.609,5.789,5.789,0,0,1-.7,1.273q-.038.056-.047.056-.075,0-.187-.131-.178-.159-.337-.327c-.056-.019-.086-.04-.086-.066a.1.1,0,0,1,.009-.047,3.307,3.307,0,0,0,.7-.983,3.874,3.874,0,0,0,.262-.787,5.977,5.977,0,0,0,.14-.917h-.777c-.044,0-.066-.047-.066-.14V51.9c0-.075.022-.109.066-.109Zm9.39-2.884h.861V47.165c0-.074.047-.112.14-.112q.711,0,.711.112c0,.086-.028.138-.086.15s-.093.068-.093.187v1.4h.965c.05,0,.075.038.075.112v.3c0,.094-.025.14-.075.14h-.872a5.623,5.623,0,0,0,.327.889,4.617,4.617,0,0,0,.674,1.077.109.109,0,0,1,.066.093c0,.019-.025.047-.074.086a1.9,1.9,0,0,1-.271.291c-.05.05-.086.075-.112.075a.186.186,0,0,1-.1-.056,5.409,5.409,0,0,1-.571-1.026.324.324,0,0,1-.028-.086v4.851q0,.113-.159.112h-.375c-.094,0-.14-.038-.14-.112V51.719q-.056.2-.121.384a9.593,9.593,0,0,1-.44,1.058.219.219,0,0,1-.159-.047q-.2-.1-.4-.2c-.05,0-.074-.015-.074-.047a9.17,9.17,0,0,0,.543-1.218,7.547,7.547,0,0,0,.327-1.1,10.358,10.358,0,0,0,.225-1.1h-.758c-.05,0-.075-.047-.075-.14v-.3c0-.075.026-.112.075-.112Zm2.884-1.086h1.124v-.563c0-.056.034-.086.1-.086q.684,0,.684.121c0,.075-.025.115-.075.121s-.086.062-.086.171v.234h1.539v-.563c0-.056.04-.086.121-.086q.664,0,.664.121c0,.075-.025.115-.075.121s-.065.062-.065.171v.234h1.2c.044,0,.065.034.065.1v.3c0,.1-.022.15-.065.15h-1.2v.675h.824q.066,0,.066.112v.3c0,.075-.022.112-.066.112h-.824v.609h1.454c.056,0,.086.034.086.1v.309c0,.094-.028.14-.086.14h-2.612v.534h1.71c.131,0,.2.038.2.112v2.284h.749c.05,0,.075.038.075.112v.3c0,.094-.025.14-.075.14h-.749v1.1q0,.234-.346.384a3.639,3.639,0,0,1-.855.131.117.117,0,0,1-.131-.1,1.757,1.757,0,0,0-.206-.609q0-.028.056-.028a2.687,2.687,0,0,0,.684-.047.171.171,0,0,0,.112-.171V54.2h-3.146v1.431q0,.113-.14.112h-.375c-.106,0-.159-.038-.159-.112V54.2h-.7c-.056,0-.086-.047-.086-.14v-.3q0-.112.086-.112h.7V51.366c0-.074.053-.112.159-.112h1.789v-.534h-2.394c-.05,0-.075-.047-.075-.14v-.309c0-.068.025-.1.075-.1h1.4V49.56h-.824c-.05,0-.075-.038-.075-.112v-.3c0-.075.025-.112.075-.112h.824v-.674h-1.123c-.05,0-.075-.05-.075-.15v-.3c0-.068.025-.1.075-.1Zm.855,5.843h1.273v-.646h-1.273Zm1.92,0h1.227v-.646h-1.227Zm-1.022-3.484h1.539v-.609h-1.539Zm1.539-1.133v-.674h-1.539v.675Zm-2.434,3.455h1.273v-.684H169.95Zm1.92-.684v.684H173.1v-.684Zm7.685-4.859.711.384a.64.64,0,0,1,.038.093q0,.086-.14.086a.289.289,0,0,0-.271.112q-.506.758-.974,1.376.29.291.571.628l.009-.028q.552-.721.927-1.311a3.886,3.886,0,0,1,.664.609q0,.056-.1.056-.234,0-.291.066-.824,1.152-1.629,2.1.628-.086,1.517-.171a6.468,6.468,0,0,0-.281-.674q0-.056.5-.3a9.7,9.7,0,0,1,.375.983,5.217,5.217,0,0,1,.256.855,1.854,1.854,0,0,1-.552.187,5.926,5.926,0,0,0-.159-.637l-.862.215v3.98c0,.086-.047.121-.14.121h-.375c-.106,0-.159-.04-.159-.121V51.747l-1,.257q-.234.263-.271.263a4.309,4.309,0,0,1-.178-.889q0-.047.477-.121.628-.749,1.021-1.283a8.638,8.638,0,0,0-.664-.581,4.282,4.282,0,0,0-.77-.45q0-.086.375-.468c.025-.044.05-.066.075-.066q.131.113.263.215.262-.365.477-.721.4-.627.569-.946Zm-1.376,5.58q.674.141.674.215a.138.138,0,0,1-.085.121.232.232,0,0,0-.093.171,11.01,11.01,0,0,1-.2,1.386,6.206,6.206,0,0,1-.171.618c-.025.044-.047.066-.066.066a4.173,4.173,0,0,0-.513-.131.085.085,0,0,1-.075-.086,8.818,8.818,0,0,0,.257-.88,8.466,8.466,0,0,0,.187-1.386q0-.094.086-.094Zm2.463-.112c.019,0,.032.025.038.074a12.756,12.756,0,0,1,.534,1.789q0,.086-.534.159c-.062,0-.093-.027-.093-.086a13.525,13.525,0,0,0-.393-1.789q0-.075.449-.15Zm3.118-5.506.513.121q.121.028.121.131,0,.141-.131.14a.171.171,0,0,0-.093.121,3.2,3.2,0,0,1-.225.412h1.976q.159,0,.159.112v3.268q0,.113-.159.112H184.31v.44q.215.59.393,1a2.571,2.571,0,0,0,.342-.233,3.806,3.806,0,0,0,.646-.684.164.164,0,0,1,.086-.047q.513.458.513.524c0,.044-.034.066-.1.066q-.171,0-.187.056a6.147,6.147,0,0,1-1.021.88,3.932,3.932,0,0,0,.428.609,3.841,3.841,0,0,0,.609.59,4.041,4.041,0,0,0,.609.428.11.11,0,0,1-.056.093,1.6,1.6,0,0,0-.234.3c-.019.032-.06.047-.121.047a4.644,4.644,0,0,1-.824-.609,6.19,6.19,0,0,1-.628-.758q-.225-.337-.458-.77v1.667q0,.711-1.161.711h-.327q-.075,0-.075-.187a1.422,1.422,0,0,0-.159-.487v-.038a2.036,2.036,0,0,0,.524.074q.534,0,.534-.346V51.336H181.99q-.159,0-.159-.112V47.956q0-.112.159-.112h1.273a7.669,7.669,0,0,0,.375-.855.109.109,0,0,1,.116-.073Zm1.676,3.848v-.9h-2.953v.9Zm-2.949-1.454h2.946V48.4h-2.95Zm-1.021,2.687h1.507q.171,0,.206.047.271.215.271.327a8.107,8.107,0,0,1-.684,1.47,4.089,4.089,0,0,1-.6.815q-.356.356-.805.749a.1.1,0,0,1-.093-.056q-.149-.224-.28-.4a.075.075,0,0,1-.038-.056.2.2,0,0,1,.019-.1,3.536,3.536,0,0,0,.637-.44,3.472,3.472,0,0,0,.674-.777,3.3,3.3,0,0,0,.422-.787,1.407,1.407,0,0,0,.075-.178h-1.311c-.068,0-.1-.05-.1-.15v-.3q0-.159.1-.159Zm12-5.009q.749,0,.749.1,0,.132-.093.15t-.086.187v2.959h3.4q.121,0,.121.159v.375c0,.094-.041.14-.121.14h-3.4v3.668h4.186q.121,0,.121.159v.375c0,.094-.041.14-.121.14h-8.305c-.086,0-.121-.047-.121-.14v-.375q0-.159.121-.159h3.4V47.086q0-.094.146-.094Zm8.967,1.339h3.259V47.2c0-.075.053-.112.159-.112q.749,0,.749.112,0,.132-.1.15c-.062.006-.093.068-.093.187v.787h3.078q.14,0,.14.121V53.53q0,.122-.14.121h-.375q-.159,0-.159-.121v-.45H206.4v2.51q0,.122-.178.121h-.375c-.106,0-.159-.04-.159-.121V53.08h-2.736v.45q0,.122-.15.121h-.375c-.094,0-.14-.04-.14-.121V48.485q0-.154.139-.154Zm.524,4.167h2.736V51h-2.736Zm3.446-1.5v1.5h2.548V51Zm-3.446-.609h2.736V48.93h-2.736Zm3.447-1.454v1.454h2.541V48.93Zm8.444-1.918q.711,0,.711.112,0,.132-.093.15t-.086.187v.721h1.039q.121,0,.121.14v.3q0,.15-.121.15H213.65q-.112,0-.112-.15v-.3q0-.14.112-.14H214.7V47.134q0-.113.149-.113Zm-.59,1.918q.187.458.318.855.112.356.2.758a2.418,2.418,0,0,1-.552.178,5.522,5.522,0,0,0-.14-.628,6.816,6.816,0,0,0-.309-.862q-.005-.058.481-.293Zm1.539,0,.477.178q.112.047.112.121a.1.1,0,0,1-.047.093c-.038,0-.059.034-.066.1a9.036,9.036,0,0,1-.318,1.236c-.025.062-.044.093-.056.093a.3.3,0,0,1-.131-.047q-.178-.074-.318-.14c-.044-.013-.065-.022-.065-.028a.394.394,0,0,1,.009-.074,5.587,5.587,0,0,0,.206-.674,4.847,4.847,0,0,0,.159-.758c.006-.068.019-.1.038-.1Zm-2.145,1.864h2.659q.112,0,.112.159v.3c0,.1-.038.15-.112.15h-.855v.964q0,.141-.009.257.45-.121.855-.263a.062.062,0,0,1,.047-.019q.074,0,.075.121a1.5,1.5,0,0,1-.038.487q-.487.141-.965.271a6.409,6.409,0,0,1-.112.729,2.681,2.681,0,0,1-.534,1.112,3.15,3.15,0,0,1-.664.656.239.239,0,0,1-.178-.066,2.481,2.481,0,0,0-.257-.3.182.182,0,0,1-.065-.121,2.811,2.811,0,0,0,1.058-1.454q.038-.187.066-.384l-.861.225q-.132.257-.225.257-.075,0-.327-.749.581-.093,1.414-.309a.522.522,0,0,1,.066-.028q.009-.2.009-.393v-.983H213.65c-.075,0-.112-.05-.112-.15v-.3q0-.161.112-.161Zm3.006-1.413h.571q.019-.74.019-1.611,0-.187-.038-.646c0-.05.04-.075.121-.075l.618.066c.086.019.131.047.131.086a.13.13,0,0,1-.086.14.19.19,0,0,0-.14.2q0,1.039-.019,1.844h.983q.159,0,.159.14,0,2.922-.074,4.027a6.263,6.263,0,0,1-.225,1.432.694.694,0,0,1-.318.469,1.309,1.309,0,0,1-.656.14q-.487,0-.505-.178a2.353,2.353,0,0,0-.1-.45c0-.05.013-.074.038-.074q0,.009.056.028a1.634,1.634,0,0,0,.355.048.62.62,0,0,0,.524-.187,2.41,2.41,0,0,0,.206-1.058q.085-.927.093-3.783h-.553q-.038,1.067-.112,1.742a10.672,10.672,0,0,1-.552,2.5,6.865,6.865,0,0,1-.664,1.376h-.1q-.271-.074-.524-.171c-.019-.013-.028-.04-.028-.086a6.222,6.222,0,0,0,.758-1.423,7.54,7.54,0,0,0,.468-1.938,16.8,16.8,0,0,0,.15-2h-.552c-.075,0-.112-.047-.112-.14v-.309q-.007-.094.106-.094Zm3.7-2.294q.711,0,.711.112c0,.086-.028.138-.086.15s-.093.068-.093.187v.646h1.236q.112,0,.112.14v.3q0,.15-.112.15h-3.043q-.1,0-.1-.15v-.3c0-.093.034-.14.1-.14h1.132V47.2c-.007-.067.039-.105.133-.105Zm-.552,1.807q.206.469.346.87a6.771,6.771,0,0,1,.206.777,2.418,2.418,0,0,1-.552.178,4.177,4.177,0,0,0-.159-.646,7.708,7.708,0,0,0-.327-.889q-.009-.047.478-.281Zm1.611.038.477.178q.112.047.112.121a.1.1,0,0,1-.047.093q-.066,0-.085.1a6.886,6.886,0,0,1-.366,1.2c-.025.062-.044.093-.056.093a.307.307,0,0,1-.14-.047q-.178-.074-.318-.14c-.044-.013-.066-.022-.066-.028a.211.211,0,0,1,.019-.074,5.066,5.066,0,0,0,.234-.656,4.171,4.171,0,0,0,.187-.74c.012-.069.027-.1.046-.1Zm-2.06,1.863h2.736q.112,0,.112.159v.3c0,.1-.038.15-.112.15h-1.086v1.264h1q.121,0,.121.159v.291q0,.159-.121.159h-1V55.59c0,.086-.053.121-.159.121h-.365c-.106,0-.159-.04-.159-.121V53.276h-.965c-.086,0-.121-.053-.121-.159v-.291c0-.106.04-.159.121-.159h.965V51.4h-.965c-.086,0-.121-.05-.121-.15v-.3c0-.106.04-.159.121-.159Zm13.5-3.062a1.92,1.92,0,0,0-.281.028q-.721.132-1.7.234-.412.056-.8.086l.257.14a.648.648,0,0,1,.056.1c0,.05-.056.074-.171.074a.315.315,0,0,0-.291.121q-.749.777-1.432,1.4.422.291.843.637.384-.318.674-.571a18.4,18.4,0,0,0,1.414-1.292,3.713,3.713,0,0,1,.684.646q0,.056-.187.056a.886.886,0,0,0-.428.066q-1.3,1.133-2.575,2.069,1.526-.086,3.773-.187a7.618,7.618,0,0,0-.693-1q0-.056.487-.291a11.083,11.083,0,0,1,.889,1.348,6.218,6.218,0,0,1,.563,1.2,2.7,2.7,0,0,1-.59.178,4.447,4.447,0,0,0-.422-1.012l-2.837.291V55.59c0,.086-.053.121-.159.121h-.377c-.106,0-.159-.04-.159-.121V52.125l-3.146.328a1.416,1.416,0,0,1-.291.291,3.8,3.8,0,0,1-.2-.941,15.022,15.022,0,0,1,2.266-.215q.5-.375.908-.711-.7-.468-1.067-.674a7.493,7.493,0,0,0-1.133-.487q0-.086.4-.505c.032-.044.062-.066.093-.066q.375.2.749.428a9.433,9.433,0,0,0,.787-.805q.337-.384.543-.628-.327.028-.628.047-1.18.056-2.163.056-.171,0-.206-.121-.132-.187-.281-.393a.1.1,0,0,1,.086-.112.109.109,0,0,1,.028,0h.552q1.32,0,2.266-.075.861-.028,1.723-.131a11.248,11.248,0,0,0,1.685-.3.546.546,0,0,1,.14-.028.244.244,0,0,1,.159.047q.552.469.552.6c0,.068-.041.1-.121.1ZM227.754,53l.524.393a.2.2,0,0,1,.086.131q0,.047-.1.056a.323.323,0,0,0-.215.085,6.156,6.156,0,0,1-.786.778,8.277,8.277,0,0,1-1.254.815.156.156,0,0,1-.159-.086q-.2-.15-.337-.263c-.05-.019-.075-.04-.075-.066s.019-.047.056-.066a2.234,2.234,0,0,0,.6-.271,4.925,4.925,0,0,0,.889-.664,8.982,8.982,0,0,0,.711-.77c.015-.04.037-.066.055-.066Zm4.008,0a7.262,7.262,0,0,0,1.048.974,6.919,6.919,0,0,0,1.142.618q.1.075.1.131a1.983,1.983,0,0,1-.375.45.54.54,0,0,1-.131-.028,9.645,9.645,0,0,1-2.126-1.62c-.05-.056-.075-.093-.075-.112q0-.075.413-.412Zm7.439-6.1.74.412a.694.694,0,0,1,.047.1q0,.085-.171.085a.3.3,0,0,0-.281.112q-.458.721-.87,1.32.337.309.674.646l.009-.009q.563-.749.936-1.368a3.363,3.363,0,0,1,.664.609q0,.066-.112.066-.234,0-.291.074-.881,1.255-1.732,2.314.581-.047,1.376-.121-.113-.29-.244-.571,0-.065.487-.309a7.733,7.733,0,0,1,.384.983q.14.4.257.861a2.555,2.555,0,0,1-.571.178,4.531,4.531,0,0,0-.171-.729v-.009l-.834.178v3.82c0,.086-.053.121-.159.121h-.378c-.094,0-.14-.04-.14-.121V51.875l-1.133.244q-.225.257-.263.257a4.368,4.368,0,0,1-.187-.9,2.968,2.968,0,0,1,.749-.121q.627-.787,1.067-1.368-.563-.468-.843-.664a5.245,5.245,0,0,0-.9-.5q0-.093.4-.505c.025-.044.053-.066.086-.066a2.962,2.962,0,0,1,.393.3q.262-.365.469-.711.364-.618.533-.928Zm-1.438,5.73q.674.15.674.234a.136.136,0,0,1-.066.112.257.257,0,0,0-.112.171,12.033,12.033,0,0,1-.206,1.386q-.075.3-.178.618c-.032.05-.056.075-.075.075a3.111,3.111,0,0,0-.513-.14.086.086,0,0,1-.075-.086,7.308,7.308,0,0,0,.28-.881,8.245,8.245,0,0,0,.187-1.386q0-.1.085-.1Zm2.668,0q.019,0,.028.074a11.352,11.352,0,0,1,.525,1.648q0,.1-.552.2-.1,0-.1-.074a14.747,14.747,0,0,0-.384-1.648q0-.093.487-.2Zm2.912-5.684q.711,0,.711.1,0,.132-.086.14t-.093.206v.815h2.1q.065,0,.066.112v.3c0,.1-.022.15-.066.15h-2.453q-.534,1.264-.787,1.826.927-.093,1.92-.215-.234-.524-.45-.941,0-.093.412-.3a.15.15,0,0,1,.121.038,20.792,20.792,0,0,1,1.077,2.247q0,.14-.056.15a1.123,1.123,0,0,1-.534.226q-.178-.477-.346-.88-1.611.225-3.024.365-.1,0-.15.131-.019.244-.15.244t-.412-.946q.159,0,.618-.038l.225-.019q.047-.112.093-.215.421-.917.729-1.676h-1.629c-.05,0-.074-.05-.074-.15v-.3c0-.075.025-.112.074-.112H243.2V47.054c0-.069.048-.1.142-.1ZM242.3,51.673a4.8,4.8,0,0,1,.824.14.086.086,0,0,1-.075.1h-.009a.256.256,0,0,0-.112.244v.375a6.862,6.862,0,0,1-.065.889,2.9,2.9,0,0,1-.263.945,2.781,2.781,0,0,1-.505.74,3.325,3.325,0,0,1-.74.609q-.047,0-.1-.085a1.386,1.386,0,0,0-.3-.271c-.056-.032-.086-.062-.086-.093a3.811,3.811,0,0,0,.721-.571,2.12,2.12,0,0,0,.365-.543,3.038,3.038,0,0,0,.234-.8,4.491,4.491,0,0,0,.075-.824v-.749c0-.076.011-.114.037-.114Zm1.611.038q.664.047.664.14a.41.41,0,0,1-.075.2v2.725c0,.106.025.159.075.159h.609q.171,0,.337-.983l.59.375q-.3,1.236-.749,1.236h-1.038q-.487,0-.487-.45v-3.3q0-.1.074-.1Z" transform="translate(-10.233 -6.738)" fill="#50c1e9"/>
    </g>
  </g>
</svg>
