<?xml version="1.0" encoding="utf-8"?>
<!-- Generator: Adobe Illustrator 27.7.0, SVG Export Plug-In . SVG Version: 6.00 Build 0)  -->
<svg version="1.1" id="Layer_1" xmlns="http://www.w3.org/2000/svg" xmlns:xlink="http://www.w3.org/1999/xlink" x="0px" y="0px"
	 viewBox="0 0 556 60" style="enable-background:new 0 0 556 60;" xml:space="preserve">
<style type="text/css">
	.st0{fill:#FFCB40;}
	.st1{fill:#0054A5;}
	.st2{fill:#58595B;}
	.st3{fill:#5BCAF4;}
	.st4{fill:#4B4A4A;}
	.st5{fill:url(#SVGID_1_);}
</style>
<g>
	<g>
		<circle class="st0" cx="29.9" cy="29.2" r="27.3"/>
		<path class="st1" d="M29.9,56.7c-15.2,0-27.5-12.3-27.5-27.5S14.7,1.7,29.9,1.7S57.4,14,57.4,29.2S45.1,56.7,29.9,56.7z M29.9,2.2
			c-14.9,0-27,12.1-27,27s12.1,27,27,27s27-12.1,27-27C57,14.3,44.8,2.2,29.9,2.2z"/>
	</g>
	<g>
		<path class="st2" d="M9.2,18.8l-2.1-1.3l0.3-0.5l1.8,0.4l0.4,0.1c-0.1-0.1-0.2-0.2-0.2-0.3l-1.2-1.4l0.2-0.4l2.1,1.3l-0.2,0.3
			l-1.8-1.1l1.3,1.8L9.7,18l-2.2-0.6l1.8,1.2L9.2,18.8z"/>
		<path class="st2" d="M9.2,14.9l-0.3-0.2l0.2-0.2l0.2,0.2L9.2,14.9z M10.9,16.2l-1.5-1.1l0.2-0.2l1.5,1.1L10.9,16.2z"/>
		<path class="st2" d="M11.5,15.4l-1.4-1.2l0.2-0.2l0.2,0.2c0-0.1,0-0.2,0-0.3s0.1-0.2,0.2-0.3c0.1-0.1,0.2-0.2,0.2-0.2
			c0.1-0.1,0.2-0.1,0.3-0.1c0.1,0,0.2,0,0.2,0c0.1,0,0.2,0.1,0.3,0.2l0.8,0.8l-0.2,0.2l-0.8-0.7c-0.1-0.1-0.2-0.2-0.2-0.2
			c-0.1,0-0.2,0-0.2,0c-0.1,0-0.2,0.1-0.2,0.2c-0.1,0.1-0.2,0.2-0.2,0.4s0.1,0.2,0.2,0.4l0.8,0.7L11.5,15.4z"/>
		<path class="st2" d="M11.3,12.3L11.1,12l0.2-0.3l0.2,0.3L11.3,12.3z M12.8,13.8l-1.3-1.2l0.3-0.3l1.3,1.3L12.8,13.8z"/>
		<path class="st2" d="M13,12.8l0.2-0.2c0.1,0.1,0.2,0.1,0.3,0.1c0.1,0,0.2-0.1,0.3-0.2c0.1-0.1,0.2-0.2,0.2-0.3
			c0-0.1,0-0.2-0.1-0.2c-0.1-0.1-0.1-0.1-0.2-0.1s-0.2,0.1-0.3,0.2c-0.2,0.2-0.4,0.2-0.5,0.2s-0.2,0-0.2,0c-0.1,0-0.2-0.1-0.2-0.1
			c-0.1-0.1-0.2-0.2-0.1-0.4c0-0.2,0.2-0.3,0.3-0.5c0.1-0.1,0.2-0.2,0.3-0.2c0.1-0.1,0.2-0.1,0.3-0.1c0.1,0,0.2,0.1,0.2,0.1
			l-0.2,0.2c-0.2-0.1-0.3-0.1-0.5,0.1c-0.1,0.1-0.2,0.2-0.2,0.2s0,0.2,0,0.2c0.1,0.1,0.1,0.1,0.2,0.1c0.1,0,0.2-0.1,0.3-0.2
			c0.2-0.2,0.4-0.2,0.5-0.2c0.1,0,0.2,0,0.2,0c0.1,0,0.2,0.1,0.2,0.2c0.1,0.1,0.2,0.2,0.2,0.4c0,0.2-0.2,0.3-0.3,0.5
			C13.6,12.9,13.3,13,13,12.8z"/>
		<path class="st2" d="M15.3,11.1l0.2,0.2c-0.1,0.1-0.1,0.2-0.2,0.2c-0.1,0.1-0.2,0.1-0.2,0.2c-0.1,0-0.2,0-0.2,0
			c-0.1,0-0.2-0.1-0.2-0.2l-0.7-0.8l-0.3,0.2l-0.2-0.2l0.2-0.2L13.5,10l0.2-0.3l0.4,0.5l0.2-0.2l0.2,0.2l-0.3,0.2l0.7,0.8
			c0.1,0.1,0.1,0.1,0.2,0.2c0.1,0,0.1,0,0.2-0.1C15.2,11.2,15.2,11.1,15.3,11.1z"/>
		<path class="st2" d="M15.7,11l-1.1-1.4l0.2-0.2l0.2,0.2c0-0.2,0-0.2,0-0.3c0-0.1,0.1-0.2,0.2-0.2c0.1-0.1,0.2-0.1,0.3-0.2l0.1,0.3
			c-0.1,0-0.2,0.1-0.2,0.1c-0.1,0.1-0.1,0.1-0.1,0.2c0,0.1,0,0.2,0,0.2c0,0.1,0.1,0.3,0.2,0.3l0.6,0.7L15.7,11z"/>
		<path class="st2" d="M17.2,10.9L17,10.6c0.1,0,0.2-0.1,0.2-0.1c0.1,0,0.1-0.1,0.2-0.1c0-0.1,0-0.1,0-0.2c0,0,0-0.2-0.1-0.3
			l-1.7-1.1l0.3-0.2l0.9,0.7c0.1,0.1,0.2,0.2,0.3,0.2c-0.1-0.2-0.1-0.2-0.1-0.4l-0.2-1.1l0.2-0.2l0.4,1.9c0.1,0.3,0.1,0.4,0.1,0.5
			c0,0.1,0,0.2-0.1,0.2c0,0.1-0.1,0.2-0.2,0.2C17.3,10.8,17.2,10.9,17.2,10.9z"/>
		<path class="st2" d="M18.9,7.9c-0.2-0.2-0.2-0.5-0.1-0.7c0.1-0.2,0.2-0.4,0.5-0.5c0.3-0.1,0.5-0.1,0.8,0c0.2,0.1,0.4,0.3,0.5,0.5
			c0.2,0.3,0.2,0.6,0.1,0.7c-0.1,0.3-0.2,0.4-0.5,0.5s-0.5,0.2-0.7,0.1C19.2,8.4,19.1,8.2,18.9,7.9z M19.2,7.8
			c0.1,0.2,0.2,0.3,0.4,0.4c0.2,0.1,0.3,0.1,0.4,0c0.2-0.1,0.2-0.2,0.3-0.3s0-0.3-0.1-0.6C20.2,7,20.1,7,20,6.9
			c-0.2-0.1-0.3-0.1-0.4,0C19.4,7,19.3,7,19.2,7.2S19.1,7.5,19.2,7.8z"/>
		<path class="st2" d="M21.5,7.8l-0.6-1.5l-0.2,0.1l-0.1-0.2L20.8,6l0-0.2c-0.1-0.2-0.1-0.2-0.1-0.3c0-0.1,0.1-0.2,0.1-0.3
			c0.1-0.1,0.2-0.1,0.2-0.2c0.1,0,0.2-0.1,0.3-0.1l0.1,0.2c-0.1,0-0.2,0-0.2,0.1c-0.1,0-0.2,0.1-0.2,0.2c0,0.1,0,0.2,0,0.2l0.1,0.2
			l0.3-0.2L21.6,6l-0.3,0.2l0.6,1.5L21.5,7.8z"/>
		<path class="st2" d="M23.6,7l-0.5-2.4l0.3-0.1l0.2,1L25,5.2l-0.2-1l0.3-0.1l0.5,2.4l-0.3,0.1L25,5.4l-1.4,0.3l0.2,1.2L23.6,7z"/>
		<path class="st2" d="M27.6,5.8h0.3c0,0.2-0.2,0.3-0.2,0.5c-0.2,0.1-0.3,0.2-0.6,0.2s-0.5,0-0.7-0.2c-0.2-0.2-0.3-0.3-0.3-0.7
			s0-0.6,0.2-0.8c0.2-0.2,0.3-0.2,0.7-0.3c0.2,0,0.5,0,0.7,0.2c0.2,0.2,0.3,0.3,0.3,0.7v0.1l-1.5,0.3c0,0.2,0.1,0.3,0.2,0.4
			c0.1,0.1,0.2,0.2,0.4,0.1C27.3,6.2,27.5,6,27.6,5.8z M26.4,5.4l1.1-0.2c0-0.2-0.1-0.2-0.2-0.3c-0.1-0.1-0.2-0.2-0.4-0.1
			c-0.2,0-0.2,0.1-0.3,0.2C26.5,5.1,26.4,5.3,26.4,5.4z"/>
		<path class="st2" d="M29.7,6c-0.1,0.1-0.2,0.2-0.3,0.2c-0.1,0.1-0.2,0.1-0.4,0.1c-0.2,0-0.3,0-0.5-0.2c-0.1,0-0.2-0.1-0.2-0.3
			c0-0.1,0-0.2,0.1-0.2c0.1-0.1,0.2-0.2,0.2-0.2c0.1-0.1,0.2-0.1,0.4-0.1c0.2,0,0.5-0.1,0.6-0.1V5.2c0-0.1,0-0.3-0.1-0.3
			c-0.1-0.1-0.2-0.1-0.4-0.1c-0.2,0-0.2,0-0.3,0.1c-0.1,0.1-0.2,0.2-0.2,0.3h-0.3c0.1-0.2,0.2-0.3,0.2-0.4c0.2-0.1,0.3-0.2,0.6-0.2
			c0.2,0,0.3,0,0.5,0.1c0.1,0.1,0.2,0.2,0.2,0.2C30,4.8,30,4.9,30,5.1v0.4c0,0.3,0,0.5,0,0.6c0,0.1,0.1,0.2,0.1,0.2h-0.3
			C29.7,6.2,29.7,6.1,29.7,6z M29.6,5.4c-0.1,0.1-0.3,0.1-0.6,0.2c-0.2,0-0.2,0.1-0.3,0.1c-0.1,0-0.1,0.1-0.2,0.1
			c0,0.1-0.1,0.1-0.1,0.2c0,0.1,0,0.2,0.1,0.2c0.1,0.1,0.2,0.1,0.3,0.1c0.1,0,0.2,0,0.3-0.1c0.1-0.1,0.2-0.1,0.2-0.2
			c0.1-0.1,0.1-0.2,0.1-0.3L29.6,5.4z"/>
		<path class="st2" d="M30.6,6.3l0.1-2.5H31l-0.1,2.5H30.6z"/>
		<path class="st2" d="M32.3,6.1v0.2c-0.1,0-0.2,0-0.2,0c-0.1,0-0.2,0-0.2-0.1c-0.1,0-0.1-0.1-0.2-0.2c0-0.1,0-0.2,0-0.3l0.1-1h-0.2
			V4.5h0.2V4.1L32.1,4L32,4.6h0.3v0.2H32L31.9,6c0,0.1,0,0.2,0,0.2c0,0.1,0.1,0.1,0.2,0.1C32.1,6.1,32.2,6.1,32.3,6.1z"/>
		<path class="st2" d="M32.7,6.4L33,3.9h0.3l-0.2,0.9c0.1-0.1,0.2-0.1,0.2-0.2c0.1,0,0.2,0,0.3,0c0.2,0,0.3,0.1,0.5,0.2
			c0.1,0.1,0.2,0.3,0.1,0.6l-0.2,1.2l-0.3-0.1L34,5.4c0-0.2,0-0.2-0.1-0.3C33.8,5,33.7,5,33.6,4.9c-0.2,0-0.2,0-0.4,0.1
			c-0.1,0.1-0.2,0.2-0.2,0.4l-0.2,1L32.7,6.4z"/>
		<path class="st2" d="M37.1,7.1c-0.2,0.1-0.2,0.1-0.4,0.1s-0.2,0-0.4,0C36.1,7.1,36,7,35.9,6.9c-0.1-0.1-0.1-0.2-0.1-0.4
			c0-0.1,0.1-0.2,0.2-0.2c0.1-0.1,0.2-0.1,0.2-0.1s0.2,0,0.5,0c0.2,0.1,0.5,0.1,0.6,0.1V6.2c0-0.1,0-0.2,0-0.2
			c-0.1-0.1-0.2-0.2-0.3-0.2c-0.2,0-0.2-0.1-0.3,0c-0.1,0-0.2,0.1-0.2,0.2l-0.2-0.3c0.1-0.2,0.2-0.2,0.4-0.3c0.2-0.1,0.3,0,0.7,0
			c0.2,0.1,0.3,0.2,0.4,0.3c0.1,0.1,0.2,0.2,0.2,0.2s0,0.3-0.1,0.4l-0.1,0.4c-0.1,0.2-0.2,0.4-0.2,0.5c0,0.1,0,0.2,0,0.2l-0.3-0.1
			C37.1,7.3,37.1,7.2,37.1,7.1z M37.3,6.4c-0.2,0-0.3,0-0.6,0c-0.2,0-0.2,0-0.3,0c-0.1,0-0.1,0-0.2,0.1c0,0-0.1,0.1-0.1,0.2
			c0,0.1,0,0.2,0.1,0.2C36.3,7,36.4,7,36.5,7.1c0.1,0,0.2,0,0.3,0C36.9,7.1,37,7,37.1,7c0.1-0.1,0.1-0.2,0.2-0.3L37.3,6.4z"/>
		<path class="st2" d="M38,7.5l0.7-1.7l0.2,0.1l-0.1,0.2c0.1-0.1,0.2-0.1,0.3-0.1c0.1,0,0.2,0,0.3,0.1c0.1,0,0.2,0.1,0.2,0.2
			c0.1,0.1,0.2,0.2,0.2,0.2c0,0,0.1,0.1,0.1,0.2c0,0.1,0,0.2-0.1,0.3l-0.4,1.1L39.2,8l0.4-1c0.1-0.1,0.1-0.3,0.1-0.3
			c0-0.1,0-0.2-0.1-0.2c-0.1-0.1-0.1-0.1-0.2-0.2c-0.2-0.1-0.2-0.1-0.4,0c-0.1,0.1-0.2,0.2-0.3,0.4l-0.3,0.9L38,7.5z"/>
		<path class="st2" d="M41.2,8.9l0.1-0.2c-0.1,0.1-0.2,0.1-0.3,0.1c-0.1,0-0.2,0-0.3-0.1c-0.2-0.1-0.3-0.2-0.4-0.5
			c-0.1-0.3-0.1-0.5,0.1-0.8c0.1-0.2,0.2-0.3,0.3-0.4C40.7,7,40.8,6.9,41,6.9c0.2,0,0.2,0,0.4,0.1c0.1,0.1,0.2,0.1,0.2,0.2
			c0.1,0.1,0.1,0.2,0.2,0.2l0.4-0.8l0.3,0.2L41.4,9L41.2,8.9z M40.6,7.6c-0.1,0.2-0.2,0.4-0.1,0.5c0.1,0.2,0.2,0.2,0.2,0.3
			c0.2,0.1,0.2,0.1,0.4,0c0.2-0.1,0.2-0.2,0.3-0.3c0.2-0.2,0.2-0.3,0.2-0.5s-0.2-0.2-0.2-0.3c-0.2-0.1-0.2-0.1-0.4,0
			C40.8,7.3,40.7,7.4,40.6,7.6z"/>
		<path class="st2" d="M43.3,10.3l1-2.4l0.3,0.3L44,9.7c-0.1,0.2-0.2,0.3-0.2,0.5l0.4-0.2l1.4-1L45.8,9l-0.5,1.2
			c-0.1,0.3-0.2,0.6-0.4,0.8c0.2-0.1,0.2-0.2,0.4-0.3l1.3-1l0.2,0.3l-2,1.5l-0.2-0.2l0.8-1.8l0.1-0.3c-0.1,0.1-0.2,0.2-0.2,0.2
			l-1.7,1.2L43.3,10.3z"/>
		<path class="st2" d="M47,12.8l0.2,0.2c-0.2,0.1-0.3,0.1-0.5,0.1c-0.2,0-0.3-0.2-0.5-0.3c-0.2-0.2-0.3-0.4-0.3-0.7s0.1-0.5,0.3-0.7
			c0.2-0.2,0.4-0.3,0.7-0.3s0.4,0.1,0.7,0.3c0.2,0.2,0.2,0.4,0.2,0.7s-0.1,0.5-0.3,0.7l-0.1,0.1l-1-1.1c-0.2,0.2-0.2,0.3-0.2,0.4
			c0,0.2,0.1,0.2,0.2,0.4C46.6,12.9,46.7,12.9,47,12.8z M46.6,11.6l0.8,0.8c0.1-0.1,0.2-0.2,0.2-0.3c0-0.2-0.1-0.3-0.2-0.4
			c-0.1-0.2-0.2-0.2-0.3-0.2C46.8,11.4,46.7,11.5,46.6,11.6z"/>
		<path class="st2" d="M47.1,13.8l1.9-1.6l0.2,0.2l-2,1.6L47.1,13.8z"/>
		<path class="st2" d="M47.7,14.5l1.2-1l-0.2-0.2l0.2-0.2l0.2,0.2l0.2-0.1c0.1-0.1,0.2-0.2,0.2-0.2c0.1,0,0.2,0,0.2,0.1
			c0.1,0,0.2,0.1,0.2,0.2s0.1,0.2,0.2,0.2L50,13.7c0-0.1-0.1-0.1-0.1-0.2c-0.1-0.1-0.1-0.1-0.2-0.2c-0.1,0-0.2,0-0.2,0.1l-0.2,0.1
			l0.2,0.3L49.4,14l-0.2-0.3l-1.2,1L47.7,14.5z"/>
		<path class="st2" d="M49.3,16.3c-0.2-0.1-0.2-0.1-0.3-0.2c-0.1-0.1-0.2-0.2-0.2-0.2c-0.1-0.2-0.2-0.3-0.2-0.5
			c0-0.2,0.1-0.2,0.2-0.3c0.1-0.1,0.2-0.1,0.2-0.1s0.2,0,0.2,0.1c0.1,0.1,0.2,0.2,0.3,0.3c0.2,0.2,0.3,0.3,0.4,0.4l0.1-0.1
			c0.1-0.1,0.2-0.2,0.2-0.2c0-0.1,0-0.2-0.1-0.4c-0.1-0.2-0.2-0.2-0.2-0.2s-0.2,0-0.3,0l-0.2-0.3c0.2-0.1,0.3-0.1,0.5,0
			c0.2,0.1,0.3,0.2,0.4,0.4s0.2,0.3,0.2,0.4c0,0.2,0,0.2-0.1,0.3c-0.1,0.1-0.2,0.2-0.2,0.2l-0.3,0.2c-0.2,0.2-0.4,0.2-0.4,0.3
			c-0.1,0.1-0.1,0.1-0.2,0.2l-0.2-0.2C49.2,16.4,49.2,16.4,49.3,16.3z M49.8,15.9c-0.1-0.1-0.2-0.2-0.4-0.4
			c-0.1-0.1-0.2-0.2-0.2-0.2c-0.1,0-0.1-0.1-0.2-0.1c-0.1,0-0.1,0-0.2,0.1c-0.1,0.1-0.1,0.1-0.1,0.2c0,0.1,0,0.2,0.1,0.2
			c0.1,0.1,0.2,0.2,0.2,0.2c0.1,0.1,0.2,0.1,0.2,0.1s0.2-0.1,0.3-0.2L49.8,15.9z"/>
		<path class="st2" d="M49.6,17.2l1.6-0.9l0.2,0.2l-0.2,0.2c0.2,0,0.2,0,0.3,0.1c0.1,0,0.1,0.1,0.2,0.2c0.1,0.1,0.1,0.2,0.1,0.3
			l-0.3,0.1c0-0.1,0-0.2-0.1-0.2c0-0.1-0.1-0.1-0.2-0.2c-0.1,0-0.2-0.1-0.2,0c-0.1,0-0.2,0.1-0.3,0.2l-0.8,0.5L49.6,17.2z"/>
		<path class="st2" d="M51.3,19.3l0.1,0.3c-0.2,0-0.4,0-0.5-0.1c-0.2-0.1-0.2-0.2-0.4-0.4c-0.1-0.2-0.2-0.5-0.1-0.8
			c0.1-0.2,0.2-0.4,0.5-0.5c0.2-0.2,0.5-0.2,0.8-0.1c0.2,0.1,0.4,0.2,0.5,0.5s0.2,0.4,0.1,0.7c-0.1,0.2-0.2,0.4-0.5,0.5h-0.1
			l-0.6-1.2c-0.2,0.1-0.2,0.2-0.3,0.3c-0.1,0.2,0,0.3,0,0.4C50.9,19.2,51.1,19.3,51.3,19.3z M51.3,18.1l0.5,1
			c0.2-0.1,0.2-0.2,0.2-0.2c0.1-0.2,0.1-0.3,0-0.4c-0.1-0.2-0.2-0.2-0.3-0.2C51.6,18,51.5,18,51.3,18.1z"/>
	</g>
	<g>
		<path class="st2" d="M18.3,49.9c0.2,0.2,0.2,0.2,0.2,0.3l0,0h-0.1c-0.2,0.1-0.2,0.2-0.4,0.2L17.3,52c0,0,0,0-0.1,0L17.1,52
			c0,0,0,0,0-0.1l0.6-1.2c-0.1,0-0.2,0.1-0.3,0.1c0,0-0.1,0-0.1-0.1l-0.1-0.1c0,0,0,0,0-0.1c0.1,0,0.2-0.1,0.3-0.1
			c0.2-0.1,0.3-0.1,0.4-0.2C18.1,50.1,18.1,50,18.3,49.9L18.3,49.9z M19,52l-0.1,0.2l0.4,0.2c0,0,0,0,0,0.1l-0.1,0.1
			c0,0,0,0.1-0.1,0l-0.3-0.2l-0.2,0.2c0,0,0,0-0.1,0l-0.2-0.1c0,0,0,0,0-0.1l0.2-0.2l-0.9-0.5c0,0,0,0,0-0.1l0.1-0.1c0,0,0,0,0.1,0
			l0.2,0.1l0.2-0.4c0,0,0,0,0.1,0l0.7,0.3l0.1-0.2c0,0,0,0,0.1,0c0.2,0.1,0.2,0.2,0.2,0.2s0,0-0.1,0c0,0,0,0-0.1,0.1v0.1l0.4,0.2
			c0,0,0,0,0,0.1L19.6,52c0,0,0,0-0.1,0L19,52z M18.6,49.1c0.2,0.2,0.2,0.2,0.2,0.2l0,0h-0.1c-0.2,0.1-0.3,0.2-0.5,0.2
			c-0.1,0-0.2,0.1-0.4,0.1c0,0-0.1,0-0.1-0.1s-0.1-0.1-0.1-0.2c0,0,0,0,0-0.1c0.1,0,0.2,0,0.2-0.1c0.1,0,0.2-0.1,0.3-0.1
			C18.5,49.3,18.6,49.2,18.6,49.1L18.6,49.1z M18.3,51.6l-0.1,0.2l0.4,0.2l0.1-0.2L18.3,51.6z M18.6,50.5l1.1,0.5c0,0,0.1,0.1,0,0.1
			l-0.2,0.5c0,0,0,0-0.1,0l-1.1-0.5c0,0-0.1-0.1,0-0.1L18.6,50.5C18.6,50.5,18.6,50.5,18.6,50.5z M19,49.6l0.4,0.2
			c0.1-0.1,0.1-0.2,0.2-0.2c0,0,0,0,0.1,0l0.2,0.2v0.1c0,0,0,0-0.1,0h-0.1l-0.1,0.1l0.5,0.2c0,0,0.1,0,0,0.1l-0.2,0.5l0.1,0.1
			c0,0,0,0,0,0.1v0c0,0,0,0-0.1,0l-1.4-0.7c0,0,0,0,0-0.1l0.1-0.1c0,0,0,0,0.1,0l0.4,0.2c0.1-0.1,0.2-0.2,0.2-0.2l-0.3-0.2
			C18.9,49.8,18.9,49.8,19,49.6L19,49.6C18.9,49.6,18.9,49.6,19,49.6z M19.3,51.4l0.1-0.2l-0.8-0.3L18.6,51L19.3,51.4z M20.1,50.9
			l0.9,0.4c0,0,0,0,0,0.1v0.1c0,0,0,0.1-0.1,0l-0.2-0.2L19.9,53c-0.1,0.2-0.2,0.2-0.5,0l-0.1-0.1c0,0,0,0,0-0.1s0-0.1,0-0.2l0,0
			c0.1,0.1,0.1,0.1,0.2,0.1c0.2,0.1,0.2,0.1,0.2,0l0.8-1.5L20,51.1C20,51.1,20,51.1,20.1,50.9L20.1,50.9L20.1,50.9z M19.2,50.4
			l0.4,0.2l0.2-0.2l-0.3-0.2C19.4,50.2,19.3,50.3,19.2,50.4z M20.6,50.4l0.7,0.3c0,0,0,0,0,0.1l-0.1,0.1c0,0,0,0.1-0.1,0l-0.7-0.3
			c0,0,0,0,0-0.1L20.6,50.4C20.5,50.4,20.6,50.4,20.6,50.4z"/>
		<path class="st2" d="M23.9,51.3l0.2,0.2v0.1c0,0,0,0.1-0.1,0.1H24c-0.1,0.2-0.2,0.2-0.2,0.3l1,0.2l0.2-0.6c0,0,0,0,0.1,0
			c0.2,0.1,0.3,0.1,0.3,0.1s0,0.1-0.1,0.1c0,0-0.1,0-0.1,0.1l-0.1,0.5l1.3,0.2c0,0,0.1,0,0,0.1v0.2c0,0,0,0.1-0.1,0.1l-1.3-0.2
			l-0.2,0.6l1.2,0.2c0,0,0.1,0,0,0.1v0.1c0,0,0,0.1-0.1,0l-1.2-0.2l-0.2,0.9l1.5,0.3c0,0,0.1,0,0,0.1v0.2c0,0,0,0.1-0.1,0l-3.6-0.8
			c0,0-0.1,0,0-0.1v-0.2c0,0,0,0,0.1,0l1.8,0.3l0.2-0.9l-1.2-0.2c0,0-0.1,0,0-0.1V53c0,0,0-0.1,0.1,0l1.2,0.2l0.2-0.8l-1.1-0.2
			c-0.1,0.1-0.2,0.2-0.2,0.2c-0.1,0.1-0.2,0.2-0.3,0.2h-0.1c-0.1,0-0.1-0.1-0.2-0.1l0,0l0,0c0.2-0.1,0.3-0.2,0.4-0.4
			c0.1-0.1,0.2-0.2,0.2-0.3S23.7,51.5,23.9,51.3C23.8,51.4,23.9,51.3,23.9,51.3z"/>
		<path class="st2" d="M28.8,52.9h1.4c0,0,0.1,0,0.1,0.1V53c0,0,0,0.1-0.1,0.1h-0.5v2.1c0,0,0,0.1-0.1,0.1h-0.2
			c-0.1,0-0.1,0-0.1-0.1v-2.1h-0.6c0,0-0.1,0-0.1-0.1L28.8,52.9C28.7,52.9,28.8,52.9,28.8,52.9z M29,53.4l0.3,0.1h0.1v0.1l-0.1,0.1
			c0,0.4,0,0.8,0,0.9s-0.1,0.3-0.1,0.4c0,0,0,0-0.1,0c-0.2,0-0.2-0.1-0.2-0.1c0.1-0.2,0.1-0.3,0.1-0.5C28.9,54.2,28.9,53.9,29,53.4
			C28.9,53.4,29,53.4,29,53.4z M29,52.2h1.1c0,0,0.1,0,0.1,0.1v0.1c0,0,0,0.1-0.1,0.1H29c0,0-0.1,0-0.1-0.1L29,52.2L29,52.2z
			 M30,53.4h0.2c0.1,0,0.1,0,0.1,0.1c0,0.2-0.1,0.2-0.1,0.4c0,0.3,0.1,0.7,0.2,0.9l0,0c-0.2,0-0.2,0-0.2,0v-0.1
			C30,54.4,30,53.9,30,53.4L30,53.4z M30.5,52.1h2c0,0,0.1,0,0.1,0.1v0.1c0,0,0,0.1-0.1,0.1h-2c0,0-0.1,0-0.1-0.1L30.5,52.1
			C30.4,52.1,30.5,52.1,30.5,52.1z M30.5,53.7h1.9c0.1,0,0.1,0,0.1,0v1.5c0,0,0,0.1-0.1,0.1h-0.2c-0.1,0-0.1,0-0.1-0.1V55h-1.5v0.2
			c0,0,0,0.1-0.1,0.1h-0.2c-0.1,0-0.1,0-0.1-0.1L30.5,53.7C30.4,53.7,30.5,53.7,30.5,53.7z M30.6,52.6h1.7c0.1,0,0.1,0,0.1,0v0.8
			c0,0,0,0.1-0.1,0.1h-1.7c-0.1,0-0.1,0-0.1-0.1L30.6,52.6C30.6,52.6,30.6,52.6,30.6,52.6z M30.7,54.2h0.6v-0.3h-0.6V54.2z
			 M30.7,54.8h0.6v-0.3h-0.6V54.8z M32.1,53.2v-0.4h-1.2v0.4H32.1z M31.6,53.9v0.3h0.6v-0.3H31.6z M31.6,54.8h0.6v-0.3h-0.6V54.8z"
			/>
		<path class="st2" d="M36.2,51.5C36.2,51.5,36.2,51.5,36.2,51.5c-0.2,0.1-0.2,0.2-0.4,0.2c0,0-0.1,0-0.1,0.1l0.1,0.6l0.8-0.2h0.1
			v0.1v0.1l-0.8,0.2c0.1,0.1,0.2,0.2,0.3,0.2c0.1,0.1,0.3,0.2,0.6,0.2c0,0,0,0,0.1,0l0,0c0,0-0.1,0.1-0.1,0.2l0,0c0,0,0,0-0.1,0
			c-0.2-0.1-0.3-0.2-0.5-0.3c-0.1-0.1-0.1-0.1-0.2-0.2l0.4,1.5c0,0,0,0.1-0.1,0.1l-0.2,0.1c-0.1,0-0.1,0-0.1,0l-0.4-1.4V53
			c-0.1,0.2-0.1,0.3-0.2,0.5c-0.1,0.2-0.2,0.3-0.2,0.4h-0.1C35.2,54,35.1,54,35,54l0,0c0.1-0.1,0.2-0.2,0.2-0.3
			c0.1-0.1,0.2-0.2,0.2-0.5c0.1-0.1,0.1-0.3,0.2-0.6l-0.8,0.2h-0.1v-0.1v-0.1l0.9-0.2L35.5,52c-0.1,0-0.1,0-0.2,0.1
			c-0.2,0.1-0.3,0.1-0.5,0.2c-0.1,0-0.1,0-0.1,0c-0.1,0-0.1-0.1-0.2-0.1c0,0,0,0,0-0.1l0.2-0.1c0.2-0.1,0.3-0.1,0.5-0.2
			c0.1-0.1,0.2-0.1,0.3-0.2c0.2-0.1,0.2-0.2,0.3-0.2l0,0h0.1C36.2,51.5,36.3,51.5,36.2,51.5c0.1,0.1,0.1,0.1,0.1,0.2L36.2,51.5z
			 M36.8,51.5c0.2-0.1,0.3-0.1,0.3,0v0.1c0,0,0,0,0,0.1l0.5,1.8c0,0,0,0.1-0.1,0.1l-0.2,0.1c-0.1,0-0.1,0-0.1,0L36.8,51.5L36.8,51.5
			z M37.6,50.9l0.3-0.1H38c0,0,0,0.1-0.1,0.1s-0.1,0.1,0,0.2l0.7,2.5c0.1,0.2-0.1,0.3-0.3,0.4L38,54.1c0,0,0,0-0.1-0.1
			c0-0.1-0.1-0.1-0.1-0.2v-0.1c0.2,0,0.2,0,0.3-0.1c0.1,0,0.2-0.1,0.2-0.2l-0.7-2.4C37.7,51,37.7,51,37.6,50.9
			C37.5,51,37.5,50.9,37.6,50.9C37.5,50.9,37.5,50.9,37.6,50.9z"/>
		<path class="st2" d="M40.6,49.5c0.2-0.1,0.2-0.2,0.2-0.1v0.1v0.1l0.2,0.2l0.7-0.4h0.1l0.1,0.1v0.1l-1.7,1h-0.1L40,50.5v-0.1
			l0.8-0.4L40.6,49.5C40.5,49.6,40.5,49.5,40.6,49.5z M40.5,50.5c0.1,0.1,0.2,0.2,0.3,0.2c0.1,0.1,0.2,0.1,0.2,0.2
			c0,0-0.1,0.1-0.2,0.2c-0.1-0.1-0.1-0.1-0.2-0.2c-0.1-0.1-0.2-0.2-0.3-0.2C40.3,50.6,40.4,50.5,40.5,50.5z M40.4,51.3l1.8-1.1h0.1
			l0.1,0.1v0.1l-1.8,1.1h-0.1L40.4,51.3C40.4,51.4,40.4,51.3,40.4,51.3z M40.9,51.6l1.3-0.8h0.1l0.6,1v0.1L42.7,52h-0.1l-0.1-0.2
			l-1,0.5l0.1,0.2v0.1l-0.2,0.1h-0.1L40.9,51.6C40.8,51.6,40.8,51.6,40.9,51.6z M41.5,52.2l1-0.6l-0.3-0.5l-1,0.6L41.5,52.2z
			 M41.4,49.9l0.2-0.1c0.1,0,0.1,0,0.1,0s0,0,0,0.1c0,0,0,0,0,0.1c0,0.2,0,0.4,0,0.5v0.1c0,0,0,0-0.1,0s-0.1,0-0.2,0l0,0l0,0
			c0-0.1,0-0.2,0-0.3C41.5,50.1,41.4,50,41.4,49.9L41.4,49.9z M42.1,49l1.4,2.4v0.1l-0.2,0.1h-0.1L41.8,49V49l1-0.6
			c0.1,0,0.1,0,0.1,0c0.1,0,0.2,0,0.2,0v1.2v0.1c0,0,0,0,0.1,0c0.2,0,0.3,0.1,0.5,0.2c0.2,0.1,0.3,0.2,0.4,0.4
			c0.1,0.1,0.1,0.2,0.1,0.3c0,0.1-0.1,0.2-0.2,0.3c-0.1,0.1-0.2,0.2-0.3,0.2c-0.1,0-0.1,0-0.1,0c-0.1-0.1-0.1-0.1-0.2-0.2V51
			l0.2-0.1c0.1-0.1,0.2-0.2,0.2-0.2c0-0.1,0-0.2,0-0.2c-0.1-0.1-0.2-0.2-0.3-0.3c-0.2-0.1-0.4-0.2-0.6-0.2h-0.1c0,0,0,0,0-0.1v-1.1
			L42.1,49z"/>
	</g>
	<g>
		<path class="st3" d="M51.6,29.1c0,12-9.8,21.8-21.8,21.8S8.1,41.1,8.1,29.1c0-12,9.7-21.7,21.7-21.7C41.9,7.4,51.6,17.1,51.6,29.1
			z"/>
	</g>
	<g>
		<path class="st1" d="M39.7,16.4c-1,0-2-0.1-3,0c-0.2,0.1-0.6,0.1-0.8,0.2c-1.3,0.4-1.9,0.9-2.3,2.2c-0.4,2.3,0.4,5.1,1.1,7.3
			c0.4,0.8,0.7,1.4,1.7,1.7c0.4,0,0.4,0,0.5-0.1c0.6-0.7,0.6-1.4,0.4-2.2c-0.2-0.6-0.3-1.1-0.5-1.7c-0.5-1.3-1.2-2.8-1.6-4.2
			c0-0.7,0-0.5,0.4-0.9c1.1-0.5,2.6-0.2,3.9-0.5c0.4-0.2,0.9-0.4,1.1-0.8C40.9,16.8,40.2,16.5,39.7,16.4z"/>
		<path class="st1" d="M25.6,18.4c-0.2-0.2-0.2-0.4-0.4-0.6c-0.6-0.6-1.2-0.8-1.8-1.1c-0.3-0.1-0.3-0.1-0.4-0.1
			c-1.6-0.4-3.2-0.5-4.7-0.4c-0.2,0.5,0.1,1.2,0.4,1.7c0.7,0.6,1.4,0.6,2.4,0.8c1.1,0.1,2.5-0.2,3,1.2c0.1,1.6-0.6,3.1-1.1,4.5
			c-0.3,1.2-0.8,2.7,0.8,3.2c0.5,0,0.7,0,1.1-0.4c0.5-1,0.7-2,0.8-3.1c0.2-1.2,0.2-2.4,0.2-3.6c0-0.6,0-0.6-0.1-1.2
			C25.8,19,25.6,18.7,25.6,18.4z"/>
		<path class="st1" d="M40.7,13.2c-0.6-0.5-1.4-0.7-2.1-0.8c-1.1,0-2.2,0.2-2.3,1.3c0.1,0.7,0,0.7,0.7,1.1c0.4,0.1,0.9,0.2,1.4,0.2
			c0.9-0.1,1.8,0,2.5-0.7C41.2,13.9,41.1,13.6,40.7,13.2z"/>
		<path class="st1" d="M19.1,14.6c0.7,0.2,1.2,0.2,2.1,0.2c0.6,0,1.1,0,1.7-0.4c0.6-0.9-0.3-1.4-1-1.7c-1.3-0.2-3.4-0.8-3.7,1
			C18.1,14.4,18.5,14.4,19.1,14.6z"/>
		<path class="st1" d="M30.3,11.9v-0.2c0-1.1,0-1.1,0-3.8c-0.1-0.3-0.5-0.2-0.6-0.1l-0.1,0.1c0.1,2.8,0.1,2.8,0.1,3.8
			c-1-0.1-2.7-0.2-3.4,0.7c-0.2,0.6-0.1,0.5-0.7,0.8v0.1c0.2,0,0.4,0,0.6,0.1l-0.4,0.2v0.1c0.2,0,0.4,0,0.6,0.1
			c0.9,0.5,1.8,0.2,2.8-0.1h0.5c0,0.8,0,1.6,0,2.4l-0.2,0.2c-0.8,0.3-1.5,0.6-2.1,1.2c-0.5,0.9-0.2,1.6,0.4,2.3h0.1l0,0
			c0.3,0.2,0.8,0.4,1.2,0.5c0.2,0,0.5,0.1,0.8,0.1c0,0.5,0,1,0,1.5c-1.7,0.3-3,0.9-2.4,2.9c0.1,0.2,0.2,0.4,0.3,0.7
			c0.4,0.5,0.8,0.8,1.4,1c0.2,0,0.5,0.2,0.7,0.2c0,0.6,0,1,0,1.4c0.1,0,0.2,0,0.3,0c0.1,0,0.2,0,0.3,0c0-0.2,0-1.4,0.1-1.5
			c0.6-0.2,1.2-0.3,1.8-0.8c0.4-0.4,0.6-0.8,0.6-1.3l-0.2,0.1c-0.2,0.3-0.4,0.6-0.8,0.8c-0.3,0.1-1.2,0.5-1.5,0.3
			c0-0.9-0.2-1.9-0.1-2.8c0.8-0.2,1.6-0.2,2.1-1.1c0.5-1.1,0-1.8-0.9-2.2c-0.4-0.1-1-0.2-1.4-0.3c0-0.8-0.1-1.4-0.1-2.1
			c0.2-0.1,0.8-0.2,1.3-0.5c0.9-0.4,1.4-0.8,1.7-1.8c0-0.3,0-0.6,0-0.9C32.8,12.8,31.3,12.1,30.3,11.9z M27.8,12.8l-0.3,0.2
			c-0.2-0.2-0.2-0.2-0.3-0.2l-0.1,0.3c-0.2,0.1-0.2,0.1-0.4,0.1c-0.3-0.2-0.2-0.3-0.1-0.4C27,12.5,27.3,12.5,27.8,12.8L27.8,12.8z
			 M29.6,19.3l-0.2-0.1c-0.2-0.1-0.5-0.2-0.8-0.2c-0.2-0.2-0.2-0.2-0.2-0.2l0,0h-0.1c-0.4-0.8,0.2-1.1,0.8-1.3l0.4-0.1
			C29.7,17.8,29.6,18,29.6,19.3z M29.8,25.9h-0.2c-0.9-0.2-1.8-1.1-1.4-2c0.3-0.5,1-0.7,1.6-0.8C29.8,24.6,29.8,24.7,29.8,25.9z
			 M31.3,20.9c0.2,0.2,0.2,0.6-0.1,0.8c-0.3,0.2-0.5,0.2-0.8,0.2h-0.1c0-0.5,0-1,0-1.5C30.7,20.5,31.1,20.5,31.3,20.9z M31.3,15.1
			L31.3,15.1c-0.4,0.3-0.7,0.5-1.1,0.7c0-0.8-0.1-1.4,0-2.1c0.5,0,1.2,0.3,1.3,0.8C31.6,14.7,31.6,15,31.3,15.1z"/>
	</g>
	<path class="st0" d="M31.5,39c0-0.8-0.6-1.3-1.3-1.3c-0.8,0-1.3,0.6-1.3,1.3c0,0.8,0.6,1.3,1.3,1.3S31.5,39.7,31.5,39z M36.5,35.7
		c0.1-0.1,0.1-0.1,0-0.2c0-0.1-0.1-0.1-0.2,0c0,0-0.4,0.2-1,0.8c-0.7-1.6-1.4-2.9-2.2-4c-0.9-1.3-1.8-2.4-2.7-3.2
		c0.5-0.6,1.1-1.2,1.7-1.8c0.1-0.1,0.1-0.1,0-0.2c0-0.1-0.1-0.1-0.2,0c0,0-0.8,0.5-2,1.6c-1.2-1.1-1.9-1.6-2-1.6c-0.1,0-0.2,0-0.2,0
		c0,0.1,0,0.2,0,0.2c0.6,0.6,1.2,1.2,1.7,1.8c-0.8,0.8-1.7,1.9-2.7,3.2c-0.8,1.1-1.5,2.3-2.1,3.9c-0.5-0.4-0.8-0.7-0.8-0.7
		c-0.1,0-0.2,0-0.2,0c0,0.1,0,0.2,0,0.2c0.3,0.3,0.6,0.6,0.8,0.9c-1.2,3-1.8,6.9-1.1,11.7c0,0.1,0.1,0.1,0.2,0.1s0.1-0.1,0.1-0.2
		s-0.3-4.8,1.7-10.6c3.9,5.2,3.5,11.1,3.5,11.1c0,0.1,0.1,0.2,0.1,0.2c0.1,0,0.2,0,0.2-0.1c0.8-4.7-0.8-8.1-2.1-10.1
		c-0.5-0.7-0.9-1.2-1.4-1.7c0.9-2.4,2.2-5,4.2-7.4c2,2.5,3.4,5.1,4.3,7.6c-0.4,0.4-0.8,1-1.2,1.6c-1.3,2-2.8,5.3-2.1,10.1
		c0,0.1,0.1,0.1,0.2,0.1c0.1,0,0.1-0.1,0.1-0.2c0-0.1-0.4-5.8,3.3-11c2,5.7,1.7,10.3,1.7,10.4s0.1,0.2,0.1,0.2c0.1,0,0.2,0,0.2-0.1
		c0.8-4.7,0.1-8.5-1-11.6C35.8,36.4,36.2,36,36.5,35.7z M24.2,32.5c0-1.2-0.9-2.1-2.1-2.1c-1.2,0-2.1,0.9-2.1,2.1s0.9,2.1,2.1,2.1
		C23.2,34.5,24.2,33.6,24.2,32.5z M12.2,27.1c-0.1,0-0.2,0-0.2,0c0,0.1,0,0.2,0,0.2c9.3,8.9,8.3,20.8,8.3,21c0,0.1,0.1,0.2,0.1,0.2
		c0.1,0,0.2,0,0.2-0.1c1.2-7.5-1.2-12.8-3.3-16C15,28.8,12.2,27.1,12.2,27.1z M40.1,32.5c0-0.6-0.2-1.1-0.6-1.4
		c-0.4-0.4-0.9-0.6-1.4-0.6c-1.2,0-2.1,0.9-2.1,2.1s0.9,2.1,2.1,2.1C39.2,34.5,40.1,33.6,40.1,32.5z M48.2,27.1c0-0.1-0.1-0.1-0.2,0
		c0,0-2.8,1.7-5.1,5.2c-2.2,3.2-4.5,8.6-3.3,16c0,0.1,0.1,0.1,0.2,0.1s0.1-0.1,0.1-0.2S38.9,36.1,48.2,27.1
		C48.2,27.2,48.2,27.2,48.2,27.1z"/>
</g>
<g>
	<path class="st4" d="M68,5.6c0.3,0,0.4,0.1,0.4,0.3S68.3,6.2,68,6.3c-1,1.9-2.2,3.5-3.7,4.9L62.8,10c1.5-1.4,2.7-3,3.6-4.9L68,5.6z
		 M68,10.7c0.3,0,0.4,0.1,0.4,0.3c0,0.1-0.1,0.3-0.4,0.4c-0.3,0.6-0.6,1.1-0.9,1.6v11.3h-1.8v-8.8c-0.3,0.4-0.6,0.7-0.9,1l-1.5-1.2
		c1.5-1.4,2.7-3.1,3.6-5.1L68,10.7z M76.2,11.4V16h-1.9v1h2.5v1.5h-2.5v2h3.5v1.6h-3.5V24h-1.8v-1.9h-5v-1.6H69V17h3.5v-1H69v-4.6
		H76.2z M70.9,5.9l0.4-1.5l1.5,0.3c0.3,0,0.4,0.2,0.4,0.3c0,0.2-0.2,0.3-0.4,0.5l-0.1,0.4H76v3h1.4v1.6h-9.3V8.9H70l0.4-1.5h-1.7
		V5.9H70.9z M74.4,13.1h-3.6v1.3h3.6V13.1z M72.5,18.6h-1.7v2h1.7V18.6z M74.3,8.9V7.4h-2.1l-0.4,1.5H74.3z M83.1,10.9v1.8h-1.8v9.7
		c0,0.7-0.2,1.2-0.6,1.5c-0.4,0.4-1.2,0.5-2.6,0.5l-0.7-1.7h1.3c0.4,0,0.7-0.2,0.7-0.6v-9.4h-2.8v-1.8
		C76.6,10.9,83.1,10.9,83.1,10.9z M82.7,5.9v1.7h-5.4V5.9H82.7z"/>
	<path class="st4" d="M92.8,5.8C93,5.9,93.1,6,93.1,6.2c0,0.1-0.2,0.2-0.7,0.3c-0.3,1-0.6,1.9-0.9,2.7h4.7V4.5L98,4.7
		c0.3,0,0.5,0.1,0.5,0.3c0,0.1-0.1,0.3-0.4,0.5v3.7h6.6V11h-6.6v4.3h5.8v1.8h-5.8v4.5h7.7v1.8H87v-1.8h9.1v-4.5h-6v-1.8h6V11h-5.5
		c0,0.1-0.1,0.2-0.1,0.3c-0.7,1.3-1.4,2.4-2.2,3.4l-2-1.3c1.1-1.1,1.9-2.3,2.5-3.5s1.2-2.7,1.8-4.7L92.8,5.8z"/>
	<path class="st4" d="M111.8,12.8c0.2,0,0.3,0.1,0.3,0.2s-0.1,0.2-0.2,0.4c-0.1,2.7-0.2,4.6-0.4,5.9c-0.1,0.9-0.3,1.9-0.5,2.8
		l-1.8-0.4c0.3-1.1,0.4-2,0.6-2.7c0.2-1.3,0.3-3.5,0.4-6.4L111.8,12.8z M118.1,9.1v1.7h-3.4v13.5h-1.9V10.8h-3.4V9.1H118.1z
		 M117,5.6v1.7h-6.7V5.6H117z M117.4,12.8c0,0.8-0.1,1.4-0.1,2c0,1.8,0.2,3.8,0.6,6l-1.6,0.2c-0.4-2.1-0.6-4.1-0.6-6.1
		c0-0.6,0-1.3,0.1-2h1.6V12.8z M129.3,5.6v1.7h-11V5.6H129.3z M129.3,14.7v9.6h-1.9v-0.9h-7.2v0.9h-1.9v-9.6H129.3z M128.5,8.3v5.3
		h-9.2V8.3C119.3,8.3,128.5,8.3,128.5,8.3z M122.9,18.3v-1.9h-2.7v1.9H122.9z M122.9,21.7V20h-2.7v1.7H122.9z M126.6,10.1H121V12
		h5.6V10.1z M124.7,18.3h2.8v-1.9h-2.8V18.3z M127.4,21.7V20h-2.8v1.7H127.4z"/>
	<path class="st4" d="M142.3,6.6c-0.8,0.3-1.5,0.6-2.3,0.8v3.2h4.3v1.9h-3.6c1,2.3,2.4,4.3,4,5.9l-1.7,1.2c-1.1-1.4-2-2.9-2.9-4.7
		v9.5h-2v-9.3c-0.3,0.5-0.5,1-0.7,1.5c-0.6,1.3-1.5,2.8-2.7,4.4l-2.1-1.5c1.3-1.3,2.3-2.6,3.1-3.9c0.5-0.9,1.1-1.9,1.8-3.1h-4.3
		v-1.9h4.9V8c-1.1,0.3-2.2,0.5-3.3,0.7l-1.3-1.8c1.8-0.1,3.3-0.4,4.6-0.7c1.2-0.2,2.6-0.7,4.3-1.5l1.4,1.4c0.1,0.1,0.1,0.2,0.1,0.3
		s-0.1,0.2-0.3,0.2l-0.5-0.1C142.8,6.4,142.6,6.5,142.3,6.6z M147.4,7.4c0.3,0,0.5,0.1,0.5,0.3c0,0.1-0.1,0.2-0.4,0.4v11.7h-1.9V7.2
		L147.4,7.4z M151.9,5.1c0.2,0,0.4,0.1,0.4,0.3s-0.2,0.4-0.5,0.6v15.8c0,0.9-0.3,1.5-0.9,1.9c-0.5,0.4-1.7,0.7-3.6,0.7l-0.8-2h2.1
		c0.7,0,1.1-0.3,1.2-0.9V4.9L151.9,5.1z"/>
	<path class="st4" d="M160.7,12.6l-1,0.6h3.9l-1.2-0.5l1.7-3.5l1.5,0.7c0.2,0.1,0.3,0.2,0.3,0.3c0,0.2-0.2,0.4-0.4,0.5l-1.5,2.5h3
		v1.7h-11.5v-1.7h3.4c-0.6-1.1-1.3-2.1-2-3.2l1.7-0.9C159.5,10.3,160.2,11.4,160.7,12.6z M162.4,4.7c0.4,0,0.5,0.1,0.5,0.3
		c0,0.1-0.1,0.3-0.4,0.5v1.6h4v1.7h-10.3V7.1h4.4V4.6L162.4,4.7z M165.8,16.4v7.7h-1.9v-1.2h-5.1v1.2h-1.9v-7.7
		C156.9,16.4,165.8,16.4,165.8,16.4z M163.9,21.2v-3.1h-5.1v3.1H163.9z M175.3,6.5l-2.3,6c1.7,1.9,2.5,3.6,2.5,5.1
		c0,1.2-0.4,2.2-1.3,3c-0.9,0.7-2,1.1-3.3,1.1l-0.8-2c1.4-0.2,2.4-0.4,2.8-0.8c0.4-0.3,0.6-0.8,0.6-1.5c0-1.2-0.8-2.8-2.5-4.8
		l1.9-5.5h-3v17.3h-2v-19h5.4c0.1-0.2,0.2-0.3,0.3-0.3L175.3,6.5z"/>
</g>
<g>
	<g>
		
			<linearGradient id="SVGID_1_" gradientUnits="userSpaceOnUse" x1="84.6685" y1="82.1392" x2="572.2207" y2="82.1392" gradientTransform="matrix(1 0 0 1 -20.7324 -38.0156)">
			<stop  offset="0" style="stop-color:#007CD3"/>
			<stop  offset="1" style="stop-color:#526385"/>
		</linearGradient>
		<path class="st5" d="M83.5,52.6c-0.1,0.2-0.2,0.2-0.4,0.2c-0.4,0-1-0.4-1.7-1.4c-0.8-1.1-1.4-2.4-1.8-4c-0.1-0.2-0.1-0.4-0.2-0.6
			h7V44h-7.6c-0.1-0.8-0.2-1.7-0.3-2.7h6.8v-8.4H65.6v19.2c-0.5,0.1-1.1,0.2-1.6,0.3l1.1,3.3c4-0.8,7.6-1.7,10.9-2.8L75.4,50
			c-2.1,0.6-4.4,1.1-6.9,1.6v-4.8h7.8c0.2,0.8,0.4,1.5,0.7,2.2c0.8,2.2,1.9,4,3.2,5.3c1.2,1.1,2.2,1.7,2.9,1.7c1,0,1.7-0.2,2.3-0.7
			c0.8-0.6,1.3-1.9,1.5-3.8l-3-1.1C83.8,51.5,83.7,52.2,83.5,52.6z M68.5,44v-2.7h6.9c0.1,0.9,0.2,1.8,0.3,2.7H68.5z M68.5,38.5
			v-2.8h14v2.8H68.5z M111.2,49.6c-0.3-0.4-0.5-1-0.8-1.5c0.1-1.1,0.2-2.3,0.2-3.8l-1-0.1c1-0.2,2.1-0.3,3.1-0.5l-1.5-2.7h2v-7.8H92
			v7.8h18.8c-6.3,1.2-12.5,1.8-18.8,1.8l0.9,2.7c0.5,0,1,0,1.5-0.1c0,2.3-0.3,4-0.9,5.1c-0.6,0.9-1.6,1.7-3,2.4l1.3,2.8
			c1.6-0.7,2.9-1.7,3.9-3c0.2,0.3,0.3,0.5,0.5,0.7c0.6,0.7,1.4,1.4,2.6,2l1.8-2.8c-1.4-0.6-2.4-1.5-3.1-2.6
			c-0.2-0.3-0.4-0.5-0.5-0.9c0.2-1,0.2-2.2,0.2-3.5l-2.4-0.2c2.1-0.1,4.1-0.2,6.1-0.3v10.6h3v-2l1,2.1c1.7-0.9,3.1-2.1,4.1-3.6
			c0,0,0,0,0.1-0.1c0.2,0.4,0.4,0.7,0.7,1c0.7,0.9,1.7,1.7,3,2.5l1.8-2.9C113.2,52.1,112,51,111.2,49.6z M98,38.3h-3V36h3V38.3z
			 M104.2,38.3H101V36h3.2V38.3z M110.3,38.3h-3.1V36h3.1V38.3z M106.8,50.2c-0.6,1.1-1.5,2-2.8,2.7v-8c1.2-0.1,2.5-0.3,3.7-0.4
			C107.6,47.1,107.4,49,106.8,50.2z M141.8,47.6l-1.7-2.3c-1.1,0.8-2.2,1.5-3.3,2c-0.2-0.2-0.3-0.4-0.4-0.6v-2.2h4.5v-10h-6.1
			c0.2-0.4,0.4-0.9,0.5-1.4l-3-0.6c-0.1,0.7-0.3,1.4-0.5,2.1h-3.2v10h4.9v1.3h-5.3v2.5h3.1c-0.3,0.6-0.8,1.2-1.3,1.9
			c-0.5,0.6-1,1.1-1.6,1.6c-0.3-1.7-0.6-3.3-1-4.8l-2.4,0.7c0.4,1.6,0.7,3.4,0.9,5.4l1.3-0.4c-0.1,0.1-0.1,0.1-0.2,0.1l1.6,2.3
			c0.7-0.5,1.4-1,2-1.6l0.4,1.9c0.7,0.3,1.5,0.5,2.3,0.5c1.2,0,2-0.3,2.5-0.9c0.4-0.5,0.6-1.4,0.6-2.8V51c0.4,0.5,0.8,1,1.2,1.4
			c1,1,2.1,1.8,3.2,2.4l1.5-2.9c-1.4-0.6-2.6-1.5-3.6-2.6C139.7,48.9,140.8,48.3,141.8,47.6z M133.5,51.5c0,0.6-0.1,1-0.1,1.3
			c-0.1,0.2-0.2,0.3-0.5,0.3c-0.5,0-1.1-0.1-1.7-0.3c0.5-0.5,1-1.1,1.5-1.8c0.3-0.4,0.5-0.9,0.8-1.4V51.5z M131.4,36.9h6.6v1.2h-6.6
			V36.9z M131.4,41.9v-1.3h6.6v1.3H131.4z M125.7,46.3l2.7-0.8c-0.4-2-0.9-3.8-1.5-5.5l-1.9,0.6c0.8-1.3,1.7-2.7,2.5-4.3l-2.9-1.2
			c-0.6,1.2-1.2,2.5-1.9,3.8c-0.3-0.2-0.5-0.4-0.8-0.6c0.8-1.4,1.7-2.9,2.7-4.8l-2.7-1.2c-0.6,1.5-1.3,2.9-2.2,4.4
			c-0.1,0-0.1-0.1-0.2-0.1l-1.7,2.1c1.2,0.9,2.3,1.8,3.5,2.7c-0.4,0.6-0.7,1.2-1.1,1.7c-0.6,0-1.3,0.1-2,0.1l0.5,2.8
			c1-0.1,2.1-0.2,3.1-0.3v10.1h2.7V45.4c0.3,0,0.7-0.1,1.1-0.1C125.6,45.6,125.7,45.9,125.7,46.3z M123.4,42.9
			c0.4-0.6,0.8-1.2,1.2-1.8c0.2,0.5,0.4,1.1,0.5,1.7C124.5,42.9,124,42.9,123.4,42.9z M118,53.2l2.7,0.8c0.3-1.7,0.6-3.8,0.9-6.3
			l-2.6-0.6C118.7,49.2,118.4,51.2,118,53.2z M157.7,42.9h9.5v-3h-9.5v-7.1h-3.1v19.7H146v2.9h22.3v-2.9h-10.7V42.9z M185.9,32.5
			H183v3.2h-8.2v16h2.9v-1.6h5.3v6h2.9v-6h5.5v1.6h2.9v-16h-8.4V32.5z M183,47.3h-5.3v-2.9h5.3V47.3z M183,41.6h-5.3v-2.9h5.3V41.6z
			 M191.4,47.3h-5.5v-2.9h5.5V47.3z M191.4,38.6v2.9h-5.5v-2.9H191.4z M223,38.8l-1.8-0.5h2.2v-2.7h-2.9v-3.1h-2.8v3.1h-2.5v2.7h5.3
			c-0.4,1.5-0.8,3-1.3,4.4h-1.4l1.2-0.5c-0.4-1.3-0.9-2.4-1.5-3.5l-2.2,1c0.5,0.9,0.9,1.9,1.2,3h-1.3v2.6h2.5v2.2h-2.2v2.7h2.2v5.7
			h2.9v-5.7h2.5v-2.7h-2.5v-2.2h3v-2.6h-2C222,41.6,222.5,40.3,223,38.8z M202.3,38.6l-2.1,1c0.4,0.9,0.8,1.9,1.1,3l2.2-0.9
			C203.1,40.6,202.7,39.6,202.3,38.6z M206.9,46.6c-0.5,0.2-1.1,0.4-1.7,0.5v-1.7h2.4v-2.6h-2c0.5-1.2,1-2.5,1.5-4.1l-1.5-0.4h1.8
			v-2.7h-2.1v-3.1h-2.9v3.1h-2.1v2.7h4.2c-0.4,1.6-0.8,3-1.3,4.5h-3.3v2.6h2.5c0,1.1,0,1.7,0,1.8v0.7c-0.8,0.2-1.7,0.4-2.6,0.6
			l0.9,2.7c0.4-0.1,0.9-0.2,1.3-0.4c-0.1,0.2-0.1,0.4-0.2,0.5c-0.4,1-1,1.9-1.8,2.5l1.6,2.1c1-0.7,1.9-1.7,2.5-2.9
			c0.4-0.9,0.6-1.9,0.8-3.1c0.8-0.3,1.5-0.5,2.3-0.9L206.9,46.6z M211.6,32.5H209V37h-1.2v2.7h1.2c-0.1,3.8-0.4,6.7-1,8.8
			c-0.6,2.2-1.5,4-2.6,5.4l2,1.9c0.8-0.9,1.4-2,2-3.1l0.4,2.2c0.7,0.3,1.4,0.5,2,0.5c1.1,0,1.8-0.6,2.3-1.8c0.6-1,0.9-6.5,0.9-16.6
			h-3.2V32.5z M212.2,39.7c-0.1,6.9-0.2,10.8-0.3,11.7c-0.1,0.8-0.3,1.2-0.5,1.2c-0.5,0-1.1-0.1-1.8-0.4c0.3-0.6,0.5-1.3,0.7-2
			c0.8-2.7,1.2-6.2,1.3-10.4H212.2z M230.4,38.1h7.2v5.1h2.9v-5.1h7.3v2.4h2.8v-5h-10.1v-0.5h8.2v-2.4h-19.3v2.4h8.1v0.5h-10v5h2.8
			V38.1z M247.3,38.7h-6.4v2.1h6.4V38.7z M230.8,43.5h6.2v-2.1h-6.2V43.5z M240.9,43.5h6.4v-2.1h-6.4V43.5z M247.7,53.2
			c-0.5,0.1-1.1,0.1-1.6,0.1c0,0.1-1.4,0.1-4.3,0.1c-0.6,0-1,0-1.1-0.1c-0.3,0-0.4-0.3-0.5-0.8h8.1V44h-19.2v9.5h2.8v-1.1h5.3v0.5
			c0,1.8,0.6,2.7,1.8,2.7c0.4,0.2,1,0.3,1.7,0.3h1c2,0,4.1-0.1,6.1-0.2c0.9-0.1,1.6-0.2,2-0.4c0.6-0.5,1.1-1.4,1.5-2.7l-2.5-1.1
			C248.7,52.6,248.3,53.1,247.7,53.2z M237.3,50H232v-0.7h5.3V50z M237.3,47.2H232v-0.7h5.3V47.2z M240.2,46.4h5.3v0.7h-5.3V46.4z
			 M240.2,49.3h5.3V50h-5.3V49.3z M237,38.7h-6.2v2.1h6.2V38.7z M267.9,42.1c3.4-1.6,6.3-3.6,8.8-5.9v-2.8h-19.4v3h14.6
			c-1.7,1.2-3.5,2.2-5.5,3.1l-1.5-0.2v3.5h-9.8v2.9h9.8v6c0,0.5-0.1,0.8-0.2,1c-0.2,0.1-0.4,0.2-0.5,0.2c-1.1,0-2.3-0.2-3.4-0.5
			l0.5,3.4c0.9,0.1,1.8,0.2,2.9,0.2c1.4,0,2.4-0.3,2.9-0.8c0.5-0.4,0.8-1.3,0.8-2.7v-6.8h10v-2.9h-10V42.1z M297.7,32.6h-3.1v1.5
			h-8.6V41c-0.3-1.4-0.5-2.7-0.9-3.9l-2.8,0.8c0.4,1.4,0.7,2.9,0.9,4.6l2.8-0.9v2.2c-1.3,0.8-2.7,1.4-4.3,2l1.3,2.9
			c0.9-0.4,1.8-0.9,2.7-1.5c-0.1,0.6-0.2,1.1-0.2,1.7c-0.3,1.6-0.8,3.4-1.7,5.5l2.6,1.5c0.8-1.7,1.4-3.4,1.7-5
			c0.4-2,0.7-4.1,0.7-6.3v-7.8h16.6v-2.7h-7.6V32.6z M289.3,41h6.7c0,0.6-0.1,1.2-0.1,1.7h-6.3v12.9h2.9V45.3h3.1
			c-0.2,0.8-0.3,1.4-0.5,1.8c-0.6,1.2-1.4,2.2-2.4,3l1.6,2.5c1.4-1,2.5-2.2,3.2-3.7c1.1,0.9,2.1,2,3,3.1l1.5-2.3v1.6
			c0,1-0.1,1.4-0.2,1.4c-0.9,0-1.9-0.2-2.9-0.5l0.6,3c0.9,0.2,1.7,0.3,2.3,0.3c2,0,3-1.2,3-3.6v-9.3h-6.2c0-0.5,0-1.1,0.1-1.7h6.3
			v-2.8h-15.7V41z M298.4,45.3h3.6V49c-1-1-2.3-2-3.7-2.9C298.3,45.9,298.3,45.6,298.4,45.3z M324.3,51.4h6.4v-2.7h-6.4v-1.9h-3.1v6
			h-2.5v-4.2h-3.1v4.2h-2.5v2.6h19.3v-2.6h-8.1V51.4z M313.9,44.8l1,1.7c0.8-0.6,1.6-1.3,2.3-2.2v2.7h2.7v-2.1
			c0.4,0.4,0.7,0.9,1.1,1.4l1.5-2.1c-0.7-0.6-1.4-1.2-2.3-1.8h2.3v-2.3h-2.6v-1.4c0.9-0.2,1.7-0.3,2.5-0.6l-1.2-2.2
			c-2.3,0.7-4.6,1-6.8,1l0.7,2.3c0.7,0,1.5-0.1,2.1-0.2v1h-2.8v2.3h1.7c-0.2,0.2-0.3,0.4-0.5,0.6c-0.4,0.5-1,0.9-1.7,1.4v-8.7h18.3
			v-2.5h-21v9.7c0,2-0.2,4.1-0.4,6.1c-0.3,1.7-0.8,3.6-1.5,5.8l2.5,1.5c0.7-1.8,1.2-3.6,1.6-5.4C313.6,48.7,313.8,46.8,313.9,44.8z
			 M330.2,42.3h1.8v-2.3h-3.2v-1.3c1.1-0.2,2.1-0.4,3.1-0.6l-1.2-2.3c-2.5,0.8-5.1,1.1-7.6,1.1l0.7,2.3c0.9,0,1.7-0.1,2.5-0.2v1h-3
			v2.3h2c-0.2,0.2-0.4,0.5-0.7,0.7c-0.7,0.7-1.4,1.2-2.1,1.5l1.1,2c0.7-0.4,1.6-1.1,2.6-2.2c0,0,0,0,0,0v2.4h2.5V44
			c0.1,0.1,0.1,0.2,0.2,0.3c0.7,0.9,1.5,1.6,2.4,2.1l1.3-2.4c-0.8-0.3-1.5-0.7-2-1.2C330.5,42.6,330.3,42.5,330.2,42.3z M337.9,33
			v12.2c0,2.3-0.2,4.3-0.5,5.7c-0.3,1.6-0.7,2.9-1.1,4l2.7,1c0.5-1.1,0.9-2.4,1.2-3.8c0.3-1.4,0.4-2.9,0.4-4.5h3v3.6
			c0,1.2-0.3,1.8-0.9,1.8c-0.5,0-1.1-0.1-1.6-0.2l0.6,2.8h1.5c2.1,0,3.1-1.1,3.1-3.4V33h-7.1H337.9z M340.7,35.8h2.9v3.5h-2.9V35.8z
			 M340.7,41.9h2.9V45h-2.9V41.9z M359.7,44.2v-2.1h-8.9v-6.4h5.1c-0.2,1.3-0.3,2.1-0.5,2.4c-0.1,0.2-0.2,0.2-0.5,0.2
			c-0.9,0-1.8-0.1-2.7-0.2l0.6,2.8c0.9,0.1,1.8,0.2,2.5,0.2c1,0,1.8-0.2,2.3-0.7c0.8-0.7,1.2-3.2,1.3-7.4h-11.1v23h2.9v-2.4L352,56
			c1.3-0.6,2.4-1.5,3.5-2.7c0.9,1,1.8,1.8,2.9,2.7l2.1-2.7c-1.2-0.7-2.3-1.6-3.2-2.4C358.2,49.3,359,47.1,359.7,44.2z M350.7,53.1
			v-7.6c0.8,2.1,1.7,3.9,2.9,5.4C352.8,51.9,351.8,52.6,350.7,53.1z M355.2,48.6c-0.8-1-1.5-2.3-2.1-3.7h3.5
			C356.3,46.2,355.8,47.5,355.2,48.6z M386.3,45.4l1.3-2.7c-1.5-0.4-3-1-4.3-1.7c0.9-1.1,1.5-2.4,1.8-3.9h2.1v-2.7h-7.8
			c0.2-0.4,0.3-0.9,0.5-1.3l-2.8-0.6c-0.3,1-0.8,2-1.4,3c-0.5,0.9-1.1,1.8-2,2.7l1.8,2c0.3-0.3,0.6-0.7,1-1.1c0.6,0.8,1.2,1.6,2,2.3
			c-0.9,0.6-2.1,1.1-3.3,1.6c0-0.1,0.1-0.2,0.1-0.3v-2.1H372l0.7-0.8c-0.3-0.2-0.5-0.4-0.9-0.7c1.2-1,2.3-2.1,3.2-3.3v-2.5h-10.7V36
			h6.7c-0.6,0.5-1.2,1-1.8,1.5c-0.7-0.4-1.3-0.7-2.1-1.1l-1.9,2c1.1,0.6,2.3,1.4,3.4,2.1h-4.7v2.6h4.1c-1,2.3-2.5,4.3-4.5,6.2
			l2.1,2.1c1-1.1,1.9-2.3,2.7-3.6v3.4c0,0.6-0.1,1-0.1,1.3c-0.1,0.2-0.2,0.3-0.4,0.3c-0.8,0-1.6-0.1-2.4-0.4l0.5,2.9
			c0.7,0.2,1.5,0.3,2.3,0.3c1.1,0,1.9-0.3,2.3-0.9c0.4-0.5,0.5-1.5,0.5-2.9v-8.8h1.1c-0.3,0.8-0.6,1.6-0.9,2.2l2.1,1.3
			c0.5-0.8,1-1.7,1.4-2.8l1.3,1.8c0.6-0.2,1.2-0.5,1.8-0.8c0,0.4-0.1,0.9-0.1,1.3h-3.4V49h2.9c-0.2,0.4-0.3,0.8-0.5,1.1
			c-0.8,1.3-2,2.4-3.7,3.2l1.6,2.7c2-1,3.5-2.4,4.5-4.1c0.4-0.7,0.8-1.7,1-2.9h3.2c0,1.3-0.1,2.4-0.2,3.5c-0.1,0.3-0.1,0.5-0.2,0.6
			c-0.1,0.1-0.2,0.1-0.3,0.1c-0.7,0-1.5-0.2-2.5-0.5l0.3,2.9c0.8,0.2,1.6,0.3,2.2,0.3c0.7,0,1.3-0.1,1.8-0.4c0.5-0.3,0.8-0.6,0.9-1
			c0.5-1.9,0.7-4.7,0.8-8.4h-5.8c0.1-0.6,0.1-1.2,0.1-2h-1.6c0.6-0.3,1.2-0.7,1.8-1.1C382.6,44.1,384.3,44.9,386.3,45.4z
			 M378.5,37.1h3.6c-0.3,0.9-0.8,1.7-1.3,2.3C380,38.8,379.2,38,378.5,37.1z M409.6,44.5c0.8-1.8,1.6-4,2.2-6.6l-3-1
			c-0.5,2-1.2,4.1-2.1,6.1L409.6,44.5z M396.5,37l-2.7,1.3c0.8,1.8,1.6,3.9,2.1,6.2l3-1.3C398.3,41,397.5,38.9,396.5,37z
			 M404.4,36.2h8.5v-2.9h-20.2v2.9h8.4v8.7h-9.6v2.9h9.6v8h3.2v-8h9.9v-2.9h-9.9V36.2z M435.8,35.2l-2.6,1.6
			c0.8,0.8,1.5,1.6,2.2,2.3c-2.9,0.2-6.1,0.4-9.6,0.6c0.7-0.7,1.5-1.4,2.2-2.3c1.2-1.5,2.3-2.8,3-4.2l-3.4-1c-0.7,1.5-1.7,3-2.8,4.5
			c-0.8,1.1-1.7,2.1-2.7,3.1c-0.9,0.1-1.9,0.1-2.9,0.1l0.5,3c6.3-0.4,12.2-0.9,17.5-1.5c0.4,0.6,0.8,1.2,1.1,1.8l2.9-1.7
			C439.8,39.3,438,37.2,435.8,35.2z M421.2,55.9h2.9v-1.2h12.2v1.2h2.9V44h-18.1V55.9z M424.1,46.8h12.2v5.2h-12.2V46.8z
			 M452.4,48.4h12.9v-5.9h-15.8V56h2.9v-0.6h11.3v0.5h2.9v-6.5h-14.2V48.4z M452.4,44.9h10v1h-10V44.9z M463.7,51.8v1.1h-11.3v-1.1
			H463.7z M462.4,33l-2.8-0.8c-0.3,0.7-0.7,1.5-1.2,2.2c-0.2,0.4-0.5,0.7-0.8,1.1v-2h-5.9c0.1-0.2,0.1-0.4,0.2-0.6l-2.9-0.8
			c-0.3,0.8-0.7,1.7-1.2,2.6c-0.5,0.9-1.1,1.7-1.7,2.5l2.3,1.7h-2.2v4.8h2.9v-2.1h17v2.1h2.9v-4.8h-10v-0.5l0.1,0.1
			c0.6-0.7,1.2-1.5,1.7-2.3h1c0.8,0.9,1.5,1.7,2.1,2.6l2.7-1.6c-0.4-0.3-0.8-0.6-1.1-1h3.5v-2.7h-6.9
			C462.3,33.4,462.3,33.2,462.4,33z M455.8,37.9v1h-7c0.6-0.8,1.2-1.6,1.7-2.7c0,0,0,0,0-0.1h0.6c0.5,0.8,1,1.7,1.5,2.5l2.7-1.5
			c-0.2-0.3-0.5-0.6-0.8-1h2.6c-0.2,0.2-0.3,0.3-0.4,0.4l1.7,1.3H455.8z M490.3,50.7h5.4v-2.9h-5.4v-1.4h5.5V33h-13.9v13.4h5.5v1.4
			h-5.6v2.9h5.6v1.9h-6.5v2.8h15.8v-2.8h-6.3V50.7z M490.3,35.9h2.5v2.2h-2.5V35.9z M490.3,41h2.5v2.6h-2.5V41z M487.3,43.6h-2.5V41
			h2.5V43.6z M487.3,38.1h-2.5v-2.2h2.5V38.1z M481.2,48.8c-0.8,0.2-1.6,0.4-2.5,0.6v-5.6h2.1V41h-2.1v-4.5h2.7v-2.9h-8v2.9h2.4V41
			h-2.2v2.8h2.2V50c-0.8,0.2-1.7,0.3-2.5,0.5l0.5,3c2.8-0.6,5.4-1.3,7.8-2L481.2,48.8z M516.9,42.4c0.5,0.6,0.9,1.2,1.4,1.8
			c-1.9,0.1-4,0.2-6.2,0.3c1.9-1.9,4-4.1,6.2-6.6l-3.1-1.4c-1.2,1.7-2.7,3.4-4.4,5c-0.7-0.4-1.4-0.7-2.1-1.1
			c0.9-1.2,1.9-2.5,2.9-4.1c3.6-0.2,6.8-0.6,9.7-1l-1.4-2.7c-6,0.8-12,1.2-18,1.2l0.9,2.8c1.7,0,3.3-0.1,4.9-0.2
			c-0.5,0.8-1.1,1.6-1.7,2.4c-0.5-0.2-1-0.5-1.5-0.8l-1.8,2.2c1.9,1.1,3.8,2.3,5.7,3.4c-0.3,0.3-0.6,0.6-0.9,0.9
			c-1.9,0.1-4,0.2-6.1,0.2l0.5,2.9c3-0.1,5.9-0.3,8.7-0.5v8.5h3v-8.7c2.1-0.2,4.2-0.3,6.2-0.5c0.3,0.6,0.6,1.1,0.9,1.7l2.7-1.6
			c-1-2.1-2.3-4.1-3.8-6L516.9,42.4z M517,48.7l-1.9,2.1c1,1,2.2,1.8,3.4,2.6c1,0.6,2.1,1.2,3.2,1.7l1.7-2.9c-1-0.3-2.1-0.8-3.2-1.4
			C519.1,50.2,518,49.5,517,48.7z M500.7,52.2l1.4,2.8c2.4-0.9,4.6-2.1,6.6-3.7l-1.8-2.4C504.8,50.4,502.8,51.5,500.7,52.2z
			 M549.1,49.7c-0.1,0.8-0.1,1.4-0.2,1.8c-0.1,0.6-0.2,1-0.3,1.1c-0.1,0.2-0.4,0.3-0.8,0.3c-0.2,0-0.4,0-0.4-0.1
			c-0.1,0-0.2-0.3-0.2-0.9v-8.1c0.2,0,0.3,0,0.5-0.1c0.2,0.6,0.3,1.2,0.5,1.9l3-0.9c-0.6-2.2-1.4-4.3-2.4-6.2l-2.8,0.8
			c0.3,0.6,0.6,1.2,0.9,1.9c-1.3,0.2-2.7,0.3-4.2,0.4c0.3-0.5,0.5-1.1,0.8-1.8c0.3-0.8,0.6-1.5,0.8-2.1h6.6v-2.7h-5.1v-2.5h-3v2.5
			h-5.2v2.7h3.6c-0.2,0.6-0.5,1.2-0.8,1.9c-0.4,0.9-0.8,1.6-1.1,2.2c-0.5,0.1-1.1,0.1-1.7,0.1l0.5,2.9c0.6-0.1,1.2-0.1,1.8-0.2
			c-0.1,2.8-0.4,4.7-0.9,5.7c-0.6,1.2-1.4,2.2-2.4,3l1.6,2.5c1.4-1,2.5-2.3,3.2-3.7c0.7-1.3,1.1-3.9,1.2-7.9
			c0.5-0.1,0.9-0.1,1.5-0.2v8.2c0,1.8,0.5,2.8,1.6,3c0.4,0.2,1,0.3,1.8,0.3c0.8,0,1.4-0.1,1.6-0.1c0.5-0.1,0.8-0.2,1-0.5
			c0.5-0.4,0.9-1.7,1.1-4L549.1,49.7z M537.1,46.8l-2.5,0.6c0.4,1.6,0.7,3.3,0.8,5.2l2.8-0.7C537.9,50.1,537.6,48.4,537.1,46.8z
			 M527.3,53.2l2.6,0.8c0.4-1.7,0.8-3.7,1.1-6.2l-2.7-0.7C528.1,49.2,527.8,51.2,527.3,53.2z M535.3,46.4l2.7-0.7
			c-0.2-1.6-0.6-3.2-1.1-4.8l-2.4,0.6c0.1,0.4,0.2,0.8,0.3,1.3c-0.4,0.1-0.9,0.1-1.4,0.1c1.2-1.8,2.4-3.9,3.7-6.2l-2.8-1.2
			c-0.5,1.1-1,2.1-1.6,3.2c-0.3-0.2-0.5-0.3-0.8-0.5c0.8-1.4,1.7-2.9,2.7-4.8l-2.8-1.2c-0.6,1.5-1.4,3-2.4,4.5
			c-0.1-0.1-0.2-0.2-0.4-0.2l-1.6,2c1.2,0.9,2.5,1.8,3.7,2.6c-0.4,0.7-0.9,1.3-1.3,2c-0.7,0.1-1.4,0.1-2.1,0.1l0.5,2.8
			c1-0.1,2.1-0.2,3.1-0.3v10.1h2.8V45.5c0.3,0,0.6-0.1,1-0.1C535.3,45.7,535.3,46.1,535.3,46.4z"/>
	</g>
</g>
</svg>
