<svg xmlns="http://www.w3.org/2000/svg" width="275.862" height="60.058" viewBox="0 0 275.862 60.058">
  <g id="logo_n" transform="translate(0.037 0.058)">
    <g id="Group_97064" data-name="Group 97064">
      <g id="Group_97076" data-name="Group 97076">
        <circle id="Ellipse_200" data-name="Ellipse 200" cx="29.729" cy="29.729" r="29.729" transform="translate(0.276 0.271)" fill="#ffbc00"/>
      </g>
      <path id="Union_12" data-name="Union 12" d="M-1340.542-1403.005c-.049,0-.071-.015-.073-.049l-.037-2.282-.657.011c-.035,0-.054-.019-.054-.058v-.121a.05.05,0,0,1,.052-.058l1.564-.024c.036,0,.054.019.054.059v.12c0,.04-.017.06-.052.061l-.587.009.037,2.281c0,.032-.023.049-.07.05Zm1.1-.024c-.048,0-.071-.014-.071-.049l-.026-1.582c0-.042.022-.064.07-.065v.008l2.116-.034c.047,0,.071.014.072.044l.026,1.6c0,.032-.024.049-.07.049h-.178c-.049,0-.071-.014-.072-.049v-.151l-1.618.027v.151c0,.031-.023.049-.07.05Zm.235-.823.007.391.659-.011-.007-.392Zm.979-.016.006.392.64-.012-.006-.391Zm-.986-.6,0,.377.66-.011-.006-.377Zm.976-.016.006.377.64-.01-.005-.377Zm-3.094,1.089a2.992,2.992,0,0,0,.121-.5q.034-.367.031-1.1c0-.026.011-.039.034-.039v0l.325.059c.033.012.049.027.049.044a.049.049,0,0,1-.039.05.147.147,0,0,0-.083.13,7.525,7.525,0,0,1-.023.956q-.046.254-.1.451c0,.023-.017.034-.053.035C-1341.241-1403.356-1341.33-1403.386-1341.33-1403.4Zm-2.877.025-3.863-.812a.049.049,0,0,1-.044-.053.036.036,0,0,1,0-.014l.031-.148a.045.045,0,0,1,.062-.037l1.879.4.211-1-1.356-.285a.049.049,0,0,1-.044-.053.028.028,0,0,1,0-.013l.023-.122a.05.05,0,0,1,.05-.047h.014l1.357.285.177-.842-1.17-.246c-.086.108-.175.208-.263.3a2.178,2.178,0,0,1-.321.253.3.3,0,0,1-.1-.036c-.056-.035-.113-.067-.17-.1-.018-.013-.027-.023-.024-.031a.042.042,0,0,1,.024-.033,2.049,2.049,0,0,0,.487-.419,2.556,2.556,0,0,0,.251-.329,3.715,3.715,0,0,0,.265-.484c.025-.016.035-.025.05-.021l.3.158c.028.026.041.048.037.062a.058.058,0,0,1-.065.049.061.061,0,0,0-.076.038c-.086.147-.16.268-.222.365l1.057.222.141-.669c.006-.029.032-.04.079-.031.22.047.328.086.322.114s-.026.051-.057.05-.049.018-.058.064l-.113.536,1.462.307c.035.008.049.024.043.052l-.032.151c-.009.04-.03.057-.065.049l-1.462-.307-.176.842,1.253.263a.048.048,0,0,1,.033.017.052.052,0,0,1,.011.036.031.031,0,0,1,0,.013l-.026.122c-.008.037-.029.052-.064.045l-1.253-.263-.212,1,1.67.351c.035.008.049.027.041.058l-.031.149c-.007.031-.023.047-.048.047Zm4.236-.146a12.786,12.786,0,0,1-.1-1.449c0-.044.022-.067.069-.067l0,0h.16c.049,0,.07.02.073.063a1.74,1.74,0,0,0-.046.42,3.2,3.2,0,0,0,.176,1.028c0,.018-.014.031-.043.038l-.257.024Zm6.649-.221-.416-1.547-.028.086a3.9,3.9,0,0,1-.216.5,3,3,0,0,1-.306.45.119.119,0,0,1-.083,0c-.066-.031-.132-.058-.2-.083a.1.1,0,0,1-.023-.033,2.377,2.377,0,0,0,.251-.318,2.691,2.691,0,0,0,.261-.5,5.413,5.413,0,0,0,.178-.607l-.932.25c-.035.009-.057-.006-.067-.045l-.031-.117c-.011-.04,0-.063.036-.073l.961-.258-.162-.6c-.049.022-.1.041-.146.059q-.3.111-.546.177a.1.1,0,0,1-.108-.026c-.056-.041-.112-.081-.17-.12-.006-.027.006-.045.041-.054l.257-.068a3.994,3.994,0,0,0,.527-.177,2.384,2.384,0,0,0,.392-.176,1.5,1.5,0,0,0,.361-.249.082.082,0,0,1,.027-.019.118.118,0,0,1,.078,0c.2.078.305.134.316.166s-.006.045-.041.054l-.137-.01a.4.4,0,0,0-.07.03,3.465,3.465,0,0,1-.4.23.687.687,0,0,1-.088.047l.176.653.823-.222c.034-.009.057.006.068.045l.031.117c.01.039,0,.063-.036.073l-.777.209a3.028,3.028,0,0,0,.347.314,2.456,2.456,0,0,0,.613.311c.028,0,.045.012.049.026s0,.023-.022.04a1.023,1.023,0,0,1-.1.149.07.07,0,0,1-.039.041.215.215,0,0,1-.083,0,2.42,2.42,0,0,1-.532-.319c-.059-.047-.117-.1-.175-.149l.446,1.661c.007.027-.012.047-.059.058l-.172.047a.155.155,0,0,1-.037.005A.039.039,0,0,1-1333.322-1403.743Zm1.877-.553a.623.623,0,0,0-.134-.156c-.008-.029,0-.047.023-.053a1.785,1.785,0,0,0,.372-.052c.125-.033.177-.094.154-.183l-.714-2.656a1.631,1.631,0,0,0-.058-.18.435.435,0,0,1-.029-.074c-.009-.019.011-.039.057-.052h0l.383-.059c.044,0,.068.009.069.016.007.027-.01.047-.054.058-.057.039-.071.112-.042.219l.734,2.729c.052.2-.081.342-.4.426l-.309.083h-.007C-1331.418-1404.23-1331.433-1404.252-1331.445-1404.3Zm-.627-.68-.541-2.014c-.008-.029.011-.05.058-.063h0c.219-.058.331-.073.339-.044a.053.053,0,0,1-.026.069c-.028.01-.036.038-.023.084l.506,1.884c.008.029-.011.049-.058.062l-.172.047a.163.163,0,0,1-.032,0A.046.046,0,0,1-1332.072-1404.976Zm-7.292-.048-.013-.828c0-.029.023-.045.069-.046h0l1.777-.029c.049,0,.071.014.073.043l.014.828c0,.032-.023.05-.069.05l-1.777.029C-1339.338-1404.975-1339.362-1404.989-1339.364-1405.023Zm.311-.634.006.438,1.279-.021-.006-.438Zm-12.579.32-.128-.062q-.024-.012.005-.073a.488.488,0,0,0,.026-.2l.006-.014a.808.808,0,0,0,.179.121c.138.067.226.06.265-.018l.8-1.65-.448-.217c-.032-.014-.04-.041-.021-.077l.053-.11a.049.049,0,0,1,.023-.029.05.05,0,0,1,.038,0h.01v.007l1.01.489a.048.048,0,0,1,.031.061.06.06,0,0,1-.006.013l-.053.11c-.018.036-.043.048-.075.031l-.288-.139-.842,1.741a.222.222,0,0,1-.218.126A.9.9,0,0,1-1351.633-1405.337Zm24.077-.428-.643-1.116c-.021-.036-.01-.065.031-.089v0l1.482-.854c.041-.024.068-.023.084,0l.651,1.129c.016.029,0,.055-.037.079l-.155.089c-.039.022-.066.019-.083-.009l-.09-.157-1.053.609.091.157c.016.028,0,.055-.037.077l-.155.089a.1.1,0,0,1-.048.016A.042.042,0,0,1-1327.556-1405.766Zm-.271-1.112.337.586,1.053-.607-.338-.586Zm-24.656,1.1-.165-.08a.045.045,0,0,1-.027-.067l.152-.313-1.043-.5c-.021-.01-.023-.033,0-.07l.052-.109c.014-.027.031-.036.052-.024l.272.132.211-.437c.012-.023.034-.03.066-.014l.722.35.095-.2c.009-.018.029-.019.062,0,.193.093.282.154.27.181s-.033.041-.055.032-.043.006-.062.046l-.035.071.416.2a.037.037,0,0,1,.023.046v.009l-.054.112c-.017.034-.037.045-.061.034l-.42-.211-.133.273.481.233c.021.01.023.029.012.056l-.053.109c-.018.036-.037.049-.058.04l-.481-.232-.151.313a.041.041,0,0,1-.04.025A.109.109,0,0,1-1352.483-1405.775Zm-.437-.905.5.24.133-.274-.5-.241Zm11.756.542v-.12c0-.04.017-.061.052-.061l1.155-.019c.036,0,.053.019.054.058v.121c0,.042-.017.064-.052.065l-1.155.019C-1341.146-1406.075-1341.164-1406.1-1341.164-1406.138Zm1.617-.073v-.121c0-.04.017-.059.052-.061h0l2.151-.035c.036,0,.054.019.054.059v.12c0,.04-.017.059-.052.06l-2.151.035C-1339.529-1406.153-1339.547-1406.172-1339.547-1406.211Zm-14.443-.294-.161-.078a.045.045,0,0,1-.027-.067l.669-1.38q-.15.045-.381.092a.147.147,0,0,1-.065-.069c-.025-.045-.051-.09-.078-.134a.053.053,0,0,1-.008-.054c.129-.027.259-.06.394-.1a2.047,2.047,0,0,0,.495-.205,1.73,1.73,0,0,0,.351-.254c.009-.025.019-.031.027-.026a1.326,1.326,0,0,1,.241.319.028.028,0,0,1-.014.017.033.033,0,0,1-.022,0h-.007a.128.128,0,0,0-.1,0,3.055,3.055,0,0,1-.421.258l-.806,1.666a.045.045,0,0,1-.041.025A.119.119,0,0,1-1353.99-1406.506Zm28.467-.435-1.63-2.828c-.015-.026,0-.051.039-.075l1.079-.622a.223.223,0,0,1,.111-.038q.136,0,.151.03l-.009,1.256a.186.186,0,0,0,.015.062.1.1,0,0,0,.057.037,1.759,1.759,0,0,1,.573.228,1.26,1.26,0,0,1,.429.433.669.669,0,0,1,.094.351.506.506,0,0,1-.137.332.89.89,0,0,1-.32.263c-.066.04-.112.039-.134,0a.482.482,0,0,0-.173-.139c-.015-.026-.007-.05.024-.066l.2-.08a.375.375,0,0,0,.209-.243.33.33,0,0,0-.044-.255,1.115,1.115,0,0,0-.344-.346,2.141,2.141,0,0,0-.679-.262c-.031,0-.05-.007-.059-.022a.2.2,0,0,1-.015-.06l.042-1.211-.736.422,1.539,2.671c.016.029,0,.055-.04.08l-.155.089a.1.1,0,0,1-.049.015A.042.042,0,0,1-1325.523-1406.94Zm-25.985,0-1.217-.589c-.043-.022-.058-.046-.043-.076l.261-.54c.014-.03.042-.035.085-.013h0l1.217.589c.043.022.057.046.043.076l-.261.54a.042.042,0,0,1-.04.025A.111.111,0,0,1-1351.508-1406.938Zm-.917-.681.8.386.118-.243-.8-.386Zm23.79.506-.059-.1a.048.048,0,0,1,.007-.068l.011-.006,0-.005,2.009-1.156c.028-.016.052-.008.071.024l.061.1c.02.035.016.06-.012.077l-2.006,1.156a.06.06,0,0,1-.031.009A.056.056,0,0,1-1328.635-1407.113Zm.233-.683a2.169,2.169,0,0,0-.327-.221c-.011-.018.038-.1.147-.244h0a2.716,2.716,0,0,1,.339.223,1.573,1.573,0,0,1,.262.215,1.313,1.313,0,0,1-.222.219A1.387,1.387,0,0,0-1328.4-1407.8Zm-22.542.086h-.009l-1.535-.743c-.022-.01-.026-.028-.014-.053l.054-.112c.014-.027.031-.035.051-.023l.416.2c.068-.086.142-.18.221-.284l-.388-.187c-.022-.011-.024-.03-.013-.057l.052-.108c.011-.028.028-.037.049-.027v0l.424.205a3.17,3.17,0,0,0,.2-.259.054.054,0,0,1,.061,0l.2.154c.031.024.04.05.027.078a.049.049,0,0,1-.062.029l-.013-.007a.073.073,0,0,0-.065.023c-.028.037-.054.075-.079.113l.563.274c.042.02.057.043.044.072l-.224.464.129.062c.023.011.029.031.015.057l-.054.112a.035.035,0,0,1-.033.024Zm-.8-.617h0l.468.226.153-.316-.4-.193C-1351.6-1408.506-1351.67-1408.412-1351.741-1408.327Zm2.065.579-.735-.357c-.033-.014-.041-.041-.022-.077l.053-.111a.049.049,0,0,1,.061-.031h.01v0l.736.356a.048.048,0,0,1,.031.062.055.055,0,0,1-.006.013l-.053.109c-.013.026-.029.039-.048.039A.059.059,0,0,1-1349.675-1407.749Zm20.57-.365-.06-.1c-.02-.035-.017-.061.013-.077l.8-.463-.22-.38c-.014-.022,0-.049.041-.074.2-.113.3-.157.316-.13a.048.048,0,0,1-.01.071c-.024.017-.023.049,0,.091l.15.262.755-.435c.031-.018.057-.009.077.026l.061.1c.02.035.014.062-.016.079l-1.833,1.057a.058.058,0,0,1-.025.007C-1329.075-1408.078-1329.091-1408.09-1329.1-1408.114Zm1.556.005a.041.041,0,0,1,0-.03,2.06,2.06,0,0,0,.015-.341,1.3,1.3,0,0,0-.048-.339.055.055,0,0,1,.008-.055h0l.276-.054c.046-.009.075,0,.087.019s0,.033-.015.053a.056.056,0,0,0-.027.068,2.333,2.333,0,0,1,.022.572c0,.035-.006.055-.016.061a.156.156,0,0,1-.078.015c-.061.008-.122.018-.183.031a.137.137,0,0,1-.028,0C-1327.544-1408.1-1327.548-1408.106-1327.549-1408.109Zm-25.729-.947a1.207,1.207,0,0,0-.08-.14.049.049,0,0,1-.01-.05c.1-.016.208-.035.313-.056a1.583,1.583,0,0,0,.381-.133,1.278,1.278,0,0,0,.271-.17c.009-.014.017-.021.023-.022a1.346,1.346,0,0,1,.241.319.03.03,0,0,1-.035.02h-.007a.121.121,0,0,0-.1,0,1.834,1.834,0,0,1-.516.219,3.007,3.007,0,0,1-.418.078A.128.128,0,0,1-1353.278-1409.055Zm.9-.572h.005Zm0,0h0Zm35.182-32.293a1.1,1.1,0,0,1-.414-.478,1.055,1.055,0,0,1-.092-.783.972.972,0,0,1,.553-.588.96.96,0,0,1,1.32.313,1.028,1.028,0,0,1,.069.133.98.98,0,0,1,.069.745,1,1,0,0,1-.563.59l-.082.037-.71-1.449a.717.717,0,0,0-.361.407.634.634,0,0,0,.043.476.579.579,0,0,0,.619.339l.127.357a.853.853,0,0,1-.158.015A.83.83,0,0,1-1317.2-1441.92Zm.409-1.578.531,1.084a.626.626,0,0,0,.281-.3.6.6,0,0,0-.032-.485.608.608,0,0,0-.323-.309.579.579,0,0,0-.216-.042A.575.575,0,0,0-1316.789-1443.5Zm-48.247-.658.318-.5,2.013.438.417.1c-.067-.084-.162-.206-.285-.369l-1.222-1.622.285-.449,2.307,1.464-.2.32-1.931-1.225,1.464,1.959-.19.3-2.426-.516,1.964,1.246-.207.317Zm46.354-.321,1.715-.985.165.285-.26.15a.865.865,0,0,1,.356.063.433.433,0,0,1,.176.172.765.765,0,0,1,.094.379l-.331.049a.569.569,0,0,0-.07-.268.385.385,0,0,0-.16-.155.333.333,0,0,0-.216-.033,1.2,1.2,0,0,0-.388.143l-.9.516Zm-.459-.753a.646.646,0,0,1,.158-.2,1.428,1.428,0,0,1-.392-.2,1.189,1.189,0,0,1-.29-.3.875.875,0,0,1-.175-.533.491.491,0,0,1,.23-.4.511.511,0,0,1,.3-.091.626.626,0,0,1,.316.1,1.7,1.7,0,0,1,.368.351,3.58,3.58,0,0,0,.464.48l.073-.046a.353.353,0,0,0,.183-.239.619.619,0,0,0-.135-.414.733.733,0,0,0-.279-.274.483.483,0,0,0-.351.012l-.164-.324a.711.711,0,0,1,.56,0,1.29,1.29,0,0,1,.5.475,1.234,1.234,0,0,1,.218.5.45.45,0,0,1-.061.336,1.271,1.271,0,0,1-.315.274l-.371.248a4.323,4.323,0,0,0-.478.35.707.707,0,0,0-.146.211Zm-.367-1.085a.547.547,0,0,0,.11.315.83.83,0,0,0,.263.253.55.55,0,0,0,.3.085.713.713,0,0,0,.353-.14l.105-.069a2.88,2.88,0,0,1-.438-.426,1.468,1.468,0,0,0-.237-.23.321.321,0,0,0-.17-.057h-.005A.281.281,0,0,0-1319.509-1446.315Zm-42.9-.451.216-.294,1.593,1.173-.216.294Zm.65-.881.21-.256.217.179a.759.759,0,0,1,0-.381.932.932,0,0,1,.189-.357,1,1,0,0,1,.243-.216.7.7,0,0,1,.255-.1.5.5,0,0,1,.252.033,1.361,1.361,0,0,1,.341.224l.94.774-.234.283-.93-.765a.762.762,0,0,0-.278-.164.346.346,0,0,0-.219.021.527.527,0,0,0-.2.155.59.59,0,0,0-.153.418.673.673,0,0,0,.29.442l.834.687-.23.282Zm-1.255.434.217-.294.31.229-.217.293Zm42.367-.125,1.356-1.053-.2-.257.206-.16.2.256.167-.129a.737.737,0,0,1,.316-.163.423.423,0,0,1,.261.047.809.809,0,0,1,.253.226,1.957,1.957,0,0,1,.184.292l-.264.136a1.283,1.283,0,0,0-.118-.182.348.348,0,0,0-.2-.147.328.328,0,0,0-.237.094l-.145.112.259.334-.206.16-.259-.334-1.357,1.053Zm-.7-.844,2.083-1.766.236.279-2.083,1.766Zm-38.81-1.353.248-.268,1.452,1.343-.248.268Zm38.335.636a1.094,1.094,0,0,1-.542-.327,1.054,1.054,0,0,1-.332-.715.974.974,0,0,1,.343-.73.96.96,0,0,1,1.353-.114,1.2,1.2,0,0,1,.407.792,1,1,0,0,1-.353.735l-.066.061-1.127-1.156a.723.723,0,0,0-.216.5.635.635,0,0,0,.191.437.577.577,0,0,0,.69.126l.233.3a.827.827,0,0,1-.408.107A.868.868,0,0,1-1321.82-1448.9Zm.738-.768a.624.624,0,0,0,.173-.373.6.6,0,0,0-.183-.45.607.607,0,0,0-.4-.193.579.579,0,0,0-.43.154l0,0Zm-37.463.426.225-.289a.443.443,0,0,0,.342.1.792.792,0,0,0,.549-.513.262.262,0,0,0-.062-.252.2.2,0,0,0-.207-.054,1.682,1.682,0,0,0-.346.179,3.262,3.262,0,0,1-.527.276.555.555,0,0,1-.289.023.448.448,0,0,1-.24-.133.486.486,0,0,1-.13-.445,1,1,0,0,1,.32-.53,1.274,1.274,0,0,1,.35-.247.657.657,0,0,1,.323-.068.65.65,0,0,1,.315.132l-.226.282q-.261-.2-.563.093a.7.7,0,0,0-.2.3.211.211,0,0,0,.043.213.193.193,0,0,0,.2.047,2.308,2.308,0,0,0,.368-.191,3.705,3.705,0,0,1,.544-.284.516.516,0,0,1,.272-.019.471.471,0,0,1,.238.139.543.543,0,0,1,.146.5,1.088,1.088,0,0,1-.349.581.787.787,0,0,1-.628.311A.786.786,0,0,1-1358.545-1449.241Zm-2.163-.806.247-.268.283.263-.248.267Zm4.2-.548a1.129,1.129,0,0,1-.288-.271l-.738-.866-.2.174-.168-.2.2-.174-.316-.374.148-.39.448.526.282-.239.169.2-.282.24.75.879a.42.42,0,0,0,.159.138.2.2,0,0,0,.177-.063,1.362,1.362,0,0,0,.113-.116l.229.193a1.368,1.368,0,0,1-.189.2.685.685,0,0,1-.271.157.321.321,0,0,1-.093.014A.3.3,0,0,1-1356.5-1450.595Zm32.429-.291.786-2.028.123-.311c-.1.076-.185.143-.266.2l-1.781,1.25-.317-.253,1.059-2.64.319.248-.745,1.691q-.112.262-.245.518l.418-.316,1.585-1.1.375.294-.516,1.354a7.259,7.259,0,0,1-.412.906q.209-.174.482-.378l1.451-1.094.313.245-2.329,1.647Zm-32.676-1.832.262-.2.184.239a.855.855,0,0,1,.015-.361.436.436,0,0,1,.147-.2.752.752,0,0,1,.364-.141l.091.321a.58.58,0,0,0-.255.1.4.4,0,0,0-.132.179.328.328,0,0,0,0,.22,1.171,1.171,0,0,0,.193.365l.63.823-.3.228Zm2.556,1.1a.817.817,0,0,0,.191-.09.444.444,0,0,0,.142-.135.3.3,0,0,0,.044-.16q0-.031-.059-.354l-1.774-1.2.33-.217,1.006.709a4.832,4.832,0,0,1,.382.3,4.057,4.057,0,0,1-.121-.458l-.248-1.217.307-.2.418,2.132a3.093,3.093,0,0,1,.073.576.573.573,0,0,1-.073.274.605.605,0,0,1-.193.2.83.83,0,0,1-.219.085Zm26.3-1.833.112-.223a.65.65,0,0,1-.328.08.762.762,0,0,1-.335-.086.917.917,0,0,1-.468-.54,1.012,1.012,0,0,1,.1-.806,1.209,1.209,0,0,1,.369-.455.825.825,0,0,1,.453-.162.944.944,0,0,1,.464.107.8.8,0,0,1,.267.216.7.7,0,0,1,.139.3l.442-.874.328.166-1.232,2.437Zm-.18-1.834a.839.839,0,0,0-.409.425v.009a.8.8,0,0,0-.1.589.558.558,0,0,0,.284.353.543.543,0,0,0,.443.023.755.755,0,0,0,.4-.4.9.9,0,0,0,.12-.619.552.552,0,0,0-.3-.365.516.516,0,0,0-.235-.057A.515.515,0,0,0-1328.076-1455.287Zm-23.418,1.273a.987.987,0,0,1-.588-.577.988.988,0,0,1-.065-.822,1.138,1.138,0,0,1,1.315-.611.96.96,0,0,1,.581.56,1.026,1.026,0,0,1,.076.841,1.142,1.142,0,0,1-1.029.646A1.14,1.14,0,0,1-1351.494-1454.015Zm.005-1.687a.6.6,0,0,0-.324.358.785.785,0,0,0,.071.593h0a.777.777,0,0,0,.409.437.625.625,0,0,0,.5-.023.6.6,0,0,0,.323-.358.965.965,0,0,0-.481-1.032.627.627,0,0,0-.222-.041A.623.623,0,0,0-1351.489-1455.7Zm21.441,1.234.429-1.124a.76.76,0,0,0,.067-.315.339.339,0,0,0-.089-.2.525.525,0,0,0-.209-.14.59.59,0,0,0-.445-.012.669.669,0,0,0-.326.416l-.386,1.011-.343-.132.706-1.848.308.118-.1.263a.748.748,0,0,1,.36-.125.937.937,0,0,1,.4.065,1.015,1.015,0,0,1,.282.163.679.679,0,0,1,.175.211.508.508,0,0,1,.049.249,1.4,1.4,0,0,1-.1.4l-.435,1.137Zm-19.827-1.886-.3.114-.091-.243.3-.112-.073-.2a.742.742,0,0,1-.061-.35.423.423,0,0,1,.122-.236.8.8,0,0,1,.292-.175,1.934,1.934,0,0,1,.333-.088l.051.292a1.384,1.384,0,0,0-.209.058.351.351,0,0,0-.2.142.328.328,0,0,0,.02.254l.064.17.4-.148.091.243-.4.148.6,1.607-.338.132Zm17.675,1.131a.667.667,0,0,1,0-.256,1.43,1.43,0,0,1-.427.108,1.185,1.185,0,0,1-.417-.04.868.868,0,0,1-.48-.289.489.489,0,0,1-.085-.45.513.513,0,0,1,.17-.268.624.624,0,0,1,.3-.13,1.7,1.7,0,0,1,.509.023,3.5,3.5,0,0,0,.663.061l.023-.082a.357.357,0,0,0-.018-.3.625.625,0,0,0-.374-.226.74.74,0,0,0-.391-.024.482.482,0,0,0-.257.238l-.337-.138a.715.715,0,0,1,.423-.365,1.285,1.285,0,0,1,.688.037,1.22,1.22,0,0,1,.49.233.452.452,0,0,1,.175.293,1.306,1.306,0,0,1-.06.413l-.118.431a4.371,4.371,0,0,0-.133.577.708.708,0,0,0,.028.253Zm-.775-1.043a.328.328,0,0,0-.167.067.279.279,0,0,0-.038.391.545.545,0,0,0,.289.167.83.83,0,0,0,.365.02.553.553,0,0,0,.284-.134.711.711,0,0,0,.176-.338l.031-.116a2.83,2.83,0,0,1-.61-.036,1.47,1.47,0,0,0-.251-.022Zm-14.638-1.91.385-.084.24,1.1,1.516-.332-.24-1.1.386-.085.584,2.668-.386.084-.275-1.258-1.516.331.274,1.258-.386.085Zm11.83,2.157.165-1.242a.413.413,0,0,0-.274-.517.46.46,0,0,0-.116-.018.6.6,0,0,0-.421.089.647.647,0,0,0-.233.482l-.141,1.073-.364-.05.359-2.705.362.049-.129.971a.852.852,0,0,1,.316-.164.929.929,0,0,1,.365-.02.828.828,0,0,1,.518.235.752.752,0,0,1,.12.625l-.166,1.242Zm-8.161-.318a.972.972,0,0,1-.363-.721.961.961,0,0,1,.747-1.133,1.042,1.042,0,0,1,.149-.019.985.985,0,0,1,.724.189,1,1,0,0,1,.361.73l.007.089-1.607.17a.72.72,0,0,0,.258.478.632.632,0,0,0,.464.122.577.577,0,0,0,.527-.46h.38a.828.828,0,0,1-.289.511,1.1,1.1,0,0,1-.591.225,1.022,1.022,0,0,1-.158.012A1.058,1.058,0,0,1-1343.943-1456.336Zm.561-1.595a.618.618,0,0,0-.4.2.582.582,0,0,0-.146.429l1.2-.128a.628.628,0,0,0-.186-.365.6.6,0,0,0-.387-.141A.6.6,0,0,0-1343.382-1457.931Zm5.6,1.714a.709.709,0,0,1-.3-.078.32.32,0,0,1-.149-.167,1.145,1.145,0,0,1-.016-.4l.081-1.135-.267-.019.018-.26.267.019.035-.489.379-.176-.049.689.369.026-.018.259-.369-.025-.082,1.154a.42.42,0,0,0,.018.208.2.2,0,0,0,.17.08,1.3,1.3,0,0,0,.157,0l.03.3a1.384,1.384,0,0,1-.192.013C-1337.725-1456.215-1337.752-1456.215-1337.78-1456.217Zm-3.862-.218a.488.488,0,0,1-.208-.408.5.5,0,0,1,.089-.305.627.627,0,0,1,.254-.211,1.7,1.7,0,0,1,.495-.119,3.584,3.584,0,0,0,.653-.128v-.085a.361.361,0,0,0-.1-.283.63.63,0,0,0-.421-.111.73.73,0,0,0-.382.086.485.485,0,0,0-.181.3l-.361-.038a.712.712,0,0,1,.3-.469,1.289,1.289,0,0,1,.67-.158,1.227,1.227,0,0,1,.536.086.452.452,0,0,1,.249.233,1.269,1.269,0,0,1,.058.411l.008.447a4.18,4.18,0,0,0,.034.591.73.73,0,0,0,.1.236l-.382.007a.656.656,0,0,1-.08-.244,1.4,1.4,0,0,1-.378.222,1.171,1.171,0,0,1-.411.08l-.061,0A.86.86,0,0,1-1341.642-1456.435Zm.687-.77a1.4,1.4,0,0,0-.32.073.328.328,0,0,0-.141.111.278.278,0,0,0,.073.386.542.542,0,0,0,.324.079.824.824,0,0,0,.355-.083.559.559,0,0,0,.236-.208.716.716,0,0,0,.073-.373v-.122A2.912,2.912,0,0,1-1340.955-1457.205Zm1.6.875.1-2.727.365.013-.1,2.729Z" transform="translate(1370.1 1461.38)" fill="#4e4d4d"/>
      <g id="Group_97062" data-name="Group 97062">
        <path id="Path_212114" data-name="Path 212114" d="M53.632,29.928A23.712,23.712,0,1,1,29.92,6.218,23.712,23.712,0,0,1,53.632,29.928Z" fill="#44b9e4"/>
      </g>
      <path id="Path_212120" data-name="Path 212120" d="M31.7,40.635A1.425,1.425,0,1,0,30.28,42.06,1.425,1.425,0,0,0,31.7,40.635ZM37.183,37.1a.142.142,0,0,0-.175-.223,9.634,9.634,0,0,0-1.094.849,22.712,22.712,0,0,0-2.336-4.38,23.458,23.458,0,0,0-2.921-3.484q.852-.993,1.841-1.951a.142.142,0,0,0-.175-.223,16.89,16.89,0,0,0-2.141,1.722,16.865,16.865,0,0,0-2.141-1.722.142.142,0,0,0-.175.223q.991.956,1.841,1.951a23.46,23.46,0,0,0-2.921,3.484A22.68,22.68,0,0,0,24.5,37.6a9.137,9.137,0,0,0-.953-.727.142.142,0,0,0-.175.223c.334.321.644.65.939.982a24.442,24.442,0,0,0-1.169,12.73.142.142,0,0,0,.282-.034,30.991,30.991,0,0,1,1.833-11.54A19.6,19.6,0,0,1,29.03,51.363a.142.142,0,0,0,.282.034,14.625,14.625,0,0,0-3.8-12.84,29.368,29.368,0,0,1,4.674-8.129A29.375,29.375,0,0,1,34.911,38.7,14.609,14.609,0,0,0,31.24,51.4a.142.142,0,0,0,.282-.034,19.626,19.626,0,0,1,3.643-11.953,30.936,30.936,0,0,1,1.772,11.369.142.142,0,0,0,.282.034A24.483,24.483,0,0,0,36.106,38.23q.5-.573,1.077-1.129ZM23.754,33.622a2.228,2.228,0,1,0-2.229,2.229A2.228,2.228,0,0,0,23.754,33.622ZM10.725,27.689a.142.142,0,0,0-.175.223c10.039,9.68,9.081,22.736,9.071,22.867a.142.142,0,0,0,.282.034A23.618,23.618,0,0,0,16.26,33.348a21.641,21.641,0,0,0-5.535-5.658Zm30.347,5.933a2.213,2.213,0,1,0,0,.032Zm8.76-5.9a.143.143,0,0,0-.188-.033,21.631,21.631,0,0,0-5.535,5.658,23.611,23.611,0,0,0-3.643,17.465.142.142,0,0,0,.282-.034c-.011-.131-.964-13.19,9.071-22.867a.143.143,0,0,0,.013-.189Z" fill="#ffbc00"/>
      <path id="Union_13" data-name="Union 13" d="M-1365.006-1427.675a30.027,30.027,0,0,1,27.292-31.259,30.028,30.028,0,0,1,32.459,25.856,30.027,30.027,0,0,1-24.367,33.591A30.063,30.063,0,0,1-1335-1399,30.029,30.029,0,0,1-1365.006-1427.675Zm2.316-11.375a29.462,29.462,0,0,0,8.814,32.666,29.465,29.465,0,0,0,33.715,2.842,29.464,29.464,0,0,0,14.157-30.73,29.52,29.52,0,0,0-28.976-24.193h-.011A29.462,29.462,0,0,0-1362.69-1439.051Zm27.986,8.987a2.948,2.948,0,0,1-.321-.016c0-.387-.021-.909-.042-1.508-.223-.044-.462-.28-.762-.3a4.591,4.591,0,0,1-1.551-1.129c-.125-.228-.25-.472-.363-.694-.661-2.2.723-2.805,2.593-3.193-.058-.614-.017-1.14-.044-1.676-.27-.018-.545-.036-.809-.077a4.542,4.542,0,0,1-1.322-.56v-.045l-.061-.022a1.909,1.909,0,0,1-.477-2.517,5.557,5.557,0,0,1,2.3-1.289l.3-.228c-.022-.871-.022-1.725-.036-2.618l-.551-.01c-1.157.268-2.1.687-3.112.1a3.658,3.658,0,0,0-.657-.057l.019-.068.474-.3a4.951,4.951,0,0,1-.673-.057l.008-.089c.637-.256.547-.165.766-.816.68-1.087,2.606-.85,3.706-.8,0-1.1,0-1.1-.069-4.223l.061-.113c.151-.093.623-.19.68.1.048,2.929.048,2.929.034,4.09v.281c1.158.294,2.786.97,3.206,2.29a4.344,4.344,0,0,1,.031.961,2.8,2.8,0,0,1-1.845,2.04c-.641.234-1.232.4-1.475.516.022.76.041,1.491.085,2.291.445.1,1.052.22,1.5.32a1.7,1.7,0,0,1,1.1,1,1.7,1.7,0,0,1-.111,1.485,3.069,3.069,0,0,1-2.3,1.2c-.046.974.072,2.059.1,3.087.264.238,1.317-.215,1.64-.322a3.99,3.99,0,0,0,.844-.925l.185-.069a2.2,2.2,0,0,1-.652,1.475,11.747,11.747,0,0,1-1.962.783,10.473,10.473,0,0,0-.068,1.671,2.708,2.708,0,0,1-.342.026Zm-2.21-4.823c-.355,1.034.544,1.894,1.536,2.173l.26.038c.033-1.227-.026-1.358-.073-3.043A2.251,2.251,0,0,0-1336.914-1434.886Zm2.38-3.683c-.005.505-.036,1.078,0,1.614l.076.036a2.986,2.986,0,0,0,.878-.3.666.666,0,0,0,.125-.852h0a1.292,1.292,0,0,0-1.017-.494Zm-1.229-3.219c-.683.3-1.389.582-.925,1.469l.05.022v.045h.012c.048,0,.063.011.289.173.205.063.5.148.782.211l.285.057,0,0c.012-1.478.024-1.654-.007-2.1Zm1.068-4.1q-.039,1.145.018,2.289a5.161,5.161,0,0,0,1.181-.661l-.018-.041a.837.837,0,0,0,.29-.787,1.6,1.6,0,0,0-1.389-.8C-1334.639-1445.9-1334.666-1445.9-1334.694-1445.893Zm-3.952-.99c-.131.183-.22.273.1.423a2.021,2.021,0,0,0,.4-.073l.115-.359c.2,0,.23,0,.392.2l.374-.162-.009-.159a1.474,1.474,0,0,0-.557-.109A1.489,1.489,0,0,0-1338.646-1446.883Zm10.576,16.4c-1.123-.275-1.4-.918-1.858-1.818-.664-2.5-1.593-5.506-1.137-8.016a3.369,3.369,0,0,1,2.573-2.434c.289-.094.6-.143.913-.216,1.073-.04,2.164.009,3.264.036.56.144,1.3.4,1,1.236a2.5,2.5,0,0,1-1.216.869c-1.427.268-3.061.026-4.28.56-.481.476-.491.345-.491,1.036a34.034,34.034,0,0,0,1.7,4.553c.167.6.333,1.2.521,1.8a2.565,2.565,0,0,1-.455,2.322,1.927,1.927,0,0,1-.526.073Zm-13.613-.326c-1.77-.606-1.157-2.171-.826-3.518.53-1.616,1.27-3.235,1.191-4.936-.526-1.466-2.084-1.239-3.285-1.288a4.278,4.278,0,0,1-2.624-.784,2.237,2.237,0,0,1-.458-1.826,17.547,17.547,0,0,1,5.145.453,1.834,1.834,0,0,0,.425.127,6.264,6.264,0,0,1,1.939,1.2c.151.2.3.419.458.618q.138.482.307.954c.05.67.05.67.06,1.339a37.875,37.875,0,0,1-.29,3.871,11.331,11.331,0,0,1-.906,3.372,1.366,1.366,0,0,1-.99.424A1.3,1.3,0,0,1-1341.682-1430.81Zm8.167-13.5,0,0h0Zm7.722-.027c-.559-.058-1.054-.139-1.522-.22-.7-.414-.657-.437-.713-1.151.158-1.322,1.407-1.454,2.546-1.494a4.428,4.428,0,0,1,2.292.79,1.043,1.043,0,0,1,.111,1.341,4.085,4.085,0,0,1-2.357.75C-1325.554-1444.322-1325.673-1444.326-1325.793-1444.337Zm-18.8-.326a9.861,9.861,0,0,1-2.232-.254c-.644-.235-1.009-.252-1.112-.9.344-1.973,2.6-1.406,4.034-1.116.726.3,1.755.843,1.111,1.814a2.961,2.961,0,0,1-1.586.462C-1344.451-1444.655-1344.522-1444.658-1344.594-1444.663Z" transform="translate(1365 1459)" fill="#004187"/>
    </g>
    <path id="Union_14" data-name="Union 14" d="M-1259.442-1390.53a2.775,2.775,0,0,1-.849-.148l-.138-1.137a3.088,3.088,0,0,0,.748.111,1.636,1.636,0,0,0,.69-.128,1.1,1.1,0,0,0,.45-.393q.062-.094.52-1.2l-2.941-7.119h1.419l1.619,4.1q.3.764.56,1.637a15.29,15.29,0,0,1,.534-1.613l1.655-4.126h1.321l-2.95,7.245a11.073,11.073,0,0,1-.917,1.88,2.057,2.057,0,0,1-.76.68,2.154,2.154,0,0,1-.926.209Zm-15.288-2.716q-2.8-.007-3.245-2.293l1.315-.178a1.586,1.586,0,0,0,.634,1.115,2.821,2.821,0,0,0,2.695.043.957.957,0,0,0,.467-.814.733.733,0,0,0-.4-.661,6.053,6.053,0,0,0-1.338-.4,11.847,11.847,0,0,1-2.057-.6,1.984,1.984,0,0,1-.806-.665,1.615,1.615,0,0,1-.287-.944,1.757,1.757,0,0,1,.778-1.483,3.59,3.59,0,0,1,2.155-.569,4.544,4.544,0,0,1,1.524.235,2.365,2.365,0,0,1,1.005.63,2.324,2.324,0,0,1,.481,1.133l-1.287.178q-.178-1.189-1.687-1.191a2.487,2.487,0,0,0-1.276.258.758.758,0,0,0-.42.657.688.688,0,0,0,.4.621,8.508,8.508,0,0,0,1.429.431,13.07,13.07,0,0,1,2.12.623,1.841,1.841,0,0,1,.752.633,1.675,1.675,0,0,1,.267.952,1.955,1.955,0,0,1-.863,1.655,3.877,3.877,0,0,1-2.137.64Q-1274.621-1393.24-1274.73-1393.246Zm167.272-.949a3.519,3.519,0,0,1-1.021-2.722,3.454,3.454,0,0,1,.949-2.733,3.456,3.456,0,0,1,2.7-1.052,3.526,3.526,0,0,1,2.519.956,3.622,3.622,0,0,1,1.01,2.762l-.009.323h-5.808a2.6,2.6,0,0,0,.741,1.815,2.283,2.283,0,0,0,1.606.611,2.082,2.082,0,0,0,2.063-1.468l1.355.149a3.006,3.006,0,0,1-1.226,1.724,3.951,3.951,0,0,1-2.2.58c-.057,0-.113,0-.17,0A3.785,3.785,0,0,1-1107.458-1394.195Zm1.1-4.965a2.112,2.112,0,0,0-.688,1.511h4.343a2.3,2.3,0,0,0-.527-1.4,2.139,2.139,0,0,0-1.617-.671h-.05A2.185,2.185,0,0,0-1106.356-1399.16Zm-15.1,5.357a1.767,1.767,0,0,1-.724-1.485,1.841,1.841,0,0,1,.339-1.1,2.266,2.266,0,0,1,.929-.746,6.224,6.224,0,0,1,1.788-.4,13.179,13.179,0,0,0,2.359-.41l.009-.311a1.31,1.31,0,0,0-.348-1.037,2.23,2.23,0,0,0-1.5-.433,2.6,2.6,0,0,0-1.371.288,1.754,1.754,0,0,0-.668,1.081l-1.315-.178a2.552,2.552,0,0,1,1.121-1.657,4.613,4.613,0,0,1,2.416-.521,4.426,4.426,0,0,1,1.92.346,1.622,1.622,0,0,1,.88.857,4.671,4.671,0,0,1,.184,1.488v1.61a15.321,15.321,0,0,0,.085,2.131,2.617,2.617,0,0,0,.339.855h-1.369a2.294,2.294,0,0,1-.279-.865,5.116,5.116,0,0,1-1.375.778,4.279,4.279,0,0,1-1.483.261c-.055,0-.109,0-.163,0A3.109,3.109,0,0,1-1121.46-1393.8Zm2.539-2.737a5.123,5.123,0,0,0-1.163.246,1.17,1.17,0,0,0-.516.391,1.01,1.01,0,0,0,.238,1.4,1.948,1.948,0,0,0,1.164.307,2.941,2.941,0,0,0,1.283-.277,1.979,1.979,0,0,0,.865-.734,2.55,2.55,0,0,0,.286-1.338v-.445A10.685,10.685,0,0,1-1118.921-1396.54Zm-18.638,2.345a3.522,3.522,0,0,1-1.022-2.722,3.455,3.455,0,0,1,.949-2.733,3.451,3.451,0,0,1,2.695-1.052,3.524,3.524,0,0,1,2.519.954,3.622,3.622,0,0,1,1.01,2.763l-.009.324h-5.807a2.6,2.6,0,0,0,.741,1.813,2.286,2.286,0,0,0,1.607.611,2.078,2.078,0,0,0,2.061-1.466l1.356.149a2.984,2.984,0,0,1-1.228,1.722,3.945,3.945,0,0,1-2.2.58c-.057,0-.113,0-.17,0A3.784,3.784,0,0,1-1137.56-1394.195Zm1.1-4.965a2.117,2.117,0,0,0-.688,1.511h4.344a2.3,2.3,0,0,0-.528-1.4,2.139,2.139,0,0,0-1.618-.671h-.046A2.192,2.192,0,0,0-1136.457-1399.16Zm-45.423,5.357a1.77,1.77,0,0,1-.723-1.485,1.847,1.847,0,0,1,.339-1.1,2.27,2.27,0,0,1,.93-.746,6.122,6.122,0,0,1,1.787-.4,12.9,12.9,0,0,0,2.359-.41l.009-.311a1.311,1.311,0,0,0-.347-1.036,2.226,2.226,0,0,0-1.5-.432,2.591,2.591,0,0,0-1.37.287,1.75,1.75,0,0,0-.668,1.082l-1.316-.179a2.552,2.552,0,0,1,1.121-1.658,4.632,4.632,0,0,1,2.416-.519,4.407,4.407,0,0,1,1.921.345,1.629,1.629,0,0,1,.88.856,4.676,4.676,0,0,1,.183,1.489v1.61a15.467,15.467,0,0,0,.085,2.132,2.627,2.627,0,0,0,.339.854h-1.369a2.314,2.314,0,0,1-.276-.864,5.086,5.086,0,0,1-1.375.778,4.27,4.27,0,0,1-1.482.261c-.053,0-.106,0-.159,0A3.12,3.12,0,0,1-1181.88-1393.8Zm2.54-2.737a5.138,5.138,0,0,0-1.165.246,1.168,1.168,0,0,0-.515.391,1.01,1.01,0,0,0,.237,1.4,1.949,1.949,0,0,0,1.165.307,2.941,2.941,0,0,0,1.283-.277,1.971,1.971,0,0,0,.864-.734,2.55,2.55,0,0,0,.287-1.338v-.445A10.689,10.689,0,0,1-1179.34-1396.54Zm-31.82,2.737a1.766,1.766,0,0,1-.723-1.485,1.847,1.847,0,0,1,.338-1.1,2.27,2.27,0,0,1,.93-.746,6.214,6.214,0,0,1,1.786-.4,13.191,13.191,0,0,0,2.36-.41l.008-.311a1.31,1.31,0,0,0-.346-1.037,2.232,2.232,0,0,0-1.5-.433,2.582,2.582,0,0,0-1.37.288,1.754,1.754,0,0,0-.668,1.081l-1.315-.178a2.546,2.546,0,0,1,1.12-1.657,4.622,4.622,0,0,1,2.417-.521,4.43,4.43,0,0,1,1.92.346,1.623,1.623,0,0,1,.879.857,4.616,4.616,0,0,1,.183,1.488v1.61a15.454,15.454,0,0,0,.085,2.131,2.564,2.564,0,0,0,.339.855h-1.37a2.347,2.347,0,0,1-.278-.865,5.106,5.106,0,0,1-1.376.778,4.27,4.27,0,0,1-1.482.261c-.054,0-.109,0-.163,0A3.112,3.112,0,0,1-1211.16-1393.8Zm2.539-2.737a5.14,5.14,0,0,0-1.164.246,1.166,1.166,0,0,0-.514.391,1.01,1.01,0,0,0,.237,1.4,1.946,1.946,0,0,0,1.163.307,2.949,2.949,0,0,0,1.285-.277,1.971,1.971,0,0,0,.862-.734,2.551,2.551,0,0,0,.288-1.338v-.445A10.7,10.7,0,0,1-1208.621-1396.54Zm-10.768,2.345a3.522,3.522,0,0,1-1.022-2.722,3.455,3.455,0,0,1,.95-2.733,3.451,3.451,0,0,1,2.695-1.052,3.527,3.527,0,0,1,2.52.954,3.628,3.628,0,0,1,1.009,2.763l-.009.324h-5.807a2.6,2.6,0,0,0,.741,1.813,2.282,2.282,0,0,0,1.607.611,2.08,2.08,0,0,0,2.062-1.466l1.356.149a3,3,0,0,1-1.228,1.722,3.945,3.945,0,0,1-2.2.58c-.057,0-.113,0-.17,0A3.784,3.784,0,0,1-1219.388-1394.195Zm1.1-4.965a2.128,2.128,0,0,0-.686,1.511h4.342a2.293,2.293,0,0,0-.527-1.4,2.138,2.138,0,0,0-1.617-.671h-.046A2.192,2.192,0,0,0-1218.289-1399.16Zm-29.372,4.968a3.567,3.567,0,0,1-1.039-2.786,3.584,3.584,0,0,1,1.031-2.787,4.084,4.084,0,0,1,5.209,0,3.462,3.462,0,0,1,1.046,2.713,3.693,3.693,0,0,1-1.028,2.861,4.082,4.082,0,0,1-2.61.941A4.083,4.083,0,0,1-1247.661-1394.192Zm.98-4.845a2.858,2.858,0,0,0-.659,2.057l0,0a2.837,2.837,0,0,0,.667,2.065,2.234,2.234,0,0,0,1.655.679,2.139,2.139,0,0,0,1.589-.684,3.524,3.524,0,0,0,0-4.12,2.239,2.239,0,0,0-1.655-.676h-.029A2.139,2.139,0,0,0-1246.681-1399.036Zm82.11,4.809a3.66,3.66,0,0,1-1-2.75,4.387,4.387,0,0,1,.445-2.062,2.964,2.964,0,0,1,1.191-1.254,3.373,3.373,0,0,1,1.655-.409,2.828,2.828,0,0,1,1.209.257,2.488,2.488,0,0,1,.923.716v-3.505h1.329v9.821l-1.238,0v-.888a2.32,2.32,0,0,1-.92.783,2.753,2.753,0,0,1-1.215.27h-.037A3.3,3.3,0,0,1-1164.571-1394.228Zm.949-4.827a3.058,3.058,0,0,0-.6,2.084h0a2.9,2.9,0,0,0,.638,2.059,1.981,1.981,0,0,0,1.485.671,1.938,1.938,0,0,0,1.453-.645,2.736,2.736,0,0,0,.615-1.952,3.232,3.232,0,0,0-.615-2.191,2,2,0,0,0-1.552-.69h-.006A1.858,1.858,0,0,0-1163.623-1399.055Zm-34.746,5.53a1.137,1.137,0,0,1-.576-.558,4.109,4.109,0,0,1-.157-1.415v-4.1h-.958v-.946h.958v-1.753l1.315-.726v2.478h1.329v.946h-1.329v4.164a1.5,1.5,0,0,0,.117.743.724.724,0,0,0,.633.242,4.046,4.046,0,0,0,.58-.054l.177,1.069a4.994,4.994,0,0,1-.982.11l-.1,0A2.542,2.542,0,0,1-1198.369-1393.525Zm-70.393,0a1.134,1.134,0,0,1-.576-.558,4.106,4.106,0,0,1-.156-1.415v-4.1h-.959v-.946h.959v-1.753l1.315-.726v2.478h1.328v.946h-1.328v4.164a1.494,1.494,0,0,0,.116.743.723.723,0,0,0,.633.242,4.02,4.02,0,0,0,.579-.054l.178,1.069a5,5,0,0,1-.982.11l-.1,0A2.542,2.542,0,0,1-1268.761-1393.525Zm73.728.108v-9.823h1.315v3.516a3.1,3.1,0,0,1,1.051-.736,3.325,3.325,0,0,1,1.292-.243,3,3,0,0,1,1.965.593,2.717,2.717,0,0,1,.72,2.178v4.515h-1.316v-4.515a1.491,1.491,0,0,0-.388-1.28,1.486,1.486,0,0,0-1.257-.451,2.172,2.172,0,0,0-1.463.517,2.32,2.32,0,0,0-.6,1.831v3.9Zm69.315,0v-6.177h-1.166v-.946h1.164v-.753a2.624,2.624,0,0,1,.233-1.251,1.51,1.51,0,0,1,.711-.637,2.9,2.9,0,0,1,1.2-.22,7.113,7.113,0,0,1,1.235.122l-.2,1.056a4.748,4.748,0,0,0-.776-.068,1.242,1.242,0,0,0-.843.229,1.164,1.164,0,0,0-.254.874v.65h1.52v.946h-1.52v6.177Zm12.512,0v-7.123h1.193v1.076a3.118,3.118,0,0,1,.836-1,1.558,1.558,0,0,1,.854-.243,2.777,2.777,0,0,1,1.351.383l-.452,1.125a2.037,2.037,0,0,0-.956-.261,1.413,1.413,0,0,0-.77.222,1.186,1.186,0,0,0-.49.617,4.265,4.265,0,0,0-.251,1.47v3.729Zm-16.438,0v-9.823h1.315v9.823Zm-23.332-9.823h1.449l1.631,6.439q.259.991.455,2.011l.483-1.816,2.051-6.634h1.7l1.536,4.972a26.645,26.645,0,0,1,.84,3.479q.205-.959.528-2.137l1.691-6.314h1.429l-2.947,9.822h-1.366l-2.264-7.484-.339-1.152q-.151.644-.313,1.152l-2.279,7.484-1.452,0Zm-20.652,9.823v-7.123h1.2v1a2.707,2.707,0,0,1,1.047-.878,3.3,3.3,0,0,1,1.421-.29,3.472,3.472,0,0,1,1.154.185,2.442,2.442,0,0,1,.856.484,1.809,1.809,0,0,1,.485.773,4.922,4.922,0,0,1,.161,1.462v4.382h-1.315v-4.339a2.751,2.751,0,0,0-.179-1.147,1.245,1.245,0,0,0-.557-.562,1.879,1.879,0,0,0-.878-.2,2.1,2.1,0,0,0-1.508.531,2.431,2.431,0,0,0-.563,1.819v3.9Zm-29.316,0v-9.823h1.315v9.823Zm-20.847,0v-4.63h-5.575v4.63h-1.425v-9.823h1.425v4.031h5.575v-4.031h1.425v9.823Zm-15.519-6.177h-1.164v-.946h1.164v-.759a2.657,2.657,0,0,1,.232-1.251,1.517,1.517,0,0,1,.712-.637,2.917,2.917,0,0,1,1.2-.219,7.031,7.031,0,0,1,1.235.122l-.2,1.056a4.671,4.671,0,0,0-.776-.068,1.242,1.242,0,0,0-.844.229,1.16,1.16,0,0,0-.254.874v.65h1.521v.946H-1238v6.176l-1.31,0Zm-26.117,6.177v-7.123h1.193v1.076a3.107,3.107,0,0,1,.836-1,1.561,1.561,0,0,1,.855-.243,2.777,2.777,0,0,1,1.35.383l-.452,1.125a2.056,2.056,0,0,0-.958-.261,1.41,1.41,0,0,0-.769.22,1.193,1.193,0,0,0-.491.618,4.277,4.277,0,0,0-.251,1.469v3.731Zm-15.557,0v-7.124h1.315v7.124Zm-8.527,0v-7.123h1.192v1a2.736,2.736,0,0,1,1.047-.878,3.3,3.3,0,0,1,1.421-.29,3.517,3.517,0,0,1,1.154.185,2.412,2.412,0,0,1,.855.484,1.8,1.8,0,0,1,.486.773,4.954,4.954,0,0,1,.16,1.462v4.382h-1.315v-4.339a2.753,2.753,0,0,0-.178-1.147,1.244,1.244,0,0,0-.558-.562,1.878,1.878,0,0,0-.878-.2,2.1,2.1,0,0,0-1.508.531,2.43,2.43,0,0,0-.562,1.819v3.9Zm-3.516,0v-7.124h1.315v7.124Zm-3.641,0v-8.244l-3.128,8.244h-1.277l-3.115-8.4v8.4h-1.371v-9.823h2.139l2.55,6.955.509,1.453q.188-.544.572-1.574l2.575-6.835h1.914v9.823Zm15.683-8.439v-1.383h1.315v1.383Zm-12.043,0v-1.383h1.315v1.383Zm5.552-7.767c-.117,0-.175-.148-.175-.449a3.155,3.155,0,0,0-.41-1.246v-.1a5.418,5.418,0,0,0,1.407.2q1.523,0,1.523-.871v-12.073h-3.28c-.234,0-.352-.133-.352-.4v-.8q0-.377.352-.377v0h7.374c.234,0,.35.125.35.376v.8c0,.266-.116.4-.35.4h-2.109v12.751q0,1.793-3.39,1.794Zm121.747-.111q-.467,0-.467-.275v-10.567q-.175.276-.323.5a25.911,25.911,0,0,1-2.226,2.814,19.871,19.871,0,0,1-2.725,2.342.8.8,0,0,1-.526-.148,14.266,14.266,0,0,0-1.142-.873.643.643,0,0,1-.088-.248,15.9,15.9,0,0,0,2.138-1.593,17.916,17.916,0,0,0,2.521-2.74,35.236,35.236,0,0,0,2.166-3.561h-6.356c-.234,0-.352-.134-.352-.4v-.791c0-.266.118-.4.352-.4h6.562v-4.109q-.528.076-1.025.125-2.082.2-3.78.2a.616.616,0,0,1-.643-.346c-.254-.316-.547-.666-.879-1.046,0-.183.118-.273.352-.273h1.759a26.359,26.359,0,0,0,3.663-.222,15.672,15.672,0,0,0,2.776-.454,9.738,9.738,0,0,0,2.725-.968.571.571,0,0,1,.206-.075.774.774,0,0,1,.5.123q1.728,1.272,1.729,1.594c0,.184-.117.273-.352.273l-.826-.271a2.349,2.349,0,0,0-.5.075,23.3,23.3,0,0,1-2.959.771,4.04,4.04,0,0,1-.643.148v4.458h5.626c.233,0,.352.132.352.4v.791c0,.264-.119.4-.352.4h-5.3a20.591,20.591,0,0,0,1.669,2.589,16.2,16.2,0,0,0,3.37,3.038c.176.068.263.15.263.249,0,.068-.068.14-.206.224a6.74,6.74,0,0,1-.878.772.478.478,0,0,1-.323.2,1.544,1.544,0,0,1-.527-.148,16.25,16.25,0,0,1-2.841-2.94q-.439-.6-.85-1.246v11.329q0,.275-.467.275Zm54.952-.059c-.311,0-.467-.108-.467-.326v-21.526c0-.2.156-.3.467-.3h8.2a1.466,1.466,0,0,1,.76.148q.764.478.763.679l-4.189,7.152a1.154,1.154,0,0,0-.117.4.615.615,0,0,0,.206.4,11.789,11.789,0,0,1,2.518,3.19,8.237,8.237,0,0,1,1.025,3.883,4.319,4.319,0,0,1-.614,2.316,3.326,3.326,0,0,1-1.875,1.444,5.883,5.883,0,0,1-2.7.449c-.509,0-.764-.15-.763-.449a3.215,3.215,0,0,0-.527-1.369c0-.2.117-.3.353-.3l1.406.2a2.484,2.484,0,0,0,1.992-.7,2.181,2.181,0,0,0,.586-1.594,7.326,7.326,0,0,0-.819-3.114,14.192,14.192,0,0,0-3.017-3.734c-.175-.1-.263-.21-.263-.326a1.168,1.168,0,0,1,.117-.4l4.219-6.773-5.591.005v20.319c0,.218-.167.326-.5.326Zm-183.272-.012c-.233,0-.348-.109-.348-.326v-2.292h-7.618c-.156,0-.233-.132-.233-.4v-.8c0-.2.077-.3.233-.3h1.994v-3.19c0-.182.116-.274.35-.274h5.273v-1.421c0-.131.115-.2.348-.2q2.1,0,2.1.3c0,.215-.079.333-.234.348s-.234.166-.234.448v.521h3.046c.177,0,.263.094.263.276v.83c0,.251-.086.376-.263.376l-3.04,0v1.982h3.515c.157,0,.234.1.234.3v.8c0,.268-.077.4-.234.4h-3.515v2.292c0,.215-.146.326-.438.326Zm-3.983-4.118h3.64v-1.982h-3.64Zm-7.026,4.116c-.234,0-.35-.108-.35-.323v-10.112q-.761.7-1.992,1.643a.96.96,0,0,1-.585-.225q-.419-.3-.852-.573a.352.352,0,0,1-.2-.3q1.023-.8,2.05-1.719a13.546,13.546,0,0,0,2.341-2.637,11.79,11.79,0,0,0,1.343-2.517c.011-.132.05-.2.109-.2a8.815,8.815,0,0,1,2.342,1.193q0,.227-.2.227a.871.871,0,0,0-.615.273,19.735,19.735,0,0,1-1.759,2.74v12.2q0,.323-.466.323Zm151.962,0c-.158,0-.234-.167-.234-.5a4.175,4.175,0,0,0-.586-1.22c0-.2.078-.3.232-.3a11.645,11.645,0,0,0,2.463.3q1.286,0,1.288-.894v-18.128a9.775,9.775,0,0,0-.058-1.247,3.1,3.1,0,0,1-.058-.523c0-.148.157-.225.467-.225l2.556.274c.272.1.41.175.41.225q0,.273-.44.273-.644.226-.644,1.32v18.625q0,2.017-3.289,2.018Zm-40.065,0c-.312,0-.468-.106-.468-.323v-1H-1204.3v1c0,.217-.157.323-.467.323h-1.173c-.312,0-.468-.106-.468-.323v-10.438c0-.283.156-.423.468-.423h13.947c.312,0,.467.1.467.3v10.563c0,.217-.156.323-.467.323Zm-4.687-2.9h4.217v-2.584h-4.217Zm-6.453,0h4.342v-2.585h-4.342Zm6.453-4.188h4.217v-2.485h-4.217Zm-6.453,0h4.342v-2.487h-4.342Zm88.134,7.093c-.294,0-.44-.107-.44-.323v-1.2h-8.007v1.2c0,.216-.158.323-.47.323h-1.171c-.313,0-.47-.107-.47-.323v-8.456c0-.265.158-.4.47-.4h11.261c.313,0,.47.1.47.3v8.554c0,.216-.156.323-.47.323Zm-8.447-3.1h8.007v-4.464h-8.006Zm-88.575,3.1c-.312,0-.468-.106-.468-.322v-15.04h-4.336q-.352,0-.352-.4v-.79c0-.267.117-.4.352-.4h10.31c.237,0,.353.131.353.4v.79c0,.263-.116.4-.353.4h-3.866v15.04c0,.216-.157.322-.467.322Zm-49.562-.713c-.234,0-.352-.126-.352-.375v-.987c0-.215.117-.321.352-.321h12.656v-6.778h-9.141c-.234,0-.35-.124-.35-.375v-.831c0-.25.116-.376.35-.376h9.141v-5.673h-7.88q-.617,1.223-1.29,2.317a14.2,14.2,0,0,1-1.729,2.066,2.056,2.056,0,0,1-.673-.1q-.617-.224-1.23-.4-.205-.1-.205-.172a.275.275,0,0,1,.117-.25,13.708,13.708,0,0,0,2.578-3.362,16.674,16.674,0,0,0,1.171-2.453,24.366,24.366,0,0,0,1.055-3.486c.061-.147.139-.221.237-.221l2.138.621c.215.133.321.249.321.347a.382.382,0,0,1-.35.4.417.417,0,0,0-.44.347q-.528,1.6-.937,2.666h7.118v-4.505c0-.2.156-.3.47-.3q2.223,0,2.226.3a.353.353,0,0,1-.293.4c-.194.015-.292.182-.292.5v3.612h9.844c.235,0,.352.092.352.274v1c0,.269-.117.4-.352.4h-9.844v5.674h8.438c.234,0,.352.125.352.376v.83c0,.251-.118.375-.352.375h-8.439v6.778h11.25c.234,0,.352.106.352.321v.987c0,.248-.117.375-.352.375Zm44.4-1.989a19.312,19.312,0,0,0,.848-3.288q.266-2.412.323-7.222c0-.165.077-.248.234-.248l2.138.423c.214.084.323.183.323.3,0,.2-.088.307-.263.324-.294.1-.48.38-.557.847a49.73,49.73,0,0,1-.264,6.3q-.323,1.668-.675,2.962c0,.149-.117.225-.352.225Q-1218.349-1412.37-1218.35-1412.522Zm8.964-.673a84,84,0,0,1-.529-9.561c0-.284.158-.423.471-.423v0h1.056c.312,0,.47.139.47.42a11.419,11.419,0,0,0-.354,2.766,21.02,21.02,0,0,0,1.055,6.8c0,.118-.1.2-.292.251q-.849.078-1.7.125Zm53.721-2.209c-.311,0-.467-.1-.467-.3v-13.752c0-.2.157-.3.467-.3v0q2.226,0,2.226.3c0,.234-.1.368-.293.4s-.292.186-.292.5v12.848c0,.2-.156.3-.467.3Zm-143.654-4.064c-.313,0-.471-.108-.471-.326v-3.969c0-.215.157-.326.471-.326h8.9c.313,0,.471.11.471.325v3.969c0,.218-.157.326-.471.326Zm1.515-1.431h5.873v-1.758h-5.873Zm169.686-.08c-.234,0-.352-.132-.352-.4v-.8c0-.253.117-.377.352-.377h15.262c.215,0,.324.124.324.377v.8c0,.268-.109.4-.324.4Zm-76.638-1.7q-.467,0-.467-.321v-5.458c0-.2.157-.3.467-.3l-.005,0h11.716c.313,0,.47.1.47.3V-1423c0,.212-.156.321-.47.321Zm1.639-1.613h8.432v-2.885h-8.432Zm85.513,1.366q-.614-.248-1.142-.425c-.156-.048-.234-.089-.234-.123a.292.292,0,0,1,.088-.174,13.277,13.277,0,0,0,1.2-1.894,8.55,8.55,0,0,0,.85-2.092c.058-.2.138-.3.236-.3v-.005l1.758.6q.439.148.438.4c0,.116-.087.2-.263.248a.37.37,0,0,0-.381.3,15.235,15.235,0,0,1-1.758,3.336c-.117.2-.215.3-.293.3A1.037,1.037,0,0,1-1117.6-1422.925Zm-7.265-1.577a14.438,14.438,0,0,0-1.142-2.341q0-.224,1.64-.921h0a18,18,0,0,1,1.2,2.39,10.27,10.27,0,0,1,.792,2.091,8.3,8.3,0,0,1-1.993.522A9.527,9.527,0,0,0-1124.87-1424.5Zm-175.744-1.161c-.157,0-.233-.092-.233-.277v-.83c0-.2.077-.3.233-.3h3.047q.235-1.044.5-2.284h-2.842c-.156,0-.233-.1-.233-.3v-.8c0-.211.076-.31.23-.31h3.106q.234-1,.411-2.091a.344.344,0,0,1,.35-.2l1.611.349c.254.05.381.174.381.374,0,.232-.127.347-.381.347a.492.492,0,0,0-.322.324c-.059.319-.108.615-.149.9h4.132c.311,0,.467.1.467.3v3.392h.939c.176,0,.263.1.263.3v.828c0,.184-.087.277-.263.277Zm4.9-1.409v0h3.427v-2.282h-2.9Q-1295.448-1428.117-1295.713-1427.072Zm-11.317.108a7.469,7.469,0,0,0-.879-.6c-.137-.085-.2-.174-.2-.275q.848-.6,1.7-1.221a10.189,10.189,0,0,0,1.875-1.891,8.128,8.128,0,0,0,1.113-1.794c.013-.13.053-.2.111-.2a8.769,8.769,0,0,1,2.344,1.2c0,.149-.069.223-.206.223a.822.822,0,0,0-.616.3,12.046,12.046,0,0,1-2.432,2.786,19.332,19.332,0,0,1-2.254,1.669h-.015A.835.835,0,0,1-1307.03-1426.964Zm179.485-1.308c-.214,0-.321-.132-.321-.4v-.792c0-.263.107-.4.321-.4h6.094v-2.885q0-.3.469-.3,2.225,0,2.225.3c0,.23-.1.357-.294.373-.193.033-.292.207-.292.523v1.99h5.743c.233,0,.35.132.35.4v.792c0,.263-.117.4-.35.4Zm-159.712-1.265c-.234,0-.352-.135-.352-.4v-.8c0-.254.117-.379.352-.379h5.392c.234,0,.352.125.352.379v.8q0,.4-.352.4Zm70.663-.594c-.233,0-.35-.139-.35-.42v-.791c0-.266.116-.394.349-.394v-.006h7.618c.235,0,.352.134.352.4v.791c0,.281-.117.42-.352.42Zm10.663-.321c-.234,0-.35-.132-.35-.4v-.792c0-.263.116-.4.35-.4h14.175q.352,0,.352.4v.792c0,.266-.117.4-.352.4Zm0-1.591h0Zm56.353-.5h0Zm28.6-.5h0Z" transform="translate(1376.869 1433.987)" fill="#212529"/>
    <path id="Path_212210" data-name="Path 212210" d="M71.83,47.7v3.723h4q.087,0,.087.142v.252q0,.186-.087.186h-4.6c-.088,0-.131-.047-.131-.142v-4.6a.116.116,0,0,1,.1-.131.126.126,0,0,1,.033,0h4.6q.087,0,.088.131v.263c0,.117-.029.175-.088.175H73.324l.153.066q.109.055.109.12c0,.037-.033.062-.1.077-.1,0-.164.026-.186.077q-.088.154-.175.285h2.343a.078.078,0,0,1,.088.066.081.081,0,0,1,0,.021v.252c0,.1-.029.142-.088.142H74.457a4.922,4.922,0,0,1-.077.69h1.259c.065,0,.1.029.1.088v.264c0,.088-.033.131-.1.131H74.511a1.589,1.589,0,0,0,.274.274,3.433,3.433,0,0,0,.526.361,2.082,2.082,0,0,0,.515.2c0,.044-.029.077-.087.1q-.186.2-.317.361-.055.066-.077.066a2.592,2.592,0,0,1-.647-.416,2.356,2.356,0,0,1-.482-.493,1.323,1.323,0,0,1-.12-.164,1.536,1.536,0,0,1-.2.274,2.007,2.007,0,0,1-.569.427,2.751,2.751,0,0,1-.745.329,4.193,4.193,0,0,1-.439-.482,2.354,2.354,0,0,0,.536-.2,2.05,2.05,0,0,0,.58-.383,1.65,1.65,0,0,0,.208-.252h-1.11c-.058,0-.087-.044-.087-.131V49.59a.078.078,0,0,1,.066-.088h1.347a3.515,3.515,0,0,0,.109-.69h-1.04a1.967,1.967,0,0,1-.208.219.248.248,0,0,1-.142.077.336.336,0,0,1-.141-.044q-.154-.076-.307-.142c-.051-.007-.077-.015-.077-.022a.16.16,0,0,1,.044-.066,4.459,4.459,0,0,0,.559-.547,2.049,2.049,0,0,0,.372-.58Zm5-.613h2.327q.164,0,.164.131V48.23c0,.037.025.059.077.066a.9.9,0,0,0,.274.033h.044q.274,0,.351-.1a1.6,1.6,0,0,0,.2-.493q0-.033.12-.033a.421.421,0,0,1,.131.033,2.343,2.343,0,0,0,.34.131q.142.022.142.142a3.513,3.513,0,0,1-.361.821q-.132.187-.6.186h-.712a2.31,2.31,0,0,1-.58-.055c-.073-.029-.109-.073-.109-.131V47.7H77.356v.077a2.1,2.1,0,0,1-.109.69,1.019,1.019,0,0,1-.394.482,2.556,2.556,0,0,1-.492.294.251.251,0,0,1-.186-.066q-.143-.186-.274-.329a.19.19,0,0,1-.066-.131,1.373,1.373,0,0,0,.723-.536,1.044,1.044,0,0,0,.109-.493v-.471q-.01-.124.168-.124Zm-.481,2.289h3.317a.223.223,0,0,1,.142.044.733.733,0,0,1,.175.263,6.315,6.315,0,0,1-.4.788,4.766,4.766,0,0,1-.471.591.515.515,0,0,1-.077.066q.2.066.416.12a10.7,10.7,0,0,0,1.226.241q.087.011.088.033a.149.149,0,0,1-.044.109,4.221,4.221,0,0,0-.361.361c-.051.065-.091.1-.12.1a.632.632,0,0,1-.153-.044q-.361-.066-.8-.186-.5-.142-.9-.3a4.346,4.346,0,0,1-.788.34,4.679,4.679,0,0,1-.853.23.181.181,0,0,1-.164-.087q-.1-.153-.2-.317a.134.134,0,0,1-.033-.077.043.043,0,0,1,.033-.044,5.727,5.727,0,0,0,.635-.142,4.109,4.109,0,0,0,.734-.241q-.11-.066-.186-.12a2.106,2.106,0,0,1-.548-.526,2.56,2.56,0,0,1-.394-.646h-.261c-.059,0-.088-.055-.088-.164V49.5c0-.08.026-.121.088-.121Zm.975.559a2.217,2.217,0,0,0,.131.2,2.485,2.485,0,0,0,.5.493,2.857,2.857,0,0,0,.416.23,1.786,1.786,0,0,0,.285-.208,3.012,3.012,0,0,0,.416-.547,1.242,1.242,0,0,0,.088-.164ZM70.906,52.49h9.953q.087,0,.088.131v.252c0,.1-.029.142-.088.142H77.137v.646H79.9q.175,0,.175.131v3.384q0,.132-.175.131H72.017q-.186,0-.186-.131V53.793q0-.131.186-.131h2.552a2.81,2.81,0,0,0,.1-.646H70.914c-.059,0-.088-.047-.088-.142v-.252q0-.129.085-.129Zm5.563,1.172v-.646h-1.1a4.524,4.524,0,0,1-.077.646Zm2.8,3.077v-.482H72.622v.482Zm-6.647-1.008h6.647v-.46q-.241.011-.6.022H77.092q-.625,0-.624-.439V54.23H75.1a1.765,1.765,0,0,1-.329.5,2.364,2.364,0,0,1-.624.4,3.046,3.046,0,0,1-.832.319q-.263-.263-.482-.471a3.632,3.632,0,0,0,.613-.2,3.116,3.116,0,0,0,.636-.362,2.107,2.107,0,0,0,.175-.2H72.624Zm4.512-1.5v.35q0,.186.208.186h1.325a3.67,3.67,0,0,0,.6-.044v-.492Zm7.86-6.427h4.248v-.186a2.146,2.146,0,0,0-.044-.493.6.6,0,0,1-.044-.2q0-.087.208-.088l.887.109c.08.044.12.077.12.1,0,.073-.04.109-.12.109q-.23.077-.23.5V47.8h4.556q.131,0,.131.175v.351c0,.11-.044.164-.131.164H90.02V49.2H93.4q.164,0,.164.131v1.884c0,.08-.055.12-.164.12H90.02v.712H93.7q.186,0,.186.131v1.27h.821q.142,0,.142.164v.361c0,.11-.048.164-.142.164h-.821V55.9q0,.12-.186.12H93.26c-.117,0-.175-.04-.175-.12v-.361H90.02v.876q0,.8-1.172.8h-.756c-.058,0-.088-.066-.088-.2A2.045,2.045,0,0,0,87.8,56.5a.077.077,0,0,1,.066-.088h.021a4.916,4.916,0,0,0,.876.088q.482,0,.482-.394v-.569h-3.56c-.08,0-.12-.055-.12-.164v-.361c0-.109.04-.164.12-.164H89.24v-.712H84.894c-.088,0-.131-.055-.131-.164V53.61q0-.164.131-.164H89.24v-.712H85.681c-.08,0-.12-.055-.12-.164v-.361c0-.109.04-.164.12-.164H89.24v-.712H86.007q-.186,0-.186-.12V49.329q0-.131.186-.131h3.242v-.712H85c-.1,0-.142-.055-.142-.164v-.35c0-.106.047-.168.142-.168Zm7.786,2.847V49.9H90.021v.756Zm-3.537,0V49.9H86.6v.756Zm.777,2.092v.712h3.067v-.712Zm0,1.4v.712h3.067v-.712Zm13.334-7.129a4.493,4.493,0,0,1,1.237.164q0,.088-.153.175a.417.417,0,0,0-.252.4q-.022.81-.066,1.5a10.564,10.564,0,0,0,.2,1.927,10.082,10.082,0,0,0,.6,1.752,6.909,6.909,0,0,0,.81,1.3,6.058,6.058,0,0,0,1.292,1.248,6.457,6.457,0,0,0,1.819.929.175.175,0,0,1-.109.164q-.219.241-.4.471c-.073.08-.12.12-.142.12a9.325,9.325,0,0,1-1.828-1.1,4.831,4.831,0,0,1-1.215-1.248,7.989,7.989,0,0,1-.92-1.467,7.129,7.129,0,0,1-.515-1.369q-.044.165-.087.317a9.515,9.515,0,0,1-.58,1.511,5.79,5.79,0,0,1-1.018,1.511,7.254,7.254,0,0,1-1.04.877,6.416,6.416,0,0,1-1.741.964c-.059,0-.109-.04-.153-.12a3.254,3.254,0,0,0-.416-.429c-.059-.065-.088-.1-.088-.12,0-.044.025-.066.077-.066a8.992,8.992,0,0,0,1.435-.7,5.4,5.4,0,0,0,1.161-.9,5.23,5.23,0,0,0,1-1.336,6.975,6.975,0,0,0,.624-1.533,5.923,5.923,0,0,0,.3-1.544,20.324,20.324,0,0,0,.142-2.858,2.372,2.372,0,0,0-.044-.482c0-.051.029-.077.088-.077Zm11.189.252h6.143q.175,0,.175.142v2.1q0,.143-.175.142h-6.129c-.117,0-.175-.047-.175-.142V47.412q0-.143.175-.144Zm5.52,1.707v-1.04h-4.895v1.04Zm-5.957,1.4h7.008q.186,0,.186.131v4.951c0,.088-.062.131-.186.131h-1.686a10.873,10.873,0,0,0,1.369.58,14.956,14.956,0,0,0,1.708.427c.1.037.153.069.153.1q0,.1-.482.613a1.519,1.519,0,0,1-.2-.021,17.664,17.664,0,0,1-3.165-1.139c-.073-.037-.109-.062-.109-.077q0-.1.427-.482h-3.067q.591.5.591.58t-.142.077q-.241,0-.263.055a21.472,21.472,0,0,1-3.154,1.008.17.17,0,0,1-.175-.109.9.9,0,0,0-.274-.317.213.213,0,0,1-.077-.142c0-.044.044-.069.131-.077a14.06,14.06,0,0,0,1.478-.416,8.9,8.9,0,0,0,1.489-.658H114.1q-.176,0-.175-.131V50.509q.013-.129.188-.129Zm6.4,4.566V54.1h-5.771v.843Zm-5.771-1.489h5.771v-.876h-5.771Zm0-1.544h5.771v-.865h-5.771Zm14.682-3.767h-1.7c-.088,0-.131-.055-.131-.164v-.361q0-.164.131-.164h6.877q.164,0,.2.044.23.187.23.307l-1.446,2.847h2.113a.263.263,0,0,1,.175.066.954.954,0,0,1,.219.372A12.582,12.582,0,0,1,135.318,53a7.921,7.921,0,0,1-.887,1.4,4.657,4.657,0,0,1-.7.723,3.938,3.938,0,0,0,.383.219,9.858,9.858,0,0,0,2.431.866q.109.044.109.087a.21.21,0,0,1-.109.164q-.208.219-.383.439a.165.165,0,0,1-.164.131,2.648,2.648,0,0,1-.646-.252,11.907,11.907,0,0,1-2.267-1.15,7.477,7.477,0,0,1-1.478.821,7.37,7.37,0,0,1-1.609.536.244.244,0,0,1-.219-.1l-.252-.361a.188.188,0,0,1-.055-.109c0-.044.029-.073.088-.087a10.353,10.353,0,0,0,1.215-.342,6.75,6.75,0,0,0,1.675-.81.635.635,0,0,0-.055-.033,5.944,5.944,0,0,1-1.424-1.511,8.619,8.619,0,0,1-1.029-1.873,10.807,10.807,0,0,1-.712,2.508,5.124,5.124,0,0,1-.975,1.435,5.372,5.372,0,0,1-1.336,1.073q-.307-.317-.526-.569a4.154,4.154,0,0,0,1.008-.777,5.793,5.793,0,0,0,1.051-1.424,9.912,9.912,0,0,0,.712-2.464,25.477,25.477,0,0,0,.256-3.4Zm1.018,3.2a6.582,6.582,0,0,0,.679,1.3,6.751,6.751,0,0,0,.964,1.248,7.281,7.281,0,0,0,1,.811,6.077,6.077,0,0,0,.843-.832,6.207,6.207,0,0,0,.81-1.369,9.091,9.091,0,0,0,.449-1.161Zm-.35-.69h2.65l1.3-2.508H130.2q-.044,1.522-.12,2.508ZM141.357,47.7v3.723h4q.087,0,.087.142v.252q0,.186-.087.186h-4.6c-.088,0-.131-.047-.131-.142v-4.6a.116.116,0,0,1,.1-.131.126.126,0,0,1,.033,0h4.6q.087,0,.088.131v.263c0,.117-.029.175-.088.175h-2.507l.153.066q.109.055.109.12c0,.037-.033.062-.1.077-.1,0-.164.026-.186.077q-.088.154-.175.285H145a.077.077,0,0,1,.088.087v.252c0,.1-.029.142-.088.142h-1.007a4.924,4.924,0,0,1-.077.69h1.259c.065,0,.1.029.1.088v.264c0,.088-.033.131-.1.131h-1.129a1.6,1.6,0,0,0,.274.274,3.431,3.431,0,0,0,.526.361,2.084,2.084,0,0,0,.515.2c0,.044-.029.077-.087.1q-.187.2-.317.361c-.037.044-.062.066-.077.066a2.592,2.592,0,0,1-.647-.416,2.355,2.355,0,0,1-.482-.493,1.323,1.323,0,0,1-.12-.164,1.537,1.537,0,0,1-.2.274,2,2,0,0,1-.569.427,2.754,2.754,0,0,1-.745.329,4.2,4.2,0,0,1-.439-.482,2.354,2.354,0,0,0,.536-.2,2.051,2.051,0,0,0,.58-.383,1.648,1.648,0,0,0,.208-.252h-1.116c-.059,0-.088-.044-.088-.131V49.59a.078.078,0,0,1,.066-.088h1.347a3.516,3.516,0,0,0,.109-.69h-1.04a1.972,1.972,0,0,1-.208.219.248.248,0,0,1-.142.077.337.337,0,0,1-.142-.044q-.154-.076-.307-.142c-.051-.007-.077-.015-.077-.022a.16.16,0,0,1,.044-.066,4.459,4.459,0,0,0,.558-.547,2.049,2.049,0,0,0,.372-.58Zm5-.613h2.322q.164,0,.164.131V48.23c0,.037.025.059.077.066a.9.9,0,0,0,.274.033h.044q.274,0,.351-.1a1.6,1.6,0,0,0,.2-.493q0-.033.12-.033a.422.422,0,0,1,.131.033,2.347,2.347,0,0,0,.34.131q.142.022.142.142a3.512,3.512,0,0,1-.361.821q-.132.187-.6.186h-.712a2.31,2.31,0,0,1-.58-.055c-.073-.029-.109-.073-.109-.131V47.7h-1.281v.077a2.1,2.1,0,0,1-.109.69,1.019,1.019,0,0,1-.394.482,2.549,2.549,0,0,1-.493.294.251.251,0,0,1-.186-.066q-.143-.186-.274-.329a.189.189,0,0,1-.066-.131,1.373,1.373,0,0,0,.723-.536,1.045,1.045,0,0,0,.109-.493v-.471q0-.132.175-.132Zm-.481,2.289h3.318a.223.223,0,0,1,.142.044.731.731,0,0,1,.175.263,6.279,6.279,0,0,1-.4.788,4.764,4.764,0,0,1-.471.591.515.515,0,0,1-.077.066q.2.066.416.12a10.7,10.7,0,0,0,1.226.241q.087.011.088.033a.149.149,0,0,1-.044.109,4.219,4.219,0,0,0-.361.361c-.051.065-.091.1-.12.1a.631.631,0,0,1-.153-.044q-.361-.066-.8-.186-.5-.142-.9-.3a4.346,4.346,0,0,1-.788.34,4.674,4.674,0,0,1-.853.23.181.181,0,0,1-.164-.087q-.1-.153-.2-.317a.134.134,0,0,1-.033-.077.043.043,0,0,1,.033-.044,5.726,5.726,0,0,0,.635-.142,4.108,4.108,0,0,0,.734-.241q-.11-.066-.186-.12a2.107,2.107,0,0,1-.548-.526,2.56,2.56,0,0,1-.394-.646h-.275c-.059,0-.088-.055-.088-.164V49.5c.005-.08.034-.121.093-.121Zm.975.559a2.224,2.224,0,0,0,.131.2,2.478,2.478,0,0,0,.5.493,2.861,2.861,0,0,0,.416.23,1.782,1.782,0,0,0,.285-.208,3.013,3.013,0,0,0,.416-.547,1.253,1.253,0,0,0,.088-.164Zm-6.418,2.551h9.953q.087,0,.088.131v.252c0,.1-.029.142-.088.142h-3.722v.646h2.759q.175,0,.175.131v3.384q0,.132-.175.131h-7.884c-.124,0-.186-.044-.186-.131V53.793c0-.088.062-.131.186-.131h2.552a2.813,2.813,0,0,0,.1-.646h-3.755c-.059,0-.088-.047-.088-.142v-.252q0-.129.085-.129ZM146,53.662v-.646h-1.1a4.52,4.52,0,0,1-.077.646Zm2.8,3.077v-.482h-6.639v.482Zm-6.647-1.008H148.8v-.46q-.241.011-.6.022h-1.577q-.625,0-.624-.439V54.23h-1.368a1.763,1.763,0,0,1-.329.5,2.362,2.362,0,0,1-.624.4,3.054,3.054,0,0,1-.832.317q-.263-.263-.482-.471a3.635,3.635,0,0,0,.613-.2,3.109,3.109,0,0,0,.636-.36,2.105,2.105,0,0,0,.175-.2h-1.627Zm4.512-1.5v.35q0,.186.208.186h1.325a3.67,3.67,0,0,0,.6-.044v-.492Zm7.86-6.427h4.248v-.186a2.142,2.142,0,0,0-.044-.493.6.6,0,0,1-.044-.2q0-.087.208-.088l.887.109c.08.044.12.077.12.1,0,.073-.04.109-.12.109q-.23.077-.23.5V47.8H164.1q.131,0,.131.175v.351c0,.11-.044.164-.131.164h-4.555V49.2h3.384q.164,0,.164.131v1.884c0,.08-.055.12-.164.12h-3.384v.712h3.679q.186,0,.186.131v1.27h.821q.142,0,.142.164v.361c0,.11-.048.164-.142.164h-.821V55.9q0,.12-.186.12h-.439c-.117,0-.175-.04-.175-.12v-.361h-3.065v.876q0,.8-1.172.8h-.756c-.059,0-.088-.066-.088-.2a2.045,2.045,0,0,0-.208-.515.077.077,0,0,1,.066-.088h.021a4.916,4.916,0,0,0,.876.088q.482,0,.482-.394v-.569h-3.56q-.121,0-.12-.164v-.361q0-.164.12-.164h3.559v-.712h-4.346c-.088,0-.131-.055-.131-.164V53.61q0-.164.131-.164h4.346v-.712h-3.559c-.08,0-.12-.055-.12-.164v-.361q0-.164.12-.164h3.559v-.712h-3.242q-.186,0-.186-.12V49.329c0-.088.062-.131.186-.131h3.242v-.712h-4.249c-.1,0-.142-.055-.142-.164v-.35c.005-.106.053-.168.148-.168Zm7.786,2.847V49.9h-2.759v.756Zm-3.537,0V49.9h-2.639v.756Zm.777,2.092v.712h3.066v-.712Zm0,1.4v.712h3.066v-.712Zm8.6-4.763h1.237V47.091c0-.051.04-.077.12-.077q.8,0,.8.12c0,.088-.029.139-.088.153s-.1.077-.1.208v1.884h.964q.142,0,.142.164V49.9c0,.117-.047.175-.142.175h-.81a9.243,9.243,0,0,0,.3.931,5,5,0,0,0,.646,1.161.126.126,0,0,1,.055.1q0,.033-.077.087a1.938,1.938,0,0,1-.3.317c-.044.051-.08.077-.109.077s-.062-.022-.1-.066a6.108,6.108,0,0,1-.558-1.117.079.079,0,0,1-.011-.033v5.509c0,.1-.055.142-.164.142h-.449c-.08,0-.12-.047-.12-.142V52.4q-.132.46-.252.865a8.218,8.218,0,0,1-.5,1.27.259.259,0,0,1-.164-.044q-.219-.1-.439-.219c-.059,0-.087-.015-.087-.044a12.047,12.047,0,0,0,.635-1.478,8.807,8.807,0,0,0,.383-1.336,12.068,12.068,0,0,0,.252-1.347h-1.059c-.08,0-.12-.058-.12-.175v-.35q0-.165.119-.165Zm4.643-2.365.756.416a.551.551,0,0,1,.044.1c0,.051-.055.077-.164.077q-.219,0-.274.1-.405.788-.777,1.435.208.241.394.5.416-.712.679-1.27a3.944,3.944,0,0,1,.668.6c0,.044-.033.066-.1.066q-.176,0-.219.077-.646,1.161-1.281,2.135l.876-.1a5.251,5.251,0,0,0-.2-.5q0-.055.439-.274.208.471.351.865a7.39,7.39,0,0,1,.208.767,1.833,1.833,0,0,1-.515.175q-.044-.263-.142-.624l-1.785.536a1.256,1.256,0,0,1-.317.252,4.649,4.649,0,0,1-.164-.876q0-.033.427-.109.493-.766.821-1.314-.292-.3-.613-.569a5.582,5.582,0,0,0-.679-.46q0-.087.394-.5.044-.066.087-.066.109.1.23.219a7.335,7.335,0,0,0,.383-.69q.337-.646.469-.964Zm4.041.033.734.427a.545.545,0,0,1,.044.1c0,.051-.051.077-.153.077q-.219,0-.285.109-.416.712-.8,1.314.164.219.34.439.066-.1.12-.175.471-.69.777-1.237a3.5,3.5,0,0,1,.668.624c0,.037-.033.055-.1.055q-.2,0-.241.066-.734,1.084-1.424,1.993.449-.033,1-.077a4.312,4.312,0,0,0-.153-.427q0-.055.482-.307.186.471.317.865a6.466,6.466,0,0,1,.208.767,2.139,2.139,0,0,1-.569.164,4.251,4.251,0,0,0-.142-.624.1.1,0,0,1-.011-.044l-1.873.46a1.44,1.44,0,0,1-.3.252,3.567,3.567,0,0,1-.186-.876q0-.033.416-.077.427-.558.745-1.007a6.985,6.985,0,0,0-.569-.526,4.784,4.784,0,0,0-.679-.449,1.823,1.823,0,0,1,.394-.5.119.119,0,0,1,.088-.055q.12.1.252.219.219-.317.4-.635.339-.6.492-.91Zm-5.443,5.572h3.274q-.143-.766-.208-1.489-.132-1.413-.131-4.085c0-.051.032-.077.1-.077l.723.066c.065.015.1.047.1.1s-.04.094-.12.131a.312.312,0,0,0-.088.23,28.132,28.132,0,0,0,.274,4.6q.055.274.1.526h1.708a3.871,3.871,0,0,0-.591-.46.087.087,0,0,1-.044-.066.318.318,0,0,1,.022-.12l.252-.372a.277.277,0,0,1,.12-.033.2.2,0,0,1,.055.022,4.558,4.558,0,0,1,.69.559.1.1,0,0,1,.033.066.178.178,0,0,1-.033.109l-.208.3h.821q.087,0,.087.12v.361c0,.11-.029.164-.087.164h-2.691a6.154,6.154,0,0,0,.34,1.106q.142.351.285.624a2.011,2.011,0,0,0,.3-.372,2.992,2.992,0,0,0,.449-.853.133.133,0,0,1,.131-.066q.843.307.843.394a.14.14,0,0,1-.088.131.287.287,0,0,0-.241.1,5.261,5.261,0,0,1-.734,1.073l-.241.241a2.258,2.258,0,0,0,.272.308.955.955,0,0,0,.591.351q.087,0,.153-.219a2.373,2.373,0,0,0,.153-.756.043.043,0,0,1,.044-.033.159.159,0,0,1,.109.055,2.012,2.012,0,0,1,.317.186q.142.077.142.1a5.77,5.77,0,0,1-.414,1.119.863.863,0,0,1-.219.252.545.545,0,0,1-.252.077,1.618,1.618,0,0,1-.865-.307,6.343,6.343,0,0,1-.6-.646.943.943,0,0,1-.1.087,8.236,8.236,0,0,1-1.588.8.667.667,0,0,1-.164.022.206.206,0,0,1-.186-.109,1.358,1.358,0,0,0-.263-.274.167.167,0,0,1-.077-.142q0-.022.066-.044a3.426,3.426,0,0,0,.7-.23,5.207,5.207,0,0,0,1.039-.582.867.867,0,0,0,.153-.12.032.032,0,0,0-.011-.022,10.878,10.878,0,0,1-.767-2.113q-.011-.076-.022-.131h-1.752l-.087.723a9.837,9.837,0,0,1,1.3,1.281.129.129,0,0,1,.066.109q0,.044-.066.066-.34.372-.416.372a.125.125,0,0,1-.088-.044,8.608,8.608,0,0,0-.964-.964,5.2,5.2,0,0,1-.208.712,6.771,6.771,0,0,1-.821,1.489q-.044.066-.055.066-.088,0-.219-.153-.208-.186-.394-.383c-.065-.022-.1-.047-.1-.077a.119.119,0,0,1,.011-.055,3.868,3.868,0,0,0,.821-1.15,4.53,4.53,0,0,0,.307-.92,6.991,6.991,0,0,0,.164-1.073H171.4c-.051,0-.077-.055-.077-.164v-.361c0-.088.026-.128.077-.128Zm10.981-3.373h1.007V47.221c0-.087.055-.131.164-.131q.832,0,.832.131c0,.1-.033.161-.1.175s-.109.08-.109.219v1.632H185.3c.058,0,.088.044.088.131v.35c0,.11-.029.164-.088.164h-1.02a6.577,6.577,0,0,0,.383,1.04,5.4,5.4,0,0,0,.788,1.259.127.127,0,0,1,.077.109c0,.022-.029.055-.087.1a2.223,2.223,0,0,1-.317.34c-.058.059-.1.088-.131.088a.218.218,0,0,1-.12-.066,6.326,6.326,0,0,1-.668-1.2.38.38,0,0,1-.033-.1v5.673q0,.132-.186.131h-.439c-.11,0-.164-.044-.164-.131V52.547q-.066.23-.142.449a11.22,11.22,0,0,1-.515,1.237.256.256,0,0,1-.186-.055q-.23-.12-.471-.23c-.059,0-.087-.018-.087-.055a10.725,10.725,0,0,0,.635-1.424A8.825,8.825,0,0,0,183,51.177a12.11,12.11,0,0,0,.263-1.281h-.887c-.059,0-.088-.055-.088-.164v-.35c0-.088.03-.131.088-.131Zm3.373-1.27h1.314v-.658c0-.065.04-.1.12-.1q.8,0,.8.142c0,.088-.029.135-.088.142s-.1.073-.1.2v.274h1.8v-.658c0-.065.047-.1.142-.1q.777,0,.777.142c0,.088-.029.135-.088.142s-.076.073-.076.2v.274h1.4c.051,0,.076.04.076.12v.351c0,.117-.026.175-.076.175h-1.4v.789h.964q.077,0,.077.131v.351c0,.088-.026.131-.077.131h-.964v.712h1.7c.065,0,.1.04.1.12v.361c0,.11-.033.164-.1.164h-3.055v.624h2c.153,0,.23.044.23.131v2.671h.876c.058,0,.088.044.088.131v.351c0,.11-.029.164-.088.164h-.876v1.281q0,.274-.4.449a4.255,4.255,0,0,1-1,.153.137.137,0,0,1-.153-.119,2.055,2.055,0,0,0-.241-.712q0-.033.066-.033a3.142,3.142,0,0,0,.8-.055.2.2,0,0,0,.131-.2v-.765h-3.679v1.674q0,.132-.164.131h-.439c-.124,0-.186-.044-.186-.131V55.453h-.821c-.065,0-.1-.055-.1-.164v-.352q0-.131.1-.131h.821V52.134c0-.087.062-.131.186-.131h2.092v-.624h-2.8c-.058,0-.088-.055-.088-.164v-.361c0-.08.029-.12.088-.12h1.632v-.712H186.1c-.058,0-.088-.044-.088-.131v-.35c0-.088.029-.131.088-.131h.964v-.788H185.75c-.059,0-.088-.058-.088-.175V48.1c0-.08.029-.121.088-.121Zm1,6.833h1.489v-.756h-1.489Zm2.245,0h1.435v-.756h-1.435Zm-1.2-4.074h1.8v-.712h-1.8Zm1.8-1.325v-.788h-1.8v.789Zm-2.846,4.041h1.489v-.8h-1.489Zm2.245-.8v.8h1.435v-.8Zm8.988-5.683.832.449a.745.745,0,0,1,.044.109q0,.1-.164.1a.338.338,0,0,0-.317.131q-.592.887-1.139,1.609.339.34.668.734l.011-.033q.646-.843,1.084-1.533a4.546,4.546,0,0,1,.777.712q0,.066-.12.066-.274,0-.34.077-.964,1.347-1.9,2.453.734-.1,1.774-.2a7.563,7.563,0,0,0-.329-.788q0-.066.58-.35a11.336,11.336,0,0,1,.439,1.15,6.1,6.1,0,0,1,.3,1,2.169,2.169,0,0,1-.646.219,6.933,6.933,0,0,0-.186-.745l-1.008.252v4.655c0,.1-.055.142-.164.142h-.439c-.124,0-.186-.047-.186-.142V52.579l-1.172.3q-.274.307-.317.307a5.04,5.04,0,0,1-.208-1.04q0-.055.558-.142.734-.876,1.194-1.5a10.1,10.1,0,0,0-.777-.679,5.007,5.007,0,0,0-.9-.526q0-.1.439-.547c.029-.051.058-.077.088-.077q.153.132.307.252.306-.427.558-.843.468-.733.666-1.106ZM196.375,53.5q.788.165.788.252a.162.162,0,0,1-.1.142.271.271,0,0,0-.109.2,12.874,12.874,0,0,1-.23,1.621,7.264,7.264,0,0,1-.2.723c-.029.051-.055.077-.077.077a4.881,4.881,0,0,0-.6-.153.1.1,0,0,1-.088-.1,10.312,10.312,0,0,0,.3-1.029,9.9,9.9,0,0,0,.219-1.621q0-.11.1-.11Zm2.88-.131c.022,0,.037.029.044.087a14.917,14.917,0,0,1,.624,2.092q0,.1-.624.186c-.073,0-.109-.032-.109-.1a15.817,15.817,0,0,0-.46-2.092q0-.088.525-.176Zm3.646-6.439.6.142q.142.033.142.153,0,.165-.153.164a.2.2,0,0,0-.109.142,3.742,3.742,0,0,1-.263.482h2.311q.186,0,.186.131v3.822q0,.132-.186.131h-1.884v.515q.252.69.46,1.172a3.007,3.007,0,0,0,.4-.273,4.451,4.451,0,0,0,.756-.8.192.192,0,0,1,.1-.055q.6.536.6.613c0,.051-.04.077-.12.077q-.2,0-.219.066a7.189,7.189,0,0,1-1.194,1.029,4.6,4.6,0,0,0,.5.712,4.492,4.492,0,0,0,.712.69,4.726,4.726,0,0,0,.712.5.129.129,0,0,1-.066.109,1.874,1.874,0,0,0-.274.351c-.022.037-.07.055-.142.055a5.431,5.431,0,0,1-.964-.712,7.237,7.237,0,0,1-.734-.887q-.263-.394-.536-.9V56.3q0,.832-1.358.832H201.8q-.088,0-.088-.219a1.663,1.663,0,0,0-.186-.569V56.3a2.381,2.381,0,0,0,.613.087q.624,0,.624-.4V52.1h-1.927q-.186,0-.186-.131V48.146q0-.131.186-.131h1.489a8.971,8.971,0,0,0,.439-1,.128.128,0,0,1,.136-.085Zm1.96,4.5V50.374h-3.454v1.051Zm-3.449-1.7h3.445V48.663h-3.45Zm-1.194,3.143h1.763q.2,0,.241.055.317.252.317.383a9.482,9.482,0,0,1-.8,1.719,4.782,4.782,0,0,1-.7.953q-.416.416-.942.876a.113.113,0,0,1-.109-.066q-.174-.262-.328-.47a.088.088,0,0,1-.044-.066.231.231,0,0,1,.022-.12,4.135,4.135,0,0,0,.745-.515,4.06,4.06,0,0,0,.788-.909,3.859,3.859,0,0,0,.493-.92,1.645,1.645,0,0,0,.088-.208h-1.533c-.08,0-.12-.058-.12-.175v-.35q0-.186.12-.186Zm14.036-5.858q.876,0,.876.12,0,.154-.109.175t-.1.219v3.461H218.9q.142,0,.142.186v.439c0,.11-.048.164-.142.164H214.92v4.29h4.9q.142,0,.142.186v.439c0,.11-.048.164-.142.164H210.1c-.1,0-.142-.055-.142-.164V56.25q0-.186.142-.186h3.975V47.128q0-.11.171-.11Zm10.487,1.566h3.811V47.262c0-.088.062-.131.186-.131q.876,0,.876.131,0,.154-.12.175c-.073.007-.109.08-.109.219v.92h3.6q.164,0,.164.142v5.946q0,.143-.164.142h-.439q-.186,0-.186-.142v-.526h-2.977v2.935q0,.143-.208.142h-.439c-.124,0-.186-.047-.186-.142V54.138h-3.2v.526q0,.143-.175.142h-.439c-.11,0-.164-.047-.164-.142v-5.9q0-.18.163-.18Zm.613,4.873h3.2V51.7h-3.2Zm4.03-1.752v1.752h2.98V51.7Zm-4.03-.712h3.2v-1.7h-3.2Zm4.031-1.7v1.7h2.972v-1.7Zm9.875-2.243q.832,0,.832.131,0,.154-.109.175t-.1.219v.843H241.1q.142,0,.142.164v.351q0,.176-.142.175h-3.241q-.131,0-.131-.175v-.35q0-.164.131-.164h1.226V47.184q0-.132.174-.132Zm-.69,2.243q.219.536.372,1,.131.416.23.887a2.827,2.827,0,0,1-.646.208,6.454,6.454,0,0,0-.164-.734A7.971,7.971,0,0,0,238,49.638q-.006-.068.563-.343Zm1.8,0,.558.208q.131.055.131.142a.118.118,0,0,1-.055.109c-.044,0-.069.04-.077.12a10.569,10.569,0,0,1-.372,1.445c-.029.073-.051.109-.066.109a.352.352,0,0,1-.153-.055q-.208-.087-.372-.164c-.051-.015-.076-.026-.076-.033a.461.461,0,0,1,.011-.087,6.534,6.534,0,0,0,.241-.788,5.672,5.672,0,0,0,.186-.887c.007-.08.022-.12.044-.12Zm-2.508,2.18h3.11q.131,0,.131.186V52c0,.117-.044.175-.131.175h-1V53.3q0,.165-.011.3.526-.142,1-.307a.073.073,0,0,1,.055-.022q.087,0,.088.142a1.756,1.756,0,0,1-.044.569q-.57.165-1.128.317a7.5,7.5,0,0,1-.131.853,3.135,3.135,0,0,1-.624,1.3,3.684,3.684,0,0,1-.777.767.28.28,0,0,1-.208-.077,2.9,2.9,0,0,0-.3-.35.213.213,0,0,1-.076-.142,3.287,3.287,0,0,0,1.237-1.7q.044-.219.077-.449l-1.007.263q-.154.3-.263.3-.088,0-.383-.876.679-.109,1.654-.361a.611.611,0,0,1,.077-.033q.011-.23.011-.46v-1.15h-1.362c-.088,0-.131-.058-.131-.175v-.35q-.005-.188.131-.188Zm3.515-1.653h.668q.022-.865.022-1.884,0-.219-.044-.756c0-.058.047-.088.142-.088l.723.077c.1.022.153.055.153.1a.152.152,0,0,1-.1.164.222.222,0,0,0-.164.23q0,1.215-.022,2.157h1.15q.186,0,.186.164,0,3.417-.087,4.709a7.326,7.326,0,0,1-.263,1.675.812.812,0,0,1-.372.548,1.531,1.531,0,0,1-.767.164q-.57,0-.591-.208a2.751,2.751,0,0,0-.12-.526c0-.058.015-.087.044-.087q0,.01.066.033a1.911,1.911,0,0,0,.415.056.725.725,0,0,0,.613-.219,2.818,2.818,0,0,0,.241-1.237q.1-1.084.109-4.424h-.647q-.044,1.248-.131,2.037a12.482,12.482,0,0,1-.646,2.924,8.029,8.029,0,0,1-.777,1.609h-.12q-.317-.087-.613-.2c-.022-.015-.033-.047-.033-.1a7.276,7.276,0,0,0,.887-1.664,8.818,8.818,0,0,0,.547-2.267,19.648,19.648,0,0,0,.175-2.343h-.646c-.088,0-.131-.055-.131-.164v-.361q-.008-.11.124-.11Zm4.326-2.683q.832,0,.832.131c0,.1-.033.161-.1.175s-.109.08-.109.219v.756h1.446q.131,0,.131.164v.351q0,.176-.131.175h-3.559q-.121,0-.12-.175v-.35c0-.109.04-.164.12-.164h1.324v-1.15c-.008-.078.046-.123.156-.123Zm-.646,2.113q.241.548.4,1.018a7.919,7.919,0,0,1,.241.909,2.828,2.828,0,0,1-.646.208,4.887,4.887,0,0,0-.186-.756,9.02,9.02,0,0,0-.383-1.04q-.01-.055.559-.329Zm1.884.044.558.208q.131.055.131.142a.117.117,0,0,1-.055.109q-.077,0-.1.12a8.052,8.052,0,0,1-.428,1.4c-.029.073-.051.109-.066.109a.359.359,0,0,1-.164-.055q-.208-.087-.372-.164c-.051-.015-.077-.026-.077-.033a.247.247,0,0,1,.022-.087,5.927,5.927,0,0,0,.274-.767,4.879,4.879,0,0,0,.219-.865c.014-.081.032-.121.054-.121Zm-2.409,2.179h3.2q.131,0,.131.186V52c0,.117-.044.175-.131.175h-1.27v1.478h1.172q.142,0,.142.186v.34q0,.186-.142.186h-1.172v2.706c0,.1-.062.142-.186.142h-.427c-.124,0-.186-.047-.186-.142V54.367h-1.128c-.1,0-.142-.062-.142-.186v-.34c0-.124.047-.186.142-.186h1.128V52.177h-1.128c-.1,0-.142-.058-.142-.175v-.35c0-.124.047-.186.142-.186Zm15.788-3.581a2.246,2.246,0,0,0-.329.033q-.843.154-1.993.274-.482.066-.931.1l.3.164a.758.758,0,0,1,.066.12c0,.058-.066.087-.2.087a.368.368,0,0,0-.34.142q-.876.909-1.675,1.643.493.34.986.745.449-.372.788-.668a21.515,21.515,0,0,0,1.654-1.511,4.341,4.341,0,0,1,.8.756q0,.066-.219.066a1.036,1.036,0,0,0-.5.077q-1.522,1.325-3.011,2.42,1.785-.1,4.412-.219a8.91,8.91,0,0,0-.81-1.172q0-.066.569-.34a12.961,12.961,0,0,1,1.04,1.577,7.27,7.27,0,0,1,.658,1.4,3.163,3.163,0,0,1-.69.208A5.2,5.2,0,0,0,260.4,52.6l-3.318.34v4.13c0,.1-.062.142-.186.142h-.441c-.124,0-.186-.047-.186-.142V53.021l-3.679.384a1.657,1.657,0,0,1-.34.34,4.443,4.443,0,0,1-.23-1.1,17.567,17.567,0,0,1,2.65-.252q.58-.439,1.062-.832-.821-.547-1.248-.788a8.763,8.763,0,0,0-1.325-.569q0-.1.471-.591c.037-.051.073-.077.109-.077q.439.23.876.5a11.032,11.032,0,0,0,.92-.942q.394-.449.635-.734-.383.033-.734.055-1.38.066-2.53.066-.2,0-.241-.142-.154-.219-.329-.46a.116.116,0,0,1,.1-.131.128.128,0,0,1,.033,0h.646q1.544,0,2.65-.088,1.007-.033,2.015-.153a13.154,13.154,0,0,0,1.971-.35.639.639,0,0,1,.164-.033.285.285,0,0,1,.186.055q.646.548.646.7c0,.08-.048.12-.142.12Zm-5.968,6.165.613.46a.235.235,0,0,1,.1.153q0,.055-.12.066a.378.378,0,0,0-.252.1,7.2,7.2,0,0,1-.919.91,9.681,9.681,0,0,1-1.467.953.182.182,0,0,1-.186-.1q-.23-.175-.394-.307c-.058-.022-.088-.047-.088-.077s.022-.055.066-.077a2.612,2.612,0,0,0,.7-.317,5.759,5.759,0,0,0,1.04-.777,10.5,10.5,0,0,0,.832-.9c.017-.047.043-.077.064-.077Zm4.687,0a8.492,8.492,0,0,0,1.226,1.139,8.09,8.09,0,0,0,1.336.723q.12.088.12.153a2.319,2.319,0,0,1-.439.526.632.632,0,0,1-.153-.033,11.278,11.278,0,0,1-2.486-1.894c-.059-.065-.088-.109-.088-.131q0-.088.483-.482Zm8.7-7.129.865.482a.81.81,0,0,1,.055.12q0,.1-.2.1a.35.35,0,0,0-.329.131q-.536.843-1.018,1.544.394.361.788.756l.011-.011q.658-.876,1.1-1.6a3.935,3.935,0,0,1,.777.712q0,.077-.131.077-.274,0-.34.087-1.03,1.468-2.026,2.706.679-.055,1.609-.142-.132-.339-.285-.668,0-.076.569-.361a9.043,9.043,0,0,1,.449,1.15q.164.471.3,1.007a2.987,2.987,0,0,1-.668.208,5.3,5.3,0,0,0-.2-.853v-.011l-.975.208v4.467c0,.1-.062.142-.186.142h-.442c-.11,0-.164-.047-.164-.142v-4.3l-1.325.285q-.263.3-.307.3a5.109,5.109,0,0,1-.219-1.051,3.471,3.471,0,0,1,.876-.142q.733-.92,1.248-1.6-.658-.547-.986-.777a6.132,6.132,0,0,0-1.051-.58q0-.109.471-.591c.029-.051.062-.077.1-.077a3.464,3.464,0,0,1,.46.351q.306-.427.548-.832.426-.723.623-1.085Zm-1.682,6.7q.788.175.788.274a.159.159,0,0,1-.077.131.3.3,0,0,0-.131.2,14.07,14.07,0,0,1-.241,1.621q-.088.351-.208.723c-.037.059-.066.088-.088.088a3.638,3.638,0,0,0-.6-.164.1.1,0,0,1-.088-.1,8.546,8.546,0,0,0,.327-1.03,9.642,9.642,0,0,0,.219-1.621q0-.122.1-.122Zm3.12,0q.023,0,.033.087a13.281,13.281,0,0,1,.614,1.927q0,.121-.646.23-.12,0-.12-.087a17.238,17.238,0,0,0-.449-1.927q0-.109.569-.23Zm3.406-6.647q.832,0,.832.12,0,.154-.1.164t-.109.241v.953h2.451q.076,0,.077.131v.351c0,.117-.026.175-.077.175h-2.869q-.625,1.478-.92,2.135,1.084-.109,2.245-.252-.274-.613-.526-1.1,0-.109.482-.35a.175.175,0,0,1,.142.044,24.32,24.32,0,0,1,1.26,2.628q0,.164-.066.175a1.314,1.314,0,0,1-.624.264q-.208-.558-.4-1.029-1.884.263-3.537.427-.121,0-.175.153-.022.285-.175.285t-.482-1.106q.186,0,.723-.044l.263-.022q.055-.131.109-.252.492-1.072.853-1.96h-1.9c-.058,0-.087-.058-.087-.175v-.35c0-.088.029-.131.087-.131h2.365V47.091c0-.081.056-.122.166-.122Zm-1.215,5.519a5.616,5.616,0,0,1,.964.164.1.1,0,0,1-.088.119h-.01a.3.3,0,0,0-.131.285V53.5a8.023,8.023,0,0,1-.076,1.04,3.393,3.393,0,0,1-.307,1.1,3.252,3.252,0,0,1-.591.865,3.889,3.889,0,0,1-.865.712q-.055,0-.12-.1a1.621,1.621,0,0,0-.35-.317c-.065-.037-.1-.073-.1-.109a4.458,4.458,0,0,0,.843-.668,2.479,2.479,0,0,0,.427-.635,3.551,3.551,0,0,0,.274-.931,5.249,5.249,0,0,0,.088-.964v-.876c0-.089.013-.133.043-.133Zm1.884.044q.777.055.777.164a.48.48,0,0,1-.088.23v3.187c0,.124.029.186.088.186h.712q.2,0,.394-1.15l.69.439q-.35,1.446-.876,1.446h-1.214q-.57,0-.569-.526V52.659q0-.122.087-.122Z" fill="#50c1e9"/>
  </g>
</svg>
