<svg xmlns="http://www.w3.org/2000/svg" xmlns:xlink="http://www.w3.org/1999/xlink" width="144.722" height="138.939" viewBox="0 0 144.722 138.939">
  <defs>
    <linearGradient id="linear-gradient" x1="1.238" y1="0.5" x2="0.238" y2="0.5" gradientUnits="objectBoundingBox">
      <stop offset="0.316" stop-color="#fff"/>
      <stop offset="0.379" stop-color="#f8f8f8"/>
      <stop offset="0.465" stop-color="#e7e7e7"/>
      <stop offset="0.564" stop-color="#cacaca"/>
      <stop offset="0.673" stop-color="#a2a2a2"/>
      <stop offset="0.789" stop-color="#6f6f6f"/>
      <stop offset="0.911" stop-color="#323232"/>
      <stop offset="1"/>
    </linearGradient>
    <linearGradient id="linear-gradient-2" x1="0.973" y1="-0.425" x2="0.33" y2="0.547" gradientUnits="objectBoundingBox">
      <stop offset="0" stop-color="#000f2d"/>
      <stop offset="0.096" stop-color="#050505"/>
      <stop offset="0.216" stop-color="#141414"/>
      <stop offset="0.348" stop-color="#2e2e2e"/>
      <stop offset="0.489" stop-color="#515151"/>
      <stop offset="0.638" stop-color="#7e7e7e"/>
      <stop offset="0.792" stop-color="#b6b6b6"/>
      <stop offset="0.949" stop-color="#f6f6f6"/>
      <stop offset="0.967" stop-color="#fff"/>
      <stop offset="1" stop-color="#fff"/>
    </linearGradient>
    <linearGradient id="linear-gradient-3" x1="0.768" y1="0.083" x2="0.037" y2="1.086" gradientUnits="objectBoundingBox">
      <stop offset="0"/>
      <stop offset="0.007" stop-color="#090909"/>
      <stop offset="0.046" stop-color="#373737"/>
      <stop offset="0.09" stop-color="#626262"/>
      <stop offset="0.137" stop-color="#878787"/>
      <stop offset="0.189" stop-color="#a8a8a8"/>
      <stop offset="0.245" stop-color="#c3c3c3"/>
      <stop offset="0.309" stop-color="#d9d9d9"/>
      <stop offset="0.384" stop-color="#eaeaea"/>
      <stop offset="0.477" stop-color="#f6f6f6"/>
      <stop offset="0.607" stop-color="#fdfdfd"/>
      <stop offset="0.967" stop-color="#fff"/>
    </linearGradient>
  </defs>
  <g id="progressPeo" transform="translate(-376 -744)">
    <g id="Group_129070" data-name="Group 129070" transform="translate(376 744)">
      <g id="Group_129064" data-name="Group 129064" transform="translate(82.889 22.473)">
        <path id="Path_231047" data-name="Path 231047" d="M67.646,91.028c0,2.1.7,3.834,1.449,3.834s1.283-1.73,1.283-3.834-.6-3.7-1.355-3.7S67.646,88.924,67.646,91.028Z" transform="translate(-23.997 -76.257)" fill="#4ba384"/>
        <g id="Group_129060" data-name="Group 129060" transform="translate(0.825)">
          <path id="Path_231048" data-name="Path 231048" d="M116.494,82.206a3.222,3.222,0,0,0-.538,1.681c-.115,1.109-.117,2.229-.174,3.345a33.331,33.331,0,0,1-.385,3.639c-.164,1-.268,3.113-.878,3.91-.54.71-2.033.174-2.857.082q-1.962-.221-3.924-.446-7.667-.881-15.329-1.836a92.189,92.189,0,0,1-16.594-3.134c-2.79-.884-5.918-2.094-8.765-.79a6.32,6.32,0,0,0-3.324,3.916c-1.627,5.445,3.011,8.143,7.293,8.323a166.864,166.864,0,0,0,20.586-.336c6.888-.563,23.142-1.206,24.53-1.852,2.356-1.1,1.3-5.428,1.2-7.526-.145-2.97-.111-5.959-.166-8.933a.452.452,0,0,0-.045-.229c-.111-.178-.375-.082-.52.065A1.228,1.228,0,0,0,116.494,82.206Z" transform="translate(-63.392 -81.921)" fill="#f9aa8f"/>
        </g>
        <g id="Group_129061" data-name="Group 129061" transform="translate(8.934 6.188)">
          <path id="Path_231050" data-name="Path 231050" d="M68.228,84.944c2.825.637,5.461,1.82,8.388,2.227,4.192.585,8.45.323,12.648.845q7.605.946,15.221,1.822a9.008,9.008,0,0,0-.137,7.342l.08.184c-5.459.35-12.193.688-16.027,1a181.7,181.7,0,0,1-20.172.594Z" transform="translate(-68.228 -84.944)" fill="#5ebb9c"/>
        </g>
        <g id="Group_129062" data-name="Group 129062" transform="translate(8.934 6.188)">
          <path id="Path_231051" data-name="Path 231051" d="M68.228,84.944c2.825.637,5.461,1.82,8.388,2.227,4.192.585,8.45.323,12.648.845q7.605.946,15.221,1.822a9.008,9.008,0,0,0-.137,7.342l.08.184c-5.459.35-12.193.688-16.027,1a181.7,181.7,0,0,1-20.172.594Z" transform="translate(-68.228 -84.944)" fill="#39cab1"/>
        </g>
        <path id="Path_231052" data-name="Path 231052" d="M76.6,84.944V98.959c4.442.209,10.433.031,15.581-.272a16.129,16.129,0,0,1,.063-1.779,21.713,21.713,0,0,1,1.928-6.724,10.22,10.22,0,0,1,1.539-2.356c-3.57-.272-7.17-.162-10.724-.657C82.065,86.764,79.429,85.581,76.6,84.944Z" transform="translate(-67.67 -78.756)" opacity="0.45" fill="url(#linear-gradient)" style="mix-blend-mode: multiply;isolation: isolate"/>
        <g id="Group_129063" data-name="Group 129063" transform="translate(0 5.769)">
          <path id="Path_231053" data-name="Path 231053" d="M78.636,89.4a5.534,5.534,0,0,1,3.832-4.5,6.439,6.439,0,0,1,1.828-.154c4.086.113,7.516,2.09,11.477,2.641,1.658.231,5.275.4,6.945.461-2.4,3.834-2.245,11.109-2.233,11.186-4.669.225-9.69.323-13.485.123-3.664-.194-6.937-1.726-8.155-5.42A8.517,8.517,0,0,1,78.636,89.4Z" transform="translate(-78.45 -84.739)" fill="#fff"/>
        </g>
      </g>
      <path id="Path_231054" data-name="Path 231054" d="M103.5,163.976c-.039.692-.08,1.384-.119,2.076H98.5c-1.488-3.457-4.587-6.157-5.095-9.925a3.974,3.974,0,0,1,.563-2.929c1.159-1.509,3.341-1.071,5.162-1,3.293.123,6.417-1.427,9.393-2.943,6.431-3.275,24.139-13.162,24.139-13.162,11.635-22.09,20.453-35,28.135-34.9,8.2.1,8.589,8.712,6.208,15.09a30.181,30.181,0,0,1-4.292,7.2q-8.52,11.554-17.97,22.274a15.667,15.667,0,0,1-3.359,3.119,14.719,14.719,0,0,1-3.85,1.482,336.89,336.89,0,0,1-34.777,7.713C102.081,158.181,103.524,163.53,103.5,163.976Z" transform="translate(-91.625 -39.281)" fill="#c87f67"/>
      <path id="Path_231055" data-name="Path 231055" d="M121.977,129.259c1.159-1.509,3.341-1.071,5.162-1,3.293.123,6.417-1.427,9.393-2.943.69-.352,1.511-.78,2.426-1.263-.016.19-.035.381-.049.571-.154,1.91-.258,3.828-.233,5.744.012.776.045,1.552.106,2.325q-4,.768-8.016,1.439c-.68.115.763,5.463.739,5.909-.039.692-.08,1.384-.119,2.076h-4.878c-1.488-3.457-4.587-6.157-5.095-9.925A3.974,3.974,0,0,1,121.977,129.259Z" transform="translate(-119.632 -15.343)" fill="#40d3ba"/>
      <path id="Path_231056" data-name="Path 231056" d="M93.353,153.494c.008-1.881.133-3.758.293-5.631,7.657-4.057,21.476-11.774,21.476-11.774,11.635-22.09,20.453-35,28.135-34.9,8.2.1,8.589,8.712,6.208,15.09a30.18,30.18,0,0,1-4.292,7.2q-8.52,11.554-17.97,22.274a15.667,15.667,0,0,1-3.359,3.119,14.719,14.719,0,0,1-3.85,1.482q-13.15,3.654-26.536,6.231C93.376,155.557,93.347,154.523,93.353,153.494Z" transform="translate(-74.082 -39.281)" fill="#c87f67"/>
      <path id="Path_231057" data-name="Path 231057" d="M94.77,154.576c-.231-.608-.952-4.239-1.15-4.861a39.955,39.955,0,0,0,4.587-2.088c6.431-3.275,24.649-10.146,24.649-10.146,11.1-24.027,17.249-37.72,24.929-37.624,8.2.1,11.794,11.432,9.414,17.81-.991,2.655.622,4.949-.8,7.346-8.611,14.5-24.964,27.508-26.288,27.877-10.187,2.831-23.212,5.4-33.592,7.262C95.632,158.86,95.319,156.038,94.77,154.576Z" transform="translate(-81.816 -40.672)" fill="#091e42"/>
      <path id="Path_231059" data-name="Path 231059" d="M77.056,123.231c3.572-6.395,10.738-8.12,15.19-13.51,6.3-7.631,7.451-19.462,19.9-20.463,1.007-.082,3.566.264,4.143-.737a13.427,13.427,0,0,0,.8-1.723,35.057,35.057,0,0,0,1.8-6.047l6.906,8.624a13.894,13.894,0,0,0-1.114,5.613l.737.547c2.426,3.7-.6,11.669-2.364,15.045-3.386,6.487-9.252,10.165-13.851,15.477-1.717,1.983-3.8,4.38-4.454,7.093,9.352,6.143,13.767,8.841,23.118,14.983,2.323,1.525,4.8,3.244,5.752,5.979.763,2.182.4,4.616-.1,6.882a57.951,57.951,0,0,1-2.393,8c-.958,2.524-2.09,4.966-3.22,7.406-2.254,4.863-3.5,9-5.752,13.864,2.231,1.062,4.708,3.232,7.455,3.979l-.706,3.2a10.187,10.187,0,0,1-3.82-.149c-.731-.207-1.771-.1-2.505-.291-1.6-.405-3.242.307-4.872.575-3.744.616-4.925-2.737-3.56-6.11.254-.628.739-1.138.94-1.789a112.959,112.959,0,0,0,3.388-14.371c.958-5.576,2.01-10.771,3.015-16.338,0,0-27.326-8.1-39.1-16.009C76.018,138.683,72.972,130.543,77.056,123.231Z" transform="translate(-20.251 -60.672)" fill="#c87f67"/>
      <path id="Path_231060" data-name="Path 231060" d="M78.863,139.5a108.96,108.96,0,0,0,2.726-10.808c.45.078.9.154,1.357.223,1.672.26,3.357.467,5.048.579.651.043,1.3.072,1.957.068.094,0,.186,0,.28,0-1.445,3.517-2.579,6.81-4.3,10.525,2.231,1.062,4.708,3.232,7.455,3.979l-.706,3.2a10.187,10.187,0,0,1-3.819-.149c-.731-.207-1.771-.1-2.505-.291-1.6-.405-3.242.307-4.872.575-3.744.616-4.925-2.737-3.56-6.11C78.178,140.656,78.663,140.147,78.863,139.5Z" transform="translate(15.971 -10.488)" fill="#40d3ba"/>
      <path id="Path_231061" data-name="Path 231061" d="M77.056,123.728c3.572-6.395,10.738-8.12,15.19-13.51,6.3-7.631,7.451-19.462,19.9-20.463,1.007-.082,3.566.264,4.143-.737a13.427,13.427,0,0,0,.8-1.723,46.959,46.959,0,0,0,2.028-7.017l6.677,9.594a13.894,13.894,0,0,0-1.114,5.613l.737.547c2.426,3.7-.6,11.669-2.364,15.045-3.386,6.487-9.252,10.165-13.851,15.477-1.717,1.983-3.8,4.38-4.454,7.092,9.352,6.143,13.767,8.841,23.118,14.983,2.323,1.525,4.8,3.244,5.752,5.979.763,2.182.4,4.616-.1,6.882a57.951,57.951,0,0,1-2.393,8c-.958,2.524-2.09,4.966-3.22,7.406-.5,1.066-.94,2.1-1.359,3.113a23.743,23.743,0,0,1-2.857-.106c-1.7-.133-3.4-.354-5.084-.63l-.747-.131q.335-1.689.616-3.336c.958-5.576,2.01-10.771,3.015-16.338,0,0-27.326-8.1-39.1-16.009C76.018,139.18,72.972,131.039,77.056,123.728Z" transform="translate(-20.251 -61.168)" fill="#f9aa8f"/>
      <path id="Path_231062" data-name="Path 231062" d="M83.63,92.168a20.478,20.478,0,0,1-1.965-2.837c-.307-.52-.614-1.044-.878-1.584a14.213,14.213,0,0,1-.745-1.842,20.2,20.2,0,0,1-.8-3.564c.188-.737.352-1.443.477-2.063l6.677,9.594a13.8,13.8,0,0,0-1.03,3.959A10.728,10.728,0,0,1,83.63,92.168Z" transform="translate(19.155 -61.168)" fill="#f9aa8f"/>
      <path id="Path_231063" data-name="Path 231063" d="M76.488,106.378c2.532-4.532,6.869-6.72,10.767-9.528q.964,1.735,2.074,3.386a44.826,44.826,0,0,0,4.814,5.985,37.2,37.2,0,0,0,5.711,4.894,28.96,28.96,0,0,0,5.232,2.876,9.7,9.7,0,0,0-.9,2.3c9.352,6.143,28.835,12.318,30.648,21.609a16.875,16.875,0,0,1-.1,6.882,57.79,57.79,0,0,1-2.395,8c-.958,2.524-2.088,4.966-3.218,7.406q-2.779,5.993-5.553,11.985c-1.955.227-5.7-.328-7.664-.545-.33-.037-3.449-.917-3.774-.972,1.314-4.464,6.972-23.109,7.975-28.677,0,0-27.43-7.271-39.206-15.184C74.525,122.522,72.4,113.69,76.488,106.378Z" transform="translate(-19.683 -43.819)" fill="#091e42"/>
      <path id="Path_231064" data-name="Path 231064" d="M102.871,145.995c.964-3.4,1.844-7.1.9-10.605-.921-3.433-3.607-5.885-6.419-7.858a88.953,88.953,0,0,0-9.051-5.287,34.194,34.194,0,0,1-8.28-6.094,19.749,19.749,0,0,1-5.13-8.4,14.2,14.2,0,0,1-.458-4.822c.776.641,1.578,1.253,2.407,1.824a28.962,28.962,0,0,0,5.232,2.876,9.7,9.7,0,0,0-.9,2.3c9.352,6.143,28.835,12.318,30.648,21.609a16.875,16.875,0,0,1-.1,6.882,57.79,57.79,0,0,1-2.395,8c-.958,2.524-2.088,4.966-3.218,7.406q-2.779,5.993-5.553,11.985a29.64,29.64,0,0,1-5.69-.309C97.665,159.052,100.945,152.782,102.871,145.995Z" transform="translate(3.326 -37.456)" fill="url(#linear-gradient-2)" style="mix-blend-mode: multiply;isolation: isolate"/>
      <path id="Path_231065" data-name="Path 231065" d="M101.422,84.253A14.577,14.577,0,0,0,90.07,91.9c-2.047,3.852-4.475,8.482-5.766,11.141-1.144,2.356-2.651,4.732-5.025,5.838-.362.17-.778.342-.927.712a1.409,1.409,0,0,0,.123,1.015,33.181,33.181,0,0,0,8.583,12.112,40.462,40.462,0,0,0,5.967,4.509c1.592.985,4.219,2.726,6.047,1.32a2.364,2.364,0,0,0,.3-.274,4.191,4.191,0,0,0,.753-1.283c.817-2,1.138-4.041,2.432-5.825a33.464,33.464,0,0,1,5.074-5.068,64.521,64.521,0,0,0,5.77-6.1c3.175-3.7,5.631-8.3,5.57-13.174a3.689,3.689,0,0,0-.716-2.471,4.777,4.777,0,0,0-1.83-1.042,18.09,18.09,0,0,1-5.938-3.983c-1.376-1.382-.348-4.911-2.194-5.23A29.57,29.57,0,0,0,101.422,84.253Z" transform="translate(-11.498 -57.32)" fill="#40d3ba"/>
      <path id="Path_231067" data-name="Path 231067" d="M80.922,125.267c.194-1.421,1.881-6.921,10.779-13.295,3.971-2.845,7.8-4.966,10-9.506,1.292-2.657,3.854-6.712,5.9-10.564a14.577,14.577,0,0,1,11.352-7.649,29.57,29.57,0,0,1,6.867-.156c1.846.319.819,3.848,2.194,5.23a18.281,18.281,0,0,0,3.183,2.55c-.059.141-.121.28-.18.42-.729,1.723-1.449,3.453-2.29,5.128a29.012,29.012,0,0,1-3.023,4.833c-1.126,1.441-2.362,2.79-3.56,4.172-1.036,1.2-2.092,2.368-3.158,3.535a95.367,95.367,0,0,0-6.216,7.4c-8.881,11.936-7.574,28.655-7.574,28.655s-3.879-1.161-4.651-1.531a36.535,36.535,0,0,1,.422-7.215,41.943,41.943,0,0,0-3.023,6.229,23.451,23.451,0,0,1-5.072-2.29C86.059,137.657,80.389,129.174,80.922,125.267Z" transform="translate(-29.029 -57.32)" fill="#fff"/>
      <path id="Path_231068" data-name="Path 231068" d="M88.358,115.484c-2.315,0-5.072.416-7.3-.059.8-1.652,2.945-3.046,4.239-4.348a16.381,16.381,0,0,0,4.448-7.657c.811-3.251.98-6.646,2.08-9.827a11,11,0,0,1,2.235-4.11,8.745,8.745,0,0,1,6.71-2.329,16.921,16.921,0,0,1,3.234.493c.788.192,2.567.4,3.162.946.71.655-.016,1.515-.411,2.426-.448,1.034-.909,2.063-1.416,3.07a29.011,29.011,0,0,1-3.023,4.833c-1.126,1.441-2.362,2.79-3.56,4.172-1.036,1.2-2.092,2.368-3.158,3.535a95.368,95.368,0,0,0-6.216,7.4Q88.843,114.743,88.358,115.484Z" transform="translate(-5.637 -53.982)" opacity="0.45" fill="url(#linear-gradient-3)" style="mix-blend-mode: multiply;isolation: isolate"/>
      <path id="Path_231069" data-name="Path 231069" d="M82.7,82.87s.366,5.119,7.422,8.443a3.078,3.078,0,0,1,1.161,2.121c.057,2.7-3.238,2.233-4.513,1.568-1.116-.583-2.634-1.423-2.634-1.423A14.075,14.075,0,0,1,79,85.118C78.943,84.806,81.17,82.946,82.7,82.87Z" transform="translate(14.751 -58.455)" fill="#94e1c9"/>
      <g id="Group_129069" data-name="Group 129069" transform="translate(86.823 25.582)">
        <path id="Path_231071" data-name="Path 231071" d="M64.569,93.009c0,2.213.731,4.03,1.523,4.03s1.347-1.818,1.347-4.03-.63-3.883-1.423-3.883S64.569,90.8,64.569,93.009Z" transform="translate(-18.692 -77.487)" fill="#4ba384"/>
        <g id="Group_129065" data-name="Group 129065" transform="translate(0.866)">
          <path id="Path_231072" data-name="Path 231072" d="M115.908,83.739a3.373,3.373,0,0,0-.565,1.764c-.121,1.167-.123,2.344-.182,3.517a35.175,35.175,0,0,1-.405,3.826c-.172,1.052-.282,3.271-.923,4.108-.569.747-2.137.184-3,.086q-2.063-.23-4.124-.469-8.06-.927-16.111-1.928a96.986,96.986,0,0,1-17.442-3.3c-2.929-.929-6.218-2.2-9.209-.831a6.655,6.655,0,0,0-3.5,4.116c-1.709,5.723,3.164,8.558,7.668,8.748a175.439,175.439,0,0,0,21.636-.354c7.238-.592,24.321-1.267,25.779-1.949,2.477-1.156,1.371-5.7,1.263-7.907-.154-3.124-.117-6.264-.176-9.391a.475.475,0,0,0-.047-.24c-.117-.186-.393-.084-.547.07A1.716,1.716,0,0,0,115.908,83.739Z" transform="translate(-60.097 -83.44)" fill="#f9aa8f"/>
        </g>
        <g id="Group_129066" data-name="Group 129066" transform="translate(9.389 6.501)">
          <path id="Path_231075" data-name="Path 231075" d="M65.18,86.616c2.968.669,5.742,1.914,8.816,2.344,4.407.614,8.881.338,13.293.886q8,.995,16,1.916a9.459,9.459,0,0,0-.143,7.717l.082.194c-5.737.366-12.814.723-16.844,1.05a190.778,190.778,0,0,1-21.2.624Z" transform="translate(-65.18 -86.616)" fill="#40d3ba"/>
        </g>
        <g id="Group_129067" data-name="Group 129067" transform="translate(9.389 6.501)">
          <path id="Path_231076" data-name="Path 231076" d="M93.738,93.592c-3.062-.809-6.108-1.689-9.2-2.374q-4.781-1.059-9.633-1.695c-3.234-.43-6.48-.753-9.723-1.105v-1.8c2.968.669,5.742,1.914,8.816,2.344,4.407.614,8.881.338,13.293.886q8,.995,16,1.916a9.445,9.445,0,0,0-.888,3.7A77.312,77.312,0,0,1,93.738,93.592Z" transform="translate(-65.18 -86.616)" fill="#7cd1b2"/>
        </g>
        <g id="Group_129068" data-name="Group 129068" transform="translate(0 6.063)">
          <path id="Path_231078" data-name="Path 231078" d="M76.118,91.3a5.815,5.815,0,0,1,4.026-4.726,6.742,6.742,0,0,1,1.924-.162c4.292.117,7.9,2.194,12.06,2.776,1.744.242,5.543.413,7.3.483-2.518,4.028-2.36,11.673-2.346,11.757-4.906.235-10.185.34-14.173.129-3.85-.2-7.291-1.816-8.572-5.7A8.987,8.987,0,0,1,76.118,91.3Z" transform="translate(-75.924 -86.402)" fill="#fff"/>
        </g>
      </g>
      <path id="Path_231079" data-name="Path 231079" d="M137.262,144.317l-.88-7.252s-4.857-3.306-4.18-10.726a.262.262,0,0,0-.1-.2s-3.275-1.181-7.352,2.217c-.6.5,1.259,5.087,1.259,5.087l1.613.2-.907,1.31s4.028,11.231,9.191,13.37C137.369,148.929,137.262,144.317,137.262,144.317Z" transform="translate(-124.627 -13.367)" fill="#212529"/>
      <path id="Path_231080" data-name="Path 231080" d="M93.946,139.2l-6.9-2.972s-4.374,2.192-10.525-2.014c-.1-.068-.317.207-.317.207s-2.628,2.284-1.648,7.5c.145.774,3.979,1.308,3.979,1.308l.96-1.31.7,1.431s16.013,1.312,17.231-1.441C98.071,140.455,93.946,139.2,93.946,139.2Z" transform="translate(18.08 -4.718)" fill="#212529"/>
      <path id="Path_231081" data-name="Path 231081" d="M75.193,86.374c-.076,2.569,2.01,6.669,3.359,8.419,1.447,1.877,4.7,5.742,7.293,3.441a23.667,23.667,0,0,0,6.8-11.784c.632-2.993-.18-5.193-1.056-8.235-1.021-3.543-4.163-4.638-7.215-5.5-5.414-1.537-9.453,2.81-10.177,8.333C73.852,83.643,75.271,83.729,75.193,86.374Z" transform="translate(23.109 -69.417)" fill="#f9aa8f"/>
      <path id="Path_231083" data-name="Path 231083" d="M73.815,84.235A12.774,12.774,0,0,1,73.66,80.1a10.334,10.334,0,0,1,1.748-4.784,7.566,7.566,0,0,1,1.918-1.869c.579-.389,1.955-1.279,2.651-1.068a9.277,9.277,0,0,0-1.269-.907,3.79,3.79,0,0,1,2.927.188c.149-.227-.049-.481.006-.714,1.054,0,1.071.467,1.945.917.909.055,6.059.2,8.662,4.505a1.76,1.76,0,0,1,.377.618c-.082-.045-.44-.025-.524-.07a10.274,10.274,0,0,1,2.452,6.112,1.314,1.314,0,0,0-.4-.264,11.111,11.111,0,0,1-.311,4.131A3.846,3.846,0,0,1,93,84.386a9.261,9.261,0,0,0,.3,3.813,5.188,5.188,0,0,1-1.228-1.7,16.12,16.12,0,0,0-.966-2.718,5.643,5.643,0,0,0-2.209-2.02c1.009.508,1.365,2.026,1.265,3.027a2.058,2.058,0,0,0-1.179-1.416c-.569-.293-1.2-.434-1.789-.68a5.446,5.446,0,0,1-2.825-2.749q.107.743.213,1.486a4.333,4.333,0,0,0-3.873-2.067c-2.329.684-.876,2.962-2.368,5.858a.652.652,0,0,1-.68-.34c-.076-.2.317-.862.385-1.083a3.424,3.424,0,0,0-.178-2.665,1.066,1.066,0,0,0-1.32-.483c-.952.409-1.388,1.769-1.568,2.7-.307,1.584.641,3.281.34,4.857-.655-.352-1.57-.356-1.926-1.171C73.133,86.425,73.952,84.881,73.815,84.235Z" transform="translate(23.052 -70.942)" fill="#091e42"/>
      <path id="Path_231084" data-name="Path 231084" d="M82.988,87.256a1.92,1.92,0,0,1-.475-.692,9.212,9.212,0,0,1-.508-1.855,8.883,8.883,0,0,1-.19-1.273c-.023-.323-.029-.649-.031-.972a1.052,1.052,0,0,0,.143.143.115.115,0,0,0,.194-.08,3.717,3.717,0,0,0-.166-1.357,10.512,10.512,0,0,0-2.3-3.441c.035.02.07.043.106.061a.115.115,0,0,0,.172-.1,3.764,3.764,0,0,0-.852-1.889,11.539,11.539,0,0,0-1.308-1.394,12.583,12.583,0,0,0-1.652-1.31c-1.251-.825-3.06-1.867-2.737-1.7.909.055,6.059.2,8.662,4.505a1.76,1.76,0,0,1,.377.618c-.082-.045-.44-.025-.524-.07a10.274,10.274,0,0,1,2.452,6.112,1.315,1.315,0,0,0-.4-.264,11.111,11.111,0,0,1-.311,4.131,3.846,3.846,0,0,1-.843-2.505A8.862,8.862,0,0,0,82.988,87.256Z" transform="translate(33.253 -70.482)" fill="#091e42"/>
      <path id="Path_231085" data-name="Path 231085" d="M82.9,76.311c-1.005.094-1.083,1.842-1.132,2.571a1.8,1.8,0,0,0,.082.868c.059.133.19.268.332.225a.346.346,0,0,0,.19-.258,2.056,2.056,0,0,0,.07-.733c-.037-.411.309-.585.583-.806a1.271,1.271,0,0,0,.37-1.535.534.534,0,0,0-.368-.325A.441.441,0,0,0,82.9,76.311Z" transform="translate(16.89 -65.323)" fill="#a56450"/>
    </g>
    <g id="Group_129082" data-name="Group 129082" transform="translate(476 753)">
      <path id="Path_231122" data-name="Path 231122" d="M100.981,55.169a1.743,1.743,0,0,0-1.631-.835c.862-.116,1.559,1.068,1.544,1.759-.026,1.318-.667,2.763-.8,4.074.2.024.48-.138.675-.112C100.869,58.644,101.75,56.427,100.981,55.169Z" transform="translate(-99.349 -54.322)" fill="#fff"/>
      <path id="Path_231123" data-name="Path 231123" d="M107.788,65a25.777,25.777,0,0,1-12.911-8.738s-.09.2-.235.6a12.507,12.507,0,0,0,2.136,12.323A7.645,7.645,0,0,0,101.024,72S104.35,72.447,107.788,65Z" transform="translate(-93.854 -52.001)" fill="#d4e9e4"/>
      <path id="Path_231124" data-name="Path 231124" d="M94.626,58.5c5.017,5.469,8.909,4.962,8.909,4.962C102.857,64.988,96.431,61.773,94.626,58.5Z" transform="translate(-91.234 -49.333)" fill="#94e1c9" opacity="0.36"/>
      <path id="Path_231125" data-name="Path 231125" d="M95.116,58.981c4.622,5.808,8.538,5.576,8.538,5.576C102.872,66.026,96.686,62.371,95.116,58.981Z" transform="translate(-92.428 -48.764)" fill="#94e1c9" opacity="0.36"/>
      <path id="Path_231126" data-name="Path 231126" d="M95.8,59.227c3.818,6.363,7.729,6.648,7.729,6.648C102.565,67.23,96.912,62.792,95.8,59.227Z" transform="translate(-93.812 -48.471)" fill="#94e1c9" opacity="0.36"/>
      <path id="Path_231127" data-name="Path 231127" d="M96.7,56.861c.145-.4.235-.594.235-.594a23.256,23.256,0,0,0,2.515,2.756,19.269,19.269,0,0,0,3.416,9.161,19.489,19.489,0,0,0,2.473,2.989,3.6,3.6,0,0,1-2.259.822,7.645,7.645,0,0,1-4.245-2.809A12.51,12.51,0,0,1,96.7,56.861Z" transform="translate(-95.909 -52.001)" fill="#d4e9e4" opacity="0.42" style="mix-blend-mode: multiply;isolation: isolate"/>
    </g>
  </g>
</svg>
