<?xml version="1.0" encoding="utf-8"?>
<!-- Generator: Adobe Illustrator 27.7.0, SVG Export Plug-In . SVG Version: 6.00 Build 0)  -->
<svg version="1.1" id="Layer_1" xmlns="http://www.w3.org/2000/svg" xmlns:xlink="http://www.w3.org/1999/xlink" x="0px" y="0px"
	 viewBox="0 0 384 512" style="enable-background:new 0 0 384 512;" xml:space="preserve">
<style type="text/css">
	.st0{opacity:0.5;fill:#FFFFFF;}
</style>
<path class="st0" d="M224,136V0H24C10.7,0,0,10.7,0,24v464c0,13.3,10.7,24,24,24h336c13.3,0,24-10.7,24-24V160H248
	C234.8,160,224,149.2,224,136z M289.2,352H224v80c0,8.8-7.2,16-16,16h-32c-8.8,0-16-7.2-16-16v-80H94.8c-14.3,0-21.4-17.3-11.3-27.4
	L180,229c6.6-6.6,17.4-6.6,24,0l96.4,95.7C310.6,334.7,303.5,352,289.2,352z M377,105L279.1,7c-4.5-4.5-10.6-7-17-7H256v128h128
	v-6.1C384,115.6,381.5,109.5,377,105z"/>
</svg>
