<?xml version="1.0" encoding="utf-8"?>
<!-- Generator: Adobe Illustrator 27.7.0, SVG Export Plug-In . SVG Version: 6.00 Build 0)  -->
<svg version="1.1" id="Layer_1" xmlns="http://www.w3.org/2000/svg" xmlns:xlink="http://www.w3.org/1999/xlink" x="0px" y="0px"
	 viewBox="0 0 512 512" style="enable-background:new 0 0 512 512;" xml:space="preserve">
<style type="text/css">
	.st0{opacity:0.5;fill:#FFFFFF;}
</style>
<path class="st0" d="M511.1,378.8l-26.7-160c-2.6-15.4-15.9-26.7-31.6-26.7H208v-64h96c8.8,0,16-7.2,16-16V16c0-8.8-7.2-16-16-16H48
	c-8.8,0-16,7.2-16,16v96c0,8.8,7.2,16,16,16h96v64H59.1c-15.6,0-29,11.3-31.6,26.7l-26.7,160c-0.6,3.5-0.9,7-0.9,10.5V480
	c0,17.7,14.3,32,32,32h448c17.7,0,32-14.3,32-32v-90.7C512,385.8,511.7,382.3,511.1,378.8z M280,248c0-8.8,7.2-16,16-16h16
	c8.8,0,16,7.2,16,16v16c0,8.8-7.2,16-16,16h-16c-8.8,0-16-7.2-16-16V248z M248,312h16c8.8,0,16,7.2,16,16v16c0,8.8-7.2,16-16,16h-16
	c-8.8,0-16-7.2-16-16v-16C232,319.2,239.2,312,248,312z M216,232c8.8,0,16,7.2,16,16v16c0,8.8-7.2,16-16,16h-16c-8.8,0-16-7.2-16-16
	v-16c0-8.8,7.2-16,16-16H216z M80,80V48h192v32H80z M120,280h-16c-8.8,0-16-7.2-16-16v-16c0-8.8,7.2-16,16-16h16c8.8,0,16,7.2,16,16
	v16C136,272.8,128.8,280,120,280z M136,344v-16c0-8.8,7.2-16,16-16h16c8.8,0,16,7.2,16,16v16c0,8.8-7.2,16-16,16h-16
	C143.2,360,136,352.8,136,344z M352,456c0,4.4-3.6,8-8,8H168c-4.4,0-8-3.6-8-8v-16c0-4.4,3.6-8,8-8h176c4.4,0,8,3.6,8,8V456z
	 M376,344c0,8.8-7.2,16-16,16h-16c-8.8,0-16-7.2-16-16v-16c0-8.8,7.2-16,16-16h16c8.8,0,16,7.2,16,16V344z M424,264
	c0,8.8-7.2,16-16,16h-16c-8.8,0-16-7.2-16-16v-16c0-8.8,7.2-16,16-16h16c8.8,0,16,7.2,16,16V264z"/>
</svg>
