<svg xmlns="http://www.w3.org/2000/svg" xmlns:xlink="http://www.w3.org/1999/xlink" width="105" height="158.274" viewBox="0 0 105 158.274">
  <defs>
    <linearGradient id="linear-gradient" x1="-369.417" y1="-36.788" x2="-368.365" y2="-36.788" gradientUnits="objectBoundingBox">
      <stop offset="0" stop-color="#040000"/>
      <stop offset="0.319" stop-color="#141010"/>
      <stop offset="0.676" stop-color="#2c2929"/>
      <stop offset="0.829" stop-color="#1b1818"/>
      <stop offset="1" stop-color="#040000"/>
    </linearGradient>
    <linearGradient id="linear-gradient-2" x1="1.853" y1="-4.363" x2="1.448" y2="-5.592" gradientUnits="objectBoundingBox">
      <stop offset="0" stop-color="#a4aeb6"/>
      <stop offset="0.528" stop-color="#cfd4d8"/>
      <stop offset="0.609" stop-color="#c7cdd1"/>
      <stop offset="1" stop-color="#a6b0b5"/>
    </linearGradient>
  </defs>
  <g id="wel-dc-r" transform="translate(-1122 -538)">
    <rect id="Rectangle_112473" data-name="Rectangle 112473" width="105" height="80" transform="translate(1122 538)" fill="#fff" opacity="0"/>
    <g id="Group_118255" data-name="Group 118255" transform="translate(-834.372 339.379)">
      <path id="Path_225207" data-name="Path 225207" d="M2098.354,230.365c11.113-.176,17.834,8.126,17.26,24.637s-2.151,26.265-19.124,25.277c-12.174-.708-14.265-24.146-12.181-34.123S2092.709,230.456,2098.354,230.365Z" transform="translate(-87.289 -22.076)" fill="#180705"/>
      <g id="Group_118226" data-name="Group 118226" transform="translate(1968.372 239.672)">
        <path id="Path_225208" data-name="Path 225208" d="M1972.83,366.636l-2.18-6.752a2.205,2.205,0,0,0-2.278.674l2.059,6.673Z" transform="translate(-1968.372 -359.797)" fill="#f3f3f8"/>
        <path id="Path_225209" data-name="Path 225209" d="M1992.853,402.767a8.742,8.742,0,0,1,1.777,5.059c.151,2.992-1.786,5.756-3.728,4.938s-4.487-3.517-5.861-6.468-5.887-15.063-5.887-15.063a5.37,5.37,0,0,1-3.24-1.475c-1.233-1.342-2.773-8.14-2.773-8.14s1.48.225,3.157.554c-.511-1.1-.233-2.017.1-2.064.449-.064,1.443.922,2.24,1.361,1.332.733,3.05.989,3.342,1.274.853.834,1.344,3.4,2.359,5.226C1987.334,393.356,1992.853,402.767,1992.853,402.767Z" transform="translate(-1971.985 -375.181)" fill="#ffbe9d"/>
        <path id="Path_225210" data-name="Path 225210" d="M1979.6,396.5a3.75,3.75,0,0,0,1.809-1.615,2.629,2.629,0,0,1-2.055-2.108c-.266-1.775.351-2.263-.816-3.139a7.742,7.742,0,0,1-1.855-2.08l-2.953-.5s.49,4.011.87,5.451A5.245,5.245,0,0,0,1979.6,396.5Z" transform="translate(-1972.429 -380.445)" fill="#ebaf90"/>
        <g id="Group_118225" data-name="Group 118225" transform="translate(0.419 5.382)">
          <path id="Path_225211" data-name="Path 225211" d="M1973.762,382.453a7.889,7.889,0,0,0-2.913-.426c-.47.081-.793.315-.747,1.236a1.692,1.692,0,0,0,.8,1.205,1.389,1.389,0,0,0-.707,1.086,1.745,1.745,0,0,0,1.028,1.631,1.065,1.065,0,0,0-.3,1.038,1.866,1.866,0,0,0,1.152,1.136,1.631,1.631,0,0,0,.052,1.2,5.663,5.663,0,0,0,2.8,1.606c1.173.324,1.51-.734,1.245-1.261a2.533,2.533,0,0,0-.962-.986,1.221,1.221,0,0,0,.491-.994c-.036-.625-1.3-1.2-1.3-1.2s.928-.328.88-1.079-1.55-1.4-1.55-1.4a.848.848,0,0,0,.909-.54A3.635,3.635,0,0,1,1973.762,382.453Z" transform="translate(-1970.098 -381.991)" fill="#ebaf90"/>
          <path id="Path_225212" data-name="Path 225212" d="M1973.4,392.1a10.072,10.072,0,0,1,2.834.776.819.819,0,0,0,.792-.356,2.006,2.006,0,0,1-1.1,0A7.769,7.769,0,0,0,1973.4,392.1Z" transform="translate(-1972.602 -389.624)" fill="#906656"/>
          <path id="Path_225213" data-name="Path 225213" d="M1974.727,403.077a13.733,13.733,0,0,1,3.184.538,1.5,1.5,0,0,0,.783-.633,1.691,1.691,0,0,1-1,.255C1977.065,403.219,1975.338,402.771,1974.727,403.077Z" transform="translate(-1973.605 -397.883)" fill="#906656"/>
          <path id="Path_225214" data-name="Path 225214" d="M1978.225,412.046c.536-.2,2.635.405,3.14.558a1.344,1.344,0,0,0,.344-.394,1.686,1.686,0,0,1-.906.008C1980.176,412.1,1978.663,411.771,1978.225,412.046Z" transform="translate(-1976.254 -404.678)" fill="#906656"/>
        </g>
      </g>
      <path id="Path_225215" data-name="Path 225215" d="M2029.533,403.966a6.264,6.264,0,0,1,.014,5.468c-1.434,2.789-10.166,19.061-12.607,22.031s-8.507,3.387-10.734.522-10.056-20.853-10.056-20.853a1.174,1.174,0,0,1,.394-.839,65.626,65.626,0,0,0,5.714-4.21c3.281,5.035,5.147,8.77,7.9,13.167,1.328,2.12,1.142,2.352,2.388.262l6.749-11.377S2025.325,403.015,2029.533,403.966Z" transform="translate(-21.043 -153.495)" fill="#e2e2e1" fill-rule="evenodd"/>
      <g id="Group_118233" data-name="Group 118233" transform="translate(1994.647 244.499)">
        <path id="Path_225216" data-name="Path 225216" d="M2164.243,638.419c-.335-1.383-.758-3.332-1.169-5.444h12.289a25.681,25.681,0,0,0-.64,4.634c3.618,13.342,1.387,29.985,2.172,36.189.072.573,1.443,5.648,1.443,5.648l.737,1.633-.111.8-3.287.516-3.1-1.478a48.514,48.514,0,0,1-.536-6.05,7.837,7.837,0,0,1,.4-1.515l.262-.238C2170.03,661.635,2167.042,649.992,2164.243,638.419Z" transform="translate(-2142.137 -571.563)" fill="#ffbe9d" fill-rule="evenodd"/>
        <path id="Path_225217" data-name="Path 225217" d="M2164.078,637.725c-.3-1.307-.658-2.971-1-4.75h12.289a34.542,34.542,0,0,0-.657,4.487A92.778,92.778,0,0,1,2164.078,637.725Z" transform="translate(-2142.137 -571.563)" fill="#ebaf90" fill-rule="evenodd"/>
        <path id="Path_225218" data-name="Path 225218" d="M2092.123,638.883c-.153-1.487-.322-3.62-.456-5.908h11.205a27.592,27.592,0,0,0-1.294,5.525c3.1,11.134-1.279,24.221-1.575,33.381a2.749,2.749,0,0,0,.238.555l.328,2.454-5.607,6.817-2.659.211-3.04.474,1.337-1.208,2.164-.732s.794-.135,1.607-1.729c.475-.933.225-4.263.213-6.869C2094.534,661.075,2093.231,649.667,2092.123,638.883Z" transform="translate(-2086.224 -571.563)" fill="#ffbe9d" fill-rule="evenodd"/>
        <path id="Path_225219" data-name="Path 225219" d="M2099.377,635.943c-.07-.927-.139-1.931-.2-2.968h11.205c-.5,1.719-.927,3.309-1.148,4.349C2105.366,636.963,2102,636.437,2099.377,635.943Z" transform="translate(-2093.735 -571.563)" fill="#ebaf90" fill-rule="evenodd"/>
        <path id="Path_225220" data-name="Path 225220" d="M2091.369,490.488a166.906,166.906,0,0,0-3.561,32.287s-.026.4.7.512a87.215,87.215,0,0,0,32.452-.174.978.978,0,0,0,.679-.938c.1-.823-.525-4.269-.393-7.737s1.563-15.658-4.26-23.7S2091.369,490.488,2091.369,490.488Z" transform="translate(-2085.122 -461.059)" fill="#910683" fill-rule="evenodd"/>
        <path id="Path_225221" data-name="Path 225221" d="M2135.281,800.637s.717.182.494,1.331-1.344,1.9-1.344,4.173v4.336s.032.489-.359.489h-.255c-.157,0-.3-.114-.3-.494v-4.83a4.408,4.408,0,0,0-.729-2.4C2132.422,802.981,2135.281,800.637,2135.281,800.637Z" transform="translate(-2119.169 -698.57)" fill="#393332" fill-rule="evenodd"/>
        <path id="Path_225222" data-name="Path 225222" d="M2093.267,791.04a7.318,7.318,0,0,1,2.974,2.438.482.482,0,0,1-.278.579c-.409.234-3.09,2.1-3.613,3.312s-1.373,3.6-1.732,4.531a2.594,2.594,0,0,1-2.485,1.8h-7.027c-1.339,0-.882-.936.082-1.416s3.088-1.674,3.366-1.761.392-.006.392-.006-.3.111-.2.308.816.092,1.527.092a2.684,2.684,0,0,0,2.3-1.225c.54-.924,2.614-5.762,2.81-6.206S2092.933,792.092,2093.267,791.04Z" transform="translate(-2079.413 -691.3)" fill="#221613" fill-rule="evenodd"/>
        <path id="Path_225223" data-name="Path 225223" d="M2203.378,805.3a10.475,10.475,0,0,0,.993,1.593,20.993,20.993,0,0,1,1.8,1.615c.2.32.579,1.305-.96,1.305H2199.7c-1.472,0-2.713-.32-2.729-1.272a43.78,43.78,0,0,0-.316-5.055c-.2-.73-.711-1.56-.464-2.279a9.166,9.166,0,0,1,1.224-2.09c.061-.051.156.472.156.472a2.114,2.114,0,0,0-.105.457c-.133,1.051.429,5.8.429,6.194s.6.653,1.688.863,3.342.4,4.186-.165a.237.237,0,0,0,.061-.291C2203.763,806.438,2203.378,805.3,2203.378,805.3Z" transform="translate(-2167.177 -697.413)" fill="#221613" fill-rule="evenodd"/>
        <g id="Group_118232" data-name="Group 118232" transform="translate(0)">
          <g id="Group_118230" data-name="Group 118230">
            <g id="Group_118228" data-name="Group 118228">
              <g id="Group_118227" data-name="Group 118227">
                <path id="Path_225224" data-name="Path 225224" d="M2101.467,402.4s-4.4,4.894-4.868,5.582a25.664,25.664,0,0,0-2.747,5.288,7.017,7.017,0,0,0,1.177,4.865l.015,15.239c7.672,1.6,17.19,1.04,24.862,0l-1.256-6.37,6.361-23.3-9.347-2.3-6.237,1.216-2.53-1.282Z" transform="translate(-2089.622 -396.091)" fill="#6162c3" fill-rule="evenodd"/>
                <path id="Path_225225" data-name="Path 225225" d="M2156.738,379.706h-8.768v7.367h3.484l5.284-1.558Z" transform="translate(-2130.696 -379.706)" fill="#eaa481" fill-rule="evenodd"/>
                <path id="Path_225226" data-name="Path 225226" d="M2164.375,397.22l-6.36,3.12,3.016,3.053,4.219-4.887Z" transform="translate(-2138.305 -392.973)" fill="#404182" fill-rule="evenodd"/>
                <path id="Path_225227" data-name="Path 225227" d="M2145.2,400.5l-2.463-3.069-1.208,1.175-.431,4.972Z" transform="translate(-2125.49 -393.131)" fill="#404182" fill-rule="evenodd"/>
                <path id="Path_225228" data-name="Path 225228" d="M2174.949,404.523c-1.7-2.324-11.028-2.307-11.277-2.294a2.906,2.906,0,0,0-.789.315c-10.224,20.748-11.756,24.771-5.888,52.322,0,0,.106.619,1.312.887s14.312,1.463,14.312,1.463.745.215.533-.78-3.6-24.212-2.816-29.874a84.357,84.357,0,0,1,2.986-11.976C2174.151,412.177,2176.451,406.582,2174.949,404.523Z" transform="translate(-2134.947 -396.766)" fill="#e2e2e1" fill-rule="evenodd"/>
                <path id="Path_225229" data-name="Path 225229" d="M2159.35,397.125a13.2,13.2,0,0,0,3.91.871c.425.084.892.182,1.381.289-4.3,4.382-5.449,12.4-7.9,16.037-2.232,1.123-1.673,1.137-1.673,1.137,2.25.639,1.082,1.788,1.082,1.788-.492,2.9-4.381,8.872-3.742,18.2-.226-.542-.557-2.416-.719-2.8-.839-3.62-.434-11.469,1.211-18.783C2155.326,406.986,2158.376,399.645,2159.35,397.125Z" transform="translate(-2133.194 -392.901)" fill="#eeeeed"/>
                <path id="Path_225230" data-name="Path 225230" d="M2090.911,403.2s-4.859,10.592-5.285,11.56-.638,1.775-.142,3.925a3.076,3.076,0,0,1,.141,1.062c.018.793-.124,4.988-.124,4.988l-2.456,29.756a1.446,1.446,0,0,1-1.065,1.022c-.922.269-4.683,1.559-4.683,1.559s-.568.108-.568-.431,4.586-29.594,4.586-29.594l.461-6.964c-1.535-4.456-3.159-5.653.178-9.867.523-.66,1.245-1.622,1.961-2.592,2.1-2.837.679-3.518,2.981-4.078l3.573-.495A.46.46,0,0,1,2090.911,403.2Z" transform="translate(-2076.731 -397.38)" fill="#eeeeed" fill-rule="evenodd"/>
                <path id="Path_225231" data-name="Path 225231" d="M2105.2,418.887c.019.794-.125,4.99-.125,4.99l-1.268,15.462-.411-19.815,1.354-1.234H2103a6.575,6.575,0,0,1-.44-2.224c0-1,4.148-10.8,5.329-13.573l2.157-.3a.459.459,0,0,1,.44.148s-4.86,10.592-5.286,11.563-.636,1.775-.139,3.923A3.031,3.031,0,0,1,2105.2,418.887Z" transform="translate(-2096.298 -396.731)" fill="#e2e2e1" fill-rule="evenodd"/>
                <path id="Path_225232" data-name="Path 225232" d="M2146.143,425.454a.778.778,0,0,0-.753.675.589.589,0,0,0,.6.675.778.778,0,0,0,.753-.675A.589.589,0,0,0,2146.143,425.454Z" transform="translate(-2128.738 -414.361)" fill="#404182" fill-rule="evenodd"/>
                <path id="Path_225233" data-name="Path 225233" d="M2134.979,454.728a.779.779,0,0,0-.753.675.59.59,0,0,0,.6.675.778.778,0,0,0,.752-.675A.589.589,0,0,0,2134.979,454.728Z" transform="translate(-2120.281 -436.537)" fill="#404182" fill-rule="evenodd"/>
                <path id="Path_225234" data-name="Path 225234" d="M2131.964,507.1a.779.779,0,0,1-.753-.675.59.59,0,0,1,.6-.675.777.777,0,0,1,.752.675A.589.589,0,0,1,2131.964,507.1Z" transform="translate(-2117.998 -475.184)" fill="#404182" fill-rule="evenodd"/>
              </g>
            </g>
            <g id="Group_118229" data-name="Group 118229" transform="translate(22.781 2.589)">
              <path id="Path_225235" data-name="Path 225235" d="M2188.177,398.928c.71,3.753-.333,8.96-1.552,12.621l-1.066-.318c1.744-4.884,3.112-13.016-1.314-19.19l.05-1.658C2186.315,392.2,2187.691,396.361,2188.177,398.928Z" transform="translate(-2180.956 -390.383)" fill="#060000"/>
              <rect id="Rectangle_112470" data-name="Rectangle 112470" width="1.525" height="1.764" transform="translate(3.836 21.972) rotate(-73.338)" fill="#b9b7b7"/>
              <path id="Path_225236" data-name="Path 225236" d="M2170.684,483.455a3.72,3.72,0,1,0,3.549-3.838A3.7,3.7,0,0,0,2170.684,483.455Z" transform="translate(-2170.681 -457.976)" fill="#b9b7b7"/>
              <path id="Path_225237" data-name="Path 225237" d="M2174.332,483.46a3.092,3.092,0,1,0,2.95-3.19A3.072,3.072,0,0,0,2174.332,483.46Z" transform="translate(-2173.444 -458.472)" fill="#fafafa"/>
              <path id="Path_225238" data-name="Path 225238" d="M2178.984,486.593a1.96,1.96,0,1,0,1.87-2.023A1.948,1.948,0,0,0,2178.984,486.593Z" transform="translate(-2176.969 -461.73)" fill="url(#linear-gradient)"/>
              <path id="Path_225239" data-name="Path 225239" d="M2179.3,484.937a1.891,1.891,0,1,0,1.8-1.951A1.879,1.879,0,0,0,2179.3,484.937Z" transform="translate(-2177.211 -460.53)" fill="#b9b7b7"/>
              <path id="Path_225240" data-name="Path 225240" d="M2180.6,484.465a1.665,1.665,0,1,0,1.589-1.719A1.656,1.656,0,0,0,2180.6,484.465Z" transform="translate(-2178.191 -460.348)" fill="#fafafa"/>
            </g>
          </g>
          <g id="Group_118231" data-name="Group 118231" transform="translate(6.263 3.115)">
            <path id="Path_225241" data-name="Path 225241" d="M2130.72,392.554l-.1,1.182a8.509,8.509,0,0,0-4.437,5.725l-1.081-.057C2125.134,396.8,2128.365,393.865,2130.72,392.554Z" transform="translate(-2119.636 -392.554)" fill="#060000"/>
            <path id="Path_225242" data-name="Path 225242" d="M2112.173,445.47l-.7-.114s-1.557,8.551,5,10.313l-.077-.542S2110.735,453.664,2112.173,445.47Z" transform="translate(-2109.191 -432.553)" fill="#7d7d7d"/>
            <path id="Path_225243" data-name="Path 225243" d="M2112.025,443.048l.7.094s-.991,8.635-7.776,8.418l.231-.5S2111.024,451.306,2112.025,443.048Z" transform="translate(-2104.371 -430.804)" fill="#7d7d7d"/>
            <path id="Path_225244" data-name="Path 225244" d="M2116.147,426.181l.385-2.764c.178-1.27.3-2.885-1.589-3.138-1.933-.256-2.205,1.315-2.383,2.586l-.385,2.762-1.091-.151.581-4.168a3.179,3.179,0,0,1,6.241.869l-.581,4.168Z" transform="translate(-2109.017 -412.571)" fill="#060000"/>
            <path id="Path_225245" data-name="Path 225245" d="M2129.6,484.489a.579.579,0,0,0,.329.751l.583.229a.582.582,0,0,0,.752-.329h0a.581.581,0,0,0-.329-.752l-.584-.228a.579.579,0,0,0-.751.328Z" transform="translate(-2123.013 -461.918)" fill="#060000"/>
            <path id="Path_225246" data-name="Path 225246" d="M2104.323,475.007a.579.579,0,0,0-.684-.451l-.614.125a.58.58,0,0,0-.452.685h0a.581.581,0,0,0,.685.452l.614-.126a.579.579,0,0,0,.451-.685Z" transform="translate(-2102.561 -454.663)" fill="#060000"/>
          </g>
        </g>
      </g>
      <g id="Group_118241" data-name="Group 118241" transform="translate(1997.607 209.96)">
        <g id="Group_118240" data-name="Group 118240">
          <path id="Path_225247" data-name="Path 225247" d="M2090.014,299.555c-1.024-1.326-1.565-3.514-.478-6.315a2.885,2.885,0,0,1,2.664-1.676l4.071,1.094-1.148,9.012-3.743-1.006A2.884,2.884,0,0,1,2090.014,299.555Z" transform="translate(-2088.939 -278.385)" fill="#906656"/>
          <g id="Group_118239" data-name="Group 118239" transform="translate(2.187)">
            <path id="Path_225248" data-name="Path 225248" d="M2224.722,313.241c1.333-1.015,2.423-2.987,2.1-5.975a2.883,2.883,0,0,0-2.138-2.309h-4.215l-1.23,9h3.876A2.884,2.884,0,0,0,2224.722,313.241Z" transform="translate(-2189.831 -288.543)" fill="#906656"/>
            <path id="Path_225249" data-name="Path 225249" d="M2126.357,266.647c-2.019,3.713-12.07,9.339-18.189,8.095-3.952-.808-7.42-4.607-9.08-7.879-.177-.359-.34-.708-.474-1.048a19.8,19.8,0,0,1-.656-5.951c-.043-5.818.8-13.7,2.043-16.1,2.225-4.33,7.827-6.679,13.548-6.492,8.478.287,15.079,4.344,16.414,9.855S2127.95,263.724,2126.357,266.647Z" transform="translate(-2097.958 -237.262)" fill="#ffbe9d"/>
            <path id="Path_225250" data-name="Path 225250" d="M2172.969,303.1c.765-1.486-.352-6.059-3.455-6.435s-2.919,5.206-2.173,6.734A3.421,3.421,0,0,1,2172.969,303.1Z" transform="translate(-2150.168 -282.247)" fill="#ebaf91"/>
            <path id="Path_225251" data-name="Path 225251" d="M2110.309,301.522c-.624-1.46,1.118-5.958,2.96-5.988,2.97-.049,2.824,4.647,2.014,6.046C2114.08,299.73,2111.969,299.709,2110.309,301.522Z" transform="translate(-2107.216 -281.404)" fill="#ebaf91"/>
            <path id="Path_225252" data-name="Path 225252" d="M2227.558,319.048c.241-.162.43-.135.522-.463a3.31,3.31,0,0,0,.038-.95,2.069,2.069,0,0,1,.467-1.466c.37-.434.935-.743,1.445-.348a1.1,1.1,0,0,1,.215,1.374c-.065.124-.223.021-.2-.094.075-.423-.209-.963-.7-.733a1.3,1.3,0,0,0-.569.847c-.058.4,0,.822-.04,1.228-.052.528-.535,1.439-1.185.993A.228.228,0,0,1,2227.558,319.048Z" transform="translate(-2196.044 -296.634)" fill="#7b4d23"/>
            <path id="Path_225253" data-name="Path 225253" d="M2148.971,368.84c.209-.116-.354-.78-1.02-.76s-1.349.373-1.135.592.7.074,1.111.089S2148.68,369,2148.971,368.84Z" transform="translate(-2134.939 -336.359)" fill="#906656"/>
            <path id="Path_225254" data-name="Path 225254" d="M2177.663,308.516a2.216,2.216,0,0,0-2.443.15c-.145.106.034.356.184.256a1.864,1.864,0,0,1,2.046-.071C2177.646,309.011,2177.866,308.672,2177.663,308.516Z" transform="translate(-2156.445 -291.008)" fill="#1e0000"/>
            <path id="Path_225255" data-name="Path 225255" d="M2117.931,306.491a2.105,2.105,0,0,0-2.323-.115c-.148.084-.006.339.146.261a1.774,1.774,0,0,1,1.942.149C2117.863,306.957,2118.106,306.659,2117.931,306.491Z" transform="translate(-2111.281 -289.396)" fill="#1e0000"/>
            <g id="Group_118234" data-name="Group 118234" transform="translate(2.815 18.459)">
              <path id="Path_225256" data-name="Path 225256" d="M2109.9,314.395c-.406.657-.629,1.659.459,2.135,1.281.56,4.178,1.008,4.531-1.176S2110.924,312.743,2109.9,314.395Z" transform="translate(-2109.568 -313.389)" fill="#fff"/>
              <path id="Path_225257" data-name="Path 225257" d="M2168.423,317.461c-.411.664-1.126,1.666-.048,2.2,1.458.721,5.2,1.2,5.561-1S2169.457,315.792,2168.423,317.461Z" transform="translate(-2153.685 -315.763)" fill="#fff"/>
            </g>
            <g id="Group_118236" data-name="Group 118236" transform="translate(7.049 20.762)">
              <g id="Group_118235" data-name="Group 118235">
                <path id="Path_225258" data-name="Path 225258" d="M2131.808,325.6c-.025-.07-.113-.065-.166-.038a5.487,5.487,0,0,1-1.081.586c-.325.1-2.735.1-2.172-.964.461-.876.885-1.239.767-2.273a.112.112,0,0,0-.009-.027,1.992,1.992,0,0,1-.174,1.056c-.365.679-1.048.827-1.574,1.325-.748.708-.251,1.574.486,2.218a3.3,3.3,0,0,0,.7.376C2129.777,328.306,2132.4,327.2,2131.808,325.6Z" transform="translate(-2127.027 -322.888)" fill="#906656"/>
                <path id="Path_225259" data-name="Path 225259" d="M2135.457,328.484a1.4,1.4,0,0,0-1.12-.455,1.276,1.276,0,0,0-1.1.653.686.686,0,0,0-.02.072.49.49,0,0,0-.139.522c.162.448.983.555,1.376.515a1.554,1.554,0,0,0,.906-.378A.7.7,0,0,0,2135.457,328.484Z" transform="translate(-2131.589 -326.782)" fill="#eecab2"/>
              </g>
            </g>
            <path id="Path_225260" data-name="Path 225260" d="M2116.393,290.155a.593.593,0,0,1,.644.654c-.051.681-.1,1.282-.669,1.178a5.516,5.516,0,0,0-2.677.079c-1.184.34-.953-.654-.979-.916a.653.653,0,0,1,.438-.733A8.218,8.218,0,0,1,2116.393,290.155Z" transform="translate(-2109.13 -277.302)" fill="#1e0000"/>
            <path id="Path_225261" data-name="Path 225261" d="M2175.077,290.955a.768.768,0,0,1,.577,1.035c-.3.82-.578,1.543-1.25,1.212a7.3,7.3,0,0,0-3.379-.856c-1.6,0-.964-1.144-.9-1.476a.834.834,0,0,1,.8-.747A10.862,10.862,0,0,1,2175.077,290.955Z" transform="translate(-2152.49 -277.302)" fill="#1e0000"/>
            <g id="Group_118237" data-name="Group 118237" transform="translate(18.55 19.048)">
              <path id="Path_225262" data-name="Path 225262" d="M2178.435,317.867a2.075,2.075,0,0,1-2.153,1.87,1.882,1.882,0,0,1-1.816-2.05,2.073,2.073,0,0,1,2.152-1.869A1.883,1.883,0,0,1,2178.435,317.867Z" transform="translate(-2174.458 -315.816)" fill="#549094"/>
              <path id="Path_225263" data-name="Path 225263" d="M2178.435,317.867a2.075,2.075,0,0,1-2.153,1.87,1.882,1.882,0,0,1-1.816-2.05,2.073,2.073,0,0,1,2.152-1.869A1.883,1.883,0,0,1,2178.435,317.867Z" transform="translate(-2174.458 -315.816)" fill="#1e0000"/>
              <path id="Path_225264" data-name="Path 225264" d="M2179.411,319.6a1.585,1.585,0,0,1-1.644,1.427,1.436,1.436,0,0,1-1.387-1.564,1.585,1.585,0,0,1,1.643-1.427A1.536,1.536,0,0,1,2179.411,319.6Z" transform="translate(-2175.91 -317.493)" fill="#402417"/>
              <path id="Path_225265" data-name="Path 225265" d="M2180.377,320.256a1.252,1.252,0,0,1-1.3,1.128,1.135,1.135,0,0,1-1.1-1.237,1.251,1.251,0,0,1,1.3-1.126A1.134,1.134,0,0,1,2180.377,320.256Z" transform="translate(-2177.125 -318.243)" fill="#10100e"/>
              <path id="Path_225266" data-name="Path 225266" d="M2177.771,319.777a.7.7,0,0,1-.747.533.546.546,0,0,1-.478-.676.7.7,0,0,1,.744-.533A.548.548,0,0,1,2177.771,319.777Z" transform="translate(-2176.029 -318.302)" fill="#fff"/>
              <path id="Path_225267" data-name="Path 225267" d="M2177.879,325.134a.331.331,0,0,1-.355.253.259.259,0,0,1-.228-.322.332.332,0,0,1,.354-.254A.261.261,0,0,1,2177.879,325.134Z" transform="translate(-2176.603 -322.629)" fill="#fff"/>
            </g>
            <g id="Group_118238" data-name="Group 118238" transform="translate(4.347 18.312)">
              <path id="Path_225268" data-name="Path 225268" d="M2119.419,314.732a1.889,1.889,0,0,1-1.912,1.777,1.75,1.75,0,0,1-1.613-1.948,1.887,1.887,0,0,1,1.912-1.776A1.751,1.751,0,0,1,2119.419,314.732Z" transform="translate(-2115.887 -312.782)" fill="#549094"/>
              <path id="Path_225269" data-name="Path 225269" d="M2119.419,314.732a1.889,1.889,0,0,1-1.912,1.777,1.75,1.75,0,0,1-1.613-1.948,1.887,1.887,0,0,1,1.912-1.776A1.751,1.751,0,0,1,2119.419,314.732Z" transform="translate(-2115.887 -312.782)" fill="#1e0000"/>
              <path id="Path_225270" data-name="Path 225270" d="M2120.286,316.375a1.443,1.443,0,0,1-1.46,1.357,1.336,1.336,0,0,1-1.231-1.487,1.349,1.349,0,1,1,2.691.13Z" transform="translate(-2117.177 -314.377)" fill="#402417"/>
              <path id="Path_225271" data-name="Path 225271" d="M2121.144,317a1.14,1.14,0,0,1-1.152,1.072,1.056,1.056,0,0,1-.973-1.176,1.138,1.138,0,0,1,1.154-1.07A1.054,1.054,0,0,1,2121.144,317Z" transform="translate(-2118.256 -315.089)" fill="#10100e"/>
              <path id="Path_225272" data-name="Path 225272" d="M2118.829,316.547a.628.628,0,0,1-.663.507.516.516,0,0,1-.425-.642.625.625,0,0,1,.661-.507A.517.517,0,0,1,2118.829,316.547Z" transform="translate(-2117.282 -315.145)" fill="#fff"/>
              <path id="Path_225273" data-name="Path 225273" d="M2118.925,321.637a.3.3,0,0,1-.315.241.244.244,0,0,1-.2-.306.3.3,0,0,1,.315-.242A.247.247,0,0,1,2118.925,321.637Z" transform="translate(-2117.792 -319.256)" fill="#fff"/>
            </g>
          </g>
        </g>
      </g>
      <path id="Path_225274" data-name="Path 225274" d="M2142.155,348.641a3.973,3.973,0,0,1-7.914-.088h.006a.664.664,0,0,1,.693-.615l6.529.07a.662.662,0,0,1,.68.633Z" transform="translate(-125.649 -111.141)" fill="#1e0000" fill-rule="evenodd"/>
      <path id="Path_225275" data-name="Path 225275" d="M2146.352,358.921a4.256,4.256,0,0,1-4.573.2,2.478,2.478,0,0,1,2.277-1.307,2.561,2.561,0,0,1,2.3,1.1Z" transform="translate(-131.36 -118.626)" fill="#ba5448" fill-rule="evenodd"/>
      <path id="Path_225276" data-name="Path 225276" d="M2136.749,347.961l6.131.064a1.244,1.244,0,0,1-.686,1.377c-.558.158-5,.006-5.31-.317a2.007,2.007,0,0,1-.135-1.125Z" transform="translate(-127.541 -111.159)" fill="#fff" fill-rule="evenodd"/>
      <path id="Path_225277" data-name="Path 225277" d="M2175.173,336.393a3.681,3.681,0,1,0,3.807-3.55A3.681,3.681,0,0,0,2175.173,336.393Z" transform="translate(-156.654 -99.705)" fill="rgba(0,0,0,0.08)"/>
      <path id="Path_225278" data-name="Path 225278" d="M2101.26,334.253a3.674,3.674,0,0,1-2.167,3.215c-.177-.359-.34-.708-.474-1.048a19.807,19.807,0,0,1-.655-5.951A3.675,3.675,0,0,1,2101.26,334.253Z" transform="translate(-98.169 -97.909)" fill="rgba(0,0,0,0.08)"/>
      <path id="Path_225279" data-name="Path 225279" d="M2110.656,308.446a2.671,2.671,0,0,0-2.28.55c-.318-.2-.616-.457-.627-.73,0,0-.423.515.289,1.068a2.86,2.86,0,0,0-.3.432c-.361-.207-.742-.5-.754-.807,0,0-.514.627.552,1.241-.2.548-.187,1.05.024,1.218a2.944,2.944,0,0,1,2.99-1.879c1.734.191,1.954,1.378,2.407,2.34A3.054,3.054,0,0,0,2110.656,308.446Z" transform="translate(-104.911 -81.089)" fill="#1e0000"/>
      <path id="Path_225280" data-name="Path 225280" d="M2174.1,310.75c-.012.317-.412.614-.781.822a3.275,3.275,0,0,0-.356-.385c.83-.576.376-1.13.376-1.13-.012.315-.406.609-.772.817a3.324,3.324,0,0,0-2.418-.452,3.373,3.373,0,0,0-2.662,3.856c.521-1.084.764-2.423,2.794-2.619,2.288-.221,3.083,1.5,3.526,2.159.308-.236.243-1.065-.216-1.852C2174.6,311.361,2174.1,310.75,2174.1,310.75Z" transform="translate(-150.767 -82.446)" fill="#1e0000"/>
      <g id="Group_118246" data-name="Group 118246" transform="translate(1998.351 223.471)">
        <g id="Group_118242" data-name="Group 118242" transform="translate(14.7 0.498)">
          <path id="Path_225281" data-name="Path 225281" d="M2158.185,306.143c-.065,0-.13,0-.2,0a5.553,5.553,0,1,1,5.743-5.357h0A5.561,5.561,0,0,1,2158.185,306.143Zm0-10.561a5,5,0,1,0,.177,0C2158.3,295.583,2158.239,295.582,2158.181,295.582Z" transform="translate(-2152.63 -295.036)" fill="#1e0000"/>
        </g>
        <g id="Group_118243" data-name="Group 118243" transform="translate(0)">
          <path id="Path_225282" data-name="Path 225282" d="M2097.566,304.091q-.1,0-.2,0a5.553,5.553,0,1,1,5.743-5.356h0a5.552,5.552,0,0,1-5.544,5.36Zm-.008-10.561a5,5,0,1,0,.176,0Z" transform="translate(-2092.008 -292.984)" fill="#1e0000"/>
        </g>
        <g id="Group_118244" data-name="Group 118244" transform="translate(10.619 4.841)">
          <path id="Path_225283" data-name="Path 225283" d="M2140.028,314.216c-2.707-1.481-3.792-.21-3.8-.2l-.422-.346c.055-.068,1.387-1.633,4.487.064Z" transform="translate(-2135.803 -312.95)" fill="#1e0000"/>
        </g>
        <g id="Group_118245" data-name="Group 118245" transform="translate(25.244 4.756)">
          <path id="Path_225284" data-name="Path 225284" d="M2196.39,313.759a.273.273,0,0,1-.021-.545l7.713-.617a.276.276,0,0,1,.294.25.273.273,0,0,1-.25.294l-7.714.617Z" transform="translate(-2196.117 -312.598)" fill="#1e0000"/>
        </g>
      </g>
      <path id="Path_225285" data-name="Path 225285" d="M2227.752,408.512a6.176,6.176,0,0,1,2.709,2.536c2.849,5.234,5.593,20.529,5.669,27.048.074,6.3-8.488,3.992-10.352-1.209-1.466-4.09-2.132-13.033-2.132-13.033S2219.848,410.988,2227.752,408.512Z" transform="translate(-192.685 -157.028)" fill="#eeeeed" fill-rule="evenodd"/>
      <path id="Path_225286" data-name="Path 225286" d="M2236.01,443.983c.072.921.114,1.759.122,2.486.074,6.3-8.488,3.992-10.352-1.209-1.466-4.09-2.132-13.033-2.132-13.033s-2.384-8.076.557-12.662a15.714,15.714,0,0,0,.551,7.711c1.38,3.854,5.417,15.053,5.809,16.487C2230.761,444.48,2233.412,444.321,2236.01,443.983Z" transform="translate(-192.687 -165.401)" fill="#e2e2e1" fill-rule="evenodd"/>
      <g id="Group_118249" data-name="Group 118249" transform="translate(1994.235 201.22)">
        <g id="Group_118248" data-name="Group 118248" transform="translate(0 0)">
          <g id="Group_118247" data-name="Group 118247">
            <path id="Path_225287" data-name="Path 225287" d="M2075.426,222.252c.98-10.146,6.132-18.627,10.04-17.451,4.306-5.763,20.852-4.87,28.417,4.87,6,7.725,3.311,19.81,3.274,27.4-.041,8.374,3.123,19.152-.834,22.063,2.084-2.482,1.08-7.931-.043-13.728-.783,6.622-1.542,13.885.428,16.3-2.5,0-10.318-1.449-11.087-6.282a25.964,25.964,0,0,1,.061-5.005c-1.054,4.62-1.491,7.6-.676,8.925-1.622-1.762-.265-13.138-.265-13.138.288-2.245,2.313-7.431,2.576-9.151.839-5.486,2.292-11.668-1.558-13.965-2.447-1.459-5.3-1.833-7.261-2.382a13.155,13.155,0,0,1-6.913-5.763c.548,4.626,2.373,5.357,5.086,6.25-5.273-.641-10.225-4.546-10.852-7.873-1.607,1.786-4.157,5-4.931,13.357a89.552,89.552,0,0,0-.1,12.131l.249-1.359c.766,3.124,1.894,16.69,4.966,19.7a15.444,15.444,0,0,1-3.951-6.141c.836,5.063,2.024,9.2,3.518,10.8-2.961-.7-7.093-7.173-8-10.512A85.321,85.321,0,0,1,2075.426,222.252Z" transform="translate(-2075.034 -201.22)"/>
            <path id="Path_225288" data-name="Path 225288" d="M2120.713,432.266a2.523,2.523,0,0,1-.439-.357C2120.42,432.036,2120.567,432.156,2120.713,432.266Z" transform="translate(-2109.304 -375.972)"/>
          </g>
          <path id="Path_225289" data-name="Path 225289" d="M2148.521,247.3c.373-1.723,2.555-11.919,3.347-17.909s-.022-11.2-2.771-14.361c0,0,1.761,3.8,1.126,6.644-1.7-.93-6.208-4.131-6.208-4.131a39.774,39.774,0,0,0,4.373,4.175,36.9,36.9,0,0,1-7.072-1.972c-4.426-1.722-11.109-7.867-10.84-11.926.607,1.217,6.091,5.829,9.475,7.128-2.764-2.177-6.849-5.292-9.971-9.665.956,1.017,5.782,3.492,9.886,4.477-2-.649-7.127-3.026-8.438-4.932a21.146,21.146,0,0,1,11.251-.1c-5.913-2.763-11.633-1.7-13.809-.2.908-1.839,5.32-3.635,12.941-1.426,11.012,3.3,15.2,12.208,15.338,19.723s-2.694,19.544-3.439,28.247c-.414,5.393.391,9.4,2.5,10.272-4.181-1.075-4.664-8.823-3.848-13.994-1.724,8.512-2.387,10.41-1.118,12.268C2147.439,257.026,2147.494,252.041,2148.521,247.3Z" transform="translate(-2115.817 -201.867)" fill="#211105"/>
          <path id="Path_225290" data-name="Path 225290" d="M2121.938,232.648c-.919,2.227,1.176,7.551,6.481,9.508a11.863,11.863,0,0,1-3.653-9.957c-1.139-1.617-2.428.749-1.951,2.7C2121.838,233.273,2121.938,232.648,2121.938,232.648Z" transform="translate(-2110.406 -224.281)" fill="#211105"/>
          <path id="Path_225291" data-name="Path 225291" d="M2085.658,221.389c-2.757,2.353-5.763,7.23-6.384,21.163s1.3,26.667,5.846,27.883c0,0-3.279-10.613-2.644-14.749,0,0,2.333,7.256,4.242,9-.326-1.59-4.742-19.567-.251-37.207-.1,0-3.9,7.792-4.092,14.247,0,0,.435-16.169,6.91-19.469-1.463-.742-5.513,3.062-7.351,10.066,1.085-6.495,5-12.942,9.3-11.133C2089.79,219.411,2087.357,220.106,2085.658,221.389Z" transform="translate(-2078.16 -215.535)" fill="#211105"/>
        </g>
      </g>
      <g id="Group_118253" data-name="Group 118253" transform="translate(1994.432 204.096)">
        <g id="Group_118251" data-name="Group 118251" transform="translate(0 11.343)">
          <g id="Group_118250" data-name="Group 118250">
            <path id="Path_225292" data-name="Path 225292" d="M2119.746,265.986c.1,1.748-10.167,2.518-22.458,1.729s-20.168-2.454-20.056-4.2l-.117-3.655c.9.93,8.19,2.265,20.481,3.055s20.708.532,20.82-1.212A7.562,7.562,0,0,1,2119.746,265.986Z" transform="translate(-2076.807 -259.862)" fill="#060000"/>
            <path id="Path_225293" data-name="Path 225293" d="M2096.461,264.98c11.26.723,19.926.509,21.783-.878l-.26-.58c-.751,1.554-9.106,1.879-21.4,1.089s-19.609-2.121-20.74-3.52l.425.7C2078.365,263.358,2085.579,264.281,2096.461,264.98Z" transform="translate(-2075.846 -260.794)" fill="gray"/>
            <path id="Path_225294" data-name="Path 225294" d="M2097.485,272.931c11.26.723,20.889.192,22.326-1.222l-.005-.433c-.734,1.268-9.9,2.076-22.2,1.287s-18.833-2.859-20.217-4.011l.019.577C2079.505,270.7,2086.6,272.232,2097.485,272.931Z" transform="translate(-2077.017 -266.445)" fill="gray"/>
          </g>
        </g>
        <g id="Group_118252" data-name="Group 118252" transform="translate(6.405)">
          <path id="Path_225295" data-name="Path 225295" d="M2117.675,221.291a7.715,7.715,0,1,1-7.205-8.194A7.715,7.715,0,0,1,2117.675,221.291Z" transform="translate(-2102.26 -213.081)" fill="url(#linear-gradient-2)"/>
          <path id="Path_225296" data-name="Path 225296" d="M2119.147,223.863a7.01,7.01,0,1,1-6.547-7.445A7.01,7.01,0,0,1,2119.147,223.863Z" transform="translate(-2104.442 -215.597)" fill="#fff"/>
          <path id="Path_225297" data-name="Path 225297" d="M2136.611,250.652" transform="translate(-2128.282 -241.542)" fill="none" stroke="#d32463" stroke-width="0.43"/>
          <path id="Path_225298" data-name="Path 225298" d="M2132.412,242.182a1.282,1.282,0,1,1-1.2-1.361A1.282,1.282,0,0,1,2132.412,242.182Z" transform="translate(-2123.16 -234.092)" fill="#8393a1"/>
          <path id="Path_225299" data-name="Path 225299" d="M2127.83,236.652a2.367,2.367,0,1,0,2.211,2.514A2.367,2.367,0,0,0,2127.83,236.652Zm-.281,4.374a2.016,2.016,0,1,1,2.142-1.883A2.016,2.016,0,0,1,2127.549,241.026Z" transform="translate(-2119.722 -230.933)" fill="#8393a1"/>
        </g>
      </g>
      <g id="Group_118254" data-name="Group 118254" transform="translate(2018.908 256.299)">
        <path id="Path_225300" data-name="Path 225300" d="M2199.8,428.368a7.834,7.834,0,0,0-7.564,4.714s-1.475-4.714-8.05-4.714c-5.46,0-7.4,3.988-7.4,7.975,0,8.76,9.627,11.716,15.086,17.544,5.583-5.892,15.323-9.258,15.323-17.544C2207.2,432.356,2205.25,428.416,2199.8,428.368Z" transform="translate(-2176.787 -428.367)" fill="#ca1c1d" fill-rule="evenodd"/>
        <path id="Path_225301" data-name="Path 225301" d="M2179.261,452.308a1.262,1.262,0,0,1,.132-.013h3.348l1.769-2.729a.653.653,0,0,1,1.184.211h0l.873,3.851,1.892-8.446a.652.652,0,0,1,1.282.057h0l1.14,8.712.947-3.58a.652.652,0,0,1,1.272.047l.69,3.662.6-1.293a.655.655,0,0,1,.593-.38h3.713a1.375,1.375,0,1,1-.03,1.308H2195.4l-1.281,2.76h0a.653.653,0,0,1-1.234-.154l-.531-2.825-1.056,3.992h0a.652.652,0,0,1-1.277-.081l-1.093-8.349-1.713,7.653a.652.652,0,0,1-1.278.025l-1.172-5.163-1.095,1.689a.651.651,0,0,1-.573.341h-3.246Z" transform="translate(-2178.661 -440.718)" fill="#fafbfb"/>
      </g>
      <path id="Path_225302" data-name="Path 225302" d="M2248.244,502.688a2.88,2.88,0,0,1-1.776-.363,1.936,1.936,0,0,1-.926-1.775c-.04-.684-.054-1.12-.054-1.12a13,13,0,0,0-.938-1.694,18.552,18.552,0,0,1-1.637-1.282c-.214-.271-.141-.859.55-.8a3.7,3.7,0,0,1-.777-.548.936.936,0,0,1-.088-.893c.122-.174,1.127.022,1.127.022s-.719-.513-.821-.783a.953.953,0,0,1,.076-.818,17.957,17.957,0,0,1,3.512.884,4.457,4.457,0,0,1,1.4.627l1,.726a12.762,12.762,0,0,0-1.283-1.726c-.461-.425-1.781-1.49-1.989-1.8a1.214,1.214,0,0,1-.117-.911c.051-.129.218-.284.662-.064s1.716,1.074,2.868,1.778a3.243,3.243,0,0,1,1.621,1.81,21.19,21.19,0,0,1,1.042,3.011c.179.606-.587,2.1-1.135,3.193S2249.4,502.632,2248.244,502.688Z" transform="translate(-207.674 -218.954)" fill="#ffbe9d" fill-rule="evenodd"/>
      <path id="Path_225303" data-name="Path 225303" d="M2248.289,502.688a2.879,2.879,0,0,1-1.775-.363,1.936,1.936,0,0,1-.926-1.775c-.041-.684-.054-1.12-.054-1.12a12.983,12.983,0,0,0-.938-1.694,18.582,18.582,0,0,1-1.637-1.282.527.527,0,0,1-.059-.534,8.463,8.463,0,0,0,1.344.787c1.554.79,2.4,1.666,2.428,2.84.022,1.067,1.49,2.576,3.61,1.28-.478.92-1.062,1.816-1.99,1.861Zm-4.925-7.035c1.051.229,3.865,1.342,3.865,1.342a6.018,6.018,0,0,0-1.293-.817c-.75-.39-2.51-.978-3.355-1.445a.791.791,0,0,0,.15.375,3.689,3.689,0,0,0,.777.548.944.944,0,0,0-.145,0Zm-.534-1.505a4.531,4.531,0,0,1,.94.089s-.718-.513-.821-.783a1.083,1.083,0,0,1-.047-.487c1.907,1.071,4.555,1.73,4.885,2.273.35.577.525.678.346.643a30.794,30.794,0,0,0-4.709-1.665c-.231-.02-.428-.046-.594-.07Zm4.935-.117c.544.387.964.7.964.7l.024.007-.814-.588c-.057-.041-.115-.08-.174-.116Zm1.1.714a.483.483,0,0,0,.289-.121c.22-.185-.192-1.009-1.313-2.058a12.885,12.885,0,0,1-1.886-2.293c-.25-.052-.357.063-.4.162a1.214,1.214,0,0,0,.117.911c.208.312,1.528,1.376,1.989,1.8A11.219,11.219,0,0,1,2248.862,494.744Z" transform="translate(-207.72 -218.953)" fill="#ebaf90" fill-rule="evenodd"/>
    </g>
  </g>
</svg>
