<svg xmlns="http://www.w3.org/2000/svg" xmlns:xlink="http://www.w3.org/1999/xlink" width="105" height="158.274" viewBox="0 0 105 158.274">
  <defs>
    <linearGradient id="linear-gradient" x1="152.668" y1="-54.594" x2="153.72" y2="-54.594" gradientUnits="objectBoundingBox">
      <stop offset="0" stop-color="#040000"/>
      <stop offset="0.319" stop-color="#141010"/>
      <stop offset="0.676" stop-color="#2c2929"/>
      <stop offset="0.829" stop-color="#1b1818"/>
      <stop offset="1" stop-color="#040000"/>
    </linearGradient>
    <linearGradient id="linear-gradient-2" x1="389.031" y1="-131.134" x2="389.323" y2="-131.4" gradientUnits="objectBoundingBox">
      <stop offset="0" stop-color="#002027"/>
      <stop offset="1" stop-color="#070102"/>
    </linearGradient>
    <linearGradient id="linear-gradient-3" x1="-38.519" y1="3.248" x2="-37.518" y2="3.248" xlink:href="#linear-gradient-2"/>
  </defs>
  <g id="wel-dc-l" transform="translate(-139 -538)">
    <rect id="Rectangle_112472" data-name="Rectangle 112472" width="105" height="80" transform="translate(139 538)" fill="#fff" opacity="0"/>
    <g id="Group_118224" data-name="Group 118224" transform="translate(-165.807 357.477)">
      <g id="Group_118191" data-name="Group 118191" transform="translate(356.255 314.806)">
        <g id="Group_118190" data-name="Group 118190" transform="translate(0)">
          <g id="Group_118184" data-name="Group 118184" transform="translate(1.561)">
            <path id="Path_225110" data-name="Path 225110" d="M465.783,733.716l.5,13.327,5.605.225-2.625-14.417Z" transform="translate(-465.783 -732.851)" fill="#232427"/>
          </g>
          <g id="Group_118189" data-name="Group 118189" transform="translate(0 12.14)">
            <path id="Path_225111" data-name="Path 225111" d="M459.387,811.218l-.115-1.981,4.794.01,16.237,2.683s.587.2.064,1.4-7.528,2.519-12.4.72-4.729-2.3-4.729-2.3l-.087.724S460.518,812.167,459.387,811.218Z" transform="translate(-459.27 -803.079)" fill="#221613"/>
            <path id="Path_225112" data-name="Path 225112" d="M459.267,789.688s-.056-5.792.5-5.925,1.74,2.131,3.973,1.4a13.066,13.066,0,0,0,3.447-1.632s4.871,3.73,6.148,4.33,8.934,1.535,7.047,4.663c0,0-1.712,1.73-9.022,1.378S467.374,791.106,459.267,789.688Z" transform="translate(-459.265 -783.53)" fill="#393332"/>
            <path id="Path_225113" data-name="Path 225113" d="M490.1,788.974l-4.872-4.895a3.228,3.228,0,0,1,1.7-.549c.13,0,6.148,4.33,6.148,4.33Z" transform="translate(-479.01 -783.53)" fill="#484140"/>
            <g id="Group_118185" data-name="Group 118185" transform="translate(6.138 0.646)">
              <path id="Path_225114" data-name="Path 225114" d="M485.486,790.638a.3.3,0,1,1-.3-.344A.323.323,0,0,1,485.486,790.638Z" transform="translate(-484.888 -789.32)" fill="#060000"/>
              <path id="Path_225115" data-name="Path 225115" d="M488.261,786.23a4.413,4.413,0,0,0-2.756,1.231c-.058.383.2.25.2.25a4.93,4.93,0,0,1,2.732-1.274C488.513,786.278,488.261,786.23,488.261,786.23Z" transform="translate(-485.351 -786.226)" fill="#221613"/>
            </g>
            <g id="Group_118186" data-name="Group 118186" transform="translate(7.25 1.649)">
              <path id="Path_225116" data-name="Path 225116" d="M490.131,795.157a.3.3,0,1,1-.3-.344A.324.324,0,0,1,490.131,795.157Z" transform="translate(-489.533 -793.76)" fill="#060000"/>
              <path id="Path_225117" data-name="Path 225117" d="M493.1,790.42a5.122,5.122,0,0,0-2.954,1.31c-.058.383.2.25.2.25a5.993,5.993,0,0,1,3.012-1.376C493.436,790.444,493.1,790.42,493.1,790.42Z" transform="translate(-489.995 -790.416)" fill="#221613"/>
            </g>
            <g id="Group_118187" data-name="Group 118187" transform="translate(8.501 2.677)">
              <path id="Path_225118" data-name="Path 225118" d="M495.351,799.535a.3.3,0,1,1-.3-.343A.323.323,0,0,1,495.351,799.535Z" transform="translate(-494.753 -798.118)" fill="#060000"/>
              <path id="Path_225119" data-name="Path 225119" d="M498.511,794.711c-1.392-.083-3.141,1.331-3.141,1.331-.058.383.2.25.2.25a6.43,6.43,0,0,1,3.2-1.4C498.844,794.736,498.511,794.711,498.511,794.711Z" transform="translate(-495.216 -794.707)" fill="#221613"/>
            </g>
            <path id="Path_225120" data-name="Path 225120" d="M475.464,820.425l1.218-.357-1.131-.367Z" transform="translate(-471.584 -811.036)" fill="#51453f"/>
            <g id="Group_118188" data-name="Group 118188" transform="translate(9.668 3.573)">
              <path id="Path_225121" data-name="Path 225121" d="M500.225,803.29a.3.3,0,1,1-.3-.344A.323.323,0,0,1,500.225,803.29Z" transform="translate(-499.627 -801.868)" fill="#060000"/>
              <path id="Path_225122" data-name="Path 225122" d="M503.481,798.45c-1.392-.084-3.239,1.335-3.239,1.335-.058.383.2.249.2.249a6.626,6.626,0,0,1,3.3-1.4C503.815,798.474,503.481,798.45,503.481,798.45Z" transform="translate(-500.089 -798.446)" fill="#221613"/>
            </g>
          </g>
        </g>
      </g>
      <path id="Path_225123" data-name="Path 225123" d="M484.738,575.246c-.905,1.739-4.261.061-7.314-1.983a16.728,16.728,0,0,1-3.211-2.408l-5.136-13.77-.464-2.277-1.637-13.884s6.861-1.873,6.93-1.885,5.677.869,5.677.869l.627,6.146c.116.6.244,1.212.371,1.861.046.22.093.429.139.649C482.8,558.725,486.364,572.124,484.738,575.246Z" transform="translate(-108.874 -270.658)" fill="#1e1e21"/>
      <path id="Path_225124" data-name="Path 225124" d="M431.694,585.195c-1.524,1.738-3.655,1.441-6.307,1.98-1.952.4-2.928.353-4.149-.762a57.609,57.609,0,0,1-2.825-9.143,81.271,81.271,0,0,1-.786-8.278,46.113,46.113,0,0,0-.772-4.971c-.261-2.02-.658-1.555-1.723-7.505s-3.515-19.673-3.547-22.06a3.668,3.668,0,0,1,.5-1.4c1.075-2.069,2.62-6.22,5.763-7.823,3.758-1.935,8.237-.918,8.874,1.151,1.326,4.346.209,14.68-.355,18.781-.543,4.114.334,12.978.637,15.1s.115,2.192.762,7.015c.2,1.518.585,3.379,1.055,5.351.4,1.592.835,3.257,1.294,4.86C430.889,580.221,431.067,583.444,431.694,585.195Z" transform="translate(-66.751 -259.379)" fill="#1e1e21"/>
      <g id="Group_118197" data-name="Group 118197" transform="translate(341.81 316.807)">
        <path id="Path_225125" data-name="Path 225125" d="M401.177,746.835c.962-.507,2.3.332,2.3.332l1.051,9.737,1.356,4.075,3.75,2.342a3.032,3.032,0,0,1-.9,2.873,1.949,1.949,0,0,1-.987.388h0a4.292,4.292,0,0,1-2.291-.216,8.646,8.646,0,0,1-4.871-5.843c-.878-3.642-2.255-10.133-1.3-12.236C399.67,747.447,401.175,746.835,401.177,746.835Z" transform="translate(-398.964 -745.362)" fill="#221613"/>
        <path id="Path_225126" data-name="Path 225126" d="M425.848,746.593a6.917,6.917,0,0,0-3.028,1.782c-1.011,1.226-4.346-.795-4.417-.933a30.854,30.854,0,0,1-.255-3.271c.052-.057,3.621-2.8,4.018-2.964S425.848,746.593,425.848,746.593Z" transform="translate(-413.548 -741.202)" fill="#232427"/>
        <path id="Path_225127" data-name="Path 225127" d="M409.767,746.44c.519.03.525.406.525.406s-1.6,1.3-1.3,2.058a2.088,2.088,0,0,0,1.793,1.183A7.834,7.834,0,0,1,414.2,751.3a2.262,2.262,0,0,1,.89,2.194,19.215,19.215,0,0,1-.66,2.255c-.159.682-.271,1.4-.376,2.092a9.926,9.926,0,0,0-.044,3.076c.287,1.759,1.229,3.249-.469,4.627-1.036.679-2.332.165-3.269-.44-3.058-1.973-3.783-4.716-4.249-8.852-.252-2.23-.849-6.772-.056-8.567C406.356,746.806,409.292,746.412,409.767,746.44Z" transform="translate(-403.988 -745.184)" fill="#393332"/>
        <g id="Group_118196" data-name="Group 118196" transform="translate(7.201 5.683)">
          <path id="Path_225128" data-name="Path 225128" d="M430.531,771.318l2.612-6.393a3.227,3.227,0,0,1,1.167,1.35c.051.12-1.595,7.349-1.595,7.349Z" transform="translate(-430.17 -764.925)" fill="#484140"/>
          <g id="Group_118192" data-name="Group 118192" transform="translate(1.417 0.444)">
            <path id="Path_225129" data-name="Path 225129" d="M435.393,767.362a.3.3,0,1,1,.2-.409A.323.323,0,0,1,435.393,767.362Z" transform="translate(-434.94 -766.78)" fill="#060000"/>
            <path id="Path_225130" data-name="Path 225130" d="M437.948,769.426a4.413,4.413,0,0,0-2.206-2.059c-.375.1-.151.284-.151.284a4.931,4.931,0,0,1,2.238,2.021C438,769.677,437.948,769.426,437.948,769.426Z" transform="translate(-435.384 -767.227)" fill="#221613"/>
          </g>
          <g id="Group_118193" data-name="Group 118193" transform="translate(0.853 1.891)">
            <path id="Path_225131" data-name="Path 225131" d="M433.04,773.4a.3.3,0,1,1,.2-.41A.324.324,0,0,1,433.04,773.4Z" transform="translate(-432.587 -772.818)" fill="#060000"/>
            <path id="Path_225132" data-name="Path 225132" d="M435.745,775.615c-.465-1.315-2.356-2.211-2.356-2.211-.375.1-.151.284-.151.284a5.993,5.993,0,0,1,2.44,2.238C435.852,775.931,435.745,775.615,435.745,775.615Z" transform="translate(-433.031 -773.264)" fill="#221613"/>
          </g>
          <g id="Group_118194" data-name="Group 118194" transform="translate(0.374 3.451)">
            <path id="Path_225133" data-name="Path 225133" d="M431.04,779.913a.3.3,0,1,1,.2-.409A.323.323,0,0,1,431.04,779.913Z" transform="translate(-430.587 -779.331)" fill="#060000"/>
            <path id="Path_225134" data-name="Path 225134" d="M433.836,782.292c-.465-1.315-2.448-2.375-2.448-2.375-.375.1-.151.284-.151.284a6.428,6.428,0,0,1,2.532,2.4C433.942,782.609,433.836,782.292,433.836,782.292Z" transform="translate(-431.03 -779.777)" fill="#221613"/>
          </g>
          <g id="Group_118195" data-name="Group 118195" transform="translate(0 4.876)">
            <path id="Path_225135" data-name="Path 225135" d="M429.479,785.864a.3.3,0,1,1,.2-.409A.323.323,0,0,1,429.479,785.864Z" transform="translate(-429.025 -785.282)" fill="#060000"/>
            <path id="Path_225136" data-name="Path 225136" d="M432.317,788.33c-.465-1.315-2.49-2.463-2.49-2.463-.375.1-.151.284-.151.284a6.627,6.627,0,0,1,2.574,2.49C432.424,788.647,432.317,788.33,432.317,788.33Z" transform="translate(-429.47 -785.727)" fill="#221613"/>
          </g>
        </g>
      </g>
      <path id="Path_225137" data-name="Path 225137" d="M452.518,675.707c-1.17,3.936-13.534,16.382-22.706,21.181-2.471-.5-5.384-4.318-5.312-7.816,0-.568-.185.568,0,0,5.132-3.253,16.479-17.749,17.43-17.813h.012C447.392,670.888,453.528,672.358,452.518,675.707Z" transform="translate(-76.51 -371.163)" fill="#1e1e21"/>
      <path id="Path_225138" data-name="Path 225138" d="M524.816,384.543s3.823.935,5.416,2.4,7.34,11.709,7.34,11.709l-10.192,3.032Z" transform="translate(-152.858 -153.172)" fill="#e2e2e1" fill-rule="evenodd"/>
      <g id="Group_118205" data-name="Group 118205" transform="translate(336.874 216.109)">
        <g id="Group_118202" data-name="Group 118202">
          <g id="Group_118198" data-name="Group 118198" transform="translate(1.834)">
            <path id="Path_225139" data-name="Path 225139" d="M439.91,361.953s-2.034.453-2.034,1.208,5.477,2.527,9.128,2.554,8.058-1.415,8.1-1.881S451.542,361.816,439.91,361.953Z" transform="translate(-425.452 -352.096)" fill="#e4e0df"/>
            <path id="Path_225140" data-name="Path 225140" d="M443.468,320.83l-2.2,13.736s3.652,4.655,9.392,5.02,6.574-1.734,6.574-1.734l-2.8-16.736Z" transform="translate(-428.035 -320.83)" fill="#eaa481"/>
            <path id="Path_225141" data-name="Path 225141" d="M386.124,394.641c-.651-4.381,1.728-15.8,1.728-15.8,4.591-1.834,7.664-2.8,7.664-2.8h0l.8-.317h11.227l3.474,5.09.051.016h0a13.122,13.122,0,0,1,1.345-5.723l4.371,2.874,2.093-1.043,3.67,1.825a53.65,53.65,0,0,1,1.881,12.976c.054,6.754-2.741,16.258-3.5,21.981s-1.778,3.141-1.778,3.141-5.46,2.78-26.611-.689c0,0,3.34,1.2.629-5.1C393.174,411.069,386.775,399.022,386.124,394.641Z" transform="translate(-386.011 -362.103)" fill="#50c1e9"/>
          </g>
          <path id="Path_225142" data-name="Path 225142" d="M478.192,398.9l6.614,29.333-5.095,4.911-5.88-5.606L476.763,399Z" transform="translate(-450.961 -380.2)" fill="#091e42"/>
          <g id="Group_118199" data-name="Group 118199" transform="translate(23.054 13.455)">
            <path id="Path_225143" data-name="Path 225143" d="M477.345,377l-2.748,1.526,2.022,4.259a1.519,1.519,0,0,0,1.5.775,1.412,1.412,0,0,0,1.314-.984l1.045-4.247Z" transform="translate(-474.597 -376.999)" fill="#091e42"/>
          </g>
          <path id="Path_225144" data-name="Path 225144" d="M512.728,384.57l-3.67-1.825s1.452,8.159-.655,14.268c-1.513,4.387-2.133,6.323-2.212,8.223,0,0-1.491,8.507-1.46,9.53.117,3.824.115.033-.124,7.9-.063,2.069.088,27.011.491,28.485.139.509.682,1.725,1.1,1.848,1.729.506,8.178-.368,8.178-.368s-3.666-26.139-3.057-33.106c.356-4.07,4.788-15.151,4.734-21.9A32.837,32.837,0,0,0,512.728,384.57Z" transform="translate(-474.354 -367.914)" fill="#eeeeed"/>
          <path id="Path_225145" data-name="Path 225145" d="M509.476,383.134l1.019.461s1.9,8.285,1.9,9.535l-2.291.833,2.291,1.249s-4.439,10.319-7.338,19.848c-.171.564.31-4.234.66-8.521C506.081,402.027,508.654,395.462,509.476,383.134Z" transform="translate(-474.677 -368.209)" fill="#e2e2e1"/>
          <path id="Path_225146" data-name="Path 225146" d="M434.711,372.4a62.283,62.283,0,0,1,5.443-5.329s-11.437-1.826-10.824-3.129c0,0-.618,0-1.4.9-.538.621-2.245,2.712-2.245,2.712Z" transform="translate(-414.351 -353.612)" fill="#2a8bad"/>
          <path id="Path_225147" data-name="Path 225147" d="M486.07,370.265a7.534,7.534,0,0,1,4.66,4.782s4.138-1.671,4.242-3.405c0,0-1.826-3.162-3.7-3.5C491.269,368.144,490.4,369.074,486.07,370.265Z" transform="translate(-460.268 -356.81)" fill="#2a8bad"/>
          <path id="Path_225148" data-name="Path 225148" d="M389.911,374.425a44.6,44.6,0,0,1-6.081,2.427c-3.93.9-4.2,1.593-4.977,3.726-1.614,4.461,1.074,13.73,2.6,17.437,1.638,3.97,5.112,11.635,4.421,14.45-1.011,4.115-1.983,31.888-1.24,34.4l13.355.432a3.258,3.258,0,0,0,3.448-2.26c.765-3.571,2.194-34.1,2.8-36.653.421-2.857-2.051-13.974-5.59-20.85C395.1,382.964,391.15,377.132,389.911,374.425Z" transform="translate(-378.355 -361.587)" fill="#e2e2e1"/>
          <path id="Path_225149" data-name="Path 225149" d="M410.61,374.425a13.436,13.436,0,0,1-3.719,1.512c-.406.154-.852.329-1.317.516,5.036,3.505,7.605,11.063,10.679,14.165,2.411.7,3.806,1.2,3.806,1.2a12.822,12.822,0,0,0-2.7,1.532c1,2.718,6.215,7.355,7.244,16.494.127-.563.241-1.06.335-1.455.421-2.857-.081-11.681-3.013-18.476C418.3,383.66,412.023,376.7,410.61,374.425Z" transform="translate(-399.054 -361.587)" fill="#eeeeed"/>
          <g id="Group_118200" data-name="Group 118200" transform="translate(21.958 49.24)">
            <path id="Path_225150" data-name="Path 225150" d="M471.881,527.505a.945.945,0,1,1-.715-1.091A.923.923,0,0,1,471.881,527.505Z" transform="translate(-470.02 -526.388)" fill="#35548a" opacity="0.5"/>
          </g>
          <g id="Group_118201" data-name="Group 118201" transform="translate(21.256 54.57)">
            <path id="Path_225151" data-name="Path 225151" d="M468.951,549.754a.945.945,0,1,1-.715-1.091A.923.923,0,0,1,468.951,549.754Z" transform="translate(-467.09 -548.637)" fill="#35548a" opacity="0.5"/>
          </g>
        </g>
        <g id="Group_118203" data-name="Group 118203" transform="translate(28.445 10.533)">
          <path id="Path_225152" data-name="Path 225152" d="M503.4,364.8l.116,1.4a8.119,8.119,0,0,1,3.169,6.422l1.1.145C508.237,370.139,505.526,366.567,503.4,364.8Z" transform="translate(-501.888 -364.802)" fill="#060000"/>
          <path id="Path_225153" data-name="Path 225153" d="M507.573,425.581l.726.016s-.032,8.924-6.979,9.474l.18-.532S507.488,434.122,507.573,425.581Z" transform="translate(-500.31 -411.022)" fill="#7d7d7d"/>
          <path id="Path_225154" data-name="Path 225154" d="M505.912,418.969l-.726-.037s-.618,8.9,6.271,9.957l-.141-.543S505.375,427.493,505.912,418.969Z" transform="translate(-503.239 -405.965)" fill="#7d7d7d"/>
          <path id="Path_225155" data-name="Path 225155" d="M505.529,402.854l.13-2.862c.058-1.315.234-2.97,2.193-2.87,2,.1,1.979,1.741,1.92,3.057l-.129,2.86,1.13.052.2-4.316a3.264,3.264,0,0,0-6.464-.293l-.2,4.317Z" transform="translate(-502.583 -388.374)" fill="#060000"/>
          <path id="Path_225156" data-name="Path 225156" d="M498.917,461.911a.6.6,0,0,1-.474.7l-.631.121a.6.6,0,0,1-.7-.473h0a.6.6,0,0,1,.473-.7l.633-.12a.6.6,0,0,1,.7.472Z" transform="translate(-497.103 -438.281)" fill="#060000"/>
          <path id="Path_225157" data-name="Path 225157" d="M526.612,456.656a.594.594,0,0,1,.775-.327l.6.241a.6.6,0,0,1,.328.777h0a.6.6,0,0,1-.776.328l-.6-.242a.6.6,0,0,1-.327-.776Z" transform="translate(-519.509 -434.37)" fill="#060000"/>
        </g>
        <g id="Group_118204" data-name="Group 118204" transform="translate(11.676 8.559)">
          <path id="Path_225158" data-name="Path 225158" d="M427.336,365.334c-.729,3.853.342,9.2,1.593,12.959l1.095-.327c-1.791-5.014-2.637-13.618.959-19.287a10.344,10.344,0,0,1,.339-2.119C429.247,358.429,427.834,362.7,427.336,365.334Z" transform="translate(-427.099 -356.56)" fill="#060000"/>
          <rect id="Rectangle_112469" data-name="Rectangle 112469" width="1.811" height="1.566" transform="translate(1.529 21.579) rotate(-16.661)" fill="#b9b7b7"/>
          <path id="Path_225159" data-name="Path 225159" d="M434.791,453.245a3.819,3.819,0,1,1-3.644-3.941A3.795,3.795,0,0,1,434.791,453.245Z" transform="translate(-427.143 -427.085)" fill="#b9b7b7"/>
          <path id="Path_225160" data-name="Path 225160" d="M435.092,453.259a3.174,3.174,0,1,1-3.029-3.276A3.154,3.154,0,0,1,435.092,453.259Z" transform="translate(-428.353 -427.602)" fill="#fafafa"/>
          <path id="Path_225161" data-name="Path 225161" d="M437.632,456.53a2.013,2.013,0,1,1-1.92-2.077A2,2,0,0,1,437.632,456.53Z" transform="translate(-432.05 -431.001)" fill="url(#linear-gradient)"/>
          <path id="Path_225162" data-name="Path 225162" d="M437.753,454.81a1.941,1.941,0,1,1-1.853-2A1.929,1.929,0,0,1,437.753,454.81Z" transform="translate(-432.25 -429.75)" fill="#b9b7b7"/>
          <path id="Path_225163" data-name="Path 225163" d="M437.878,454.321a1.71,1.71,0,1,1-1.632-1.765A1.7,1.7,0,0,1,437.878,454.321Z" transform="translate(-432.697 -429.56)" fill="#fafafa"/>
        </g>
      </g>
      <g id="Group_118214" data-name="Group 118214" transform="translate(339.088 187.978)">
        <g id="Group_118213" data-name="Group 118213">
          <g id="Group_118212" data-name="Group 118212">
            <path id="Path_225164" data-name="Path 225164" d="M530.772,268.028c1.051-1.361,1.607-3.608.491-6.485a2.961,2.961,0,0,0-2.735-1.72l-4.18,1.123,1.179,9.254,3.844-1.033A2.961,2.961,0,0,0,530.772,268.028Z" transform="translate(-491.591 -246.293)" fill="#ffbe9d"/>
            <g id="Group_118211" data-name="Group 118211">
              <path id="Path_225165" data-name="Path 225165" d="M389.815,282.248c-1.368-1.042-2.488-3.067-2.156-6.135a2.962,2.962,0,0,1,2.2-2.371h4.328l1.263,9.243h-3.98A2.963,2.963,0,0,1,389.815,282.248Z" transform="translate(-387.6 -256.89)" fill="#ffbe9d"/>
              <path id="Path_225166" data-name="Path 225166" d="M438.977,210.069c1.848,3.591,2.849,19.08,1.422,22.636s-5.308,8.251-9.812,9.167c-6.282,1.278-16.6-4.5-18.675-8.31-1.634-3-5.072-14.378-3.7-20.04s8.147-9.828,16.85-10.118C430.94,203.208,436.688,205.622,438.977,210.069Z" transform="translate(-403.033 -203.393)" fill="#ffbe9d"/>
              <path id="Path_225167" data-name="Path 225167" d="M447.913,271.732c-.785-1.526.361-6.221,3.547-6.608s3,5.345,2.231,6.915A3.513,3.513,0,0,0,447.913,271.732Z" transform="translate(-433.284 -250.323)" opacity="0.12"/>
              <path id="Path_225168" data-name="Path 225168" d="M515.293,270.1c.641-1.5-1.148-6.117-3.039-6.149-3.05-.05-2.9,4.772-2.068,6.208C511.422,268.257,513.588,268.236,515.293,270.1Z" transform="translate(-480.429 -249.443)" opacity="0.12"/>
              <path id="Path_225169" data-name="Path 225169" d="M402.088,288.345c-.248-.167-.441-.139-.537-.476a3.4,3.4,0,0,1-.039-.976,2.127,2.127,0,0,0-.48-1.505c-.38-.446-.96-.763-1.484-.357a1.131,1.131,0,0,0-.221,1.41c.067.127.229.022.21-.1-.078-.434.214-.989.722-.753a1.336,1.336,0,0,1,.584.87c.06.414,0,.844.042,1.261.053.543.549,1.478,1.217,1.02A.234.234,0,0,0,402.088,288.345Z" transform="translate(-396.406 -265.334)" fill="#d89878"/>
              <path id="Path_225170" data-name="Path 225170" d="M455.188,277.438a2.277,2.277,0,0,1,2.509.154c.148.109-.035.366-.189.263a1.914,1.914,0,0,0-2.1-.073C455.205,277.947,454.979,277.6,455.188,277.438Z" transform="translate(-438.935 -259.463)" fill="#1e0000"/>
              <path id="Path_225171" data-name="Path 225171" d="M517.7,275.332a2.162,2.162,0,0,1,2.385-.119c.151.086.006.348-.149.268a1.821,1.821,0,0,0-1.994.153C517.767,275.81,517.518,275.505,517.7,275.332Z" transform="translate(-486.486 -257.782)" fill="#1e0000"/>
              <g id="Group_118206" data-name="Group 118206" transform="translate(13.975 17.805)">
                <path id="Path_225172" data-name="Path 225172" d="M516.568,283.539c.417.674.646,1.7-.471,2.192-1.316.575-4.29,1.035-4.652-1.207S515.518,281.843,516.568,283.539Z" transform="translate(-495.737 -281.361)" fill="#fff"/>
                <path id="Path_225173" data-name="Path 225173" d="M453.136,286.727c.422.682,1.156,1.711.05,2.258-1.5.741-5.344,1.236-5.709-1.031S452.074,285.013,453.136,286.727Z" transform="translate(-447.093 -283.838)" fill="#fff"/>
                <path id="Path_225174" data-name="Path 225174" d="M452.626,284.39a3.463,3.463,0,0,0-2.733-3.959c-3.318-.538-4.452,2.953-3.757,3.487.455-.677,1.271-2.444,3.62-2.217C451.841,281.9,452.091,283.277,452.626,284.39Z" transform="translate(-445.94 -279.74)" fill="#1e0000"/>
                <path id="Path_225175" data-name="Path 225175" d="M510.78,281.3a3.135,3.135,0,0,1,2.366-3.524c2.836-.5,3.773,2.572,3.175,3.051a3.023,3.023,0,0,0-3.07-1.929C511.47,279.1,511.245,280.315,510.78,281.3Z" transform="translate(-495.192 -277.724)" fill="#1e0000"/>
              </g>
              <g id="Group_118208" data-name="Group 118208" transform="translate(25.807 21.316)">
                <g id="Group_118207" data-name="Group 118207">
                  <path id="Path_225176" data-name="Path 225176" d="M495.421,295.167c.026-.072.116-.067.17-.039a5.634,5.634,0,0,0,1.109.6c.334.1,2.808.1,2.231-.99-.473-.9-.909-1.272-.787-2.334a.105.105,0,0,1,.01-.028,2.046,2.046,0,0,0,.179,1.084c.375.7,1.076.849,1.616,1.36.768.727.258,1.616-.5,2.277a3.388,3.388,0,0,1-.723.386C497.506,297.942,494.817,296.808,495.421,295.167Z" transform="translate(-495.334 -292.379)" fill="#d89878"/>
                  <path id="Path_225177" data-name="Path 225177" d="M499.17,298.19a1.441,1.441,0,0,1,1.15-.468,1.312,1.312,0,0,1,1.129.67.726.726,0,0,1,.019.073.5.5,0,0,1,.143.536c-.166.46-1.009.57-1.413.529a1.6,1.6,0,0,1-.93-.388A.722.722,0,0,1,499.17,298.19Z" transform="translate(-498.146 -296.442)" fill="#f3ceb5"/>
                </g>
              </g>
              <path id="Path_225178" data-name="Path 225178" d="M513.165,258.358a.609.609,0,0,0-.661.672c.053.7.106,1.317.687,1.209a5.663,5.663,0,0,1,2.749.081c1.216.349.978-.672,1-.94a.67.67,0,0,0-.449-.752A8.436,8.436,0,0,0,513.165,258.358Z" transform="translate(-482.582 -245.163)" fill="#1e0000"/>
              <path id="Path_225179" data-name="Path 225179" d="M447.5,259.18a.789.789,0,0,0-.592,1.062c.31.842.593,1.584,1.283,1.245a7.489,7.489,0,0,1,3.47-.879c1.644,0,.989-1.175.928-1.515a.856.856,0,0,0-.826-.767A11.158,11.158,0,0,0,447.5,259.18Z" transform="translate(-432.651 -245.163)" fill="#1e0000"/>
              <g id="Group_118209" data-name="Group 118209" transform="translate(14.903 19.555)">
                <path id="Path_225180" data-name="Path 225180" d="M449.82,287.135a2.13,2.13,0,0,0,2.211,1.92,1.932,1.932,0,0,0,1.865-2.1,2.129,2.129,0,0,0-2.21-1.919A1.934,1.934,0,0,0,449.82,287.135Z" transform="translate(-449.813 -285.029)" fill="#55969a"/>
                <path id="Path_225181" data-name="Path 225181" d="M449.82,287.135a2.13,2.13,0,0,0,2.211,1.92,1.932,1.932,0,0,0,1.865-2.1,2.129,2.129,0,0,0-2.21-1.919A1.934,1.934,0,0,0,449.82,287.135Z" transform="translate(-449.813 -285.029)" fill="#1e0000"/>
                <path id="Path_225182" data-name="Path 225182" d="M451.873,288.938a1.628,1.628,0,0,0,1.688,1.466,1.475,1.475,0,0,0,1.424-1.606,1.627,1.627,0,0,0-1.687-1.465A1.576,1.576,0,0,0,451.873,288.938Z" transform="translate(-451.376 -286.779)" fill="#412618"/>
                <path id="Path_225183" data-name="Path 225183" d="M452.939,289.629a1.285,1.285,0,0,0,1.332,1.158,1.165,1.165,0,0,0,1.125-1.27,1.284,1.284,0,0,0-1.334-1.156A1.164,1.164,0,0,0,452.939,289.629Z" transform="translate(-452.187 -287.561)" fill="#111110"/>
                <path id="Path_225184" data-name="Path 225184" d="M459.379,289.137a.72.72,0,0,0,.767.548.561.561,0,0,0,.49-.694.715.715,0,0,0-.764-.548A.562.562,0,0,0,459.379,289.137Z" transform="translate(-457.076 -287.622)" fill="#fff"/>
                <path id="Path_225185" data-name="Path 225185" d="M461.4,294.709a.339.339,0,0,0,.364.26.265.265,0,0,0,.234-.33.341.341,0,0,0-.364-.261A.268.268,0,0,0,461.4,294.709Z" transform="translate(-458.619 -292.137)" fill="#fff"/>
              </g>
              <g id="Group_118210" data-name="Group 118210" transform="translate(29.943 18.8)">
                <path id="Path_225186" data-name="Path 225186" d="M512.606,283.878a1.939,1.939,0,0,0,1.963,1.825,1.8,1.8,0,0,0,1.656-2,1.938,1.938,0,0,0-1.963-1.824A1.8,1.8,0,0,0,512.606,283.878Z" transform="translate(-512.6 -281.876)" fill="#55969a"/>
                <path id="Path_225187" data-name="Path 225187" d="M512.606,283.878a1.939,1.939,0,0,0,1.963,1.825,1.8,1.8,0,0,0,1.656-2,1.938,1.938,0,0,0-1.963-1.824A1.8,1.8,0,0,0,512.606,283.878Z" transform="translate(-512.6 -281.876)" fill="#1e0000"/>
                <path id="Path_225188" data-name="Path 225188" d="M514.429,285.591a1.482,1.482,0,0,0,1.5,1.393,1.372,1.372,0,0,0,1.265-1.527,1.385,1.385,0,1,0-2.763.134Z" transform="translate(-513.988 -283.539)" fill="#412618"/>
                <path id="Path_225189" data-name="Path 225189" d="M515.375,286.248a1.17,1.17,0,0,0,1.183,1.1,1.083,1.083,0,0,0,1-1.207,1.169,1.169,0,0,0-1.185-1.1A1.082,1.082,0,0,0,515.375,286.248Z" transform="translate(-514.707 -284.283)" fill="#111110"/>
                <path id="Path_225190" data-name="Path 225190" d="M521.095,285.781a.644.644,0,0,0,.681.52.53.53,0,0,0,.435-.659.641.641,0,0,0-.679-.521A.531.531,0,0,0,521.095,285.781Z" transform="translate(-519.05 -284.341)" fill="#fff"/>
                <path id="Path_225191" data-name="Path 225191" d="M522.889,291.075a.3.3,0,0,0,.323.247.251.251,0,0,0,.208-.314.306.306,0,0,0-.323-.248A.253.253,0,0,0,522.889,291.075Z" transform="translate(-520.42 -288.631)" fill="#fff"/>
              </g>
            </g>
          </g>
        </g>
        <path id="Path_225192" data-name="Path 225192" d="M478.174,316.592c-1.961.115-4.8-.044-6.18-2.078-.12-.177-.229-.242-.357-.217l0,0s-.007,0-.011,0l-.027.008c-.286.026-.4.386-.376.619.127,1.051,1.582,1.778,2.473,2.123a5.3,5.3,0,0,0,4.589-.3C478.408,316.672,478.251,316.587,478.174,316.592Z" transform="translate(-451.19 -287.726)" fill="#d89878"/>
      </g>
      <path id="Path_225193" data-name="Path 225193" d="M503.019,431.155s-7.977,15.5-8.376,16.628a3.968,3.968,0,0,1-1.357,1.775s-17.933,4.746-20.236,5.1-1.582-1.335-1.582-1.335,7.639-16.8,8.3-18.323a3.3,3.3,0,0,1,2.634-1.67l19.622-3.862S504,429.249,503.019,431.155Z" transform="translate(-112.208 -187.33)" fill="#d7d6d7" fill-rule="evenodd"/>
      <path id="Path_225194" data-name="Path 225194" d="M505.548,434.37s-7.977,15.5-8.376,16.628a3.968,3.968,0,0,1-1.357,1.775s-17.932,4.746-20.236,5.1a3.053,3.053,0,0,1-.893.028,1.535,1.535,0,0,1,.093-.35s7.639-16.8,8.3-18.324a3.3,3.3,0,0,1,2.634-1.67l19.621-3.862a2.065,2.065,0,0,1,.464.012A2.54,2.54,0,0,1,505.548,434.37Z" transform="translate(-114.737 -190.545)" fill="#b0afad" fill-rule="evenodd"/>
      <path id="Path_225195" data-name="Path 225195" d="M491.732,477.217c-.256-1.2-1.278-1.883-2.458-3.47s-.893-1.786-.893-1.786-1.4-.339-1.253,1.454-.079,1.95-.079,1.95l-3.117-.849.494-1.208s-2.217-.018-2.471,1.2.04,1.427.04,1.427a1.461,1.461,0,0,0-.567,1.147,2.659,2.659,0,0,0,.3,1.333,2.232,2.232,0,0,0-.6,1.524c-.065,1.063,2.637,2.192,4.948,2.473a11.162,11.162,0,0,0,4.421-.44Z" transform="translate(-119.637 -219.63)" fill="#ffbe9d" fill-rule="evenodd"/>
      <path id="Path_225196" data-name="Path 225196" d="M518.61,472.977a50.47,50.47,0,0,1-1.732,5.284,1.518,1.518,0,0,0,.119.542c.385.612,20.74,7.147,19.173-2.591a81.338,81.338,0,0,0-2.289-9.07l-3.136,6.2-10.971-.463S518.8,472.787,518.61,472.977Z" transform="translate(-146.822 -215.985)" fill="#e2e2e1" fill-rule="evenodd"/>
      <path id="Path_225197" data-name="Path 225197" d="M344.869,389.707c.592,3.513-.574,6.42-1.386,7.047-1.094.858-1.493,1.865-4.8,4.926s-6.805,3.813-9.163,3.154-3.795-3.661-2.643-4.989c.322-.381.72-1.813,1.326-2.23,2.161-1.471,3.634-1.706,6.653-4.925,3.858-4.112,4.855-6.408,7.064-6.389A4.987,4.987,0,0,1,344.869,389.707Z" transform="translate(-2.029 -154.508)" fill="#eeeeed"/>
      <g id="Group_118221" data-name="Group 118221" transform="translate(323.807 241.907)">
        <g id="Group_118219" data-name="Group 118219" transform="translate(18.175 1.877)">
          <g id="Group_118215" data-name="Group 118215">
            <path id="Path_225198" data-name="Path 225198" d="M412.586,447.251a1.441,1.441,0,0,1-.024.225c-.008.056-.016.129-.032.2a20.536,20.536,0,0,1-.885,3.138.472.472,0,0,1-.346.2.746.746,0,0,1-.233.008.491.491,0,0,1-.467-.434c-.056-.547.145-2.679.169-3.066a9.759,9.759,0,0,0-.692-1.971c-.04-.1-.081-.193-.113-.274-.081-.185-.137-.306-.137-.306h-.008c-.073.032-.588.25-1.247.483l-.008.008a7.636,7.636,0,0,1-2.953.611,1.018,1.018,0,0,1-.29-.113,6.906,6.906,0,0,1-2.615-4.433c-.459-.113-1.392-.137-2.076-.266a2.132,2.132,0,0,1-.676-.225.417.417,0,0,1-.145-.177,2.645,2.645,0,0,1-.1-.467,5.284,5.284,0,0,1,.29-2.2c.314-.965.845-1.762,1.32-1.827a.366.366,0,0,1,.088-.008,20.656,20.656,0,0,1,2.671.378.414.414,0,0,0,.1.016,8.274,8.274,0,0,1,1.561.475c1.022.474,5.6,5.5,5.954,6.566.008.016.016.048.032.089A34.4,34.4,0,0,1,412.586,447.251Z" transform="translate(-399.68 -436.364)" fill="#ffbe9d"/>
            <path id="Path_225199" data-name="Path 225199" d="M413.768,443.887c-.158-.114-.712.262-1.533.967l-1.621.6-.008.008-2.9.378-.346.121a6.906,6.906,0,0,1-2.615-4.433c-.459-.113-1.392-.137-2.076-.266l-.306-.523.99-4.369a.365.365,0,0,1,.088-.008,20.655,20.655,0,0,1,2.671.378.414.414,0,0,0,.1.016,8.273,8.273,0,0,1,1.561.475c1.022.474,5.6,5.5,5.954,6.566C413.744,443.815,413.752,443.847,413.768,443.887Z" transform="translate(-401.723 -436.364)" fill="#ffbe9d"/>
          </g>
          <g id="Group_118216" data-name="Group 118216" transform="translate(7.975 8.312)">
            <path id="Path_225200" data-name="Path 225200" d="M433.628,471.316s.009.054.028.153a23.19,23.19,0,0,1,.411,3.5c-.094.713-1.093,2.515-1.1,3.282a.745.745,0,0,0,.229.594c.018.009.027.027.045.027l.009.009a.627.627,0,0,0,.695,0,19.251,19.251,0,0,0,1.872-3.4.146.146,0,0,0,0-.063c.059-.65-.217-4.121-.217-4.121C435.21,470.9,434.276,471.088,433.628,471.316Z" transform="translate(-432.971 -471.064)" fill="#ffbe9d"/>
          </g>
          <g id="Group_118217" data-name="Group 118217" transform="translate(5.941 8.553)">
            <path id="Path_225201" data-name="Path 225201" d="M425.569,472.521s.3,2.9.247,3.257-1.177,2.379-1.322,2.884a.578.578,0,0,0,.234.569c.243.2.586.281.73.119a27.8,27.8,0,0,0,2.017-3.1.464.464,0,0,0,.045-.108,35.33,35.33,0,0,0-.349-4.063A2.2,2.2,0,0,0,425.569,472.521Z" transform="translate(-424.481 -472.068)" fill="#ffbe9d"/>
          </g>
          <g id="Group_118218" data-name="Group 118218" transform="translate(4.924 8.921)">
            <path id="Path_225202" data-name="Path 225202" d="M422.5,476.843a1.792,1.792,0,0,1-.064.193,16.413,16.413,0,0,1-1.239,2.349.462.462,0,0,1-.612.08.656.656,0,0,1-.354-.555,10.011,10.011,0,0,1,.7-2.261L420.694,474c.008,0,.008-.008.008-.016.113-.056.217-.113.33-.161a1.641,1.641,0,0,1,1.312-.137S422.561,476.513,422.5,476.843Z" transform="translate(-420.235 -473.607)" fill="#ffbe9d"/>
          </g>
        </g>
        <g id="Group_118220" data-name="Group 118220">
          <path id="Path_225203" data-name="Path 225203" d="M344.316,434.942a7.8,7.8,0,0,0,0,1.939c-8.435.241-11.8,2.446-16.6,1.11-3.247-.909-4.213-2.921-3.831-4.852a6.105,6.105,0,0,1,5.691-4.61c4.916-.072,11.622,1.448,17.132,2.124A7.556,7.556,0,0,0,344.316,434.942Z" transform="translate(-323.807 -428.527)" fill="#eeeeed"/>
        </g>
      </g>
      <g id="Group_118223" data-name="Group 118223" transform="translate(340.895 183.122)">
        <path id="Path_225204" data-name="Path 225204" d="M430.47,196.96a13.943,13.943,0,0,0-2.643-6.722c-4.605-6.648-11.742-6.6-14.141-6.9-5.378-.657-11.4.317-11.433.918-.016.281,1.165.564,2.216.765a9.951,9.951,0,0,0-3.064,1.127c-3.132,1.8-4.195,4.868-4.853,6.765-2.418,6.969-1.162,9.688-.381,12.029.465.122,1.663-.56,2.87,2.526a12.774,12.774,0,0,1,1.041,3.643c.6.131,1.527.762,2.125.892-.147-1.976-.219-4.078-.185-6.294.079-5.1,2.891-3.456,3.725-7.4-.3-.995-1.594-5.95-.377-7.007.879-.765,2.466-.892,3.85-.831,6.495.289,9.4,3.641,12.872,3.433.514-.031.916-.866,1.334-1.654a5.324,5.324,0,0,0,.614-2.76c1.032.78,2.544,1.29,3.718,2.547C428.863,193.229,429.8,195.951,430.47,196.96Z" transform="translate(-395.14 -183.122)" fill="#211105"/>
        <g id="Group_118222" data-name="Group 118222" transform="translate(2.693 20.397)">
          <path id="Path_225205" data-name="Path 225205" d="M413.291,279.569l-6.863-.186s.059.14-.043-.637l6.876-1.175Z" transform="translate(-406.384 -275.344)" fill="url(#linear-gradient-2)"/>
          <path id="Path_225206" data-name="Path 225206" d="M433.484,272.661a.121.121,0,0,0,.114.066c.379-.019,1.024.645,1.269.936.271,2.463,2.438,3.715,6.108,3.528a13.039,13.039,0,0,0,1.7-.193c2.994-.345,4.658-1.776,4.948-4.251a6.319,6.319,0,0,1,2.145-.549,3.129,3.129,0,0,1,1.523.267,4.326,4.326,0,0,0,4.694,3.965,9.066,9.066,0,0,0,1.2.012c.082,0,.167-.009.254-.016,3.092-.237,4.755-1.732,4.685-4.211.22-.413.652-1.047.926-1.067a.12.12,0,0,0,.106-.087,3.914,3.914,0,0,0-.022-2.171.121.121,0,0,0-.092-.075,37.908,37.908,0,0,0-6.586-.522q-.152.008-.3.019c-2.3.177-3.828.636-4.539,1.367a17.412,17.412,0,0,1-2.176.24,19.62,19.62,0,0,1-2.316-.018c-.837-.769-2.783-1.081-5.789-.927a50.8,50.8,0,0,0-8.054,1.438.122.122,0,0,0-.085.082A3.359,3.359,0,0,0,433.484,272.661Zm9.1,3.722a12.747,12.747,0,0,1-1.637.185c-1.919.1-5.18-.164-5.462-3.028a7.649,7.649,0,0,1,.045-2.746c.2-.143,1.569-.981,5.846-1.2,4.817-.246,5.589.739,5.62,1.347,0,.055.01.128.018.217C447.12,272.314,447.454,275.827,442.579,276.383Zm14.574-.564a8.826,8.826,0,0,1-1.15-.012c-4.1.009-4.239-3.517-4.286-4.676,0-.089-.007-.162-.011-.217-.047-.608.476-1.674,4.5-1.982q.315-.025.607-.039c3.1-.159,4.2.44,4.382.552a9.113,9.113,0,0,1,.366,2.738C461.671,275.146,458.847,275.733,457.153,275.82Z" transform="translate(-426.71 -268.273)" fill="url(#linear-gradient-3)"/>
        </g>
      </g>
    </g>
  </g>
</svg>
