<svg xmlns="http://www.w3.org/2000/svg" width="48" height="48" viewBox="0 0 48 48">
  <g id="health_Personnel_f" transform="translate(-823 -2071)">
    <rect id="Rectangle_33774" data-name="Rectangle 33774" width="48" height="48" transform="translate(823 2071)" fill="#212529" opacity="0"/>
    <g id="Page-1" transform="translate(829 2076)">
      <g id="health-glyph" transform="translate(1)">
        <g id="doctor-stethoscope-medical-checkup" transform="translate(0)">
          <path id="Union_10" data-name="Union 10" d="M-829.191-2032.154a.809.809,0,0,1-.809-.809v-9.712a8.9,8.9,0,0,1,8.093-8.866v9.814a2.428,2.428,0,0,0-1.619,2.29,2.428,2.428,0,0,0,2.428,2.428,2.428,2.428,0,0,0,2.428-2.428,2.428,2.428,0,0,0-1.619-2.29v-9.85h14.567v6.58a9.212,9.212,0,0,0-3.568,2.332,4.047,4.047,0,0,0-1.288,2.961v3.5a.809.809,0,0,0,.809.809h1.618a.81.81,0,0,0,.81-.809.809.809,0,0,0-.81-.809h-.809v-2.695a2.428,2.428,0,0,1,.773-1.777c1.466-1.365,2.586-2.016,3.255-2h0c.684.014,1.807.671,3.271,2.007a2.43,2.43,0,0,1,.79,1.793v2.675h-.809a.809.809,0,0,0-.809.809.809.809,0,0,0,.809.809h1.618a.81.81,0,0,0,.81-.809v-3.484a4.05,4.05,0,0,0-1.318-2.988,9.646,9.646,0,0,0-3.539-2.306v-6.563a8.9,8.9,0,0,1,8.093,8.866v9.712a.809.809,0,0,1-.809.809Zm15.448-8.57c.452.491.452.491,1.107.37a.826.826,0,0,0,.37-.37l5.426-10.853h-12.33Zm-8.164-21.374a8.9,8.9,0,0,1,8.9-8.9,8.9,8.9,0,0,1,8.9,8.9,8.9,8.9,0,0,1-8.9,8.9A8.9,8.9,0,0,1-821.907-2062.1Z" transform="translate(830 2071)"/>
        </g>
      </g>
    </g>
  </g>
</svg>
