<svg xmlns="http://www.w3.org/2000/svg" width="48" height="48" viewBox="0 0 48 48">
  <g id="health_Personnel" transform="translate(-12 -12)">
    <rect id="Rectangle_32300" data-name="Rectangle 32300" width="48" height="48" transform="translate(12 12)" fill="#212529" opacity="0"/>
    <g id="Page-1" transform="translate(19.533 16.364)">
      <g id="health-outline-highlight" transform="translate(0)">
        <g id="doctor-stethoscope-medical-checkup">
          <path id="Union_6" data-name="Union 6" d="M-829.724-1973.517a.81.81,0,0,1-.809-.81v-9.711a8.9,8.9,0,0,1,8.9-8.9h3.2c.025,0,.051,0,.076,0h9.636q.038,0,.076,0h3.2a8.9,8.9,0,0,1,8.9,8.9v9.711a.81.81,0,0,1-.809.81Zm.809-10.521v8.9h30.754v-8.9a7.285,7.285,0,0,0-6.475-7.239v4.936a9.638,9.638,0,0,1,3.539,2.3,4.052,4.052,0,0,1,1.318,2.988v3.485a.81.81,0,0,1-.81.809h-1.618a.809.809,0,0,1-.81-.809.808.808,0,0,1,.81-.809h.809v-2.676a2.429,2.429,0,0,0-.79-1.792c-1.465-1.338-2.588-1.994-3.272-2.008s-1.79.637-3.258,2a2.426,2.426,0,0,0-.773,1.776v2.7h.809a.808.808,0,0,1,.81.809.809.809,0,0,1-.81.809H-810.3a.809.809,0,0,1-.809-.809v-3.5a4.045,4.045,0,0,1,1.288-2.96,9.181,9.181,0,0,1,3.567-2.332v-4.962h-1.927l-4.632,9.265a.81.81,0,0,1-1.448,0l-4.632-9.265h-1.928v8.231a2.427,2.427,0,0,1,1.619,2.29,2.428,2.428,0,0,1-2.428,2.428,2.428,2.428,0,0,1-2.427-2.428,2.427,2.427,0,0,1,1.619-2.29v-8.187A7.285,7.285,0,0,0-828.914-1984.038Zm6.476,3.237a.809.809,0,0,0,.808.809.809.809,0,0,0,.809-.809.809.809,0,0,0-.809-.81A.809.809,0,0,0-822.439-1980.8Zm8.9-3.428,3.547-7.093h-7.093Zm-8.9-19.232a8.9,8.9,0,0,1,8.9-8.9,8.9,8.9,0,0,1,8.9,8.9,8.9,8.9,0,0,1-8.9,8.9A8.9,8.9,0,0,1-822.44-2003.461Zm1.619,0a7.284,7.284,0,0,0,7.284,7.284,7.284,7.284,0,0,0,7.283-7.284,7.283,7.283,0,0,0-7.283-7.284A7.283,7.283,0,0,0-820.821-2003.461Z" transform="translate(830.533 2012.364)" fill="#212529"/>
        </g>
      </g>
    </g>
  </g>
</svg>
