<svg xmlns="http://www.w3.org/2000/svg" width="48" height="48" viewBox="0 0 48 48">
  <g id="health_Institute" transform="translate(-12 -12)">
    <rect id="Rectangle_32301" data-name="Rectangle 32301" width="48" height="48" transform="translate(12 12)" fill="#212529" opacity="0"/>
    <g id="Page-1" transform="translate(17.386 18.937)">
      <g id="health-outline-highlight" transform="translate(0 0)">
        <g id="hospital-building-clinic-doctor">
          <path id="Union_8" data-name="Union 8" d="M-944.061-1979.328h-27.516a.809.809,0,0,1-.809-.81V-2002.8a.809.809,0,0,1,.809-.81h7.284v-10.52a.809.809,0,0,1,.809-.809h19.423a.809.809,0,0,1,.809.809v10.52h7.284a.81.81,0,0,1,.81.81v22.659a.81.81,0,0,1-.81.81Zm.809-1.619h6.475v-21.041h-6.475Zm-5.665-14.566a.809.809,0,0,1,.809.809v13.757h3.237v-32.371h-17.8v32.371h3.237V-1994.7a.809.809,0,0,1,.809-.809Zm-8.9,14.566h8.094V-1993.9h-8.094Zm-12.948,0h6.475v-21.041h-6.475Zm29.944-1.618a.809.809,0,0,1-.809-.809.809.809,0,0,1,.809-.81h1.618a.81.81,0,0,1,.81.81.81.81,0,0,1-.81.809Zm-27.516,0a.809.809,0,0,1-.809-.809.809.809,0,0,1,.809-.81h1.618a.809.809,0,0,1,.809.81.809.809,0,0,1-.809.809Zm27.516-3.237a.809.809,0,0,1-.809-.809.809.809,0,0,1,.809-.81h1.618a.81.81,0,0,1,.81.81.81.81,0,0,1-.81.809Zm-27.516,0a.809.809,0,0,1-.809-.809.809.809,0,0,1,.809-.81h1.618a.809.809,0,0,1,.809.81.809.809,0,0,1-.809.809Zm27.516-3.237a.809.809,0,0,1-.809-.809.809.809,0,0,1,.809-.809h1.618a.809.809,0,0,1,.81.809.81.81,0,0,1-.81.809Zm-27.516,0a.809.809,0,0,1-.809-.809.809.809,0,0,1,.809-.809h1.618a.809.809,0,0,1,.809.809.809.809,0,0,1-.809.809Zm27.516-3.237a.809.809,0,0,1-.809-.809.809.809,0,0,1,.809-.809h1.618a.809.809,0,0,1,.81.809.809.809,0,0,1-.81.809Zm-27.516,0a.809.809,0,0,1-.809-.809.809.809,0,0,1,.809-.809h1.618a.809.809,0,0,1,.809.809.809.809,0,0,1-.809.809Zm27.516-3.237a.809.809,0,0,1-.809-.809.809.809,0,0,1,.809-.809h1.618a.809.809,0,0,1,.81.809.809.809,0,0,1-.81.809Zm-27.516,0a.809.809,0,0,1-.809-.809.809.809,0,0,1,.809-.809h1.618a.809.809,0,0,1,.809.809.809.809,0,0,1-.809.809Zm12.948-3.236a.81.81,0,0,1-.809-.81v-2.427h-2.428a.81.81,0,0,1-.809-.81v-3.236a.81.81,0,0,1,.809-.81h2.428v-2.427a.809.809,0,0,1,.809-.809h3.237a.808.808,0,0,1,.809.809v2.427h2.428a.809.809,0,0,1,.809.81v3.236a.809.809,0,0,1-.809.81h-2.428v2.427a.809.809,0,0,1-.809.81Zm-2.427-4.856h2.427a.809.809,0,0,1,.809.809v2.428h1.619v-2.428a.809.809,0,0,1,.809-.809h2.428v-1.618h-2.428a.809.809,0,0,1-.809-.809v-2.428h-1.619v2.428a.809.809,0,0,1-.809.809h-2.427Zm16.995,4.855a.809.809,0,0,1-.809-.809.809.809,0,0,1,.809-.809h1.618a.81.81,0,0,1,.81.809.809.809,0,0,1-.81.809Zm-27.516,0a.809.809,0,0,1-.809-.809.809.809,0,0,1,.809-.809h1.618a.809.809,0,0,1,.809.809.809.809,0,0,1-.809.809Z" transform="translate(972.386 2014.937)" fill="#212529"/>
        </g>
      </g>
    </g>
  </g>
</svg>
