<svg xmlns="http://www.w3.org/2000/svg" width="48" height="48" viewBox="0 0 48 48">
  <g id="health_Personnel_h" transform="translate(-12 -12)">
    <rect id="Rectangle_32300" data-name="Rectangle 32300" width="48" height="48" transform="translate(12 12)" fill="#212529" opacity="0"/>
    <g id="Page-1" transform="translate(19.533 16.364)">
      <g id="health-outline-highlight" transform="translate(0)">
        <g id="doctor-stethoscope-medical-checkup">
          <path id="Union_7" data-name="Union 7" d="M-901.724-1973.517a.81.81,0,0,1-.809-.81v-9.711a8.9,8.9,0,0,1,8.9-8.9h3.2c.025,0,.051,0,.076,0h9.636q.038,0,.076,0h3.2a8.9,8.9,0,0,1,8.9,8.9v9.711a.81.81,0,0,1-.809.81Zm.809-10.521v8.9h30.754v-8.9a7.284,7.284,0,0,0-7.284-7.284h-2.737l-4.632,9.265a.81.81,0,0,1-1.448,0l-4.632-9.265h-2.737A7.284,7.284,0,0,0-900.914-1984.038Zm15.377-.191,3.546-7.093h-7.093Zm-8.9-19.232a8.9,8.9,0,0,1,8.9-8.9,8.9,8.9,0,0,1,8.9,8.9,8.9,8.9,0,0,1-8.9,8.9A8.9,8.9,0,0,1-894.44-2003.461Zm1.619,0a7.284,7.284,0,0,0,7.284,7.284,7.284,7.284,0,0,0,7.283-7.284,7.283,7.283,0,0,0-7.283-7.284A7.283,7.283,0,0,0-892.821-2003.461Z" transform="translate(902.533 2012.364)" fill="#212529"/>
          <path id="Union_1" data-name="Union 1" d="M21.851,14.567a.809.809,0,1,1,0-1.618h.809V10.274a2.426,2.426,0,0,0-.79-1.792C20.405,7.144,19.282,6.488,18.6,6.474s-1.79.637-3.258,2a2.428,2.428,0,0,0-.773,1.776v2.7h.809a.809.809,0,1,1,0,1.618H13.758a.809.809,0,0,1-.809-.809v-3.5a4.045,4.045,0,0,1,1.288-2.96A9.191,9.191,0,0,1,17.8,4.962V0h1.619V4.98a9.636,9.636,0,0,1,3.538,2.305,4.048,4.048,0,0,1,1.318,2.988v3.484a.81.81,0,0,1-.81.809ZM0,10.521a2.429,2.429,0,0,1,1.619-2.29V0H3.237V8.231A2.428,2.428,0,1,1,0,10.521Zm1.619,0a.809.809,0,1,0,.809-.81A.809.809,0,0,0,1.619,10.521Z" transform="translate(6.474 21.042)" fill="#50c1e9"/>
        </g>
      </g>
    </g>
  </g>
</svg>
