<svg xmlns="http://www.w3.org/2000/svg" width="48" height="48" viewBox="0 0 48 48">
  <g id="health_Institute_h" transform="translate(-12 -12)">
    <rect id="Rectangle_32301" data-name="Rectangle 32301" width="48" height="48" transform="translate(12 12)" fill="#212529" opacity="0"/>
    <g id="Page-1" transform="translate(17.386 18.937)">
      <g id="health-outline-highlight" transform="translate(0 0)">
        <g id="hospital-building-clinic-doctor">
          <path id="Union_9" data-name="Union 9" d="M-1016.061-1979.328h-27.516a.809.809,0,0,1-.809-.809v-22.66a.809.809,0,0,1,.809-.809h7.284v-10.521a.809.809,0,0,1,.809-.809h19.423a.809.809,0,0,1,.809.809v10.521h7.284a.809.809,0,0,1,.81.809v22.66a.81.81,0,0,1-.81.809Zm.81-1.618h6.474v-21.042h-6.474Zm-27.517,0h6.475v-21.042h-6.475Zm25.9,0v-32.371h-17.8v32.371h3.237V-1994.7a.809.809,0,0,1,.809-.809h9.712a.809.809,0,0,1,.809.809v13.757Zm-4.856,0V-1993.9h-8.093v12.948Zm8.9-1.618a.809.809,0,0,1-.809-.809.809.809,0,0,1,.809-.809h1.619a.809.809,0,0,1,.809.809.809.809,0,0,1-.809.809Zm-27.516,0a.809.809,0,0,1-.809-.809.809.809,0,0,1,.809-.809h1.618a.808.808,0,0,1,.809.809.808.808,0,0,1-.809.809Zm27.516-3.237a.809.809,0,0,1-.809-.809.809.809,0,0,1,.809-.809h1.619a.809.809,0,0,1,.809.809.809.809,0,0,1-.809.809Zm-27.516,0a.809.809,0,0,1-.809-.809.809.809,0,0,1,.809-.809h1.618a.808.808,0,0,1,.809.809.808.808,0,0,1-.809.809Zm27.516-3.237a.809.809,0,0,1-.809-.809.81.81,0,0,1,.809-.809h1.619a.81.81,0,0,1,.809.809.809.809,0,0,1-.809.809Zm-27.516,0a.809.809,0,0,1-.809-.809.809.809,0,0,1,.809-.809h1.618a.809.809,0,0,1,.809.809.808.808,0,0,1-.809.809Zm27.516-3.236a.81.81,0,0,1-.809-.81.81.81,0,0,1,.809-.809h1.619a.81.81,0,0,1,.809.809.81.81,0,0,1-.809.81Zm-27.516,0a.809.809,0,0,1-.809-.81.809.809,0,0,1,.809-.809h1.618a.809.809,0,0,1,.809.809.809.809,0,0,1-.809.81Zm27.516-3.237a.81.81,0,0,1-.809-.809.81.81,0,0,1,.809-.81h1.619a.81.81,0,0,1,.809.81.81.81,0,0,1-.809.809Zm-27.516,0a.809.809,0,0,1-.809-.809.809.809,0,0,1,.809-.81h1.618a.809.809,0,0,1,.809.81.809.809,0,0,1-.809.809Zm27.516-3.237a.81.81,0,0,1-.809-.809.81.81,0,0,1,.809-.81h1.619a.81.81,0,0,1,.809.81.81.81,0,0,1-.809.809Zm-27.516,0a.809.809,0,0,1-.809-.809.809.809,0,0,1,.809-.81h1.618a.809.809,0,0,1,.809.81.809.809,0,0,1-.809.809Z" transform="translate(1044.386 2014.937)" fill="#212529"/>
          <path id="Combined-Shape" d="M16.093,6.237h2.428a.809.809,0,0,1,.809.809v3.237a.809.809,0,0,1-.809.809H16.093v2.428a.809.809,0,0,1-.809.809H12.046a.809.809,0,0,1-.809-.809V11.093H8.809A.809.809,0,0,1,8,10.284V7.046a.809.809,0,0,1,.809-.809h2.428V3.809A.809.809,0,0,1,12.046,3h3.237a.809.809,0,0,1,.809.809Zm1.619,1.619H15.284a.809.809,0,0,1-.809-.809V4.619H12.856V7.046a.809.809,0,0,1-.809.809H9.619V9.474h2.428a.809.809,0,0,1,.809.809v2.428h1.619V10.284a.809.809,0,0,1,.809-.809h2.428Z" transform="translate(4.949 1.856)" fill="#6162c3"/>
        </g>
      </g>
    </g>
  </g>
</svg>
