<svg xmlns="http://www.w3.org/2000/svg" width="86.033" height="86.033" viewBox="0 0 86.033 86.033"><g transform="translate(-1766.401 1563.647)"><rect width="86.033" height="86.033" transform="translate(1766.401 -1563.647)" fill="rgba(33,37,41,0)"/><path d="M1841.137-1532.615h-13.1v-18.92a1.455,1.455,0,0,0-1.455-1.455h-34.929a1.456,1.456,0,0,0-1.455,1.455v18.92h-13.1a1.456,1.456,0,0,0-1.455,1.455v40.745a1.455,1.455,0,0,0,1.455,1.455h14.5c.016,0,.032.005.049.005h8.7c.011,0,.02,0,.03,0h17.464l.03,0h8.7c.017,0,.033,0,.05-.005h14.5a1.454,1.454,0,0,0,1.455-1.455v-40.745A1.455,1.455,0,0,0,1841.137-1532.615Zm-62.58,2.911H1790.2v37.839h-11.642Zm37.838,37.838h-14.553v-23.285H1816.4Zm8.732,0h-5.822v-24.741a1.455,1.455,0,0,0-1.455-1.455h-17.464a1.455,1.455,0,0,0-1.455,1.451v24.745h-5.821v-58.213h32.017Zm14.554,0h-11.642V-1529.7h11.642Z" fill="#212529"/><path d="M1785.833-1526.794h-2.911a1.455,1.455,0,0,0-1.455,1.456,1.455,1.455,0,0,0,1.455,1.455h2.911a1.456,1.456,0,0,0,1.456-1.455A1.456,1.456,0,0,0,1785.833-1526.794Z" fill="#212529"/><path d="M1785.833-1520.972h-2.911a1.455,1.455,0,0,0-1.455,1.456,1.454,1.454,0,0,0,1.455,1.455h2.911a1.455,1.455,0,0,0,1.456-1.455A1.456,1.456,0,0,0,1785.833-1520.972Z" fill="#212529"/><path d="M1785.833-1515.151h-2.911a1.455,1.455,0,0,0-1.455,1.456,1.455,1.455,0,0,0,1.455,1.455h2.911a1.456,1.456,0,0,0,1.456-1.455A1.456,1.456,0,0,0,1785.833-1515.151Z" fill="#212529"/><path d="M1785.833-1509.33h-2.911a1.455,1.455,0,0,0-1.455,1.455,1.455,1.455,0,0,0,1.455,1.456h2.911a1.456,1.456,0,0,0,1.456-1.456A1.456,1.456,0,0,0,1785.833-1509.33Z" fill="#212529"/><path d="M1785.833-1503.508h-2.911a1.455,1.455,0,0,0-1.455,1.456,1.455,1.455,0,0,0,1.455,1.455h2.911a1.456,1.456,0,0,0,1.456-1.455A1.456,1.456,0,0,0,1785.833-1503.508Z" fill="#212529"/><path d="M1785.833-1497.687h-2.911a1.455,1.455,0,0,0-1.455,1.456,1.454,1.454,0,0,0,1.455,1.455h2.911a1.455,1.455,0,0,0,1.456-1.455A1.456,1.456,0,0,0,1785.833-1497.687Z" fill="#212529"/><path d="M1832.4-1523.883h2.911a1.456,1.456,0,0,0,1.456-1.455,1.456,1.456,0,0,0-1.456-1.456H1832.4a1.456,1.456,0,0,0-1.455,1.456A1.456,1.456,0,0,0,1832.4-1523.883Z" fill="#212529"/><path d="M1832.4-1518.061h2.911a1.455,1.455,0,0,0,1.456-1.455,1.456,1.456,0,0,0-1.456-1.456H1832.4a1.456,1.456,0,0,0-1.455,1.456A1.455,1.455,0,0,0,1832.4-1518.061Z" fill="#212529"/><path d="M1832.4-1512.24h2.911a1.456,1.456,0,0,0,1.456-1.455,1.456,1.456,0,0,0-1.456-1.456H1832.4a1.456,1.456,0,0,0-1.455,1.456A1.456,1.456,0,0,0,1832.4-1512.24Z" fill="#212529"/><path d="M1832.4-1506.419h2.911a1.456,1.456,0,0,0,1.456-1.456,1.456,1.456,0,0,0-1.456-1.455H1832.4a1.456,1.456,0,0,0-1.455,1.455A1.456,1.456,0,0,0,1832.4-1506.419Z" fill="#212529"/><path d="M1832.4-1500.6h2.911a1.456,1.456,0,0,0,1.456-1.455,1.456,1.456,0,0,0-1.456-1.456H1832.4a1.456,1.456,0,0,0-1.455,1.456A1.456,1.456,0,0,0,1832.4-1500.6Z" fill="#212529"/><path d="M1832.4-1494.776h2.911a1.455,1.455,0,0,0,1.456-1.455,1.456,1.456,0,0,0-1.456-1.456H1832.4a1.456,1.456,0,0,0-1.455,1.456A1.455,1.455,0,0,0,1832.4-1494.776Z" fill="#212529"/><path d="M1800.386-1529.7h4.367v4.367a1.455,1.455,0,0,0,1.455,1.455h5.823a1.454,1.454,0,0,0,1.453-1.454v-4.366h4.366a1.454,1.454,0,0,0,1.455-1.455v-5.824a1.455,1.455,0,0,0-1.455-1.455h-4.366l0-4.366a1.455,1.455,0,0,0-1.455-1.455h-5.824a1.456,1.456,0,0,0-1.455,1.455v4.366h-4.367a1.456,1.456,0,0,0-1.454,1.456v5.823A1.455,1.455,0,0,0,1800.386-1529.7Zm1.456-5.821h4.366a1.454,1.454,0,0,0,1.455-1.455v-4.366h2.913v4.366a1.455,1.455,0,0,0,1.455,1.455h4.364l0,2.911h-4.37a1.456,1.456,0,0,0-1.453,1.457v4.366h-2.911v-4.368a1.455,1.455,0,0,0-1.455-1.455h-4.366Z" fill="#212529"/></g></svg>