<svg xmlns="http://www.w3.org/2000/svg" width="86" height="86" viewBox="0 0 86 86"><g transform="translate(0.333 0.333)"><g transform="translate(15.516 7.935)"><g transform="translate(0 0)"><path d="M6.977,5.305a16.009,16.009,0,1,0,26.064,0L32.1,8.519q-.271-.057-.544-.111a13.1,13.1,0,1,1-23.085,0q-.273.054-.544.111Z" transform="translate(7.643 10.136)" fill="#212529"/><path d="M52.392,31.009a13.1,13.1,0,0,0-13.1-13.1H16.009a13.1,13.1,0,0,0-13.1,13.1v7.277H52.392ZM16.009,15H39.294A16.009,16.009,0,0,1,55.3,31.009v8.732A1.455,1.455,0,0,1,53.848,41.2H1.455A1.455,1.455,0,0,1,0,39.741V31.009A16.009,16.009,0,0,1,16.009,15Z" transform="translate(0 28.66)" fill="#212529"/><path d="M6.212,6.344,9.833,18.656A58.611,58.611,0,0,1,21.92,17.464a58.611,58.611,0,0,1,12.087,1.192L37.628,6.34a39.235,39.235,0,0,0-15.706-3.43A39.943,39.943,0,0,0,6.212,6.344ZM3.85,4.207A43.424,43.424,0,0,1,21.917,0,42.712,42.712,0,0,1,39.993,4.209a1.455,1.455,0,0,1,.787,1.732L36.414,20.785a1.455,1.455,0,0,1-1.735,1A54.65,54.65,0,0,0,21.92,20.375,54.65,54.65,0,0,0,9.161,21.79a1.455,1.455,0,0,1-1.735-1L3.059,5.941A1.455,1.455,0,0,1,3.85,4.207Z" transform="translate(5.732 0)" fill="#212529"/><path d="M9.807,15.915A1.455,1.455,0,0,0,7.1,17L12.926,31.55a1.455,1.455,0,0,0,2.7,0L21.45,17a1.455,1.455,0,1,0-2.7-1.081L14.277,27.09Z" transform="translate(13.375 28.66)" fill="#212529"/><path d="M9,3.455V9.277a1.455,1.455,0,1,0,2.911,0V3.455A1.455,1.455,0,1,0,9,3.455Z" transform="translate(17.196 3.821)" fill="#212529"/><path d="M9.455,5.911h5.821a1.455,1.455,0,0,0,0-2.911H9.455a1.455,1.455,0,0,0,0,2.911Z" transform="translate(15.285 5.732)" fill="#212529"/></g></g><rect width="86" height="86" transform="translate(-0.333 -0.333)" fill="#212529" opacity="0"/></g></svg>