<?xml version="1.0" encoding="utf-8"?>
<!-- Generator: Adobe Illustrator 27.7.0, SVG Export Plug-In . SVG Version: 6.00 Build 0)  -->
<svg version="1.1" id="Layer_1" xmlns="http://www.w3.org/2000/svg" xmlns:xlink="http://www.w3.org/1999/xlink" x="0px" y="0px"
	 viewBox="0 0 512 512" style="enable-background:new 0 0 512 512;" xml:space="preserve">
<style type="text/css">
	.st0{fill:#FFFFFF;}
</style>
<path class="st0" d="M418.2,88.6h-98.4c-6.6,0-11.9,5.3-11.9,11.9s5.3,11.9,11.9,11.9h98.4c6.6,0,11.9-5.3,11.9-11.9
	C430.2,94,424.8,88.6,418.2,88.6z M319.9,148.1h41.7c6.6,0,11.9-5.3,11.9-11.9s-5.3-11.9-11.9-11.9h-41.7c-6.6,0-11.9,5.3-11.9,11.9
	S313.3,148.1,319.9,148.1z M418.2,210.5h-98.4c-6.6,0-11.9,5.3-11.9,11.9c0,6.6,5.3,11.9,11.9,11.9h98.4c6.6,0,11.9-5.3,11.9-11.9
	C430.2,215.8,424.8,210.5,418.2,210.5z M319.9,270.2h41.7c6.6,0,11.9-5.3,11.9-11.9s-5.3-11.9-11.9-11.9h-41.7
	c-6.6,0-11.9,5.3-11.9,11.9C307.9,264.8,313.3,270.2,319.9,270.2z M430.2,345.6c0-6.6-5.3-11.9-11.9-11.9h-98.4
	c-6.6,0-11.9,5.3-11.9,11.9s5.3,11.9,11.9,11.9h98.4C424.8,357.5,430.2,352.1,430.2,345.6z M319.9,369.4c-6.6,0-11.9,5.3-11.9,11.9
	s5.3,11.9,11.9,11.9h41.7c6.6,0,11.9-5.3,11.9-11.9s-5.3-11.9-11.9-11.9H319.9z M282.7,81.7c-5.5-7.4-13.6-12.2-22.8-13.5
	c-9.1-1.3-18.2,1-25.6,6.6l-31.9,23.9c-2.7-1.2-5.6-2-8.6-2.4c-9.1-1.3-18.2,1-25.7,6.6c-7.4,5.5-12.2,13.6-13.5,22.8
	c-1.3,9.1,1,18.2,6.6,25.6l10.4,13.8c5.5,7.4,13.6,12.2,22.8,13.5c1.6,0.2,3.3,0.3,4.9,0.3c7.4,0,14.6-2.4,20.7-6.9l0.1-0.1
	l55.8-41.9c7.4-5.5,12.2-13.6,13.5-22.8C290.6,98.1,288.3,89,282.7,81.7z M265.6,104.4c-0.5,2.7-2.1,5.1-4.4,6.8l-29.2,22
	l-26.3,19.7l0,0l-0.1,0.1c-0.3,0.2-0.6,0.4-0.9,0.6c-0.1,0-0.1,0.1-0.2,0.1c-0.3,0.1-0.5,0.3-0.8,0.4c0,0,0,0-0.1,0
	c-1.9,0.9-3.9,1.2-6,0.9s-4-1.2-5.6-2.6l0,0c-0.2-0.2-0.4-0.4-0.7-0.6l-0.1-0.1c-0.2-0.3-0.5-0.5-0.7-0.8l-10.1-13.5
	c-1.7-2.2-2.6-5-2.3-7.8c0.3-3,1.8-5.6,4.3-7.5c1.9-1.4,4.2-2.1,6.4-2.1c3.2,0,6.5,1.5,8.6,4.3c2.2,2.9,6.3,3.5,9.2,1.3l13.9-10.4
	l28.1-21.1c1.9-1.4,4.1-2.1,6.4-2.1c0.5,0,1,0,1.5,0.1c2.8,0.4,5.3,1.9,7,4.2C265.5,98.4,266.2,101.4,265.6,104.4z M282.7,207.4
	c-5.5-7.4-13.6-12.2-22.8-13.5c-9.1-1.3-18.2,1-25.6,6.6l-31.9,23.9c-2.7-1.2-5.6-2-8.6-2.4c-9.1-1.3-18.2,1-25.7,6.6
	c-7.4,5.5-12.2,13.6-13.5,22.8c-1.3,9.1,1,18.2,6.6,25.6l10.4,13.8c5.5,7.4,13.6,12.2,22.8,13.5c1.6,0.2,3.3,0.3,4.9,0.3
	c7.4,0,14.6-2.4,20.7-6.9l0.1-0.1l55.8-41.9c7.4-5.5,12.2-13.6,13.5-22.8C290.6,223.9,288.3,214.8,282.7,207.4z M265.6,230.1
	c-0.5,2.7-2.1,5.1-4.4,6.8l-29.2,22l-26.3,19.7l0,0l-0.1,0.1c-0.3,0.2-0.6,0.4-0.9,0.6c-0.1,0-0.1,0.1-0.2,0.1
	c-0.3,0.1-0.5,0.3-0.8,0.4c0,0,0,0-0.1,0c-1.9,0.9-3.9,1.2-6,0.9c-2.1-0.3-4-1.2-5.6-2.6l0,0c-0.2-0.2-0.4-0.4-0.7-0.6l-0.1-0.1
	c-0.2-0.3-0.5-0.5-0.7-0.8l-10.1-13.5c-1.7-2.2-2.6-5-2.3-7.8c0.3-3,1.8-5.6,4.3-7.5c1.9-1.4,4.2-2.1,6.4-2.1c3.2,0,6.5,1.5,8.6,4.3
	c2.2,2.9,6.3,3.5,9.2,1.3l13.9-10.4l28.1-21.1c1.9-1.4,4.1-2.1,6.4-2.1c0.5,0,1,0,1.5,0.1c2.8,0.4,5.3,1.9,7,4.2
	C265.5,224.2,266.2,227.2,265.6,230.1z M260,324.3c-9.1-1.3-18.2,1-25.6,6.6l-31.9,23.9c-2.7-1.2-5.6-2-8.6-2.4
	c-9.1-1.3-18.2,1-25.7,6.6c-7.4,5.5-12.2,13.6-13.5,22.8c-1.3,9.1,1,18.2,6.6,25.6l10.4,13.8c5.5,7.4,13.6,12.2,22.8,13.5
	c1.6,0.2,3.3,0.3,4.9,0.3c7.4,0,14.6-2.4,20.7-6.9l0.1-0.1l55.8-41.9c7.4-5.5,12.2-13.6,13.5-22.8c1.3-9.1-1-18.2-6.6-25.6
	C277.2,330.3,269.1,325.6,260,324.3z M265.6,360.5c-0.5,2.7-2.1,5.1-4.4,6.8l-29.2,22L205.8,409l0,0l-0.1,0.1
	c-0.3,0.2-0.6,0.4-0.9,0.6c-0.1,0-0.1,0.1-0.2,0.1c-0.3,0.1-0.5,0.3-0.8,0.4c0,0,0,0-0.1,0c-1.9,0.9-3.9,1.2-6,0.9
	c-2.1-0.3-4-1.2-5.6-2.6l0,0c-0.2-0.2-0.4-0.4-0.7-0.6l-0.1-0.1c-0.2-0.3-0.5-0.5-0.7-0.8l-10.1-13.5c-1.7-2.2-2.6-5-2.3-7.8
	c0.3-3,1.8-5.6,4.3-7.5c1.9-1.4,4.2-2.1,6.4-2.1c3.2,0,6.5,1.5,8.6,4.3c2.2,2.9,6.3,3.5,9.2,1.3l13.9-10.4l28.1-21.1
	c1.9-1.4,4.1-2.1,6.4-2.1c0.5,0,1,0,1.5,0.1c2.8,0.4,5.3,1.9,7,4.2C265.5,354.5,266.2,357.5,265.6,360.5z M460.7,0H123
	c-10.7,0-19.3,8.7-19.3,19.3v369.5H68.4c-15.3,0-28.6,9.2-34.1,23.5c-5.4,14.3-1.5,30.1,9.9,40.2l61.9,54.8c2.2,2.8,5.6,4.6,9.4,4.6
	h0.3h107.5h237.3c10.7,0,19.3-8.7,19.3-19.3V472c0-6.6-5.3-11.9-11.9-11.9s-11.9,5.3-11.9,11.9v16.2H235.4h-23.9h-83.9v-75.4v-23.9
	v-365h328.6v356.2c0,6.6,5.3,11.9,11.9,11.9s11.9-5.3,11.9-11.9V19.3C480.1,8.7,471.4,0,460.7,0z M103.6,473.2L60,434.6
	c-6-5.3-4.1-11.9-3.4-13.8c0.7-1.9,3.7-8.1,11.7-8.1h35.2L103.6,473.2L103.6,473.2z M418.9,136.2c0-6.6-5.3-11.9-11.9-11.9
	s-11.9,5.3-11.9,11.9s5.3,11.9,11.9,11.9C413.6,148.1,418.9,142.8,418.9,136.2z M456.2,427.8c0,6.6,5.3,11.9,11.9,11.9
	s11.9-5.3,11.9-11.9s-5.3-11.9-11.9-11.9S456.2,421.2,456.2,427.8z"/>
</svg>
