<?xml version="1.0" encoding="utf-8"?>
<!-- Generator: Adobe Illustrator 27.7.0, SVG Export Plug-In . SVG Version: 6.00 Build 0)  -->
<svg version="1.1" id="Layer_1" xmlns="http://www.w3.org/2000/svg" xmlns:xlink="http://www.w3.org/1999/xlink" x="0px" y="0px"
	 viewBox="0 0 512 512" style="enable-background:new 0 0 512 512;" xml:space="preserve">
<style type="text/css">
	.st0{fill:#FFFFFF;}
</style>
<path class="st0" d="M492,215.8h-11.2v-96v-4.1V19.9c0-11-9-20-20-20H80.1c-11,0-20,9-20,20v22.8H49.8c-11,0-20,9-20,20v71.5
	c0,6.6,5.4,12,12,12s12-5.4,12-12V66.7h339.9v35c0,14.4,11.7,26.2,26.2,26.2h36.9v328.8h-6.7V305.9c0-6.6-5.4-12-12-12
	c-6.6,0-12,5.4-12,12v182.2H36c-6.6,0-12-5.4-12-12V248.4h247.8c4.1,0,8-2.1,10.2-5.6l25.9-41.3H426v67c0,6.6,5.4,12,12,12
	c6.6,0,12-5.4,12-12v-71c0-11-9-20-20-20H301.3c-4.1,0-8,2.1-10.2,5.6l-25.9,41.3H53.8v-52.8c0-6.6-5.4-12-12-12s-12,5.4-12,12v52.8
	H20c-11,0-20,9-20,20v231.7c0,19.9,16.2,36,36,36h437.4c21.3,0,38.6-17.3,38.6-38.6V235.8C512,224.8,503,215.8,492,215.8z
	 M419.9,103.9c-1.2,0-2.2-1-2.2-2.2V83.1l21.5,20.8H419.9z M414.1,46.1c-2.3-2.2-5.3-3.4-8.3-3.4l0,0H84.1V23.9h372.7v63.6
	L414.1,46.1z M488,473.5c0,8-6.5,14.6-14.6,14.6h-11.3c-5,0-9.3-3-11.1-7.4h9.8c11,0,20-9,20-20V239.8h7.2V473.5z M90.4,112.8h252.9
	c6.6,0,12-5.4,12-12s-5.4-12-12-12H90.4c-6.6,0-12,5.4-12,12S83.7,112.8,90.4,112.8z M90.4,165.2h152c6.6,0,12-5.4,12-12
	s-5.4-12-12-12h-152c-6.6,0-12,5.4-12,12S83.7,165.2,90.4,165.2z M90.4,201.6h152c6.6,0,12-5.4,12-12s-5.4-12-12-12h-152
	c-6.6,0-12,5.4-12,12S83.7,201.6,90.4,201.6z M204.3,409.8c-6.6,0-12,5.4-12,12s5.4,12,12,12h25.5c6.6,0,12-5.4,12-12v-60.9
	c0-6.6-5.4-12-12-12H94.9c-6.6,0-12,5.4-12,12v60.9c0,6.6,5.4,12,12,12h66.8c6.6,0,12-5.4,12-12s-5.4-12-12-12h-54.8v-36.9h110.9
	v36.9H204.3z"/>
</svg>
