<?xml version="1.0" encoding="utf-8"?>
<!-- Generator: Adobe Illustrator 27.7.0, SVG Export Plug-In . SVG Version: 6.00 Build 0)  -->
<svg version="1.1" id="Layer_1" xmlns="http://www.w3.org/2000/svg" xmlns:xlink="http://www.w3.org/1999/xlink" x="0px" y="0px"
	 viewBox="0 0 512 512" style="enable-background:new 0 0 512 512;" xml:space="preserve">
<style type="text/css">
	.st0{fill:#FFFFFF;}
</style>
<path class="st0" d="M497.5,173.5L339.1,15.1C329.6,5.6,317,0.4,303.6,0.4s-26,5.2-35.5,14.7L14.8,268.4
	c-9.5,9.5-14.7,22.1-14.7,35.5s5.2,26,14.7,35.5l147,147c0.6,0.6,0.2,1.7-0.7,1.7h-11c-6.6,0-12.3,5.2-12.4,11.8
	c-0.1,6.7,5.3,12.2,12,12.2h53.8c1.7,0.2,3.4,0.3,5.1,0.3c1.7,0,3.4-0.1,5.1-0.3h147.9c6.6,0,12.3-5.2,12.4-11.8
	c0.1-6.7-5.3-12.2-12-12.2H256.2c-0.9,0-1.3-1.1-0.7-1.7l241.9-241.9C517,224.9,517,193,497.5,173.5z M480.5,227.5L227.2,480.7
	c-4.1,4.1-9.3,6.6-14.7,7.4H205c-5.4-0.8-10.6-3.2-14.7-7.4l-130-130c-1.2-1.2-1.2-3.1,0-4.2L302.8,104c4.7-4.7,5-12.3,0.4-17.1
	c-4.7-4.9-12.4-4.9-17.1-0.2L43.2,329.5c-1.2,1.2-3.1,1.2-4.2,0l-6.7-6.7c-4.8-4.8-7.8-11.2-8-18c-0.3-7.3,2.5-14.3,7.7-19.4
	L284.7,32.5c4.8-4.8,11.2-7.8,18-8c7.3-0.3,14.3,2.5,19.4,7.7l52.7,52.7c1.2,1.2,1.2,3.1,0,4.2L130.2,333.6c-4.7,4.7-4.7,12.3,0,17
	c2.3,2.3,5.4,3.5,8.5,3.5s6.1-1.2,8.5-3.5L391.7,106c1.2-1.2,3.1-1.2,4.2,0l84.5,84.5C490.7,200.7,490.7,217.3,480.5,227.5z
	 M321,80.6c3.1,0,6.2-1.2,8.5-3.5l3.8-3.8c4.7-4.7,4.7-12.3,0-17s-12.3-4.7-17,0l-3.8,3.8c-4.7,4.7-4.7,12.3,0,17
	C314.9,79.4,317.9,80.6,321,80.6z M105.9,357.8l-3.6,3.6c-4.7,4.7-4.7,12.3,0,17c2.3,2.3,5.4,3.5,8.5,3.5s6.2-1.2,8.5-3.5l3.6-3.6
	c4.7-4.7,4.7-12.3,0-17C118.2,353.1,110.6,353.1,105.9,357.8z M262.9,307.9c-4.7-4.7-12.3-4.7-17,0l-82.6,82.6
	c-4.7,4.7-4.7,12.3,0,17c2.3,2.3,5.4,3.5,8.5,3.5s6.1-1.2,8.5-3.5l82.6-82.6C267.6,320.2,267.6,312.6,262.9,307.9z M226.7,387.2
	L192.9,421c-4.7,4.7-4.7,12.3,0,17c2.3,2.3,5.4,3.5,8.5,3.5s6.1-1.2,8.5-3.5l33.9-33.9c4.7-4.7,4.7-12.3,0-17
	C239,382.5,231.4,382.5,226.7,387.2z M258.5,355.5l-2.6,2.6c-4.7,4.7-4.7,12.3,0,17c2.3,2.3,5.4,3.5,8.5,3.5s6.2-1.2,8.5-3.5
	l2.6-2.6c4.7-4.7,4.7-12.3,0-17S263.2,350.8,258.5,355.5z M409.3,164.2c-2.8-2.8-6.6-4.4-10.6-4.4s-7.7,1.6-10.6,4.4l-40.5,40.5
	c-5.8,5.8-5.8,15.3,0,21.1l26.3,26.3c2.9,2.9,6.7,4.4,10.6,4.4c3.8,0,7.6-1.5,10.6-4.4l40.5-40.5c5.8-5.8,5.8-15.3,0-21.1
	L409.3,164.2z M382.5,226.6l-9.2-9.2c-1.2-1.2-1.2-3.1,0-4.2l23.4-23.4c1.2-1.2,3.1-1.2,4.2,0l9.2,9.2c1.2,1.2,1.2,3.1,0,4.2
	l-23.4,23.4C385.5,227.7,383.6,227.7,382.5,226.6z"/>
</svg>
