<?xml version="1.0" encoding="utf-8"?>
<!-- Generator: Adobe Illustrator 27.7.0, SVG Export Plug-In . SVG Version: 6.00 Build 0)  -->
<svg version="1.1" id="Layer_1" xmlns="http://www.w3.org/2000/svg" xmlns:xlink="http://www.w3.org/1999/xlink" x="0px" y="0px"
	 viewBox="0 0 512 512" style="enable-background:new 0 0 512 512;" xml:space="preserve">
<style type="text/css">
	.st0{fill:#FFFFFF;}
</style>
<path class="st0" d="M177.4,156.7h79.1c6.6,0,12-5.4,12-12s-5.4-12-12-12h-79.1c-6.6,0-12,5.4-12,12S170.8,156.7,177.4,156.7z
	 M337.1,180.1H177.4c-6.6,0-12,5.4-12,12s5.4,12,12,12h159.7c6.6,0,12-5.4,12-12S343.7,180.1,337.1,180.1z M337.1,228.3H177.4
	c-6.6,0-12,5.4-12,12s5.4,12,12,12h159.7c6.6,0,12-5.4,12-12S343.7,228.3,337.1,228.3z M337.1,276.5H177.4c-6.6,0-12,5.4-12,12
	c0,6.6,5.4,12,12,12h159.7c6.6,0,12-5.4,12-12C349.1,281.9,343.7,276.5,337.1,276.5z M256.5,324h-79.1c-6.6,0-12,5.4-12,12
	c0,6.6,5.4,12,12,12h79.1c6.6,0,12-5.4,12-12C268.5,329.4,263.1,324,256.5,324z M454.9,460.2l-29.7-29.7l17.4-17.4
	c3.4-3.4,4.7-8.3,3.5-12.9c-1.2-4.6-4.9-8.2-9.5-9.5l-28.1-7.5V147.4c0-5.2-2.1-10.3-5.8-14l-46.4-46.3c0-0.1,0-0.2,0-0.3V35.6
	c0-19.6-15.9-35.6-35.6-35.6H89C69.4,0,53.4,15.9,53.4,35.6l0,109.2c0,6.6,5.2,12.3,11.8,12.4c6.7,0.1,12.2-5.3,12.2-12V35.6
	C77.4,29.2,82.6,24,89,24h231.8c6.4,0,11.6,5.2,11.6,11.6v27.7l-6.6-6.5c-3.8-3.8-9-5.9-14.3-5.9H141.2c-19.6,0-35.6,15.9-35.6,35.6
	v272.2H89c-6.4,0-11.6-5.2-11.6-11.6V238.6c0-6.6-5.2-12.3-11.8-12.4c-6.7-0.1-12.2,5.3-12.2,12v108.8c0,19.6,15.9,35.6,35.6,35.6
	h16.7v15.9c0,19.6,15.9,35.6,35.6,35.6h180.9l15.1,56.2c1.2,4.6,4.9,8.3,9.5,9.5c1.1,0.3,2.3,0.5,3.5,0.5c3.5,0,7-1.4,9.5-3.9
	l18.6-18.6l30,30c2.9,2.9,6.7,4.3,10.5,4.3c3.8,0,7.6-1.4,10.5-4.3l26.1-26.1c2.9-2.9,4.4-6.8,4.3-10.9
	C459.5,466.7,457.7,463,454.9,460.2z M328.2,93l39.4,39.2h-30.3c-5,0-9-4-9-9V93z M310.2,363.8c-3.4,3.4-4.7,8.3-3.5,12.9l8.9,33.3
	H141.2c-6.4,0-11.6-5.2-11.6-11.6V86.3c0-6.4,5.2-11.6,11.6-11.6h163v48.4c0,18.2,14.8,33,33,33h47.4v220.6l-61.4-16.4
	C318.6,359.1,313.6,360.4,310.2,363.8z M418.6,484.2l-23.5-23.5l-17-17l-17,17l-5.6,5.6l-8.7-32.3l-6.4-24l-4.9-18.4
	c-0.4-1.5,1-2.8,2.4-2.4l46.5,12.5l7.7,2.1l8,2.1l8.3,2.2l4.2,1.1l-4.2,4.2v0.5l-0.3-0.3l-17,17l17,17l23.5,23.5L418.6,484.2z
	 M64.4,201.8c6.6,0,12-5.4,12-12s-5.4-12-12-12c-6.6,0-12,5.4-12,12S57.8,201.8,64.4,201.8z"/>
</svg>
