<?xml version="1.0" encoding="utf-8"?>
<!-- Generator: Adobe Illustrator 27.7.0, SVG Export Plug-In . SVG Version: 6.00 Build 0)  -->
<svg version="1.1" id="レイヤー_1" xmlns="http://www.w3.org/2000/svg" xmlns:xlink="http://www.w3.org/1999/xlink" x="0px"
	 y="0px" viewBox="0 0 300 231.5" style="enable-background:new 0 0 300 231.5;" xml:space="preserve">
<style type="text/css">
	.st0{fill:#FFFFFF;}
	.st1{fill:url(#path6338_00000116217422759885282830000003749455330911652511_);}
	.st2{fill:url(#path6349_00000157302619449670114300000016332182536738219919_);}
	.st3{fill:url(#path6360_00000075135448711879219210000015094711330628713630_);}
	.st4{fill:url(#path6371_00000026856707654353044180000001672907137035040900_);}
	.st5{fill:url(#path6384_00000009551591164047199260000006491014076243324831_);}
</style>
<g id="g6321" transform="translate(-9.4000001,96.810998)">
	<g id="g6323" transform="matrix(1.8215159,0,0,1.8215159,-8.5437653,-109.83667)">
		<path id="path6325" class="st0" d="M174,108.3c0,14-11.4,25.4-25.4,25.4H10.4V33.1c0-14,11.4-25.4,25.4-25.4H174V108.3L174,108.3z
			"/>
		<g id="g6327">
			
				<linearGradient id="path6338_00000168808370089921301980000001670956490972910989_" gradientUnits="userSpaceOnUse" x1="-1.5988" y1="140.5963" x2="38.3455" y2="140.5963" gradientTransform="matrix(2.0492 0 0 -2.0492 123.3596 365.8106)">
				<stop  offset="0" style="stop-color:#007940"/>
				<stop  offset="0.2285" style="stop-color:#00873F"/>
				<stop  offset="0.7433" style="stop-color:#40A737"/>
				<stop  offset="1" style="stop-color:#5CB531"/>
			</linearGradient>
			<path id="path6338" style="fill:url(#path6338_00000168808370089921301980000001670956490972910989_);" d="M129,82.5h10.5
				c0.3,0,1-0.1,1.3-0.1c2-0.4,3.7-2.2,3.7-4.7c0-2.4-1.7-4.2-3.7-4.7c-0.3-0.1-0.9-0.1-1.3-0.1H129V82.5L129,82.5z"/>
			
				<linearGradient id="path6349_00000070109785089833685430000012652594571460897981_" gradientUnits="userSpaceOnUse" x1="-1.5995" y1="143.9878" x2="38.3116" y2="143.9878" gradientTransform="matrix(2.0492 0 0 -2.0492 123.3596 365.8106)">
				<stop  offset="0" style="stop-color:#007940"/>
				<stop  offset="0.2285" style="stop-color:#00873F"/>
				<stop  offset="0.7433" style="stop-color:#40A737"/>
				<stop  offset="1" style="stop-color:#5CB531"/>
			</linearGradient>
			<path id="path6349" style="fill:url(#path6349_00000070109785089833685430000012652594571460897981_);" d="M138.3,16.2
				c-10,0-18.2,8.1-18.2,18.2v18.9h25.7c0.6,0,1.3,0,1.8,0.1c5.8,0.3,10.1,3.3,10.1,8.5c0,4.1-2.9,7.6-8.3,8.3v0.2
				c5.9,0.4,10.4,3.7,10.4,8.8c0,5.5-5,9.1-11.6,9.1H120v37h26.7c10,0,18.2-8.1,18.2-18.2V16.2L138.3,16.2L138.3,16.2z"/>
			
				<linearGradient id="path6360_00000058571134683462248890000006922490414918342024_" gradientUnits="userSpaceOnUse" x1="-1.5994" y1="147.721" x2="38.3466" y2="147.721" gradientTransform="matrix(2.0492 0 0 -2.0492 123.3596 365.8106)">
				<stop  offset="0" style="stop-color:#007940"/>
				<stop  offset="0.2285" style="stop-color:#00873F"/>
				<stop  offset="0.7433" style="stop-color:#40A737"/>
				<stop  offset="1" style="stop-color:#5CB531"/>
			</linearGradient>
			<path id="path6360" style="fill:url(#path6360_00000058571134683462248890000006922490414918342024_);" d="M143.2,63.1
				c0-2.4-1.7-4-3.7-4.3c-0.2,0-0.7-0.1-1-0.1H129v8.8h9.5c0.3,0,0.9,0,1-0.1C141.5,67.1,143.2,65.5,143.2,63.1z"/>
		</g>
		
			<linearGradient id="path6371_00000146460080095795215640000013552815077467798189_" gradientUnits="userSpaceOnUse" x1="-50.6932" y1="144.0122" x2="-10.1305" y2="144.0122" gradientTransform="matrix(2.0492 0 0 -2.0492 123.3596 365.8106)">
			<stop  offset="0" style="stop-color:#1F286F"/>
			<stop  offset="0.4751" style="stop-color:#004E94"/>
			<stop  offset="0.8261" style="stop-color:#0066B1"/>
			<stop  offset="1" style="stop-color:#006FBC"/>
		</linearGradient>
		<path id="path6371" style="fill:url(#path6371_00000146460080095795215640000013552815077467798189_);" d="M37.7,16.2
			c-10,0-18.2,8.1-18.2,18.2v44.9c5.1,2.5,10.4,4.1,15.7,4.1c6.3,0,9.7-3.8,9.7-9V53.2h15.6v21.1c0,8.2-5.1,14.9-22.4,14.9
			c-10.5,0-18.7-2.3-18.7-2.3v38.3h26.7c10,0,18.2-8.1,18.2-18.2V16.2L37.7,16.2z"/>
		
			<linearGradient id="path6384_00000023999474442478866950000001140377578547867038_" gradientUnits="userSpaceOnUse" x1="-26.2629" y1="143.9634" x2="13.1329" y2="143.9634" gradientTransform="matrix(2.0492 0 0 -2.0492 123.3596 365.8106)">
			<stop  offset="0" style="stop-color:#6C2C2F"/>
			<stop  offset="0.1735" style="stop-color:#882730"/>
			<stop  offset="0.5731" style="stop-color:#BE1833"/>
			<stop  offset="0.8585" style="stop-color:#DC0436"/>
			<stop  offset="1" style="stop-color:#E60039"/>
		</linearGradient>
		<path id="path6384" style="fill:url(#path6384_00000023999474442478866950000001140377578547867038_);" d="M88,16.2
			c-10,0-18.2,8.1-18.2,18.2v23.8c4.6-3.9,12.6-6.4,25.5-5.8c6.9,0.3,14.3,2.2,14.3,2.2v7.7c-3.7-1.9-8.1-3.6-13.8-4
			c-9.8-0.7-15.7,4.1-15.7,12.5c0,8.5,5.9,13.3,15.7,12.5c5.7-0.4,10.1-2.2,13.8-4V87c0,0-7.3,1.9-14.3,2.2
			c-12.9,0.6-20.9-1.9-25.5-5.8v42h26.7c10,0,18.2-8.1,18.2-18.2v-91L88,16.2z"/>
	</g>
	<g id="g6386">
	</g>
</g>
</svg>
