<?xml version="1.0" encoding="utf-8"?>
<!-- Generator: Adobe Illustrator 27.7.0, SVG Export Plug-In . SVG Version: 6.00 Build 0)  -->
<svg version="1.1" id="Layer_1" xmlns="http://www.w3.org/2000/svg" xmlns:xlink="http://www.w3.org/1999/xlink" x="0px" y="0px"
	 viewBox="0 0 1000 323.7" style="enable-background:new 0 0 1000 323.7;" xml:space="preserve">
<style type="text/css">
	.st0{fill:#00579F;}
	.st1{fill:#FAA61A;}
</style>
<g id="g4158" transform="matrix(4.4299631,0,0,4.4299631,-81.165783,-105.04783)">
	<polygon id="polygon9" class="st0" points="116.1,95.7 97.9,95.7 109.3,25 127.6,25 	"/>
	<path id="path11" class="st0" d="M182.4,26.7c-3.6-1.4-9.3-3-16.4-3c-18.1,0-30.8,9.6-30.9,23.4c-0.1,10.2,9.1,15.8,16,19.2
		c7.1,3.5,9.5,5.7,9.5,8.8c-0.1,4.7-5.7,6.9-11,6.9c-7.3,0-11.2-1.1-17.2-3.8l-2.4-1.1L127.6,93c4.3,2,12.2,3.7,20.4,3.8
		c19.2,0,31.7-9.5,31.8-24.2c0.1-8.1-4.8-14.2-15.4-19.3c-6.4-3.2-10.3-5.4-10.3-8.7c0.1-3,3.3-6.1,10.5-6.1
		c5.9-0.2,10.3,1.3,13.6,2.7l1.7,0.8L182.4,26.7L182.4,26.7z"/>
	<path id="path13" class="st0" d="M206.7,70.7c1.5-4.1,7.3-19.8,7.3-19.8c-0.1,0.2,1.5-4.1,2.4-6.8l1.3,6.1c0,0,3.5,16.9,4.2,20.5
		C219.1,70.7,210.4,70.7,206.7,70.7L206.7,70.7z M229.3,25h-14.1c-4.4,0-7.7,1.3-9.6,5.9l-27.2,64.9h19.2c0,0,3.2-8.7,3.8-10.6
		c2.1,0,20.8,0,23.5,0c0.5,2.5,2.2,10.6,2.2,10.6h16.9L229.3,25L229.3,25L229.3,25z"/>
	<path id="path15" class="st0" d="M82.6,25L64.7,73.2l-2-9.8C59.4,52.2,49,39.9,37.4,33.8l16.4,61.8h19.3L101.9,25L82.6,25L82.6,25
		L82.6,25z"/>
	<path id="path17" class="st1" d="M48,25H18.6l-0.3,1.4c23,5.9,38.2,20,44.4,37l-6.4-32.5C55.3,26.4,52,25.1,48,25L48,25z"/>
</g>
</svg>
