<?xml version="1.0" encoding="utf-8"?>
<!-- Generator: Adobe Illustrator 27.7.0, SVG Export Plug-In . SVG Version: 6.00 Build 0)  -->
<svg version="1.1" id="Layer_1" xmlns="http://www.w3.org/2000/svg" xmlns:xlink="http://www.w3.org/1999/xlink" x="0px" y="0px"
	 viewBox="0 0 512 512" style="enable-background:new 0 0 512 512;" xml:space="preserve">
<style type="text/css">
	.st0{fill:#FFFFFF;}
</style>
<path class="st0" d="M496.5,131.4L378.3,13.1C369.8,4.7,358.6,0,346.6,0s-23.3,4.7-31.7,13.1l-66.5,66.5c-4.6,4.6-4.6,12.2,0,16.8
	s12.2,4.6,16.8,0l66.5-66.5c4-4,9.3-6.2,14.9-6.2s10.9,2.2,14.9,6.2l118.2,118.2c8.2,8.2,8.2,21.6,0,29.9L286.3,371.5
	c-8.2,8.2-21.6,8.2-29.9,0l-7-7l43.2-43.2c16.1-16.1,16.1-42.4,0-58.6c-16.1-16.1-42.4-16.1-58.6,0l-38.6,38.6
	c-3,0.1-5.9,0.2-8.7,0.5l-48.5-48.5c-4-4-6.2-9.3-6.2-14.9s2.2-10.9,6.2-14.9l65.1-65.1c4.6-4.6,4.6-12.2,0-16.8s-12.2-4.6-16.8,0
	l-65.1,65.1c-8.5,8.5-13.1,19.7-13.1,31.7s4.7,23.3,13.1,31.7l37.6,37.6c-11.9,4.4-22.2,11.1-30.7,20c-22,22.9-25.4,53.9-25.9,66.3
	L5.8,490.6c-4.6,4.6-4.6,12.2,0,16.8c2.3,2.3,5.4,3.5,8.4,3.5s6.1-1.2,8.4-3.5l100.1-100.1c2.4-2.4,3.6-5.6,3.5-9
	c0-0.3-1.3-32.8,19.3-54.3c12.2-12.7,30-19.1,53.1-19.1c0.3,0,0.6,0,0.9,0h0.1c0.6,0,1.2-0.1,1.8-0.2c2.7-0.2,5.4-1.3,7.5-3.4
	l41.9-41.9c6.9-6.9,18.1-6.9,25,0s6.9,18.1,0,25l-67.9,67.9c-4.6,4.6-4.6,12.2,0,16.8c2.3,2.3,5.4,3.5,8.4,3.5s6.1-1.2,8.4-3.5
	l7.9-7.9l7,7c8.7,8.7,20.2,13.1,31.7,13.1s23-4.4,31.7-13.1l40.1-40.1c-6.5,18.7-14,39.7-20.4,57.1c-13.1,35.4-45.5,44.1-46.8,44.4
	c-0.2,0-0.3,0.1-0.5,0.1l-80.7,23.7c-1.9,0.6-3.6,1.6-5.1,3l-15.2,15.2c-4.6,4.6-4.6,12.2,0,16.8c2.3,2.3,5.4,3.5,8.4,3.5
	s6.1-1.2,8.4-3.5l13.1-13.1l77.6-22.7c4.4-1.2,46.1-13.3,63.1-59.2c14.1-38.1,33.1-93.9,36.5-103.7l115-115
	C514,177.3,514,148.8,496.5,131.4z M217.9,185.9l-35.3,35.3c-4.6,4.6-4.6,12.2,0,16.8c2.3,2.3,5.4,3.5,8.4,3.5s6.1-1.2,8.4-3.5
	l35.3-35.3c4.6-4.6,4.6-12.2,0-16.8C230.1,181.2,222.6,181.2,217.9,185.9z M324.5,273c2.3,2.3,5.4,3.5,8.4,3.5s6.1-1.2,8.4-3.5
	l104-104c4.6-4.6,4.6-12.2,0-16.8s-12.2-4.6-16.8,0l-104,104C319.9,260.8,319.9,268.3,324.5,273z M348.7,70.9c-21,0-38,17.1-38,38
	s17.1,38,38,38s38-17.1,38-38S369.7,70.9,348.7,70.9z M348.7,123.2c-7.9,0-14.3-6.4-14.3-14.3s6.4-14.3,14.3-14.3S363,101,363,108.9
	S356.6,123.2,348.7,123.2z M226.9,130.2c6.6,0,11.9-5.3,11.9-11.9s-5.3-11.9-11.9-11.9c-6.6,0-11.9,5.3-11.9,11.9
	C215,124.9,220.3,130.2,226.9,130.2z"/>
</svg>
