<?xml version="1.0" encoding="utf-8"?>
<!-- Generator: Adobe Illustrator 27.7.0, SVG Export Plug-In . SVG Version: 6.00 Build 0)  -->
<svg version="1.1" id="Layer_1" xmlns="http://www.w3.org/2000/svg" xmlns:xlink="http://www.w3.org/1999/xlink" x="0px" y="0px"
	 viewBox="0 0 426 293" style="enable-background:new 0 0 426 293;" xml:space="preserve">
<style type="text/css">
	.st0{fill:#C8C5C9;}
	.st1{fill:#DAD8DB;}
	.st2{fill:#3C434C;}
	.st3{fill:#454D58;}
	.st4{fill:#E3BD57;}
	.st5{fill:#EACC73;}
	.st6{fill:none;stroke:#000000;stroke-miterlimit:10;}
	.st7{fill:#95D6A4;}
	.st8{fill:#B3E59F;}
	.st9{fill:#ECEAEC;}
	.st10{fill:url(#SVGID_1_);}
	.st11{fill:#E2B551;}
	.st12{fill:#FBCB55;}
	.st13{fill:#FBCA55;}
	.st14{fill:#FBCB56;}
	.st15{enable-background:new    ;}
	.st16{fill:#FFFFFF;}
	.st17{fill:#25A3DA;}
	.st18{fill:#E8EDF2;}
	.st19{fill:#D9E7EC;}
	.st20{fill:#FEDF31;}
	.st21{fill:#D8A69D;}
	.st22{fill:#FEE97D;}
	.st23{fill:#AF857F;}
	.st24{fill:#FED2A4;}
	.st25{fill:#D9A79D;}
	.st26{fill:#FFBD86;}
	.st27{fill:#B08680;}
	.st28{fill:#005BAC;}
	.st29{fill:#00A84E;}
	.st30{fill:#7BB6B5;}
</style>
<g>
	<path class="st0" d="M220.6,62.9H205c-0.8,2.9-1.3,5.9-1.7,9h15.1C218.9,68.8,219.6,65.8,220.6,62.9z"/>
	<path class="st1" d="M267.5,29.7h16.8c27.4,0,49.6,22.3,49.6,49.6v64.6h15V79.3c0-35.6-29-64.6-64.6-64.6h-16.8
		c-30,0-55.3,20.5-62.5,48.3h15.7C227.4,43.6,245.9,29.7,267.5,29.7z"/>
	<path class="st1" d="M219.8,71.9h-1.3h-15.1H201c-2.3,0-4.2,1.9-4.2,4.2v6.1h6.1h15h6.1v-6.1C224,73.8,222.1,71.9,219.8,71.9z"/>
	<rect x="163.7" y="242.3" class="st2" width="14.4" height="8.8"/>
	<rect x="242.7" y="242.3" class="st2" width="14.4" height="8.8"/>
	<path class="st3" d="M242.7,254.6c0,2.3-1.9,4.2-4.2,4.2h-56c-2.3,0-4.2-1.9-4.2-4.2v-3.5h-14.4v14.7c0,5.1,4.1,9.2,9.2,9.2h75
		c5.1,0,9.2-4.1,9.2-9.2v-14.7h-14.4V254.6z"/>
	<rect x="178.1" y="242.3" class="st4" width="64.5" height="8.8"/>
	<path class="st5" d="M178.1,254.6c0,2.3,1.9,4.2,4.2,4.2h56c2.3,0,4.2-1.9,4.2-4.2v-3.5h-64.5V254.6z"/>
	<path class="st1" d="M292.5,218.4c-0.7,8.2-7.6,14.7-16.1,14.7H257h-0.9h-13.5h-64.5h-14.4h-19.4c-8.9,0-16.1-7.2-16.1-16.1v9.3
		c0,8.9,7.2,16.1,16.1,16.1h19.4h14.4h64.5H257h19.4c6.2,0,11.5-3.5,14.3-8.6c1.2-2.2,1.9-4.8,1.9-7.5L292.5,218.4
		C292.5,218.3,292.5,218.4,292.5,218.4z"/>
	<polygon class="st0" points="217.9,82.3 202.9,82.3 196.8,82.3 196.8,91.5 202.9,91.5 217.9,91.5 224,91.5 224,82.3 	"/>
	<polygon class="st6" points="217.9,136.1 217.9,136.1 217.8,136.1 	"/>
	<polygon class="st6" points="202.9,136.1 202.9,136.1 202.9,136.1 	"/>
	<path class="st6" d="M228.2,199.7C228.2,199.7,228.2,199.7,228.2,199.7l0-0.4C228.2,199.4,228.2,199.5,228.2,199.7z"/>
	<path class="st7" d="M228.2,199.7c-0.2,2.6-2.4,4.6-5,4.6h-10.1h-15.6c-2.8,0-5-2.2-5-5v8.6c0,2.8,2.2,5,5,5h22.2h3.5
		c2.8,0,5-2.2,5-5L228.2,199.7C228.2,199.7,228.2,199.7,228.2,199.7z"/>
	<path class="st8" d="M218,172.6l-5.7-5.7h-9.4h-5.3c-2.8,0-5,2.2-5,5v27.4c0,2.8,2.2,5,5,5h15.6h10.1c2.6,0,4.8-2,5-4.6
		c0-0.1,0-0.3,0-0.4v-16.5L218,172.6z"/>
	<path class="st9" d="M276.4,91.5H224h-6.1h-15h-6.1h-52.4c-8.9,0-16.1,7.2-16.1,16.1v109.3c0,8.9,7.2,16.1,16.1,16.1h19.4h14.4
		h64.5h13.5h0.9h19.4c8.4,0,15.3-6.4,16.1-14.7c0-0.5,0.1-1,0.1-1.4V107.6C292.5,98.7,285.3,91.5,276.4,91.5z M198.7,141.8l4.1-5.7
		v-0.1h0l5.1-7c1.1-1.6,3.5-1.6,4.6,0l5.1,7h0v0l4.2,5.7c1,1.3,0,3.2-1.6,3.2h-2.5h-15h-2.5C198.7,145,197.8,143.1,198.7,141.8z
		 M228.2,199.3v0.4v8.2c0,2.8-2.2,5-5,5h-3.5h-22.2c-2.8,0-5-2.2-5-5v-8.6v-27.4c0-2.8,2.2-5,5-5h5.3h9.4l5.7,5.7l10.2,10.2V199.3z"
		/>
	<polygon class="st0" points="348.9,167.3 333.9,167.3 327.9,167.3 327.9,177.2 333.3,177.2 348.5,177.2 355.1,177.2 355.1,167.3 	
		"/>
	<path class="st1" d="M325.7,270.7c0,2.3,1.9,4.2,4.2,4.2H353c2.3,0,4.2-1.9,4.2-4.2v-21.5h-31.6V270.7z"/>
	<path class="st9" d="M360,177.2h-4.9h-6.7h-15.1h-5.5h-4.9c-2.3,0-4.2,1.9-4.2,4.2v23.7v18.9v7.1h45.6v-49.7
		C364.3,179.1,362.4,177.2,360,177.2z"/>
	<path class="st4" d="M222,141.8l-4.2-5.7l0,0h-14.9l0,0.1l-4.1,5.7c-1,1.3,0,3.2,1.6,3.2h2.5h15h2.5C222,145,223,143.1,222,141.8z"
		/>
	<path class="st5" d="M208.1,129l-5.1,7h14.9l-5.1-7C211.6,127.4,209.2,127.4,208.1,129z"/>
	<rect x="333.9" y="143.9" class="st0" width="15" height="9.2"/>
	<path class="st1" d="M350.9,153.1h-1.9h-15h-1.8c-2.3,0-4.2,1.9-4.2,4.2v10h6.1h15h6.2v-10C355.1,155,353.2,153.1,350.9,153.1z"/>
	<rect x="325.7" y="239.9" class="st0" width="31.6" height="9.3"/>
	<path class="st1" d="M318.7,231.1v4.5c0,2.3,1.9,4.2,4.2,4.2h2.8h31.6h2.8c2.3,0,4.2-1.9,4.2-4.2v-4.5H318.7z"/>
</g>
<g>
	
		<linearGradient id="SVGID_1_" gradientUnits="userSpaceOnUse" x1="164.7222" y1="153.1658" x2="164.7222" y2="18.08" gradientTransform="matrix(1 0 0 -1 0 292.7244)">
		<stop  offset="0" style="stop-color:#90D4D3"/>
		<stop  offset="1" style="stop-color:#CBE5BD"/>
	</linearGradient>
	<path class="st10" d="M253.7,275.5h-178c-8.1,0-14.7-6.6-14.7-14.7V154.3c0-8.1,6.6-14.7,14.7-14.7h178c8.1,0,14.7,6.6,14.7,14.7
		v106.5C268.4,268.9,261.8,275.5,253.7,275.5z"/>
	<g>
		<path class="st11" d="M77.7,216.6c0-2.3-0.1-4.6,0.1-7c2.6-0.2,5-0.1,7.3-0.2c3.1,0,3.1,0,3.1-3c0-5,0-10,0-15
			c2.3,0,4.5,0,6.9,0.2c0.2,4.5,0.2,8.9,0.2,13.2c0,5.1-0.6,4.5,4.6,4.6c1.9,0,2.6-0.5,2.6-2.5c-0.1-5.1,0-10.3,0-15.4
			c2.3,0,4.5,0,6.9,0.2c0.2,5.2,0.3,10.2,0.2,15.2c0,1.8,0.6,2.7,2.5,2.6c2.8-0.1,5.5,0,8.3,0c0,2.3,0,4.5-0.2,6.9
			c-7.7,0.2-15.1,0.3-22.5,0.2c-1.8,0-2.5,0.6-2.4,2.4c0.1,2.7,0,5.4,0,8.1c-2.3,0-4.6,0.1-7-0.1c-0.2-3-0.2-5.7-0.1-8.4
			c0-1.4-0.5-2-2-2C83.4,216.7,80.6,216.6,77.7,216.6z"/>
		<path class="st12" d="M95.5,227.2c-0.2-2.7-0.1-5.4-0.2-8.2c-0.1-1.8,0.6-2.5,2.4-2.4c7.4,0.1,14.8,0,22.5,0
			c0.2,0.3,0.3,0.5,0.3,0.8c0.6,6.9-2.9,10.2-9.5,9.8C105.9,227,100.8,227.2,95.5,227.2z"/>
		<path class="st12" d="M120.4,209.3c-2.8,0.2-5.6,0.1-8.3,0.2c-1.9,0.1-2.6-0.8-2.5-2.6c0.1-5,0-10,0-15.1c7.4-1,11.5,1.6,10.9,10
			C120.3,204.2,120.4,206.7,120.4,209.3z"/>
		<path class="st12" d="M88.1,191.6c0.2,5,0.2,10,0.2,15c0,2.9,0,2.9-3.1,3c-2.3,0-4.7,0-7.3,0c-0.2-3.5-0.3-6.9-0.3-10.4
			c0-4.8,2.9-7.6,7.7-7.6C86.2,191.5,87,191.5,88.1,191.6z"/>
		<path class="st13" d="M102.3,191.6c0.2,5.2,0.1,10.3,0.3,15.5c0,2-0.7,2.6-2.6,2.5c-5.2-0.1-4.6,0.5-4.6-4.6c0-4.3,0-8.6,0-13.1
			C97.6,191.6,99.8,191.6,102.3,191.6z"/>
		<path class="st14" d="M77.7,216.8c2.9-0.2,5.7-0.2,8.6-0.2c1.4,0,2,0.6,2,2c0,2.7,0,5.4,0,8.3C80.8,228,77,225,77.7,216.8z"/>
	</g>
	<g class="st15">
		<path class="st16" d="M128.4,155.6c0.5,0,0.9,0.2,1.3,0.6c1.7,1.4,3.2,2.4,4.5,3.2c1.1,0.6,2.3,1.2,3.8,1.8
			c0.3,0.1,0.5,0.4,0.5,0.6c0,0.6-0.4,0.9-1,1c-0.1,0-0.4,0-0.7-0.2c-1.3-0.5-2.6-1.2-3.8-2c-1.5-0.9-2.9-1.9-4.2-3.1
			c-0.1-0.1-0.2-0.1-0.3-0.2c0,0.1,0,0.1-0.1,0.2c-0.9,0.9-1.7,1.7-2.4,2.1c-0.8,0.6-1.6,1.1-2.5,1.6c-1,0.5-2.2,1-3.6,1.5
			c-0.2,0.1-0.4,0.1-0.6,0.1c-0.2,0-0.4-0.1-0.5-0.3s-0.2-0.4-0.2-0.7c0-0.4,0.2-0.6,0.6-0.7c1.3-0.4,2.4-0.9,3.4-1.4
			c0.9-0.4,1.7-0.9,2.4-1.4c0.4-0.3,0.9-0.7,1.5-1.1h-1.7c-0.5,0-0.8-0.3-0.8-0.8c0-0.5,0.3-0.8,0.8-0.8H128.4z M136.8,163.6
			c0,0.5-0.3,0.8-0.8,0.8h-6.5v2.9h5.8c0.5,0,0.8,0.3,0.8,0.8c0,0.5-0.3,0.8-0.8,0.8h-5.8v3.3h7.5c0.5,0,0.8,0.3,0.8,0.8
			c0,0.6-0.3,0.9-0.8,0.9h-16.7c-0.5,0-0.8-0.3-0.8-0.9c0-0.5,0.3-0.8,0.8-0.8h7.5v-3.3h-5.9c-0.5,0-0.8-0.3-0.8-0.8
			c0-0.5,0.3-0.8,0.8-0.8h5.9v-2.9h-6.5c-0.5,0-0.8-0.3-0.8-0.8c0-0.5,0.3-0.8,0.8-0.8H136C136.6,162.7,136.8,163,136.8,163.6z"/>
		<path class="st16" d="M157.6,155.8c1.2,0,1.9,0.6,1.9,1.7v2.8c0,1.2-0.6,1.8-1.9,1.8h-4.9c0.1,1.1,0.2,2,0.4,2.8h6
			c0.5,0,0.8,0.3,0.8,0.8s-0.3,0.8-0.8,0.8h-5.5c0.4,1.2,0.9,2.2,1.6,3.1c0.5,0.8,1.3,1.6,2.3,2.2c0.6,0.4,1,0.6,1.2,0.6
			s0.4-0.1,0.5-0.3c0.1-0.2,0.3-0.9,0.4-2.1c0-0.5,0.3-0.7,0.8-0.8c0.6,0,0.9,0.4,0.9,1c0,0.5-0.1,1.1-0.2,1.9
			c-0.2,0.9-0.5,1.5-0.9,1.8c-0.3,0.2-0.7,0.4-1.2,0.4c-0.5,0-1.2-0.2-2-0.6c-1.2-0.8-2.1-1.6-2.8-2.5c-0.7-0.9-1.3-1.9-1.7-3
			c-0.2-0.5-0.4-1-0.6-1.7h-6.7v5.3c0.4-0.1,0.8-0.2,1.2-0.3c1.6-0.4,3-0.8,4.2-1.2c0.1,0,0.3-0.1,0.4-0.1c0.5,0,0.8,0.3,0.8,0.7
			c0,0.5-0.2,0.8-0.6,0.9c-1,0.5-2.4,0.9-4.1,1.3c-1.3,0.3-2.8,0.6-4.7,0.9c-0.5,0-0.7-0.4-0.7-0.9c0-0.6,0.2-0.9,0.7-1
			c0.3,0,0.7-0.1,1-0.1v-14.7c0-1.1,0.6-1.7,1.8-1.7H157.6z M157.1,160.5c0.4,0,0.6-0.2,0.6-0.7V158c0-0.4-0.2-0.6-0.6-0.6h-11.4
			c-0.4,0-0.6,0.2-0.6,0.6v2.5H157.1z M151.3,164.4c-0.2-1-0.3-1.8-0.3-2.3h-5.9v2.8h6.3C151.4,164.8,151.4,164.6,151.3,164.4z"/>
		<path class="st16" d="M169.4,155.8c0,0.1,0,0.2-0.1,0.4c-0.3,1.5-0.6,2.8-1,4v13.4c0,0.5-0.3,0.8-0.8,0.8c-0.5,0-0.7-0.3-0.7-0.8
			V164c-0.2,0.3-0.3,0.6-0.5,0.9c-0.2,0.2-0.4,0.3-0.6,0.3c-0.5,0-0.8-0.2-0.8-0.7c0-0.1,0-0.3,0.2-0.5c0.6-1.1,1.1-2.3,1.6-3.6
			c0.5-1.4,0.9-3,1.3-4.8c0.1-0.3,0.3-0.4,0.7-0.4C169.1,155.2,169.4,155.4,169.4,155.8z M172.5,155.9c0.6,0,0.9,0.3,0.9,0.7
			c0,0.3-0.2,0.8-0.5,1.6l-1.8,3.7c-0.1,0.2-0.1,0.3-0.1,0.4h1.9c0.5,0,0.8,0.4,0.8,1.1c0,0.6-0.1,1.4-0.3,2.5
			c-0.3,1.7-0.6,3.1-1,4.1c0,0.1-0.1,0.2-0.1,0.3c0.4,0.5,0.9,0.9,1.5,1.2c0.8,0.4,1.7,0.6,2.8,0.7h7.4c0.4,0,0.6,0.3,0.6,0.8
			c0,0.5-0.3,0.8-0.8,0.8H177c-1.3,0-2.3-0.2-3.1-0.5c-0.9-0.3-1.7-0.8-2.3-1.4c-0.5,0.8-1.1,1.5-1.7,2c-0.2,0.2-0.3,0.2-0.5,0.2
			c-0.5,0-0.7-0.3-0.8-0.7c0-0.2,0.1-0.5,0.3-0.7c0.7-0.7,1.3-1.3,1.7-2c-0.4-0.7-0.8-1.5-1-2.4c-0.4-1.5-0.6-2.5-0.6-2.9
			c0-0.5,0.2-0.8,0.7-0.8c0.3,0,0.5,0.2,0.6,0.5c0.3,1.6,0.6,2.8,1,3.7c0.2-0.6,0.4-1.4,0.5-2.2c0.2-1,0.3-1.9,0.3-2.6
			c0-0.3-0.1-0.4-0.4-0.4h-1.7c-0.7,0-1-0.3-1-0.8c0-0.3,0.1-0.7,0.4-1.2l1.9-3.9c0.1-0.2,0.1-0.4,0.1-0.5c0,0-0.1-0.1-0.3-0.1h-1
			c-0.5,0-0.8-0.2-0.8-0.7c0-0.5,0.3-0.7,0.8-0.7H172.5z M177.4,156.6v-0.7c0-0.5,0.2-0.7,0.7-0.7c0.5,0,0.8,0.3,0.8,0.7v0.7h2.9
			c1,0,1.5,0.4,1.5,1.3v1.5h0.6c0.5,0,0.7,0.3,0.7,0.7c0,0.5-0.3,0.7-0.7,0.7h-0.6v1.5c0,0.9-0.5,1.4-1.5,1.4H179v1.5h3.4
			c0.5,0,0.7,0.2,0.7,0.7c0,0.5-0.3,0.8-0.7,0.8H179v1.4h4c0.5,0,0.7,0.3,0.7,0.7c0,0.5-0.3,0.8-0.7,0.8h-4v1.5
			c0,0.5-0.3,0.7-0.8,0.7c-0.5,0-0.7-0.2-0.7-0.7v-1.5h-3.3c-0.5,0-0.7-0.3-0.7-0.8c0-0.5,0.2-0.7,0.7-0.7h3.3v-1.4h-2.7
			c-0.5,0-0.7-0.3-0.7-0.8c0-0.5,0.2-0.7,0.7-0.7h2.7v-1.5h-2.6c-0.5,0-0.8-0.2-0.8-0.7c0-0.4,0.3-0.7,0.8-0.7h2.6v-1.5h-3.7
			c-0.5,0-0.7-0.2-0.7-0.7c0-0.5,0.2-0.7,0.7-0.7h3.7V158h-2.7c-0.5,0-0.8-0.2-0.8-0.7c0-0.4,0.3-0.6,0.8-0.6H177.4z M179,159.4h2.8
			v-0.8c0-0.3-0.2-0.5-0.6-0.6H179V159.4z M179,162.3h2.3c0.3,0,0.5-0.2,0.5-0.6v-0.9H179V162.3z"/>
		<path class="st16" d="M199.3,155.7v0.5h6.9c0.5,0,0.8,0.2,0.8,0.8c0,0.5-0.3,0.8-0.8,0.8h-7.2c0.2,0.2,0.3,0.4,0.3,0.6v0.6h4.5
			c1.1,0,1.7,0.5,1.7,1.5v1.2h1.2c0.5,0,0.7,0.2,0.7,0.7c0,0.5-0.3,0.7-0.7,0.7h-1.2v1.2c0,1-0.6,1.5-1.7,1.5h-4.2
			c0.3,0.7,0.5,1.2,0.8,1.6c0.4,0.6,0.9,1.2,1.7,1.9c0.6,0.5,1.3,1,2.1,1.4c0.7,0.4,1.4,0.7,2.2,0.9c0.5,0.2,0.9,0.4,1,0.6
			c0.1,0.1,0.2,0.3,0.2,0.6c0,0.6-0.3,0.9-0.9,0.9c-0.3,0-0.8-0.2-1.6-0.5c-0.9-0.4-1.8-0.9-2.5-1.4c-0.8-0.6-1.4-1.1-1.8-1.5
			c-0.5-0.5-1-1.1-1.3-1.8v3.9c0,1.3-0.8,1.9-2.3,1.9c-0.5,0-1.1-0.1-2-0.3c-0.4-0.1-0.6-0.4-0.6-0.8c0-0.5,0.3-0.8,0.7-0.8
			c0.1,0,0.2,0,0.3,0c0.7,0.2,1.2,0.3,1.4,0.3c0.5,0,0.8-0.3,0.8-0.8v-6h-5.5c-0.5,0-0.7-0.2-0.7-0.7c0-0.5,0.2-0.7,0.7-0.7h5.5
			v-1.3h-6c-0.5,0-0.7-0.2-0.7-0.7c0-0.5,0.2-0.7,0.7-0.7h6v-1.2h-5.5c-0.4,0-0.6-0.2-0.6-0.7c0-0.5,0.2-0.7,0.6-0.7h5.5v-0.6
			c0-0.3,0.1-0.5,0.3-0.6H191c-0.3,0-0.5,0.2-0.5,0.5v6.2c0,2.2-0.1,4.2-0.4,5.8c-0.3,1.2-0.5,2.2-0.9,3.1c-0.2,0.4-0.5,0.6-0.8,0.6
			c-0.6,0-0.9-0.3-0.9-0.8c0.4-1.5,0.8-2.8,1-4c0.3-1.4,0.4-2.9,0.4-4.6v-7.1c0-0.8,0.4-1.1,1.2-1.1h7.4v-0.5c0-0.6,0.3-0.9,0.9-0.9
			C199,154.8,199.3,155.1,199.3,155.7z M197.3,169.3c0,0.2-0.3,0.5-0.7,0.9c-0.6,0.5-1.3,1.1-2.2,1.6c-0.8,0.5-1.5,0.9-2,1.2
			c-0.3,0.1-0.5,0.1-0.7,0.1c-0.5,0-0.8-0.3-0.8-0.8c0-0.3,0.2-0.5,0.6-0.7c0.9-0.4,1.7-0.8,2.3-1.3c0.8-0.5,1.6-1.1,2.3-1.7
			c0.2-0.2,0.3-0.2,0.5-0.2C197,168.4,197.3,168.7,197.3,169.3z M192.8,166.6c0.3,0.2,0.6,0.4,0.8,0.6c0.3,0.3,0.6,0.6,1.1,1
			c0,0.1,0.1,0.3,0.1,0.5c0,0.4-0.3,0.6-0.8,0.6c-0.2,0-0.4,0-0.6-0.2c-0.4-0.4-0.7-0.7-0.9-0.9c-0.2-0.2-0.5-0.4-0.7-0.6
			c-0.2-0.2-0.2-0.4-0.2-0.6c0-0.5,0.2-0.7,0.7-0.7C192.3,166.4,192.5,166.5,192.8,166.6z M199.3,161.7h4.5V161
			c0-0.3-0.2-0.5-0.6-0.6h-3.9V161.7z M199.3,164.5h4.1c0.3,0,0.4-0.2,0.4-0.5v-0.8h-4.5V164.5z M206.6,167c0,0.3-0.1,0.6-0.4,1
			c-0.8,0.6-1.6,1.1-2.3,1.5c-0.2,0.1-0.4,0.2-0.6,0.2c-0.5,0-0.8-0.2-0.8-0.7c0-0.2,0-0.4,0.2-0.6c0.9-0.5,1.7-1.1,2.4-1.7
			c0.2-0.3,0.4-0.4,0.7-0.4C206.3,166.2,206.6,166.4,206.6,167z"/>
		<path class="st16" d="M215.6,155.8c0,0.1,0,0.2-0.1,0.4c-0.3,1.6-0.8,3-1.2,4.2v13.2c0,0.5-0.3,0.8-0.8,0.8
			c-0.5,0-0.8-0.3-0.8-0.8v-9.8c-0.3,0.4-0.5,0.8-0.8,1.2c-0.2,0.2-0.4,0.3-0.6,0.3c-0.5,0-0.8-0.2-0.8-0.7c0-0.1,0-0.3,0.2-0.5
			c0.7-1.1,1.3-2.3,1.9-3.7c0.6-1.4,1.1-3,1.5-4.9c0.1-0.3,0.3-0.5,0.7-0.5C215.3,155.1,215.6,155.3,215.6,155.8z M227.3,155.7
			c1.1,0,1.6,0.5,1.6,1.5v3.2c0,1.1-0.5,1.7-1.6,1.7h-3.7v2h5.6c0.5,0,0.8,0.3,0.8,0.8s-0.3,0.8-0.8,0.8h-5.6v0
			c1.1,1.2,2.1,2.1,2.9,2.7c0.8,0.8,2.1,1.7,3.9,2.9c0.2,0.2,0.3,0.5,0.3,0.8c-0.1,0.5-0.4,0.8-0.8,0.8c-0.2,0-0.4-0.1-0.6-0.3
			c-0.9-0.6-1.8-1.3-2.8-2.2c-0.9-0.7-1.8-1.6-2.8-2.8v5.7c0,0.5-0.3,0.8-0.9,0.8c-0.5,0-0.8-0.3-0.8-0.8v-5.9
			c-1.2,1.7-2.8,3.4-4.8,5.1c-0.4,0.3-0.7,0.4-0.8,0.4c-0.8,0-1.1-0.3-1.1-0.8c0-0.2,0-0.4,0.2-0.6c1.8-1.4,3.2-2.6,4.2-3.7
			c0.7-0.8,1.3-1.5,1.9-2.4h-5.4c-0.5,0-0.8-0.3-0.8-0.8s0.3-0.8,0.8-0.8h5.8v-2h-3.8c-1.1,0-1.6-0.5-1.6-1.7v-3.2
			c0-1,0.5-1.5,1.6-1.5H227.3z M227.3,159.8v-1.9c0-0.4-0.2-0.6-0.6-0.6h-7.8c-0.5,0-0.7,0.2-0.7,0.6v1.9c0,0.5,0.2,0.7,0.7,0.7h7.8
			C227,160.5,227.3,160.3,227.3,159.8z"/>
		<path class="st16" d="M238.5,155.8c0.8,0,1.2,0.4,1.2,1.2c0,0.2-0.1,0.4-0.1,0.7l-1.1,3.7c0,0.2-0.1,0.4-0.1,0.6
			c0,0.2,0,0.5,0.2,0.7c0.5,1,0.8,1.8,0.9,2.4c0.1,0.6,0.2,1.2,0.2,1.8c0,1-0.3,1.8-0.8,2.4c-0.5,0.6-1.1,1-1.9,1
			c-0.3,0-0.6,0-1-0.1v3.5c0,0.5-0.3,0.8-0.8,0.8c-0.5,0-0.8-0.3-0.8-0.8v-16.2c0-1,0.5-1.5,1.6-1.5h0.3H238.5z M236.8,168.5
			c0.4,0,0.7-0.2,0.9-0.6c0.2-0.4,0.3-0.8,0.3-1.2c0-0.4-0.1-0.8-0.1-1.3c-0.1-0.6-0.5-1.4-1-2.6c-0.1-0.2-0.1-0.4-0.1-0.7
			c0-0.3,0-0.5,0.1-0.7l1.1-3.8c0-0.2-0.1-0.3-0.3-0.3h-1c-0.3,0-0.5,0.2-0.5,0.5v10.5C236.4,168.5,236.6,168.5,236.8,168.5z
			 M243.7,168.5c0.1,0.1,0.2,0.2,0.2,0.4c0,0.2,0,0.4-0.1,0.6c-0.1,0.3-0.2,0.5-0.3,0.7h0c0.3,0.3,0.5,0.5,0.7,0.7
			c0.3,0.3,0.6,0.6,1,1.1c0,0.2,0.1,0.3,0.1,0.5c0,0.4-0.3,0.6-0.8,0.6c-0.2,0-0.4-0.1-0.6-0.2c-0.3-0.4-0.6-0.8-0.8-1
			c-0.1-0.1-0.2-0.3-0.4-0.4c-0.3,0.5-0.6,0.9-1,1.4c-0.4,0.4-0.8,0.8-1.3,1.1c-0.2,0-0.3,0.1-0.5,0.1c-0.2,0-0.4-0.1-0.6-0.3
			c-0.2-0.2-0.2-0.4-0.2-0.6s0.1-0.4,0.2-0.6c0.5-0.3,0.9-0.6,1.2-0.9c0.4-0.4,0.8-0.8,1.1-1.3c0.3-0.4,0.5-1,0.8-1.6
			c0.1-0.3,0.3-0.5,0.7-0.5C243.4,168.4,243.5,168.4,243.7,168.5z M247.8,155.6c0.6,0.4,1.3,0.8,2.1,1.1c0.8,0.3,1.7,0.6,2.9,0.9
			c0.3,0.2,0.4,0.4,0.4,0.7c0,0.6-0.3,0.9-0.9,1c-0.1,0-0.3,0-0.4-0.1c-1.2-0.4-2.1-0.7-2.6-0.9c-0.8-0.4-1.6-0.8-2.3-1.3
			c-0.1-0.1-0.3-0.1-0.4-0.1s-0.2,0-0.3,0.1c-0.9,0.6-1.8,1.2-2.8,1.6c-0.8,0.3-1.7,0.6-2.7,0.9c-0.1,0-0.2,0.1-0.4,0.1
			c-0.5,0-0.8-0.3-0.8-0.9c0-0.4,0.2-0.6,0.5-0.8c1.2-0.3,2.3-0.6,3.1-1c0.9-0.4,1.7-0.8,2.5-1.4c0.3-0.2,0.5-0.3,0.9-0.3
			S247.3,155.3,247.8,155.6z M244.4,162c1,0,1.5,0.5,1.5,1.4v3.2c0,1-0.5,1.5-1.5,1.5h-2.7c-1,0-1.5-0.5-1.5-1.5v-3.2
			c0-0.9,0.5-1.4,1.5-1.4H244.4z M251.7,160.1c0,0.5-0.3,0.8-0.7,0.8h-8.6c-0.5,0-0.7-0.3-0.7-0.8c0-0.5,0.2-0.7,0.7-0.7h8.6
			C251.5,159.4,251.7,159.7,251.7,160.1z M244.2,165.8v-1.5c0-0.4-0.2-0.6-0.6-0.6h-1.1c-0.5,0-0.7,0.2-0.7,0.6v1.5
			c0,0.5,0.2,0.8,0.7,0.8h1.1C244,166.5,244.2,166.3,244.2,165.8z M250.2,168.5c0.1,0.1,0.2,0.2,0.2,0.4c0,0.2,0,0.4-0.1,0.6
			c-0.1,0.4-0.3,0.8-0.4,1.1c0.5,0.3,0.9,0.6,1.2,0.9c0.5,0.3,1,0.8,1.7,1.5c0,0.1,0.1,0.3,0.1,0.5c0,0.4-0.3,0.7-0.8,0.7
			c-0.2,0-0.4-0.1-0.6-0.2c-0.6-0.6-1.1-1.1-1.5-1.4c-0.3-0.2-0.6-0.4-0.9-0.7c-0.3,0.4-0.6,0.8-0.9,1.1c-0.4,0.4-0.9,0.8-1.4,1.1
			c-0.2,0-0.3,0.1-0.5,0.1c-0.2,0-0.4-0.1-0.6-0.3c-0.2-0.2-0.2-0.4-0.2-0.6s0.1-0.4,0.3-0.6c0.5-0.3,0.9-0.6,1.3-0.9
			c0.4-0.4,0.8-0.8,1.1-1.3c0.3-0.5,0.6-1,0.8-1.6c0.1-0.3,0.4-0.5,0.7-0.5C249.9,168.4,250,168.4,250.2,168.5z M251.3,162
			c1,0,1.5,0.5,1.5,1.4v3.2c0,1-0.5,1.5-1.5,1.5h-2.9c-1,0-1.5-0.5-1.5-1.5v-3.2c0-0.9,0.5-1.4,1.5-1.4H251.3z M251.1,165.8v-1.5
			c0-0.4-0.2-0.6-0.6-0.6h-1.2c-0.4,0-0.6,0.2-0.6,0.6v1.5c0,0.5,0.2,0.8,0.6,0.8h1.2C250.9,166.5,251.1,166.3,251.1,165.8z"/>
	</g>
	<polygon class="st17" points="65.6,209.6 73.2,227.7 73.2,191.5 	"/>
	<g>
		<path class="st18" d="M246.8,262.6c-1.3,0-2.7-0.1-4.2-0.3c-0.1-1.5-0.2-2.9-0.1-4.2c0.1-5.7-2.3-10.3-6.4-14
			c3.8-2,5.4-5.2,5.5-9.3c0.1-8.5,0.2-17,0-25.5c-0.1-6.3-3.3-10.9-8.8-13.8c-3.1-1.6-6.4-1.3-9.8-1.3c-0.4-0.1-0.7-0.2-1-0.2
			c-8.1,1.3-13.5,7.6-13.7,15c-0.2,8.5-0.1,17.1,0,25.7c0,4.1,1.8,7.3,5.4,9.5c-2.2,2.1-4,4.4-5.2,7.2c-1.6,3.5-1.2,7.2-1.2,11
			c0,0.1,0,0.2,0,0.2c-2.4,0-4.7,0.1-7.1,0c-2.5,0-3.5-1-3.5-3.5c0-23.6,0-47.2,0-70.9c0-2.7,0.9-3.6,3.6-3.6c9.7,0,19.5,0,29.2,0
			c5.7,0,11.3,0,17.2,0.1c1.2,1.3,1.4,2.6,1.4,4.1c0,22.8,0,45.6,0,68.5C248.1,259.3,248.2,261.1,246.8,262.6z"/>
		<path class="st19" d="M247,262.7c1.2-1.5,1.1-3.4,1.1-5.2c0-22.8,0-45.6,0-68.5c0-1.5-0.2-2.8-1.2-4.1c1.5-0.1,3.1-0.2,4.6-0.2
			c2.1,0.1,3.1,1.2,3.1,3.2c0,23.8,0,47.6,0,71.3c0,2.3-1.1,3.4-3.4,3.4C249.8,262.7,248.5,262.7,247,262.7z"/>
		<path class="st20" d="M236,244.2c4.2,3.7,6.6,8.2,6.5,13.9c0,1.3,0,2.7,0,4.2c-1.5,0.2-3,0.4-4.6,0.4c-0.6,0-1.1,0-1.8-0.1
			c-0.2-0.1-0.2-0.2-0.2-0.3c0-1.2,0-2.2,0-3.2c-0.1-6.2-2.6-11.1-7.7-14.7c0.2-1.2,0.4-2.2,0.7-3.3c1.3,0.3,2.4,0.6,3.6,1
			C233.8,242.8,234.9,243.5,236,244.2z"/>
		<path class="st21" d="M213.7,244.2c-3.7-2-5.4-5.3-5.5-9.4c-0.1-8.6-0.2-17.1,0-25.7c0.2-7.4,5.6-13.7,13.7-15
			c0.3,0,0.6,0.1,1.1,0.3c6,1.9,10,5.5,11.4,11.5c0.7,2.7,0.5,5.7,0.5,8.6c-0.3,0-0.6,0-0.9-0.1c-3.3-1.5-6.6-2.7-9.5-4.5
			c-2.3-1.4-4.1-3.7-6.1-5.6c-0.2,0.4-0.4,0.9-0.7,1.5c-1.2,2.8-2.6,5.6-5.3,7c-3,1.4-3.8,3.5-3.3,6.5c0,0.1,0,0.2,0,0.3
			c0.5,6.3,3,11.5,9,14.1c2.5,1.1,3.1,2.5,2.8,4.8c-0.1,0.5,0.1,1,0,1.5c-0.1,0.5-0.4,0.9-0.7,1.3c-0.7,0.1-1.4,0.1-1.9,0.4
			C216.6,242.5,215.2,243.3,213.7,244.2z"/>
		<path class="st22" d="M213.6,244.3c1.5-0.9,3-1.8,4.6-2.6c0.5-0.3,1.2-0.3,2-0.3c0.4,0.4,0.6,0.8,0.7,1.3c0.4,1.7,1.8,3.1,3.4,3.4
			c1.6,0.2,2.9-0.5,4-1.5c5.1,3.5,7.6,8.4,7.7,14.6c0,1,0,2.1,0,3.2c-9.5,0.1-19,0.1-28.6,0.1c-0.2-3.7-0.5-7.4,1-10.9
			C209.6,248.7,211.4,246.4,213.6,244.3z"/>
		<path class="st23" d="M235.1,214.4c-0.2-2.9,0-5.8-0.6-8.6c-1.4-5.9-5.5-9.6-11.3-11.4c3.2-0.1,6.5-0.5,9.6,1.2
			c5.5,2.9,8.7,7.5,8.8,13.8c0.2,8.5,0.1,17,0,25.5c0,4-1.7,7.2-5.5,9.3c-1.2-0.7-2.3-1.4-3.4-2.2c2.2-3.1,2.6-6.6,2.4-10.2
			c0.5-0.5,1-1,1.5-1.5c3.7-4,4.3-9,4-14.1c0-0.4-0.7-0.9-1.1-1C238,214.8,236.5,214.6,235.1,214.4z"/>
		<path class="st24" d="M228.3,244.3c-1.2,1.2-2.4,1.9-4,1.6c-1.7-0.2-3-1.6-3.4-3.4c-0.1-0.4-0.3-0.8-0.5-1.3
			c0.1-0.5,0.4-0.9,0.5-1.4c0.1-0.5,0-1,0-1.5c0.3-2.4-0.3-3.7-2.8-4.8c-5.9-2.6-8.5-7.8-9-14.1c0-0.1,0-0.2,0-0.3
			c-0.5-3,0.3-5.1,3.3-6.5c2.8-1.4,4.1-4.2,5.3-7c0.3-0.6,0.5-1.2,0.7-1.5c2.1,2,3.9,4.2,6.1,5.6c2.9,1.8,6.3,3,9.5,4.6
			c0.1,1.9,0.2,3.5,0.1,5.1c-0.4,6.2-3,11.1-8.7,14c-0.9,0.5-1.9,0.9-2.9,1.3c0,0.2,0.1,0.3,0.1,0.5c2.1-0.2,4.2-0.4,6.3-0.5
			c0,2.1,0,4.1,0,6C228.7,242.1,228.5,243.2,228.3,244.3 M228.3,221c0.1,1.2,0.7,1.9,2,1.8c1.4-0.1,1.4-1.1,1.4-2.1
			c0-0.4,0-0.8,0-1.2c-0.1-1-0.7-1.8-1.7-1.5c-0.7,0.2-1.2,1-1.7,1.6C228.1,219.8,228.3,220.3,228.3,221 M218.8,222.5
			c0.6,0.1,1.3,0.4,1.8,0.2c0.3-0.1,0.5-0.9,0.6-1.4c0.1-0.6,0.2-1.3,0-1.8c-0.2-0.6-0.8-1.5-1.1-1.5c-0.7,0.1-1.8,0.7-1.8,1.2
			C218,220.1,218.4,221.2,218.8,222.5z"/>
		<path class="st25" d="M229,241c-0.1-2-0.1-3.9,0-6.1c2.1-1.2,4.1-2.2,6-3.2c0.2,3.6-0.1,7-2.4,10.1
			C231.4,241.6,230.3,241.3,229,241z"/>
		<path class="st26" d="M235.1,231.7c-2,1.1-4,2.1-6.1,3.2c-2.2,0.2-4.3,0.4-6.4,0.7c0-0.2-0.1-0.3-0.1-0.5c1-0.4,2-0.9,2.9-1.3
			c5.7-2.9,8.4-7.8,8.7-14c0.1-1.6,0-3.3,0-5.1c0.2-0.1,0.5-0.1,0.8-0.1c1.6,0.2,3.1,0.4,4.5,0.7c0.4,0.1,1.1,0.6,1.1,1
			c0.4,5.2-0.2,10.1-4,14.1C236.2,230.7,235.7,231.1,235.1,231.7z"/>
		<path class="st27" d="M228.3,220.8c0-0.5-0.2-1.1,0-1.3c0.5-0.6,1-1.4,1.7-1.6c1-0.3,1.6,0.5,1.7,1.5c0,0.4,0,0.8,0,1.2
			c0,1-0.1,2-1.4,2.1C229,222.8,228.3,222.2,228.3,220.8z"/>
		<path class="st23" d="M218.7,222.4c-0.2-1.2-0.6-2.3-0.5-3.3c0.1-0.5,1.1-1,1.8-1.2c0.3-0.1,0.9,0.9,1.1,1.5
			c0.2,0.6,0.1,1.2,0,1.8c-0.1,0.5-0.3,1.3-0.6,1.4C220,222.8,219.3,222.5,218.7,222.4z"/>
	</g>
	<g id="g1179">
		<circle id="path42" class="st16" cx="94.3" cy="166.1" r="12.5"/>
		<path id="path2" class="st28" d="M111,166.1c0,9.2-7.5,16.7-16.7,16.7c-9.2,0-16.7-7.5-16.7-16.7c0-9.2,7.5-16.7,16.7-16.7
			C103.5,149.5,111,156.9,111,166.1z M94.3,153.7c-6.9,0-12.4,5.6-12.4,12.4s5.6,12.4,12.4,12.4c6.9,0,12.4-5.6,12.4-12.4
			C106.7,159.3,101.2,153.7,94.3,153.7z"/>
		<path id="path4" class="st29" d="M89.6,161.4C89.7,161.4,89.7,161.4,89.6,161.4l2.1,0v-1.9c0-0.1,0-0.2,0-0.3
			c0-1.2-0.9-2.1-2.1-2.1c-1.1,0-2.1,0.9-2.1,2h0v2.2L89.6,161.4C89.6,161.4,89.6,161.4,89.6,161.4z M98.9,161.6
			c1.2,0,2.1-0.9,2.1-2.1c0-1.2-0.9-2.1-2.1-2.1c-1.2,0-2.1,0.9-2.1,2.1C96.8,160.6,97.8,161.6,98.9,161.6z M98.9,161.8
			c-1.6,0-3,1.3-3,2.9h-3.3c0,0,0-0.1,0-0.1c0-1.7-1.3-3-3-3c-1.7,0-3,1.3-3,3c0,0.1,0,0.2,0,0.3v8.5h6v-5.7h3.3v5.9h6v-8.5
			c0-0.1,0-0.2,0-0.3C101.9,163.2,100.6,161.8,98.9,161.8L98.9,161.8z"/>
		<path id="path6" class="st16" d="M80.8,166.4h-2.1v0.3h1.5l-1.5,0.7v0.3h2.1v-0.3h-1.5l1.5-0.7V166.4z M79.2,170l2-1l-0.1-0.3
			l-2.2-0.2l0.1,0.3l0.4,0l0.1,0.6l-0.4,0.2L79.2,170z M80.7,169l-0.8,0.4l-0.1-0.4L80.7,169z M81.5,170.4l-0.2-0.5L81,170l0.2,0.5
			l-1.6,0.5l0.1,0.3l1.6-0.5l0.2,0.5l0.4-0.1L81.5,170.4z M82,171.6l-1.9,0.9l0.1,0.3l1.9-0.9L82,171.6z M82.6,172.8
			c-0.1-0.2-0.4-0.3-0.8,0c-0.1,0.1-0.6,0.4-0.7,0.4c-0.4,0.2-0.5,0.5-0.3,0.7c0,0.1,0.3,0.5,0.3,0.5c0.1,0.2,0.4,0.3,0.8,0
			c0.1-0.1,0.6-0.4,0.7-0.4c0.4-0.2,0.5-0.4,0.3-0.7C82.8,173.2,82.6,172.9,82.6,172.8z M81.4,173.3c0,0,0.4-0.2,0.4-0.3
			c0.2-0.1,0.4-0.1,0.5,0c0,0,0.1,0.2,0.2,0.3c0.1,0.1,0,0.3-0.2,0.4c-0.1,0-0.4,0.2-0.4,0.3c-0.2,0.1-0.4,0.1-0.5,0
			c0,0-0.1-0.2-0.2-0.3C81,173.6,81.2,173.5,81.4,173.3L81.4,173.3z M83.5,174.2l-1.6,1.4l0.2,0.2l1.1-1l-0.7,1.5l0.2,0.2l1.6-1.4
			l-0.2-0.2l-1.1,1l0.7-1.5L83.5,174.2z M84.5,178.2l0.9-2l-0.2-0.2l-1.8,1.3l0.2,0.2l0.3-0.3l0.5,0.4l-0.2,0.4L84.5,178.2z
			 M84.9,176.4l-0.4,0.8l-0.3-0.3L84.9,176.4z M85.5,178.5l1-1.4l-0.2-0.2l-1.2,1.7l0.9,0.6l0.2-0.3L85.5,178.5z M88.9,179.8
			l-0.4,0.8l0.3,0.1l0.8-1.9l-0.3-0.1l-0.3,0.8l-0.7-0.3l0.3-0.8l-0.3-0.1l-0.8,1.9l0.3,0.1l0.4-0.8L88.9,179.8z M89.9,181.1
			l0.9,0.3L91,181l-0.9-0.3l0.2-0.5l0.8,0.3l0.1-0.3l-0.8-0.3l0.1-0.5l0.9,0.3l0.1-0.3l-1.2-0.4l-0.6,2L89.9,181.1z M93.1,181.7
			l-0.2-2.2l-0.3,0l-0.9,2l0.3,0l0.2-0.4l0.6,0.1l0,0.4L93.1,181.7z M92.6,180l0.1,0.9l-0.5-0.1L92.6,180z M94.2,181.3v-1.7h-0.3
			v2.1H95v-0.4H94.2z M95.7,179.6l-0.5,0.1l0,0.4l0.5-0.1l0.2,1.7l0.3,0l-0.2-1.7l0.5-0.1l0-0.4L95.7,179.6z M98.4,180.3l0.2,0.8
			l0.3-0.1l-0.5-2l-0.3,0.1l0.2,0.8l-0.7,0.2l-0.2-0.8l-0.3,0.1l0.5,2l0.3-0.1l-0.2-0.8L98.4,180.3z M99.8,178.5l0.8,1.9l0.3-0.1
			l-0.8-1.9L99.8,178.5z M100.6,178.1l1.1,1.8l0.2-0.2l-0.8-1.3l1.4,0.9l0.3-0.2l-1.1-1.8l-0.2,0.2l0.8,1.3l-1.4-0.9L100.6,178.1z
			 M103.4,177.2c-0.1,0.1-0.3,0.2-0.4,0.3c-0.1,0-0.1,0-0.2-0.1c-0.1-0.1-0.2-0.2-0.1-0.3c0.1-0.1,0.3-0.2,0.3-0.3
			c0.1-0.1,0.1,0,0.2,0.1l0.2-0.2c-0.1-0.2-0.2-0.3-0.3-0.3c-0.1,0-0.2,0-0.3,0c-0.1,0.1-0.4,0.3-0.4,0.3c-0.2,0.2-0.2,0.4,0,0.7
			c0,0,0.1,0.1,0.2,0.2c0.2,0.2,0.4,0.3,0.5,0.1c0.1-0.1,0.3-0.2,0.4-0.3c0.1-0.1,0.1,0,0.2,0.1c0.1,0.1,0.2,0.3,0.1,0.4
			c-0.1,0.1-0.3,0.2-0.4,0.3c-0.1,0.1-0.1,0-0.2-0.1c0,0,0,0-0.1-0.1l-0.2,0.2c0.1,0.1,0.1,0.1,0.1,0.2c0.2,0.2,0.3,0.2,0.5,0.1
			c0.1-0.1,0.2-0.2,0.3-0.2c0.1-0.1,0.2-0.1,0.3-0.2c0.2-0.1,0.1-0.3-0.1-0.6c0-0.1-0.2-0.2-0.2-0.2
			C103.8,177,103.6,177,103.4,177.2L103.4,177.2z M103.6,175.9l1,1c0.3,0.3,0.6,0.3,0.8,0.1c0,0,0.2-0.2,0.2-0.2
			c0.2-0.2,0.2-0.5-0.1-0.8l-1-1l-0.2,0.2l1,0.9c0.2,0.2,0.2,0.3,0.1,0.4c0,0-0.2,0.2-0.2,0.2c-0.1,0.1-0.2,0.1-0.4-0.1l-1-0.9
			L103.6,175.9z M106.8,174.5l0.5,0.3l0.2-0.2l-0.5-0.3c-0.1-0.1-0.2-0.1-0.3-0.1c0-0.1-0.1-0.2-0.3-0.3c0,0-0.2-0.1-0.2-0.2
			c-0.3-0.2-0.5-0.2-0.6,0c0,0-0.6,0.8-0.6,0.8l1.7,1.2l0.2-0.2l-0.6-0.4l0.3-0.4c0-0.1,0.1-0.1,0.1-0.1
			C106.7,174.4,106.7,174.4,106.8,174.5L106.8,174.5z M105.7,174C105.7,174,105.8,174,105.7,174c0.1-0.2,0.2-0.1,0.4,0
			c0.1,0.1,0.2,0.2,0.2,0.2c0,0-0.4,0.5-0.4,0.5l-0.4-0.3L105.7,174z M108.5,172.6l-2.1-0.5l-0.1,0.3l1.6,1.5l0.1-0.3l-0.3-0.3
			l0.3-0.6l0.4,0.1L108.5,172.6z M106.7,172.5l0.8,0.2l-0.2,0.4L106.7,172.5z M106.9,171.2l2,0.7l0.1-0.3l-1.4-0.5l1.7-0.2l0.1-0.3
			l-2-0.7l-0.1,0.3l1.4,0.5l-1.6,0.2L106.9,171.2z M108.2,168c-0.3-0.1-0.5,0.1-0.6,0.3c0,0.1-0.1,0.5-0.1,0.6
			c-0.1,0.3,0.1,0.5,0.5,0.5c0.1,0,0.7,0.1,0.8,0.2c0.4,0.1,0.7,0,0.7-0.3c0-0.1,0.1-0.5,0.1-0.6c0.1-0.3-0.1-0.5-0.5-0.5
			c-0.1,0-0.1,0-0.2,0l-0.1,0.3c0.1,0,0.1,0,0.2,0c0.2,0,0.2,0.1,0.2,0.3c0,0.1-0.1,0.3-0.1,0.3c0,0.2-0.2,0.2-0.5,0.2
			c-0.1,0-0.4-0.1-0.5-0.1c-0.3,0-0.4-0.2-0.4-0.3c0-0.1,0.1-0.3,0.1-0.3c0-0.2,0.1-0.2,0.3-0.2c0.1,0,0,0,0.1,0l0.1-0.3
			C108.3,168,108.3,168,108.2,168L108.2,168z M109.9,167.2v-1h-0.4v1H109v-0.9h-0.4v0.9h-0.5v-0.9h-0.4v1.2h2.1V167.2z"/>
		<path id="path8" class="st16" d="M106.3,158.5l-0.2-0.3l0.3-0.3l0.3,0.4l-0.3,0.2C106.4,158.6,106.4,158.6,106.3,158.5
			C106.4,158.6,106.3,158.6,106.3,158.5L106.3,158.5z M105.3,157.4l-0.2-0.2l0.3-0.3l0.3,0.3l-0.3,0.2
			C105.5,157.4,105.4,157.4,105.3,157.4C105.4,157.4,105.4,157.4,105.3,157.4L105.3,157.4z M103.6,156.6l0.2,0.3
			c0.1,0.1,0.2,0.2,0.2,0.2c0.1,0,0.2,0,0.2-0.1l0.7-0.6c0,0,0.1-0.1,0.1-0.1c0-0.1,0-0.1,0-0.2c0.1,0,0.1,0.1,0.2,0.1
			c0.1,0,0.1,0,0.2-0.1l0.8-0.7l-0.7-0.9l-2.4,2l0.3,0.3L103.6,156.6z M104.6,155.8L104.6,155.8c0.1,0.1,0.1,0.2,0.2,0.2
			c0,0,0,0.1,0,0.1l-0.7,0.5c0,0,0,0-0.1,0c0,0,0,0,0,0l-0.2-0.2L104.6,155.8z M105.5,155.1l0.2,0.3l-0.6,0.5c0,0,0,0-0.1,0
			c0,0,0,0-0.1-0.1l-0.1-0.2L105.5,155.1z M106.5,156l-0.2,0c0,0-0.1,0-0.1-0.1c0,0-0.1-0.1-0.1-0.1l-0.1-0.1l-0.2,0.2l0.2,0.2
			c0.1,0.1,0.1,0.1,0.2,0.2c0.1,0.1,0.4,0.1,0.4,0.1l0.8,1c0,0.1,0,0.4,0,0.5c0,0.1,0,0.1,0.1,0.2l0.2,0.3l0.2-0.2l-0.1-0.1
			c0,0-0.1-0.1-0.1-0.1c0,0,0-0.1,0-0.1l0-0.2l0-0.3l-1-1.3L106.5,156z M104.6,158.3l0.4,0.6l0,0l0,0c0.1,0.1,0.1,0.1,0.2,0.2
			c0.1,0,0.1,0,0.2,0l0.3-0.1l-0.2,0.4c0,0.1,0,0.1,0,0.2c0,0,0,0.1,0,0.1l0.2,0.3l0.2-0.2l-0.1-0.1c0,0,0,0,0-0.1c0,0,0-0.1,0-0.1
			c0.1-0.3,0.1-0.3-0.1-0.6l0.2-0.1l0.1,0.2c0.1,0.1,0.1,0.1,0.2,0.2c0.1,0,0.1,0,0.2,0l0.6-0.5l-0.8-1l-0.8,0.6l0.2,0.2l-0.5,0.2
			c0,0-0.1,0-0.1,0c0,0,0,0-0.1,0l-0.1-0.2l-0.1-0.1c0,0,0,0,0-0.1c0,0,0,0,0-0.1c0.1-0.3,0.1-0.2,0-0.5l0.2-0.1l0.1,0.2
			c0.1,0.1,0.1,0.1,0.2,0.2c0.1,0,0.1,0,0.2,0l0.6-0.5l-0.8-1l-0.8,0.6l0.2,0.2l-0.5,0.2c0,0-0.1,0-0.1,0c0,0,0,0-0.1,0l-0.1-0.1
			l-0.2,0.2l0.2,0.2c0.1,0.1,0.1,0.1,0.2,0.1c0.1,0,0.1,0,0.2,0l0.2-0.1l-0.1,0.3c0,0.1,0,0.1,0,0.2
			C104.6,158.2,104.6,158.2,104.6,158.3L104.6,158.3L104.6,158.3L104.6,158.3z M105.8,156.1l1.7,2.1l-0.2,0.2l-1.7-2.1L105.8,156.1z
			 M89.8,150.6l-0.1,0.8c0,0.1,0,0.1,0,0.1c0,0,0,0-0.1,0l-0.2,0l0.1,0.4l0.3-0.1l0.3,2l0.5-0.1l-0.4-2.5l0.2-0.9L89.8,150.6z
			 M91.2,150.5l0,0.3l0.7-0.1l0,0.3l-0.8,0.1l0,0.3l0.8-0.1l0,0.3l-0.7,0.1l0,0.3l0.7-0.1l0,0.3l-0.7,0.1l0,0.3l0.7-0.1l0,0.2
			l-0.8,0.1l0,0.3l0.8-0.1l0,0.1l0.5-0.1l0-0.1l1-0.2l0-0.3l-1,0.2l0-0.2l0.9-0.1l0-0.3l-0.9,0.1l0-0.3l0.4-0.1
			c0.1,0,0.2-0.1,0.3-0.1c0.1,0,0.1-0.1,0.1-0.2l0-0.3l0.3,0l0-0.3l-0.3,0l-0.1-0.5l-0.8,0.1l0-0.2l-0.5,0.1l0,0.2L91.2,150.5z
			 M92.4,150.6l0.4-0.1l0,0.3l-0.4,0.1L92.4,150.6z M90.6,152.1L90.6,152.1l0,0.2l0.1,0c0,0,0.1,0,0.1,0.1c0.1,0.3,0.1,0.5,0.2,0.8
			c0,0,0,0.1,0,0.1c0,0-0.1,0.1-0.1,0.1l-0.1,0l0.1,0.3l0.2,0c0.1,0,0.1,0,0.2-0.1c0,0,0.1-0.3,0.1-0.3c0.2,0.1,0.4,0.3,0.6,0.2
			l2.1-0.4l-0.1-0.3l-1.8,0.3c-0.2,0-1-0.2-1-0.4c0-0.3-0.1-0.7-0.3-0.7c0.1,0,0.1-0.1,0.1-0.2l-0.2-1.2c0-0.1-0.1-0.1-0.1-0.1
			l-0.4,0.1l0,0.3l0.1,0c0.1,0,0.1,0,0.1,0.1l0.2,0.9C90.7,152,90.7,152.1,90.6,152.1z M92.5,151.1l0.4-0.1l0,0.2c0,0,0,0,0,0
			c0,0,0,0-0.1,0l-0.3,0L92.5,151.1z M85.3,154.4c0.9-0.5,1.7-1.1,2.6-1.6c0.1-0.1,0.2-0.1,0.2-0.2c0-0.1,0-0.1,0-0.2l-0.6-0.9
			l-3.3,2l1.5,2.4c0,0.1,0.1,0.1,0.2,0.1c0.1,0,0.2,0,0.3-0.1l1.4-0.9l-0.2-0.3l-1.2,0.7c0,0-0.1,0-0.1,0c0,0,0,0-0.1,0l-0.3-0.5
			c0.6-0.4,1.2-0.7,1.7-1.1l1,0.4c0.1,0.1,0.3,0,0.4,0l0.5-0.3l-0.2-0.3l-0.3,0.2c0,0-0.1,0-0.1,0c0,0-0.1,0-0.1,0l-0.8-0.3
			c0.3-0.2,0.5-0.3,0.8-0.5l-0.2-0.3c-0.3,0.2-0.7,0.4-1,0.6l-0.2-0.1l-0.5,0.3l0.2,0.1c-0.5,0.3-1,0.6-1.5,0.9L85.3,154.4z
			 M84.8,153.6l2.4-1.5l0.3,0.5c0,0,0,0,0,0.1c0,0,0,0-0.1,0.1l-2.3,1.4L84.8,153.6z M83.6,155.4l-2.4,3l0.3,0.2l1-1.3l0.4,0.3
			l-1,1.3l0.3,0.2l1-1.3l0.4,0.3l-1.1,1.4l0.3,0.2l2.5-3.1l-0.3-0.2l-1.1,1.4l-0.4-0.3l1-1.3l-0.3-0.2l-1,1.3l-0.4-0.3l1-1.3
			L83.6,155.4z M81,157.5l0,0.2c0,0,0,0.1,0,0.1c0,0,0,0.1-0.1,0.1l-0.2,0.2l0.2,0.2l0.3-0.4c0.1-0.1,0.1-0.2,0.1-0.2
			c0-0.1,0-0.1,0-0.2l0-0.4l1-1.3l0.4-0.1c0.1,0,0.1,0,0.2-0.1c0.1,0,0.1-0.1,0.2-0.2l0.3-0.4l-0.2-0.2l-0.2,0.2
			c0,0-0.1,0.1-0.1,0.1c0,0-0.1,0-0.1,0l-0.2,0l-0.3,0l-1.5,1.9L81,157.5z M97.8,153.3l0.1,0.3c0,0.1,0.1,0.1,0.1,0.2
			c0,0,0.1,0.1,0.2,0.1l0.6,0.1l0.1-0.3l-0.4-0.1c0,0,0,0-0.1,0c0,0,0,0,0-0.1l0-0.1L97.8,153.3z M98.4,152.8c0,0.1-0.1,0.1-0.1,0.1
			c0,0-0.1,0-0.1,0l-0.4-0.1l-0.1,0.3l0.6,0.1c0.1,0,0.1,0,0.1,0c0,0,0.1,0,0.1,0c0,0,0.1-0.1,0.1-0.1c0.1-0.1,0.1-0.1,0.2-0.2
			L98.4,152.8z M96.1,152.9c0,0.1-0.1,0.1-0.1,0.1c0,0-0.1,0-0.1,0l-0.3-0.1l-0.1,0.3l0.5,0.1c0.1,0,0.1,0,0.2,0c0.1,0,0.1,0,0.1,0
			c0,0,0.1-0.1,0.1-0.1c0.1-0.1,0.1-0.1,0.2-0.2L96.1,152.9z M95.9,152.3l0.1,0.3c0,0.1,0.1,0.1,0.1,0.2c0.1,0,0.1,0.1,0.2,0.1
			l0.4,0.1l0.1-0.3l-0.3,0c0,0-0.1,0-0.1,0c0,0,0,0,0-0.1l0-0.1L95.9,152.3z M97.7,152l0.7,0.1l0,0.1c0,0,0,0,0,0c0,0,0,0-0.1,0
			l-0.6-0.1L97.7,152z M97.8,151.6l0.7,0.1l0,0.2l-0.7-0.1L97.8,151.6z M96,151l-0.1,0.3l1.3,0.2l0,0.2l-1.4-0.3l0,0.2l1.4,0.3
			l0,0.2l-1.3-0.2l-0.1,0.3l1.3,0.3l-0.2,0.9c0,0,0,0,0,0c0,0,0,0-0.1,0l-0.2,0l-0.1,0.3l0.3,0.1c0.2,0,0.3,0,0.4,0
			c0.1,0,0.1-0.1,0.2-0.2l0.2-1l0.7,0.1c0.3,0.1,0.4,0,0.5-0.2l0-0.2l0.3,0.1l0-0.2l-0.3-0.1l0.1-0.4l-1.2-0.2l0-0.2l-0.5-0.1l0,0.2
			L96,151z M97.2,150.4l0,0.2l-1.8-0.3l-0.5,2.6c0,0,0,0,0,0c0,0,0,0-0.1,0l-0.1,0l-0.1,0.3l0.2,0c0.2,0,0.3,0,0.4,0
			c0.1,0,0.1-0.1,0.2-0.2l0.4-2.3l3.5,0.7l0.1-0.3l-1.7-0.3l0-0.2L97.2,150.4z M102.4,154.8l-0.2,0.8c0,0.1,0,0.2,0,0.2
			c0,0.1,0.1,0.1,0.2,0.2l0.3,0.2l0.2-0.3l-0.1-0.1c0,0,0,0,0-0.1c0,0,0-0.1,0-0.1l0.1-0.6L102.4,154.8z M100.9,153.9l-0.4,0.4
			c0,0-0.1,0-0.1,0c0,0,0,0-0.1,0l-0.2-0.1l-0.2,0.3l0.3,0.2c0.1,0.1,0.2,0.1,0.3,0.1c0.1,0,0.2,0,0.2-0.1l0.6-0.5L100.9,153.9z
			 M103.3,154l-1.4-0.9l0.4-0.5l1.5,1l-0.3,0.4C103.4,153.9,103.4,154,103.3,154C103.3,154,103.3,154,103.3,154z M102,151.9
			l-0.7,1.1l0.9,0.6l-0.2,0.3l-1.1-0.7l-0.2,0.3l1.1,0.7l-0.7,1.1l0.5,0.3l0.7-1.1l1.1,0.7l0.2-0.3l-1.1-0.7l0.2-0.3l0.7,0.5
			c0.2,0.1,0.4,0.1,0.5,0l0.6-0.8L102,151.9z M101.4,151.4l-0.6,0.3c0,0-0.1,0-0.1,0c0,0-0.1,0-0.1,0l-0.2-0.1l-0.2,0.3l0.3,0.2
			l-1.3,1.9l0.4,0.3l1.5-2.2l0.7-0.4L101.4,151.4z"/>
	</g>
	<path class="st30" d="M115.2,256.1c16,0,31.8,0,47.6,0c2.8,0,4.2,1.6,3.3,4c-0.2,0.7-0.9,1.4-1.5,1.7c-0.9,0.4-2,0.5-3.1,0.5
		c-27.4,0-54.9,0-82.3,0c-0.8,0-1.5-0.1-2.3-0.2c-1.7-0.4-2.5-1.6-2.3-3.3c0.2-1.7,1.2-2.6,2.9-2.7c0.6-0.1,1.3,0,1.9,0
		C91.3,256.1,103.1,256.1,115.2,256.1z"/>
	<path class="st30" d="M128.4,199.7L128.4,199.7c0-4.3,3.5-7.7,7.7-7.7h42.5c4.3,0,7.7,3.5,7.7,7.7l0,0c0,4.3-3.5,7.7-7.7,7.7h-42.5
		C131.8,207.5,128.4,204,128.4,199.7z"/>
	<path class="st30" d="M182.2,222h-49.7c-2.3,0-4.2-1.9-4.2-4.2v0c0-2.3,1.9-4.2,4.2-4.2h49.7c2.3,0,4.2,1.9,4.2,4.2v0
		C186.4,220.1,184.5,222,182.2,222z"/>
	<path class="st30" d="M184.9,231.2h-55c-0.8,0-1.5-0.7-1.5-1.5l0,0c0-0.8,0.7-1.5,1.5-1.5h55c0.8,0,1.5,0.7,1.5,1.5l0,0
		C186.4,230.5,185.7,231.2,184.9,231.2z"/>
</g>
</svg>
