<?xml version="1.0" encoding="utf-8"?>
<!-- Generator: Adobe Illustrator 27.7.0, SVG Export Plug-In . SVG Version: 6.00 Build 0)  -->
<svg version="1.1" id="Layer_1" xmlns="http://www.w3.org/2000/svg" xmlns:xlink="http://www.w3.org/1999/xlink" x="0px" y="0px"
	 viewBox="0 0 426 293" style="enable-background:new 0 0 426 293;" xml:space="preserve">
<style type="text/css">
	.st0{fill:#F6CDAA;}
	.st1{fill:#00002A;}
	.st2{fill:#EAB296;}
	.st3{fill:url(#SVGID_1_);}
	.st4{fill:#212161;}
	.st5{fill:#FFFFFF;}
</style>
<path class="st0" d="M161.7,136.7c0.2,8.8,0.2,17.5,0.2,26.3c0,32.1,0,64.2,0,96.3c0,8.2,4.8,14.4,12.5,16.2
	c1.6,0.4,3.2,0.4,4.9,0.4c13.3,0,26.5,0,39.8,0c0.9,0,1.7,0.1,2.7,0.2c-4.6,4.8-9.2,9.6-14.2,14c-1.5,1.3-4,1.9-6.1,1.9
	c-23.7,0.1-47.4,0.1-71.1,0c-1.4,0-3.4-0.8-4-1.9s-0.1-3.2,0.7-4.4c4.8-6.8,8.6-14.2,9.8-22.4c0.9-5.9,0.6-12,0.2-18
	c-0.3-5.5-1.6-10.8-2.2-16.3c-0.5-5-1.2-10-0.8-15c0.4-5.9,1.7-11.7,2.9-17.5c1.3-6.5,3.1-12.9,4.4-19.5c0.5-2.7,0.5-5.5,0.5-8.3
	c0.1-10.4,0.3-20.9-0.1-31.3c-0.3-6.8,5.1-11.3,11.9-9.2C157.7,129.7,160.4,132.4,161.7,136.7z"/>
<path class="st1" d="M249.5,60.1c0.2,2.7,0.4,5.5,0.3,8.2c-0.2,4.5-3.3,7.9-7.9,7.9c-13.4,0.1-26.8,0.1-40.2,0
	c-4.6,0-7.7-3.5-7.9-8.2c-0.1-2.5,0-5,0-7.7C212.4,60.1,230.9,60.1,249.5,60.1z"/>
<path class="st2" d="M282.2,217.1c-0.2-0.5-0.5-1.2-0.5-1.8c0-8.4,0-16.7,0.2-25.4c2.2-2,4.3-3.6,6.4-5.3c3.4-0.9,6.7-0.6,9.5,1.5
	c5.2,3.8,5.5,12,0.1,16.4c-2.6,2.1-4.9,4.5-7.3,6.7C287.8,211.7,285,214.3,282.2,217.1z"/>
<g>
	<g>
		
			<linearGradient id="SVGID_1_" gradientUnits="userSpaceOnUse" x1="222.0344" y1="233.4428" x2="222.0344" y2="20.4144" gradientTransform="matrix(1 0 0 -1 0 295)">
			<stop  offset="0" style="stop-color:#6159A7"/>
			<stop  offset="1" style="stop-color:#F392BD"/>
		</linearGradient>
		<path class="st3" d="M282.1,217.2c-0.1-0.7-0.4-1.3-0.4-2c0-8.4,0-16.7,0-25.3c0-9.1,0-18,0-27.1s0-18,0-27.2c0-8.9,0-17.6,0-26.4
			c0-0.5,0.2-1,0.4-2c-0.1-11.3-0.1-22.2-0.5-33c-0.3-8-6.8-13.5-14.4-14.1c-5.8-0.4-11.7,0-17.5,0c0,2.7,0.2,5.5,0.1,8.2
			c-0.2,4.5-3.3,7.9-7.9,7.9c-13.4,0.1-26.8,0.1-40.2,0c-4.6,0-7.7-3.5-7.9-8.2c-0.1-2.5,0-5-0.2-7.7c-6.6-0.1-13-0.3-19.3,0.3
			c-7.1,0.7-12.5,8.1-12.5,14.5c0.1,20.6,0,41.1,0,61.7c0,8.7,0.1,17.5,0.1,26.2c0,32.1,0,64.2,0,96.3c0,8.2,4.8,14.4,12.5,16.2
			c1.6,0.4,3.2,0.4,4.9,0.4c13.3,0,26.5,0,39.8,0c0.9,0,1.7,0.1,2.9,0.2c14.8,0.1,29.2,0.1,43.6,0.1c1.7,0,3.5-0.3,5.2-0.8
			c7.3-2.4,11.2-7.9,11.4-16.2C282.4,245.2,282.1,231.2,282.1,217.2z M216.2,256.2c4.9,0,9.7,0,14.5,0
			C225.9,256.2,221.1,256.2,216.2,256.2L216.2,256.2z M216.9,181.6c-0.7,0.8-1.6,1.5-2.4,2.2h-0.1
			C215.3,183,216.2,182.4,216.9,181.6z M189.9,188.1L189.9,188.1c9.3,11.6,21.2,17,36.1,15.7C211.1,205.1,199.2,199.7,189.9,188.1z
			 M207.2,256.1L207.2,256.1L207.2,256.1z"/>
	</g>
</g>
<path class="st0" d="M281.8,135.4c0-8.7-0.1-17.4-0.1-26.1c0-0.5,0.2-1,0.4-1.7c3-2.9,6-5.3,10.3-4.9c4.4,0.4,7.4,2.6,8.7,6.3
	c1.7,4.8,0.6,8.3-2.8,11.5c-3.2,3-6.3,6.1-9.3,9.2c0.2,0.1,0.2,0,0-0.1c-0.3,0.1-0.6,0.4-0.9,0.7C286,132,283.9,133.7,281.8,135.4z"
	/>
<path class="st2" d="M281.8,135.6c2.1-1.9,4.2-3.6,6.5-5.3c0.5-0.2,0.7-0.4,0.9-0.6v0.1c4.5-0.4,8.4,0.5,11.1,4.7
	c2.8,4.5,1.6,10-1.9,13.1c-3.3,2.9-6.4,6.1-9.4,9.2c0.2,0.1,0.2,0.1,0.1,0c-0.3,0.1-0.6,0.3-1,0.7c-2.2,1.7-4.3,3.4-6.4,5.1
	C281.8,153.6,281.8,144.7,281.8,135.6z"/>
<path class="st0" d="M281.8,162.8c2.1-1.9,4.2-3.6,6.6-5.3c0.5-0.2,0.7-0.4,0.9-0.5c0,0,0,0-0.1,0c4.7-0.4,8.8,0.7,11.4,5
	c2.3,3.8,1.8,9.6-2.5,13.3c-3.4,2.8-6.4,6-9.7,9.1c-2.1,1.8-4.2,3.5-6.4,5.2C281.8,180.8,281.8,171.9,281.8,162.8z"/>
<path class="st4" d="M215.9,256.2c9.7,0,19.3,0,28.8,0c3.1,0,4.9,1.4,4.9,3.8s-1.9,4.2-4.9,4.2c-15.4,0-30.9,0-46.3,0
	c-2.1,0-3.8-0.7-4.6-2.9c-0.7-1.9,0.2-3.2,1.6-4.2c0.7-0.5,1.9-0.7,2.8-0.8C204,256.1,209.8,256.2,215.9,256.2z"/>
<g>
	<path class="st5" d="M187.1,196.6c-0.3,0.4-0.7,0.5-1.2,0.5h-4.8V209c0,1.3-0.6,2-1.7,2c-1.3,0-1.9-0.7-1.9-2v-11.9h-4.4
		c-0.5,0-0.9-0.2-1.2-0.5s-0.5-0.7-0.5-1.2s0.1-0.8,0.4-1.1c0.3-0.3,0.7-0.5,1.2-0.5h12.7c0.5,0,0.9,0.2,1.2,0.5
		c0.3,0.4,0.4,0.7,0.4,1.2C187.5,195.9,187.3,196.3,187.1,196.6z"/>
	<path class="st5" d="M207.5,196l-3.7,13.5c-0.3,1-0.9,1.4-1.8,1.4c-1.1,0-1.8-0.5-2-1.4l-2-8.5l-2,8.5c-0.2,0.9-0.8,1.4-1.8,1.4
		s-1.6-0.5-1.9-1.4l-3.8-13.8c-0.1-0.4-0.2-0.7-0.2-0.8c0-0.4,0.2-0.8,0.5-1.1s0.8-0.5,1.2-0.5c0.6,0,1.1,0.2,1.4,0.5
		c0.2,0.3,0.4,0.8,0.6,1.5l2,8.3l2.1-8.8c0.1-0.5,0.3-0.9,0.6-1.2c0.2-0.3,0.6-0.4,1.1-0.4c1,0,1.7,0.5,1.9,1.6l2.1,8.8l2.1-8.4
		c0.3-1.2,0.9-1.9,1.9-1.9c0.5,0,1,0.2,1.3,0.5c0.3,0.4,0.5,0.7,0.5,1.1C207.7,195.1,207.7,195.5,207.5,196z"/>
	<path class="st5" d="M232.1,196.6c-0.4,0.3-0.7,0.5-1.2,0.5h-8.5c-1,0-1.4,0.4-1.4,1.2v3.1h8.7c0.5,0,0.9,0.2,1.2,0.5
		s0.5,0.7,0.5,1.2c0,1.1-0.6,1.6-1.7,1.6H221v4.4c0,1.3-0.6,1.9-1.8,1.9s-1.8-0.6-1.8-1.9v-12.9c0-1.5,0.9-2.3,2.6-2.3h10.9
		c0.5,0,0.9,0.2,1.2,0.5c0.3,0.4,0.5,0.8,0.5,1.2C232.6,196,232.4,196.4,232.1,196.6z"/>
	<path class="st5" d="M239,196.6c-0.4,0.4-0.9,0.5-1.4,0.5c-0.6,0-1.1-0.2-1.5-0.5c-0.4-0.4-0.6-0.8-0.6-1.3s0.2-0.9,0.6-1.3
		c0.4-0.4,0.9-0.5,1.5-0.5s1,0.2,1.4,0.5s0.6,0.8,0.6,1.3S239.4,196.2,239,196.6z M237.6,211c-1.2,0-1.8-0.6-1.8-1.8V201
		c0-0.5,0.2-0.9,0.5-1.2s0.8-0.5,1.3-0.5c1.2,0,1.8,0.6,1.8,1.7v8.2C239.3,210.4,238.7,211,237.6,211z"/>
	<path class="st5" d="M253.7,210.9c-1,0-1.6-0.5-1.7-1.4c-0.8,0.9-2,1.4-3.7,1.4c-1.8,0-3.2-0.5-4.3-1.6s-1.6-2.5-1.6-4.3
		c0-1.7,0.5-3.1,1.6-4.2c1.1-1.1,2.5-1.6,4.3-1.6c1.5,0,2.7,0.4,3.7,1.2v-5.2c0-1.2,0.6-1.8,1.7-1.8c0.6,0,1,0.2,1.3,0.5
		c0.4,0.4,0.5,0.8,0.5,1.3v13.7C255.5,210.3,254.9,210.9,253.7,210.9z M251,203c-0.6-0.6-1.3-0.9-2.1-0.9c-0.9,0-1.6,0.3-2.1,0.8
		c-0.6,0.6-0.9,1.2-0.9,2c0,2,1,3,3,3c0.9,0,1.6-0.3,2.1-0.9c0.6-0.6,0.8-1.3,0.8-2.1C251.9,204.3,251.6,203.6,251,203z"/>
	<path class="st5" d="M271.9,208.4c-1.4,1.7-3.5,2.6-6.2,2.6s-4.8-0.9-6.3-2.6c-1.4-1.6-2-3.7-2-6.2s0.7-4.6,2.1-6.2
		c1.5-1.7,3.5-2.5,6.1-2.5c2.5,0,4.5,0.9,6,2.5s2.2,3.7,2.2,6.2C273.8,204.7,273.2,206.8,271.9,208.4z M269.3,198.4
		c-0.8-1.2-2-1.8-3.6-1.8s-2.7,0.6-3.6,1.7c-0.8,1-1.1,2.3-1.1,3.9c0,1.5,0.4,2.8,1.1,3.7c0.8,1.1,2,1.7,3.6,1.7s2.8-0.5,3.6-1.6
		c0.7-1,1-2.2,1-3.8C270.3,200.7,269.9,199.4,269.3,198.4z"/>
</g>
<g>
	<g>
		<path class="st5" d="M248.6,104.1c-1.7-3.1-4.7-5.2-8.2-5.8c-3.6-0.6-7.4,0.6-10.1,3.1l-6.4,6c-1.3,1.2-3.3,1.1-4.5-0.1l-4.7-4.9
			c-2.5-2.6-6-4.1-9.6-3.9c-4,0.3-7.4,2.4-9.2,5.8c-1,1.7-1.5,3.7-1.5,5.8v38.2c0,1.9,2.2,2.8,3.6,1.5l5.8-5.6
			c0.4-0.4,0.6-0.9,0.6-1.5V110c0-0.3,0.1-0.7,0.2-0.9c0.2-0.4,0.5-0.6,1-0.6c0.6-0.1,1.2,0.1,1.6,0.6l4.9,5.2
			c5,5.2,13.3,5.4,18.6,0.5l6.4-6c0.4-0.4,1-0.6,1.6-0.5c0.5,0.1,0.8,0.3,1,0.7c0.1,0.3,0.2,0.6,0.2,0.9v56.8c0,3.4-2.7,6.1-6.1,6.1
			h-26.1c-1.8,0-3.4-1.5-3.4-3.3c0-1.3,0.4-2.6,1.2-3.6l17.6-22.2l2,1.6c0.6,0.5,1.5,0,1.4-0.8l-0.6-4.5l-0.7-5.8
			c-0.1-0.5-0.5-0.8-1-0.8l-5.8,0.6l-4.5,0.5c-0.8,0.1-1.1,1.1-0.5,1.6l1.8,1.4l-17.6,22.1c-2.2,2.8-3.4,6.3-3.4,9.9
			c0.1,7.4,6.3,13.3,13.7,13.3h25.7c8.9,0,16.1-7.2,16.1-16.1v-56.8C250,107.8,249.5,105.8,248.6,104.1z"/>
	</g>
</g>
</svg>
