<?xml version="1.0" encoding="utf-8"?>
<!-- Generator: Adobe Illustrator 27.7.0, SVG Export Plug-In . SVG Version: 6.00 Build 0)  -->
<svg version="1.1" id="Layer_1" xmlns="http://www.w3.org/2000/svg" xmlns:xlink="http://www.w3.org/1999/xlink" x="0px" y="0px"
	 viewBox="0 0 426 293" style="enable-background:new 0 0 426 293;" xml:space="preserve">
<style type="text/css">
	.st0{fill:#CCCCCC;}
	.st1{fill:#676766;}
	.st2{fill:#4F4D4D;}
	.st3{fill:#BABABA;}
	.st4{fill:#E6E6E6;}
	.st5{fill:#BFBEBE;}
	.st6{fill:#A6A3A3;}
	.st7{fill:#B3B3B3;}
	.st8{fill:#F9F6ED;}
	.st9{fill:#E9E5DA;}
	.st10{fill:#FFB70E;}
	.st11{fill:#92B621;}
	.st12{fill:#F94B47;}
	.st13{fill:#EA3B3B;}
	.st14{fill:#8BA61C;}
	.st15{fill:#EAA313;}
	.st16{fill:#B5B5B5;}
	.st17{fill:#FFB811;}
	.st18{fill:#F94E4A;}
	.st19{fill:#94B723;}
	.st20{fill:url(#SVGID_1_);}
	.st21{fill:#E2B551;}
	.st22{fill:#FBCB55;}
	.st23{fill:#FBCA55;}
	.st24{fill:#FBCB56;}
	.st25{fill:#FFFFFF;}
	.st26{enable-background:new    ;}
	.st27{fill:#25A3DA;}
</style>
<g>
	<path class="st0" d="M129.1,277.5c0.8-3.8,1.5-7.6,2.2-11.4c1.4-7.6,2.8-15.3,4.2-23.2c-24.1,0-47.9,0-72-0.2
		c-0.7-0.4-1.1-0.7-1.5-0.8c-4-1.3-7.6-5.6-7.7-9.6c-0.1-8.9,0-17.9,0-26.9c0,0,0-0.1,0.2-0.1c0.6,0.1,0.9,0.1,1.2,0.1
		c79,0,158,0,237,0c0.7,0,1.3-0.1,2-0.1c0,9.5,0,19.1,0,28.9c-1.4,3.5-3.3,6.5-6.9,7.6c-2.1,0.7-4.4,1.1-6.6,1.1
		c-28,0.1-56,0-84.3-0.1c-0.7-0.2-1-0.3-1.4-0.3c-14.8,0-29.6,0-44.4-0.1c-2.1,0-2.2,1.2-2.5,2.6c-1.5,8-3,16-4.4,24
		c-0.5,2.7-0.8,5.5-1.2,8.3c0.8,0.1,1.1,0.2,1.4,0.2c19.5,0,39,0,58.5-0.1c2.7,0,5.3,0.1,8,0.1c4.3,0,7.4,3.1,7.3,7.1
		c-0.1,4.1-3.1,6.9-7.3,6.9c-23.2,0-46.3,0-69.8-0.2c-3.2-1.5-5-3.7-5.1-6.9c0-3.2,2-5.2,5-7C136.8,277.5,132.9,277.5,129.1,277.5
		 M165.4,217.2c-3.4,0.3-5.9,2.9-6.1,6.1c-0.2,3.3,1.5,6,4.4,7.1c3.4,1.3,6,0.3,8.8-3.4c1.6-2.6,1-5.2-0.7-7.4
		C170.3,217.7,168.4,216.4,165.4,217.2z"/>
	<path class="st1" d="M294.8,205c-0.7,0.3-1.3,0.3-2,0.3c-79,0-158,0-237,0c-0.3,0-0.7,0-1.2-0.3c-0.2-6.4-0.1-12.5,0-18.4
		c1.5,1,2.9,2.5,4.4,2.7c3.6,0.3,7.3,0,11.2,0c2.2,0,4.2,0,6.3,0c39,0,78,0,116.9,0c26.3,0,52.5,0,78.8,0c4.3,0,6.1-1.6,6.1-5.5
		c0-37.8,0-75.6,0-113.4c0-3.7-1.8-5.5-5.6-5.6c-0.8,0-1.5,0-2.3,0c-65.4,0-130.8,0-196.2,0c-1.6,0-3.2,0-5,0c-3.1,0-6-0.3-8.9,0
		c-1.8,0.2-3.6,1.3-5.5,1.8c-0.3-2.2-0.4-4.2-0.5-6.3c-0.2-3.4,1-6.2,3.5-8.4c1.2-1.1,2.4-2.2,3.8-3.3c3.3,0,6.4,0,9.5,0
		c70.9,0,141.7,0,212.6,0c1.1,0,2.1,0.1,3.2,0.4c4.2,0.9,6.3,4.1,7.9,7.7C294.8,106,294.8,155.4,294.8,205z"/>
	<path class="st2" d="M54.5,186.5c0,6.1-0.1,12.2-0.1,18.5c0,0.2,0,0.3-0.2,0.3c-5.6,0-11-0.1-16.4-0.1c0-49.4,0-98.7,0.2-148.4
		c1.5-4.7,5.3-8.1,9.4-8.2c4.7-0.1,9.3,0,14,0c-1.2,1.1-2.4,2.2-3.6,3.2c-2.5,2.2-3.6,5-3.5,8.4c0.1,2.1,0.2,4.1,0.4,6.5
		c-0.1,1.5-0.4,2.6-0.4,3.7c0,37.6,0,75.3,0,112.9C54.3,184.5,54.4,185.5,54.5,186.5z"/>
	<path class="st3" d="M37.8,205.5c5.4-0.2,10.8-0.2,16.4-0.1c0.2,9,0.1,17.9,0.2,26.9c0,4,3.6,8.3,7.7,9.6c0.4,0.1,0.8,0.4,1.3,0.8
		c-5.1,0.1-10.1,0-15.2-0.2c-5-0.2-8-3.2-10.2-7.6C37.8,225.2,37.8,215.4,37.8,205.5z"/>
	<path class="st4" d="M202.9,277.2c-19.5,0.2-39,0.3-58.4,0.3c-0.3,0-0.6-0.1-1.4-0.2c0.4-2.8,0.7-5.6,1.2-8.3c1.4-8,2.9-16,4.4-24
		c0.3-1.4,0.4-2.7,2.5-2.6c14.8,0.1,29.6,0,44.4,0.1c0.3,0,0.6,0.1,1.1,0.3c1.8,9.2,3.5,18.2,5.1,27.2
		C202.3,272.3,202.6,274.7,202.9,277.2z"/>
	<path class="st5" d="M128.9,277.5c4.1,0,7.9,0,12.4,0c-3.1,1.8-5.1,3.8-5,7c0,3.2,1.9,5.4,4.8,6.9c-6.7,0.1-13.4,0.2-20.2,0.2
		c-3.7,0-6.7-3.3-6.7-7c0-3.7,3-6.9,6.7-7C123.5,277.5,126,277.5,128.9,277.5z"/>
	<path class="st6" d="M172.3,227.4c-2.6,3.4-5.2,4.3-8.6,3c-2.9-1.1-4.6-3.8-4.4-7.1c0.2-3.2,2.7-5.8,6.3-5.9
		C164.5,223.1,167.1,226.9,172.3,227.4z"/>
	<path class="st7" d="M172.3,227.2c-5.2-0.2-7.8-4.1-6.6-9.7c2.6-1,4.5,0.3,6,2.2C173.4,221.8,174,224.4,172.3,227.2z"/>
	<path class="st8" d="M69.4,64.8c1.6,0,3.2-0.1,4.8-0.1c65.4,0,130.8,0,196.2,0c0.8,0,1.5,0,2.3,0c3.7,0.1,5.6,1.9,5.6,5.6
		c0,37.8,0,75.6,0,113.4c0,3.9-1.8,5.5-6.1,5.5c-26.3,0-52.5,0-78.8,0c-39,0-78,0-116.9,0c-2,0-4,0-6.3-0.1c-2.4-1.8-2.8-4-2.7-6.6
		c0.1-19.7,0-39.4,0.1-59.1c0-13.3,0-26.6,0.2-39.7c0.7,0.6,1.1,1.2,1.7,1.7c1.6,1.2,3.2,1.3,4.6-0.3c1.4-1.5,1.4-3.1,0.4-4.8
		c-1.4-2.2-3.8-2.2-6.5-0.2C67.7,74.9,65.9,69.5,69.4,64.8 M246.9,133.3c0.2-0.3,0.3-0.6,0.6-0.8c5.2-6.8,5.7-15,1.3-22.2
		c-3.9-6.5-11.6-9.7-20.1-8.4c-10.7,2.7-16.9,12.2-14.6,22.6c1.7,7.6,6.4,12.6,13.9,14.5C235.1,140.7,241.5,139,246.9,133.3
		 M162.3,101.8c-10.7,2.2-17.5,13-14.6,23.5c2.1,7.7,7.3,12.6,15.1,14c6.8,1.2,13.1-0.6,18-6.4c5.4-6.8,6-15,1.7-22.3
		C178.4,103.8,170.8,100.5,162.3,101.8 M95.6,101.9c-11.6,3-17.7,14.4-13.6,25.4c2.5,6.8,7.6,11,14.7,12.1c6.8,1,12.9-0.7,17.7-6.5
		c5.4-6.9,6.1-15,1.7-22.4C112.4,104.3,104.3,100,95.6,101.9 M222.7,78.7c-36.9,0-73.7,0-110.6,0c-0.9,0-1.9-0.1-2.8,0
		c-2.1,0.3-3.3,1.5-3.4,3.7c-0.1,2.6,1.5,3.9,4.9,3.9c49.2,0,98.3,0,147.5,0c0.4,0,0.8,0,1.3,0c2.4-0.2,3.6-1.5,3.5-3.9
		c-0.1-2.5-1.4-3.6-4.4-3.6C247,78.7,235.1,78.7,222.7,78.7 M88.2,151.1c-3.7,0-7.4,0-11,0c-0.8,0-1.7,0.1-2.5,0.3
		c-2.2,0.5-3.4,2.1-3.1,4.2c0.2,2,1.7,3.5,3.9,3.5c16.2,0,32.4,0,48.6,0c0.2,0,0.3,0,0.5,0c2-0.4,3.3-1.6,3.4-3.7
		c0.1-2-0.9-3.4-2.9-3.8c-1-0.2-2.1-0.4-3.2-0.4C110.9,151.1,99.8,151.1,88.2,151.1 M244.3,159.1c4,0,8,0,12,0
		c2.6,0,4.5-1.5,4.7-3.6c0.2-2.1-1.7-4-4.3-4.3c-0.5-0.1-1,0-1.5,0c-15,0-29.9,0-44.9,0c-1.1,0-2.2,0.2-3.2,0.4
		c-2,0.5-2.9,1.9-2.7,3.9c0.2,2,1.4,3.2,3.3,3.5c0.7,0.1,1.5,0.1,2.2,0.1C221.3,159.1,232.5,159.1,244.3,159.1 M146,151.1
		c-1.6,0.1-3.2,0.1-4.7,0.4c-2.4,0.5-3.5,2.2-3.1,4.5c0.3,1.9,2,3.1,4.8,3.1c15.5,0,31.1,0,46.6,0c0.4,0,0.8,0,1.3,0
		c2-0.4,3.5-1.3,3.6-3.5c0.1-2.2-0.7-3.8-3.1-4.1c-1.1-0.1-2.1-0.3-3.2-0.3C174.2,151.1,160.3,151.1,146,151.1 M79.2,175.1
		c14.7,0,29.4,0,44.1,0c3.1,0,4.8-1.4,4.8-3.8c0.1-2.4-1.6-3.7-4.8-3.7c-11.3,0-22.5,0-33.8,0c-4.7,0-9.4,0-14,0
		c-2.4,0-4,1.7-3.9,3.7c0.1,2.1,1.7,3.7,3.9,3.8C76.5,175.2,77.6,175.1,79.2,175.1 M239.8,175.1c5.5,0,11,0,16.6,0
		c2.8,0,4.6-1.5,4.6-3.9c0-2.2-1.7-3.7-4.5-3.7c-16,0-32,0-47.9,0c-0.9,0-1.8,0.2-2.6,0.7c-1.5,1-2,2.5-1.4,4.2
		c0.7,2,2.3,2.7,4.3,2.7C219.1,175.1,229.2,175.1,239.8,175.1 M165.5,167.6c-7.7,0-15.4,0-23.1,0c-2.1,0-3.8,0.6-4.3,2.9
		c-0.5,2.8,1.3,4.7,4.7,4.7c15.6,0,31.3,0,46.9,0c3.1,0,4.8-1.4,4.7-3.9c-0.1-2.6-1.4-3.6-4.6-3.7
		C181.9,167.5,174,167.6,165.5,167.6 M84.4,78.9c-3.7-0.3-6.2,2.4-4.5,5.1c0.7,1.1,2.5,2.2,3.7,2.1c1.1,0,2.7-1.4,3.2-2.5
		C87.6,81.7,86.6,80,84.4,78.9 M97.8,79.7c-2.4-1.4-4.2-1.3-5.5,0.5c-1.1,1.5-1.2,3.1,0.1,4.6c1.2,1.4,3.8,1.3,5.5,0
		C99.7,83.3,99.3,81.7,97.8,79.7z"/>
	<path class="st9" d="M69.2,64.8c-3.3,4.8-1.5,10.1-1.5,15.6c0,1.3-0.1,2.3-0.3,3.3c0,13.3-0.1,26.6-0.1,39.8
		c0,19.7,0,39.4-0.1,59.1c0,2.6,0.3,4.8,2.5,6.6c-3.6,0.2-7.3,0.5-10.9,0.2c-1.5-0.1-2.8-1.7-4.4-2.7c-0.2-1.1-0.3-2.1-0.3-3.1
		c0-37.6,0-75.3,0-112.9c0-1.1,0.3-2.3,0.6-3.6c1.8-0.9,3.6-1.9,5.4-2.1C63.1,64.5,66.1,64.7,69.2,64.8z"/>
	<path class="st7" d="M223,78.7c12.1,0,24,0,35.9,0c3,0,4.3,1.1,4.4,3.6c0.1,2.4-1.1,3.7-3.5,3.9c-0.4,0-0.8,0-1.3,0
		c-49.2,0-98.3,0-147.5,0c-3.4,0-5-1.3-4.9-3.9c0.1-2.2,1.3-3.4,3.4-3.7c0.9-0.1,1.8,0,2.8,0C149,78.7,185.9,78.7,223,78.7z"/>
	<path class="st10" d="M96,101.9c8.3-1.9,16.4,2.4,20.1,8.5c4.4,7.4,3.8,15.4-2,22.4c-2.6,0-4.9,0.3-7.1-0.1
		c-11.9-2.4-18.5-16.1-13.1-27C94.5,104.4,95.3,103.2,96,101.9z"/>
	<path class="st11" d="M162.7,101.9c8-1.4,15.7,1.9,19.7,8.6c4.4,7.3,3.7,15.5-2.1,22.4c-4.5,0.2-8.5,0.1-12.2-2.2
		c-6.5-3.9-9.7-9.7-9.9-17.1C158.2,109.3,160,105.3,162.7,101.9z"/>
	<path class="st12" d="M229,101.9c8.1-1.4,15.8,1.9,19.7,8.4c4.4,7.3,3.9,15.4-1.3,22.2c-0.2,0.3-0.4,0.6-0.8,0.8
		c-1.5-0.1-2.8-0.2-4-0.3c-5.5-0.4-10.1-2.6-13.5-7C223.2,118.6,223.8,109.2,229,101.9z"/>
	<path class="st13" d="M228.8,101.9c-5,7.4-5.6,16.7,0.2,24.1c3.5,4.4,8,6.6,13.5,7c1.2,0.1,2.5,0.1,3.9,0.3
		c-5,5.7-11.4,7.4-18.5,5.6c-7.5-1.9-12.3-6.9-13.9-14.5C211.7,114,217.9,104.5,228.8,101.9z"/>
	<path class="st14" d="M162.5,101.9c-2.6,3.4-4.3,7.4-4.2,11.7c0.1,7.4,3.4,13.2,9.9,17.1c3.7,2.3,7.7,2.4,12.1,2.3
		c-4.4,5.7-10.6,7.5-17.5,6.2c-7.8-1.4-12.9-6.3-15.1-14C144.8,114.9,151.6,104.1,162.5,101.9z"/>
	<path class="st15" d="M95.8,101.9c-0.5,1.3-1.3,2.5-2,3.9c-5.4,10.9,1.2,24.7,13.1,27c2.2,0.4,4.5,0.1,7,0.2
		c-4.3,5.7-10.4,7.4-17.2,6.4c-7.1-1.1-12.2-5.3-14.7-12.1C77.9,116.2,84,104.9,95.8,101.9z"/>
	<path class="st16" d="M88.5,151.1c11.4,0,22.5,0,33.6,0c1.1,0,2.2,0.2,3.2,0.4c2,0.4,3,1.8,2.9,3.8c-0.1,2.1-1.4,3.3-3.4,3.7
		c-0.2,0-0.3,0-0.5,0c-16.2,0-32.4,0-48.6,0c-2.3,0-3.7-1.4-3.9-3.5c-0.2-2.1,0.9-3.7,3.1-4.2c0.8-0.2,1.6-0.3,2.5-0.3
		C80.9,151.1,84.5,151.1,88.5,151.1z"/>
	<path class="st16" d="M244.1,159.1c-11.5,0-22.8,0-34.1,0c-0.8,0-1.5,0.1-2.2-0.1c-1.9-0.4-3.1-1.5-3.3-3.5c-0.2-2,0.7-3.4,2.7-3.9
		c1-0.3,2.1-0.4,3.2-0.4c15,0,29.9,0,44.9,0c0.5,0,1,0,1.5,0c2.6,0.3,4.5,2.2,4.3,4.3c-0.2,2.1-2,3.6-4.7,3.6
		C252.3,159.1,248.3,159.1,244.1,159.1z"/>
	<path class="st16" d="M146.2,151.1c14.1,0,28,0,41.9,0c1.1,0,2.1,0.2,3.2,0.3c2.4,0.3,3.2,1.9,3.1,4.1c-0.1,2.3-1.6,3.1-3.6,3.5
		c-0.4,0.1-0.8,0-1.3,0c-15.5,0-31.1,0-46.6,0c-2.8,0-4.5-1.1-4.8-3.1c-0.4-2.4,0.7-4.1,3.1-4.5
		C142.8,151.2,144.4,151.2,146.2,151.1z"/>
	<path class="st7" d="M79,175.1c-1.3,0-2.4,0-3.5,0c-2.2-0.1-3.8-1.8-3.9-3.8c-0.1-2,1.5-3.7,3.9-3.7c4.7-0.1,9.4,0,14,0
		c11.3,0,22.5,0,33.8,0c3.2,0,4.9,1.3,4.8,3.7c-0.1,2.5-1.7,3.8-4.8,3.8C108.6,175.1,93.9,175.1,79,175.1z"/>
	<path class="st7" d="M239.5,175.1c-10.4,0-20.5,0-30.6,0c-2.1,0-3.6-0.7-4.3-2.7c-0.6-1.7-0.1-3.2,1.4-4.2c0.7-0.5,1.7-0.7,2.6-0.7
		c16,0,32,0,47.9,0c2.8,0,4.5,1.5,4.5,3.7c-0.1,2.3-1.8,3.9-4.6,3.9C250.8,175.2,245.3,175.1,239.5,175.1z"/>
	<path class="st7" d="M165.8,167.6c8.2,0,16.1,0,24.1,0c3.2,0,4.5,1.1,4.6,3.7c0.1,2.5-1.6,3.9-4.7,3.9c-15.6,0-31.3,0-46.9,0
		c-3.4,0-5.2-1.8-4.7-4.7c0.4-2.4,2.1-2.9,4.3-2.9C150.1,167.6,157.8,167.6,165.8,167.6z"/>
	<path class="st17" d="M84.6,79c2,1.1,3,2.7,2.2,4.6c-0.5,1.2-2.1,2.5-3.2,2.5c-1.2,0-3-1-3.7-2.1C78.2,81.3,80.7,78.6,84.6,79z"/>
	<path class="st18" d="M67.6,83.7c0-1.1,0.1-2.1,0.3-3.2c2.6-2.3,5-2.3,6.4-0.1c1.1,1.6,1,3.3-0.4,4.8c-1.4,1.6-3,1.5-4.6,0.3
		C68.7,84.9,68.2,84.3,67.6,83.7z"/>
	<path class="st19" d="M97.9,79.9c1.4,1.8,1.8,3.5-0.1,5c-1.7,1.3-4.4,1.4-5.5,0c-1.3-1.5-1.2-3.1-0.1-4.6
		C93.5,78.4,95.4,78.3,97.9,79.9z"/>
</g>
<g>
	
		<linearGradient id="SVGID_1_" gradientUnits="userSpaceOnUse" x1="281" y1="215" x2="281" y2="77.9099" gradientTransform="matrix(1 0 0 -1 0 294)">
		<stop  offset="0" style="stop-color:#D85983"/>
		<stop  offset="0.4746" style="stop-color:#F69175"/>
		<stop  offset="1" style="stop-color:#EF4051"/>
	</linearGradient>
	<path class="st20" d="M371.3,217H190.7c-8.2,0-14.9-6.7-14.9-14.9V93.9c0-8.2,6.7-14.9,14.9-14.9h180.6c8.2,0,14.9,6.7,14.9,14.9
		V202C386.3,210.3,379.6,217,371.3,217z"/>
	<g>
		<path class="st21" d="M192.7,157.2c0-2.3-0.1-4.6,0.1-7.1c2.7-0.2,5-0.1,7.4-0.2c3.1,0,3.1,0,3.1-3c0-5,0-10.1,0-15.2
			c2.3,0,4.5,0,7,0.2c0.2,4.6,0.2,9,0.2,13.4c0,5.1-0.6,4.5,4.6,4.7c1.9,0,2.6-0.6,2.6-2.5c-0.1-5.2,0-10.4,0-15.7
			c2.3,0,4.5,0,7,0.2c0.2,5.3,0.3,10.4,0.2,15.4c0,1.9,0.6,2.7,2.5,2.6c2.8-0.1,5.6,0,8.4,0c0,2.3,0,4.5-0.2,7
			c-7.8,0.2-15.3,0.3-22.8,0.2c-1.9,0-2.5,0.6-2.4,2.5c0.1,2.8,0,5.5,0,8.2c-2.3,0-4.6,0.1-7.1-0.1c-0.2-3-0.2-5.8-0.1-8.5
			c0-1.4-0.6-2-2-2C198.5,157.3,195.6,157.2,192.7,157.2z"/>
		<path class="st22" d="M210.8,167.9c-0.2-2.8-0.1-5.5-0.2-8.3c-0.1-1.8,0.6-2.5,2.4-2.5c7.6,0.1,15.1,0,22.8,0
			c0.2,0.3,0.3,0.6,0.3,0.8c0.6,7-2.9,10.3-9.7,9.9C221.3,167.7,216.1,167.9,210.8,167.9z"/>
		<path class="st22" d="M236,149.8c-2.8,0.2-5.6,0.1-8.4,0.2c-2,0.1-2.6-0.8-2.5-2.6c0.1-5,0-10.1,0-15.4c7.5-1,11.7,1.7,11,10.2
			C235.9,144.6,236,147.1,236,149.8z"/>
		<path class="st22" d="M203.2,131.8c0.2,5.1,0.2,10.1,0.2,15.2c0,3,0,3-3.1,3c-2.4,0-4.8,0-7.4,0c-0.2-3.5-0.3-7-0.3-10.5
			c0-4.8,2.9-7.7,7.8-7.7C201.3,131.7,202.1,131.7,203.2,131.8z"/>
		<path class="st23" d="M217.6,131.8c0.2,5.3,0.1,10.5,0.3,15.7c0,2-0.7,2.6-2.6,2.5c-5.3-0.1-4.6,0.5-4.6-4.7c0-4.4,0-8.7,0-13.3
			C212.9,131.8,215.1,131.8,217.6,131.8z"/>
		<path class="st24" d="M192.7,157.4c2.9-0.2,5.8-0.2,8.7-0.2c1.4,0,2,0.6,2,2c0,2.8,0,5.5,0,8.4
			C195.9,168.7,191.9,165.7,192.7,157.4z"/>
	</g>
	<path class="st25" d="M333.9,206.3L333.9,206.3c-2,0-3.6-1.6-3.6-3.6v-19.9c0-2,1.6-3.6,3.6-3.6l0,0c2,0,3.6,1.6,3.6,3.6v19.9
		C337.5,204.7,335.9,206.3,333.9,206.3z"/>
	<path class="st25" d="M281,206.3L281,206.3c-2,0-3.6-1.6-3.6-3.6v-19.9c0-2,1.6-3.6,3.6-3.6l0,0c2,0,3.6,1.6,3.6,3.6v19.9
		C284.6,204.7,283,206.3,281,206.3z"/>
	<path class="st25" d="M366.7,206.3L366.7,206.3c-2,0-3.6-1.6-3.6-3.6v-19.9c0-2,1.6-3.6,3.6-3.6l0,0c2,0,3.6,1.6,3.6,3.6v19.9
		C370.3,204.7,368.7,206.3,366.7,206.3z"/>
	<path class="st25" d="M346.7,206.3L346.7,206.3c-2.8,0-5-2.2-5-5v-17c0-2.8,2.2-5,5-5l0,0c2.8,0,5,2.2,5,5v17
		C351.7,204.1,349.5,206.3,346.7,206.3z"/>
	<path class="st25" d="M321.7,206.3L321.7,206.3c-2.8,0-5-2.2-5-5v-17c0-2.8,2.2-5,5-5l0,0c2.8,0,5,2.2,5,5v17
		C326.7,204.1,324.5,206.3,321.7,206.3z"/>
	<path class="st25" d="M305.4,206.3L305.4,206.3c0.8,0,1.5-0.7,1.5-1.5v-24.1c0-0.8-0.7-1.5-1.5-1.5l0,0c-0.8,0-1.5,0.7-1.5,1.5
		v24.1C303.9,205.6,304.6,206.3,305.4,206.3z"/>
	<path class="st25" d="M311.7,206.3L311.7,206.3c0.8,0,1.5-0.7,1.5-1.5v-24.1c0-0.8-0.7-1.5-1.5-1.5l0,0c-0.8,0-1.5,0.7-1.5,1.5
		v24.1C310.3,205.6,310.9,206.3,311.7,206.3z"/>
	<path class="st25" d="M289.7,206.3L289.7,206.3c0.8,0,1.5-0.7,1.5-1.5v-24.1c0-0.8-0.7-1.5-1.5-1.5l0,0c-0.8,0-1.5,0.7-1.5,1.5
		v24.1C288.2,205.6,288.9,206.3,289.7,206.3z"/>
	<path class="st25" d="M296,206.3L296,206.3c0.8,0,1.5-0.7,1.5-1.5v-24.1c0-0.8-0.7-1.5-1.5-1.5l0,0c-0.8,0-1.5,0.7-1.5,1.5v24.1
		C294.6,205.6,295.2,206.3,296,206.3z"/>
	<path class="st25" d="M357.4,206.3L357.4,206.3c0.8,0,1.5-0.7,1.5-1.5v-24.1c0-0.8-0.7-1.5-1.5-1.5l0,0c-0.8,0-1.5,0.7-1.5,1.5
		v24.1C356,205.6,356.6,206.3,357.4,206.3z"/>
	<g class="st26">
		<path class="st25" d="M238.4,94.5c0.2,0.2,0.3,0.4,0.3,0.6c0,0.2-0.1,0.4-0.2,0.6c-0.1,0.2-0.3,0.5-0.4,0.6h6.4
			c1.1,0,1.7,0.5,1.7,1.6v13.5c0,1.1-0.6,1.6-1.7,1.6h-12.8c-1.1,0-1.6-0.5-1.6-1.6V97.9c0-1.1,0.5-1.6,1.6-1.6h4.4
			c0.1-0.1,0.1-0.2,0.2-0.3c0.3-0.5,0.5-1,0.8-1.5c0.2-0.2,0.4-0.3,0.7-0.3C238,94.2,238.2,94.3,238.4,94.5z M244.5,101.3v-2.7
			c0-0.4-0.2-0.7-0.6-0.7h-11.5c-0.4,0-0.6,0.2-0.6,0.7v2.7H244.5z M244.5,106.3v-3.4h-12.7v3.4H244.5z M244.5,110.8v-2.9h-12.7v2.9
			c0,0.4,0.2,0.6,0.6,0.6h11.5C244.2,111.4,244.5,111.2,244.5,110.8z"/>
		<path class="st25" d="M260.5,96.4c0,0.7-0.1,1.5-0.3,2.3h3.1v-3.4c0-0.5,0.3-0.8,0.8-0.8s0.8,0.3,0.8,0.8v3.4h4.2
			c0.5,0,0.7,0.2,0.7,0.7c0,0.5-0.2,0.8-0.7,0.8h-4c0,0.1,0,0.1,0.1,0.2c0.2,0.7,0.5,1.3,1,2c0.4,0.6,1,1.2,1.8,1.9
			c0.5,0.5,1.1,1,2,1.5c0.2,0.2,0.2,0.4,0.2,0.6c0,0.6-0.3,0.9-0.9,1c-0.2,0-0.4-0.1-0.6-0.2c-0.9-0.6-1.7-1.3-2.3-1.9
			c-0.6-0.6-1.1-1.2-1.4-1.8c-0.4-0.6-0.7-1.3-0.9-1.9c-0.2,0.6-0.5,1.3-0.8,1.8c-0.3,0.6-0.7,1.2-1.3,1.8c-0.6,0.7-1.2,1.3-2,2
			c-0.2,0.2-0.4,0.2-0.6,0.2c-0.6,0-1-0.4-1-1.1c0-0.2,0.1-0.4,0.2-0.6c0.8-0.6,1.5-1.2,1.9-1.7c0.7-0.6,1.2-1.3,1.6-2
			c0.4-0.6,0.6-1.2,0.8-1.8c0,0,0-0.1,0-0.1h-3c-0.2,0-0.3,0-0.4-0.1c-0.5,1.4-1.2,2.7-2.1,3.7c-1.2,1.3-2.8,2.4-4.7,3.4
			c-0.3,0.1-0.6,0.2-0.8,0.2c-0.5,0-0.8-0.3-0.8-0.9c0-0.4,0.1-0.6,0.4-0.8c1.6-0.7,2.8-1.4,3.6-2.1c-0.4-0.4-0.7-0.7-1-1
			c-0.3-0.2-0.6-0.4-0.8-0.7c-0.2-0.2-0.2-0.4-0.2-0.6c0-0.5,0.2-0.7,0.7-0.7c0.1,0,0.3,0.1,0.5,0.2c0.3,0.3,0.6,0.5,0.9,0.8
			s0.6,0.6,1,1c0.4-0.4,0.8-0.9,1.1-1.5c0,0-0.1,0-0.1,0c-0.5-0.5-1-0.9-1.3-1.2c-0.3-0.2-0.6-0.5-1-0.7c-0.2-0.2-0.2-0.4-0.2-0.6
			c0-0.5,0.2-0.7,0.7-0.7c0.1,0,0.3,0.1,0.5,0.1c0.4,0.3,0.8,0.6,1.1,0.8c0.3,0.2,0.6,0.5,1,0.9c0-0.1,0.1-0.2,0.1-0.3
			c0.4-0.9,0.6-1.8,0.6-2.6c0-0.3-0.2-0.5-0.5-0.5h-2.7c-0.4,0-0.7,0.1-0.7,0.4c-0.3,1.3-0.7,2.4-1.2,3.1c-0.5,0.6-0.9,1.2-1.4,1.6
			c-0.2,0.2-0.4,0.2-0.6,0.2c-0.6,0-0.9-0.3-0.9-0.9c0-0.2,0-0.5,0.1-0.6c0.8-0.7,1.3-1.3,1.7-1.9c0.4-0.7,0.7-1.5,0.8-2.5
			c0.1-0.7,0.7-1.1,1.8-1.1h3.6C260,94.8,260.5,95.3,260.5,96.4z M254.7,108.3c0.2,0.2,0.3,0.3,0.3,0.5c0,0.1,0,0.2-0.1,0.4
			c-0.6,1.4-1.3,2.6-2.1,3.6c-0.2,0.3-0.5,0.4-0.8,0.4c-0.5,0-0.8-0.2-0.8-0.7c0-0.2,0-0.3,0.1-0.4c0.7-1,1.4-2.2,2.1-3.6
			c0.1-0.2,0.3-0.4,0.6-0.4C254.3,108.1,254.5,108.2,254.7,108.3z M259.3,108.9c0,0.2,0,0.4-0.1,0.6c-0.2,1.3-0.4,2.4-0.7,3.5
			c-0.2,0.3-0.5,0.4-0.8,0.4c-0.6,0-0.9-0.2-0.9-0.7c0-0.2,0-0.4,0.1-0.6c0.3-1.1,0.6-2.2,0.8-3.4c0.1-0.4,0.3-0.6,0.7-0.6
			C259,108.1,259.3,108.4,259.3,108.9z M263.3,108.6c0.2,0.7,0.5,1.8,0.7,3.3c0,0.3,0.1,0.5,0.1,0.6c0,0.5-0.3,0.7-0.8,0.7
			c-0.5,0-0.8-0.2-0.8-0.7c-0.2-1.4-0.4-2.5-0.7-3.5l-0.1-0.3c0-0.4,0.2-0.6,0.7-0.6C262.9,108.1,263.1,108.3,263.3,108.6z
			 M267.2,95.3c0.7,0.5,1.4,1,2,1.5c0,0.2,0.1,0.3,0.1,0.4c0,0.5-0.3,0.8-0.9,0.8c-0.2,0-0.3,0-0.5-0.1c-0.6-0.5-1.3-1-1.9-1.5
			c-0.1-0.2-0.2-0.4-0.2-0.5c0-0.5,0.3-0.8,0.9-0.8C266.9,95.1,267,95.2,267.2,95.3z M267.7,108.4c0.8,1,1.5,2.2,2.1,3.5
			c0,0.2,0.1,0.5,0.1,0.7c0,0.4-0.3,0.7-1,0.7c-0.3,0-0.5-0.2-0.6-0.6c-0.6-1.5-1.3-2.7-1.9-3.6c-0.1-0.2-0.1-0.4-0.1-0.5
			c0-0.4,0.3-0.6,0.8-0.6C267.3,108.1,267.5,108.2,267.7,108.4z"/>
		<path class="st25" d="M283.8,95v2.1c0,1,0.2,2.1,0.5,3.4c0.4,1.4,0.9,2.8,1.7,4.1c0.7,1.3,1.7,2.6,3,3.8c0.8,0.9,1.9,1.9,3.4,3.1
			c0.2,0.2,0.3,0.4,0.3,0.6c0,0.7-0.4,1.1-1,1.1c-0.2,0-0.4-0.1-0.6-0.2c-1.6-1.2-2.9-2.5-4.1-3.8c-1.1-1.3-1.9-2.4-2.5-3.6
			c-0.7-1.2-1.3-2.5-1.6-3.7c-0.4,1.2-0.9,2.4-1.6,3.6c-0.6,1.2-1.5,2.4-2.5,3.6c-1.1,1.4-2.4,2.7-4,3.9c-0.2,0.2-0.4,0.2-0.6,0.2
			c-0.7,0-1-0.4-1.1-1.1c0-0.2,0.1-0.4,0.3-0.6c1.6-1.3,2.8-2.5,3.7-3.5c1.2-1.3,2.2-2.7,3-4.1c0.7-1.3,1.2-2.5,1.5-3.6
			c0.3-1.2,0.4-2.3,0.4-3.2V95c0-0.6,0.3-0.9,0.9-0.9C283.5,94.1,283.8,94.4,283.8,95z"/>
		<path class="st25" d="M299.8,101.5c0,0.1,0,0.3-0.1,0.5c-0.5,1.3-1,2.3-1.5,3.1c-0.5,0.7-0.9,1.3-1.2,1.6
			c-0.2,0.2-0.3,0.2-0.5,0.2c-0.6,0-0.9-0.3-0.9-0.9c0,0,0-0.2,0.2-0.4c0.5-0.6,0.9-1.1,1.2-1.6c0.5-0.7,0.9-1.7,1.4-3
			c0.1-0.3,0.4-0.4,0.6-0.4C299.5,100.7,299.7,101,299.8,101.5z M299.3,108.5c0.2,0.1,0.3,0.3,0.3,0.5c0,0.1,0,0.2-0.1,0.4
			c-0.6,1.1-1.3,2.1-2,2.9c-0.2,0.2-0.5,0.4-0.8,0.4c-0.6,0-0.9-0.2-0.9-0.7c0-0.2,0-0.4,0.1-0.5c0.7-0.7,1.4-1.7,2.1-2.8
			c0.1-0.3,0.3-0.4,0.6-0.4C298.9,108.3,299.1,108.4,299.3,108.5z M298.1,95.6c0.2,0.6,0.5,1.5,0.8,2.8c0.1,0.3,0.1,0.5,0.1,0.6
			c0,0.5-0.3,0.7-0.8,0.7c-0.5,0-0.8-0.2-0.8-0.7c-0.2-1.2-0.5-2.1-0.7-3l-0.1-0.3c0-0.4,0.2-0.6,0.7-0.6
			C297.6,95.1,297.9,95.3,298.1,95.6z M301.5,103.7c0.2,0.1,0.3,0.3,0.3,0.5c0,0.1,0,0.3-0.1,0.4c-0.3,1-0.7,1.9-1.1,2.7
			c-0.2,0.2-0.5,0.3-0.7,0.3c-0.5,0-0.8-0.2-0.8-0.6c0-0.2,0-0.3,0.1-0.4c0.3-0.7,0.7-1.5,1-2.6c0.1-0.3,0.3-0.4,0.6-0.4
			C301.1,103.5,301.3,103.6,301.5,103.7z M314.2,95.5c0,0.5-0.3,0.7-0.8,0.7h-5.4v1h5c0.4,0,0.6,0.2,0.6,0.6c0,0.4-0.2,0.6-0.6,0.6
			h-5v1h5c0.4,0,0.6,0.2,0.6,0.6c0,0.4-0.2,0.6-0.6,0.6h-5v1h4.7c1.1,0,1.6,0.4,1.6,1.3c0,1.7-0.1,3-0.3,3.9
			c-0.1,0.6-0.4,1.1-0.8,1.3c-0.4,0.2-0.9,0.4-1.7,0.4c-0.5,0-1.2-0.1-2-0.3c-0.4-0.1-0.6-0.4-0.6-0.8c0-0.6,0.3-0.9,0.8-0.9
			c0.9,0.2,1.5,0.3,1.8,0.3s0.5-0.1,0.7-0.2c0.1-0.1,0.2-0.3,0.3-0.6c0.1-0.4,0.2-1.2,0.2-2.3c0-0.4-0.2-0.6-0.6-0.6h-10.2
			c-1,0-1.5-0.5-1.5-1.5v-5.3c0-0.9,0.5-1.4,1.5-1.4h11.5C313.9,94.9,314.2,95.1,314.2,95.5z M302.1,108.7v1.5c0,0.6,0.2,1,0.5,1.1
			c0.5,0.2,1.5,0.3,2.8,0.3c1.4,0,2.4,0,3.1-0.1c0.4,0,0.6-0.1,0.7-0.2c0.2-0.1,0.3-0.5,0.3-1.1c0-0.5,0.3-0.8,0.8-0.8
			c0.5,0,0.8,0.4,0.8,1.1c0,0.4-0.1,0.8-0.2,1.2c-0.1,0.5-0.5,0.9-1,1.2c-0.5,0.2-1.8,0.3-3.9,0.3c-2.3,0-3.7-0.1-4.4-0.4
			c-0.7-0.4-1.1-1.1-1.1-2.2v-1.8c0-0.5,0.3-0.8,0.8-0.8C301.8,107.9,302.1,108.2,302.1,108.7z M306.4,96.2h-3.9
			c-0.4,0-0.6,0.2-0.6,0.7v0.3h4.5V96.2z M306.4,98.4h-4.5v1h4.5V98.4z M306.4,100.6h-4.5v0.2c0,0.5,0.2,0.7,0.6,0.7h3.9V100.6z
			 M304.7,104.2c0.2,0.8,0.2,1.6,0.2,2.4c0,0.5-0.2,0.7-0.7,0.7c-0.5,0-0.7-0.2-0.7-0.7c0-1,0-1.7-0.1-2c0-0.2-0.1-0.4-0.1-0.5
			c0-0.3,0.2-0.5,0.6-0.5C304.3,103.7,304.6,103.9,304.7,104.2z M305.8,108c0.3,0.5,0.6,1,0.9,1.6c0,0.2,0.1,0.5,0.1,0.6
			c0,0.4-0.3,0.6-0.9,0.6c-0.3,0-0.5-0.2-0.6-0.6c-0.2-0.7-0.5-1.3-0.7-1.7c0-0.2-0.1-0.3-0.1-0.4c0-0.4,0.2-0.6,0.7-0.6
			C305.3,107.6,305.5,107.8,305.8,108z M307.7,104c0.2,0.4,0.4,0.9,0.6,1.7c0,0.2,0.1,0.3,0.1,0.3c0,0.4-0.2,0.6-0.7,0.6
			c-0.5,0-0.7-0.2-0.7-0.6c-0.2-0.7-0.4-1.2-0.6-1.7l-0.1-0.2c0-0.4,0.2-0.6,0.7-0.6C307.3,103.6,307.5,103.7,307.7,104z
			 M310.6,103.6c0.3,0.3,0.5,0.7,0.7,1.1c0,0.2,0.1,0.4,0.1,0.6c0,0.4-0.3,0.6-0.8,0.6c-0.2,0-0.4-0.1-0.6-0.5
			c-0.2-0.5-0.4-0.8-0.6-1.1c-0.1-0.2-0.1-0.3-0.1-0.4c0-0.3,0.2-0.5,0.6-0.5C310.3,103.3,310.4,103.4,310.6,103.6z M313,109.1
			c0.6,0.7,1.2,1.5,1.6,2.4c0,0.2,0.1,0.5,0.1,0.7c0,0.4-0.3,0.6-1,0.6c-0.3,0-0.5-0.2-0.7-0.6c-0.5-1-0.9-1.9-1.5-2.5
			c-0.1-0.2-0.1-0.4-0.1-0.5c0-0.4,0.3-0.6,0.8-0.6C312.6,108.8,312.8,108.9,313,109.1z"/>
		<path class="st25" d="M324.8,98.2c0,0.5-0.3,0.8-0.8,0.8h-5.1c-0.5,0-0.8-0.3-0.8-0.8c0-0.5,0.3-0.8,0.8-0.8h5.1
			C324.5,97.4,324.8,97.6,324.8,98.2z M322.8,105.4c1.1,0,1.6,0.5,1.6,1.5v4.5c0,1.1-0.5,1.6-1.6,1.6H320c-1.1,0-1.6-0.5-1.6-1.6
			v-4.5c0-1,0.5-1.5,1.6-1.5H322.8z M324,103.3c0,0.5-0.2,0.7-0.7,0.7h-4c-0.5,0-0.7-0.2-0.7-0.7c0-0.5,0.2-0.7,0.7-0.7h4
			C323.8,102.6,324,102.9,324,103.3z M323.9,100.8c0,0.5-0.2,0.7-0.7,0.7h-3.8c-0.5,0-0.7-0.2-0.7-0.7c0-0.5,0.2-0.7,0.7-0.7h3.8
			C323.7,100,323.9,100.3,323.9,100.8z M324.2,95.6c0,0.5-0.2,0.8-0.7,0.8h-4c-0.5,0-0.7-0.3-0.7-0.8c0-0.5,0.2-0.7,0.7-0.7h4
			C323.9,94.9,324.2,95.1,324.2,95.6z M322.8,110.8v-3.3c0-0.4-0.2-0.6-0.6-0.6h-1.7c-0.4,0-0.6,0.2-0.6,0.6v3.3
			c0,0.4,0.2,0.6,0.6,0.6h1.7C322.6,111.4,322.8,111.2,322.8,110.8z M329.7,94.8c0.5,0,0.8,0.3,0.8,0.9c0,0.4-0.1,0.9-0.4,1.5
			c-0.5,0.9-1.1,1.8-1.9,2.8c-0.1,0.2-0.3,0.3-0.4,0.4h5.5c-0.4-0.4-0.8-0.9-1.1-1.4c-0.5-0.8-0.9-1.9-1.3-3.5
			c0-0.5,0.3-0.8,0.8-0.8c0.3,0,0.6,0.2,0.7,0.6c0.1,0.3,0.2,0.6,0.2,0.8c0.7-0.5,1.4-0.9,1.9-1.3c0.2-0.1,0.4-0.2,0.5-0.2
			c0.5,0,0.7,0.2,0.7,0.6c0,0.2-0.1,0.5-0.2,0.7c-0.6,0.5-1.4,1-2.3,1.5c0.1,0.2,0.2,0.5,0.3,0.6c0.1,0.3,0.3,0.5,0.5,0.7
			c0.8-0.6,1.5-1.1,2-1.7c0.2-0.1,0.4-0.1,0.5-0.1c0.5,0,0.7,0.2,0.7,0.6c0,0.2-0.1,0.5-0.2,0.6c-0.6,0.5-1.2,1-2,1.5
			c0,0.1,0.1,0.1,0.1,0.1c0.5,0.4,1.2,0.9,2,1.3c0.2,0.2,0.3,0.4,0.3,0.6c0,0.6-0.3,0.9-0.8,0.9c-0.1,0-0.3,0-0.5-0.2
			c-0.7-0.4-1.4-0.8-1.9-1.2c-0.1,0.4-0.3,0.6-0.7,0.6h-6.1c-0.5,0-0.7-0.2-0.7-0.6c-0.5,0.5-1,0.8-1.4,1.2
			c-0.2,0.2-0.4,0.2-0.5,0.2c-0.6,0-0.9-0.3-0.9-0.8c0-0.4,0.1-0.6,0.5-0.8c0.9-0.6,1.6-1.2,2.1-1.6c0,0,0,0,0.1-0.1
			c-0.1,0-0.1,0-0.2-0.1c-0.3-0.3-0.5-0.5-0.7-0.7c-0.2-0.1-0.4-0.3-0.6-0.4c-0.2-0.2-0.2-0.4-0.2-0.6c0-0.5,0.2-0.7,0.7-0.7
			c0.1,0,0.3,0.1,0.6,0.1c0.2,0.2,0.4,0.4,0.6,0.5c0.2,0.2,0.5,0.4,0.7,0.8c0.5-0.6,0.9-1.2,1.3-1.9v-0.2h-2.7
			c-0.5,0-0.7-0.2-0.7-0.7c0-0.5,0.2-0.7,0.7-0.7H329.7z M328.2,108.8c0.3,0.5,0.7,1,1,1.6c0,0.2,0.1,0.3,0.1,0.4
			c0,0.2,0,0.4-0.1,0.5h2.6c0.1-0.2,0.3-0.4,0.4-0.6c0.4-0.6,0.7-1.2,1.1-1.9c0.2-0.2,0.4-0.3,0.7-0.3c0.2,0,0.4,0.1,0.6,0.2
			c0.1,0.2,0.2,0.4,0.2,0.6c0,0.2-0.1,0.4-0.2,0.6c-0.2,0.4-0.5,0.8-0.8,1.2c0,0.1-0.1,0.1-0.1,0.1h3c0.5,0,0.8,0.3,0.8,0.8
			c0,0.5-0.3,0.8-0.8,0.8h-11.3c-0.5,0-0.8-0.3-0.8-0.8c0-0.5,0.3-0.8,0.8-0.8h2.4c-0.3-0.5-0.6-1-0.9-1.5c-0.1-0.2-0.1-0.3-0.1-0.4
			c0-0.6,0.3-0.9,1-0.9C327.9,108.5,328.1,108.6,328.2,108.8z M334.6,103.1c0.9,0,1.4,0.4,1.4,1.3v2.4c0,0.9-0.5,1.4-1.4,1.4h-7.5
			c-0.9,0-1.4-0.5-1.4-1.4v-2.4c0-0.9,0.5-1.3,1.4-1.3H334.6z M334.3,106.1v-1c0-0.3-0.2-0.5-0.5-0.5h-6c-0.3,0-0.5,0.2-0.5,0.5v1
			c0,0.4,0.1,0.6,0.5,0.6h6C334.1,106.7,334.3,106.5,334.3,106.1z"/>
	</g>
	<polygon class="st27" points="180.4,150 188.1,168.4 188.1,131.7 	"/>
	<g>
		<circle class="st27" cx="207.9" cy="104.3" r="15.1"/>
		<circle class="st25" cx="207.9" cy="105.6" r="13.8"/>
		<circle class="st27" cx="207.9" cy="103" r="11.2"/>
		<circle class="st25" cx="207.9" cy="106.6" r="7.6"/>
	</g>
</g>
</svg>
