<?xml version="1.0" encoding="utf-8"?>
<!-- Generator: Adobe Illustrator 27.7.0, SVG Export Plug-In . SVG Version: 6.00 Build 0)  -->
<svg version="1.1" id="Layer_1" xmlns="http://www.w3.org/2000/svg" xmlns:xlink="http://www.w3.org/1999/xlink" x="0px" y="0px"
	 viewBox="0 0 490 70" style="enable-background:new 0 0 490 70;" xml:space="preserve">
<style type="text/css">
	.st0{fill:#FFCB40;}
	.st1{fill:#0054A5;}
	.st2{fill:#58595B;}
	.st3{fill:#5BCAF4;}
	.st4{fill:#4B4A4A;}
	.st5{fill:url(#SVGID_1_);}
</style>
<g>
	<circle class="st0" cx="34.9" cy="35.2" r="32.7"/>
	<path class="st1" d="M34.9,68.2c-18.2,0-33-14.8-33-33s14.8-33,33-33c18.2,0,33,14.8,33,33S53.1,68.2,34.9,68.2z M34.9,2.8
		C17,2.8,2.5,17.3,2.5,35.2c0,17.9,14.5,32.4,32.4,32.4c17.9,0,32.4-14.5,32.4-32.4C67.4,17.3,52.8,2.8,34.9,2.8z"/>
</g>
<g>
	<path class="st2" d="M10,22.7l-2.5-1.6l0.4-0.6l2.2,0.5l0.5,0.1c-0.1-0.1-0.2-0.2-0.3-0.4L8.8,19l0.3-0.5l2.5,1.6l-0.2,0.4
		l-2.1-1.3l1.6,2.2l-0.2,0.3L8.1,21l2.2,1.4L10,22.7z"/>
	<path class="st2" d="M10,18l-0.3-0.3l0.2-0.3l0.3,0.3L10,18z M12.1,19.6l-1.8-1.3l0.2-0.3l1.8,1.3L12.1,19.6z"/>
	<path class="st2" d="M12.8,18.7l-1.7-1.4l0.2-0.3l0.2,0.2c0-0.1,0-0.3,0-0.4c0-0.1,0.1-0.3,0.2-0.4c0.1-0.1,0.2-0.2,0.3-0.2
		c0.1-0.1,0.2-0.1,0.3-0.1c0.1,0,0.2,0,0.3,0c0.1,0,0.2,0.1,0.4,0.2l1,0.9l-0.3,0.3l-1-0.8c-0.1-0.1-0.2-0.2-0.3-0.2
		c-0.1,0-0.2,0-0.2,0c-0.1,0-0.2,0.1-0.2,0.2c-0.1,0.1-0.2,0.3-0.2,0.5c0,0.2,0.1,0.3,0.3,0.5l0.9,0.8L12.8,18.7z"/>
	<path class="st2" d="M12.6,14.9l-0.3-0.3l0.3-0.3l0.3,0.3L12.6,14.9z M14.4,16.7l-1.6-1.5l0.3-0.3l1.6,1.5L14.4,16.7z"/>
	<path class="st2" d="M14.6,15.5l0.2-0.3c0.1,0.1,0.2,0.1,0.4,0.1c0.1,0,0.3-0.1,0.4-0.2c0.1-0.1,0.2-0.2,0.2-0.4
		c0-0.1,0-0.2-0.1-0.3c-0.1-0.1-0.1-0.1-0.2-0.1c-0.1,0-0.2,0.1-0.4,0.2c-0.3,0.2-0.5,0.3-0.6,0.3c-0.1,0-0.2,0-0.3,0
		c-0.1,0-0.2-0.1-0.3-0.1c-0.1-0.1-0.2-0.3-0.1-0.5c0-0.2,0.2-0.4,0.4-0.6c0.1-0.1,0.3-0.2,0.4-0.3c0.1-0.1,0.2-0.1,0.4-0.1
		c0.1,0,0.2,0.1,0.3,0.1l-0.2,0.3c-0.2-0.1-0.4-0.1-0.6,0.1c-0.1,0.1-0.2,0.2-0.2,0.3c0,0.1,0,0.2,0,0.2c0.1,0.1,0.1,0.1,0.2,0.1
		c0.1,0,0.2-0.1,0.4-0.2c0.3-0.2,0.5-0.3,0.6-0.3c0.1,0,0.2,0,0.3,0c0.1,0,0.2,0.1,0.3,0.2c0.1,0.1,0.2,0.3,0.2,0.5
		c0,0.2-0.2,0.4-0.4,0.6C15.4,15.7,15,15.8,14.6,15.5z"/>
	<path class="st2" d="M17.4,13.5l0.3,0.2c-0.1,0.1-0.1,0.2-0.2,0.2c-0.1,0.1-0.2,0.1-0.3,0.2c-0.1,0-0.2,0-0.2,0
		c-0.1,0-0.2-0.1-0.3-0.3l-0.8-1L15.5,13l-0.2-0.2l0.2-0.2l-0.3-0.4l0.2-0.4l0.5,0.6l0.3-0.3l0.2,0.2L16,12.5l0.8,1
		c0.1,0.1,0.1,0.1,0.2,0.2c0.1,0,0.1,0,0.2-0.1C17.3,13.6,17.3,13.5,17.4,13.5z"/>
	<path class="st2" d="M17.9,13.4l-1.3-1.7l0.3-0.2l0.2,0.3c0-0.2,0-0.3,0-0.4c0-0.1,0.1-0.2,0.2-0.2c0.1-0.1,0.2-0.1,0.4-0.2
		l0.1,0.4c-0.1,0-0.2,0.1-0.3,0.1c-0.1,0.1-0.1,0.1-0.1,0.2c0,0.1,0,0.2,0,0.2c0,0.1,0.1,0.3,0.2,0.4l0.7,0.9L17.9,13.4z"/>
	<path class="st2" d="M19.6,13.2l-0.2-0.3c0.1,0,0.2-0.1,0.2-0.1c0.1,0,0.1-0.1,0.2-0.1c0-0.1,0-0.1,0-0.2c0,0,0-0.2-0.1-0.4l-2-1.3
		l0.4-0.2l1.1,0.8c0.1,0.1,0.3,0.2,0.4,0.3c-0.1-0.2-0.1-0.3-0.1-0.5l-0.3-1.3l0.3-0.2l0.5,2.3c0.1,0.3,0.1,0.5,0.1,0.6
		c0,0.1,0,0.2-0.1,0.3c0,0.1-0.1,0.2-0.2,0.2C19.8,13.1,19.7,13.2,19.6,13.2z"/>
	<path class="st2" d="M21.7,9.6c-0.2-0.3-0.2-0.6-0.1-0.9c0.1-0.3,0.3-0.5,0.6-0.6C22.6,8,22.8,8,23.1,8.1c0.3,0.1,0.5,0.3,0.6,0.6
		c0.2,0.4,0.2,0.7,0.1,0.9c-0.1,0.3-0.3,0.5-0.6,0.6c-0.3,0.1-0.6,0.2-0.8,0.1C22.1,10.2,21.9,10,21.7,9.6z M22.1,9.5
		c0.1,0.3,0.3,0.4,0.5,0.5c0.2,0.1,0.4,0.1,0.5,0c0.2-0.1,0.3-0.2,0.4-0.4c0.1-0.2,0-0.4-0.1-0.7c-0.1-0.3-0.3-0.4-0.4-0.5
		c-0.2-0.1-0.4-0.1-0.5,0c-0.2,0.1-0.3,0.2-0.4,0.4C22,9,22,9.2,22.1,9.5z"/>
	<path class="st2" d="M24.8,9.5l-0.7-1.8l-0.3,0.1l-0.1-0.3l0.3-0.1L24,7.2c-0.1-0.2-0.1-0.3-0.1-0.4c0-0.1,0.1-0.2,0.1-0.3
		c0.1-0.1,0.2-0.1,0.3-0.2c0.1,0,0.2-0.1,0.4-0.1l0.1,0.3c-0.1,0-0.2,0-0.2,0.1c-0.1,0-0.2,0.1-0.2,0.2c0,0.1,0,0.2,0,0.3l0.1,0.2
		l0.4-0.2L25,7.4l-0.4,0.2l0.7,1.8L24.8,9.5z"/>
	<path class="st2" d="M27.3,8.6l-0.6-2.9l0.4-0.1l0.3,1.2L29,6.4l-0.3-1.2l0.4-0.1l0.6,2.9l-0.4,0.1l-0.3-1.4l-1.7,0.4l0.3,1.4
		L27.3,8.6z"/>
	<path class="st2" d="M32.1,7.1l0.4,0c0,0.2-0.2,0.4-0.3,0.6c-0.2,0.1-0.4,0.2-0.7,0.2c-0.3,0-0.6,0-0.8-0.2
		c-0.2-0.2-0.4-0.4-0.4-0.8c0-0.4,0-0.7,0.2-0.9c0.2-0.2,0.4-0.3,0.8-0.4c0.3,0,0.6,0,0.8,0.2c0.2,0.2,0.4,0.4,0.4,0.8l0,0.1L30.7,7
		c0,0.2,0.1,0.4,0.3,0.5c0.1,0.1,0.3,0.2,0.5,0.1C31.8,7.6,32,7.4,32.1,7.1z M30.7,6.7L32,6.5c0-0.2-0.1-0.3-0.2-0.4
		C31.7,6,31.5,5.9,31.3,6c-0.2,0-0.3,0.1-0.4,0.2C30.8,6.3,30.7,6.5,30.7,6.7z"/>
	<path class="st2" d="M34.7,7.4c-0.1,0.1-0.3,0.2-0.4,0.2c-0.1,0.1-0.3,0.1-0.5,0.1c-0.2,0-0.4,0-0.6-0.2C33.1,7.5,33,7.4,33,7.2
		c0-0.1,0-0.2,0.1-0.3c0.1-0.1,0.2-0.2,0.3-0.2c0.1-0.1,0.3-0.1,0.5-0.1c0.3,0,0.6-0.1,0.7-0.1l0-0.1c0-0.1,0-0.3-0.1-0.3
		c-0.1-0.1-0.3-0.1-0.5-0.1c-0.2,0-0.3,0-0.4,0.1c-0.1,0.1-0.2,0.2-0.2,0.3l-0.4,0c0.1-0.2,0.2-0.4,0.3-0.5c0.2-0.1,0.4-0.2,0.7-0.2
		c0.2,0,0.4,0,0.6,0.1c0.1,0.1,0.2,0.2,0.3,0.3C35,5.9,35,6.1,35,6.3l0,0.5c0,0.3,0,0.6,0,0.7c0,0.1,0.1,0.2,0.1,0.3l-0.4,0
		C34.7,7.6,34.7,7.5,34.7,7.4z M34.6,6.6c-0.1,0.1-0.4,0.1-0.7,0.2c-0.2,0-0.3,0.1-0.4,0.1c-0.1,0-0.1,0.1-0.2,0.1
		c0,0.1-0.1,0.1-0.1,0.2c0,0.1,0,0.2,0.1,0.2c0.1,0.1,0.2,0.1,0.4,0.1c0.1,0,0.3,0,0.4-0.1c0.1-0.1,0.2-0.1,0.3-0.2
		c0.1-0.1,0.1-0.2,0.1-0.4L34.6,6.6z"/>
	<path class="st2" d="M35.7,7.7l0.1-3l0.4,0l-0.1,3L35.7,7.7z"/>
	<path class="st2" d="M37.8,7.5l0,0.3c-0.1,0-0.2,0-0.3,0c-0.1,0-0.3,0-0.3-0.1c-0.1,0-0.1-0.1-0.2-0.2c0-0.1,0-0.2,0-0.4l0.1-1.2
		l-0.3,0l0-0.3l0.3,0l0-0.5l0.4-0.2l-0.1,0.8l0.4,0l0,0.3l-0.4,0l-0.1,1.3c0,0.1,0,0.2,0,0.2c0,0.1,0.1,0.1,0.2,0.1
		C37.6,7.5,37.7,7.5,37.8,7.5z"/>
	<path class="st2" d="M38.2,7.9l0.4-3L39,4.9L38.8,6c0.1-0.1,0.2-0.1,0.3-0.2c0.1,0,0.3,0,0.4,0c0.3,0,0.4,0.1,0.6,0.3
		c0.1,0.1,0.2,0.4,0.1,0.7l-0.2,1.4l-0.4-0.1l0.2-1.4c0-0.2,0-0.3-0.1-0.4c-0.1-0.1-0.2-0.1-0.3-0.2c-0.2,0-0.3,0-0.5,0.1
		c-0.1,0.1-0.2,0.3-0.3,0.5l-0.2,1.2L38.2,7.9z"/>
	<path class="st2" d="M43.6,8.7c-0.2,0.1-0.3,0.1-0.5,0.1c-0.2,0-0.3,0-0.5,0c-0.2-0.1-0.4-0.2-0.5-0.3c-0.1-0.1-0.1-0.3-0.1-0.5
		c0-0.1,0.1-0.2,0.2-0.3c0.1-0.1,0.2-0.1,0.3-0.1c0.1,0,0.3,0,0.6,0c0.3,0.1,0.6,0.1,0.7,0.1l0-0.1c0-0.1,0-0.3,0-0.3
		c-0.1-0.1-0.2-0.2-0.4-0.2c-0.2,0-0.3-0.1-0.4,0c-0.1,0-0.2,0.1-0.3,0.3L42.4,7c0.1-0.2,0.3-0.3,0.5-0.4c0.2-0.1,0.4,0,0.8,0
		c0.2,0.1,0.4,0.2,0.5,0.3c0.1,0.1,0.2,0.2,0.2,0.3c0,0.1,0,0.3-0.1,0.5l-0.1,0.5C44.1,8.5,44,8.7,44,8.8c0,0.1,0,0.2,0,0.3L43.6,9
		C43.6,8.9,43.6,8.8,43.6,8.7z M43.8,7.9c-0.2,0-0.4,0-0.7,0c-0.2,0-0.3,0-0.4,0c-0.1,0-0.1,0-0.2,0.1c0,0-0.1,0.1-0.1,0.2
		c0,0.1,0,0.2,0.1,0.3c0.1,0.1,0.2,0.1,0.3,0.2c0.1,0,0.3,0,0.4,0c0.1,0,0.2-0.1,0.3-0.1c0.1-0.1,0.1-0.2,0.2-0.4L43.8,7.9z"/>
	<path class="st2" d="M44.6,9.2l0.8-2l0.3,0.1l-0.1,0.3c0.1-0.1,0.3-0.1,0.4-0.1c0.1,0,0.3,0,0.4,0.1c0.1,0,0.2,0.1,0.3,0.2
		c0.1,0.1,0.2,0.2,0.2,0.2C46.9,8,47,8.1,47,8.2c0,0.1,0,0.2-0.1,0.4l-0.5,1.3L46,9.8l0.5-1.2c0.1-0.1,0.1-0.3,0.1-0.3
		c0-0.1,0-0.2-0.1-0.2c-0.1-0.1-0.1-0.1-0.2-0.2c-0.2-0.1-0.3-0.1-0.5,0c-0.1,0.1-0.3,0.2-0.4,0.5l-0.4,1.1L44.6,9.2z"/>
	<path class="st2" d="M48.4,10.9l0.1-0.2c-0.1,0.1-0.2,0.1-0.4,0.1c-0.1,0-0.3,0-0.4-0.1c-0.3-0.1-0.4-0.3-0.5-0.6
		c-0.1-0.3-0.1-0.6,0.1-0.9c0.1-0.2,0.2-0.4,0.4-0.5c0.2-0.1,0.3-0.2,0.5-0.2c0.2,0,0.3,0,0.5,0.1c0.1,0.1,0.2,0.1,0.3,0.2
		c0.1,0.1,0.1,0.2,0.2,0.3l0.5-1l0.4,0.2l-1.4,2.7L48.4,10.9z M47.7,9.3c-0.1,0.3-0.2,0.5-0.1,0.6c0.1,0.2,0.2,0.3,0.3,0.4
		c0.2,0.1,0.3,0.1,0.5,0c0.2-0.1,0.3-0.2,0.4-0.4C49,9.7,49,9.5,49,9.3c0-0.2-0.2-0.3-0.3-0.4c-0.2-0.1-0.3-0.1-0.5,0
		C48,8.9,47.8,9.1,47.7,9.3z"/>
	<path class="st2" d="M51,12.5l1.2-2.9l0.4,0.3l-0.8,1.9c-0.1,0.2-0.2,0.4-0.3,0.6l0.5-0.3l1.7-1.2L54,11l-0.6,1.5
		c-0.1,0.4-0.3,0.7-0.5,1c0.2-0.1,0.3-0.3,0.5-0.4l1.6-1.2l0.3,0.3L52.9,14l-0.3-0.3l0.9-2.2l0.1-0.3c-0.1,0.1-0.2,0.2-0.3,0.2
		l-2,1.4L51,12.5z"/>
	<path class="st2" d="M55.4,15.5l0.3,0.3c-0.2,0.1-0.4,0.1-0.6,0.1c-0.2,0-0.4-0.2-0.6-0.4c-0.2-0.2-0.4-0.5-0.4-0.8
		c0-0.3,0.1-0.6,0.4-0.8c0.3-0.3,0.5-0.4,0.8-0.4c0.3,0,0.5,0.1,0.8,0.4c0.2,0.2,0.3,0.5,0.3,0.8c0,0.3-0.1,0.6-0.4,0.8l-0.1,0.1
		l-1.2-1.3c-0.2,0.2-0.2,0.4-0.2,0.5c0,0.2,0.1,0.3,0.2,0.5C54.9,15.6,55.1,15.6,55.4,15.5z M54.9,14.1l0.9,1
		c0.1-0.1,0.2-0.3,0.2-0.4c0-0.2-0.1-0.4-0.2-0.5C55.7,14,55.6,14,55.4,14C55.2,13.9,55.1,14,54.9,14.1z"/>
	<path class="st2" d="M55.6,16.7l2.3-1.9l0.3,0.3L55.8,17L55.6,16.7z"/>
	<path class="st2" d="M56.3,17.6l1.5-1.2l-0.2-0.3l0.2-0.2l0.2,0.3l0.2-0.1c0.1-0.1,0.3-0.2,0.3-0.2c0.1,0,0.2,0,0.3,0.1
		c0.1,0,0.2,0.1,0.3,0.2c0.1,0.1,0.1,0.2,0.2,0.3l-0.3,0.1c0-0.1-0.1-0.1-0.1-0.2c-0.1-0.1-0.1-0.1-0.2-0.2c-0.1,0-0.2,0-0.3,0.1
		l-0.2,0.1l0.3,0.4l-0.2,0.2l-0.3-0.4l-1.5,1.2L56.3,17.6z"/>
	<path class="st2" d="M58.2,19.7c-0.2-0.1-0.3-0.1-0.4-0.2c-0.1-0.1-0.2-0.2-0.3-0.3c-0.1-0.2-0.2-0.4-0.2-0.6
		c0-0.2,0.1-0.3,0.3-0.4c0.1-0.1,0.2-0.1,0.3-0.1c0.1,0,0.2,0,0.3,0.1c0.1,0.1,0.2,0.2,0.4,0.4c0.2,0.3,0.4,0.4,0.5,0.5l0.1-0.1
		c0.1-0.1,0.2-0.2,0.2-0.3c0-0.1,0-0.3-0.1-0.5c-0.1-0.2-0.2-0.3-0.3-0.3c-0.1,0-0.2,0-0.4,0l-0.2-0.4c0.2-0.1,0.4-0.1,0.6,0
		c0.2,0.1,0.4,0.3,0.5,0.5c0.1,0.2,0.2,0.4,0.2,0.5c0,0.2,0,0.3-0.1,0.4c-0.1,0.1-0.2,0.2-0.3,0.3l-0.4,0.3
		c-0.3,0.2-0.5,0.3-0.5,0.4c-0.1,0.1-0.1,0.1-0.2,0.2L58,19.9C58,19.9,58.1,19.8,58.2,19.7z M58.8,19.2c-0.1-0.1-0.3-0.2-0.5-0.5
		c-0.1-0.1-0.2-0.2-0.3-0.3c-0.1,0-0.1-0.1-0.2-0.1c-0.1,0-0.1,0-0.2,0.1c-0.1,0.1-0.1,0.1-0.1,0.2c0,0.1,0,0.2,0.1,0.3
		c0.1,0.1,0.2,0.2,0.3,0.3c0.1,0.1,0.2,0.1,0.3,0.1c0.1,0,0.2-0.1,0.4-0.2L58.8,19.2z"/>
	<path class="st2" d="M58.5,20.8l1.9-1.1l0.2,0.3l-0.3,0.2c0.2,0,0.3,0,0.4,0.1c0.1,0,0.1,0.1,0.2,0.2c0.1,0.1,0.1,0.3,0.1,0.4
		l-0.4,0.1c0-0.1,0-0.2-0.1-0.3c0-0.1-0.1-0.1-0.2-0.2c-0.1,0-0.2-0.1-0.2,0c-0.1,0-0.3,0.1-0.4,0.2l-1,0.6L58.5,20.8z"/>
	<path class="st2" d="M60.6,23.3l0.1,0.4c-0.2,0-0.5,0-0.6-0.1c-0.2-0.1-0.3-0.3-0.5-0.5c-0.1-0.3-0.2-0.6-0.1-0.9
		c0.1-0.3,0.3-0.5,0.6-0.6c0.3-0.2,0.6-0.2,0.9-0.1c0.3,0.1,0.5,0.3,0.6,0.6c0.1,0.3,0.2,0.5,0.1,0.8c-0.1,0.3-0.3,0.5-0.6,0.6
		l-0.1,0L60.3,22c-0.2,0.1-0.3,0.3-0.4,0.4c-0.1,0.2,0,0.4,0,0.5C60.1,23.2,60.3,23.3,60.6,23.3z M60.6,21.9l0.6,1.2
		c0.2-0.1,0.3-0.2,0.3-0.3c0.1-0.2,0.1-0.4,0-0.5c-0.1-0.2-0.2-0.3-0.4-0.3C60.9,21.8,60.8,21.8,60.6,21.9z"/>
</g>
<g>
	<path class="st2" d="M21,60.1c0.2,0.2,0.3,0.3,0.3,0.4c0,0,0,0,0,0c0,0-0.1,0-0.1,0c-0.2,0.1-0.3,0.2-0.5,0.3l-0.9,1.8
		c0,0,0,0-0.1,0l-0.2-0.1c0,0,0,0,0-0.1l0.7-1.5c-0.1,0-0.2,0.1-0.4,0.1c0,0-0.1,0-0.1-0.1c0,0-0.1-0.1-0.1-0.1c0,0,0,0,0-0.1
		c0.1,0,0.3-0.1,0.4-0.1c0.2-0.1,0.4-0.1,0.5-0.2C20.7,60.3,20.8,60.2,21,60.1C21,60.1,21,60.1,21,60.1z M21.8,62.5l-0.1,0.3
		l0.5,0.3c0,0,0,0,0,0.1l-0.1,0.1c0,0,0,0.1-0.1,0L21.6,63l-0.2,0.3c0,0,0,0-0.1,0l-0.2-0.1c0,0,0,0,0-0.1l0.2-0.3l-1.1-0.6
		c0,0,0,0,0-0.1l0.1-0.1c0,0,0,0,0.1,0l0.3,0.1l0.2-0.5c0,0,0,0,0.1,0l0.8,0.4l0.1-0.2c0,0,0,0,0.1,0c0.2,0.1,0.3,0.2,0.3,0.2
		c0,0,0,0-0.1,0c0,0,0,0-0.1,0.1l0,0.1l0.5,0.2c0,0,0,0,0,0.1l-0.1,0.1c0,0,0,0-0.1,0L21.8,62.5z M21.4,59.1
		c0.2,0.2,0.3,0.3,0.3,0.3c0,0,0,0,0,0c0,0-0.1,0-0.1,0c-0.2,0.1-0.4,0.2-0.6,0.2c-0.1,0-0.2,0.1-0.5,0.1c0,0-0.1,0-0.1-0.1
		c0-0.1-0.1-0.1-0.1-0.2c0,0,0,0,0-0.1c0.1,0,0.2,0,0.3-0.1c0.1,0,0.3-0.1,0.4-0.1C21.2,59.3,21.3,59.2,21.4,59.1
		C21.4,59.1,21.4,59.1,21.4,59.1z M21,62.1l-0.1,0.3l0.5,0.3l0.1-0.3L21,62.1z M21.4,60.8l1.3,0.6c0,0,0.1,0.1,0,0.1l-0.3,0.6
		c0,0,0,0-0.1,0L21,61.5c0,0-0.1-0.1,0-0.1L21.4,60.8C21.3,60.7,21.3,60.7,21.4,60.8z M21.8,59.7l0.5,0.2c0.1-0.1,0.1-0.2,0.2-0.3
		c0,0,0,0,0.1,0l0.2,0.2c0,0,0,0.1,0,0.1c0,0,0,0-0.1,0c0,0-0.1,0-0.1,0c0,0-0.1,0.1-0.1,0.1l0.6,0.3c0,0,0.1,0,0,0.1L22.9,61
		l0.1,0.1c0,0,0,0,0,0.1L23,61.2c0,0,0,0-0.1,0l-1.7-0.8c0,0,0,0,0-0.1l0.1-0.1c0,0,0,0,0.1,0l0.5,0.2c0.1-0.1,0.2-0.2,0.2-0.3
		l-0.4-0.2c0,0,0,0,0-0.1L21.8,59.7C21.7,59.7,21.7,59.7,21.8,59.7z M22.2,61.8l0.1-0.3l-0.9-0.4l-0.1,0.3L22.2,61.8z M23.1,61.3
		l1.1,0.5c0,0,0,0,0,0.1L24.2,62c0,0,0,0.1-0.1,0l-0.3-0.2l-0.9,1.9c-0.1,0.2-0.3,0.2-0.6,0l-0.1-0.1c0,0,0,0,0-0.1
		c0-0.1,0-0.1,0-0.2l0,0c0.1,0.1,0.1,0.1,0.2,0.1c0.2,0.1,0.3,0.1,0.3,0l0.9-1.8L23,61.5c0,0,0,0,0-0.1L23.1,61.3
		C23.1,61.3,23.1,61.3,23.1,61.3z M22.1,60.6l0.5,0.2l0.2-0.3l-0.4-0.2C22.3,60.4,22.2,60.5,22.1,60.6z M23.7,60.6l0.8,0.4
		c0,0,0,0,0,0.1l-0.1,0.1c0,0,0,0.1-0.1,0l-0.8-0.4c0,0,0,0,0-0.1L23.7,60.6C23.6,60.6,23.7,60.6,23.7,60.6z"/>
	<path class="st2" d="M27.7,61.7l0.3,0.2c0,0,0,0.1,0,0.1c0,0,0,0.1-0.1,0.1c0,0-0.1,0-0.1,0c-0.1,0.2-0.2,0.3-0.2,0.4l1.2,0.2
		L29,62c0,0,0,0,0.1,0c0.2,0.1,0.4,0.1,0.4,0.1c0,0,0,0.1-0.1,0.1c0,0-0.1,0-0.1,0.1l-0.1,0.6l1.6,0.3c0,0,0.1,0,0,0.1l0,0.2
		c0,0,0,0.1-0.1,0.1l-1.6-0.3L28.9,64l1.4,0.3c0,0,0.1,0,0,0.1l0,0.1c0,0,0,0.1-0.1,0l-1.4-0.3l-0.2,1.1l1.8,0.4c0,0,0.1,0,0,0.1
		l0,0.2c0,0,0,0.1-0.1,0l-4.3-0.9c0,0-0.1,0,0-0.1l0-0.2c0,0,0,0,0.1,0l2.1,0.4l0.2-1.1L27,63.9c0,0-0.1,0,0-0.1l0-0.1
		c0,0,0-0.1,0.1,0l1.5,0.3l0.2-0.9l-1.3-0.3c-0.1,0.1-0.2,0.2-0.3,0.3c-0.1,0.1-0.2,0.2-0.4,0.3c0,0-0.1,0-0.1,0
		c-0.1,0-0.1-0.1-0.2-0.1c0,0,0,0,0,0c0,0,0,0,0,0c0.2-0.1,0.4-0.3,0.5-0.5c0.1-0.1,0.2-0.2,0.3-0.4C27.4,62.2,27.5,62,27.7,61.7
		C27.6,61.8,27.7,61.7,27.7,61.7z"/>
	<path class="st2" d="M33.6,63.6l1.7,0c0,0,0.1,0,0.1,0.1l0,0.1c0,0,0,0.1-0.1,0.1l-0.6,0l0,2.5c0,0,0,0.1-0.1,0.1l-0.2,0
		c-0.1,0-0.1,0-0.1-0.1l0-2.5l-0.7,0c0,0-0.1,0-0.1-0.1L33.6,63.6C33.5,63.6,33.6,63.6,33.6,63.6z M33.8,64.2l0.4,0.1
		c0,0,0.1,0,0.1,0c0,0,0,0.1,0,0.1c0,0-0.1,0.1-0.1,0.1c0,0.5,0,0.9,0,1.1c0,0.2-0.1,0.4-0.1,0.5c0,0,0,0-0.1,0
		c-0.2,0-0.3-0.1-0.3-0.1c0.1-0.2,0.1-0.4,0.1-0.6C33.7,65.2,33.7,64.8,33.8,64.2C33.7,64.2,33.8,64.2,33.8,64.2z M33.8,62.8l1.3,0
		c0,0,0.1,0,0.1,0.1l0,0.1c0,0,0,0.1-0.1,0.1l-1.3,0c0,0-0.1,0-0.1-0.1L33.8,62.8C33.8,62.8,33.8,62.8,33.8,62.8z M35,64.2l0.2,0
		c0.1,0,0.1,0,0.1,0.1c0,0.2-0.1,0.3-0.1,0.5c0,0.4,0.1,0.8,0.2,1.1c0,0,0,0,0,0c-0.2,0-0.3,0-0.3,0l0-0.1C35,65.4,35,64.8,35,64.2
		C35,64.2,35,64.2,35,64.2z M35.6,62.7l2.4,0c0,0,0.1,0,0.1,0.1l0,0.1c0,0,0,0.1-0.1,0.1l-2.4,0c0,0-0.1,0-0.1-0.1L35.6,62.7
		C35.5,62.7,35.6,62.7,35.6,62.7z M35.6,64.6l2.3,0c0.1,0,0.1,0,0.1,0l0,1.8c0,0,0,0.1-0.1,0.1l-0.2,0c-0.1,0-0.1,0-0.1-0.1l0-0.2
		l-1.8,0l0,0.2c0,0,0,0.1-0.1,0.1l-0.2,0c-0.1,0-0.1,0-0.1-0.1L35.6,64.6C35.5,64.6,35.6,64.6,35.6,64.6z M35.8,63.3l2,0
		c0.1,0,0.1,0,0.1,0l0,0.9c0,0,0,0.1-0.1,0.1l-2,0c-0.1,0-0.1,0-0.1-0.1L35.8,63.3C35.7,63.3,35.7,63.3,35.8,63.3z M35.9,65.2l0.7,0
		l0-0.4l-0.7,0L35.9,65.2z M35.9,65.9l0.7,0l0-0.4l-0.7,0L35.9,65.9z M37.5,64l0-0.5l-1.4,0l0,0.5L37.5,64z M37,64.8l0,0.4l0.7,0
		l0-0.4L37,64.8z M37,65.9l0.7,0l0-0.4l-0.7,0L37,65.9z"/>
	<path class="st2" d="M42.5,61.9C42.5,62,42.4,62,42.5,61.9c-0.2,0.1-0.3,0.2-0.5,0.3c0,0-0.1,0-0.1,0.1L42,63l0.9-0.2
		c0,0,0.1,0,0.1,0l0,0.1c0,0,0,0.1,0,0.1l-0.9,0.2c0.1,0.1,0.3,0.3,0.4,0.3c0.1,0.1,0.4,0.2,0.7,0.3c0,0,0,0,0.1,0c0,0,0,0,0,0
		c0,0-0.1,0.1-0.1,0.2c0,0,0,0,0,0c0,0,0,0-0.1,0c-0.2-0.1-0.4-0.2-0.6-0.4c-0.1-0.1-0.1-0.1-0.2-0.2l0.5,1.8c0,0,0,0.1-0.1,0.1
		l-0.2,0.1c-0.1,0-0.1,0-0.1,0l-0.5-1.7c0,0,0,0.1,0,0.1c-0.1,0.2-0.1,0.4-0.2,0.6c-0.1,0.2-0.2,0.4-0.3,0.5c0,0-0.1,0-0.1,0
		C41.2,65,41.1,65,41,65c0,0,0,0,0,0c0.1-0.1,0.2-0.2,0.3-0.3c0.1-0.1,0.2-0.3,0.3-0.6c0.1-0.1,0.1-0.4,0.2-0.7l-1,0.3
		c0,0-0.1,0-0.1,0l0-0.1c0,0,0-0.1,0-0.1l1.1-0.3l-0.2-0.7c-0.1,0-0.1,0-0.2,0.1c-0.2,0.1-0.4,0.1-0.6,0.2c-0.1,0-0.1,0-0.1,0
		c-0.1,0-0.1-0.1-0.2-0.1c0,0,0,0,0-0.1l0.3-0.1c0.2-0.1,0.4-0.1,0.6-0.2c0.1-0.1,0.3-0.1,0.4-0.2c0.2-0.1,0.3-0.2,0.4-0.3
		c0,0,0,0,0,0c0,0,0.1,0,0.1,0c0.2,0.1,0.3,0.1,0.3,0.2c0,0,0,0,0,0.1L42.5,61.9z M43.2,62c0.2-0.1,0.4-0.1,0.4,0c0,0,0,0.1,0,0.1
		c0,0,0,0,0,0.1l0.6,2.1c0,0,0,0.1-0.1,0.1l-0.2,0.1c-0.1,0-0.1,0-0.1,0L43.2,62C43.2,62,43.2,62,43.2,62z M44.1,61.3l0.4-0.1
		c0,0,0.1,0,0.1,0c0,0,0,0.1-0.1,0.1c-0.1,0-0.1,0.1,0,0.2l0.8,3c0.1,0.2-0.1,0.4-0.4,0.5l-0.3,0.1c0,0,0,0-0.1-0.1
		c0-0.1-0.1-0.1-0.1-0.2c0,0,0-0.1,0-0.1c0.2,0,0.3,0,0.4-0.1c0.1,0,0.2-0.1,0.2-0.2l-0.8-2.9c0-0.1,0-0.2-0.1-0.2
		C44,61.4,44,61.3,44.1,61.3C44,61.3,44,61.3,44.1,61.3z"/>
	<path class="st2" d="M47.7,59.6c0.2-0.1,0.3-0.2,0.3-0.1c0,0,0,0.1,0,0.1c0,0,0,0.1,0,0.1l0.2,0.3l0.8-0.5c0,0,0.1,0,0.1,0l0.1,0.1
		c0,0,0,0.1,0,0.1l-2,1.2c0,0-0.1,0-0.1,0L47,60.7c0,0,0-0.1,0-0.1l0.9-0.5L47.7,59.6C47.6,59.7,47.6,59.6,47.7,59.6z M47.6,60.7
		c0.1,0.1,0.3,0.2,0.4,0.2c0.1,0.1,0.2,0.1,0.3,0.2c0,0-0.1,0.1-0.2,0.2c-0.1-0.1-0.1-0.1-0.2-0.2c-0.1-0.1-0.2-0.2-0.4-0.2
		C47.4,60.9,47.5,60.8,47.6,60.7z M47.5,61.7l2.2-1.3c0,0,0.1,0,0.1,0l0.1,0.1c0,0,0,0.1,0,0.1l-2.2,1.3c0,0-0.1,0-0.1,0L47.5,61.7
		C47.5,61.8,47.5,61.7,47.5,61.7z M48.1,62.1l1.6-0.9c0,0,0.1,0,0.1,0l0.7,1.2c0,0,0,0.1,0,0.1l-0.2,0.1c0,0-0.1,0-0.1,0l-0.1-0.2
		L48.9,63l0.1,0.2c0,0,0,0.1,0,0.1l-0.2,0.1c0,0-0.1,0-0.1,0L48.1,62.1C48,62.1,48,62.1,48.1,62.1z M48.8,62.8l1.2-0.7l-0.4-0.6
		l-1.2,0.7L48.8,62.8z M48.7,60l0.3-0.1c0.1,0,0.1,0,0.1,0c0,0,0,0,0,0.1c0,0,0,0,0,0.1c0,0.3,0,0.5,0,0.6c0,0,0,0.1,0,0.1
		c0,0,0,0-0.1,0c-0.1,0-0.1,0-0.2,0c0,0,0,0,0,0c0,0,0,0,0,0c0-0.1,0-0.3,0-0.4C48.8,60.3,48.7,60.2,48.7,60
		C48.7,60,48.7,60,48.7,60z M49.6,59l1.7,2.9c0,0,0,0.1,0,0.1l-0.2,0.1c0,0-0.1,0-0.1,0L49.2,59c0,0,0-0.1,0-0.1l1.2-0.7
		c0.1,0,0.1,0,0.1,0c0.1,0,0.2,0,0.2,0l0,1.4c0,0,0,0.1,0,0.1c0,0,0,0,0.1,0c0.2,0,0.4,0.1,0.6,0.3c0.2,0.1,0.4,0.3,0.5,0.5
		c0.1,0.1,0.1,0.3,0.1,0.4c0,0.1-0.1,0.3-0.2,0.4c-0.1,0.1-0.2,0.2-0.4,0.3c-0.1,0-0.1,0-0.1,0c-0.1-0.1-0.1-0.1-0.2-0.2
		c0,0,0-0.1,0-0.1l0.2-0.1c0.1-0.1,0.2-0.2,0.2-0.3c0-0.1,0-0.2,0-0.3c-0.1-0.1-0.2-0.3-0.4-0.4c-0.2-0.1-0.5-0.2-0.7-0.3
		c0,0-0.1,0-0.1,0c0,0,0,0,0-0.1l0-1.3L49.6,59z"/>
</g>
<g>
	<path class="st3" d="M60.9,35.1c0,14.4-11.7,26.1-26.1,26.1c-14.4,0-26.1-11.7-26.1-26.1C8.7,20.7,20.4,9,34.8,9
		C49.3,9,60.9,20.7,60.9,35.1z"/>
</g>
<g>
	<path class="st1" d="M46.7,19.9c-1.2,0-2.4-0.1-3.6,0c-0.3,0.1-0.7,0.1-1,0.2c-1.6,0.5-2.3,1.1-2.8,2.7c-0.5,2.8,0.5,6.1,1.3,8.8
		c0.5,1,0.8,1.7,2,2c0.5,0,0.5,0,0.6-0.1c0.7-0.8,0.7-1.7,0.5-2.6c-0.2-0.7-0.4-1.3-0.6-2c-0.6-1.6-1.5-3.4-1.9-5
		c0-0.8,0-0.6,0.5-1.1c1.3-0.6,3.1-0.3,4.7-0.6c0.5-0.2,1.1-0.5,1.3-1C48.1,20.3,47.3,20,46.7,19.9z"/>
	<path class="st1" d="M29.7,22.2c-0.2-0.2-0.3-0.5-0.5-0.7c-0.7-0.7-1.4-1-2.1-1.3c-0.4-0.1-0.4-0.1-0.5-0.1
		c-1.9-0.5-3.8-0.6-5.7-0.5c-0.3,0.6,0.1,1.5,0.5,2c0.8,0.7,1.7,0.7,2.9,0.9c1.3,0.1,3-0.2,3.6,1.4c0.1,1.9-0.7,3.7-1.3,5.4
		c-0.4,1.5-1,3.2,0.9,3.9c0.6,0,0.8,0,1.3-0.5c0.6-1.2,0.8-2.4,1-3.7c0.2-1.5,0.3-2.9,0.3-4.3c0-0.7,0-0.7-0.1-1.5
		C30,23,29.8,22.6,29.7,22.2z"/>
	<path class="st1" d="M47.9,16c-0.7-0.6-1.7-0.8-2.5-0.9c-1.3,0-2.6,0.2-2.8,1.6c0.1,0.8,0,0.8,0.8,1.3c0.5,0.1,1.1,0.2,1.7,0.2
		c1.1-0.1,2.1,0,3-0.8C48.4,16.9,48.3,16.5,47.9,16z"/>
	<path class="st1" d="M21.9,17.7c0.8,0.2,1.5,0.3,2.5,0.3c0.7,0,1.3,0,2-0.5c0.7-1.1-0.4-1.7-1.2-2c-1.6-0.3-4.1-0.9-4.4,1.2
		C20.8,17.4,21.2,17.4,21.9,17.7z"/>
	<path class="st1" d="M35.4,14.4l0-0.3c0-1.3,0-1.3,0-4.5c-0.1-0.3-0.6-0.2-0.7-0.1l-0.1,0.1c0.1,3.4,0.1,3.4,0.1,4.6
		c-1.2-0.1-3.3-0.3-4.1,0.9c-0.2,0.7-0.1,0.6-0.8,0.9l0,0.1c0.2,0,0.5,0,0.7,0.1l-0.5,0.3l0,0.1c0.2,0,0.5,0,0.7,0.1
		c1.1,0.6,2.2,0.2,3.4-0.1l0.6,0c0,1,0,1.9,0,2.9l-0.3,0.3c-1,0.4-1.8,0.7-2.5,1.4c-0.6,1.1-0.3,1.9,0.5,2.8l0.1,0l0,0
		c0.4,0.2,0.9,0.5,1.5,0.6c0.3,0,0.6,0.1,0.9,0.1c0,0.6,0,1.2,0,1.8c-2.1,0.4-3.6,1.1-2.9,3.5c0.1,0.2,0.3,0.5,0.4,0.8
		c0.5,0.6,1,0.9,1.7,1.2c0.3,0,0.6,0.3,0.8,0.3c0,0.7,0,1.2,0,1.7c0.1,0,0.3,0,0.4,0c0.1,0,0.3,0,0.4,0c0-0.2,0-1.7,0.1-1.8
		c0.7-0.3,1.4-0.4,2.2-0.9c0.5-0.5,0.7-1,0.7-1.6l-0.2,0.1c-0.3,0.4-0.5,0.7-0.9,1c-0.4,0.1-1.5,0.6-1.8,0.4c0-1.1-0.2-2.3-0.1-3.4
		c1-0.2,1.9-0.3,2.5-1.3c0.6-1.3,0-2.2-1.1-2.7c-0.5-0.1-1.2-0.2-1.7-0.4c0-0.9-0.1-1.7-0.1-2.5c0.3-0.1,0.9-0.3,1.6-0.6
		c1.1-0.5,1.7-1,2-2.2c0-0.4,0-0.7,0-1.1C38.4,15.5,36.6,14.7,35.4,14.4z M32.4,15.5L32,15.7c-0.2-0.2-0.2-0.2-0.4-0.2l-0.1,0.4
		C31.3,16,31.3,16,31,16c-0.4-0.2-0.3-0.3-0.1-0.5c0.5-0.3,0.9-0.3,1.5-0.1L32.4,15.5z M34.6,23.3l-0.3-0.1
		c-0.3-0.1-0.6-0.2-0.9-0.2c-0.3-0.2-0.3-0.2-0.3-0.2v0l-0.1,0c-0.5-1,0.3-1.3,1-1.6l0.5-0.1C34.7,21.5,34.6,21.7,34.6,23.3z
		 M34.8,31.2l-0.3,0c-1.1-0.3-2.1-1.3-1.7-2.4c0.4-0.6,1.2-0.8,1.9-0.9C34.8,29.7,34.8,29.8,34.8,31.2z M36.6,25.2
		c0.2,0.3,0.2,0.7-0.1,0.9c-0.4,0.2-0.6,0.3-1,0.3l-0.1,0c0-0.6,0-1.2,0-1.8C35.9,24.7,36.3,24.8,36.6,25.2z M36.6,18.3L36.6,18.3
		c-0.5,0.4-0.8,0.6-1.3,0.8c0-0.9-0.1-1.7,0-2.5c0.6,0,1.5,0.4,1.6,0.9C36.9,17.8,36.9,18.2,36.6,18.3z"/>
</g>
<path class="st0" d="M36.8,46.9c0-0.9-0.7-1.6-1.6-1.6c-0.9,0-1.6,0.7-1.6,1.6c0,0.9,0.7,1.6,1.6,1.6C36.1,48.5,36.8,47.8,36.8,46.9
	z M42.8,43c0.1-0.1,0.1-0.1,0-0.2c0-0.1-0.1-0.1-0.2,0c0,0-0.5,0.3-1.2,0.9c-0.8-1.9-1.7-3.5-2.6-4.8c-1.1-1.6-2.2-2.9-3.2-3.8
	c0.6-0.7,1.3-1.4,2-2.1c0.1-0.1,0.1-0.1,0-0.2c0-0.1-0.1-0.1-0.2,0c0,0-1,0.6-2.4,1.9c-1.4-1.3-2.3-1.9-2.4-1.9c-0.1,0-0.2,0-0.2,0
	c0,0.1,0,0.2,0,0.2c0.7,0.7,1.4,1.4,2,2.1c-1,1-2.1,2.3-3.2,3.8c-0.9,1.3-1.8,2.8-2.5,4.7c-0.6-0.5-1-0.8-1-0.8c-0.1,0-0.2,0-0.2,0
	c0,0.1,0,0.2,0,0.2c0.4,0.4,0.7,0.7,1,1.1c-1.4,3.6-2.2,8.3-1.3,14c0,0.1,0.1,0.1,0.2,0.1s0.1-0.1,0.1-0.2c0-0.1-0.4-5.8,2-12.7
	c4.7,6.2,4.2,13.3,4.2,13.3c0,0.1,0.1,0.2,0.1,0.2c0.1,0,0.2,0,0.2-0.1c0.9-5.6-0.9-9.7-2.5-12.1c-0.6-0.8-1.1-1.5-1.7-2.1
	c1.1-2.9,2.7-6,5.1-8.9c2.4,3,4.1,6.1,5.2,9.1c-0.5,0.5-1,1.2-1.5,1.9c-1.6,2.4-3.4,6.4-2.5,12.1c0,0.1,0.1,0.1,0.2,0.1
	c0.1,0,0.1-0.1,0.1-0.2c0-0.1-0.5-7,4-13.2c2.4,6.8,2,12.4,2,12.5c0,0.1,0.1,0.2,0.1,0.2c0.1,0,0.2,0,0.2-0.1
	c0.9-5.6,0.1-10.2-1.2-13.9C42,43.8,42.4,43.4,42.8,43z M28.1,39.2c0-1.4-1.1-2.5-2.5-2.5c-1.4,0-2.5,1.1-2.5,2.5
	c0,1.4,1.1,2.5,2.5,2.5C26.9,41.6,28.1,40.5,28.1,39.2z M13.7,32.7c-0.1,0-0.2,0-0.2,0c0,0.1,0,0.2,0,0.2c11.1,10.7,10,25,10,25.2
	c0,0.1,0.1,0.2,0.1,0.2c0.1,0,0.2,0,0.2-0.1c1.4-9-1.4-15.4-4-19.2C17,34.7,13.7,32.7,13.7,32.7z M47.1,39.2c0-0.7-0.3-1.3-0.7-1.7
	c-0.5-0.5-1.1-0.7-1.7-0.7c-1.4,0-2.5,1.1-2.5,2.5c0,1.4,1.1,2.5,2.5,2.5C46,41.6,47.1,40.5,47.1,39.2z M56.8,32.7
	c0-0.1-0.1-0.1-0.2,0c0,0-3.3,2.1-6.1,6.2c-2.6,3.8-5.4,10.3-4,19.2c0,0.1,0.1,0.1,0.2,0.1s0.1-0.1,0.1-0.2c0-0.1-1.1-14.5,10-25.2
	C56.8,32.8,56.8,32.8,56.8,32.7z"/>
<g>
	<path class="st4" d="M86.6,8.8c0.3,0,0.4,0.1,0.4,0.3s-0.1,0.3-0.4,0.4c-1,1.9-2.2,3.5-3.7,4.9l-1.5-1.2c1.5-1.4,2.7-3,3.6-4.9
		L86.6,8.8z M86.6,13.9c0.3,0,0.4,0.1,0.4,0.3c0,0.1-0.1,0.3-0.4,0.4c-0.3,0.6-0.6,1.1-0.9,1.6v11.3h-1.8v-8.8
		c-0.3,0.4-0.6,0.7-0.9,1l-1.5-1.2c1.5-1.4,2.7-3.1,3.6-5.1L86.6,13.9z M94.8,14.6v4.6h-1.9v1h2.5v1.5h-2.5v2h3.5v1.6h-3.5v1.9h-1.8
		v-1.9h-5v-1.6h1.5v-3.5h3.5v-1h-3.5v-4.6H94.8z M89.5,9.1l0.4-1.5l1.5,0.3c0.3,0,0.4,0.2,0.4,0.3c0,0.2-0.2,0.3-0.4,0.5l-0.1,0.4
		h3.3v3H96v1.6h-9.3v-1.6h1.9l0.4-1.5h-1.7V9.1H89.5z M93,16.3h-3.6v1.3H93V16.3z M91.1,21.8h-1.7v2h1.7V21.8z M92.9,12.1v-1.5h-2.1
		l-0.4,1.5H92.9z M101.7,14.1v1.8h-1.8v9.7c0,0.7-0.2,1.2-0.6,1.5c-0.4,0.4-1.2,0.5-2.6,0.5L96,25.9h1.3c0.4,0,0.7-0.2,0.7-0.6v-9.4
		h-2.8v-1.8H101.7z M101.3,9.1v1.7h-5.4V9.1H101.3z"/>
	<path class="st4" d="M111.4,9c0.2,0.1,0.3,0.2,0.3,0.4c0,0.1-0.2,0.2-0.7,0.3c-0.3,1-0.6,1.9-0.9,2.7h4.7V7.7l1.8,0.2
		c0.3,0,0.5,0.1,0.5,0.3c0,0.1-0.1,0.3-0.4,0.5v3.7h6.6v1.8h-6.6v4.3h5.8v1.8h-5.8v4.5h7.7v1.8h-18.8v-1.8h9.1v-4.5h-6v-1.8h6v-4.3
		h-5.5c0,0.1-0.1,0.2-0.1,0.3c-0.7,1.3-1.4,2.4-2.2,3.4l-2-1.3c1.1-1.1,1.9-2.3,2.5-3.5c0.6-1.2,1.2-2.7,1.8-4.7L111.4,9z"/>
	<path class="st4" d="M130.4,16c0.2,0,0.3,0.1,0.3,0.2c0,0.1-0.1,0.2-0.2,0.4c-0.1,2.7-0.2,4.6-0.4,5.9c-0.1,0.9-0.3,1.9-0.5,2.8
		l-1.8-0.4c0.3-1.1,0.4-2,0.6-2.7c0.2-1.3,0.3-3.5,0.4-6.4L130.4,16z M136.7,12.3V14h-3.4v13.5h-1.9V14H128v-1.7H136.7z M135.6,8.8
		v1.7h-6.7V8.8H135.6z M136,16c0,0.8-0.1,1.4-0.1,2c0,1.8,0.2,3.8,0.6,6l-1.6,0.2c-0.4-2.1-0.6-4.1-0.6-6.1c0-0.6,0-1.3,0.1-2H136z
		 M147.9,8.8v1.7h-11V8.8H147.9z M147.9,17.9v9.6H146v-0.9h-7.2v0.9h-1.9v-9.6H147.9z M147.1,11.5v5.3h-9.2v-5.3H147.1z M141.5,21.5
		v-1.9h-2.7v1.9H141.5z M141.5,24.9v-1.7h-2.7v1.7H141.5z M145.2,13.3h-5.6v1.9h5.6V13.3z M143.3,21.5h2.8v-1.9h-2.8V21.5z
		 M146,24.9v-1.7h-2.8v1.7H146z"/>
	<path class="st4" d="M160.9,9.8c-0.8,0.3-1.5,0.6-2.3,0.8v3.2h4.3v1.9h-3.6c1,2.3,2.4,4.3,4,5.9l-1.7,1.2c-1.1-1.4-2-2.9-2.9-4.7
		v9.5h-2v-9.3c-0.3,0.5-0.5,1-0.7,1.5c-0.6,1.3-1.5,2.8-2.7,4.4l-2.1-1.5c1.3-1.3,2.3-2.6,3.1-3.9c0.5-0.9,1.1-1.9,1.8-3.1h-4.3
		v-1.9h4.9v-2.6c-1.1,0.3-2.2,0.5-3.3,0.7l-1.3-1.8c1.8-0.1,3.3-0.4,4.6-0.7c1.2-0.2,2.6-0.7,4.3-1.5l1.4,1.4
		c0.1,0.1,0.1,0.2,0.1,0.3c0,0.1-0.1,0.2-0.3,0.2l-0.5-0.1C161.4,9.6,161.2,9.7,160.9,9.8z M166,10.6c0.3,0,0.5,0.1,0.5,0.3
		c0,0.1-0.1,0.2-0.4,0.4V23h-1.9V10.4L166,10.6z M170.5,8.3c0.2,0,0.4,0.1,0.4,0.3c0,0.2-0.2,0.4-0.5,0.6V25c0,0.9-0.3,1.5-0.9,1.9
		c-0.5,0.4-1.7,0.7-3.6,0.7l-0.8-2h2.1c0.7,0,1.1-0.3,1.2-0.9V8.1L170.5,8.3z"/>
	<path class="st4" d="M179.3,15.8l-1,0.6h3.9l-1.2-0.5l1.7-3.5l1.5,0.7c0.2,0.1,0.3,0.2,0.3,0.3c0,0.2-0.2,0.4-0.4,0.5l-1.5,2.5h3
		v1.7h-11.5v-1.7h3.4c-0.6-1.1-1.3-2.1-2-3.2l1.7-0.9C178.1,13.5,178.8,14.6,179.3,15.8z M181,7.9c0.4,0,0.5,0.1,0.5,0.3
		c0,0.1-0.1,0.3-0.4,0.5v1.6h4v1.7h-10.3v-1.7h4.4V7.8L181,7.9z M184.4,19.6v7.7h-1.9v-1.2h-5.1v1.2h-1.9v-7.7H184.4z M182.5,24.4
		v-3.1h-5.1v3.1H182.5z M193.9,9.7l-2.3,6c1.7,1.9,2.5,3.6,2.5,5.1c0,1.2-0.4,2.2-1.3,3c-0.9,0.7-2,1.1-3.3,1.1l-0.8-2
		c1.4-0.2,2.4-0.4,2.8-0.8c0.4-0.3,0.6-0.8,0.6-1.5c0-1.2-0.8-2.8-2.5-4.8l1.9-5.5h-3v17.3h-2v-19h5.4c0.1-0.2,0.2-0.3,0.3-0.3
		L193.9,9.7z"/>
</g>
<g>
	<g>
		<linearGradient id="SVGID_1_" gradientUnits="userSpaceOnUse" x1="81.114" y1="48.7124" x2="487.3655" y2="48.7124">
			<stop  offset="0" style="stop-color:#1A4EAF"/>
			<stop  offset="1" style="stop-color:#2685FF"/>
		</linearGradient>
		<path class="st5" d="M102.2,57.8c-0.1,0.2-0.2,0.3-0.4,0.3c-0.4,0-1-0.5-1.8-1.5c-0.8-1.2-1.5-2.6-2-4.3c-0.1-0.2-0.1-0.4-0.2-0.7
			h7.6v-3.1h-8.1c-0.1-0.8-0.2-1.8-0.3-2.9h7.3v-9.1H82.9v20.7c-0.6,0.1-1.1,0.2-1.8,0.3l1.2,3.5c4.3-0.9,8.2-1.8,11.7-3L93.5,55
			c-2.3,0.6-4.8,1.2-7.4,1.7v-5.1h8.4c0.2,0.8,0.4,1.7,0.7,2.4c0.9,2.4,2,4.3,3.4,5.7c1.3,1.2,2.4,1.8,3.1,1.8c1,0,1.9-0.3,2.5-0.7
			c0.8-0.7,1.4-2,1.6-4.1l-3.3-1.2C102.5,56.6,102.4,57.4,102.2,57.8z M86,48.5v-2.9h7.4c0.1,1,0.2,2,0.3,2.9H86z M86,42.6v-3h15.1
			v3H86z M132,54.6c-0.3-0.5-0.6-1-0.8-1.7c0.1-1.2,0.2-2.5,0.2-4.1l-1-0.1c1.1-0.2,2.2-0.4,3.3-0.6l-1.6-2.9h2.1V37h-22.9v8.4h20.2
			c-6.7,1.3-13.5,2-20.2,2l1,2.9c0.5,0,1.1,0,1.7-0.1c0,2.5-0.3,4.3-1,5.5c-0.6,1-1.7,1.9-3.2,2.6l1.4,3c1.7-0.8,3.2-1.9,4.2-3.2
			c0.2,0.3,0.3,0.5,0.6,0.8c0.6,0.8,1.5,1.5,2.8,2.2l2-3.1c-1.5-0.7-2.6-1.6-3.4-2.8c-0.2-0.3-0.4-0.6-0.6-0.9
			c0.2-1.1,0.3-2.3,0.3-3.8l-2.6-0.2c2.2-0.1,4.4-0.2,6.5-0.3v11.4h3.3v-2.2l1.1,2.3c1.9-0.9,3.4-2.2,4.5-3.9c0,0,0,0,0.1-0.1
			c0.2,0.4,0.4,0.8,0.7,1.1c0.7,1,1.8,1.9,3.2,2.7l2-3.1C134.1,57.3,132.9,56.1,132,54.6z M117.8,42.4h-3.3v-2.5h3.3V42.4z
			 M124.5,42.4H121v-2.5h3.5V42.4z M131.1,42.4h-3.4v-2.5h3.4V42.4z M127.3,55.2c-0.6,1.1-1.6,2.1-3,2.9v-8.6
			c1.3-0.1,2.7-0.3,3.9-0.5C128.2,51.9,127.9,53.9,127.3,55.2z M139.4,58.5l2.9,0.9c0.3-1.8,0.6-4.1,1-6.8l-2.8-0.6
			C140.1,54.1,139.8,56.3,139.4,58.5z M165,52.4l-1.9-2.5c-1.2,0.9-2.4,1.6-3.6,2.1c-0.2-0.2-0.3-0.4-0.5-0.7V49h4.9V38.2h-6.6
			c0.2-0.5,0.4-1,0.6-1.5l-3.2-0.7c-0.1,0.8-0.3,1.5-0.6,2.2h-3.4V49h5.2v1.4h-5.7v2.7h3.4c-0.3,0.6-0.8,1.3-1.4,2
			c-0.5,0.6-1.1,1.2-1.8,1.7c-0.3-1.8-0.6-3.6-1.1-5.2l-2.6,0.8c0.4,1.7,0.8,3.7,1,5.8l1.4-0.4c-0.1,0.1-0.1,0.1-0.2,0.1l1.8,2.5
			c0.7-0.5,1.5-1.1,2.1-1.7l0.4,2.1c0.8,0.4,1.6,0.6,2.5,0.6c1.3,0,2.2-0.3,2.7-0.9c0.4-0.5,0.6-1.5,0.6-3v-1.3
			c0.4,0.6,0.8,1.1,1.3,1.5c1.1,1.1,2.2,1.9,3.4,2.5l1.6-3.1c-1.5-0.7-2.8-1.6-3.9-2.8C162.7,53.8,163.9,53.1,165,52.4z M156,56.6
			c0,0.6-0.1,1.1-0.1,1.4c-0.1,0.2-0.3,0.3-0.5,0.3c-0.6,0-1.2-0.1-1.8-0.3c0.5-0.6,1.1-1.2,1.6-1.9c0.3-0.4,0.6-1,0.9-1.5V56.6z
			 M153.8,40.9h7.1v1.3h-7.1V40.9z M153.8,46.2v-1.4h7.1v1.4H153.8z M147.7,51l2.9-0.9c-0.4-2.1-1-4.1-1.7-5.9l-2.1,0.6
			c0.9-1.4,1.8-2.9,2.7-4.6l-3.1-1.3c-0.6,1.3-1.3,2.7-2.1,4.1c-0.3-0.2-0.6-0.4-0.9-0.6c0.9-1.5,1.8-3.2,2.9-5.1l-2.9-1.3
			c-0.6,1.6-1.4,3.1-2.3,4.7c-0.1,0-0.1-0.1-0.2-0.1l-1.8,2.3c1.3,1,2.5,2,3.7,2.9c-0.4,0.6-0.8,1.3-1.2,1.9c-0.7,0-1.4,0.1-2.1,0.1
			l0.6,3c1.1-0.1,2.3-0.2,3.4-0.3v10.9h2.9V50c0.4,0,0.8-0.1,1.1-0.1C147.6,50.2,147.6,50.6,147.7,51z M145.2,47.4
			c0.4-0.6,0.8-1.3,1.3-2c0.2,0.6,0.4,1.2,0.6,1.9C146.4,47.3,145.8,47.3,145.2,47.4z M182.1,47.3h10.3v-3.2h-10.3v-7.6h-3.4v21.2
			h-9.2v3.2h24.1v-3.2h-11.5V47.3z M212.5,36.2h-3.2v3.5h-8.8v17.2h3.2v-1.8h5.7v6.5h3.2v-6.5h5.9v1.8h3.2V39.7h-9.1V36.2z
			 M209.3,52h-5.7V49h5.7V52z M209.3,45.9h-5.7v-3.2h5.7V45.9z M218.4,52h-5.9V49h5.9V52z M218.4,42.7v3.2h-5.9v-3.2H218.4z
			 M240.2,36.2h-2.9V41H236v2.9h1.3c-0.1,4.1-0.4,7.2-1,9.5c-0.6,2.4-1.6,4.3-2.8,5.9l2.1,2.1c0.8-1,1.5-2.1,2.1-3.4l0.5,2.4
			c0.8,0.3,1.5,0.5,2.1,0.5c1.2,0,2-0.6,2.5-1.9c0.6-1.1,0.9-7,0.9-17.9h-3.5V36.2z M240.8,43.8c-0.1,7.4-0.2,11.6-0.3,12.6
			c-0.1,0.8-0.3,1.3-0.6,1.3c-0.6,0-1.2-0.1-2-0.5c0.3-0.7,0.6-1.4,0.8-2.2c0.8-2.9,1.3-6.6,1.4-11.2H240.8z M235.1,51.4
			c-0.6,0.2-1.2,0.4-1.8,0.6v-1.9h2.6v-2.8h-2.1c0.5-1.3,1.1-2.7,1.6-4.4l-1.6-0.4h1.9v-2.9h-2.3v-3.4h-3.1v3.4H228v2.9h4.5
			c-0.4,1.7-0.9,3.3-1.4,4.8h-3.6v2.8h2.7c0,1.2,0,1.8,0,1.9v0.8c-0.9,0.2-1.8,0.4-2.8,0.6l1,2.9c0.4-0.1,0.9-0.2,1.4-0.4
			c-0.1,0.2-0.1,0.4-0.2,0.6c-0.4,1.1-1.1,2-1.9,2.7l1.8,2.3c1.1-0.8,2-1.8,2.7-3.2c0.4-1,0.7-2.1,0.9-3.4c0.8-0.3,1.7-0.6,2.5-0.9
			L235.1,51.4z M252.4,42.9l-1.9-0.5h2.4v-2.9h-3.1v-3.4h-3.1v3.4H244v2.9h5.7c-0.4,1.6-0.9,3.2-1.4,4.7h-1.5l1.3-0.6
			c-0.4-1.4-1-2.6-1.7-3.8l-2.4,1.1c0.5,1,0.9,2.1,1.3,3.3h-1.4v2.8h2.7v2.3h-2.4v2.9h2.4v6.1h3.1v-6.1h2.7v-2.9h-2.7v-2.3h3.3v-2.8
			h-2.1C251.4,45.9,251.9,44.5,252.4,42.9z M230.1,42.7l-2.3,1.1c0.5,1,0.9,2,1.2,3.3l2.4-1C231,44.9,230.6,43.8,230.1,42.7z
			 M260.4,42.2h7.8v5.5h3.2v-5.5h7.9v2.6h3v-5.4h-10.8v-0.5h8.9v-2.6h-20.8v2.6h8.8v0.5h-10.7v5.4h3V42.2z M267.5,42.9h-6.7v2.3h6.7
			V42.9z M271.7,48h6.9v-2.3h-6.9V48z M279,58.4c-0.6,0.1-1.1,0.1-1.8,0.1c0,0.1-1.5,0.1-4.6,0.1c-0.6,0-1,0-1.2-0.1
			c-0.3,0-0.4-0.3-0.5-0.8h8.7v-9.1h-20.7v10.3h3.1v-1.2h5.7v0.5c0,1.9,0.6,2.9,2,2.9c0.5,0.2,1.1,0.3,1.8,0.3h1.1
			c2.2,0,4.4-0.1,6.6-0.2c1-0.1,1.7-0.2,2.2-0.4c0.7-0.5,1.2-1.5,1.6-2.9l-2.7-1.2C280.1,57.8,279.7,58.4,279,58.4z M267.8,55h-5.7
			v-0.8h5.7V55z M267.8,51.9h-5.7v-0.8h5.7V51.9z M271,51.1h5.7v0.8H271V51.1z M271,54.2h5.7V55H271V54.2z M260.8,48h6.7v-2.3h-6.7
			V48z M278.6,42.9h-6.9v2.3h6.9V42.9z M300.8,46.5c3.7-1.7,6.8-3.9,9.5-6.4v-3h-20.9v3.2h15.7c-1.8,1.3-3.8,2.4-6,3.3l-1.6-0.2v3.7
			H287v3.2h10.5v6.5c0,0.5-0.1,0.9-0.2,1.1c-0.2,0.1-0.4,0.2-0.6,0.2c-1.2,0-2.4-0.2-3.6-0.5l0.5,3.6c1,0.1,2,0.2,3.1,0.2
			c1.5,0,2.5-0.3,3.2-0.8c0.6-0.4,0.9-1.4,0.9-2.9v-7.3h10.7v-3.2h-10.7V46.5z M332.8,36.3h-3.4v1.7h-9.3v7.3
			c-0.3-1.5-0.6-2.9-1-4.2l-3,0.9c0.4,1.5,0.8,3.1,1,4.9l3-1v2.4c-1.4,0.8-2.9,1.5-4.6,2.2l1.4,3.2c1-0.4,2-1,2.9-1.6
			c-0.1,0.6-0.2,1.2-0.3,1.8c-0.3,1.7-0.9,3.6-1.8,5.9l2.8,1.7c0.8-1.8,1.5-3.6,1.8-5.4c0.4-2.2,0.7-4.5,0.7-6.8v-8.4H341v-2.9h-8.2
			V36.3z M323.8,45.3h7.2c0,0.7-0.1,1.3-0.1,1.8h-6.8V61h3.1V49.9h3.4c-0.2,0.8-0.3,1.5-0.6,1.9c-0.6,1.3-1.5,2.4-2.6,3.2l1.7,2.7
			c1.5-1.1,2.7-2.4,3.5-4c1.2,1,2.3,2.1,3.2,3.3l1.7-2.4v1.7c0,1-0.1,1.5-0.2,1.5c-1,0-2-0.2-3.2-0.6l0.6,3.3c1,0.2,1.8,0.3,2.5,0.3
			c2.2,0,3.3-1.3,3.3-3.8V47.1h-6.6c0-0.6,0-1.2,0.1-1.8h6.8v-3h-16.9V45.3z M333.6,49.9h3.8v3.9c-1.1-1.1-2.4-2.2-3.9-3.1
			C333.5,50.5,333.5,50.3,333.6,49.9z M361.5,56.5h6.9v-2.9h-6.9v-2.1h-3.3v6.5h-2.7v-4.5h-3.3v4.5h-2.7v2.8h20.8v-2.8h-8.7V56.5z
			 M350.3,49.4l1.1,1.8c0.8-0.6,1.7-1.4,2.5-2.4v2.9h2.9v-2.3c0.4,0.5,0.8,1,1.2,1.5l1.6-2.3c-0.7-0.6-1.5-1.3-2.5-2h2.5v-2.5h-2.8
			v-1.5c1-0.2,1.9-0.4,2.7-0.6l-1.3-2.4c-2.5,0.7-4.9,1.1-7.3,1.1l0.8,2.5c0.8,0,1.6-0.1,2.3-0.2v1.1h-3.1v2.5h1.8
			c-0.2,0.2-0.4,0.4-0.6,0.6c-0.4,0.5-1.1,1-1.8,1.5v-9.4H370v-2.7h-22.6V47c0,2.2-0.2,4.4-0.5,6.5c-0.3,1.8-0.8,3.9-1.6,6.3
			l2.7,1.7c0.8-2,1.3-3.9,1.7-5.8C350,53.6,350.2,51.5,350.3,49.4z M367.8,46.7h1.9v-2.5h-3.5v-1.4c1.2-0.2,2.3-0.4,3.3-0.7
			l-1.3-2.5c-2.7,0.8-5.5,1.2-8.2,1.2l0.8,2.5c0.9,0,1.8-0.1,2.7-0.2v1h-3.3v2.5h2.2c-0.2,0.3-0.4,0.5-0.7,0.8
			c-0.8,0.7-1.5,1.3-2.2,1.7l1.2,2.2c0.8-0.4,1.7-1.2,2.8-2.3c0,0,0,0,0,0v2.6h2.7v-2.9c0.1,0.1,0.1,0.2,0.3,0.3
			c0.8,1,1.7,1.7,2.6,2.3l1.4-2.6c-0.8-0.3-1.6-0.8-2.2-1.3C368.2,47.1,368,46.9,367.8,46.7z M399.6,48.8v-2.2H390v-6.9h5.5
			c-0.2,1.4-0.3,2.3-0.5,2.6c-0.1,0.2-0.3,0.2-0.6,0.2c-1,0-1.9-0.1-2.9-0.2l0.6,3c1,0.1,1.9,0.2,2.7,0.2c1.1,0,1.9-0.3,2.5-0.8
			c0.8-0.8,1.3-3.4,1.4-8h-11.9v24.7h3.2v-2.5l1.3,2.5c1.4-0.6,2.6-1.6,3.8-2.9c0.9,1,2,2,3.1,2.9l2.3-2.9c-1.3-0.8-2.5-1.7-3.5-2.6
			C398,54.2,398.9,51.8,399.6,48.8z M390,58.4v-8.1c0.8,2.2,1.9,4.2,3.1,5.9C392.2,57.1,391.2,57.8,390,58.4z M394.8,53.4
			c-0.8-1.1-1.6-2.5-2.3-4h3.8C395.9,50.9,395.4,52.3,394.8,53.4z M376.2,36.7v13.2c0,2.5-0.2,4.6-0.5,6.2c-0.3,1.7-0.7,3.1-1.2,4.3
			l2.9,1.1c0.6-1.2,1-2.6,1.3-4.1c0.3-1.5,0.4-3.1,0.5-4.9h3.2v3.8c0,1.3-0.3,2-1,2c-0.6,0-1.1-0.1-1.8-0.2l0.7,3.1h1.6
			c2.2,0,3.4-1.2,3.4-3.6V36.7h-7.6H376.2z M379.2,39.7h3.2v3.7h-3.2V39.7z M379.2,46.2h3.2v3.4h-3.2V46.2z M428.3,50.1l1.4-2.9
			c-1.7-0.4-3.2-1.1-4.6-1.8c0.9-1.1,1.6-2.5,2-4.2h2.2v-2.9h-8.4c0.2-0.4,0.4-0.9,0.5-1.4l-3-0.7c-0.4,1.1-0.9,2.2-1.5,3.2
			c-0.5,1-1.2,1.9-2.1,2.9l2,2.2c0.4-0.3,0.7-0.7,1-1.1c0.6,0.9,1.3,1.7,2.1,2.4c-1,0.6-2.2,1.2-3.6,1.7c0-0.1,0.1-0.2,0.1-0.3v-2.3
			h-3.6l0.7-0.9c-0.3-0.2-0.6-0.4-0.9-0.7c1.3-1,2.4-2.2,3.4-3.6V37h-11.5v2.9h7.2c-0.6,0.6-1.3,1.1-2,1.6c-0.7-0.4-1.4-0.8-2.2-1.1
			l-2.1,2.2c1.2,0.7,2.5,1.5,3.7,2.3h-5.1v2.8h4.4c-1.1,2.5-2.7,4.7-4.8,6.7l2.3,2.3c1.1-1.2,2-2.4,2.9-3.8v3.6
			c0,0.6-0.1,1.1-0.1,1.4c-0.1,0.2-0.2,0.3-0.4,0.3c-0.9,0-1.8-0.1-2.6-0.4l0.5,3.2c0.8,0.2,1.6,0.3,2.5,0.3c1.2,0,2-0.3,2.5-1
			c0.4-0.6,0.6-1.6,0.6-3.1v-9.5h1.2c-0.3,0.9-0.6,1.7-1,2.4l2.2,1.4c0.5-0.8,1-1.8,1.5-3l1.4,1.9c0.7-0.3,1.3-0.5,1.9-0.8
			c0,0.5-0.1,1-0.1,1.4h-3.6v2.9h3.1c-0.2,0.4-0.3,0.9-0.5,1.2c-0.8,1.4-2.1,2.6-4,3.5l1.7,2.9c2.1-1.1,3.8-2.6,4.9-4.5
			c0.5-0.8,0.8-1.8,1.1-3.1h3.4c0,1.4-0.1,2.6-0.2,3.8c-0.1,0.4-0.1,0.6-0.2,0.6c-0.1,0.1-0.2,0.1-0.3,0.1c-0.7,0-1.7-0.2-2.7-0.5
			l0.3,3.2c0.9,0.2,1.7,0.3,2.4,0.3c0.8,0,1.4-0.1,2-0.4c0.5-0.3,0.9-0.6,1-1.1c0.5-2,0.8-5,0.8-9h-6.2c0.1-0.6,0.1-1.3,0.1-2.1
			h-1.7c0.7-0.4,1.3-0.8,1.9-1.2C424.3,48.7,426.2,49.5,428.3,50.1z M419.9,41.1h3.9c-0.3,1-0.8,1.8-1.4,2.5
			C421.5,42.9,420.6,42,419.9,41.1z M439.3,41l-2.9,1.4c0.9,2,1.7,4.2,2.3,6.7l3.3-1.4C441.2,45.2,440.3,43,439.3,41z M447.8,40.1
			h9.2V37h-21.8v3.2h9.1v9.4h-10.4v3.2h10.4v8.7h3.5v-8.7h10.6v-3.2h-10.6V40.1z M453.4,49.1c0.9-1.9,1.7-4.3,2.4-7.1l-3.3-1.1
			c-0.5,2.2-1.3,4.4-2.3,6.6L453.4,49.1z M484.2,47.8l3.2-1.8c-1.5-2.4-3.4-4.7-5.8-6.9l-2.8,1.7c0.8,0.8,1.6,1.7,2.4,2.5
			c-3.1,0.3-6.6,0.5-10.4,0.6c0.8-0.7,1.6-1.5,2.4-2.5c1.3-1.6,2.4-3.1,3.2-4.5l-3.6-1.1c-0.8,1.7-1.8,3.3-3,4.9
			c-0.9,1.2-1.8,2.3-2.9,3.4c-1,0.1-2.1,0.1-3.1,0.1l0.5,3.2c6.8-0.4,13.1-1,18.8-1.6C483.4,46.5,483.8,47.1,484.2,47.8z
			 M465.8,61.3h3.2V60h13.1v1.3h3.2V48.5h-19.5V61.3z M469,51.5h13.1v5.6H469V51.5z"/>
	</g>
</g>
</svg>
