<svg xmlns="http://www.w3.org/2000/svg" width="589.756" height="149.927" viewBox="0 0 589.756 149.927"><g transform="translate(0.5 0.734)"><path d="M492.849,154.906h-95.2V65.167h27.963v11.57h21.3V39.653l45.942,0Zm-94.2-1h93.2V40.651l-43.942,0V77.737h-23.3V66.167H398.644Zm20.173-13.131H412.98v-4.93h5.837Zm-4.837-1h3.837v-2.93H413.98Zm-3.707,1h-5.837v-4.93h5.837Zm-4.837-1h3.837v-2.93h-3.837Zm13.381-7.377H412.98v-4.93h5.837Zm-4.837-1h3.837v-2.93H413.98Zm-3.707,1h-5.837v-4.93h5.837Zm-4.837-1h3.837v-2.93h-3.837Zm38.271-7.289H428.825v-3.18h14.882Zm-13.882-1h12.882v-1.18H429.825Zm-11.005.914h-5.836v-4.93h5.836Zm-4.836-1h3.836v-2.93h-3.836Zm-3.707,1H404.44v-4.93h5.837Zm-4.837-1h3.837v-2.93H405.44Zm38.26-5.6H428.827l0-3.177H443.7Zm-13.873-1H442.7v-1.177H429.825Zm-11-.781h-5.838v-4.93h5.838Zm-4.838-1h3.838v-2.93h-3.838Zm-3.706,1h-5.837v-4.93h5.837Zm-4.837-1h3.837v-2.93h-3.837Zm38.257-3.9H428.829l0-3.181H443.7Zm-13.873-1H442.7v-1.181H429.826Zm-11.005-2.482h-5.837v-4.93h5.837Zm-4.837-1h3.837v-2.93h-3.837Zm-3.706,1h-5.838v-4.93h5.838Zm-4.838-1h3.838v-2.93h-3.838Zm38.259-2.207H428.829l0-3.181H443.7Zm-13.873-1H442.7v-1.181H429.826Zm51.186-.6H468.94l0-54.615h12.069Zm-11.073-1h10.073V48.841H469.944Zm-7.322,1h-5.067V47.841h5.067Zm-4.067-1h3.067V48.841h-3.067Zm-39.725-2.568h-5.838V93.956h5.838Zm-4.838-1h3.838V94.956h-3.838Zm-3.707,1h-5.837V93.956h5.837Zm-4.837-1h3.837V94.956h-3.837Zm38.256-.512H428.829l0-3.181H443.7Zm-13.873-1H442.7V95.195H429.826ZM443.7,90.692H428.832l-.009-3.178H443.7Zm-13.87-1H442.7V88.514H429.826Zm-11,.82H412.99V85.58h5.837Zm-4.837-1h3.837V86.58H413.99Zm-3.707,1h-5.837V85.58h5.837Zm-4.837-1h3.837V86.58h-3.837Zm13.386-7.371H413l-.006-4.93h5.838Zm-4.833-1h3.833v-2.93H414Zm-3.711,1h-5.837v-4.93h5.837Zm-4.837-1h3.837v-2.93h-3.837Z" transform="translate(-56.663 -5.714)" fill="#fff"/><path d="M665.531,158.477H565.276V64.751h27.966V76.323h21.3V65.9h50.989Zm-99.255-1h98.255V66.9H615.542V77.323h-23.3V65.752H566.276Zm20.167-17.121h-5.837v-4.928h5.837Zm-4.837-1h3.837v-2.928h-3.837Zm-3.706,1h-5.836l0-4.928H577.9Zm-4.836-1H576.9v-2.928h-3.838Zm13.379-7.381h-5.837v-4.926h5.837Zm-4.837-1h3.837v-2.926h-3.837Zm-3.706,1h-5.836l0-4.926H577.9Zm-4.836-1H576.9v-2.926h-3.838Zm84.366-.638H641.655v-4.33H657.43Zm-14.775-1H656.43v-2.33H642.654Zm-4.245,1H622.638l0-4.329h15.77Zm-14.772-1H637.41v-2.329H623.64Zm-12.3-5.65H596.452l0-3.179h14.882Zm-13.884-1h12.884v-1.179H597.454Zm-11,.914h-5.838v-4.93h5.838Zm-4.838-1h3.838v-2.93h-3.838Zm-3.706,1h-5.836v-4.93H577.9Zm-4.836-1H576.9v-2.93h-3.836Zm84.366.411H641.659V118.68h15.775Zm-14.776-1h13.776V119.68H642.66Zm-4.249,1H622.643l0-4.331H638.41Zm-14.767-1H637.41V119.68H623.641Zm-12.3-5.005H596.454v-3.18H611.34Zm-13.886-1H610.34v-1.18H597.454Zm59.984-.319H641.661v-4.328h15.776Zm-14.777-1h13.777v-2.328H642.662Zm-4.251,1H622.646l-.005-4.328h15.77Zm-14.766-1H637.41v-2.328H623.642Zm-37.193.543h-5.838V110.3h5.838Zm-4.838-1h3.838V111.3h-3.838Zm-3.708,1h-5.836V110.3H577.9Zm-4.836-1H576.9V111.3h-3.836Zm38.268-3.9H596.453v-3.18h14.883Zm-13.884-1h12.884v-1.18H597.454Zm59.983-.96H641.661v-4.329h15.775Zm-14.775-1h13.775v-2.329H642.661Zm-4.251,1H622.644l0-4.329H638.41Zm-14.766-1H637.41v-2.329H623.641Zm-37.193-.518h-5.838v-4.928h5.838Zm-4.838-1h3.838v-2.928h-3.838Zm-3.708,1h-5.836v-4.928h5.836Zm-4.836-1h3.836v-2.928h-3.836Zm38.271-2.2H596.455l0-3.181H611.34Zm-13.885-1H610.34v-1.181H597.456Zm40.955-1.6H622.642V96.714H638.41Zm-14.768-1H637.41V97.714H623.641Zm33.8,1H641.662V96.714h15.776Zm-14.777-1h13.777V97.714H642.663Zm-56.2-1.57H580.62v-4.93h5.837Zm-4.838-1h3.838v-2.93h-3.837Zm-3.707,1h-5.836v-4.93h5.836Zm-4.836-1h3.836v-2.93h-3.836Zm38.27-.512H596.454l.01-3.18h14.882Zm-13.889-1h12.889V94.78H597.461Zm59.99-2.242H641.664l.009-4.327h15.775Zm-14.782-1h13.782V90.391H642.671Zm-4.254,1H622.648V89.391h15.765Zm-14.764-1h13.764V90.391H623.647Zm-12.3-2.438H596.455l.021-3.182h14.873Zm-13.887-1h12.887V88.1H597.469Zm-11,.82h-5.837V85.167h5.837Zm-4.837-1h3.837V86.167h-3.837Zm-3.708,1h-5.836V85.167h5.836Zm-4.836-1h3.836V86.167h-3.836Zm84.365-2.7H641.664l.017-4.333H657.45Zm-14.782-1H656.45V83.067H642.677Zm-4.251,1H622.648l.008-4.333h15.761Zm-14.767-1h13.767V83.067H623.654Zm-37.188-3.679h-5.837V76.79h5.837Zm-4.837-1h3.837V77.79h-3.837Zm-3.707,1h-5.836V76.79h5.836Zm-4.836-1h3.836V77.79h-3.836Zm84.37-1.647H641.664l.013-4.328h15.774Zm-14.784-1h13.784V75.746H642.674Zm-4.258,1H622.649l0-4.328H638.41Zm-14.761-1H637.41V75.746H623.651Z" transform="translate(-76.276 -9.287)" fill="#fff"/><path d="M370.8,151.355H232.964V61.59H259.07V56h53.878V29.364h36.395l0-14.9,1.27.5,25.456,10.025V60.355H370.8Zm-136.836-1H369.8v-91h5.265V25.668l-24.726-9.737,0,14.433h-36.4V57H260.07v5.59H233.964ZM254.134,134H248.3l-.008-4.925h5.841Zm-4.835-1h3.835v-2.925h-3.839Zm-3.711,1h-5.834v-4.925h5.834Zm-4.834-1h3.834v-2.925h-3.834Zm13.38-7.372H248.3l-.008-4.93h5.841Zm-4.835-1h3.835V121.7h-3.839Zm-3.711,1h-5.834V120.7h5.834Zm-4.834-1h3.834V121.7h-3.834Zm13.383-7.375H248.3l0-4.93h5.84Zm-4.837-1h3.837v-2.93H249.3Zm-3.709,1h-5.837v-4.93h5.837Zm-4.837-1h3.837v-2.93h-3.837Zm13.386-7.377h-5.835l-.005-4.93h5.84Zm-4.836-1h3.836v-2.93H249.3Zm-3.71,1h-5.837l0-4.93h5.84Zm-4.837-1h3.837v-2.93h-3.84Zm63.4-1.794H269.729l-.006-3.569h34.433Zm-33.429-1h32.429v-1.569H270.725Zm71.345-3.3h-8.083V96.853h8.083Zm-7.083-1h6.083V97.853h-6.083Zm-4.83,1h-8.082V96.853h8.082Zm-7.082-1h6.082V97.853h-6.082Zm-68.937-.286h-5.834l-.005-4.928h5.84Zm-4.836-1h3.836V96.566H249.3Zm-3.71,1h-5.837l0-4.928h5.84Zm-4.837-1h3.837V96.566h-3.84Zm63.4-.944H269.731l-.006-3.565h34.433Zm-33.429-1h32.429V95.985H270.727Zm71.345-4.142H334l-.01-4.93h8.083Zm-7.075-1h6.075v-2.93h-6.081Zm-4.836,1H322.08v-4.93h8.083Zm-7.083-1h6.083v-2.93H323.08Zm-68.937-.288h-5.835l-.005-4.929h5.84Zm-4.836-1h3.836V88.191H249.3Zm-3.707,1h-5.836l-.01-4.929H245.6Zm-4.838-1H244.6V88.191h-3.844Zm63.4-.1H269.733l-.006-3.565H304.16Zm-33.429-1H303.16V88.453H270.729Zm71.344-4.988h-8.082V80.1h8.082Zm-7.082-1h6.082V81.1h-6.082Zm-4.829,1h-8.083V80.1h8.083Zm-7.083-1h6.083V81.1h-6.083Zm-68.938-.287h-5.835l-.005-4.929h5.841Zm-4.837-1h3.837V79.814H249.3Zm-3.706,1h-5.832l-.015-4.929H245.6Zm-4.836-1H244.6V79.814h-3.844Zm63.4.743H269.735l-.007-3.566h34.433Zm-33.428-1h32.428V80.92H270.73Zm71.347-5.828H334l0-4.93h8.083Zm-7.08-1h6.08v-2.93H335Zm-4.831,1h-8.083v-4.93h8.083Zm-7.083-1h6.083v-2.93h-6.083Zm-18.925.3H269.734V72.39h34.427Zm-33.427-1h32.427V73.39H270.734Zm-16.59.413h-5.835L248.3,70.44h5.841Zm-4.837-1h3.837V71.44H249.3Zm-3.707,1h-5.832l-.015-4.929H245.6Zm-4.836-1H244.6V71.44h-3.844Zm63.4-5.948H269.735l-.006-3.565h34.433Zm-33.429-1h32.429V65.856H270.731Zm71.342.86h-8.082v-4.93h8.082Zm-7.082-1h6.082v-2.93h-6.082Zm-4.828,1h-8.083v-4.93h8.083Zm-7.083-1h6.083v-2.93h-6.083ZM342.075,59.9h-8.082V54.971h8.082Zm-7.082-1h6.082V55.971h-6.082Zm-4.829,1h-8.082V54.971h8.082Zm-7.082-1h6.082V55.971h-6.082Zm19-7.375H334L334,46.6h8.081Zm-7.086-1h6.086V47.6H335Zm-4.824,1h-8.083V46.6h8.083Zm-7.083-1h6.083V47.6h-6.083Zm18.994-7.38H334l.006-4.931h8.081Zm-7.086-1h6.086V39.214H335Zm-4.825,1h-8.083V38.214h8.083Zm-7.083-1h6.083V39.214h-6.083Z" transform="translate(-33.226 -2.163)" fill="#fff"/><path d="M533.213-.734V15.2l25.552,10.068V50.087H553.35v99.106H511.758V33.993h-5.267V9.794l.589-.232Zm24.552,26.683L532.213,15.88V.734l-24.722,9.741V32.993h5.267v115.2H552.35V49.087h5.415Z" transform="translate(-67.911)" fill="#fff"/><path d="M94.705,154.906H-.5V65.167H27.463v11.57h21.3V39.651H94.705Zm-94.205-1H93.705V40.651H49.763V77.737h-23.3V66.167H.5Zm20.172-13.131H14.836v-4.93h5.836Zm-4.836-1h3.836v-2.93H15.836Zm-3.707,1H6.292v-4.93h5.837Zm-4.837-1h3.837v-2.93H7.292Zm13.38-7.377H14.836v-4.93h5.836Zm-4.836-1h3.836v-2.93H15.836Zm-3.707,1H6.292v-4.93h5.837Zm-4.837-1h3.837v-2.93H7.292Zm38.271-7.289H30.68v-3.18H45.563Zm-13.883-1H44.563v-1.18H31.68Zm-11,.914H14.839l.006-4.93h5.836Zm-4.841-1h3.841v-2.93H15.844Zm-3.7,1H6.3v-4.93h5.838Zm-4.838-1h3.838v-2.93H7.3Zm38.26-5.6H30.683l0-3.177H45.56Zm-13.877-1H44.56v-1.177H31.685Zm-11-.781H14.842v-4.93H20.68Zm-4.838-1H19.68v-2.93H15.843Zm-3.706,1H6.3v-4.93h5.836Zm-4.836-1h3.836v-2.93H7.3Zm38.26-3.9H30.685l0-3.181H45.56Zm-13.877-1H44.56v-1.181H31.682Zm-11-2.482H14.84l0-4.93h5.838Zm-4.841-1h3.841v-2.93H15.843Zm-3.7,1H6.3v-4.93h5.837Zm-4.837-1h3.837v-2.93H7.3Zm38.26-2.207H30.684v-3.181H45.56Zm-13.876-1H44.56v-1.181H31.683Zm51.185-.6H70.8V47.84H82.869Zm-11.069-1H81.869V48.84H71.8Zm-7.326,1H59.407V47.84h5.067Zm-4.067-1h3.067V48.84H60.407ZM20.682,98.887H14.844V93.955h5.838Zm-4.838-1h3.838V94.955H15.844Zm-3.707,1H6.3V93.955h5.837Zm-4.837-1h3.837V94.955H7.3Zm38.26-.511H30.684V94.195H45.56Zm-13.876-1H44.56V95.195H31.683ZM45.56,90.691H30.689l-.01-3.178H45.56Zm-13.875-1H44.56V88.513H31.682Zm-11,.82H14.846l0-4.932h5.837Zm-4.835-1h3.835V86.579H15.844Zm-3.706,1H6.3V85.579h5.84Zm-4.84-1h3.84V86.579H7.3ZM20.687,82.14H14.852V77.21h5.836Zm-4.835-1h3.835V78.21H15.851Zm-3.708,1H6.307V77.21h5.837Zm-4.837-1h3.837V78.21H7.307Z" transform="translate(0 -5.714)" fill="#fff"/><path d="M213.55,158.477H113.294V64.751h27.965V76.323h21.3V65.9H213.55Zm-99.256-1H212.55V66.9H163.559V77.323h-23.3V65.752H114.294Zm20.165-17.121h-5.836v-4.928h5.836Zm-4.836-1h3.836v-2.928h-3.836Zm-3.708,1h-5.836v-4.928h5.836Zm-4.836-1h3.836v-2.928h-3.836Zm13.38-7.381h-5.836v-4.926h5.836Zm-4.836-1h3.836v-2.926h-3.836Zm-3.708,1h-5.836v-4.926h5.836Zm-4.836-1h3.836v-2.926h-3.836Zm84.369-.638H189.672v-4.33h15.777Zm-14.776-1h13.776v-2.33H190.671Zm-4.244,1H170.655l0-4.329h15.771Zm-14.773-1h13.773v-2.329H171.657Zm-12.3-5.65H144.47v-3.179h14.882Zm-13.883-1h12.883v-1.179H145.471Zm-11,.914h-5.838v-4.93h5.838Zm-4.838-1h3.838v-2.93h-3.838Zm-3.706,1h-5.836v-4.93h5.836Zm-4.836-1h3.836v-2.93h-3.836Zm84.366.411H189.677V118.68h15.775Zm-14.775-1h13.775V119.68H190.677Zm-4.249,1H170.661l0-4.331h15.77Zm-14.767-1h13.767V119.68h-13.77Zm-12.3-5.005H144.471v-3.18h14.885Zm-13.886-1h12.886v-1.18H145.472Zm59.985-.319H189.678v-4.328h15.777Zm-14.778-1h13.778v-2.328H190.679Zm-4.25,1H170.663l-.005-4.328h15.771Zm-14.767-1h13.767v-2.328H171.659Zm-37.193.543h-5.837V110.3h5.837Zm-4.837-1h3.837V111.3h-3.837Zm-3.708,1h-5.836V110.3h5.836Zm-4.836-1h3.836V111.3h-3.836Zm38.268-3.9H144.471v-3.18h14.883Zm-13.884-1h12.884v-1.18H145.472Zm59.983-.96H189.678v-4.329h15.775Zm-14.776-1h13.776v-2.329H190.679Zm-4.249,1H170.662l0-4.329h15.77Zm-14.767-1h13.767v-2.329h-13.77Zm-37.193-.518h-5.837v-4.928h5.837Zm-4.837-1h3.837v-2.928h-3.837Zm-3.708,1h-5.836v-4.928h5.836Zm-4.836-1h3.836v-2.928h-3.836Zm38.27-2.2H144.471l0-3.181h14.882Zm-13.885-1h12.885v-1.181H145.474Zm40.956-1.6h-15.77V96.714h15.77Zm-14.77-1h13.77V97.714h-13.77Zm33.8,1H189.679l0-4.328h15.775Zm-14.778-1h13.778V97.714H190.682Zm-56.2-1.57H128.64v-4.93h5.836Zm-4.836-1h3.836v-2.93H129.64Zm-3.708,1H120.1v-4.93h5.836Zm-4.836-1h3.836v-2.93H121.1Zm38.27-.512H144.472l.012-3.18h14.882Zm-13.89-1h12.89V94.78H145.48Zm59.99-2.242H189.681l.012-4.327h15.774Zm-14.783-1h13.783V90.391H190.69Zm-4.252,1H170.665V89.391h15.765Zm-14.766-1h13.766V90.391H171.666Zm-12.306-2.436H144.473l.012-3.182h14.874Zm-13.882-1h12.882V88.1H145.481Zm-11,.818h-5.84l0-4.933h5.837Zm-4.84-1h3.84V86.167h-3.837Zm-3.7,1H120.1V85.167h5.836Zm-4.836-1h3.836V86.167H121.1Zm84.37-2.7H189.681l.014-4.333H205.47Zm-14.785-1H204.47V83.067H190.692Zm-4.254,1H170.666l0-4.333h15.762Zm-14.765-1h13.765V83.067H171.669ZM134.48,81.721h-5.837V76.79h5.837Zm-4.837-1h3.837V77.79h-3.837Zm-3.707,1H120.1V76.79h5.836Zm-4.836-1h3.836V77.79H121.1Zm84.371-1.647h-15.79l.014-4.328h15.775Zm-14.786-1h13.786V75.746H190.692Zm-4.256,1H170.665l.005-4.328h15.758Zm-14.762-1h13.762V75.746h-13.76Z" transform="translate(-16.194 -9.287)" fill="#fff"/></g></svg>