<svg xmlns="http://www.w3.org/2000/svg" xmlns:xlink="http://www.w3.org/1999/xlink" width="596.377" height="337.463" viewBox="0 0 596.377 337.463"><defs><clipPath id="a"><rect width="596.377" height="337.463" fill="#373e4b"/></clipPath></defs><g clip-path="url(#a)"><path d="M595.769,254l.608.06-.12,1.216-.608-.06c-.168-.017-58.333-5.839-74.65-18.694a169.53,169.53,0,0,1-18.068-16.6c-4.1-4.23-7.367-7.592-11.475-10.145-2.237-1.39-4.559-2.688-6.825-3.955-6.591-3.686-12.722-7.114-14.617-11.52-1.161-2.7-4.191-4.651-8.16-5.547a27.046,27.046,0,0,0-13.7.79,23.428,23.428,0,0,1-9.561.6,56.358,56.358,0,0,1-12.346-3.107c-1.985-.718-3.888-1.562-5.725-2.376a37.137,37.137,0,0,0-8.427-3.016c-3.919-.63-10.679.518-17.642,2.276-10.942,2.762-22.294,7-24.016,8.246a.9.9,0,0,0-.31.375,2.829,2.829,0,0,0,.509,2.234,14.768,14.768,0,0,0,2.516,3.155c1.79,1.761,3.947,3.246,5.445,3.56a28.23,28.23,0,0,0,4.674-.144c2.686-.184,6.12-.421,9.612-.358,1.977.035,3.962.1,5.892.165,7.22.24,13.653.454,14.185-.829a10.378,10.378,0,0,0,.541-2.017,9.032,9.032,0,0,1-2.432-6.164,7,7,0,0,1,1.076-3.3,2.037,2.037,0,0,1,1.1-1.013c.611-.158,1.055.176,1.354.87a6.991,6.991,0,0,1,.42,1.85,30.9,30.9,0,0,1-.228,7.393l.1.108a32.534,32.534,0,0,0,7.144,5.619c9.469,5.8,22.432,9.917,24,10a1.224,1.224,0,0,0,.943-.6,15.644,15.644,0,0,1-.65-6.19,20.246,20.246,0,0,1,.622-3.707A8.6,8.6,0,0,1,448,200.647c.4-.569.864-.824,1.36-.677.737.219,1.112,1.326,1.177,2.867a23.533,23.533,0,0,1-.366,4.715,20.612,20.612,0,0,1-1.333,4.717,8.582,8.582,0,0,1-.5.956,5.367,5.367,0,0,0,2.469,2.78,27.873,27.873,0,0,0,10.715,2.389,26.274,26.274,0,0,0,3.168-1.556,9.092,9.092,0,0,1,3.191-1.341c.844-.036,1.353.367,1.4,1.458a1.566,1.566,0,0,1-.169.783,3.218,3.218,0,0,1-2.072,1.384,14.6,14.6,0,0,1-3.412.489c-.6.026-1.241.029-1.9.01a7.9,7.9,0,0,1-2.151.481c-4.657.286-13.779-1.575-22.136-4.373-7.145-2.393-13.766-5.488-16.632-8.541a10.738,10.738,0,0,1,.441,2.077,18.57,18.57,0,0,1,.043,3.705,12.654,12.654,0,0,1-.611,3.106c-.347.945-.855,1.52-1.5,1.5-.95-.026-1.3-1.353-1.253-3.15a25.427,25.427,0,0,1,.655-4.778,12.964,12.964,0,0,1,.873-2.632,1.885,1.885,0,0,0-1.166-1.207.983.983,0,0,0-.7.109,10.063,10.063,0,0,1,.2,2.76,20,20,0,0,1-.344,2.769,20.831,20.831,0,0,1-.67,2.59c-.639,1.924-1.554,3.244-2.459,3.05s-1.2-1.7-1.006-3.628a20.16,20.16,0,0,1,1.223-5.093,8.98,8.98,0,0,1,1.664-2.853,1.113,1.113,0,0,0-.766-.68c-.564-.109-1.151.273-1.712.947.032.208.056.43.073.661a17.94,17.94,0,0,1,0,2.257c-.045.8-.135,1.648-.264,2.467-.429,2.711-1.371,5.114-2.72,5.076-.729-.02-1.126-.564-1.249-1.451a8.648,8.648,0,0,1,.179-2.659,20.088,20.088,0,0,1,.931-3.222,14.626,14.626,0,0,1,1.8-3.434c-.041-.3-.085-.471-.13-.473-.086,0-.393,0-.887,0-2.3,0-8.534,0-15.294-.278a92.47,92.47,0,0,0-13.333.136q.848.039,1.764.114a8.969,8.969,0,0,1,6.179,3.243,8.4,8.4,0,0,1,1.8,6.08,10.417,10.417,0,0,1-.2,1.343,4.125,4.125,0,0,1-2.279,2.783,10.954,10.954,0,0,1-5.465.947,18.216,18.216,0,0,1-6.152-1.405c-2.663-1.141-4.833-2.942-5.491-5.291a6.064,6.064,0,0,1,.43-5.069c-.081.051-.16.1-.235.157a3.848,3.848,0,0,0-1.718,2.758,6.637,6.637,0,0,0,.782,3.6,18.562,18.562,0,0,0,8.744,8.059,75.664,75.664,0,0,0,13.955,4.175,46.031,46.031,0,0,0,12.044.983c3.228-.247,5.311-1.04,6.589-1.992a12.825,12.825,0,0,1-.289-1.812,6.259,6.259,0,0,1,.08-1.825,1.678,1.678,0,0,1,.9-1.281,1.374,1.374,0,0,1,1.083.028,1.851,1.851,0,0,1,1.019,1.195,3.307,3.307,0,0,1-.017,1.925,4.959,4.959,0,0,1-1.3,2.105l-.109.106a9.942,9.942,0,0,0,1.913,3.833,32.9,32.9,0,0,0,4.224,3.276c4.724,3.359,11.652,8.285,14.861,14.44,2.248,4.311,9,9.787,17.091,14.334,7.645,4.3,16.45,7.742,23.737,8.565a11.84,11.84,0,0,1,5.6,1.992,9.523,9.523,0,0,1,3.5,4.7,13.09,13.09,0,0,1,.579,5.783,15.169,15.169,0,0,1-2.568,6.927,6.9,6.9,0,0,1-3.615,2.395,17.231,17.231,0,0,1-3.884.727,11.473,11.473,0,0,1-5.311,1.3,46.886,46.886,0,0,1-9.129-.7A36.7,36.7,0,0,1,454.6,291.2a14.744,14.744,0,0,1-3.609-2.374c-1.061-.864-1.892-1.54-2.2-1.28-.361.3-.967.741-1.663,1.242a22.088,22.088,0,0,0-4.043,3.357c-.084.119-.275.094-.218.136a31.369,31.369,0,0,1,2.436,2.069c5.024,4.521,15.089,13.578,31.792,12.465,17.5-1.167,26.89-1.447,36.272,1.39,8.943,2.7,17.792,8.223,33.595,18.5,15.09-.057,26.909-.1,34.544-.136,5.646-.024,8.972.838,10.432,2.074,1.429,1.211,1.324,2.691,0,4.121a14.149,14.149,0,0,1-6.063,3.257c-8.256,2.533-22.924,2.55-37.309-6.817l-1.961-1.276c-58.764.222-166.772.6-271.353.962-136.094.467-266.132.9-274.632.9H0v-1.226H.613c9.414,0,139.261-.429,274.632-.894,103.481-.356,210.318-.732,269.485-.955C530,317.156,521.512,311.95,513.011,309.38c-9.192-2.779-18.49-2.5-35.836-1.343-17.219,1.148-27.54-8.139-32.692-12.776-.967-.87-1.747-1.572-2.325-1.983-.655-.465-.591-1.105-.07-1.839a22.354,22.354,0,0,1,4.326-3.639c.665-.479,1.244-.9,1.586-1.185,1.084-.914,2.259.043,3.761,1.266a13.772,13.772,0,0,0,3.3,2.188,35.536,35.536,0,0,0,7.108,2.1,45.713,45.713,0,0,0,8.894.678q.481-.006.939-.048a46.958,46.958,0,0,1-6.211-.793c-5.344-1.035-10.584-2.923-13.729-5.147a7.424,7.424,0,0,1-2.96-3.445,11.389,11.389,0,0,0-3.3-5.331,5.6,5.6,0,0,1,.953,3.875,4.427,4.427,0,0,1,.186,1.215,5.313,5.313,0,0,1-2.53,4.237,20.881,20.881,0,0,1-5.808,2.784,63.312,63.312,0,0,1-16.249,2.772,36.1,36.1,0,0,1-8.481-1.367c-5.251-1.348-10.655-3.307-12.511-4q-.174-.065-.328-.14c-1.52-.737-2.942-2.629-3.871-4.608-.939-2-1.385-4.146-.937-5.341.027-.07.053-.133.078-.186.547-1.129,2.156-.622,4.371.076.918.289,1.957.617,3.062.88a40.115,40.115,0,0,0,5.432.874,37.943,37.943,0,0,0,5.424.153,65.785,65.785,0,0,0,12.468-2.4c5.44-1.41,10.619-2.752,14.826-2.017a5.915,5.915,0,0,1-1.086-2.282,10.063,10.063,0,0,0-2.2-4.547c-2.435-3-6.423-5.362-10.4-6.869s-7.884-2.152-10.207-1.739a5.122,5.122,0,0,0-.521.119,7.778,7.778,0,0,0,1.016.09c.289.007.6,0,.937-.026a21.583,21.583,0,0,1,10.184,2.448,19.276,19.276,0,0,1,6.567,5.016,3.134,3.134,0,0,1,1.392,2.684,2.828,2.828,0,0,1-.35,1.783l-.011.032a4.033,4.033,0,0,1-2,1.959,12.218,12.218,0,0,1-3.513,1.151,18.141,18.141,0,0,1-2.521.379c-1.063.134-2.176.253-3.3.372-4.154.441-8.515.9-10.947,2.235-1.378.754-6.024.025-11.259-.8-1.384-.217-2.811-.441-4.377-.667-2.114-.3-4.263-.49-6.136-.652a33.009,33.009,0,0,1-5.1-.654,7.662,7.662,0,0,1-1.928-.873,14.663,14.663,0,0,1-5.1-6.421c-1.1-2.466-1.553-4.867-1.261-5.872a1.459,1.459,0,0,1,.159-.368c.508-.813,2.867-.386,6.035.189,1.743.315,3.751.68,5.774.938a60,60,0,0,0,12.617.408,23.07,23.07,0,0,0,10.353-3.068,6.036,6.036,0,0,1-1.068-.822,5.757,5.757,0,0,1-1.706-3.3,6.351,6.351,0,0,1-1.824,3.992,8.805,8.805,0,0,1-4.453,2.287,5.257,5.257,0,0,1-1.729.256,17.817,17.817,0,0,1-5.12-.361c-1.6-.167-3.334-.382-5.114-.624-5.8-.791-12.136-1.885-15.99-2.582-3.363-.609-5.123-1.121-6.183-2.346s-1.29-3-1.609-6.161c-.582-5.767-5.069-13.9-6.827-17.084l-.148-.269a5.111,5.111,0,0,1-.485-3.037,10.07,10.07,0,0,1,1.252-3.721,7.522,7.522,0,0,1,1.823-2.221c-.588-.607-1.071-1.123-1.412-1.515a120.02,120.02,0,0,0-10.809-9.6c-1.894-1.532-3.713-2.947-5.169-4,6.1,5.357,11.914,10.659,12.084,12.021.294,2.353-8.343,4.768-15.206,6.687-2.216.619-4.239,1.185-5.709,1.67a10.366,10.366,0,0,1-6.182-.05,10.1,10.1,0,0,1-4.1-2.364,6.272,6.272,0,0,1-1.97-4.008,6.635,6.635,0,0,1,.958-3.819,30.551,30.551,0,0,1,7.674-8.12,35.143,35.143,0,0,1,7.607-4.62l-.7-.612c-4.125-3.586-7.708-6.7-8.931-8.021a2.819,2.819,0,0,1-2.144.118,5.5,5.5,0,0,1-2.1-1.3,7.765,7.765,0,0,1-1.541-2.07,3.877,3.877,0,0,1-.226-3.691l.083-.135a25.772,25.772,0,0,1-2.8-2.592c-2.421-2.439-5.6-5.635-7.354-5.6-2.2.042-2.852-.758-2.526-2.061a9.57,9.57,0,0,1,2.507-3.51,30.771,30.771,0,0,0,3.227-4.31q.194-.3.385-.6c-1.754,1.9-3.622,4.272-4.988,6.007-.792,1.006-1.418,1.8-1.78,2.194a2.921,2.921,0,0,1-2.758.779,3.44,3.44,0,0,1-1.146-.45,2.471,2.471,0,0,1-.847-.861,1.842,1.842,0,0,1,.032-1.9c.4-.7,1.777-2.889,3.364-5.383-1.846,2.471-3.431,4.459-4.119,4.459a17.55,17.55,0,0,1-5.55-2.743,10.651,10.651,0,0,1-1.49-1.251c-1.028,1.079-1.835,1.731-2.26,1.654a10.185,10.185,0,0,1-2.741-1.381,9.365,9.365,0,0,1-2.106-1.847,5.514,5.514,0,0,1-.726-1.26l-.115.13a105.964,105.964,0,0,1-30.8,23.665,101.3,101.3,0,0,1-36.762,10.605c-17.643,1.587-36.661-2.553-53.559-10.93-16.649-8.254-31.252-20.624-40.466-35.687a112.7,112.7,0,0,1-8.826-17.707,101.122,101.122,0,0,1-1.9-69.892,102.573,102.573,0,0,1,44.033-54.361,113.885,113.885,0,0,1,17.913-8.879,95.839,95.839,0,0,1,72.465.815,106.546,106.546,0,0,1,54.482,52A94.334,94.334,0,0,1,319.7,98.645a106.105,106.105,0,0,1-7.388,41.164,74.65,74.65,0,0,1-17.675,25.7q-.005.093-.009.186a10.729,10.729,0,0,0,.039,1.467c1.154-1.367,2.737-3.261,4.452-5.313,4.754-5.69,10.515-12.583,11.129-12.978a1.169,1.169,0,0,1,.483-.171,4.09,4.09,0,0,1,2.362.832,6.82,6.82,0,0,1,1.884,1.719,1.572,1.572,0,0,1,.252.628c.116.87-6.033,9.419-9.946,14.789l1.167-1.473c3.084-3.893,6.083-7.68,7.023-7.658a4.636,4.636,0,0,1,1.837.708,21.692,21.692,0,0,1,3.124,2.227,8.128,8.128,0,0,1,1.492,1.6,4.144,4.144,0,0,1,2.667-.24,5.3,5.3,0,0,1,1.946.88,3.961,3.961,0,0,1,1.287,1.5,2.168,2.168,0,0,1,.006,1.938c-.163.32-.394.756-.678,1.271a1.291,1.291,0,0,1,.945.427,2.03,2.03,0,0,1,.422.945c.071.275.148.576.285.651,1.808,1,4.338,2.24,6.537,3.322a44.5,44.5,0,0,1,4.782,2.509c.745.688-1.779,4.7-4.442,8.616,1.034-1.288,2.106-2.642,3.092-3.887,1.834-2.316,3.38-4.269,3.959-4.826a3.328,3.328,0,0,1,2.978-.629,5,5,0,0,1,1.682.681,3.5,3.5,0,0,1,1.23,1.3,2.589,2.589,0,0,1-.016,2.419,88.81,88.81,0,0,1-5.439,7.742c-1.229,1.658-2.5,3.366-3.6,4.881.88-1.065,1.811-2.212,2.727-3.339,3.193-3.931,6.2-7.637,7.014-7.127v0c.1.064.523.4,1.209.958,2.01,1.622,6.367,5.138,11.077,8.561l1.681,1.22c6.681,4.842,13.577,9.841,12.429,11.457a14.9,14.9,0,0,1-1.631,1.794c-1.886,1.875-4.275,4.25-3.121,8.222,3.57,12.286,18.807,14.34,30.3,15.889a84.127,84.127,0,0,1,8.725,1.458A42.414,42.414,0,0,1,421.72,236.9,53.5,53.5,0,0,1,436.038,252c2.17,3.318,5.721,6.371,9.9,9.034a76.865,76.865,0,0,0,16.316,7.635,97.916,97.916,0,0,0,12.321,3.109,29.645,29.645,0,0,1,4.892,1.2,6.415,6.415,0,0,1,3.293,4.707,15.121,15.121,0,0,1-2.934,12.226,11.912,11.912,0,0,1-1.241,1.305,12.72,12.72,0,0,0,1.309-.347,5.725,5.725,0,0,0,2.992-1.935,13.913,13.913,0,0,0,2.352-6.358,11.878,11.878,0,0,0-.517-5.247,8.306,8.306,0,0,0-3.051-4.105,10.637,10.637,0,0,0-5.03-1.776c-7.459-.842-16.432-4.344-24.2-8.713-8.272-4.651-15.216-10.315-17.574-14.837-3.073-5.893-9.86-10.719-14.488-14.009a33.063,33.063,0,0,1-4.42-3.449,10.766,10.766,0,0,1-2.036-3.849,14.456,14.456,0,0,1-6.842,1.964,47.223,47.223,0,0,1-12.37-1A77.035,77.035,0,0,1,380.5,223.3a19.883,19.883,0,0,1-9.356-8.648,7.819,7.819,0,0,1-.9-4.279,5.031,5.031,0,0,1,2.23-3.615,10.081,10.081,0,0,1,3.772-1.506,15.208,15.208,0,0,1,3.16-1.067c4.568-1.062,10.9-.932,16.8-.685,6.76.282,12.961.279,15.247.278.521,0,.844,0,.93,0a1.137,1.137,0,0,1,.956.709,2.688,2.688,0,0,1,2.322-.858,2.169,2.169,0,0,1,1.5,1.146,2.071,2.071,0,0,1,1.4-.161,2.746,2.746,0,0,1,1.706,1.357.922.922,0,0,1,1.309.241c2.629,2.933,9.159,5.977,16.255,8.354a94.472,94.472,0,0,0,16.559,4.023,20.9,20.9,0,0,1-4.131-1.5,6.336,6.336,0,0,1-2.762-2.81,2.079,2.079,0,0,1-1.53.607c-1.63-.091-14.946-4.28-24.574-10.181a35.607,35.607,0,0,1-6.887-5.282,9.077,9.077,0,0,1-.418,1.359c-.855,2.068-7.686,1.841-15.352,1.586-1.941-.064-3.938-.131-5.873-.165-3.413-.061-6.835.174-9.512.358a26.8,26.8,0,0,1-5,.12c-1.725-.361-4.116-1.98-6.053-3.885a15.988,15.988,0,0,1-2.726-3.433,3.884,3.884,0,0,1-.566-3.311,2.1,2.1,0,0,1,.716-.883c1.793-1.3,13.365-5.647,24.437-8.442,7.1-1.791,14.025-2.955,18.131-2.3a37.854,37.854,0,0,1,8.729,3.1c1.831.812,3.727,1.653,5.648,2.348a55.1,55.1,0,0,0,12.068,3.04,22.256,22.256,0,0,0,9.063-.55,28.276,28.276,0,0,1,14.327-.814c4.348.981,7.695,3.181,9.017,6.255,1.733,4.028,7.686,7.357,14.086,10.936,2.3,1.285,4.653,2.6,6.878,3.984,4.23,2.629,7.541,6.041,11.7,10.332a168.367,168.367,0,0,0,17.948,16.486C537.795,248.193,595.6,253.98,595.769,254M413.746,196.606a28.788,28.788,0,0,0,.06-5.919,5.842,5.842,0,0,0-.329-1.506c-.037-.085.172-.2.078-.171-.059.016-.176.161-.364.467a5.8,5.8,0,0,0-.9,2.734,7.118,7.118,0,0,0,1.454,4.394m34.07,14.957a20.06,20.06,0,0,0,1.151-4.216,22.309,22.309,0,0,0,.352-4.461c-.043-1.011-.142-1.695-.3-1.742-.073-.021.063.1-.015.208a7.47,7.47,0,0,0-.867,2.151,19.02,19.02,0,0,0-.584,3.477,15.942,15.942,0,0,0,.263,4.584m16.7,6.767a11.437,11.437,0,0,0,2.186-.381,2.182,2.182,0,0,0,1.325-.761.367.367,0,0,0,.04-.184c-.009-.209-.056-.288-.131-.286a9.175,9.175,0,0,0-2.65,1.192c-.251.137-.508.279-.771.42M420,209.072c-.075.27-.149.556-.219.854a24.14,24.14,0,0,0-.626,4.534,6.446,6.446,0,0,0,.066,1.9,2.166,2.166,0,0,0,.322-.7,11.464,11.464,0,0,0,.539-2.79,17.3,17.3,0,0,0-.038-3.456c-.013-.113-.028-.225-.044-.336m-3.444-2.052a10.688,10.688,0,0,0-.876,1.792,18.17,18.17,0,0,0-.74,2.4,18.375,18.375,0,0,0-.406,2.365c-.13,1.3-.136,2.273.043,2.312s.607-.913,1.047-2.236a19.667,19.667,0,0,0,.626-2.437,18.826,18.826,0,0,0,.325-2.6,11.915,11.915,0,0,0-.019-1.6m-3.943.52a18.339,18.339,0,0,0-.79,1.8,18.849,18.849,0,0,0-.873,3.021,7.516,7.516,0,0,0-.17,2.262,2.03,2.03,0,0,0,.072.4c.591.016,1.139-1.9,1.48-4.047.122-.771.207-1.573.25-2.342.021-.375.032-.742.032-1.092m-35.861-1.148a4.612,4.612,0,0,0-2.586,5.948c.547,1.953,2.446,3.491,4.793,4.5a16.963,16.963,0,0,0,5.731,1.309,9.76,9.76,0,0,0,4.842-.809,2.947,2.947,0,0,0,1.647-1.959,9.134,9.134,0,0,0,.179-1.185,7.2,7.2,0,0,0-1.535-5.213,7.663,7.663,0,0,0-4.329-2.639,7.765,7.765,0,0,0-1-.149,29.19,29.19,0,0,0-7.744.2m37.87,17.936a3.417,3.417,0,0,0,.561-1.092,2.093,2.093,0,0,0,.027-1.212.664.664,0,0,0-.315-.433.292.292,0,0,0-.149-.038c-.067.028-.129.182-.184.424a5.106,5.106,0,0,0-.051,1.461c.023.284.06.582.111.889m51.4,66.473a39.563,39.563,0,0,0,9.995.767,10.122,10.122,0,0,0,2.864-2.429,13.34,13.34,0,0,0,2.611-5.526,13.206,13.206,0,0,0,.08-5.656,5.254,5.254,0,0,0-2.6-3.86,29.835,29.835,0,0,0-4.634-1.121,99.136,99.136,0,0,1-12.469-3.147,78.133,78.133,0,0,1-16.585-7.764c-4.318-2.752-8-5.924-10.268-9.393a52.293,52.293,0,0,0-13.988-14.763,41.191,41.191,0,0,0-13.346-6.058,83.017,83.017,0,0,0-8.592-1.434c-11.832-1.595-27.518-3.709-31.31-16.761-1.356-4.668,1.32-7.328,3.433-9.428a14.044,14.044,0,0,0,1.5-1.636c.446-.627-5.953-5.265-12.151-9.757l-1.681-1.22c-4.715-3.427-9.1-6.967-11.125-8.6-.646-.521-1.042-.841-1.1-.878v0c-.11-.07-2.57,3.369-5.411,6.867-2.531,3.115-5.182,6.379-6.631,7.771,1.068,1.137,4.642,4.244,8.769,7.831l1.279,1.111a1.951,1.951,0,0,1,.662-.028c1.076.19,4.79,2.91,8.742,6.107a121.2,121.2,0,0,1,10.966,9.746c.382.439.942,1.033,1.631,1.739a1.957,1.957,0,0,1,.67-.045c1.635.182,7.6,5.592,12.293,9.845,2.44,2.213,4.528,4.106,5.4,4.727.563.4,2.489.661,5.026,1,8.47,1.14,23.376,3.145,23.051,16.117,0,.112,0,.236.011.371a4.483,4.483,0,0,0,1.37,2.857,4.937,4.937,0,0,0,1.324.909l.037-.03a4.254,4.254,0,0,1,1.948-.791c2.52-.448,6.686.223,10.849,1.8s8.334,4.058,10.916,7.242a11.28,11.28,0,0,1,2.462,5.107,8.06,8.06,0,0,0,1.812,3.011c2.8,1.044,5.035,3.334,6.439,7.629a6.291,6.291,0,0,0,2.5,2.822c3.007,2.126,8.069,3.942,13.256,4.946m-22.813-14.213c-4.215-1.514-9.858-.052-15.835,1.5a66.694,66.694,0,0,1-12.708,2.439,39.175,39.175,0,0,1-5.605-.158,41.31,41.31,0,0,1-5.6-.9c-1.127-.269-2.2-.606-3.143-.9-1.634-.515-2.821-.889-2.906-.713-.015.032-.027.059-.035.08-.333.888.085,2.664.9,4.4a8.642,8.642,0,0,0,3.3,4.023c.08.039.155.071.222.1,1.841.691,7.2,2.634,12.386,3.965a34.975,34.975,0,0,0,8.17,1.328,61.836,61.836,0,0,0,15.875-2.715,19.686,19.686,0,0,0,5.458-2.6,5.2,5.2,0,0,0,1.855-2.21,9.99,9.99,0,0,1-4.14,2.3,11.106,11.106,0,0,1-5.125.422,3.872,3.872,0,0,1-1.68-.731,3.608,3.608,0,0,1-1.07-4.43,8.456,8.456,0,0,1,7.673-4.829,5.437,5.437,0,0,1,3.218,1.23c-.369-.542-.788-1.073-1.2-1.593m2.285,5.44c-.937-2.684-2.609-3.763-4.362-3.857a6.718,6.718,0,0,0-3.921,1.173,6.629,6.629,0,0,0-2.555,2.89,2.463,2.463,0,0,0,.707,3.027,2.682,2.682,0,0,0,1.153.482,9.857,9.857,0,0,0,4.527-.394,8.17,8.17,0,0,0,3.889-2.284,2.9,2.9,0,0,0,.562-1.036m-29.505-21.572c-3.117,2.245-7.263,3.3-11.537,3.684a61.248,61.248,0,0,1-12.876-.413c-2.056-.263-4.08-.63-5.836-.948a34.4,34.4,0,0,0-4.781-.744.257.257,0,0,0-.025.061c-.224.772.211,2.819,1.2,5.034a13.439,13.439,0,0,0,4.633,5.88,6.471,6.471,0,0,0,1.621.739,33.364,33.364,0,0,0,4.866.606c1.873.162,4.024.347,6.2.662,1.366.2,2.9.438,4.391.672,5.019.787,9.473,1.486,10.489.93,2.3-1.259,5.985-1.783,9.712-2.2a1.808,1.808,0,0,1-.533-.453c-1.732-2.3-.94-4.3.979-5.743a12.123,12.123,0,0,1,5.1-2.03,12.531,12.531,0,0,1,3.961-.081,20.634,20.634,0,0,0-4.486-2.939,20.319,20.319,0,0,0-9.557-2.323q-.533.039-1.052.026a8.249,8.249,0,0,1-2.475-.422m12.5,13.481c1.027-.123,2.006-.257,2.9-.416l.189-.043a12.462,12.462,0,0,0,2.727-.95,4.66,4.66,0,0,0,1.721-1.336c.031-.044.06-.089.088-.135a3.56,3.56,0,0,0,.211-1.307,2.7,2.7,0,0,0-.331-.8,10.055,10.055,0,0,0-.613-.906,3.481,3.481,0,0,0-.837-.431,9.712,9.712,0,0,0-4.731-.211,10.884,10.884,0,0,0-4.568,1.8c-1.366,1.03-1.941,2.437-.74,4.029.457.606,2.074.828,3.988.705m-16.623-20.154c-.594-10.886-14.16-12.712-21.977-13.764-2.708-.364-4.764-.641-5.572-1.218-.916-.654-3.033-2.574-5.507-4.818-3.612-3.275-8-7.255-10.291-8.839,1.862,1.85,4.137,4.055,6.309,6.162,3.59,3.481,6.906,6.7,7.683,7.653a2.43,2.43,0,0,1,.541,1.175,50.79,50.79,0,0,1,8.625.863,88.815,88.815,0,0,1,10.887,2.6,15.889,15.889,0,0,1,4.691,2.355,10.6,10.6,0,0,1,3.081,3.457,13.555,13.555,0,0,1,1.531,4.369m-45.48-29.042a5.943,5.943,0,0,0-1.624,1.943,8.8,8.8,0,0,0-1.1,3.251A3.928,3.928,0,0,0,364,232.25l.148.269c1.791,3.245,6.363,11.531,6.971,17.553.293,2.908.5,4.533,1.317,5.482s2.4,1.388,5.475,1.943c3.831.694,10.134,1.781,15.937,2.573l1.006.135a5.78,5.78,0,0,1-1.682-3.244,6.389,6.389,0,0,1,.2-2.941,6.574,6.574,0,0,1,1.65-2.713c2.04-2.037,5.768-3.222,11.526-1.957,1.505.331,2.492,1.826,2.889,3.7a9.97,9.97,0,0,1,.132,3.173,8.883,8.883,0,0,1-.926,3.1l-.054.1a5.828,5.828,0,0,0,.639-.558,5.232,5.232,0,0,0,1.5-3.668,10.774,10.774,0,0,0-1.48-5.207,9.388,9.388,0,0,0-2.731-3.05,14.673,14.673,0,0,0-4.327-2.168,87.54,87.54,0,0,0-10.729-2.566,48.938,48.938,0,0,0-8.561-.846,3.334,3.334,0,0,1-.554.933,4.7,4.7,0,0,1-1.426,1.142,3.093,3.093,0,0,1-2.266.354,1.925,1.925,0,0,1-1.119-.761,1.063,1.063,0,0,1-.027-1.077,2.021,2.021,0,0,1,.7-.733,8.038,8.038,0,0,1,3.593-1.029,1.305,1.305,0,0,0-.249-.457c-.73-.9-4.022-4.09-7.587-7.547-2.7-2.616-5.55-5.382-7.589-7.443M399.018,260.7c1.845.191,3.5.316,4.832.344a12.075,12.075,0,0,0,1.416-.2,4.15,4.15,0,0,0,2.295-2.085,7.648,7.648,0,0,0,.792-2.67,8.739,8.739,0,0,0-.112-2.78c-.3-1.423-.974-2.543-1.951-2.757-5.283-1.161-8.628-.149-10.405,1.626a5.346,5.346,0,0,0-1.343,2.206,5.173,5.173,0,0,0-.164,2.381,4.3,4.3,0,0,0,2.966,3.51q.846.255,1.676.43m-17.56-19.248a6.238,6.238,0,0,0-2.567.782,1.149,1.149,0,0,0-.258.219,1.432,1.432,0,0,0,.4.174,1.915,1.915,0,0,0,1.327-.272,3.45,3.45,0,0,0,1.048-.836l.053-.067M344.28,207.009a31,31,0,0,0-7.858,4.719,29.337,29.337,0,0,0-7.358,7.762,5.444,5.444,0,0,0-.8,3.12,5.076,5.076,0,0,0,1.607,3.228,8.862,8.862,0,0,0,3.6,2.067,9.129,9.129,0,0,0,5.44.055c1.436-.474,3.5-1.052,5.766-1.684,6.411-1.793,14.479-4.049,14.316-5.361-.145-1.158-7.816-7.9-14.713-13.905m-11-10.7c.574-1.808,3.852-6.228,6.908-10.347a91.468,91.468,0,0,0,5.323-7.55,1.417,1.417,0,0,0,.025-1.322,2.294,2.294,0,0,0-.809-.837,3.739,3.739,0,0,0-1.261-.509,2.154,2.154,0,0,0-1.886.312c-.53.51-2.049,2.428-3.849,4.7-3.137,3.963-7.1,8.969-8.707,9.9-.137.209-.25.387-.335.529a2.747,2.747,0,0,0,.269,2.513,6.5,6.5,0,0,0,1.292,1.735,4.276,4.276,0,0,0,1.612,1.022,1.6,1.6,0,0,0,1.416-.148m-7.484-9.338c1.132,1.14,2.095,2.109,2.571,2.469.548-.816,1.292-1.885,2.118-3.074,2.937-4.226,6.979-10.04,6.812-10.194-.236-.219-2.179-1.174-4.494-2.313-2.218-1.091-4.771-2.347-6.585-3.346a1.97,1.97,0,0,1-.878-1.422,1.845,1.845,0,0,0-.13-.413c-.148-.158-.452-.076-.866.18-.729,1.266-1.618,2.745-2.536,4.156a31.942,31.942,0,0,1-3.375,4.5,8.752,8.752,0,0,0-2.2,2.955c-.088.351.268.563,1.319.543,2.279-.043,5.66,3.363,8.241,5.961m-2.418-18.886c.6-1.054,1.085-1.942,1.363-2.489a.994.994,0,0,0-.025-.88,2.742,2.742,0,0,0-.894-1.019,4.075,4.075,0,0,0-1.491-.675,2.818,2.818,0,0,0-2.277.383c-.337.554-1.62,2.56-3.135,4.931-2.462,3.852-5.548,8.681-6.175,9.786a.68.68,0,0,0-.032.7,1.263,1.263,0,0,0,.436.425,2.2,2.2,0,0,0,.734.288,1.719,1.719,0,0,0,1.618-.411c.323-.351.938-1.132,1.718-2.122a75.994,75.994,0,0,1,6.611-7.659,12.024,12.024,0,0,1,1.549-1.256m-10.2,1.816a62.234,62.234,0,0,1,5.777-7.18,7.922,7.922,0,0,0-1.319-1.318,20.393,20.393,0,0,0-2.937-2.093,3.888,3.888,0,0,0-1.258-.55c-.333-.008-3.145,3.543-6.037,7.193-1.64,2.071-3.3,4.171-4.695,5.742a9.066,9.066,0,0,0,1.369,1.161,16.73,16.73,0,0,0,4.842,2.513,54.435,54.435,0,0,0,4.258-5.468m-11.971,1.786A1.773,1.773,0,0,1,301,170.9a1.316,1.316,0,0,1,.252-.782c.218-.3.688-.947,1.336-1.834,3.354-4.584,11.495-15.712,11.425-16.239a.57.57,0,0,0-.07-.126,5.574,5.574,0,0,0-1.519-1.356,3.162,3.162,0,0,0-1.534-.646c-.544.406-6.178,7.149-10.837,12.724-2.055,2.459-3.921,4.692-5.094,6.071a4.8,4.8,0,0,0,.776,1.567,8.157,8.157,0,0,0,1.824,1.583,9.146,9.146,0,0,0,2.276,1.194c.124.023.63-.5,1.371-1.366m-8.184-2.609c.142-.158.344-.39.6-.686a10.324,10.324,0,0,1-.215-1.7q-.25.236-.5.471c-10,9.3-22.062,16.7-33.911,22.3a93.968,93.968,0,0,1-16.846,5.985c-7.955,2.022-14.343,2.6-16.261,2.4a.793.793,0,0,1-.625-.5,38.256,38.256,0,0,1-1.323-7.687,56.381,56.381,0,0,1-.392-9.5c.1-.975.348-1.642.781-1.858.167-.083.363-.168.626-.281,3.014-1.295,14.736-6.333,14.028-17.838-.88-14.3-11.248-16.373-15.572-17.238-1.384-.277-2.272-.455-2.41-1.106-.153-.723-.342-3.984-.433-6.882-.084-2.638-.027-5.054.283-5.3a5.333,5.333,0,0,1,2.421-.162c.935.041,1.774.563,1.853.324a66.671,66.671,0,0,0-.183-11.354,48.879,48.879,0,0,0-1.844-9.843c-.737-2.352-2.747-5.883-5.192-10.18-3.284-5.771-7.345-12.907-10.238-20.548-3.079-8.131-4.866-16.768-3.5-24.15a19.981,19.981,0,0,1,10.838-14.722c4.9-2.572,12.444-2.269,17.368-.687a12.887,12.887,0,0,1,3.542,1.673,3.553,3.553,0,0,1,1.668,2.413,2.819,2.819,0,0,1-1.113,2.374c-8.387,7.579-10.5,14.456-9.086,19.825,1.318,5.009,5.7,8.744,10.909,10.517,5.226,1.78,11.256,1.58,15.83-1.29,5.008-3.141,8.286-9.521,6.871-20.067a22.672,22.672,0,0,0-3.69-9.747c-4.528-6.735-12.571-11.25-21.841-13.771A76.37,76.37,0,0,0,206.112,28.5c-7.9,1.059-15.034,3.354-20.081,6.748a38.028,38.028,0,0,0-6.988,6.033,33.194,33.194,0,0,0-8.592,18.634,30.492,30.492,0,0,0,5.266,20.5,39.617,39.617,0,0,0,6.339,7.25,128.384,128.384,0,0,0,14.178,10.6c8.717,5.913,16.614,11.269,18.361,18.38,1.88,7.653,1.7,11,1.627,12.42-.017.321-.353.268-.189.363a7.868,7.868,0,0,0,1.57,0c1.075-.049,2.1-.1,2.309.533l0,.008h0v0h0v0h0v0h0v0h0l-.047-.152.048.152h0l.048.152-.045-.135c.071.3.176,3.2.153,6.044-.024,3.048-.257,6.105-.976,6.345h-.005l-.009,0h0l.009,0h0l.028-.008-.029.01-.264.086.236-.079-.12.035c-1.6.463-14.75,4.279-15.539,14.9-1.345,18.1,9.866,19.934,15.136,20.795,1.922.314,3.2.522,3.24,1.525.008.2.09.867.205,1.813.572,4.69,1.952,16-.473,17.067-.8.351-8.459.45-18.587-1.4a103.586,103.586,0,0,1-19.236-5.422,97.265,97.265,0,0,1-43.774-35.345c-10.54-15.329-16.73-33.546-16.361-52.13a105.286,105.286,0,0,1,15.433-51.741c9.165-15.1,22.027-27.844,37.546-35.505,18.93-9.346,38.371-12.413,56.844-9.468,18.507,2.951,36.033,11.933,51.093,26.677a94.316,94.316,0,0,1,24.47,39.97,97.158,97.158,0,0,1,2.175,47.293,122.37,122.37,0,0,1-7.849,24.86,123.814,123.814,0,0,1-7.055,13.878,11.459,11.459,0,0,0-1.3,3.333,72.579,72.579,0,0,0,16.256-24.152,104.879,104.879,0,0,0,7.306-40.69,93.11,93.11,0,0,0-9.064-38.605,105.315,105.315,0,0,0-53.85-51.406,94.628,94.628,0,0,0-71.551-.806,112.64,112.64,0,0,0-17.722,8.782,101.351,101.351,0,0,0-43.511,53.71A99.911,99.911,0,0,0,124.66,139.4a111.5,111.5,0,0,0,8.73,17.515c9.091,14.86,23.513,27.071,39.964,35.227,16.707,8.282,35.5,12.377,52.913,10.81a100.08,100.08,0,0,0,36.317-10.481,104.735,104.735,0,0,0,30.443-23.392m-.952-2.811q.7-.648,1.379-1.309a13.138,13.138,0,0,1,1.707-5.4,122.645,122.645,0,0,0,6.988-13.74,121.108,121.108,0,0,0,7.767-24.611,95.952,95.952,0,0,0-2.141-46.7,93.1,93.1,0,0,0-24.159-39.453c-14.874-14.562-32.172-23.431-50.428-26.342-18.223-2.905-37.413.125-56.111,9.357-15.3,7.556-27.995,20.136-37.043,35.041a104.054,104.054,0,0,0-15.256,51.133c-.364,18.319,5.745,36.285,16.146,51.412a96.028,96.028,0,0,0,43.213,34.9,102.409,102.409,0,0,0,19.011,5.36c9.882,1.808,17.163,1.8,17.874,1.484,1.591-.7.29-11.372-.25-15.8-.116-.95-.2-1.623-.211-1.909,0-.01-.883-.154-2.215-.371-5.624-.919-17.589-2.873-16.161-22.087.852-11.471,14.736-15.5,16.42-15.987l.109-.033h0c.073-.08.115-2.615.136-5.193.022-2.756-.051-5.479-.1-5.682h0v0h0v0h0c-.091-.226-.5.289-1.093.316a5.228,5.228,0,0,1-2.236-.161c-.483-.281-.464-.643-.419-1.484.072-1.364.244-4.588-1.593-12.065-1.636-6.659-9.348-11.89-17.859-17.663a129.345,129.345,0,0,1-14.312-10.71,40.885,40.885,0,0,1-6.535-7.474,31.7,31.7,0,0,1-5.467-21.307,34.416,34.416,0,0,1,8.9-19.324,39.263,39.263,0,0,1,7.213-6.229c5.206-3.5,12.526-5.861,20.6-6.944a77.632,77.632,0,0,1,29.836,1.808c9.533,2.593,17.826,7.269,22.536,14.274a23.875,23.875,0,0,1,3.887,10.264c1.491,11.113-2.046,17.886-7.431,21.265-4.9,3.076-11.328,3.3-16.874,1.415-5.567-1.9-10.269-5.929-11.7-11.364-1.52-5.779.661-13.1,9.45-21.041a1.692,1.692,0,0,0,.716-1.355,2.434,2.434,0,0,0-1.165-1.536,11.7,11.7,0,0,0-3.2-1.5c-4.684-1.5-11.829-1.809-16.43.606a18.812,18.812,0,0,0-10.2,13.861c-1.319,7.134.434,15.549,3.444,23.5,2.86,7.553,6.895,14.643,10.157,20.376,2.483,4.362,4.522,7.947,5.3,10.42a50.137,50.137,0,0,1,1.892,10.1,66.374,66.374,0,0,1,.126,11.847c-.213.64-1.684.574-3.064.513-.848-.038-1.567-.139-1.607-.106s.1,2,.176,4.312c.09,2.836.269,6,.409,6.666.029.138.55-.022,1.452.158,4.6.92,15.615,3.124,16.553,18.368.761,12.362-11.59,17.67-14.765,19.035-.282.121-.492.211-.563.247-.013.006-.053.336-.111.892a55.489,55.489,0,0,0,.392,9.248,45.33,45.33,0,0,0,1.134,7.111c2.12.114,8.1-.5,15.558-2.4a92.737,92.737,0,0,0,16.626-5.9c11.748-5.555,23.7-12.883,33.6-22.093m-72.158-36.3,0,.011,0-.011Zm-.833,12.4-.018.006.019-.005ZM548.825,327.919l.4.26c14.024,9.132,28.275,9.131,36.285,6.674a12.992,12.992,0,0,0,5.527-2.922c.788-.848.885-1.7.109-2.354-1.26-1.067-4.314-1.81-9.637-1.788-7.315.032-18.484.075-32.684.129" transform="translate(0 0)" fill="#373e4b"/></g></svg>