<?xml version="1.0" encoding="UTF-8"?>
<svg id="Capa_1" xmlns="http://www.w3.org/2000/svg" xmlns:xlink="http://www.w3.org/1999/xlink" version="1.1" viewBox="0 0 512 512">
  <!-- Generator: Adobe Illustrator 29.3.0, SVG Export Plug-In . SVG Version: 2.1.0 Build 146)  -->
  <defs>
    <style>
      .st0 {
        fill: #fff;
      }

      .st1 {
        fill: #ffc13b;
      }
    </style>
  </defs>
  <g>
    <path class="st1" d="M252.7,10.3c-18.3,0-33.1,14.8-33.1,33.1s7.6,24.4,18.7,29.8c4.4,2.1,9.3,3.3,14.5,3.3s10.1-1.2,14.5-3.3c11-5.4,18.7-16.7,18.7-29.8s-14.8-33.1-33.1-33.1Z"/>
    <path d="M252.7,86c-6.5,0-12.8-1.4-18.6-4.3-14.8-7.2-24-21.9-24-38.3,0-23.5,19.1-42.6,42.6-42.6s42.6,19.1,42.6,42.6-9.2,31.1-24,38.3c-5.8,2.8-12.1,4.3-18.6,4.3ZM252.7,19.8c-13,0-23.6,10.6-23.6,23.6s5.1,17.3,13.3,21.3c3.2,1.6,6.7,2.4,10.3,2.4s7.1-.8,10.3-2.4c8.2-4,13.3-12.1,13.3-21.3,0-13-10.6-23.6-23.6-23.6Z"/>
  </g>
  <g>
    <path class="st1" d="M326.9,428h-148.5c-9.3,0-16.9,7.6-16.9,16.9v20.7h182.3v-20.7c0-9.3-7.6-16.9-16.9-16.9Z"/>
    <path d="M353.3,475.1h-201.3v-30.2c0-14.5,11.8-26.4,26.4-26.4h148.5c14.5,0,26.4,11.8,26.4,26.4v30.2ZM171,456.1h163.3v-11.2c0-4.1-3.3-7.4-7.4-7.4h-148.5c-4.1,0-7.4,3.3-7.4,7.4v11.2Z"/>
  </g>
  <g>
    <path class="st1" d="M362.9,465.6h-220.5c-9.6,0-17.3,7.7-17.3,17.3v16.2h255.1v-16.2c0-9.6-7.7-17.3-17.3-17.3Z"/>
    <path d="M389.7,508.6H115.6v-25.7c0-14.8,12-26.8,26.8-26.8h220.5c14.8,0,26.8,12,26.8,26.8v25.7ZM134.6,489.6h236.1v-6.7c0-4.3-3.5-7.8-7.8-7.8h-220.5c-4.3,0-7.8,3.5-7.8,7.8v6.7Z"/>
  </g>
  <g>
    <polygon class="st0" points="19.1 306.5 177.5 306.5 101.9 137.2 94.7 137.2 19.1 306.5"/>
    <path d="M180.9,316H15.7c-5.3,0-8.8-5.5-6.7-10.3L88.5,127.7h19.5l79.5,178c2.2,4.8-1.4,10.3-6.7,10.3ZM33.7,297h129.1l-64.6-144.5-64.6,144.5Z"/>
  </g>
  <g>
    <path class="st1" d="M183.4,306.5H13.2c-.8,0-1.3.8-1,1.6l19,40.5c.2.4.6.6,1,.6h132.2c.4,0,.8-.2,1-.6l19-40.5c.3-.7-.2-1.6-1-1.6Z"/>
    <path d="M164.4,358.6H32.2c-4.1,0-7.9-2.4-9.6-6.1l-19-40.5c-1.5-3.3-1.3-7.1.6-10.2,2-3.1,5.3-4.9,8.9-4.9h170.2c3.6,0,7,1.8,8.9,4.9,2,3.1,2.2,6.9.6,10.2l-19,40.4c-1.7,3.7-5.5,6.1-9.6,6.1ZM37.5,339.6h121.5l11.1-23.6H26.4l11.1,23.6Z"/>
  </g>
  <g>
    <polygon class="st0" points="409.8 137.2 402.6 137.2 327 306.5 485.4 306.5 409.8 137.2"/>
    <path d="M489.6,316h-166.8c-4.9,0-8.2-5.1-6.2-9.6l79.9-178.7h19.5l79.9,178.7c2,4.5-1.3,9.6-6.2,9.6ZM341.6,297h129.1l-64.6-144.5-64.6,144.5Z"/>
  </g>
  <g>
    <path class="st0" d="M267.1,182.3v-45.1h166.7c8,0,14.5-6.5,14.5-14.5h0c0-8-6.5-14.5-14.5-14.5h-166.7v-35.1c-4.4,2.1-9.3,3.3-14.5,3.3s-10.1-1.2-14.5-3.3v35.1H71.5c-8,0-14.5,6.5-14.5,14.5h0c0,8,6.5,14.5,14.5,14.5h166.7v290.9h28.9v-213.9"/>
    <path d="M276.6,437.5h-47.9V146.7H71.5c-13.2,0-24-10.8-24-24s10.8-24,24-24h157.2v-40.8l13.7,6.6c3.2,1.6,6.7,2.4,10.3,2.4s7.1-.8,10.3-2.4l13.7-6.6v40.8h157.2c13.2,0,24,10.8,24,24s-10.8,24-24,24h-157.2v35.6c0,5.2-4.3,9.5-9.5,9.5s-9.5-4.3-9.5-9.5v-54.6h176.2c2.7,0,5-2.2,5-5s-2.2-5-5-5h-176.2v-32c-3.3.4-6.7.4-9.9,0v32H71.5c-2.7,0-5,2.2-5,5s2.2,5,5,5h176.2v290.9h9.9v-204.4c0-5.2,4.3-9.5,9.5-9.5s9.5,4.3,9.5,9.5v223.4Z"/>
  </g>
  <g>
    <path class="st1" d="M491.3,306.5h-170.2c-.8,0-1.3.8-1,1.6l19,40.5c.2.4.6.6,1,.6h132.2c.4,0,.8-.2,1-.6l19-40.5c.3-.7-.2-1.6-1-1.6Z"/>
    <path d="M472.3,358.6h-132.2c-4.1,0-7.9-2.4-9.6-6.1l-19-40.5c-1.5-3.3-1.3-7.1.7-10.2,2-3.1,5.3-4.9,8.9-4.9h170.2c3.6,0,7,1.8,8.9,4.9,2,3.1,2.2,6.9.7,10.2l-19,40.5c-1.7,3.7-5.5,6.1-9.6,6.1ZM345.5,339.6h121.5l11.1-23.6h-143.7l11.1,23.6Z"/>
  </g>
</svg>