<?xml version="1.0" encoding="utf-8"?>
<!-- Generator: Adobe Illustrator 23.0.3, SVG Export Plug-In . SVG Version: 6.00 Build 0)  -->
<svg version="1.1" id="圖層_1" xmlns="http://www.w3.org/2000/svg" xmlns:xlink="http://www.w3.org/1999/xlink" x="0px" y="0px"
	 viewBox="0 0 511 512" style="enable-background:new 0 0 511 512;" xml:space="preserve">
<style type="text/css">
	.st0{fill:#FFFFFF;}
	.st1{fill:#FFC13B;}
</style>
<path class="st0" d="M491.2,230.1c-12.6-10.6-31.4-9.1-42.1,3.5l-68.4,70.3h0.1c-3.7-12.7-15.4-22-29.3-22H238.2
	c-14.7-6.4-30.9-10-48-10c-47.3,0-88.2,22.9-107.8,66.4l90.4,89.9l0.2-0.1l15.6-15c7.4-7.2,17.4-11.2,27.8-11.2h133.2
	c20.7,0,40.7-8.1,55.5-22.6l89.6-107.1C505.4,259.6,503.8,240.7,491.2,230.1z"/>
<path class="st1" d="M398.1,110c0,55.2-44.8,100-100,100s-100-44.8-100-100c0-55.2,44.8-100,100-100S398.1,54.8,398.1,110z"/>
<path class="st1" d="M170.9,454.3L122.5,502L10.2,388.9l47.6-47.7c7.8-7.8,20.5-7.8,28.3,0l84.8,84.8
	C178.8,433.9,178.7,446.5,170.9,454.3z"/>
<path d="M235.8,347.3c3.9-3.9,3.9-10.2,0-14.1c-3.9-3.9-10.2-3.9-14.1,0c-3.9,3.9-3.9,10.2,0,14.1
	C225.6,351.2,231.9,351.2,235.8,347.3z"/>
<path d="M188.4,110c0,60.6,49.3,110,110,110s110-49.3,110-110S359.1,0,298.4,0S188.4,49.3,188.4,110z M388.4,110
	c0,49.6-40.4,90-90,90s-90-40.4-90-90c0-49.6,40.4-90,90-90S388.4,60.4,388.4,110z"/>
<path d="M115.7,509c3.9,3.9,10.2,3.9,14.1,0.1l48.5-47.8c8.2-8.2,10.7-20.4,7.1-31l10.4-10.1c5.6-5.4,13-8.4,20.8-8.4h132.9
	c23.6,0,45.9-9.1,62.8-25.5c0.7-0.7-5.3,6.4,90.7-108.3c14.2-16.8,12.1-42.1-4.8-56.4c-16.7-14.1-41.8-12.1-56.1,4.5l-59,60.6
	c-7.4-9.2-18.8-14.9-31.1-14.9H240.5c-15.9-6.6-32.7-10-50.1-10c-48.1,0-90.2,22.2-112.7,63.9c-9.5-1.8-19.5,1.1-26.7,8.3L3.4,381.8
	c-3.9,3.9-3.9,10.2,0,14.1L115.7,509z M190.4,281.9c15.3,0,30.1,3.1,44,9.2c1.3,0.6,2.6,0.8,4,0.8H352c10.8,0,20,8.8,20,20
	c0,11-9,20-20,20h-81.6c-5.5,0-10,4.5-10,10c0,5.5,4.5,10,10,10H352c22.1,0,40-17.9,40-40c0-1.8-0.1-3.5-0.4-5.2
	c57.1-58.7,65.1-66.9,65.5-67.3c7.1-8.4,19.8-9.5,28.2-2.4c8.4,7.1,9.5,19.8,2.3,28.2l-89.7,107.2c-13.1,12.6-30.3,19.5-48.5,19.5
	H216.6c-13,0-25.4,5-34.7,14l-8.5,8.2l-78.3-78.3C113.4,301.5,147.7,281.9,190.4,281.9z M65.1,348.3c3.3-3.3,8.4-3.9,12.4-1.4
	c1.7,1.1-3.2-3.5,86.6,86.2c4,4,3.8,10.4,0.1,14.1l-41.3,40.7l-98.2-99L65.1,348.3z"/>
<path d="M286.2,50.3v11.4c-11.6,4.1-20,15.2-20,28.3c0,16.5,13.4,29.9,29.8,30c5.1,0,9.5,3.8,10.1,8.8c0.7,6-4,11.2-9.9,11.2
	c-4.2,0-8.8-2.6-12.8-7.4c-3.2-3.7-8.6-4.9-12.9-2.4c-5.4,3.3-6.5,10.4-2.6,15.1c5.3,6.4,11.6,10.8,18.3,13v11.4
	c0,5,3.6,9.5,8.5,10.2c6.2,0.9,11.5-3.9,11.5-9.9v-11.7c11.6-4.1,20-15.2,20-28.3c0-16.5-13.4-29.9-29.8-30c-5.1,0-9.5-3.8-10.1-8.8
	c-0.7-6,4-11.2,9.9-11.2c3.5,0,7.1,1.7,10.6,5c3.6,3.4,9.1,4.1,13.1,1.1c5.1-3.8,5.4-11,1.1-15.3c-5.1-4.9-10.2-7.7-14.7-9.2V50
	c0-6-5.3-10.8-11.5-9.9C289.7,40.8,286.2,45.3,286.2,50.3z"/>
</svg>
