<?xml version="1.0" encoding="UTF-8"?>
<svg id="Layer_1" xmlns="http://www.w3.org/2000/svg" version="1.1" viewBox="0 0 512 512">
  <!-- Generator: Adobe Illustrator 29.3.1, SVG Export Plug-In . SVG Version: 2.1.0 Build 151)  -->
  <defs>
    <style>
      .st0 {
        fill: #fff;
      }

      .st1 {
        fill: #ff166b;
      }

      .st2 {
        fill: #ffc13b;
      }
    </style>
  </defs>
  <path class="st1" d="M212.5,493.5h0c0,.1,0,0,0,0Z"/>
  <path class="st1" d="M-497.9,338.8h0Z"/>
  <path class="st0" d="M333.5,238.6c-6.3-6.2-16.3-2-16.3,6.9s.6,4.5,3.3,6.9c4.5,4.1,8.4,3.9,12.9-.6s3.5-4,3-7.2c-.4-2-1.7-4.7-2.9-6Z"/>
  <path class="st0" d="M192.5,192.7l-1.2-11.1-7.4-1.1c-31.8-5-54.8-33.6-52.8-65.7,1-16.6,6.3-28.2,18.1-40,13.3-13.3,26.5-18.9,45-18.7,14.9.1,24.9,3.5,37.4,12.7,4.2,3.1,6.9,4.5,7.6,3.9.7-.5,4.7-3.5,9-6.8,4.2-3.2,11.5-7.8,16.1-10.3s8.4-4.8,8.4-5.2-3.2-3.8-7.1-7.6l-7-6.8-5.2,5c-2.9,2.8-6,5.3-7.1,5.7-1.2.4-5.2-1.1-11.5-4.3-5.3-2.7-13.5-6.1-18.2-7.5-10-3.1-10.9-4.2-10.9-14.1v-6.5h-4.9c-2.7,0-5.5,0-6.3-.3-.7-.2-4.1,0-7.5,0l-6.3.4v7.8c0,9.4-.7,10.2-10.4,12.7-3.9,1-11.6,4.1-17.3,7-6.3,3.2-11,5.1-12.1,4.7-.9-.3-4-2.8-6.9-5.6l-5.2-5-4.8,4.4c-6.1,5.5-12.3,12.3-12.3,13.6s2.2,3.1,5,5.8c3,2.9,5,5.8,5,7.1s-2,5.9-4.4,10.5c-2.4,4.6-5.6,12.3-7.1,17.1-3.2,10.7-4.5,11.8-13.6,11.8s-6.7.2-7.3,2.2c-.8,3-.8,15.7,0,19.7l.7,3.1h7.1c4.2,0,7.9.5,8.9,1.2.9.7,2.6,4.5,3.7,8.5,2.3,8.3,5.6,16.1,9.3,22.1,3.9,6.1,3.5,8.4-2.4,14.7l-5.1,5.4,2,2.8c2,2.8,10,10.7,13.5,13.2,1.5,1.2,2.4.8,7.2-3.8,6.3-5.9,8.6-6.3,14.7-2.4,6,3.7,13.8,7,22.1,9.3,4,1.1,7.8,2.8,8.5,3.7.7,1,1.2,4.7,1.2,8.9,0,6.6.2,7.2,2.3,7.8,2.5.7,15.7.8,15.7.2s-1.1-4.7-2.5-9.8c-1.4-5.1-3.1-14.3-3.7-20.4Z"/>
  <path class="st0" d="M226.4,82.5c-2.2-2.8-11.4-8.1-17.3-10-27.2-9.1-55.6,6.5-62.9,34.3-6.8,26.1,10.6,53.8,37.3,59.4,7.8,1.6,8,1.5,8.7-2.7,4.9-31.8,13.2-51.8,30.3-73.1,4.3-5.3,5-6.7,3.9-7.9Z"/>
  <path class="st0" d="M401.5,332.2c-3.9-2.8-12.9-3.6-17.3-1.5-1.6.8-16.3,14.5-32.5,30.6-20.6,20.4-30.9,29.9-34,31.4-4.4,2-5.7,2.1-44.8,2.1h-40.4l-1.9-2.4c-2.3-2.8-2.4-6-.5-8.7,1.4-1.8,3.3-1.9,41.4-2.4,38.5-.5,40.2-.6,42.8-2.6,5-3.7,6.9-7.2,6.9-12.4s-1.9-8.7-6.9-12.4c-2.6-2-4.3-2.1-31.8-2.4l-29.1-.3-4.4-3c-9.5-6.6-15-8.4-25.3-8.4s-9.8.1-18.1,4.3c-7,3.5-11.5,6.8-23,17.3-7.9,7.2-15.3,13.9-16.4,15-1.9,1.9-1.7,2.1,26.4,30.3l28.5,28.5,5.8-5.4,5.8-5.4,50.3-.3,50.2-.3,4.4-2.3c5.1-2.8,66.8-62.7,69.3-67.5,3.7-6.9,1.2-17.2-5.4-21.8Z"/>
  <polygon class="st2" points="139.2 373.3 123.4 389.1 107.7 404.8 152.2 449.3 196.7 493.8 212.4 478 228.2 462.3 183.7 417.8 139.2 373.3"/>
  <path class="st2" d="M431.1,102.3c-19.9-26.4-48.8-43.6-81.7-48.4-52.9-7.9-105.3,18.9-129.6,66.4-8.8,17-12.8,32.4-13.8,52-1.2,25.4,4.7,48.9,17.6,70.4,6,9.9,5.8,8.4,3.3,38.3-1.3,15.2-1.5,20.3-.6,20.3s13.1-1.8,27.7-3.9l26.6-3.9,10.5,3.4c15.8,5.1,27.4,6.7,44.1,6.1,7.7-.3,17.2-1.3,21-2.1,50.5-11.2,87.2-48.1,98.1-98.6,2.5-11.7,2.5-36.2.1-48-4.3-20.3-11.5-36.3-23.3-52ZM348.1,255.6c-4.3,8.5-11.8,13.1-21.4,13.1s-17.1-4.6-21.4-13c-6.1-12.3.9-28.6,14.1-32.8,19.5-6.2,37.8,14.6,28.7,32.7ZM353.3,149.6c-3.7,47.4-4.6,55-6.1,56.7-1.7,1.9-3.1,2-20.5,2s-18.8,0-20.5-2c-1.5-1.6-2.3-9.6-6.1-56.7-2.4-30.1-4.3-56.3-4.4-58.1,0-1.9.8-4,2-5.2,1.9-1.9,3.3-2,29-2s27.1.1,29,2c1.2,1.2,2,3.3,2,5.2s-2,27.9-4.4,58.1Z"/>
  <path class="st0" d="M310.2,98.3l3.7,46.7c2,25.8,3.7,47.4,3.7,48,.1,1,2.6,1.3,9,1.3h8.9l.7-6.3c.3-3.4,2.1-25,3.8-48l3.3-41.7h-33.1Z"/>
  <path d="M296.8,42.9l-9.5,2.4-6.1-6.7c-3.3-3.7-9.3-9.3-13.3-12.5-9.6-7.6-11.5-7.6-18.9-.5l-5.5,5.3-5.6-2.8c-3.2-1.5-8.5-3.7-11.9-4.8l-6.2-2.1-.3-8.1c-.3-7.5-.5-8.2-3.1-10.2-2.6-1.9-4.3-2.1-20.5-2.3-9.7,0-19.4.2-21.5.6-5.9,1.2-7.1,3-7.7,12.1l-.5,8.1-6.5,2.3c-3.6,1.2-8.4,3.2-10.7,4.4-2.3,1.2-4.8,2.2-5.5,2.2s-3.6-2.3-6.3-5c-6.2-6.3-8.4-6.4-16.1-.6-10.9,8.1-26.4,25.6-26.4,29.8s2.5,4.6,5.7,7.9l5.6,5.9-3.2,6.5c-1.7,3.6-3.9,9-4.8,12l-1.7,5.5h-7.4c-8.9,0-10.8.9-12.2,5.8-1.8,6.3-2.3,24.1-1.1,33.7,1.5,11.9,3.1,13.5,13.5,13.5h7.3l1.2,4.2c.7,2.4,2.8,7.6,4.7,11.7l3.4,7.5-4.9,5c-6.6,6.8-7,8.8-2.9,15.1,7,10.6,27.1,28.5,32,28.5s4.5-2.5,7.7-5.5l5.8-5.5,7.4,3.4c4.1,1.9,9.3,4,11.5,4.6l4.2,1.3.4,7.8c.2,6.2.7,8.3,2.3,9.8,2.5,2.5,12.2,4.1,25.6,4.1h9.6l5.2,9.2,5.3,9.2-2.3,28.2c-2.3,27.6-2.3,28.3-.4,30.3,2.5,2.9,5.4,2.7,38.7-2.2,19.6-2.9,29.4-4,31-3.4,6.3,2.4,19.4,5.8,28.3,7.3,13,2.1,37,1.4,50-1.5,49-10.8,87.5-45.4,103.5-93,4.8-14.5,6.3-24.6,6.4-43.1,0-19.5-1.7-30.3-7.5-46.7-24-68.1-95.8-106.5-165.8-88.7ZM183,222.7c-2.1-.6-2.3-1.2-2.3-7.8s-.5-7.9-1.2-8.9c-.7-.9-4.5-2.6-8.5-3.7-8.3-2.3-16.1-5.6-22.1-9.3-6.1-3.9-8.4-3.5-14.7,2.4-4.8,4.6-5.7,5-7.2,3.8-3.5-2.5-11.5-10.4-13.5-13.2l-2-2.8,5.1-5.4c5.9-6.3,6.3-8.6,2.4-14.7-3.7-6-7-13.8-9.3-22.1-1.1-4-2.8-7.8-3.7-8.5-1-.7-4.7-1.2-8.9-1.2h-7.1l-.7-3.1c-.8-4-.8-16.7,0-19.7.6-2,1.2-2.2,7.3-2.2,9.1,0,10.4-1.1,13.6-11.8,1.5-4.8,4.7-12.5,7.1-17.1,2.4-4.6,4.4-9.3,4.4-10.5s-2-4.2-5-7.1c-2.8-2.7-5-5.3-5-5.8,0-1.3,6.2-8.1,12.3-13.6l4.8-4.4,5.2,5c2.9,2.8,6,5.3,6.9,5.6,1.1.4,5.8-1.5,12.1-4.7,5.7-2.9,13.4-6,17.3-7,9.7-2.5,10.4-3.3,10.4-12.7v-7.8l6.3-.4c3.4,0,6.8-.2,7.5,0,.8.2,3.6.3,6.3.3h4.9v6.5c0,9.9.9,11,10.9,14.1,4.7,1.4,12.9,4.8,18.2,7.5,6.3,3.2,10.3,4.7,11.5,4.3,1.1-.4,4.2-2.9,7.1-5.7l5.2-5,7,6.8c3.9,3.8,7.1,7.2,7.1,7.6s-3.8,2.7-8.4,5.2-11.9,7.1-16.1,10.3c-4.3,3.3-8.3,6.3-9,6.8-.7.6-3.4-.8-7.6-3.9-12.5-9.2-22.5-12.6-37.4-12.7-18.5-.2-31.7,5.4-45,18.7-11.8,11.8-17.1,23.4-18.1,40-2,32.1,21,60.7,52.8,65.7l7.4,1.1,1.2,11.1c.6,6.1,2.3,15.3,3.7,20.4,1.4,5.1,2.5,9.5,2.5,9.8,0,.6-13.2.5-15.7-.2ZM192.2,163.5c-.7,4.2-.9,4.3-8.7,2.7-26.7-5.6-44.1-33.3-37.3-59.4,7.3-27.8,35.7-43.4,62.9-34.3,5.9,1.9,15.1,7.2,17.3,10,1.1,1.2.4,2.6-3.9,7.9-17.1,21.3-25.4,41.3-30.3,73.1ZM454.3,202.3c-10.9,50.5-47.6,87.4-98.1,98.6-3.8.8-13.3,1.8-21,2.1-16.7.6-28.3-1-44.1-6.1l-10.5-3.4-26.6,3.9c-14.6,2.1-27.1,3.9-27.7,3.9-.9,0-.7-5.1.6-20.3,2.5-29.9,2.7-28.4-3.3-38.3-12.9-21.5-18.8-45-17.6-70.4,1-19.6,5-35,13.8-52,24.3-47.5,76.7-74.3,129.6-66.4,32.9,4.8,61.8,22,81.7,48.4,11.8,15.7,19,31.7,23.3,52,2.4,11.8,2.4,36.3-.1,48Z"/>
  <path d="M326.7,84.3c-25.7,0-27.1.1-29,2s-2,3.3-2,5.2c0,1.8,2,28,4.4,58.1,3.8,47.1,4.6,55.1,6.1,56.7,1.7,1.9,3.2,2,20.5,2s18.8,0,20.5-2c1.5-1.7,2.4-9.3,6.1-56.7,2.4-30.2,4.4-56.3,4.4-58.1s-.8-4-2-5.2c-1.9-1.9-3.3-2-29-2ZM340,140c-1.7,23-3.5,44.6-3.8,48l-.7,6.3h-8.9c-6.4,0-8.9-.3-9-1.3,0-.6-1.7-22.2-3.7-48l-3.7-46.7h33.1l-3.3,41.7Z"/>
  <path d="M319.4,222.9c-13.2,4.2-20.2,20.5-14.1,32.8,4.3,8.4,11.8,13,21.4,13s17.1-4.6,21.4-13.1c9.1-18.1-9.2-38.9-28.7-32.7ZM333.4,251.8c-4.5,4.5-8.4,4.7-12.9.6-2.7-2.4-3.3-3.6-3.3-6.9,0-8.9,10-13.1,16.3-6.9,1.2,1.3,2.5,4,2.9,6,.5,3.2,0,4.1-3,7.2Z"/>
  <path d="M379.7,317.5c-4.6,1.8-8.6,5.1-25.3,21.6l-19.9,19.5-2.3-4.9c-2.8-6.1-7.5-10.6-14-13.6-4.8-2.2-6.2-2.3-33-2.6-21.5-.2-28.3-.6-29.5-1.6-3-2.7-14.1-7.6-20.2-9.1-12.1-2.8-22.8-1.5-35.8,4.6-8.3,3.9-13.2,7.7-31,23.8l-14.4,13.1-5.6-5.4c-6.4-6.3-8.8-7.3-12.7-5.2-3.9,2-43.9,42.6-44.7,45.3-.4,1.3,0,3.4.8,5,.8,1.5,23.9,25.2,51.3,52.6,46.7,46.6,50.1,49.7,53.3,49.7s5.3-1.8,25.8-22.3,25.9-25,15.5-35.8l-6.7-6.9,3.4-3.5,3.3-3.4,48.6-.3c48.3-.3,48.6-.3,54.4-2.6,6.9-2.8,11.1-6.6,49.3-44.3,31.4-30.9,31.9-31.6,31.9-44.9s-2.3-15.8-8.5-22-22.6-11.3-34-6.8ZM212.4,478l-15.7,15.8-44.5-44.5-44.5-44.5,15.7-15.7,15.8-15.8,44.5,44.5,44.5,44.5-15.8,15.7ZM406.9,354c-2.5,4.8-64.2,64.7-69.3,67.5l-4.4,2.3-50.2.3-50.3.3-5.8,5.4-5.8,5.4-28.5-28.5c-28.1-28.2-28.3-28.4-26.4-30.3,1.1-1.1,8.5-7.8,16.4-15,11.5-10.5,16-13.8,23-17.3,8.3-4.2,8.9-4.3,18.1-4.3s15.8,1.8,25.3,8.4l4.4,3,29.1.3c27.5.3,29.2.4,31.8,2.4,5,3.7,6.9,7.2,6.9,12.4s-1.9,8.7-6.9,12.4c-2.6,2-4.3,2.1-42.8,2.6-38.1.5-40,.6-41.4,2.4-1.9,2.7-1.8,5.9.5,8.7l1.9,2.4h40.4c39.1,0,40.4,0,44.8-2.1,3.1-1.5,13.4-11,34-31.4,16.2-16.1,30.9-29.8,32.5-30.6,4.4-2.1,13.4-1.3,17.3,1.5,6.6,4.6,9.1,14.9,5.4,21.8Z"/>
</svg>