<?xml version="1.0" encoding="utf-8"?>
<!-- Generator: Adobe Illustrator 23.0.3, SVG Export Plug-In . SVG Version: 6.00 Build 0)  -->
<svg version="1.1" id="Capa_1" xmlns="http://www.w3.org/2000/svg" xmlns:xlink="http://www.w3.org/1999/xlink" x="0px" y="0px"
	 viewBox="0 0 512 512" style="enable-background:new 0 0 512 512;" xml:space="preserve">
<style type="text/css">
	.st0{fill:#FFFFFF;}
	.st1{fill:#FFC13B;}
</style>
<g id="XMLID_235_">
	<g id="XMLID_205_">
		<g id="XMLID_1826_">
			<path id="XMLID_1883_" class="st0" d="M131.6,177.9C108.1,129.4,112.3,74.5,146.9,40C192.6-5.8,274.3,1.7,329.3,56.6
				c52.1,52.1,61.5,128.3,23.3,175L131.6,177.9z"/>
		</g>
		<g id="XMLID_1823_">
			<path id="XMLID_1882_" class="st1" d="M283.3,213.5l-150-12.6c-49.3,81-50,174.8,5,229.7c13.6,13.6,29.6,23.8,47.2,30.7
				c-1.5,16.1,9.1,32,26.3,35.6c15.9,3.3,32.7,5.1,50,5.1c104.8,0,189.7-64.8,189.7-144.7C451.6,282.9,378,221.6,283.3,213.5
				L283.3,213.5z"/>
		</g>
		<g id="XMLID_1822_">
			<path class="st0" d="M189.9,447.6c-11.4,19.6-0.2,44.7,21.9,49.3c7.8,1.6,15.8,2.9,24,3.7l9.8-65.4l0,0c-6.6-0.7-13-1.8-19.2-3.3
				C212.2,428.5,197.3,434.9,189.9,447.6L189.9,447.6z"/>
		</g>
		<g id="XMLID_1821_">
			<path id="XMLID_1829_" class="st0" d="M248.8,317.9l18.4-7.2c22.1-8.7,40.6-24.9,51.3-46.1c6.4-12.6,9.7-26.3,9.8-40.4
				c0-0.7,0-1.4-0.1-2.2l-0.2-0.4c0,0,0.1,0,0.1,0c-1.2-11.3-10.8-20.6-22.3-20.8c-12.7-0.2-23.1,10.1-23.1,22.8
				c0,28.3-28.3,53-66.2,61.7c-20.8,4.7-45.9,12.4-65.9,19.7l0,0c-7.6,3.1-15.9,4.8-24.6,4.8c-10.1,0-19.7-2.3-28.3-6.4
				c-4.9,48.8,8.2,94.7,40.6,127.2c13.6,13.6,29.6,23.8,47.2,30.7c0.4-4.6,1.8-9.3,4.4-13.7c7.4-12.8,22.3-19.2,36.6-15.7
				c11.1,2.7,23,4.1,35.4,4.1c17.5,0,34.1-2.9,48.9-8.2l-3.3-5.2c0-30.8-23.1-56.3-52.9-60c-5.2-0.6-10-3-13.7-6.7
				C228.9,344.2,233.2,324.1,248.8,317.9L248.8,317.9z"/>
		</g>
		<g id="XMLID_1819_">
			<path class="st0" d="M166.9,182.8l3-3c16.8-16.8,23.4-41.3,17.3-64.3H211c7.3,0,14.5-1.9,20.9-5.4c16.8-9.3,37.8-6.4,51.4,7.2
				l2.7,2.7c25.1,25.1,25.1,65.9,0,91c-25.1,25.1-65.9,25.1-91,0L166.9,182.8z"/>
		</g>
		<g id="XMLID_1810_">
			<circle class="st0" cx="126" cy="244.3" r="65.5"/>
		</g>
		<g id="XMLID_295_">
			<circle class="st0" cx="114.4" cy="405.1" r="32.9"/>
		</g>
	</g>
	<g id="XMLID_43_">
		<path id="XMLID_46_" d="M247,166.8c-5.5,0-10,4.5-10,10c0,1.1-0.9,2.1-2.1,2.1c-5.5,0-10,4.5-10,10s4.5,10,10,10
			c12.2,0,22.1-9.9,22.1-22.1C257,171.2,252.5,166.8,247,166.8L247,166.8z"/>
		<g id="XMLID_80_">
			<path id="XMLID_1818_" d="M446.6,391.9c-5.1-2.1-11,0.3-13.1,5.4C409.9,453.9,341,492,261.9,492c-4.8,0-9.6-0.2-14.4-0.4
				l7.2-45.6c2.4,0.1,4.8,0.2,7.3,0.2c32.6,0,63.3-9.5,86.6-26.7c24.1-17.9,37.4-42,37.4-67.8c0-5.5-4.5-10-10-10
				c-5.5,0-10,4.5-10,10c0,26.6-19.5,50-48.9,63.1c-3.7-31.9-28.7-57.8-61.2-61.9c-3-0.4-5.8-1.7-7.9-3.8c-3.2-3.2-4.6-7.7-3.6-12.1
				s3.9-8,8.2-9.7l18.4-7.2c24.9-9.7,44.9-27.8,56.6-50.9c5.5-10.8,8.9-22.2,10.2-33.9c45.2,15.9,80.4,45.7,95.6,81.5
				c1.6,3.8,5.3,6.1,9.2,6.1c1.3,0,2.6-0.3,3.9-0.8c5.1-2.2,7.5-8,5.3-13.1c-9.4-22.2-25.5-42.7-46.6-59.5
				c-11-8.7-23.3-16.4-36.6-22.9c14.6-23.5,20.2-52.5,16-82.9c-4.8-34.3-21.9-67.7-48.2-94c-28.2-28.2-64-45.6-100.8-49
				c-37.5-3.4-71.5,8.1-95.7,32.4C106,66.7,97.7,119,117,169.3c-37.4,4.5-66.5,36.4-66.5,75c0,27.5,14.8,51.6,36.8,64.8
				c-1.4,20.7,0.3,40.6,5.1,59.2c-12.5,7.5-20.8,21.2-20.8,36.8c0,23.7,19.3,42.9,42.9,42.9c7.9,0,15.2-2.1,21.6-5.8
				c11.6,10.6,24.9,19.3,39.6,25.8c0.4,4.8,1.6,9.5,3.7,14.1c5.7,12.8,16.9,21.8,30.6,24.7c16.9,3.5,34.4,5.3,52.1,5.3
				c42.8,0,83.6-10.3,118-29.8c34.2-19.4,59.1-46.1,72.1-77.3C454.1,399.8,451.7,394,446.6,391.9z M153.9,47.1
				c20-20,48.3-29.4,79.8-26.6c32.1,2.9,63.5,18.3,88.5,43.2c45.7,45.7,57,111,27.7,154.7c-4.4-1.7-8.8-3.2-13.3-4.6
				c-3.9-11.6-14.2-20.6-26.4-22.5c9.7-26.4,4-57.2-17.1-78.4l-2.7-2.7c-16.7-16.7-42.7-20.3-63.4-8.9c-4.9,2.7-10.5,4.2-16.1,4.2
				h-23.8c-3.1,0-6,1.4-7.9,3.9c-1.9,2.5-2.5,5.7-1.7,8.7c5.2,19.5-0.5,40.4-14.7,54.7c0,0-3.5,3.5-3.7,3.8
				c-6.3-3.1-13.1-5.3-20.2-6.6C118.4,124.7,124.2,76.8,153.9,47.1z M199.6,227.6c12.4,8.1,26.6,12.2,40.9,12.2
				c10.5,0,21.1-2.2,30.8-6.7c-5.6,19-27.5,35.8-57,42.5c-7,1.6-14.6,3.6-22.5,5.8c6.2-11,9.7-23.6,9.7-37
				C201.5,238.5,200.9,232.9,199.6,227.6L199.6,227.6z M202.1,203.9l-21.3-21.3c13.6-15.8,20.2-36.6,18.3-57.2H211
				c9,0,17.9-2.3,25.8-6.7c12.9-7.1,29.1-4.9,39.5,5.5l2.7,2.7c10.3,10.3,15.9,23.9,15.9,38.4c0,14.5-5.7,28.2-15.9,38.4
				C257.8,225.1,223.3,225.1,202.1,203.9z M70.4,244.3c0-30.6,24.9-55.5,55.5-55.5c30.3,0,54.9,24.3,55.5,54.5
				c-1.2,2.3-4,3.6-6.6,2.8c-5.3-1.5-10.9,1.5-12.4,6.8c-1.5,5.3,1.5,10.9,6.8,12.4c2.4,0.7,4.8,1,7.2,1c0.2,0,0.3,0,0.5,0
				c-8.5,19.7-28.2,33.6-51,33.6C95.4,299.8,70.4,274.9,70.4,244.3L70.4,244.3z M114.4,428c-12.6,0-22.9-10.3-22.9-22.9
				c0-12.6,10.3-22.9,22.9-22.9s22.9,10.3,22.9,22.9C137.3,417.7,127,428,114.4,428z M181.2,442.6c-0.9,1.6-1.7,3.2-2.4,4.8
				c-10.4-5.1-19.9-11.5-28.4-19.1c4.3-6.7,6.8-14.7,6.8-23.2c0-23.7-19.3-42.9-42.9-42.9c-1,0-2,0-3,0.1
				c-3.5-14.2-5.1-29.2-4.6-44.9c6.1,1.6,12.6,2.5,19.2,2.5c9.7,0,19-1.9,27.5-5.2c20.4-7.5,45.7-15.1,65.3-19.5
				c20.3-4.6,38.7-13.8,51.9-25.8c14.5-13.2,22.1-29,22.1-45.6c0-3.4,1.4-6.7,3.8-9.1c2.5-2.4,5.7-3.7,9.2-3.7
				c6.7,0.1,12.6,6.3,12.6,13.3c-0.1,12.5-3,24.6-8.7,36c-9.4,18.7-25.7,33.3-46,41.3l-18.4,7.2c-10.5,4.1-18.1,13.2-20.5,24.2
				c-2.3,11,1.1,22.4,9.1,30.4c5.2,5.2,12.2,8.6,19.6,9.5c24.8,3.1,43.5,24,44.1,48.9c-11.1,2.9-23.1,4.5-35.6,4.5
				c-11.3,0-22.4-1.3-33-3.9C210.4,417.8,190.8,426.1,181.2,442.6L181.2,442.6z M227.5,489.5c-4.6-0.7-9.1-1.5-13.6-2.4
				c-7.4-1.5-13.4-6.4-16.4-13.2c-3.1-6.9-2.7-14.7,1.1-21.2c5.1-8.9,15.7-13.4,25.6-11c3.5,0.8,7,1.5,10.5,2.1L227.5,489.5z"/>
		</g>
		<path id="XMLID_1869_" d="M451.5,347.3c-5.5,0-10,4.5-10,10s4.5,10,10,10h0.1c5.5,0,10-4.5,10-10S457.1,347.3,451.5,347.3z"/>
	</g>
</g>
</svg>
