<?xml version="1.0" encoding="utf-8"?>
<!-- Generator: Adobe Illustrator 23.0.3, SVG Export Plug-In . SVG Version: 6.00 Build 0)  -->
<svg version="1.1" id="Capa_1" xmlns="http://www.w3.org/2000/svg" xmlns:xlink="http://www.w3.org/1999/xlink" x="0px" y="0px"
	 viewBox="0 0 480 480" style="enable-background:new 0 0 480 480;" xml:space="preserve">
<style type="text/css">
	.st0{fill:#FFC13B;}
	.st1{fill:#FFFFFF;}
	.st2{fill:#231F20;}
</style>
<g>
	<path class="st0" d="M394.5,152.1c-102.1-20.2-207.1-20.2-309.1,0c-2.5,0.4-5,1-7.5,1.4L8,168l48,224l2.2-0.6
		c160.1-41.8,203.5-41.8,363.5,0l2.2,0.6l48-224l-69.9-14.5C399.6,153,397,152.5,394.5,152.1L394.5,152.1z M184,216h40v-40h32v40h40
		v32h-40v40h-32v-40h-40V216z M424,359.8l-3-0.8c-159.8-41.5-202.3-41.5-362.1,0l-3,0.8l3-0.8c159.8-41.5,202.3-41.5,362.1,0
		L424,359.8z"/>
	<path class="st1" d="M394.5,152.1C381,113.7,344.7,88,304,88H176c-40.7-0.1-77.1,25.6-90.6,64.1
		C187.5,131.9,292.5,131.9,394.5,152.1z"/>
</g>
<path class="st1" d="M224,288h32v-40h40v-32h-40v-40h-32v40h-40v32h40V288z"/>
<g>
	<path class="st2" d="M478.7,163.6c-1.2-1.8-3-3-5.1-3.5l-70-14.5l-2.2-0.4l-1-0.2c-15.9-39.3-54-65-96.4-65H176
		c-42.4-0.2-80.6,25.6-96.3,65l-1.1,0.2L6.4,160.2c-4.3,0.9-7.1,5.1-6.2,9.5c0,0,0,0,0,0l48,224c0.9,4.3,5.2,7.1,9.5,6.1
		c0.1,0,0.2,0,0.3-0.1l2.3-0.6c157.9-41.2,201.6-41.2,359.6,0l2.2,0.6c4.3,1.1,8.6-1.5,9.7-5.8c0-0.1,0-0.2,0.1-0.3l48-224
		C480.3,167.6,479.8,165.4,478.7,163.6L478.7,163.6z M113.7,121.7c16.5-16.5,38.9-25.8,62.3-25.7h128c32,0,61.5,17.4,77,45.4
		c-0.5-0.1-1-0.1-1.4-0.2c-10.3-1.8-20.5-3.4-30.8-4.8c-1.8-0.2-3.6-0.5-5.3-0.7c-10.2-1.3-20.4-2.4-30.6-3.4l-5.1-0.4
		c-10.4-0.9-20.8-1.6-31.2-2.1c-1.2-0.1-2.4-0.1-3.6-0.1c-22.1-0.9-44.1-0.9-66.2,0c-1,0-2.1,0.1-3.1,0.1
		c-10.6,0.5-21.2,1.2-31.8,2.1c-1.5,0.1-3,0.2-4.4,0.4c-10.4,0.9-20.8,2.1-31.2,3.5l-4.7,0.6c-10.4,1.4-20.8,3-31.2,4.9
		c-0.5,0.1-0.9,0.1-1.4,0.2C102.9,134.2,107.9,127.6,113.7,121.7L113.7,121.7z M417.9,382.2c-154.8-40.1-201.1-40.1-355.8,0
		l-3.2-14.9l2.1-0.5c158.9-41.3,199.1-41.3,358,0l2.1,0.5L417.9,382.2z M424.4,351.7l-1.4-0.4c-160.8-41.8-205.3-41.8-366.1,0
		l-1.4,0.4l-38-177.5l61.9-12.8l2.3-0.5c1.6-0.3,3.3-0.7,5.2-1c21.6-4.3,43.2-7.6,64.9-10c80.5-9.1,161.9-5.7,241.4,10.1
		c1.6,0.3,3.3,0.6,4.9,0.9l64.3,13.3L424.4,351.7z"/>
	<path class="st2" d="M232,120h16c4.4,0,8-3.6,8-8s-3.6-8-8-8h-16c-4.4,0-8,3.6-8,8S227.6,120,232,120z"/>
	<path class="st2" d="M272,120h16c4.4,0,8-3.6,8-8s-3.6-8-8-8h-16c-4.4,0-8,3.6-8,8S267.6,120,272,120z"/>
	<path class="st2" d="M192,120h16c4.4,0,8-3.6,8-8s-3.6-8-8-8h-16c-4.4,0-8,3.6-8,8S187.6,120,192,120z"/>
	<path class="st2" d="M264,168h-48v40h-40v48h40v40h48v-40h40v-48h-40V168z M288,224v16h-40v40h-16v-40h-40v-16h40v-40h16v40
		L288,224L288,224z"/>
</g>
</svg>
