<?xml version="1.0" encoding="utf-8"?>
<!-- Generator: Adobe Illustrator 23.0.3, SVG Export Plug-In . SVG Version: 6.00 Build 0)  -->
<svg version="1.1" id="Capa_1" xmlns="http://www.w3.org/2000/svg" xmlns:xlink="http://www.w3.org/1999/xlink" x="0px" y="0px"
	 viewBox="0 0 512 512" style="enable-background:new 0 0 512 512;" xml:space="preserve">
<style type="text/css">
	.st0{fill:#FFC13B;}
	.st1{fill:#FFFFFF;}
	.st2{fill:#F3EFF0;}
</style>
<g>
	<g>
		<path class="st0" d="M367.3,340.2c-53.9-7.7-36.6-5.2-40.2-5.7c-3.1-0.4-6-1.2-8.8-2.4H193.6c-2.8,1.2-5.7,2-8.8,2.4
			c-3.5,0.5,13.8-2-40.2,5.7c-39.4,5.6-68.7,39.4-68.7,79.2V502h360v-82.6C436,379.6,406.7,345.8,367.3,340.2z"/>
		<path class="st1" d="M256,10c-66.3,0-120,53.7-120,120l1.7,40h236.5l1.7-40C376,63.7,322.3,10,256,10z"/>
		<path class="st1" d="M374.2,171.3l0.1-1.3c-21.1-0.1-38.3-17.3-38.3-38.4V130h-35.3c-27.4,0-52.5-15.5-64.7-40
			c0,22.1-17.9,40-40,40h-20v1.6c0,21.2-17.1,38.3-38.3,38.4l0.1,1.3c-12.6,3.6-21.8,15-21.8,28.7c0,16.6,13.4,30,30,30h10.6
			c14.3,28.8,35,54.5,59.4,68.5l0,0c0,14.9-9.1,28-22.4,33.5l62.4,78l62.4-78c-13.3-5.5-22.4-18.5-22.4-33.5l0,0
			c24.4-14.1,45.1-39.8,59.4-68.6H366c16.6,0,30-13.4,30-30C396,186.3,386.8,174.9,374.2,171.3L374.2,171.3z"/>
		<circle class="st2" cx="356" cy="442" r="20"/>
	</g>
	<g>
		<circle cx="296" cy="180" r="10"/>
		<circle cx="216" cy="180" r="10"/>
		<path d="M256,280c16.9,0,32.1-10.7,37.7-26.7c1.8-5.2-0.9-10.9-6.1-12.8c-5.2-1.8-10.9,0.9-12.8,6.1c-2.8,8-10.4,13.3-18.9,13.3
			s-16-5.4-18.9-13.3c-1.8-5.2-7.6-7.9-12.8-6.1c-5.2,1.8-7.9,7.6-6.1,12.8C223.9,269.3,239.1,280,256,280z"/>
		<circle cx="356" cy="502" r="10"/>
		<path d="M401,492c-5.5,0-10,4.5-10,10s4.5,10,10,10h35c5.5,0,10-4.5,10-10v-82.6c0-44.8-33-82.8-77.3-89.1l-40.2-5.7
			c-10.9-1.6-19.8-9.8-22-20.8c21.1-13.9,40.3-36.2,54.9-63.8h4.5c22.1,0,40-17.9,40-40c0-14.9-8.5-28.5-21.5-35.3
			c0,0,1.5-34.5,1.5-34.7C386,58.3,327.7,0,256,0S126,58.3,126,130c0,0.1,0,0.3,0,0.4l1.5,34.2c-13,6.8-21.5,20.4-21.5,35.3
			c0,22.1,17.9,40,40,40h4.5c14.7,27.6,33.9,49.9,54.9,63.8c-2.2,10.9-11.1,19.2-22,20.8l-40.2,5.7C98.9,336.6,66,374.6,66,419.4
			V502c0,5.5,4.5,10,10,10h235c5.5,0,10-4.5,10-10s-4.5-10-10-10h-45v-78.5l55.9-69.9c1.3,0.3,2.5,0.5,3.8,0.7l20.3,2.9v66.5
			c-11.6,4.1-20,15.2-20,28.3c0,16.5,13.5,30,30,30s30-13.5,30-30c0-13-8.4-24.2-20-28.3v-63.6c34.2,4.9,60,34.7,60,69.3V492
			L401,492z M256,394l-47.4-59.3c7-5.5,12.1-12.9,15-21.3c10.7,4.4,21.5,6.6,32.4,6.6c10.9,0,21.8-2.2,32.4-6.6
			c2.8,8.4,8,15.8,15,21.3L256,394z M256,20c60.6,0,109.9,49.2,110,109.8l-1.2,28.5c-10.9-4-18.8-14.5-18.8-26.7V130
			c0-5.5-4.5-10-10-10h-35.3c-23.8,0-45.2-13.2-55.8-34.5c-2.1-4.1-6.7-6.3-11.2-5.3c-4.5,1.1-7.7,5.1-7.7,9.7c0,16.5-13.5,30-30,30
			h-20c-5.5,0-10,4.5-10,10v1.6c0,12.3-7.8,22.8-18.8,26.7l-1.2-28.5C146.1,69.2,195.4,20,256,20L256,20z M165.6,225.6
			c-1.7-3.4-5.2-5.6-9-5.6H146c-11,0-20-9-20-20c0-15.9,15.2-19,17.2-20.3c21.2-2.5,38.3-18.8,42-39.7H196
			c19.1,0,35.7-10.7,44.1-26.5c15.3,16.7,37.1,26.5,60.6,26.5h26c3.7,20.8,20.8,37.1,42,39.7c2,1.3,17.3,4.5,17.3,20.3
			c0,11-9,20-20,20h-10.6c-3.8,0-7.3,2.2-9,5.6C328.8,261.1,295.7,300,256,300C216.5,300,183.5,261.6,165.6,225.6L165.6,225.6z
			 M86,492v-72.6c0-34.6,25.8-64.3,60-69.3V381c-22.8,4.6-40,24.8-40,49v32c0,5.5,4.5,10,10,10h20c5.5,0,10-4.5,10-10s-4.5-10-10-10
			h-10v-22c0-16.5,13.5-30,30-30s30,13.5,30,30v22h-10c-5.5,0-10,4.5-10,10s4.5,10,10,10h20c5.5,0,10-4.5,10-10v-32
			c0-24.1-17.2-44.3-40-49v-33.8l20.3-2.9c1.3-0.2,2.6-0.4,3.8-0.7l55.9,69.9V492L86,492z M356,452c-5.5,0-10-4.5-10-10
			s4.5-10,10-10s10,4.5,10,10S361.5,452,356,452z"/>
	</g>
</g>
</svg>
