<?xml version="1.0" encoding="utf-8"?>
<!-- Generator: Adobe Illustrator 23.0.3, SVG Export Plug-In . SVG Version: 6.00 Build 0)  -->
<svg version="1.1" id="filled_outline" xmlns="http://www.w3.org/2000/svg" xmlns:xlink="http://www.w3.org/1999/xlink" x="0px"
	 y="0px" viewBox="0 0 512 512" style="enable-background:new 0 0 512 512;" xml:space="preserve">
<style type="text/css">
	.st0{fill:#FFFFFF;}
	.st1{fill:#E5E5E5;}
	.st2{fill:#FFC13B;}
	.st3{fill:#E88080;}
	.st4{fill:#066991;}
	.st5{fill:#B7B7B7;}
</style>
<path class="st0" d="M120,496V302.8c0-25.9,21-46.8,46.8-46.8h0h178.3c25.9,0,46.8,21,46.8,46.8l0,0V496H120z"/>
<path class="st1" d="M440,352H304v-16h128v-88h16v96C448,348.4,444.4,352,440,352z"/>
<circle class="st2" cx="440" cy="232" r="24"/>
<path class="st1" d="M376,408h72v16h-72V408z"/>
<circle class="st2" cx="464" cy="416" r="24"/>
<path class="st0" d="M168,112h176c13.3,0,24,10.7,24,24l0,0c0,13.3-10.7,24-24,24H168c-13.3,0-24-10.7-24-24l0,0
	C144,122.7,154.7,112,168,112z"/>
<path class="st0" d="M280,216v40c0,13.3-10.7,24-24,24c-13.3,0-24-10.7-24-24v-40H280z"/>
<path class="st0" d="M176,96v71.9c0,35.4,28.7,64.1,64.1,64.1h31.8c35.4,0,64.1-28.7,64.1-64.1V96l-64-40h-48L176,96z"/>
<path class="st0" d="M200,167.9V96l48-40h-24l-48,40v71.9c0,35.4,28.7,64.1,64.1,64.1h24C228.7,232,200,203.3,200,167.9z"/>
<path class="st2" d="M188.6,112c17.5,0,34.4-7,46.8-19.4c3.1-3.1,5.8-6.5,8.3-10.1L256,64c9.6,28.7,36.4,48,66.6,48
	c13.7,0,26.8-5.4,36.5-15.1L368,88h-0.1c-16.2,0-30.8-9.8-37-24.8c-4.9-11.5-13-21.3-23.3-28.3C292.2,24.7,272.5,23.6,256,32
	c-16.5-8.4-36.2-7.3-51.6,2.9C186.6,46.8,176,66.8,176,88.1V112L188.6,112z"/>
<path class="st2" d="M350.8,84.1c-4,1-8.1,1.5-12.2,1.5c-30.2,0-57-19.3-66.6-48l-12.4,18.6c-2.4,3.6-5.2,7-8.3,10.1
	c-12.4,12.4-29.2,19.4-46.8,19.4H192V61.7c0-6.5,1-12.9,2.9-19c-12.1,12-18.9,28.4-18.9,45.4V112h12.6c17.5,0,34.4-7,46.8-19.4
	c3.1-3.1,5.8-6.5,8.3-10.1L256,64c9.6,28.7,36.4,48,66.6,48c13.7,0,26.8-5.4,36.5-15.1L368,88h-0.1C362,88,356.2,86.7,350.8,84.1
	L350.8,84.1z"/>
<path class="st1" d="M208,168h96c0.7,0,1.3-0.1,1.9-0.2l30.1-7.5v-16.5l-33,8.2h-94l-33-8.2v16.5l30.1,7.5
	C206.7,167.9,207.3,168,208,168z"/>
<path class="st0" d="M208,160v63.4c9.8,5.7,20.8,8.6,32.1,8.6h31.8c11.3,0,22.4-3,32.1-8.6V160H208z"/>
<path class="st0" d="M295.9,208h-32.1c-17.7-0.2-31.8-14.7-31.8-32.3V160h-24v63.4c9.8,5.7,20.8,8.6,32.1,8.6h31.8
	c11.3,0,22.4-3,32.1-8.6v-15.9C301.3,207.8,298.6,208,295.9,208z"/>
<path class="st3" d="M216,120h16v16h-16V120z"/>
<path class="st1" d="M194.3,365.7l-112-112c-1.5-1.5-2.3-3.5-2.3-5.7v-56h16v52.7l109.7,109.7L194.3,365.7z"/>
<path class="st3" d="M280,120h16v16h-16V120z"/>
<path class="st2" d="M24,40h128v160H24V40z"/>
<path class="st2" d="M352,376h40v72h-40V376z"/>
<path class="st3" d="M108.4,126.7l-8.9-13.3L120,99.7V56h16v48c0,2.7-1.3,5.2-3.6,6.7L108.4,126.7z"/>
<path class="st0" d="M104,80.5c0-4.7-3.8-8.5-8.5-8.5C73.7,72,56,89.7,56,111.5v58.8c0,4.7,3.8,8.5,8.5,8.5c1.3,0,2.6-0.3,3.8-0.9
	l16.9-8.4c11.6-5.8,18.9-17.6,18.9-30.5V80.5z"/>
<g>
	<path class="st4" d="M400,72h16v16h-16V72z"/>
	<path class="st4" d="M432,72h56v16h-56V72z"/>
	<path class="st4" d="M400,104h80v16h-80V104z"/>
	<path class="st4" d="M400,136h56v16h-56V136z"/>
	<path class="st4" d="M472,136h16v16h-16V136z"/>
</g>
<path class="st5" d="M200,166.2l-24-6v-16.5l24,6V166.2z"/>
<path class="st2" d="M261,324c6.6-6.6,17.4-6.6,24,0l4,4l4-4c6.6-6.6,17.4-6.6,24,0c6.6,6.6,6.6,17.4,0,24l-28,28l-28-28
	C254.3,341.4,254.3,330.6,261,324C261,324,261,324,261,324z"/>
<path class="st1" d="M176,448h64v16h-64V448z"/>
<path class="st2" d="M40.1,376h127.7c8.9,0,16.1,7.2,16.1,16.1v79.7c0,8.9-7.2,16.1-16.1,16.1H40.1c-8.9,0-16.1-7.2-16.1-16.1v-79.7
	C24,383.2,31.2,376,40.1,376z"/>
<path class="st0" d="M152,480v-47.6c0-17.9-14.5-32.4-32.4-32.4c0,0,0,0,0,0H98.1c-5.6,0-10.1-4.5-10.1-10.1c0,0,0,0,0,0V384H56v32
	c0,13.3,10.7,24,24,24s24,10.7,24,24v16H152z"/>
<path class="st0" d="M120,458.2V456c-0.1-13.3-10.8-24-24.1-24C82.7,432,72,421.2,72,408v-24H56v32c0.1,13.3,10.8,24,24.1,24
	c13.2,0,23.9,10.8,23.9,24v16h48v-8h-18.2C126.2,472,120,465.8,120,458.2z"/>
<path d="M464,384c-14.6,0-27.3,9.9-31,24h-33v-56h40c4.4,0,8-3.6,8-8v-81c17.1-4.4,27.4-21.9,23-39s-21.9-27.4-39-23
	c-17.1,4.4-27.4,21.9-23,39c2.9,11.3,11.7,20.1,23,23v73h-32v-33.2c0-30.3-24.6-54.8-54.8-54.8H288v-9.8c32.7-7.5,55.9-36.6,56-70.2
	c17.7,0,32-14.3,32-32c0-11.9-6.6-22.8-17.1-28.3c2.1-1.6,4.1-3.3,5.9-5.2l8.9-8.9c3.1-3.1,3.1-8.2,0-11.3c-1.5-1.5-3.5-2.3-5.7-2.3
	h-0.2c-12.9-0.1-24.5-8-29.5-20c-5.5-12.9-14.6-24-26.2-31.8c-16.6-11-37.7-12.9-56.1-5.1c-18.3-7.9-39.4-6-56.1,5.1
	C180,41.6,168,64.1,168,88.1V104c-17.7,0-32,14.3-32,32s14.3,32,32,32c0.1,33.6,23.3,62.6,56,70.2v9.8h-57.2
	c-17.7,0-34.3,8.6-44.6,22.9L96,244.7V208h56c4.4,0,8-3.6,8-8v-16h-16v8H32V48h112v40h16V40c0-4.4-3.6-8-8-8H24c-4.4,0-8,3.6-8,8
	v160c0,4.4,3.6,8,8,8h56v40c0,2.1,0.8,4.2,2.3,5.7l32.3,32.3c-1.8,5.4-2.7,11.1-2.7,16.9V368H40.1C26.8,368,16,378.8,16,392.1v79.7
	c0,13.3,10.8,24.1,24.1,24.1h127.7c13.3,0,24.1-10.8,24.1-24.1V464h48v-16h-48v-55.9c0-13.3-10.7-24-24-24.1v-28.7l26.3,26.3
	l11.3-11.3L168,316.7V312h-4.7l-29.5-29.5c7.1-11.5,19.6-18.5,33-18.5H225c4.4,17.1,21.9,27.4,39,23c11.3-2.9,20.1-11.7,23-23h58.2
	c21.4,0,38.8,17.4,38.8,38.8V336h-24v-24h-16v24h-14.1c0-13.8-11.2-25-24.9-25c-5.9,0-11.5,2-16,5.8c-10.6-8.8-26.3-7.4-35.2,3.2
	c-8.3,9.9-7.6,24.5,1.5,33.7l28,28c3.1,3.1,8.2,3.1,11.3,0c0,0,0,0,0,0l28-28c0.5-0.5,1-1.1,1.5-1.7H344v136h16v-32h24v40h16v-72h33
	c4.4,17.1,21.9,27.4,39,23c17.1-4.4,27.4-21.9,23-39C491.3,393.9,478.6,384,464,384L464,384z M424,232c0-8.8,7.2-16,16-16
	s16,7.2,16,16s-7.2,16-16,16C431.2,248,424,240.8,424,232z M40.1,480c-4.5,0-8.1-3.6-8.1-8.1v-79.7c0-4.5,3.6-8.1,8.1-8.1H48v32
	c0,17.7,14.3,32,32,32c8.8,0,16,7.2,16,16v16H40.1z M112,480v-16c0-17.7-14.3-32-32-32c-8.8,0-16-7.2-16-16v-32h16v5.9
	c0,10,8.1,18.1,18.1,18.1h21.5c13.5,0,24.4,10.9,24.4,24.4V480H112z M176,392.1v79.7c0,4.5-3.6,8.1-8.1,8.1H160v-47.6
	c0-22.3-18.1-40.4-40.4-40.4H98.1c-1.2,0-2.1-0.9-2.1-2.1V384h71.9C172.4,384,176,387.6,176,392.1z M152,323.3V368h-24v-65.2
	c0-1.1,0.1-2.3,0.2-3.4L152,323.3z M216,168h80v50.5c-7.5,3.6-15.8,5.5-24.1,5.5h-31.8c-8.3,0-16.6-1.9-24.1-5.5V168z M312,207.1
	v-40.8l16-4v5.6C328,182.5,322.3,196.6,312,207.1L312,207.1z M344,152v-32c8.8,0,16,7.2,16,16S352.8,152,344,152z M184,88.1
	c0-18.7,9.3-36.2,24.8-46.6c13-8.6,29.7-9.5,43.6-2.4c2.3,1.1,4.9,1.1,7.2,0c13.9-7.1,30.5-6.2,43.6,2.4
	c9.1,6.1,16.2,14.7,20.4,24.8c5.2,12.4,15.3,22.1,27.9,26.8c-8,7.1-18.2,10.9-28.9,10.9c-26.8,0-50.6-17.1-59-42.5
	c-1-2.9-3.5-5-6.5-5.4c-0.4,0-0.7-0.1-1.1-0.1c-2.7,0-5.2,1.3-6.7,3.6L237,78.1c-2.1,3.2-4.6,6.2-7.3,8.9
	c-10.9,10.9-25.7,17.1-41.1,17H184L184,88.1z M188.6,120c19.7,0.1,38.5-7.8,52.4-21.7c3.5-3.5,6.6-7.2,9.3-11.3l4.3-6.5
	c13.9,24.4,39.9,39.5,68,39.5c1.8,0,3.6-0.1,5.4-0.2v26l-25,6.2h-94l-25-6.2V120H188.6z M152,136c0-8.8,7.2-16,16-16v32
	C159.2,152,152,144.8,152,136z M184,167.9v-5.6l16,4v40.8C189.7,196.6,184,182.5,184,167.9L184,167.9z M256,272c-8.8,0-16-7.2-16-16
	v-16h0.1h31.8h0.1v16C272,264.8,264.8,272,256,272z M311.3,342.3L289,364.7l-22.3-22.3c-3.5-3.5-3.5-9.2,0-12.7
	c3.5-3.5,9.2-3.5,12.7,0l4,4c3.1,3.1,8.2,3.1,11.3,0c0,0,0,0,0,0l4-4c3.5-3.5,9.2-3.5,12.7,0S314.8,338.8,311.3,342.3L311.3,342.3z
	 M384,352v16h-24v-16H384z M384,440h-24v-56h24v24h-8v16h8V440z M464,432c-8.8,0-16-7.2-16-16s7.2-16,16-16s16,7.2,16,16
	C480,424.8,472.8,432,464,432z"/>
<path d="M216,120h16v16h-16V120z"/>
<path d="M280,120h16v16h-16V120z"/>
<path d="M136,104V56h-16v43.7l-20.4,13.6l8.9,13.3l24-16C134.7,109.2,136,106.7,136,104z"/>
<path d="M112,88v-7.5c0-9.1-7.4-16.5-16.5-16.5C69.3,64,48,85.3,48,111.5v58.8c0,9.1,7.3,16.5,16.4,16.5c2.6,0,5.1-0.6,7.4-1.8
	l16.9-8.4c14.3-7.1,23.3-21.7,23.3-37.7V136H96v2.9c0,9.9-5.6,19-14.4,23.4l-16.9,8.4c-0.2,0.1-0.5,0-0.7-0.2c0-0.1-0.1-0.1-0.1-0.2
	v-58.8C64,94.1,78.1,80,95.5,80c0.3,0,0.5,0.2,0.5,0.5V88L112,88z"/>
<path d="M400,72h16v16h-16V72z"/>
<path d="M432,72h56v16h-56V72z"/>
<path d="M400,104h80v16h-80V104z"/>
<path d="M400,136h56v16h-56V136z"/>
<path d="M472,136h16v16h-16V136z"/>
</svg>
