<?xml version="1.0" encoding="utf-8"?>
<!-- Generator: Adobe Illustrator 23.0.3, SVG Export Plug-In . SVG Version: 6.00 Build 0)  -->
<svg version="1.1" id="圖層_1" xmlns="http://www.w3.org/2000/svg" xmlns:xlink="http://www.w3.org/1999/xlink" x="0px" y="0px"
	 viewBox="0 0 512 512" style="enable-background:new 0 0 512 512;" xml:space="preserve">
<style type="text/css">
	.st0{fill:#FFC13B;}
	.st1{fill:#FFFFFF;}
</style>
<path class="st0" d="M29.2,413.5c-29-29-29-75.9,0-104.9l88.4-88.4l104.9,104.9l-88.4,88.4C105.1,442.4,58.1,442.4,29.2,413.5z"/>
<path class="st0" d="M482.8,413.5c29-29,29-75.9,0-104.9l-88.4-88.4L289.6,325.1l88.4,88.4C406.9,442.4,453.9,442.4,482.8,413.5z"/>
<path class="st1" d="M266.1,204.9h-22.3c-58.6,0-106.1-47.5-106.1-106.1V76.5H160c58.6,0,106.1,47.5,106.1,106.1V204.9z"/>
<path class="st1" d="M266.1,204.9h18.8c49.4,0,89.4-40,89.4-89.4V96.7h-18.8c-49.4,0-89.4,40-89.4,89.4V204.9z"/>
<path class="st0" d="M59.2,413.5c-29-29-29-75.9,0-104.9l73.4-73.4l-15-15l-88.4,88.4c-29,29-29,75.9,0,104.9
	c18.3,18.3,43.8,25,67.4,20.2C82.9,430.8,69.8,424.1,59.2,413.5z"/>
<path class="st0" d="M408,413.5l-88.4-88.4l89.9-89.9l-15-15L289.6,325.1l88.4,88.4c18.3,18.3,43.8,25,67.4,20.2
	C431.7,430.8,418.6,424.1,408,413.5z"/>
<path class="st1" d="M167.7,98.8v-22c-2.6-0.2-5.1-0.3-7.7-0.3h-22.3v22.3c0,58.6,47.5,106.1,106.1,106.1h22.3v-0.3
	C211.1,200.6,167.7,154.8,167.7,98.8z"/>
<path class="st1" d="M296.1,186.1c0-45.6,34.1-83.2,78.2-88.7v-0.7h-18.8c-49.4,0-89.4,40-89.4,89.4v18.8h18.8
	c3.8,0,7.6-0.2,11.2-0.7V186.1z"/>
<path d="M87.4,239.8L98,250.4l19.6-19.6l94.3,94.3l-83.1,83.1c-12.6,12.6-29.3,19.5-47.1,19.5s-34.5-6.9-47.1-19.5
	C21.9,395.6,15,378.8,15,361c0-17.8,6.9-34.5,19.5-47.1l49.4-49.4l-10.6-10.6l-49.4,49.4C-8,335.1-8,387,23.9,418.8
	c15.4,15.4,35.9,23.9,57.7,23.9c21.8,0,42.3-8.5,57.7-23.9l93.7-93.7L117.6,209.6L87.4,239.8z"/>
<path d="M488.1,303.3l-93.7-93.7l-42.3,42.3l10.6,10.6l31.7-31.7l83.1,83.1c12.6,12.6,19.5,29.3,19.5,47.1
	c0,17.8-6.9,34.5-19.5,47.1s-29.3,19.5-47.1,19.5s-34.5-6.9-47.1-19.5l-83.1-83.1l48.4-48.4L338,266l-59,59l93.7,93.7
	c15.4,15.4,35.9,23.9,57.7,23.9c21.8,0,42.3-8.5,57.7-23.9C520,387,520,335.1,488.1,303.3z"/>
<path d="M381.8,115.5V89.2h-26.3c-39,0-72.7,23.2-88.1,56.5C252.1,101.1,209.7,69,160,69h-29.8v29.8c0,62.7,51,113.6,113.6,113.6
	h14.8v96h15v-96h11.3C338.3,212.4,381.8,168.9,381.8,115.5z M355.5,104.2h11.3v11.3c0,45.2-36.8,81.9-81.9,81.9h-0.7l34.3-34.2
	l-10.6-10.6l-34.2,34.2v-0.7C273.6,141,310.4,104.2,355.5,104.2z M145.2,98.8V84H160c54.4,0,98.6,44.2,98.6,98.6v4.2l-34.3-34.2
	l-10.6,10.6l34.2,34.3h-4.2C189.5,197.4,145.2,153.2,145.2,98.8z"/>
<g>
	<path class="st1" d="M81.6,417.7c-15.1,0-29.4-5.9-40.1-16.6l10.6-10.6c7.9,7.9,18.3,12.2,29.5,12.2s21.6-4.3,29.4-12.2l35.3-35.3
		l10.6,10.6l-35.3,35.3C111,411.8,96.8,417.7,81.6,417.7z M164.1,358.7l-10.6-10.6l10.6-10.6l10.6,10.6L164.1,358.7z M181.8,341
		l-10.6-10.6l10.6-10.6l10.6,10.6L181.8,341z"/>
	<path class="st1" d="M430.4,417.7c-15.1,0-29.4-5.9-40.1-16.6l10.6-10.6c7.9,7.9,18.3,12.2,29.4,12.2s21.6-4.3,29.5-12.2
		c5.5-5.5,9.3-12.3,11.1-19.9l14.6,3.4c-2.4,10.2-7.6,19.6-15.1,27C459.7,411.8,445.5,417.7,430.4,417.7z M487,362.7l-15-0.4
		c0-0.4,0-0.8,0-1.2c0-3.9-0.5-7.7-1.6-11.4l14.4-4.1c1.4,5,2.1,10.2,2.1,15.5C487,361.6,487,362.1,487,362.7z M467.3,341.8
		c-1.9-3.8-4.5-7.2-7.5-10.2l10.6-10.6c4.1,4.1,7.5,8.8,10.2,13.9L467.3,341.8z"/>
	<path class="st1" d="M220.7,143.7c-4.1-6.4-9.3-12.1-15.2-17l9.5-11.6c7.2,5.8,13.3,12.7,18.3,20.5L220.7,143.7z M198.1,121.4
		c-3.8-2.4-7.9-4.4-12.1-6.1l5.4-14c5.1,2,10,4.4,14.7,7.3L198.1,121.4z M177.3,112.6c-4.4-1.1-8.9-1.8-13.4-2l0.8-15
		c5.5,0.3,10.9,1.1,16.2,2.4L177.3,112.6z"/>
	<path class="st1" d="M331,168.7l-9.8-11.3c10.3-8.9,16.9-21.2,18.7-34.6l14.9,2C352.4,141.7,344,157.4,331,168.7z"/>
</g>
</svg>
