<?xml version="1.0" encoding="utf-8"?>
<!-- Generator: Adobe Illustrator 23.0.3, SVG Export Plug-In . SVG Version: 6.00 Build 0)  -->
<svg version="1.1" id="Capa_1" xmlns="http://www.w3.org/2000/svg" xmlns:xlink="http://www.w3.org/1999/xlink" x="0px" y="0px"
	 viewBox="0 0 512 512" style="enable-background:new 0 0 512 512;" xml:space="preserve">
<style type="text/css">
	.st0{fill:#FFFFFF;}
	.st1{fill:#FFC13B;}
</style>
<path class="st0" d="M448,85.2c0,10.5,0.1,32.1,0.1,32.1H245.3V74.7h192.1c5.7-0.1,10.4,4.4,10.6,10.1C448,84.9,448,85.1,448,85.2z"
	/>
<g>
	<path class="st1" d="M480,117.3c11.8,0,21.3,9.6,21.3,21.3V480c0,11.8-9.6,21.3-21.3,21.3H32c-11.8,0-21.3-9.6-21.3-21.3V32
		c0-11.8,9.6-21.3,21.3-21.3h192c11.8,0,21.3,9.6,21.3,21.3v85.3H480z"/>
	<path class="st1" d="M330.7,298.7V320c0,5.9-4.8,10.7-10.7,10.7h-42.7v42.7c0,5.9-4.8,10.7-10.7,10.7h-21.3
		c-5.9,0-10.7-4.8-10.7-10.7v-42.7H192c-5.9,0-10.7-4.8-10.7-10.7v-21.3c0-5.9,4.8-10.7,10.7-10.7h42.7v-42.7
		c0-5.9,4.8-10.7,10.7-10.7h21.3c5.9,0,10.7,4.8,10.7,10.7V288H320C325.9,288,330.7,292.8,330.7,298.7z"/>
</g>
<path class="st0" d="M256,170.7c76.6,0,138.7,62.1,138.7,138.7S332.6,448,256,448s-138.7-62.1-138.7-138.7S179.4,170.7,256,170.7z
	 M330.7,320v-21.3c0-5.9-4.8-10.7-10.7-10.7h-42.7v-42.7c0-5.9-4.8-10.7-10.7-10.7h-21.3c-5.9,0-10.7,4.8-10.7,10.7V288H192
	c-5.9,0-10.7,4.8-10.7,10.7V320c0,5.9,4.8,10.7,10.7,10.7h42.7v42.7c0,5.9,4.8,10.7,10.7,10.7h21.3c5.9,0,10.7-4.8,10.7-10.7v-42.7
	H320C325.9,330.7,330.7,325.9,330.7,320z"/>
<g>
	<path d="M480,106.7h-21.3c-0.1-7-0.1-15.8-0.1-21.4c0.2-11.5-8.9-21-20.3-21.2c-0.3,0-0.6,0-0.9,0H256V32c0-17.7-14.3-32-32-32H32
		C14.3,0,0,14.3,0,32v448c0,17.7,14.3,32,32,32h448c17.7,0,32-14.3,32-32V138.7C512,121,497.7,106.7,480,106.7z M437.3,85.5
		c0,5.6,0,14.3,0.1,21.1H256V85.3L437.3,85.5z M490.7,480c0,5.9-4.8,10.7-10.7,10.7H32c-5.9,0-10.7-4.8-10.7-10.7V32
		c0-5.9,4.8-10.7,10.7-10.7h192c5.9,0,10.7,4.8,10.7,10.7v74.7H96V128h384c5.9,0,10.7,4.8,10.7,10.7V480z"/>
	<path d="M256,160c-82.5,0-149.3,66.9-149.3,149.3S173.5,458.7,256,458.7s149.3-66.9,149.3-149.3C405.2,226.9,338.4,160.1,256,160z
		 M256,437.3c-70.7,0-128-57.3-128-128s57.3-128,128-128s128,57.3,128,128C383.9,380,326.7,437.3,256,437.3z"/>
	<path d="M320,277.3h-32v-32c0-11.8-9.6-21.3-21.3-21.3h-21.3c-11.8,0-21.3,9.6-21.3,21.3v32h-32c-11.8,0-21.3,9.6-21.3,21.3V320
		c0,11.8,9.6,21.3,21.3,21.3h32v32c0,11.8,9.6,21.3,21.3,21.3h21.3c11.8,0,21.3-9.6,21.3-21.3v-32h32c11.8,0,21.3-9.6,21.3-21.3
		v-21.3C341.3,286.9,331.8,277.3,320,277.3z M320,320h-42.7c-5.9,0-10.7,4.8-10.7,10.7v42.7h-21.3v-42.7c0-5.9-4.8-10.7-10.7-10.7
		H192v-21.3h42.7c5.9,0,10.7-4.8,10.7-10.7v-42.7h21.3V288c0,5.9,4.8,10.7,10.7,10.7H320V320z"/>
	<path d="M458.7,149.3H416v21.3h32v32h21.3V160C469.3,154.1,464.6,149.3,458.7,149.3z"/>
	<path d="M64,416H42.7v42.7c0,5.9,4.8,10.7,10.7,10.7H96V448H64V416z"/>
</g>
</svg>
