<?xml version="1.0" encoding="utf-8"?>
<!-- Generator: Adobe Illustrator 23.0.3, SVG Export Plug-In . SVG Version: 6.00 Build 0)  -->
<svg version="1.1" id="Capa_1" xmlns="http://www.w3.org/2000/svg" xmlns:xlink="http://www.w3.org/1999/xlink" x="0px" y="0px"
	 viewBox="0 0 512 512" style="enable-background:new 0 0 512 512;" xml:space="preserve">
<style type="text/css">
	.st0{fill:#FFC13B;}
	.st1{fill:#FFFFFF;}
</style>
<g>
	<g>
		<path class="st0" d="M372.2,10c-57,0-103.8,52.2-116.2,78c-12.4-25.8-59.2-78-116.2-78C80.6,10,36,71.2,36,130
			c0,64.9,34.8,123.7,122,192.2h0l170.9,18.9h0C434.6,264.4,476,200.8,476,130C476,71.2,431.4,10,372.2,10z"/>
		<path class="st1" d="M196,370h120v132H196V370z"/>
		<path class="st1" d="M316,170c-11,0-20,8.9-20,20v-20c0-11.1-9-20-20-20s-20,8.9-20,20v-20c0-11.1-8.9-20-20-20s-20,8.9-20,20v20
			c0-11.1-8.9-20-20-20s-20,8.9-20,20v80c-11.1,0-20,9-20,20v35.3c0,27.3,15.4,52.4,40,64.7h120c2.5-6.3,20-31.9,20-72.2
			c0-12.1,0-95.7,0-107.8C336,178.9,327,170,316,170z"/>
	</g>
	<g>
		<circle cx="438" cy="240" r="10"/>
		<path d="M456.4,210.1c5,2.3,11,0.1,13.2-5c11-24.2,16.4-48.8,16.4-75.2C486,66,437.4,0,372.2,0C319,0,276,40.2,256,68.7
			C236,40.2,193,0,139.8,0C74.7,0,26,65.9,26,130c0,69.3,38,130.5,123.2,198c5.8,20.1,18.9,37.1,36.8,47.9V502c0,5.5,4.5,10,10,10
			h120c5.5,0,10-4.5,10-10V372.4c3.2-6.6,7-13.1,11.3-24.9c31.8-23.3,57.4-45.1,78.3-66.6c3.8-4,3.8-10.3-0.2-14.1
			c-4-3.8-10.3-3.8-14.1,0.2c-15.7,16.2-34.3,32.6-56.5,49.8c0.8-6.3,1.2-12.6,1.2-19c0-23.2,0-83.2,0-107.8c0-16.5-13.5-30-30-30
			c-3.9,0-7.6,0.8-11.1,2.1c-3.5-12.7-15.1-22.1-28.9-22.1c-3.9,0-7.6,0.8-11.1,2.1c-3.5-12.7-15.1-22.1-28.9-22.1
			s-25.5,9.4-28.9,22.1c-3.4-1.4-7.2-2.1-11.1-2.1c-16.5,0-30,13.5-30,30v71.7c-11.6,4.1-20,15.2-20,28.3v29.6
			C77,241.3,46,188.4,46,130c0-52,38.5-110,93.8-110c46.1,0,92.5,41.7,107.2,72.3c1.7,3.5,5.2,5.7,9,5.7s7.3-2.2,9-5.7
			C279.5,62.1,325.6,20,372.2,20c55.3,0,93.8,58,93.8,110c0,23.4-4.8,45.3-14.6,66.9C449.1,201.9,451.3,207.9,456.4,210.1
			L456.4,210.1z M306,492H206V380h100V492z M226,150c0-5.5,4.5-10,10-10s10,4.5,10,10v90h-20V150z M196,160c5.5,0,10,4.5,10,10v70
			h-20v-70C186,164.5,190.5,160,196,160z M166,270c0-5.5,4.5-10,10-10h68.3c-4.1,11.7-15.2,20-28.3,20h-20c-5.5,0-10,4.5-10,10
			s4.5,10,10,10c16.5,0,30,13.5,30,30c0,5.5,4.5,10,10,10s10-4.5,10-10c0-12.7-4.8-24.3-12.6-33.1c19-7.1,32.6-25.4,32.6-46.9v-80
			c0-5.5,4.5-10,10-10s10,4.5,10,10v80c0,5.5,4.5,10,10,10s10-4.5,10-10v-60c0-5.5,4.5-10,10-10s10,4.5,10,10v107.8
			c0,29.9-9.5,48.1-16.2,62.2H198.5C178,348.8,166,327.6,166,305.3L166,270z"/>
	</g>
</g>
</svg>
