<?xml version="1.0" encoding="utf-8"?>
<!-- Generator: Adobe Illustrator 23.0.3, SVG Export Plug-In . SVG Version: 6.00 Build 0)  -->
<svg version="1.1" id="圖層_1" xmlns="http://www.w3.org/2000/svg" xmlns:xlink="http://www.w3.org/1999/xlink" x="0px" y="0px"
	 viewBox="0 0 480 480" style="enable-background:new 0 0 480 480;" xml:space="preserve">
<style type="text/css">
	.st0{fill:#CFDFE8;}
	.st1{fill:#FFFFFF;}
	.st2{fill:#FFC13B;}
	.st3{fill:#D3843D;}
</style>
<path class="st0" d="M312,220.4l-48-40l96-88l32,32L312,220.4z"/>
<path class="st1" d="M400,132.4l-48-48c-6.5-6-3.3-14.7,2.7-21.1l0.6-0.7c5.6-6.3,13.5-10,21.9-10.4c8.4-0.4,16.6,2.6,22.8,8.3
	l24,24c12.9,12.1,11.5,28.7-0.6,41.7l-0.6,0.7C416.7,133.2,406.5,138.4,400,132.4z"/>
<path class="st2" d="M464,172.4H16c-4.4,0-8,3.6-8,8c0.7,88.1,54.4,167,136,200h-8v24c0,13.3,10.7,24,24,24h160
	c13.3,0,24-10.7,24-24v-24h-8c81.6-33,135.3-111.9,136-200C472,176,468.4,172.4,464,172.4z"/>
<path class="st3" d="M237.6,407.9c-10.9,0.3-21.7-1.1-32.2-4c-4.2-1.4-6.5-5.9-5.1-10.1c1.4-4.2,5.9-6.5,10.1-5.1
	c19.7,4.6,40.2,4.5,59.9-0.2c4.3-0.7,8.3,2.1,9.1,6.3c0.8,4.2-1.8,8.4-6,9.4C261.7,406.6,249.7,407.9,237.6,407.9z"/>
<path class="st1" d="M256,276.4v-32h-32v32h-32v32h32v32h32v-32h32v-32H256z"/>
<path d="M464,164.4h-94.9l23.5-28.2l1.8,1.8l0.2,0.2c3.3,3.1,7.7,4.9,12.3,4.8c8.4-0.6,16.3-4.5,21.8-10.9l0.6-0.7
	c15.6-16.7,15.7-38.5,0.4-52.8l-24.2-24.1c-7.7-7.2-18-11-28.5-10.5c-10.5,0.5-20.4,5.2-27.5,13.1l-0.6,0.7c-3.9,4.1-6.7,9.1-8,14.7
	c-1.4,6.4,0.7,13.1,5.5,17.6l2.1,2.1l-78.8,72.2H16c-8.8,0-16,7.2-16,16C0.2,266.7,50,345.1,128,382v22.4c0,17.7,14.3,32,32,32h160
	c17.7,0,32-14.3,32-32V382c78-36.9,127.8-115.4,128-201.6C480,171.6,472.8,164.4,464,164.4z M357.5,78.5c-0.9-0.7-1.3-1.9-0.9-3
	c0.7-2.6,2.1-4.9,4-6.8l0.6-0.7c4.3-4.7,10.2-7.5,16.6-7.9c6.1-0.3,12.1,1.8,16.6,5.9l24.2,24.2c4.2,3.6,6.6,8.9,6.5,14.4
	c-0.5,6.1-3.2,11.7-7.5,16l-0.6,0.7c-4,4.3-9.6,6.8-11.4,5.3l-2.7-2.7L357.5,78.5z M359.8,103.5l21.4,21.4l-32.9,39.5h-55
	L359.8,103.5z M333,373c-3.5,1.4-5.6,5.2-4.8,8.9c0.7,3.8,4,6.5,7.9,6.5v16c0,8.8-7.2,16-16,16H160c-8.8,0-16-7.2-16-16v-16
	c3.8,0,7.1-2.7,7.9-6.5c0.7-3.8-1.3-7.5-4.8-8.9C68.1,341.5,16.3,265.3,16,180.4h448C463.7,265.3,411.9,341.5,333,373z"/>
<path d="M270.4,388.6c-19.7,4.7-40.2,4.8-59.9,0.2c-4.2-1.4-8.7,0.9-10.1,5.1c-1.4,4.2,0.9,8.7,5.1,10.1c10.5,2.9,21.3,4.3,32.2,4
	c12.1-0.1,24.2-1.3,36-3.8c4.2-1,6.9-5.1,6-9.4C278.8,390.6,274.7,387.9,270.4,388.6L270.4,388.6z"/>
<path d="M192,316.4h24v24c0,4.4,3.6,8,8,8h32c4.4,0,8-3.6,8-8v-24h24c4.4,0,8-3.6,8-8v-32c0-4.4-3.6-8-8-8h-24v-24c0-4.4-3.6-8-8-8
	h-32c-4.4,0-8,3.6-8,8v24h-24c-4.4,0-8,3.6-8,8v32C184,312.8,187.6,316.4,192,316.4z M200,284.4h24c4.4,0,8-3.6,8-8v-24h16v24
	c0,4.4,3.6,8,8,8h24v16h-24c-4.4,0-8,3.6-8,8v24h-16v-24c0-4.4-3.6-8-8-8h-24V284.4z"/>
</svg>
