<?xml version="1.0" encoding="utf-8"?>
<!-- Generator: Adobe Illustrator 23.0.3, SVG Export Plug-In . SVG Version: 6.00 Build 0)  -->
<svg version="1.1" id="圖層_1" xmlns="http://www.w3.org/2000/svg" xmlns:xlink="http://www.w3.org/1999/xlink" x="0px" y="0px"
	 viewBox="0 0 511 512" style="enable-background:new 0 0 511 512;" xml:space="preserve">
<style type="text/css">
	.st0{fill:#231815;}
	.st1{fill:#9FC001;}
</style>
<g>
	<g>
		<path class="st0" d="M280.7,77.3c-23.2,0-42.5,17-45.7,39.2c-4.5-1.6-9.3-2.4-14.3-2.4c-20.9,0-38.4,14.9-42.3,34.6
			c-3.4-0.9-6.9-1.4-10.6-1.4c-22.3,0-40.4,18-40.4,40.1v68.3v87.9v127.4c0,21.2,17.2,38.4,38.4,38.4h179.5
			c21.2,0,38.4-17.2,38.4-38.4v-80.2c0-1.1-0.1-2.3-0.3-3.4c-2.1-12.4-9.7-22.7-21.2-29c-3-1.6-6.3-2.5-9.6-2.5H209.1
			c-5,0-8.4-3.2-9.9-6.2c-0.8-1.6-1.2-3.3-1.2-5c0-4.2,2.3-7,3.7-8.2c1-0.9,2.1-1.6,3.3-2.1c1.3-0.5,2.7-0.8,4.1-0.8h34.6h10.7h52.5
			h10.6H352c2.2,0,4.4-0.4,6.5-1.1c13.8-4.8,20.4-13.8,23.4-20.5c1.2-2.6,1.8-5.4,1.8-8.2v-48.1V143.8c0-23.5-19.3-42.7-43-42.7
			c-6.2,0-12.2,1.3-17.5,3.7C315.9,88.6,299.6,77.3,280.7,77.3L280.7,77.3z M280.7,97.3c14.5,0,26.2,11.6,26.2,25.8v114.1h10.6
			v-93.5c0-12.5,10.3-22.7,23-22.7c12.7,0,23,10.2,23,22.7v111.9v48.1c-1.6,3.6-5,7.5-11.7,9.8h-34.4h-10.6h-52.5h-10.7h-34.6
			c-4.1,0-7.9,0.8-11.5,2.2c-3.5,1.4-6.7,3.4-9.4,5.9c-6.3,5.7-10.2,13.9-10.2,23c0,5,1.2,9.8,3.3,14c5.1,10.2,15.6,17.2,27.8,17.2
			h143.3c4.5,2.5,9.8,7,11.2,14.9v80.2c0,10.2-8.2,18.4-18.4,18.4H165.8c-10.2,0-18.4-8.2-18.4-18.4V343.5v-87.9v-68.3
			c0-11.1,9.1-20.1,20.4-20.1c11.3,0,20.4,9,20.4,20.1v49.9h9.4v-80.5c0-12.5,10.3-22.7,23-22.7c12.7,0,23,10.2,23,22.7v80.5h10.7
			V123.1C254.4,108.8,266.2,97.3,280.7,97.3"/>
	</g>
</g>
<g>
	<path class="st0" d="M340.9,63.7c11.3,0,20.5,9.2,20.5,20.5c0,11.3-9.2,20.5-20.5,20.5c-11.3,0-20.5-9.2-20.5-20.5
		C320.4,72.9,329.6,63.7,340.9,63.7 M340.9,43.7c-22.4,0-40.5,18.2-40.5,40.5c0,22.4,18.2,40.5,40.5,40.5
		c22.4,0,40.5-18.2,40.5-40.5C381.5,61.9,363.3,43.7,340.9,43.7L340.9,43.7z"/>
	<path class="st1" d="M340.9,104.8c11.3,0,20.5-9.2,20.5-20.5c0-11.3-9.2-20.5-20.5-20.5c-11.3,0-20.5,9.2-20.5,20.5
		C320.4,95.6,329.6,104.8,340.9,104.8z"/>
</g>
<g>
	<path class="st0" d="M219.8,76.7c11.3,0,20.5,9.2,20.5,20.5c0,11.3-9.2,20.5-20.5,20.5c-11.3,0-20.5-9.2-20.5-20.5
		C199.3,85.9,208.5,76.7,219.8,76.7 M219.8,56.7c-22.4,0-40.5,18.2-40.5,40.5c0,22.4,18.2,40.5,40.5,40.5s40.5-18.2,40.5-40.5
		C260.4,74.9,242.2,56.7,219.8,56.7L219.8,56.7z"/>
	<path class="st1" d="M219.8,117.8c11.3,0,20.5-9.2,20.5-20.5c0-11.3-9.2-20.5-20.5-20.5c-11.3,0-20.5,9.2-20.5,20.5
		C199.3,108.6,208.5,117.8,219.8,117.8z"/>
</g>
<g>
	<path class="st1" d="M167.8,148.1c9.6,0,17.3-7.7,17.3-17.3c0-9.6-7.7-17.3-17.3-17.3c-9.6,0-17.3,7.7-17.3,17.3
		C150.5,140.4,158.2,148.1,167.8,148.1z"/>
	<path class="st0" d="M167.8,93.5c-20.6,0-37.3,16.7-37.3,37.3c0,20.6,16.7,37.3,37.3,37.3c20.6,0,37.3-16.7,37.3-37.3
		C205.1,110.2,188.4,93.5,167.8,93.5L167.8,93.5z M167.8,113.5c9.6,0,17.3,7.7,17.3,17.3c0,9.6-7.7,17.3-17.3,17.3
		c-9.6,0-17.3-7.7-17.3-17.3C150.5,121.2,158.2,113.5,167.8,113.5"/>
</g>
<g>
	<path class="st0" d="M280.7,21.6c15.8,0,28.6,12.8,28.6,28.6s-12.8,28.6-28.6,28.6C264.9,78.9,252,66,252,50.2
		S264.9,21.6,280.7,21.6 M280.7,1.6c-26.8,0-48.6,21.8-48.6,48.6c0,26.8,21.8,48.6,48.6,48.6c26.8,0,48.6-21.8,48.6-48.6
		C329.3,23.4,307.5,1.6,280.7,1.6L280.7,1.6z"/>
	<path class="st1" d="M280.7,78.9c15.8,0,28.6-12.8,28.6-28.6s-12.8-28.6-28.6-28.6c-15.8,0-28.6,12.8-28.6,28.6
		S264.9,78.9,280.7,78.9z"/>
</g>
<path class="st1" d="M340.6,121.1c-12.7,0-23,10.2-23,22.7v93.5h-10.6V123.1c0-14.3-11.7-25.8-26.2-25.8
	c-14.5,0-26.2,11.6-26.2,25.8v114.1h-10.7v-80.5c0-12.5-10.3-22.7-23-22.7c-12.7,0-23,10.2-23,22.7v80.5h-9.4v-49.9
	c0-11.1-9.1-20.1-20.4-20.1s-20.4,9-20.4,20.1v68.3v87.9v127.4c0,10.2,8.2,18.4,18.4,18.4h179.5c10.2,0,18.4-8.2,18.4-18.4v-80.2
	c-1.4-7.9-6.7-12.5-11.2-14.9H209.1c-12.2,0-22.7-7-27.8-17.2c-2.1-4.2-3.3-8.9-3.3-14c0-9.1,4-17.3,10.2-23
	c2.7-2.5,5.9-4.5,9.4-5.9c3.6-1.4,7.4-2.2,11.5-2.2h34.6h10.7h52.5h10.6H352c6.7-2.3,10-6.2,11.7-9.8v-48.1V143.8
	C363.6,131.2,353.3,121.1,340.6,121.1z"/>
</svg>
