<?xml version="1.0" encoding="UTF-8"?>
<svg id="Layer_1" xmlns="http://www.w3.org/2000/svg" version="1.1" viewBox="0 0 512 512">
  <!-- Generator: Adobe Illustrator 29.3.0, SVG Export Plug-In . SVG Version: 2.1.0 Build 146)  -->
  <defs>
    <style>
      .st0 {
        fill: #fff;
      }

      .st1 {
        fill: #ff166b;
      }

      .st2 {
        fill: #ffc13b;
      }
    </style>
  </defs>
  <path class="st0" d="M190.2,410.2h0c-2.2-2.3-3.1-2.9-5.8-3.2-.7,0-1.3-.1-1.8-.1-4.2,0-6.7,2.8-18,22.3-10.5,18.1-10.8,18.9-10.5,22.2.4,3.2,2.3,5.9,5.2,7.3,3,1.5,6.6,1.3,9.4-.4,1.1-.7,4.2-4.7,13.3-20.2,9.1-15.7,10.8-19.2,10.8-22.2s-.2-3.4-2.5-5.9Z"/>
  <path class="st0" d="M221.9,428c-1.5-.7-3.8-1.2-5-1.2-4,0-6.6,2.6-18,22-9.9,16.9-10.7,18.9-10.7,22.3s0,3.5,2.8,6.1c2.6,2.4,3.4,2.6,5.9,2.6,4.9,0,7.5-1.6,12.7-10.6,16.5-28.5,17.1-29.7,17.1-32.7s-1.9-7.1-4.8-8.5Z"/>
  <path class="st1" d="M212.5,493.5s0,0,0,.1c0,0,0,0,0,0h0Z"/>
  <path class="st2" d="M195.5,112.2c3.6,24.6,13.9,45.1,31.6,62.8,7.8,7.8,18.2,15.8,27.2,20.7.4.2,1.6.9,1.9,1,.2,0,1.1,0,1.4,0,.8,0,1.2,0,1.4,0,.3,0,1.5-.7,1.9-.9,3.9-2.1,12.7-8,16.5-11.1,24.3-19.6,38.6-44.3,42.4-73.6.3-3.3.7-37.2.8-52-17.1,3-30.2-.3-44.5-11.2-4.4-3.3-13.4-12.3-18.4-18.3-5,6-14.1,15-18.5,18.3-14.6,10.8-27.3,14.1-44.3,11.1,0,5,0,12.5,0,21.1.1,22.6.3,28.6.8,32.1ZM294.8,112.7c.4-3,2.2-5.6,4.9-7.1,3.5-2,8.6-1.4,11.5,1.3,1.3,1.2,2.3,3.1,2.8,4.4,1.4,4.3-.2,8.9-4.1,11.3-1.6,1-3.4,1.5-5.2,1.5s-5-1-6.9-2.8h0c-2.2-2.3-3.2-5.4-2.8-8.5ZM290.2,127.1c3.2-1.5,6.9-1.3,9.8.5,2.8,1.8,4.5,4.8,4.5,8.2,0,5.9-9.6,19.8-13,24.2-3.7,4.7-21.3,23.4-29.4,23.4s-9.7-4.4-9.7-9.9,2.6-7,8.3-11.3c10.1-7.5,17.8-16.5,23.6-27.6,3-5.7,4.5-6.8,5.9-7.5ZM228.4,84.7h19.8v-19.8h20v19.8h19.8v20h-19.8v19.8h-20v-19.8h-19.8v-20Z"/>
  <path class="st2" d="M107.2,213.2h0c-8.3-3.8-12.6-5.7-14.8-6.7-7.9,16.2-53.2,113.2-60.7,129.9,6.1,3.3,24.7,12,31,14.5,7.7-15.6,52.8-114.4,59.6-130.8-3-1.4-8.6-4.1-15.1-7ZM60,335.1c-1.6,1-3.4,1.5-5.2,1.5s-5-1-6.9-2.8h0c-2.2-2.3-3.2-5.4-2.8-8.5.4-3,2.2-5.6,4.9-7.1,3.5-2,8.5-1.4,11.5,1.3,1.3,1.2,2.3,3.1,2.8,4.4,1.4,4.3-.2,8.8-4.1,11.3Z"/>
  <path class="st0" d="M256.7,448.3c-1.6-1-3.4-1.5-5.2-1.5s-3.3.5-4.8,1.4c-3.5,2.2-17.8,26.5-18,30.6,0,3.7,2.1,7,5.5,8.6,3.4,1.6,7.1,1.3,9.9-1,2.5-2.2,16.2-25.2,17-28.6.6-2.5-1.6-7.7-4.6-9.5Z"/>
  <path class="st1" d="M30.7,338.8s0,0,0,0c0,0,0,0,0,0h0Z"/>
  <path class="st0" d="M157.8,392.1c-.4-.7-2.1-2.6-3.6-3.6h0c-1.8-1.2-3.4-1.8-5-1.8s-.9,0-1.3.2c-3.3.7-6.7,4.2-10.3,10.4-13.3,22.6-17.8,30.6-17.8,33.4s2.1,6.7,4.7,8.1c2.7,1.6,8.4,1.2,10.6-.6,1.1-1,6.4-8.8,13.1-20.3,11.7-20.1,11.7-21.7,9.6-25.7Z"/>
  <path class="st2" d="M451.5,271.1c-15-32.5-26.9-57.5-30.6-64.5-6.2,2.7-23.9,10.8-30.1,13.9,7.2,16.5,52.4,114.7,60,130.5,6.4-2.6,24.8-11.2,30.9-14.5-.4-1-1.1-2.3-2-4.3-5.1-11.2-15.8-34.4-28.2-61.2h0ZM454,320.4c3.5-2,8.6-1.4,11.5,1.3,1.3,1.2,2.3,3.1,2.8,4.4,1.4,4.3-.2,8.8-4.1,11.3-1.6,1-3.4,1.5-5.2,1.5-2.5,0-5-1-6.9-2.8h0c-2.2-2.3-3.2-5.4-2.8-8.5.4-3,2.2-5.6,4.9-7.1Z"/>
  <path class="st0" d="M282.6,465.3c-.9-.5-1.7-1-2.4-1.4-.8,3.1-4.4,9.9-6.6,13.6l-1,1.7c-1.5,2.7-3,5.2-3.1,6.2.6.6,2.5,1.5,4.4,2.5l1.4.7c5,2.5,7.9,2.6,12.1.2,3.1-1.7,6.4-6.9,6.4-10,0-4.9-3.6-9.4-11.1-13.7Z"/>
  <path class="st0" d="M380,246l-2.1-4.5-11.9,2.5c-19,4.1-32.5,4.1-57.8.2-20.9-3.2-41.8-4.1-50.7-2-3.3.7-8.1,2.3-10.9,3.6-4.5,2.3-61.8,47.4-68.5,54.5-2,2.1-2.9,4.2-2.5,5.6.4,1.2,1.9,2.1,4.1,2.5,5.6,1,20.5-.4,27.5-2.5,3.6-1.1,15.5-6.5,26.5-12,19.9-9.9,20.6-10.3,28.8-10.3.3,0,.7,0,1,0,4.7,0,8.9.7,12.6,2.1,8.6,3.3,115.2,67.2,120,72l2.7,2.6,6.8-2.2c8.4-2.7,17.3-6.7,21-9.6l.6-.4-21.7-46.6c-12.2-26.4-23.9-51.8-25.7-55.5Z"/>
  <path class="st0" d="M266.7,303.7c-1.9-.4-4.9-.4-6.3,0-1.4.3-10,4.3-21.3,10-24.2,12.5-31.4,14.5-50.8,14.6-15.4,0-20.2-1-26.9-8.2-7.4-7.8-7.6-21.1-.4-30.8,1.9-2.5,17.5-15.4,27.4-23.5,9.9-8,17.7-14.4,21.5-17.7-3.6-1.6-10-4-14.9-5-4.9-.9-17.6-1.7-34-2l-25.1-.6-.7,1.6c-.9,2-12.9,28-25.6,55.4l-23.2,50.1,3.9,4.2c6.3,6.7,11.1,15.6,16.8,30.8,2.6,6.9,5.3,12.3,7,15.1,1.3-2.2,3.3-5.3,5-8.2l.6-1c8.6-14.1,13.5-18.6,23-20.7,7.7-1.8,16.5-.2,22.9,4,5.1,3.3,10.8,10.9,11.8,15.5,0,0,0,0,0,0,.9,0,2.2-.1,3.1-.2,12.3-1.1,24.5,5.8,29.6,16.7l1.4,3.2,6,.2c6.2.1,9.7.8,13.1,2.7,5.8,3.1,10.9,8.5,13.6,14.6l1.2,2.6,5.9.2c9.3.2,14.7,2.3,20.7,7.8,2.6,2.4,38.4,24.2,44.3,26.6,4.9,2,11.8-.6,14.3-5.3,2-3.9,1.1-10.6-1.8-13.5-1.3-1.3-10.9-7.7-23.8-15.2-22.1-13.1-28-16.6-23.6-25.1,2.7-5.3,8.1-6.6,14.4-3.5h.1c1.9,1.1,13.3,7.7,25.8,15.1,13.5,8,22.8,12.9,24.3,13.3,3.5.6,9.3-1.8,11.4-4.7,2.4-3.3,2.5-10.4,0-13.8-.5-.6-3.8-3.8-25.4-16.5-21.5-12.7-25.1-15.3-26.1-18.6h0c-1.2-5,1.9-10.5,6.8-12.3,3.8-1.3,6.7.3,18.5,7.1,26.4,15.7,37.8,22.3,39.8,22.8,5,1.3,12.1-3.2,13.8-8.6,1.1-3.4.2-7.6-2.3-10.7-5.6-4.8-109.4-66-116-68.4Z"/>
  <path d="M432.4,188.5c-7.6-5.1-12.6-3.5-34.7,6.7-.8.4-20,9.3-22.2,11.1h-.1c-3.9,3.6-5.8,8.7-5.5,14.5v2c.1,0-8.2,1.8-8.2,1.8-15.5,3.3-28.4,3.2-51.4-.3-22.5-3.5-48.1-4.1-58.2-1.5-7.3,1.8-18.1,6.6-22.7,10.1-.7.5-2.2,1.6-2.6,1.7-.5,0-2.5-1.3-3.5-2-12.6-7.9-26.9-10.7-58.6-11.6l-20.9-.5v-1.2c0-5.5-3.2-11.6-7.6-14.6-1.7-1-12.4-6.1-21.3-10.2-20.6-9.5-26.2-11.2-33.7-6.2-3.6,2.4-5.9,6.7-37,73.5-29.7,64.1-32.8,71.2-32.8,76.2-.1,10.8,3.7,12.9,26.7,23.6,21.9,10.2,26.8,11.9,34,8.2,1.5-.8,3.3-2.1,4.6-3.4.2.3.5.5.7.8,3.7,4,4.5,5.4,10.5,21.2,5.3,13.6,9.6,21.4,14.3,26.3l1.1,1.2-1.4,3.7c-4.4,11.6-1.4,24.2,7.9,32.7,6.4,5.8,11.4,7.6,20.5,7.5h5l.6,1.6c2.2,6,9.3,13.2,15.9,16,4.4,1.9,7.5,2.4,13.2,2l4.5-.2.4,1.3c1.8,6,8.6,13.4,15.1,16.4,8.1,3.8,18.1,3.7,26.1-.2h0c1.1-.6,2-1.1,2.8-1.4,6.4,8.7,14.6,12.8,24.9,12.7,6.9,0,14-2.5,18.6-6.4,1,.4,3,1.7,3.8,2.2,7.3,4.5,14.4,6.7,21.1,6.7s14.3-2.7,20.3-8.1c6.2-5.6,9.5-11.8,10.6-19.4l.2-1.5,1.7.4c6.8,1.3,16.8-1,23.2-5.3,8.3-5.4,13.5-15.3,13.5-25.9s0-2.5.1-3.1c5.3-.7,12.3-4.2,17.3-8.8,7.5-6.9,10.9-14.8,10.4-24.4l-.2-3.3,3.4-1c12-3.5,21.1-14.6,22.5-27.5.2-1.8.6-3.1.8-3.8,9.8-2.8,17.2-5.7,23.8-9.1,2.8-1.4,5.7-2.9,6.8-3.2.1.1.3.3.4.4,8.8,7.8,13.8,6.4,38.4-5.1,23-10.7,26.8-12.8,26.6-23.5,0-5-3.1-12.2-32.8-76.3-31.1-66.9-33.3-71.1-36.9-73.5ZM30.7,338.8h0s0,0,0,0c0,0,0,0,0,0ZM62.7,351.1c-6.3-2.6-24.8-11.3-31-14.5,7.5-16.8,52.7-113.7,60.7-129.9,2.2.9,6.5,2.9,14.8,6.7h0c6.5,3,12.1,5.6,15.1,7-6.8,16.4-51.9,115.2-59.6,130.8ZM148.1,417.9c-6.7,11.5-12,19.3-13.1,20.3-2.2,1.8-7.9,2.1-10.6.6-2.5-1.4-4.7-5.1-4.7-8.1s4.4-10.8,17.8-33.4c3.6-6.1,7.1-9.6,10.3-10.4.4,0,.9-.2,1.3-.2,1.6,0,3.2.6,5,1.8h0c1.5,1,3.2,2.9,3.6,3.6,2.1,4,2.1,5.6-9.6,25.7ZM181.9,438.3c-9,15.4-12.2,19.5-13.3,20.2-2.9,1.8-6.4,1.9-9.4.4-3-1.5-4.9-4.1-5.2-7.3-.3-3.3,0-4.1,10.5-22.2,11.4-19.5,13.8-22.3,18-22.3s1.2,0,1.8.1c2.7.3,3.7.8,5.8,3.2h0c2.3,2.5,2.5,3.2,2.5,5.9s-1.7,6.5-10.8,22.2ZM212.5,493.5h0c0,0,0,0,0,.1,0,0,0,0,0-.1ZM209.6,469.2c-5.2,9-7.8,10.6-12.7,10.6s-3.3-.2-5.9-2.6c-2.8-2.6-2.8-2.7-2.8-6.1s.8-5.4,10.7-22.3c11.4-19.4,14-22,18-22s3.4.6,5,1.2c3,1.4,4.8,4.6,4.8,8.5s-.6,4.2-17.1,32.7ZM261.2,457.9c-.8,3.4-14.5,26.3-17,28.6-2.9,2.3-6.6,2.6-9.9,1-3.4-1.7-5.5-4.9-5.5-8.6.2-4.1,14.5-28.4,18-30.6,1.5-.9,3.1-1.4,4.8-1.4s3.5.5,5.2,1.5c3,1.8,5.1,7,4.6,9.5ZM287.4,489c-4.2,2.3-7.1,2.3-12.1-.2l-1.4-.7c-1.9-1-3.8-2-4.4-2.5.2-1,1.6-3.5,3.1-6.2l1-1.7c2.1-3.7,5.8-10.6,6.6-13.6.7.4,1.6.9,2.4,1.4,7.5,4.3,11.1,8.8,11.1,13.7s-3.3,8.2-6.4,10ZM385,382.8c-1.6,5.4-8.8,9.9-13.8,8.6-2-.4-13.3-7.1-39.8-22.8-11.8-6.9-14.8-8.4-18.5-7.1-4.9,1.7-8,7.3-6.8,12.1h0c.9,3.3,4.6,5.9,26.1,18.7,21.6,12.8,24.9,15.9,25.4,16.5,2.4,3.4,2.3,10.5,0,13.8-2.1,2.9-7.9,5.3-11.4,4.7-1.6-.5-10.9-5.3-24.3-13.3-12.5-7.5-23.9-14-25.8-15.1h-.1c-6.3-3.2-11.7-1.9-14.4,3.4-4.4,8.4,1.6,12,23.6,25.1,12.9,7.6,22.5,13.9,23.8,15.2,2.9,2.9,3.8,9.6,1.8,13.5-2.4,4.7-9.4,7.3-14.3,5.3-5.9-2.5-41.7-24.3-44.3-26.6-6-5.5-11.4-7.6-20.7-7.8l-5.9-.2-1.2-2.6c-2.7-6.1-7.8-11.5-13.6-14.6-3.5-1.9-6.9-2.5-13.1-2.7l-6-.2-1.4-3.2c-5.1-11-17.3-17.8-29.6-16.7-.9,0-2.2.2-3.1.2,0,0,0,0,0,0-1-4.6-6.7-12.1-11.8-15.5-6.4-4.3-15.2-5.8-22.9-4-9.5,2.1-14.5,6.5-23,20.7l-.6,1c-1.8,2.9-3.7,6-5,8.2-1.7-2.8-4.4-8.2-7-15.1-5.6-15.2-10.5-24.1-16.8-30.8l-3.9-4.2,23.2-50.1c12.8-27.4,24.8-53.3,25.6-55.4l.7-1.6,25.1.6c16.4.4,29.1,1.1,34,2,4.9,1,11.3,3.4,14.9,5-3.8,3.3-11.6,9.7-21.5,17.7-10,8.1-25.5,20.9-27.4,23.5-7.1,9.7-6.9,23,.4,30.8,6.7,7.2,11.5,8.2,26.9,8.2,19.5-.1,26.6-2.2,50.8-14.6,11.3-5.8,19.8-9.7,21.3-10,1.4-.3,4.4-.3,6.3,0,6.6,2.3,110.4,63.5,116,68.4,2.5,3.2,3.4,7.4,2.3,10.7ZM426.8,348.5c-3.8,2.8-12.6,6.8-21,9.6l-6.8,2.2-2.7-2.6c-4.8-4.7-111.4-68.6-120-72-3.7-1.4-7.8-2.1-12.6-2.1s-.7,0-1,0c-8.2,0-9,.4-28.8,10.3-11,5.5-22.9,10.9-26.5,12-7,2.2-21.9,3.5-27.5,2.5-2.2-.4-3.8-1.3-4.1-2.5-.4-1.4.5-3.5,2.5-5.6,6.7-7.1,64-52.2,68.5-54.5,2.8-1.3,7.6-2.9,10.9-3.6,8.9-2,29.7-1.2,50.7,2,25.2,3.9,38.7,3.8,57.8-.2l11.9-2.5,2.1,4.5c1.8,3.7,13.5,29.1,25.7,55.5l21.7,46.6-.6.4ZM481.7,336.6c-6.1,3.2-24.5,11.9-30.9,14.5-7.6-15.8-52.8-114-60-130.5,6.2-3.1,23.9-11.3,30.1-13.9,3.7,7,15.6,32,30.6,64.5h0c12.4,26.8,23.1,50,28.2,61.2.9,1.9,1.5,3.3,2,4.3Z"/>
  <path d="M203.1,178.1c4.8,6,15.6,16.8,21.4,21.4,5.4,4.3,14.9,10.8,20,13.5,4.6,2.5,8.9,3.7,13.2,3.7s8.1-1.1,12.3-3.3c4.5-2.3,15.5-9.7,20.6-13.9,9.4-7.6,19.1-17.8,25.8-27.2,10.9-15.2,17.9-31.3,21.5-49.4,2.2-11.1,2.3-12.8,2.3-47.1v-29.5c0-2.8-1.2-5.5-3.3-7.4-1.1-1-3.4-2.7-6-2.7s-1.6,0-6.6,1.4c-7.2,2.1-15.4,3-20.1,2.1-11-2.1-22.9-11.5-35.3-28.1-3.8-5.1-6.3-8.5-11.3-8.5s-3.3.4-4.9,1.3c-.6.3-2.2,1.4-6.4,7.1-12.8,17.1-24.5,26.3-35.7,28.2-3.9.6-11.9.1-19.7-2.2-4.9-1.4-5.8-1.4-6.5-1.4-2.6,0-4.9,1.7-6,2.6-2.1,1.9-3.3,4.6-3.3,7.4v29.5c0,24.5.1,32.7.6,36.4,2.9,24.7,11.9,46.2,27.6,65.8ZM239,47.9c4.4-3.3,13.5-12.3,18.5-18.3,5,5.9,14,14.9,18.4,18.3,14.3,10.8,27.5,14.2,44.5,11.2,0,14.8-.5,48.7-.8,52-3.8,29.3-18.1,54-42.4,73.6-3.8,3.1-12.7,9-16.5,11.1-.4.2-1.6.8-1.9.9-.1,0-.6,0-1.4,0s-1.2,0-1.4,0c-.3,0-1.4-.7-1.9-1-9-4.9-19.4-12.8-27.2-20.7-17.7-17.7-28-38.2-31.6-62.8-.5-3.5-.7-9.5-.8-32.1,0-8.6,0-16,0-21.1,17,3,29.7-.3,44.3-11.1Z"/>
  <path class="st0" d="M260.7,162.2c-5.7,4.2-8.3,6.2-8.3,11.3s4.4,9.9,9.7,9.9c8.1,0,25.7-18.6,29.4-23.4,3.5-4.4,13-18.3,13-24.2s-1.7-6.4-4.5-8.2c-2.9-1.9-6.6-2.1-9.8-.5-1.4.7-2.9,1.8-5.9,7.5-5.8,11.1-13.5,20.1-23.6,27.6Z"/>
  <path class="st0" d="M297.7,121.2c1.9,1.9,4.4,2.8,6.9,2.8s3.6-.5,5.2-1.5c3.9-2.4,5.6-6.9,4.1-11.3-.4-1.3-1.4-3.2-2.8-4.4-2.9-2.7-7.9-3.2-11.5-1.3-2.7,1.5-4.5,4.1-4.9,7.1-.4,3.1.6,6.2,2.8,8.4h0Z"/>
  <polygon points="248.2 124.5 268.2 124.5 268.2 104.7 288 104.7 288 84.7 268.2 84.7 268.2 64.9 248.2 64.9 248.2 84.7 228.4 84.7 228.4 104.7 248.2 104.7 248.2 124.5"/>
  <path d="M451.9,336h0c1.9,1.9,4.4,2.9,6.9,2.9,1.8,0,3.6-.5,5.2-1.5,3.9-2.4,5.6-6.9,4.1-11.3-.5-1.4-1.4-3.2-2.8-4.4-2.9-2.7-7.9-3.2-11.5-1.3-2.7,1.5-4.5,4.1-4.9,7.1-.4,3.1.6,6.2,2.8,8.4Z"/>
  <path d="M61.3,319.4c-2.9-2.7-7.9-3.2-11.5-1.3-2.7,1.5-4.5,4.1-4.9,7.1-.4,3.1.6,6.2,2.8,8.4h0c1.9,1.9,4.4,2.9,6.9,2.9s3.6-.5,5.2-1.5c3.9-2.4,5.6-6.9,4.1-11.3-.4-1.3-1.4-3.2-2.8-4.4Z"/>
</svg>