<?xml version="1.0" encoding="utf-8"?>
<!-- Generator: Adobe Illustrator 23.0.3, SVG Export Plug-In . SVG Version: 6.00 Build 0)  -->
<svg version="1.1" id="Capa_1" xmlns="http://www.w3.org/2000/svg" xmlns:xlink="http://www.w3.org/1999/xlink" x="0px" y="0px"
	 viewBox="0 0 512 512" style="enable-background:new 0 0 512 512;" xml:space="preserve">
<style type="text/css">
	.st0{fill:#FFC13B;}
	.st1{fill:#F3EFF0;}
	.st2{fill:#FFFFFF;}
</style>
<g>
	<g>
		<path class="st0" d="M36,156v200h440V156H36z"/>
		<circle class="st1" cx="396" cy="256" r="20"/>
		<path class="st2" d="M205.3,356H376v1.4c0,24-6.5,47.7-19.5,67.9C343.1,446,336,476.1,336,500.7v1.3H156c0-25.2-11.9-54.9-32-70
			l-16-12c-20.1-15.1-32-38.8-32-64V196c33.1,0,60,26.9,60,60v60C165.6,316,191.5,332.1,205.3,356z"/>
		<path class="st1" d="M256,196c44.2,0,80,26.9,80,60s-35.8,60-80,60s-80-26.9-80-60S211.8,196,256,196z"/>
		<ellipse class="st0" cx="256" cy="256" rx="40" ry="20"/>
		<path class="st2" d="M346,90c-16.6,0-30,13.4-30,30V80c0-16.6-13.4-30-30-30s-30,13.4-30,30V40c0-16.6-13.4-30-30-30
			s-30,13.4-30,30v40c0-16.6-13.4-30-30-30s-30,13.4-30,30v76h240v-36C376,103.4,362.6,90,346,90z"/>
	</g>
	<g>
		<path d="M476,146h-90v-26c0-22.1-17.9-40-40-40c-7.3,0-14.1,2-20,5.4V80c0-22.1-17.9-40-40-40c-7.3,0-14.1,2-20,5.4V40
			c0-22.1-17.9-40-40-40s-40,17.9-40,40v5.4c-5.9-3.4-12.7-5.4-20-5.4c-22.1,0-40,17.9-40,40v66H36c-5.5,0-10,4.5-10,10v200
			c0,5.5,4.5,10,10,10h30.6c2.8,24.4,15.6,47.1,35.4,62l16,12c16.2,12.2,28,38.2,28,62c0,5.5,4.5,10,10,10h45c5.5,0,10-4.5,10-10
			s-4.5-10-10-10h-35.5c-2.5-23.7-13.7-51.7-35.5-68l-16-12c-17.5-13.2-28-34.1-28-56V207c22.8,4.6,40,24.9,40,49v60
			c0,5.5,4.5,10,10,10c37.9,0,70,30.7,70,70c0,5.5,4.5,10,10,10s10-4.5,10-10c0-10.3-1.8-20.4-5.1-30h144.8
			c-1.4,19.6-7.4,38.1-17.6,53.9c-12,18.6-20.3,46.1-21.8,72.1H291c-5.5,0-10,4.5-10,10s4.5,10,10,10h45c5.5,0,10-4.5,10-10v-1.3
			c0-24.8,7.4-52.2,18.9-69.9c12.3-19.1,19.5-41.3,20.9-64.8H476c5.5,0,10-4.5,10-10V156C486,150.5,481.5,146,476,146L476,146z
			 M346,100c11,0,20,9,20,20v26h-40v-26C326,109,335,100,346,100z M286,60c11,0,20,9,20,20v66h-40V80C266,69,275,60,286,60z M206,40
			c0-11,9-20,20-20s20,9,20,20v106h-40V40z M146,80c0-11,9-20,20-20s20,9,20,20v66h-40V80z M466,346H210.8
			c-14.8-22-38.6-36.5-64.8-39.4V256c0-38.6-31.4-70-70-70c-5.5,0-10,4.5-10,10v150H46V166h420V346z"/>
		<path d="M256,186c-45.2,0-90,27.7-90,70c0,42.4,44.9,70,90,70c45.2,0,90-27.7,90-70C346,213.6,301.1,186,256,186z M256,306
			c-38.6,0-70-22.4-70-50s31.4-50,70-50s70,22.4,70,50S294.6,306,256,306z"/>
		<path d="M256,226c-28.5,0-50,12.9-50,30s21.5,30,50,30s50-12.9,50-30S284.5,226,256,226z M279.8,261.2c-6.1,3.1-14.8,4.8-23.8,4.8
			s-17.7-1.8-23.8-4.8c-5.1-2.6-6.2-4.9-6.2-5.2s1.1-2.6,6.2-5.2c6.1-3.1,14.8-4.8,23.8-4.8s17.7,1.8,23.8,4.8
			c5.1,2.6,6.2,4.9,6.2,5.2S284.9,258.6,279.8,261.2z"/>
		<path d="M366,256c0,16.5,13.5,30,30,30s30-13.5,30-30s-13.5-30-30-30S366,239.5,366,256z M396,246c5.5,0,10,4.5,10,10
			s-4.5,10-10,10s-10-4.5-10-10S390.5,246,396,246z"/>
		<circle cx="246" cy="502" r="10"/>
	</g>
</g>
</svg>
