<?xml version="1.0" encoding="utf-8"?>
<!-- Generator: Adobe Illustrator 23.0.3, SVG Export Plug-In . SVG Version: 6.00 Build 0)  -->
<svg version="1.1" id="圖層_1" xmlns="http://www.w3.org/2000/svg" xmlns:xlink="http://www.w3.org/1999/xlink" x="0px" y="0px"
	 viewBox="0 0 511 512" style="enable-background:new 0 0 511 512;" xml:space="preserve">
<style type="text/css">
	.st0{fill:#FCD12B;}
	.st1{fill:#231815;}
	.st2{fill:#595757;}
	.st3{fill:#6BC7F1;}
	.st4{fill:#00469B;}
</style>
<g>
	<path class="st0" d="M255.5,499.9c-65.1,0-126.4-25.4-172.4-71.4C37,382.4,11.6,321.1,11.6,256c0-65.1,25.4-126.4,71.4-172.4
		c46.1-46.1,107.3-71.4,172.4-71.4s126.4,25.4,172.4,71.4c46.1,46.1,71.4,107.3,71.4,172.4c0,65.1-25.4,126.4-71.4,172.4
		C381.9,474.5,320.6,499.9,255.5,499.9z"/>
	<path class="st1" d="M255.5,22.1c129.2,0,233.9,104.7,233.9,233.9c0,129.2-104.7,233.9-233.9,233.9
		C126.3,489.9,21.6,385.2,21.6,256C21.6,126.8,126.3,22.1,255.5,22.1 M255.5,2.1c-34.3,0-67.5,6.7-98.8,20
		C126.4,34.9,99.3,53.2,76,76.5c-23.3,23.3-41.6,50.5-54.4,80.7c-13.2,31.3-20,64.6-20,98.8c0,34.3,6.7,67.5,20,98.8
		c12.8,30.2,31.1,57.4,54.4,80.7c23.3,23.3,50.5,41.6,80.7,54.4c31.3,13.2,64.6,20,98.8,20c34.3,0,67.5-6.7,98.8-20
		c30.2-12.8,57.4-31.1,80.7-54.4c23.3-23.3,41.6-50.5,54.4-80.7c13.2-31.3,20-64.6,20-98.8c0-34.3-6.7-67.5-20-98.8
		c-12.8-30.2-31.1-57.4-54.4-80.7c-23.3-23.3-50.5-41.6-80.7-54.4C323,8.9,289.8,2.1,255.5,2.1L255.5,2.1z"/>
</g>
<g>
	<path class="st2" d="M77.4,167l-18.1-11.5l2.5-3.9l15.8,3.5l3.3,0.8c-0.5-0.7-1.3-1.6-2.2-2.9L69,140.1l2.2-3.5l18.1,11.5l-1.6,2.5
		L72.6,141l11.5,15.4l-1.5,2.4l-19.1-4.1l15.4,9.8L77.4,167z"/>
	<path class="st2" d="M77.7,133.2l-2.4-1.8l1.7-2.3l2.4,1.8L77.7,133.2z M92.5,144.2L80,135l1.7-2.3l12.5,9.2L92.5,144.2z"/>
	<path class="st2" d="M97.1,137.9l-12-9.9l1.6-2l1.7,1.4c-0.3-1-0.3-2,0-3c0.2-1,0.7-1.9,1.5-2.8c0.6-0.7,1.2-1.3,1.9-1.7
		c0.7-0.4,1.4-0.7,2-0.8c0.6-0.1,1.3,0,2,0.3c0.7,0.3,1.6,0.8,2.7,1.8l7.4,6.1l-1.8,2.2l-7.3-6c-0.9-0.7-1.6-1.2-2.2-1.3
		c-0.6-0.1-1.1-0.1-1.7,0.2c-0.6,0.2-1.1,0.6-1.6,1.2c-0.9,1.1-1.3,2.2-1.2,3.3c0.1,1.1,0.8,2.3,2.3,3.5l6.6,5.4L97.1,137.9z"/>
	<path class="st2" d="M95.6,111.2l-2.2-2.1l1.9-2.1l2.2,2.1L95.6,111.2z M109.1,123.8l-11.4-10.6l2-2.1l11.4,10.6L109.1,123.8z"/>
	<path class="st2" d="M110.4,115.5l1.8-2.3c0.9,0.7,1.8,0.9,2.7,0.8c0.9-0.1,1.8-0.6,2.7-1.5c0.9-0.9,1.4-1.7,1.6-2.5
		c0.2-0.8,0-1.5-0.5-2c-0.4-0.4-1-0.6-1.6-0.4c-0.5,0.1-1.4,0.6-2.7,1.4c-2,1.2-3.4,1.9-4.1,2.2c-0.8,0.3-1.6,0.3-2.3,0.2
		c-0.7-0.1-1.3-0.5-1.9-1.1c-0.9-1-1.3-2.1-1-3.5c0.2-1.4,1.1-2.8,2.5-4.2c0.9-0.9,1.8-1.5,2.8-1.9c0.9-0.4,1.8-0.6,2.5-0.5
		c0.8,0.1,1.6,0.4,2.5,1l-1.8,2.2c-1.4-1-2.8-0.8-4.4,0.7c-0.9,0.9-1.4,1.7-1.6,2.3c-0.2,0.7-0.1,1.3,0.3,1.7
		c0.4,0.4,0.9,0.5,1.6,0.4c0.4-0.1,1.4-0.6,2.9-1.5c2.1-1.2,3.5-2,4.3-2.2c0.7-0.2,1.5-0.3,2.1-0.2c0.7,0.1,1.3,0.5,1.9,1.1
		c1,1.1,1.4,2.4,1.1,3.9c-0.3,1.5-1.2,3.1-2.7,4.6C116,117,113.1,117.4,110.4,115.5z"/>
	<path class="st2" d="M130,100.6l1.8,1.5c-0.5,0.6-1,1.2-1.5,1.6c-0.8,0.7-1.5,1.1-2.1,1.2c-0.7,0.2-1.2,0.1-1.8-0.1
		c-0.5-0.2-1.3-1-2.3-2.1l-5.8-6.8l-1.6,1.4l-1.3-1.6l1.6-1.4l-2.5-2.9l1.2-3.1l3.5,4.1l2.2-1.9l1.3,1.6l-2.2,1.9l5.9,6.9
		c0.5,0.6,1,1,1.2,1.1c0.4,0.1,0.9-0.1,1.4-0.5C129.3,101.3,129.6,101,130,100.6z"/>
	<path class="st2" d="M133.9,100.5l-9.5-12.4l2.1-1.6l1.4,1.9c-0.1-1.3-0.1-2.2,0.1-2.8c0.2-0.6,0.6-1.1,1.2-1.6
		c0.8-0.6,1.7-1,2.9-1.1l0.7,2.5c-0.8,0.1-1.5,0.4-2,0.8c-0.5,0.4-0.8,0.8-1,1.4c-0.2,0.6-0.2,1.1,0,1.7c0.3,1,0.8,2,1.5,2.9l5,6.5
		L133.9,100.5z"/>
	<path class="st2" d="M146.2,98.7l-1.6-1.9c0.6-0.2,1.1-0.5,1.5-0.7c0.5-0.3,0.9-0.7,1.1-1.1c0.2-0.4,0.3-0.8,0.4-1.3
		c0-0.2-0.2-1.1-0.5-2.8l-14-9.5l2.6-1.7l7.9,5.6c1,0.7,2,1.5,3,2.3c-0.4-1.2-0.7-2.4-1-3.6l-1.9-9.6l2.4-1.6l3.3,16.8
		c0.4,2.2,0.6,3.7,0.6,4.5c0,0.8-0.2,1.6-0.6,2.2c-0.4,0.6-0.9,1.1-1.5,1.5C147.5,98.2,146.9,98.5,146.2,98.7z"/>
	<path class="st2" d="M161.2,73.4c-1.1-2.4-1.3-4.6-0.5-6.5c0.8-1.9,2.2-3.3,4.3-4.3c2.1-1,4.1-1.1,6-0.5c2,0.6,3.5,2.1,4.6,4.4
		c1.2,2.5,1.4,4.7,0.6,6.6c-0.8,1.9-2.2,3.3-4.3,4.3c-2.1,1-4.1,1.1-6,0.5C163.9,77.4,162.3,75.8,161.2,73.4z M163.9,72.2
		c0.8,1.8,1.9,3,3.2,3.5c1.3,0.5,2.6,0.4,3.9-0.2c1.2-0.6,2.1-1.5,2.5-2.8c0.5-1.3,0.3-2.9-0.6-4.7c-0.8-1.8-1.9-3-3.2-3.4
		c-1.3-0.5-2.6-0.4-3.9,0.2c-1.2,0.6-2.1,1.5-2.5,2.8C162.9,68.8,163.1,70.4,163.9,72.2z"/>
	<path class="st2" d="M183.3,72.2l-4.7-12.7l-2.4,0.9l-0.7-1.9l2.4-0.9l-0.6-1.6c-0.4-1.1-0.6-2.1-0.5-2.8c0.1-0.7,0.4-1.3,1-1.9
		c0.5-0.5,1.3-1,2.3-1.4c0.8-0.3,1.6-0.5,2.6-0.7l0.4,2.3c-0.6,0.1-1.1,0.3-1.6,0.5c-0.8,0.3-1.3,0.7-1.6,1.1
		c-0.2,0.4-0.2,1.1,0.2,2l0.5,1.3l3.1-1.2l0.7,1.9l-3.1,1.2l4.7,12.7L183.3,72.2z"/>
	<path class="st2" d="M201,66.2l-4.6-21l3-0.7l1.9,8.6l11.9-2.6l-1.9-8.6l3-0.7l4.6,21l-3,0.7l-2.2-9.9l-11.9,2.6l2.2,9.9L201,66.2z
		"/>
	<path class="st2" d="M235.2,55.3l3,0c-0.3,1.7-1.1,3-2.3,4c-1.2,1-2.8,1.6-4.7,1.8c-2.4,0.3-4.4-0.2-6-1.4
		c-1.6-1.2-2.6-3.1-2.9-5.7c-0.3-2.7,0.2-4.8,1.6-6.3c1.3-1.6,3.2-2.5,5.5-2.7c2.2-0.2,4.1,0.3,5.7,1.5c1.6,1.2,2.6,3.1,2.8,5.8
		l0.1,0.7l-12.6,1.3c0.3,1.7,1,3,2,3.8c1.1,0.8,2.3,1.1,3.6,1C233.2,58.8,234.6,57.5,235.2,55.3z M225.3,52.1l9.4-1
		c-0.3-1.3-0.8-2.3-1.5-2.9c-1-0.9-2.2-1.2-3.7-1.1c-1.3,0.1-2.3,0.7-3.2,1.6C225.7,49.6,225.3,50.7,225.3,52.1z"/>
	<path class="st2" d="M253.8,57.7c-1,0.8-1.9,1.4-3,1.8c-1,0.4-2.1,0.6-3.2,0.6c-1.8,0-3.2-0.3-4.3-1.1c-1.1-0.8-1.6-1.9-1.6-3.2
		c0-0.9,0.2-1.7,0.7-2.4c0.5-0.7,1.1-1.3,2-1.7c0.9-0.4,2.1-0.7,3.9-0.9c2.3-0.3,4.1-0.6,5.1-1l0-0.7c0-1.1-0.3-1.8-0.8-2.2
		c-0.7-0.6-1.8-0.9-3.3-0.9c-1.3,0-2.3,0.2-3,0.7c-0.7,0.4-1.1,1.2-1.4,2.4l-2.8-0.3c0.4-1.7,1.2-2.9,2.4-3.7c1.2-0.8,3-1.2,5.3-1.2
		c1.8,0,3.2,0.2,4.2,0.7c1,0.5,1.7,1.1,2,1.8c0.3,0.7,0.4,1.8,0.5,3.2l0.1,3.5c0,2.5,0.1,4,0.3,4.6c0.1,0.6,0.4,1.3,0.8,1.9l-3,0.1
		C254.1,59,253.9,58.4,253.8,57.7z M253.5,51.8c-1,0.4-2.6,0.8-4.7,1.1c-1.2,0.2-2,0.4-2.5,0.6c-0.5,0.2-0.8,0.5-1.1,0.9
		c-0.3,0.4-0.4,0.8-0.4,1.3c0,0.7,0.3,1.3,0.9,1.8c0.6,0.4,1.5,0.6,2.6,0.6c1,0,2-0.2,2.8-0.7c0.8-0.4,1.4-1,1.9-1.6
		c0.4-0.7,0.6-1.7,0.6-2.9L253.5,51.8z"/>
	<path class="st2" d="M261.3,59.7l0.8-21.5l2.9,0.1l-0.8,21.5L261.3,59.7z"/>
	<path class="st2" d="M275.6,58.2l0.2,2.4c-0.8,0.1-1.5,0.1-2.2,0.1c-1-0.1-1.8-0.3-2.4-0.6c-0.6-0.3-1-0.8-1.2-1.3
		c-0.2-0.5-0.2-1.6-0.1-3.1l0.6-8.9l-2.1-0.1l0.1-2l2.1,0.1l0.3-3.8l3-1.4l-0.4,5.4l2.9,0.2l-0.1,2l-2.9-0.2l-0.6,9.1
		c-0.1,0.8,0,1.4,0.1,1.6c0.2,0.4,0.7,0.6,1.3,0.6C274.7,58.2,275.1,58.2,275.6,58.2z"/>
	<path class="st2" d="M278.5,60.7l2.8-21.3l2.8,0.4l-1,7.6c0.8-0.6,1.6-1,2.5-1.3c0.9-0.2,1.8-0.3,2.9-0.2c1.8,0.2,3.2,0.9,4.1,1.8
		c0.9,1,1.2,2.6,0.9,4.9l-1.3,9.8l-2.8-0.4l1.3-9.8c0.2-1.3,0-2.3-0.6-3c-0.6-0.7-1.4-1.1-2.5-1.2c-1.2-0.2-2.3,0.1-3.3,0.7
		c-1,0.6-1.6,1.9-1.8,3.8l-1.1,8.4L278.5,60.7z"/>
	<path class="st2" d="M317.6,66.4c-1.1,0.5-2.2,0.8-3.4,0.8c-1.1,0.1-2.2,0-3.3-0.3c-1.7-0.5-3-1.2-3.8-2.3c-0.8-1.1-1-2.2-0.7-3.5
		c0.2-0.9,0.7-1.6,1.3-2.1c0.7-0.5,1.5-0.9,2.4-1c0.9-0.2,2.3-0.1,4,0.2c2.3,0.4,4.1,0.5,5.2,0.5l0.2-0.6c0.3-1,0.2-1.8-0.1-2.4
		c-0.5-0.8-1.5-1.4-2.9-1.8c-1.3-0.4-2.3-0.4-3.1-0.2c-0.8,0.2-1.4,0.8-2,1.9l-2.6-1.1c0.8-1.5,1.9-2.5,3.3-2.9
		c1.4-0.4,3.2-0.3,5.4,0.3c1.7,0.5,3,1.1,3.9,1.8c0.8,0.8,1.3,1.5,1.4,2.3c0.1,0.8-0.1,1.9-0.5,3.2l-0.9,3.4c-0.6,2.4-1,3.9-1,4.5
		c-0.1,0.6,0,1.3,0.2,2l-2.9-0.8C317.5,67.8,317.5,67.2,317.6,66.4z M318.9,60.7c-1.1,0.1-2.7,0-4.8-0.3c-1.2-0.2-2.1-0.2-2.6-0.2
		s-1,0.2-1.3,0.5c-0.4,0.3-0.6,0.7-0.7,1.1c-0.2,0.7-0.1,1.4,0.4,2c0.5,0.6,1.2,1,2.3,1.3c1,0.3,1.9,0.3,2.9,0.2
		c0.9-0.2,1.7-0.5,2.2-1.1c0.6-0.5,1-1.4,1.4-2.7L318.9,60.7z"/>
	<path class="st2" d="M324.3,70.5l5.6-14.5l2.4,0.9l-0.8,2.1c0.9-0.6,1.8-0.9,2.8-1c1-0.1,2,0.1,3.1,0.5c0.8,0.3,1.6,0.8,2.2,1.3
		c0.6,0.5,1.1,1.1,1.4,1.7c0.3,0.6,0.4,1.2,0.4,2c0,0.7-0.3,1.8-0.8,3.1l-3.4,8.9l-2.7-1l3.4-8.8c0.4-1.1,0.6-1.9,0.5-2.5
		c-0.1-0.6-0.3-1.1-0.7-1.6c-0.4-0.5-1-0.8-1.6-1.1c-1.3-0.5-2.5-0.5-3.5-0.1c-1,0.4-1.9,1.5-2.6,3.3l-3,7.9L324.3,70.5z"/>
	<path class="st2" d="M351.5,82.3l0.9-1.8c-0.8,0.4-1.7,0.6-2.6,0.6c-0.9,0-1.8-0.2-2.6-0.7c-1.8-0.9-3-2.3-3.7-4.2
		c-0.7-1.9-0.4-4,0.7-6.3c0.8-1.6,1.8-2.8,2.9-3.6c1.1-0.8,2.3-1.2,3.6-1.3c1.2,0,2.5,0.2,3.6,0.8c0.8,0.4,1.6,1,2.1,1.7
		c0.6,0.7,0.9,1.5,1.1,2.3l3.5-6.9l2.6,1.3l-9.7,19.2L351.5,82.3z M346.8,71.3c-0.9,1.8-1.2,3.3-0.8,4.6c0.4,1.3,1.1,2.2,2.2,2.8
		c1.1,0.6,2.3,0.6,3.5,0.2c1.2-0.4,2.3-1.5,3.1-3.2c1-1.9,1.3-3.6,0.9-4.9c-0.4-1.3-1.1-2.3-2.4-2.9c-1.1-0.5-2.2-0.6-3.4-0.1
		C348.8,68.3,347.8,69.4,346.8,71.3z"/>
	<path class="st2" d="M370.1,93.6l8.3-20.8l2.5,2L375,88.1c-0.6,1.4-1.2,2.7-1.9,4.1l3.3-2.5l12.5-8.7l3,2.3l-4.1,10.6
		c-1,2.6-2.1,5-3.2,7.1c1.1-0.9,2.4-1.9,3.8-3l11.4-8.6l2.5,1.9l-18.3,13l-2.4-1.8l6.2-16l1-2.4c-0.8,0.6-1.4,1.1-2.1,1.6l-14,9.8
		L370.1,93.6z"/>
	<path class="st2" d="M402,115.1l1.8,2.4c-1.5,0.8-3.1,1-4.6,0.7c-1.5-0.3-2.9-1.2-4.3-2.6c-1.7-1.7-2.6-3.6-2.6-5.6
		c-0.1-2,0.8-3.9,2.7-5.7c1.9-1.9,3.9-2.8,6-2.7c2.1,0.1,3.9,1,5.5,2.6c1.5,1.6,2.3,3.4,2.4,5.4c0,2-0.9,4-2.8,5.8l-0.5,0.5
		l-8.9-9.1c-1.2,1.3-1.7,2.6-1.7,3.9c0,1.3,0.5,2.5,1.5,3.4C398.1,115.7,399.9,116,402,115.1z M398.4,105.4l6.6,6.8
		c0.9-1,1.3-2,1.4-2.9c0-1.3-0.4-2.5-1.4-3.5c-0.9-0.9-2-1.4-3.2-1.5C400.6,104.1,399.5,104.5,398.4,105.4z"/>
	<path class="st2" d="M403,123.8l16.4-13.9l1.9,2.2L404.9,126L403,123.8z"/>
	<path class="st2" d="M408.5,130.5l10.7-8.3l-1.6-2l1.6-1.3l1.6,2l1.3-1c1-0.7,1.8-1.2,2.5-1.3c0.7-0.1,1.4,0,2.1,0.4
		c0.7,0.4,1.3,0.9,2,1.8c0.5,0.6,1,1.4,1.4,2.3l-2.1,1.1c-0.3-0.5-0.6-1-0.9-1.4c-0.5-0.7-1-1.1-1.5-1.1c-0.5-0.1-1.1,0.2-1.9,0.7
		l-1.1,0.9l2,2.6l-1.6,1.3l-2-2.6l-10.7,8.3L408.5,130.5z"/>
	<path class="st2" d="M421.6,145.5c-1.2-0.4-2.2-0.9-3.1-1.5c-0.9-0.7-1.7-1.4-2.3-2.4c-1-1.5-1.4-2.9-1.4-4.2
		c0.1-1.3,0.7-2.4,1.8-3.1c0.7-0.5,1.5-0.7,2.4-0.7c0.9,0,1.7,0.3,2.5,0.8c0.8,0.5,1.8,1.4,2.9,2.8c1.5,1.8,2.7,3.1,3.6,3.8l0.6-0.4
		c0.9-0.6,1.4-1.2,1.4-1.9c0.1-0.9-0.2-2-1.1-3.3c-0.7-1.1-1.5-1.8-2.2-2.1c-0.7-0.3-1.6-0.3-2.8,0.1l-1.3-2.5
		c1.6-0.6,3.1-0.6,4.4,0c1.3,0.6,2.6,1.8,3.9,3.7c1,1.5,1.6,2.8,1.7,3.9c0.1,1.1,0,2-0.5,2.6c-0.5,0.6-1.3,1.4-2.5,2.1l-2.9,2
		c-2,1.4-3.3,2.3-3.8,2.7c-0.5,0.5-0.8,1-1.1,1.6l-1.7-2.5C420.6,146.5,421,146,421.6,145.5z M426.3,142c-0.9-0.7-2.1-1.8-3.5-3.4
		c-0.8-0.9-1.4-1.5-1.9-1.8c-0.4-0.3-0.9-0.4-1.3-0.5c-0.5,0-0.9,0.1-1.3,0.4c-0.6,0.4-0.9,1-1,1.8c0,0.8,0.3,1.6,0.9,2.5
		c0.6,0.9,1.3,1.5,2.1,2c0.8,0.5,1.6,0.7,2.4,0.7c0.8,0,1.7-0.4,2.8-1.1L426.3,142z"/>
	<path class="st2" d="M423.9,153l13.5-7.8l1.3,2.3l-2,1.2c1.3,0,2.2,0.2,2.8,0.5c0.6,0.3,1,0.8,1.4,1.4c0.5,0.8,0.7,1.8,0.7,3
		l-2.6,0.4c0-0.8-0.2-1.5-0.5-2.1c-0.3-0.5-0.7-0.9-1.3-1.2c-0.5-0.3-1.1-0.4-1.7-0.3c-1.1,0.2-2.1,0.6-3.1,1.1l-7.1,4.1L423.9,153z
		"/>
	<path class="st2" d="M439.2,171.1l1,2.8c-1.7,0.3-3.2,0-4.6-0.8c-1.3-0.8-2.4-2-3.3-3.8c-1.1-2.2-1.3-4.2-0.7-6.2
		c0.6-1.9,2-3.5,4.4-4.6c2.4-1.2,4.6-1.4,6.5-0.7c1.9,0.7,3.4,2.1,4.4,4.2c1,2,1.2,3.9,0.6,5.9c-0.6,1.9-2.1,3.5-4.4,4.6l-0.6,0.3
		l-5.6-11.4c-1.5,0.9-2.5,1.9-2.8,3.2c-0.4,1.3-0.3,2.5,0.3,3.7C435.3,170.4,436.9,171.2,439.2,171.1z M438.8,160.7l4.2,8.5
		c1.2-0.7,1.9-1.5,2.2-2.4c0.5-1.3,0.4-2.5-0.3-3.8c-0.6-1.2-1.4-2-2.5-2.4C441.3,160.1,440.1,160.2,438.8,160.7z"/>
</g>
<g>
	<path class="st2" d="M155.8,433.8c1.3,1.5,2,2.4,1.9,2.5c-0.1,0.2-0.2,0.2-0.3,0.1c-0.3-0.1-0.6-0.1-0.8,0c-1.2,0.9-2.3,1.5-3.3,2
		l-6.3,13.1c-0.1,0.2-0.3,0.3-0.7,0.1l-1.3-0.6c-0.3-0.1-0.3-0.3-0.2-0.5l5.3-10.9c-0.8,0.2-1.8,0.5-3,0.7c-0.2-0.1-0.4-0.3-0.5-0.5
		c-0.2-0.3-0.4-0.7-0.6-1.1c-0.1-0.2-0.1-0.3-0.1-0.4c1-0.2,2-0.5,3.1-0.8c1.4-0.4,2.7-0.9,3.9-1.6c1.1-0.6,2-1.3,2.8-2
		C155.6,433.8,155.7,433.7,155.8,433.8z M161.7,451l-1,2.2l3.8,1.8c0.2,0.1,0.2,0.2,0.1,0.4l-0.4,0.9c-0.1,0.3-0.3,0.4-0.5,0.3
		l-3.8-1.8l-1.2,2.5c-0.1,0.2-0.3,0.3-0.6,0.1l-1.3-0.6c-0.3-0.1-0.3-0.3-0.2-0.5l1.2-2.5l-8.2-4c-0.2-0.1-0.2-0.3,0-0.5l0.4-0.9
		c0.1-0.2,0.2-0.3,0.4-0.2l2.1,1l1.7-3.4c0.1-0.2,0.3-0.2,0.5-0.1l5.7,2.8l0.7-1.5c0.1-0.1,0.2-0.2,0.5,0c1.5,0.7,2.2,1.2,2.1,1.4
		c-0.1,0.2-0.3,0.3-0.4,0.3c-0.2-0.1-0.3,0.1-0.5,0.4l-0.3,0.6l3.3,1.6c0.2,0.1,0.2,0.2,0.1,0.4l-0.4,0.9c-0.1,0.3-0.3,0.4-0.5,0.3
		L161.7,451z M158.9,427.1c1.3,1.5,2,2.4,1.9,2.5c-0.1,0.2-0.2,0.2-0.3,0.1c-0.3-0.1-0.6-0.1-0.8,0c-1.5,0.9-2.9,1.5-4.1,1.7
		c-0.7,0.2-1.8,0.4-3.3,0.6c-0.2-0.1-0.4-0.3-0.5-0.5c-0.2-0.4-0.4-0.7-0.6-1.1c-0.1-0.2-0.1-0.3-0.1-0.4c0.8-0.1,1.6-0.3,2.5-0.4
		c1.1-0.2,2.1-0.6,3-1.1c0.8-0.4,1.6-0.9,2.1-1.3C158.7,427.1,158.8,427,158.9,427.1z M155.7,448.1l-1,2.2l3.9,1.9l1-2.2
		L155.7,448.1z M158.5,438.7l9.6,4.6c0.3,0.2,0.4,0.4,0.3,0.6l-2.1,4.2c-0.1,0.2-0.3,0.3-0.7,0.1l-9.6-4.6c-0.3-0.2-0.4-0.4-0.3-0.6
		l2.1-4.2C158,438.5,158.2,438.5,158.5,438.7z M161.4,431.2l3.3,1.6c0.5-0.6,1-1.3,1.5-2c0.1-0.1,0.3-0.1,0.5,0l1.6,1.2
		c0.2,0.2,0.3,0.4,0.2,0.6c-0.1,0.2-0.3,0.3-0.6,0.2c-0.2,0-0.4,0-0.5,0.2c-0.2,0.3-0.4,0.6-0.6,0.9l4.4,2.1
		c0.3,0.2,0.5,0.4,0.3,0.6l-1.8,3.6l1,0.5c0.2,0.1,0.2,0.2,0.1,0.5l-0.4,0.9c-0.1,0.2-0.2,0.2-0.4,0.2l-12.1-5.9
		c-0.2-0.1-0.2-0.2-0.1-0.4l0.4-0.9c0.1-0.2,0.2-0.3,0.4-0.2l3.3,1.6c0.5-0.7,1.1-1.4,1.7-2.2l-3.1-1.5c-0.2-0.1-0.2-0.2-0.1-0.4
		l0.4-0.8C161.1,431.2,161.2,431.1,161.4,431.2z M164.8,445.9l0.9-1.9l-6.3-3l-0.9,1.9L164.8,445.9z M171.1,442.5l7.9,3.8
		c0.3,0.1,0.3,0.3,0.2,0.6l-0.4,0.9c-0.1,0.3-0.3,0.4-0.6,0.2l-2.3-1.1l-6.6,13.7c-0.6,1.3-2.2,1.3-4.6,0.2l-1-0.5
		c-0.1-0.1-0.1-0.3,0-0.6c0.2-0.4,0.2-0.9,0.2-1.6l0.1-0.1c0.5,0.4,0.9,0.7,1.4,0.9c1.1,0.5,1.8,0.5,2.1-0.1l6.3-13l-3.5-1.7
		c-0.3-0.1-0.3-0.3-0.2-0.6l0.4-0.9C170.6,442.5,170.8,442.4,171.1,442.5z M163.9,437.3l3.7,1.8l1.2-2.5l-3.1-1.5
		C165.1,435.9,164.5,436.7,163.9,437.3z M175.2,437.4l5.8,2.8c0.3,0.1,0.3,0.3,0.2,0.6l-0.4,0.9c-0.1,0.3-0.3,0.4-0.6,0.2l-5.8-2.8
		c-0.3-0.1-0.3-0.3-0.2-0.6l0.4-0.9C174.7,437.3,174.9,437.2,175.2,437.4z"/>
	<path class="st2" d="M203.7,445.7l2.3,1.3c0.2,0.2,0.3,0.4,0.3,0.5c-0.1,0.3-0.2,0.4-0.5,0.4c-0.3-0.1-0.5,0-0.6,0.3
		c-0.7,1.2-1.3,2.1-1.7,2.9l8.3,1.7l1.1-5.3c0.1-0.2,0.3-0.3,0.6-0.2c1.7,0.4,2.6,0.7,2.5,0.9c-0.1,0.3-0.2,0.4-0.4,0.4
		c-0.2,0-0.4,0.1-0.5,0.5l-0.9,4.2l11.5,2.4c0.3,0.1,0.4,0.2,0.3,0.4l-0.2,1.2c-0.1,0.3-0.2,0.4-0.5,0.4l-11.5-2.4l-1.4,6.6l9.9,2.1
		c0.3,0.1,0.4,0.2,0.3,0.5l-0.2,1c-0.1,0.3-0.2,0.4-0.5,0.4l-9.9-2.1l-1.7,7.9l13.1,2.8c0.3,0.1,0.4,0.2,0.3,0.5l-0.2,1.2
		c-0.1,0.3-0.2,0.4-0.5,0.4l-30.4-6.4c-0.3-0.1-0.4-0.2-0.3-0.5l0.2-1.2c0.1-0.3,0.2-0.4,0.5-0.3l14.8,3.1l1.7-7.9l-10.7-2.2
		c-0.3-0.1-0.4-0.2-0.3-0.5l0.2-1c0.1-0.3,0.2-0.4,0.5-0.4l10.7,2.2l1.4-6.6l-9.2-1.9c-0.7,0.9-1.4,1.6-2.1,2.4
		c-0.8,0.8-1.6,1.4-2.5,2c-0.3-0.1-0.6-0.2-0.8-0.3c-0.4-0.3-0.9-0.5-1.3-0.8c-0.1-0.1-0.2-0.2-0.2-0.3c0-0.1,0.1-0.2,0.2-0.3
		c1.4-0.8,2.6-1.9,3.8-3.3c0.7-0.8,1.4-1.7,2-2.6c0.7-1,1.4-2.2,2.1-3.8C203.4,445.7,203.6,445.7,203.7,445.7z"/>
	<path class="st2" d="M245.9,459.1l12.3-0.2c0.3,0,0.4,0.1,0.4,0.5l0,0.9c0,0.3-0.1,0.5-0.4,0.5l-4.6,0.1l0.3,17.9
		c0,0.3-0.2,0.4-0.6,0.4l-1.4,0c-0.4,0-0.6-0.1-0.6-0.4l-0.3-17.9L246,461c-0.3,0-0.4-0.2-0.4-0.5l0-0.9
		C245.5,459.3,245.7,459.1,245.9,459.1z M247.3,463.2l2.6,0.5c0.3,0.1,0.4,0.2,0.4,0.3c0,0.2-0.1,0.4-0.3,0.4
		c-0.3,0.1-0.6,0.5-0.6,1c0.1,3.6,0,6.1-0.2,7.5c-0.2,1.3-0.5,2.5-0.7,3.5c0,0.2-0.1,0.3-0.4,0.3c-1.4-0.4-2.1-0.6-2.1-0.7
		c0.5-1.6,0.8-2.9,0.9-3.9c0.2-1.9,0.3-4.8,0.2-8.6C247,463.3,247.1,463.2,247.3,463.2z M247.5,453.1l9.1-0.1c0.3,0,0.4,0.2,0.4,0.5
		l0,0.9c0,0.3-0.1,0.5-0.4,0.5l-9.1,0.1c-0.3,0-0.4-0.2-0.4-0.5l0-0.9C247.1,453.3,247.2,453.1,247.5,453.1z M256.2,463.2l1.3,0
		c0.4,0,0.6,0.2,0.6,0.5c-0.3,1.1-0.4,2.2-0.4,3.3c0,2.9,0.5,5.6,1.4,8.1c0,0.1-0.1,0.2-0.3,0.3c-1.2,0.1-1.9,0.2-2,0.2l-0.2-0.4
		c-0.5-3.7-0.8-7.5-0.8-11.4C255.6,463.4,255.8,463.2,256.2,463.2z M260.2,452.6l16.9-0.3c0.3,0,0.4,0.2,0.4,0.5l0,0.9
		c0,0.3-0.1,0.5-0.4,0.5l-16.9,0.3c-0.3,0-0.4-0.1-0.4-0.5l0-0.9C259.8,452.7,259.9,452.6,260.2,452.6z M260.4,465.7l16.6-0.3
		c0.4,0,0.6,0.1,0.6,0.3l0.2,12.6c0,0.3-0.2,0.4-0.6,0.4l-1.4,0c-0.4,0-0.6-0.1-0.6-0.4l0-1.2l-12.7,0.2l0,1.2
		c0,0.3-0.2,0.4-0.6,0.4l-1.4,0c-0.4,0-0.6-0.1-0.6-0.4l-0.2-12.5C259.9,465.9,260.1,465.7,260.4,465.7z M261.7,456.5l14-0.2
		c0.4,0,0.6,0.1,0.6,0.3l0.1,6.5c0,0.3-0.2,0.4-0.6,0.4l-14,0.2c-0.4,0-0.6-0.1-0.6-0.4l-0.1-6.5
		C261.1,456.6,261.3,456.5,261.7,456.5z M262.5,470.6l5.2-0.1l0-3l-5.2,0.1L262.5,470.6z M262.6,475.6l5.2-0.1l-0.1-3.1l-5.2,0.1
		L262.6,475.6z M273.8,461.6l-0.1-3.4l-10.1,0.2l0.1,3.4L273.8,461.6z M270.1,467.5l0,3l5-0.1l0-3L270.1,467.5z M270.2,475.5l5-0.1
		l-0.1-3.1l-5,0.1L270.2,475.5z"/>
	<path class="st2" d="M309.4,447.1c-0.1,0-0.3,0.1-0.6,0.2c-0.9,0.6-1.9,1.2-3.2,1.8c-0.2,0.1-0.5,0.3-0.7,0.4l1.4,5.1l6.5-1.7
		c0.3-0.1,0.4,0,0.5,0.4l0.2,0.9c0.1,0.3,0,0.5-0.3,0.6l-6.1,1.6c1,1.1,1.9,1.9,2.7,2.5c1,0.8,2.6,1.6,4.8,2.5
		c0.2,0,0.4,0.1,0.4,0.2c0,0.1,0,0.2-0.2,0.3c-0.2,0.3-0.4,0.7-0.8,1.2c-0.1,0.2-0.2,0.3-0.3,0.3c-0.1,0-0.4,0-0.7,0
		c-1.5-0.7-2.9-1.5-4.2-2.5c-0.5-0.4-0.9-0.8-1.4-1.2l3.5,13.1c0.1,0.2-0.1,0.4-0.5,0.5l-1.4,0.4c-0.4,0.1-0.6,0-0.6-0.2l-3.3-12.2
		c-0.1,0.2-0.1,0.5-0.2,0.7c-0.5,1.4-1,2.7-1.7,3.9c-0.8,1.3-1.6,2.5-2.4,3.5c-0.3,0.1-0.5,0.1-0.7,0c-0.5-0.2-1.1-0.5-1.6-0.7
		c-0.1-0.1-0.2-0.2-0.2-0.3c0.8-0.9,1.5-1.7,2-2.5c0.7-1,1.4-2.3,2.1-3.9c0.4-1,0.9-2.6,1.4-4.8l-7.3,2c-0.3,0.1-0.4,0-0.5-0.4
		l-0.2-0.9c-0.1-0.3,0-0.5,0.3-0.6l7.6-2l-1.3-4.7c-0.4,0.2-0.8,0.3-1.1,0.5c-1.6,0.6-3,1-4.3,1.4c-0.4,0.1-0.7,0-0.9-0.2
		c-0.4-0.3-0.8-0.6-1.3-0.9c-0.1-0.2,0.1-0.4,0.3-0.4l2-0.5c1.6-0.4,3-0.9,4.2-1.4c1.1-0.4,2.1-0.8,3.1-1.4c1.2-0.6,2.1-1.3,2.8-2
		c0.1-0.1,0.2-0.1,0.2-0.2c0.3-0.1,0.5-0.1,0.6,0c1.6,0.6,2.4,1.1,2.5,1.3c0.1,0.2,0,0.4-0.3,0.4L309.4,447.1z M314.8,447.4
		c1.7-0.5,2.6-0.6,2.7-0.3c0.1,0.3,0,0.5-0.2,0.5c-0.2,0.1-0.3,0.3-0.2,0.7l4,14.8c0.1,0.2-0.1,0.4-0.5,0.5l-1.4,0.4
		c-0.4,0.1-0.6,0-0.6-0.2l-4.3-15.8C314.3,447.6,314.4,447.5,314.8,447.4z M321,442.3l3-0.5c0.3,0,0.5,0.1,0.5,0.1
		c0.1,0.2-0.1,0.4-0.4,0.5c-0.4,0.3-0.6,0.9-0.3,1.7l5.8,21.5c0.4,1.6-0.6,2.7-3.2,3.3l-2.4,0.7c-0.2,0-0.3-0.1-0.4-0.5
		c-0.2-0.4-0.5-0.8-1.1-1.2c-0.1-0.2,0-0.4,0.2-0.4c1.1-0.1,2.1-0.2,2.9-0.4c1-0.3,1.4-0.7,1.2-1.4l-5.6-20.9
		c-0.2-0.6-0.3-1.1-0.5-1.4c-0.1-0.2-0.2-0.4-0.2-0.6C320.4,442.5,320.6,442.4,321,442.3z"/>
	<path class="st2" d="M346.5,430.4c1.5-0.9,2.4-1.2,2.5-1c0.1,0.2,0.1,0.4-0.1,0.6c-0.2,0.1-0.2,0.4,0,0.7l1.2,2.1l5.9-3.4
		c0.2-0.1,0.4-0.1,0.6,0.2l0.5,0.8c0.2,0.3,0.1,0.5-0.1,0.6l-14.4,8.3c-0.2,0.1-0.4,0.1-0.6-0.2l-0.5-0.8c-0.2-0.3-0.1-0.5,0.1-0.6
		l6.3-3.6l-1.7-3C346,430.8,346.1,430.6,346.5,430.4z M346.1,437.9c1,0.6,1.9,1.2,2.7,1.8c0.7,0.5,1.4,1,2.1,1.7
		c0,0.1-0.5,0.6-1.7,1.7c-0.4-0.5-0.9-1-1.6-1.5c-0.8-0.6-1.6-1.2-2.6-1.7C344.8,439.6,345.2,439,346.1,437.9z M345.3,445.5
		l15.8-9.1c0.2-0.1,0.4-0.1,0.6,0.2l0.5,0.8c0.2,0.3,0.1,0.5-0.1,0.6l-15.8,9.1c-0.2,0.1-0.4,0.1-0.6-0.2l-0.5-0.8
		C345,445.8,345.1,445.6,345.3,445.5z M349.3,448l11.7-6.7c0.3-0.2,0.5-0.2,0.7,0l5.1,8.9c0.1,0.2,0,0.4-0.3,0.6l-1.2,0.7
		c-0.3,0.2-0.5,0.2-0.6-0.1l-0.7-1.2l-8.3,4.8l0.7,1.2c0.1,0.2,0,0.4-0.3,0.6l-1.2,0.7c-0.3,0.2-0.6,0.2-0.7-0.1l-5.1-8.8
		C348.9,448.4,349,448.2,349.3,448z M354.7,453.3l8.3-4.8l-2.7-4.6l-8.3,4.8L354.7,453.3z M354,433l2.2-0.4c0.4-0.1,0.6,0,0.7,0.2
		c0.1,0.1,0,0.3-0.1,0.4c-0.2,0.1-0.3,0.3-0.2,0.5c0.3,1.8,0.3,3.3,0.2,4.5c0,0.3,0,0.4-0.1,0.5c-0.1,0.1-0.3,0.1-0.6,0.1
		c-0.5,0.1-1,0.2-1.4,0.2c-0.2,0-0.3,0-0.3,0c0-0.1,0-0.1,0-0.2c0.1-1.1,0.2-1.9,0.1-2.7c0-1-0.1-1.8-0.4-2.7
		C353.9,433.3,353.9,433.1,354,433z M360.3,426l12.1,21c0.1,0.2,0,0.4-0.3,0.6l-1.2,0.7c-0.3,0.2-0.6,0.2-0.7-0.1L357.3,426
		c-0.1-0.2,0-0.4,0.3-0.6l8.5-4.9c0.4-0.2,0.7-0.3,0.9-0.3c0.7,0,1.1,0.1,1.2,0.2l-0.1,9.9c0,0.2,0.1,0.4,0.1,0.5
		c0.1,0.1,0.2,0.2,0.4,0.3c1.6,0.3,3.1,0.9,4.5,1.8c1.5,0.9,2.6,2.1,3.4,3.4c0.5,0.9,0.8,1.8,0.7,2.8c0,1-0.4,1.8-1.1,2.6
		c-0.4,0.6-1.2,1.3-2.5,2.1c-0.5,0.3-0.9,0.3-1.1,0c-0.5-0.6-0.9-0.9-1.4-1.1c-0.1-0.2-0.1-0.4,0.2-0.5l1.6-0.6
		c1-0.6,1.5-1.2,1.6-1.9c0.2-0.6,0.1-1.3-0.3-2c-0.6-1-1.5-1.9-2.7-2.7c-1.5-0.9-3.3-1.6-5.3-2.1c-0.2,0-0.4-0.1-0.5-0.2
		c0-0.1-0.1-0.2-0.1-0.5l0.3-9.5L360.3,426z"/>
</g>
<g>
	<path class="st3" d="M441.4,255.4c0,103-83.5,186.5-186.5,186.5c-103,0-186.5-83.5-186.5-186.5c0-103,83.5-186.5,186.5-186.5
		C357.9,68.9,441.4,152.4,441.4,255.4z"/>
</g>
<g>
	<path class="st4" d="M339.5,146.4c-8.6-0.2-17.2-0.6-25.7-0.3c-2.5,0.6-4.9,1-7.2,1.7c-11.3,3.5-16.3,8-20.2,19.1
		c-3.6,19.7,3.7,43.4,8.9,63.1c3.6,7.1,5.8,12.1,14.6,14.3c3.5-0.3,3.5-0.3,4.2-0.6c4.7-5.4,4.9-11.9,3.6-18.3
		c-1.5-4.8-2.8-9.4-4.1-14.1c-4.6-11.7-10.7-24.1-13.4-35.8c0-5.4,0.1-4.4,3.9-8.2c9.6-4.2,22.4-2.3,33.7-4.4
		c3.3-1.5,7.7-3.5,9.6-6.8C349.8,149.6,343.9,147.5,339.5,146.4z"/>
	<path class="st4" d="M218.4,163.5c-1.2-1.6-2.4-3.3-3.6-4.9c-4.7-4.7-10.1-7-15.3-9.4c-2.6-0.7-2.6-0.7-3.3-1
		c-13.4-3.3-27.3-4.3-40.5-3.6c-1.8,4.3,1.1,10.5,3.6,14.4c6,5.2,12.4,5.2,20.6,6.2c9.5,0.4,21.7-1.4,25.8,10.1
		c0.6,13.4-5.2,26.1-9.4,38.8c-2.6,10.6-7.4,22.9,6.5,27.7c4.5-0.4,5.4-0.1,8.9-3.3c4.4-8.3,5.4-17.4,7.1-26.5
		c1.4-10.4,2-20.4,2.3-30.4c-0.1-5.3-0.1-5.3-0.5-10.5C219.9,168.5,219.1,166.1,218.4,163.5z"/>
	<path class="st4" d="M348.4,119c-5.3-4.3-12-5.4-18-6.2c-9,0.3-18.8,1.4-20,11.7c0.4,5.6,0.1,5.8,5.6,9.1c3.7,0.6,7.6,1.3,12,1.7
		c7.6-0.7,15.1-0.1,21.4-5.8C352,125.5,350.7,122.1,348.4,119z"/>
	<path class="st4" d="M162.4,130.8c5.8,1.3,10.9,1.9,17.6,2c4.9-0.3,9.6-0.2,14.2-3.6c5.1-7.6-3-11.9-8.7-14.3
		c-11.3-2.3-29-6.7-31.7,8.8C154.5,128.8,157.4,128.9,162.4,130.8z"/>
	<path class="st4" d="M258.5,107.4l0-2.2c0.1-9.1,0.1-9.1-0.3-32.2c-0.4-2.3-4.2-1.5-5.4-0.8l-0.5,0.9c0.6,24.6,0.6,24.6,0.5,33.2
		c-8.6-0.4-23.8-2.3-29.2,6.3c-1.7,5.1-1,4.4-6,6.4l-0.1,0.7c1.3,0.3,3.4,0.3,5.3,0.4l-3.7,2.3l-0.1,0.5c1.4,0.3,3.4-0.2,5.2,0.4
		c7.9,4.6,15.4,1.3,24.5-0.8l4.3,0.1c0.1,7,0.1,13.7,0.3,20.6l-2.3,1.8c-7.1,2.6-12.8,4.8-18.1,10.1c-4.1,7.6-2.4,13.6,3.8,19.8
		l0.5,0.2l0,0.4c3.1,1.7,6.3,3.6,10.4,4.4c2.1,0.3,4.2,0.5,6.4,0.6c0.2,4.2-0.1,8.4,0.3,13.2c-14.7,3-25.6,7.8-20.4,25.1
		c0.9,1.7,1.9,3.7,2.8,5.5c3.4,4.1,7.1,6.3,12.1,8.9c2.4,0.2,4.2,2,6,2.4c0.2,4.7,0.4,8.8,0.3,11.9c0.9,0.1,1.8,0.1,2.8,0.1
		c0.9,0,1.8-0.1,2.7-0.2c-0.1-1.2-0.1-12,0.5-13.1c5.2-2.1,10.3-3.1,15.4-6.2c3.5-3.6,4.7-6.9,5.1-11.6l-1.5,0.6
		c-2,2.8-3.8,5.1-6.6,7.3c-2.5,0.8-10.8,4.4-12.9,2.5c-0.2-8.1-1.1-16.6-0.8-24.3c7.5-1.5,13.3-2.5,18.1-9.4
		c4.4-9.6,0.3-15.5-7.8-19.6c-3.5-0.8-8.3-1.7-11.8-2.5c-0.4-6.3-0.5-12-0.7-18c1.9-0.9,6.6-2.2,11.6-4.1
		c7.9-3.8,12.3-7.2,14.5-16.1c0.1-2.8,0.2-5.3-0.2-7.6C280.4,115,267.6,109.7,258.5,107.4z M237.7,115.5l-2.9,1.3
		c-1.3-1.6-1.5-1.6-3.1-1.5l-0.9,2.8c-1.4,0.4-1.4,0.4-3.1,0.6c-2.5-1.2-1.8-1.9-0.8-3.3c3.9-2.2,6.2-2.4,10.8-1.1L237.7,115.5z
		 M253.3,170.9l-2.3-0.5c-2.2-0.5-4.5-1.2-6.2-1.7c-1.9-1.4-1.9-1.4-2.4-1.4v-0.4l-0.4-0.2c-3.6-7,1.9-9.2,7.3-11.5l3.9-1
		C253.5,158,253.4,159.3,253.3,170.9z M254.5,227.1l-2-0.3c-7.8-2.2-14.9-8.9-12.1-17.1c2.8-4.4,8.4-5.9,13.6-6.6
		C254.3,216.4,254.8,217.4,254.5,227.1z M267.6,184.6c1.2,2.3,1.1,4.7-1,6.7c-2.7,1.4-4.5,1.8-6.9,2.4l-0.6-0.3
		c-0.3-4.2,0-8.7,0-12.7C262.3,180.9,265.2,181.5,267.6,184.6z M267.1,135.6l0.1,0.4c-3.4,2.5-5.9,3.7-9.3,5.2
		c-0.3-6.1-0.4-12-0.1-18c4.2-0.2,10.5,2.6,11.6,6.3C269.5,131.3,269.3,134.3,267.1,135.6z"/>
</g>
<path class="st0" d="M268.9,339.7c0-6.2-5-11.2-11.2-11.2c-6.2,0-11.2,5-11.2,11.2s5,11.2,11.2,11.2
	C263.8,350.9,268.9,345.8,268.9,339.7z M312,311.9c0.4-0.4,0.5-1,0.1-1.5c-0.4-0.5-1-0.6-1.5-0.3c-0.3,0.2-3.7,2.4-8.6,6.7
	c-5.5-13.6-12-25.1-18.4-34.5c-7.7-11.3-15.9-20.4-23-27.4c4.5-5.2,9.3-10.3,14.5-15.3c0.4-0.4,0.5-1,0.1-1.5
	c-0.4-0.5-1-0.6-1.5-0.3c-0.1,0.1-7.2,4.6-16.8,13.5c-9.7-9-16.7-13.5-16.8-13.5c-0.5-0.3-1.1-0.2-1.5,0.3c-0.4,0.5-0.3,1.1,0.1,1.5
	c5.2,5,10,10.1,14.5,15.3c-7.1,7-15.2,16.1-23,27.4c-6.2,9.1-12.6,20.3-18,33.5c-4.3-3.7-7.2-5.6-7.5-5.7c-0.5-0.3-1.1-0.2-1.5,0.3
	c-0.4,0.5-0.3,1.1,0.1,1.5c2.6,2.5,5.1,5.1,7.4,7.7c-9.9,26-15.7,59.4-9.2,100.1c0.1,0.6,0.6,1,1.2,0.9s1-0.6,1-1.2
	c-0.1-0.6-3-41.6,14.4-90.8c33.4,44.5,29.7,94.8,29.7,95.4c0,0.6,0.4,1.1,1,1.2s1.1-0.3,1.2-0.9c6.4-40.2-6.3-69.1-18-86.3
	c-4-5.9-8.1-10.8-11.9-14.7c7.9-20.8,19.6-42.9,36.8-64c17.5,21.4,29.2,43.9,37.2,65.1c-3.5,3.8-7.2,8.3-10.9,13.6
	c-11.7,17.2-24.4,46.1-18,86.3c0.1,0.6,0.6,1,1.2,0.9c0.6-0.1,1-0.6,1-1.2c0-0.6-3.6-49.9,28.7-94c16.9,48.6,14,88.8,13.9,89.4
	c0,0.6,0.4,1.1,1,1.2c0.6,0.1,1.1-0.3,1.2-0.9c6.4-40.1,0.9-73.2-8.8-99C306.1,317.7,308.9,314.8,312,311.9z M206.3,284.5
	c0-9.7-7.9-17.5-17.5-17.5s-17.5,7.9-17.5,17.5c0,9.7,7.9,17.5,17.5,17.5S206.3,294.2,206.3,284.5z M103.8,237.8
	c-0.5-0.3-1.1-0.2-1.5,0.3c-0.4,0.5-0.3,1.1,0.1,1.5c79,76.1,71.4,178.8,71.4,179.9c0,0.6,0.4,1.1,1,1.2c0.6,0.1,1.1-0.3,1.2-0.9
	c10.2-64-9.9-110-28.7-137.4C127.1,252.7,104.1,238,103.8,237.8z M342.6,284.5c0-4.7-1.8-9.1-5.1-12.4c-3.3-3.3-7.7-5.1-12.4-5.1
	c-9.7,0-17.5,7.9-17.5,17.5c0,9.7,7.9,17.5,17.5,17.5C334.7,302,342.6,294.2,342.6,284.5z M411.5,238.1c-0.4-0.5-1-0.6-1.5-0.3
	c-0.2,0.1-23.3,14.9-43.5,44.5c-18.7,27.4-38.9,73.4-28.7,137.4c0.1,0.6,0.6,1,1.2,0.9c0.6-0.1,1-0.6,1-1.2
	c-0.1-1-7.6-103.8,71.4-179.9C411.8,239.2,411.8,238.5,411.5,238.1z"/>
</svg>
