<?xml version="1.0" encoding="utf-8"?>
<!-- Generator: Adobe Illustrator 23.0.3, SVG Export Plug-In . SVG Version: 6.00 Build 0)  -->
<svg version="1.1" id="圖層_1" xmlns="http://www.w3.org/2000/svg" xmlns:xlink="http://www.w3.org/1999/xlink" x="0px" y="0px"
	 viewBox="0 0 512 512" style="enable-background:new 0 0 512 512;" xml:space="preserve">
<style type="text/css">
	.st0{fill:#678D98;}
	.st1{fill:#537983;}
	.st2{fill:#8EBAC5;}
	.st3{fill:#7CA1B1;}
	.st4{fill:#FFF1AF;}
	.st5{fill:#FFEA7E;}
	.st6{fill:#6FD6A2;}
	.st7{fill:#43CD8E;}
	.st8{fill:#E63950;}
	.st9{fill:#CC2E43;}
	.st10{fill:#FFF5F5;}
	.st11{fill:#EFE2DD;}
</style>
<path class="st0" d="M164.4,412.3h112v60.8h-112V412.3z"/>
<path class="st1" d="M258.4,412.3h17.9v60.8h-17.9V412.3z"/>
<path class="st2" d="M341.6,512.5H99.1c-3.5,0-6.3-2.8-6.3-6.3v-27.5c0-8.8,7.2-16,16-16h223.1c8.8,0,16,7.2,16,16v27.5
	C347.9,509.7,345.1,512.5,341.6,512.5z"/>
<path class="st3" d="M347.9,478.7v27.5c0,3.5-2.8,6.3-6.3,6.3h-18.1c3.5,0,6.3-2.8,6.3-6.3v-27.5c0-8.8-7.2-16-16-16h18.1
	C340.7,462.6,347.9,469.8,347.9,478.7z"/>
<path class="st4" d="M403.7,419.6H39.9c-22,0-39.9-17.9-39.9-39.9V109c0-22,17.9-39.9,39.9-39.9h363.8c22,0,39.9,17.9,39.9,39.9
	v270.7C443.6,401.7,425.7,419.6,403.7,419.6z"/>
<path class="st2" d="M403.7,419.6H39.9c-22,0-39.9-17.9-39.9-39.9v-13h443.6v13C443.6,401.7,425.7,419.6,403.7,419.6z"/>
<path class="st5" d="M443.6,109v270.7c0,22-17.9,39.9-39.9,39.9h-22.1c22,0,39.9-17.9,39.9-39.9V109c0-22-19.1-39.9-41.2-39.9
	l23.3,0C425.7,69.1,443.6,86.9,443.6,109z"/>
<path class="st3" d="M443.6,366.7v13c0,22-17.9,39.9-39.9,39.9h-22.1c22,0,39.9-17.9,39.9-39.9v-13H443.6z"/>
<path class="st6" d="M370,293.9H73.6c-12.5,0-22.6-10.1-22.6-22.6v-80.4c0-12.5,10.1-22.6,22.6-22.6H370c12.5,0,22.6,10.1,22.6,22.6
	v80.4C392.6,283.8,382.5,293.9,370,293.9z"/>
<path class="st7" d="M392.6,190.9v80.4c0,12.5-10.1,22.6-22.6,22.6h-29c12.5,0,22.6-10.1,22.6-22.6v-80.4
	c0-12.5-10.1-22.6-22.6-22.6h29C382.5,168.3,392.6,178.4,392.6,190.9z"/>
<g>
	<path class="st8" d="M101.2,200c11.9,0,21.2,5.5,21.2,20.3v22.3c0,14.8-9.3,20.3-21.2,20.3H86c-3.5,0-5.9-1.9-5.9-4V204
		c0-2.2,2.3-4,5.9-4H101.2z M93.6,211.7v39.5h7.7c4.8,0,7.7-2.8,7.7-8.6v-22.3c0-5.9-2.9-8.6-7.7-8.6H93.6z"/>
	<path class="st8" d="M130.2,243.1v-22.8c0-14.8,9.2-20.3,21.1-20.3c11.9,0,21.2,5.5,21.2,20.3v22.8c0,14.8-9.3,20.3-21.2,20.3
		C139.5,263.4,130.2,257.9,130.2,243.1z M159.1,220.3c0-5.9-2.9-8.6-7.7-8.6c-4.8,0-7.7,2.7-7.7,8.6v22.8c0,5.9,2.8,8.6,7.7,8.6
		c4.8,0,7.7-2.7,7.7-8.6V220.3z"/>
	<path class="st8" d="M210.9,259.3l-16.4-29.8v29.3c0,2.8-3.4,4.1-6.7,4.1c-3.4,0-6.7-1.4-6.7-4.1v-54.7c0-2.8,3.4-4.1,6.7-4.1
		c4.8,0,6.6,0.4,9.9,6.7l13.9,26.6V204c0-2.8,3.4-4,6.7-4c3.4,0,6.7,1.2,6.7,4v54.7c0,2.8-3.4,4.1-6.7,4.1
		C215.3,262.9,212.5,262.3,210.9,259.3z"/>
	<path class="st8" d="M230.1,257.4c0-0.3,0.1-0.6,0.2-0.9l16-52.5c0.9-3,4.8-4.5,8.8-4.5c4,0,7.8,1.5,8.8,4.5l16.1,52.5
		c0.1,0.3,0.2,0.7,0.2,0.9c0,3.2-4.9,5.5-8.6,5.5c-2.2,0-3.9-0.7-4.4-2.5l-2.9-10.8H246l-2.9,10.8c-0.5,1.8-2.2,2.5-4.4,2.5
		C235,262.9,230.1,260.6,230.1,257.4z M261.3,239.3l-6.3-23.1l-6.3,23.1H261.3z"/>
	<path class="st8" d="M316.9,200c2.8,0,4,3.1,4,5.9c0,3.3-1.5,6.1-4,6.1h-11.9v46.7c0,2.8-3.4,4.1-6.7,4.1c-3.4,0-6.7-1.4-6.7-4.1
		V212h-11.9c-2.6,0-4-2.8-4-6.1c0-2.8,1.2-5.9,4-5.9H316.9z"/>
	<path class="st8" d="M339.8,226.2h12.9c2.6,0,4,2.5,4,5.2c0,2.3-1.2,5.1-4,5.1h-12.9v14.6h23.1c2.6,0,4,2.8,4,5.9
		c0,2.8-1.2,5.8-4,5.8h-30.6c-2.9,0-5.9-1.4-5.9-4.1v-54.7c0-2.8,2.9-4.1,5.9-4.1h30.6c2.8,0,4,3,4,5.8c0,3.2-1.5,5.9-4,5.9h-23.1
		V226.2z"/>
	<path class="st8" d="M512,97c0,53-43,96-96,96s-96-43-96-96s43-96,96-96S512,44,512,97z"/>
</g>
<path class="st9" d="M512,97c0,53-43,96-96,96c-24.5,0-47-9.2-63.9-24.4c13.3,7,28.5,11,44.6,11c53,0,96-43,96-96
	c0-28.5-12.4-54.1-32.1-71.7C491.1,28,512,60.1,512,97z"/>
<path class="st10" d="M361.8,88.9c-6.7,7.4-6,19,1.7,25.5l27.9,23.7c7,6,17.5,5.6,24-0.9l54-53.5c7.4-7.3,7-19.3-0.9-26.1l-1.7-1.5
	c-7.2-6.2-17.9-5.7-24.5,1.1l-37.5,39.2c-2.1,2.2-5.6,2.3-7.9,0.3l-10.1-9.1C379.6,81,368.4,81.6,361.8,88.9z"/>
<path class="st11" d="M469.5,83.7l-54,53.5c-6.6,6.5-17,6.9-24,0.9l-27.9-23.7c-7.7-6.5-8.4-18.1-1.7-25.5c1.1-1.2,2.3-2.2,3.5-3
	c-0.9,5,0.8,10.2,5,13.8l23.1,19.5c5.8,4.9,14.4,4.6,19.8-0.8l44.6-44.2c6.1-6,5.8-15.9-0.7-21.5l-1.1-0.9c3.9,0.2,7.7,1.6,10.8,4.3
	l1.7,1.5C476.4,64.4,476.8,76.4,469.5,83.7z"/>
</svg>
