<?xml version="1.0" encoding="utf-8"?>
<!-- Generator: Adobe Illustrator 23.0.3, SVG Export Plug-In . SVG Version: 6.00 Build 0)  -->
<svg version="1.1" id="Capa_1" xmlns="http://www.w3.org/2000/svg" xmlns:xlink="http://www.w3.org/1999/xlink" x="0px" y="0px"
	 viewBox="0 0 512 512" style="enable-background:new 0 0 512 512;" xml:space="preserve">
<style type="text/css">
	.st0{fill:#73ACFF;}
	.st1{fill:#46B29D;}
	.st2{fill:#FDD7AD;}
	.st3{fill:#F0C419;}
	.st4{fill:#527F72;}
	.st5{fill:#5696E2;}
	.st6{fill:#F29C1F;}
	.st7{fill:#E0B394;}
	.st8{fill:#FD5D65;}
	.st9{fill:#E54E5C;}
	.st10{fill:#F7CBA4;}
</style>
<path class="st0" d="M450.3,289l-8.9,55.3c0,0-111.4,88.8-150.1,88.3h-70.6c-45.8-1.7-154.5-110.3-154.5-110.3l-3.9-30.9
	c-8.7-136.2,84.4-183.4,88.2-185.4h0.1c16.8-9.9,51-8.1,61.2-0.2l0.1,0.2c16.5,9,31.1,21,43.1,35.4h2.6c12.1-14.3,26.6-26.3,43-35.4
	c20.2-4.4,41.1-4.4,61.3-0.2l0.1,0.2C361.9,105.9,458,151.8,450.3,289z"/>
<path class="st1" d="M203,194.2c-0.1,13.9,5.4,27.2,15.2,37.1c-9.3,6.9-41.7,36.1-41.7,104.2l-0.7,0.9c-4.6-3.9-9.9-6.8-15.5-8.7
	c-16.6-6.7-31.9-16-45.6-27.6c-2.7-2.2-5.4-4.3-7.9-6.4c-12.5-10.6-31.2-4.9-42.7,6.6l2,22.1l-3.9-30.9
	c-8.7-136.2,84.4-183.4,88.2-185.4h0.1c9.1,5.8,19.6,8.9,30.4,8.8c10.9,0,21.6-3.1,30.8-9l0.1,0.2c16.5,9,31.1,21,43.1,35.4
	C226.1,141.9,203,165.4,203,194.2z"/>
<g>
	<path class="st2" d="M238.3,57.4c0,31.7-25.7,57.3-57.4,57.4c-10.8,0-21.4-3-30.5-8.8c-23.4-14.7-33-43.9-22.9-69.5
		c10.1-25.7,37-40.5,64.1-35.4S238.4,29.8,238.3,57.4z"/>
	<path class="st2" d="M388.4,57.4c0,31.7-25.7,57.3-57.4,57.4c-10.8,0-21.4-3-30.5-8.8c-23.4-14.7-33-43.9-22.9-69.5
		s37-40.5,64.1-35.4S388.4,29.8,388.4,57.4z"/>
</g>
<path class="st3" d="M336.2,336.3c-3.6,2.9-6.9,6.2-9.8,9.8c-11.5,15-17.7,33.4-17.4,52.3v25.2h-8.8c-4.9,0-8.8,4-8.8,8.8h-70.6
	c0-4.9-4-8.8-8.8-8.8H203v-25.2c0.3-18.9-5.9-37.4-17.4-52.3c-2.9-3.6-6.2-6.9-9.8-9.8l0.7-0.9c0-68.1,32.4-97.3,41.7-104.2
	c9.9,10.2,23.6,15.9,37.8,15.9c14.2,0,27.8-5.7,37.8-15.9c9.3,6.9,41.7,36.1,41.7,104.2L336.2,336.3z"/>
<path class="st2" d="M309,194.2c0,29.1-23.4,52.8-52.6,53s-53-23.1-53.4-52.2c-0.4-29.1,22.8-53.1,51.9-53.7
	c0.3-0.1,0.7-0.1,1.1-0.1c0.5,0,1.1,0,1.6,0.1C286.2,142.2,309,165.6,309,194.2z"/>
<path class="st4" d="M114.8,317.8c-4.3,0-8-3.1-8.7-7.4c-9.1-54.9,17.1-117.1,18.2-119.7c1.9-4.5,7.1-6.5,11.6-4.6
	c4.5,1.9,6.5,7.1,4.7,11.6c-0.3,0.6-25.3,60.1-17.1,109.8c0.4,2.6-0.3,5.2-2,7.2C119.8,316.7,117.3,317.8,114.8,317.8z"/>
<path class="st5" d="M397.3,317.8c-2.6,0-5.1-1.1-6.7-3.1c-1.7-2-2.4-4.6-2-7.2c8.3-49.8-16.8-109.2-17.1-109.8
	c-1.2-2.9-0.8-6.2,1-8.8c1.9-2.5,5-3.9,8.1-3.5s5.8,2.4,7.1,5.3c1.1,2.6,27.4,64.8,18.2,119.7C405.2,314.7,401.6,317.8,397.3,317.8z
	"/>
<g>
	<path class="st6" d="M194.2,397.2c-4.9,0-8.8-4-8.8-8.8c0-2.4,0.3-59.6,28.5-93.9c2-2.4,5.2-3.6,8.3-3.1c3.1,0.5,5.7,2.7,6.8,5.6
		s0.6,6.3-1.5,8.7c-24.2,29.4-24.5,82.1-24.5,82.7C203,393.3,199.1,397.2,194.2,397.2z"/>
	<path class="st6" d="M317.8,397.2c-4.9,0-8.8-3.9-8.8-8.8c0-0.5-0.4-53.3-24.5-82.7c-3.1-3.8-2.5-9.3,1.2-12.4
		c3.8-3.1,9.3-2.6,12.4,1.2c28.2,34.3,28.5,91.5,28.5,93.9C326.6,393.3,322.7,397.2,317.8,397.2L317.8,397.2L317.8,397.2z"/>
</g>
<path class="st7" d="M384.6,387.2l28.7-59.6c5.9-12.2,20.1-17.7,32.6-12.7c0.1,0,0.1,0,0.2,0.1c13.2,5.4,19.5,20.4,14.1,33.6
	l-5.9,14.3"/>
<path class="st8" d="M270.3,362.4c-27.7-20.6-50.9-47.7-50.9-75.2c0-30.9,21.3-56,47.5-56c21,0,38,20,38,44.8
	c0-24.7,17-44.8,38-44.8c15.3,0,29,8.5,37.7,21.8c6.2,9.4,9.9,21.3,9.9,34.1c0,38.6-45.8,76.4-85.5,96.7
	C293.5,378.1,281.5,370.8,270.3,362.4z"/>
<path class="st9" d="M283.7,362.4c-17-20.6-31.3-47.7-31.3-75.2c0-27,10-49.5,23.2-54.8c-2.8-0.8-5.7-1.2-8.7-1.2
	c-26.2,0-47.5,25.1-47.5,56c0,27.5,23.2,54.6,50.9,75.2c11.2,8.4,23.2,15.7,34.6,21.5C297.9,378.1,290.6,370.8,283.7,362.4z"/>
<path class="st10" d="M490.2,416.6l-170.2,71c-17.1,7.1-36.2,7.9-53.8,2.1L89.4,431.3c-9.1-3-19-2.5-27.8,1.3l-7,3.1l-40-92.8
	L-2,304.4l83-55.3c25.3-16.8,57-21.7,85.7-11.8c1.2,0.4,2.3,0.8,3.5,1.3l156,59.9c7.1,2.7,12.3,8.1,15.1,14.5
	c2.9,6.6,3.1,14.3,0,21.4c-5.6,12.9-20.1,19.3-33.4,14.7l-99-33.9c-6.1-2.1-12.5-1.7-18,0.7c-6.8,2.9-12.2,8.8-14.3,16.5
	c-3.3,12.6,3.6,25.7,15.9,30L306,402.1c10.1,3.5,21.1,3.5,31.2,0l130.1-45.5c16-5.6,33.5,2.1,40.1,17.6c0,0.1,0.1,0.2,0.1,0.2
	C514.4,390.8,506.7,409.7,490.2,416.6z"/>
<path class="st7" d="M170.2,238.6c0,0-116.2,30-152.4,99c-1,2-2.1,3.8-3.1,5.5L-2,304.4l83-55.3c25.3-16.8,57-21.7,85.7-11.8
	C167.9,237.7,169,238.1,170.2,238.6z"/>
</svg>
