<?xml version="1.0" encoding="utf-8"?>
<!-- Generator: Adobe Illustrator 23.0.3, SVG Export Plug-In . SVG Version: 6.00 Build 0)  -->
<svg version="1.1" id="Capa_1" xmlns="http://www.w3.org/2000/svg" xmlns:xlink="http://www.w3.org/1999/xlink" x="0px" y="0px"
	 viewBox="0 0 512 512" style="enable-background:new 0 0 512 512;" xml:space="preserve">
<style type="text/css">
	.st0{fill-rule:evenodd;clip-rule:evenodd;fill:#FFF1AF;}
	.st1{fill-rule:evenodd;clip-rule:evenodd;fill:#FFEA7E;}
	.st2{fill-rule:evenodd;clip-rule:evenodd;fill:#678D98;}
	.st3{fill-rule:evenodd;clip-rule:evenodd;fill:#E63950;}
	.st4{fill-rule:evenodd;clip-rule:evenodd;fill:#537983;}
	.st5{fill-rule:evenodd;clip-rule:evenodd;fill:#CC2E43;}
	.st6{fill:#FFF5F5;}
	.st7{fill:#6FD6A2;}
	.st8{fill:#59C68D;}
	.st9{fill:#8EBAC5;}
	.st10{fill:#E63950;}
	.st11{fill:#CC2E43;}
	.st12{fill:#EFE2DD;}
	.st13{fill:none;}
</style>
<g>
	<path class="st0" d="M453.1,262.3L259.6,68.8c-2-2-5.2-2-7.2,0L59,262.3v201.5l204.1,30.1l190-30.1V262.3z"/>
</g>
<g>
	<path class="st1" d="M453.1,463.8V314.6v-41.2L259.6,79.9c-2-2-5.2-2-7.2,0L59,273.4v41.2l193.5-193.5c2-2,5.2-2,7.2,0l162.1,162.1
		v180.5L453.1,463.8L453.1,463.8z"/>
</g>
<g>
	<path class="st2" d="M453.1,463.8h-78.6c-3.4,6.9-7.4,13.6-12.1,19.8c-7.1,9.7-15.7,18.6-25.5,26.2h136.4c12.6,0,23-10.3,23-23
		c0-12.6-10.4-23-23-23H453.1z"/>
</g>
<g>
	<path class="st2" d="M137.5,463.8H59H38.7c-12.6,0-23,10.3-23,23c0,12.7,10.3,23,23,23h377.9c-9.5-7.4-18.2-16.1-25.5-26.2
		c-3.8-5.1-7.2-10.6-10.3-16.4c-0.6-1.1-1.2-2.3-1.8-3.4L137.5,463.8z"/>
</g>
<g>
	<path class="st0" d="M459.9,212.3V54.9h-74.1v83.2L459.9,212.3z"/>
</g>
<g>
	<path class="st3" d="M474.8,60V20.8c0-3.3-2.7-6.1-6.1-6.1h-91.8c-3.3,0-6.1,2.7-6.1,6.1V60c0,3.3,2.7,6.1,6.1,6.1h8.9h74.1h8.9
		C472.1,66,474.8,63.3,474.8,60L474.8,60z"/>
</g>
<g>
	<path class="st3" d="M385.8,127.1L263.7,4.9c-4.2-4.2-11.1-4.2-15.3,0L14.7,238.6c-10.9,10.9-10.9,28.7,0,39.5
		c10.9,10.9,28.6,10.9,39.5,0l4.7-4.7L252.4,79.9c2-2,5.2-2,7.2,0l193.5,193.5l4.7,4.7c10.9,10.9,28.7,10.9,39.5,0
		c10.9-10.9,10.9-28.7,0-39.5l-37.4-37.4L385.8,127.1z"/>
</g>
<g>
	<path class="st1" d="M459.9,201.2V66h-74.1v22.4h51.8v90.3L459.9,201.2z"/>
</g>
<g>
	<path class="st4" d="M496.3,486.8c0-12.6-10.4-23-23-23h-20.2h-19c7.9,0,14.9,4,19,10.1c2.5,3.7,3.9,8.1,3.9,12.9
		c0,12.7-10.3,23-23,23h39.3C485.9,509.8,496.3,499.4,496.3,486.8z"/>
</g>
<g>
	<path class="st5" d="M474.8,60V20.8c0-3.3-2.7-6.1-6.1-6.1h-29c3.3,0,6.1,2.7,6.1,6.1v34.1V60c0,3.3-2.7,6.1-6.1,6.1h20.1h8.9
		C472.1,66,474.8,63.3,474.8,60L474.8,60z"/>
</g>
<g>
	<g>
		<g>
			<path class="st6" d="M90.9,229.3v70.3L218,327.4l11.9-54.9L218,218.7l-116.5,0C95.7,218.7,90.9,223.4,90.9,229.3z"/>
			<path class="st6" d="M335.5,218.7H218v108.7l128.1-27.8v-70.3C346.1,223.4,341.4,218.7,335.5,218.7z"/>
		</g>
		<g>
			<path class="st7" d="M90.9,265.9v172.2c0,6,4.9,10.9,10.9,10.9H218l16.7-109.5L218,265.9L90.9,265.9z"/>
			<path class="st8" d="M218,265.9h128.1v183H218L218,265.9z"/>
		</g>
		<g>
			<path class="st9" d="M130.2,198.6h7.5c4.4,0,8,2.5,8,5.6V243c0,3.1-3.6,5.6-8,5.6h-7.5c-4.4,0-8-2.5-8-5.6v-38.7
				C122.2,201.2,125.8,198.6,130.2,198.6z"/>
		</g>
		<g>
			<path class="st9" d="M186.2,199.6h7.5c4.4,0,8,2.5,8,4.6V243c0,4.1-3.6,6.6-8,6.6h-7.5c-4.4,0-8-2.5-8-5.6v-38.7
				C178.2,202.2,181.8,199.6,186.2,199.6z"/>
		</g>
		<g>
			<path class="st9" d="M242.3,199.6h7.5c4.4,0,8,2.5,8,5.6V244c0,3.1-3.6,5.6-8,5.6h-7.5c-4.4,0-8-2.5-8-6.6v-38.7
				C234.3,202.2,237.8,199.6,242.3,199.6z"/>
		</g>
		<g>
			<path class="st9" d="M298.3,199.6h7.5c4.4,0,8,2.5,8,5.6V244c0,3.1-3.6,5.6-8,5.6h-7.5c-4.4,0-8-2.5-8-6.6v-38.7
				C290.3,202.2,293.9,199.6,298.3,199.6z"/>
		</g>
		<g>
			<g>
				<path class="st10" d="M306.9,394.1c0,46.3,37.7,84,84,84l22.9-78.3l-22.9-89.6C344.5,310.1,306.9,347.8,306.9,394.1z"/>
				<path class="st11" d="M390.8,310.1V478c46.3,0,84-37.7,84-84C474.8,347.8,437.1,310.1,390.8,310.1z"/>
			</g>
			<g>
				<path class="st6" d="M383.4,394l-13.9-13.9c-2.3-2.3-6-2.3-8.3,0l-8.3,8.3c-2.3,2.3-2.3,6,0,8.3l26.3,26.3c2.3,2.3,6,2.3,8.3,0
					l3.3-3.3l6.4-21l-6.4-12.1L383.4,394z"/>
			</g>
			<path class="st12" d="M412.2,365.2l-21.3,21.3v33.1l37.9-37.9c2.3-2.3,2.3-6,0-8.3l-8.2-8.2C418.2,362.9,414.5,362.9,412.2,365.2
				z"/>
		</g>
	</g>
	<g>
		<path class="st10" d="M178.2,424h-13.4c-2.8,0-5-2.2-5-5v-85.2c0-2.8-2.2-5-5-5h-10.6c-2.8,0-5-2.2-5-5v-13.4c0-2.8,2.2-5,5-5
			h34.1c2.8,0,5,2.2,5,5V419C183.2,421.8,180.9,424,178.2,424z"/>
	</g>
	<g>
		<path class="st13" d="M257.4,380.7l0.1-28.4l-16.3,28.4H257.4z"/>
		<path class="st10" d="M207.6,394.1h20.9c2,0,3.7-1.5,4-3.4l2.1-15.1c0.1-0.4,0-0.8,0-1.3l-3.4-19.1c-0.7-3.7-5.5-4.5-7.4-1.3
			l-19.6,34.2C202.6,390.8,204.5,394.1,207.6,394.1z"/>
	</g>
	<path class="st11" d="M280.8,370.7l0.2-59.8c0-3-2.4-5.4-5.3-5.4h-21c-1.9,0-3.7,1-4.6,2.7l-31.7,55.2v30.8h33.6
		c3,0,5.3,2.4,5.3,5.4l0,19.2c0,3,2.4,5.4,5.3,5.4h12.8c2.9,0,5.3-2.4,5.3-5.3l0-19.3c0-2.9,2.4-5.3,5.3-5.3h1.9
		c2.9,0,5.3-2.4,5.3-5.3V376c0-2.9-2.4-5.3-5.3-5.3L280.8,370.7L280.8,370.7z M257.4,370.7h-16.2l16.3-28.4L257.4,370.7z"/>
</g>
</svg>
