<?xml version="1.0" encoding="utf-8"?>
<!-- Generator: Adobe Illustrator 23.0.3, SVG Export Plug-In . SVG Version: 6.00 Build 0)  -->
<svg version="1.1" id="Layer_1" xmlns="http://www.w3.org/2000/svg" xmlns:xlink="http://www.w3.org/1999/xlink" x="0px" y="0px"
	 viewBox="0 0 392.6 392.6" style="enable-background:new 0 0 392.6 392.6;" xml:space="preserve">
<style type="text/css">
	.st0{fill:#56ACE0;}
	.st1{fill:#194F82;}
	.st2{fill:#FFC10D;}
	.st3{fill:#FFFFFF;}
	.st4{fill:#F55648;}
	.st5{fill:#FBB540;}
	.st6{fill:#F3AF3E;}
	.st7{fill:#B94137;}
</style>
<path class="st0" d="M55.6,32.6c-7.7,0-13.9,6.3-13.9,13.9S48,60.4,55.6,60.4s14-6.2,14-13.9C69.7,38.9,63.4,32.6,55.6,32.6z"/>
<path class="st1" d="M55.6,14.4c-17.7,0-32.1,14.4-32.1,32.1S38,78.7,55.7,78.7s32.1-14.4,32.1-32.1S73.4,14.4,55.6,14.4z
	 M55.6,60.5c-7.7,0-13.9-6.3-13.9-13.9S48,32.7,55.6,32.7s14,6.2,14,13.9S63.4,60.5,55.6,60.5z"/>
<path class="st0" d="M93.2,335.2c0-6.3-3.9-11.9-9.9-14.2c-1.8-0.7-3.7-1.3-5.7-1.9l-13.9,26.1c-3.4,6.5-12.6,6.5-16.1,0l-13.9-26.1
	c-1.9,0.6-3.8,1.2-5.6,1.9c-5.9,2.3-9.9,7.9-9.9,14.2V360h74.9L93.2,335.2L93.2,335.2z"/>
<path class="st1" d="M89.9,304c-4.7-1.8-9.9-3.3-15.2-4.4c-3.9-0.8-7.9,1.1-9.9,4.6l-9.2,17.3l-9.2-17.3c-1.9-3.6-5.9-5.4-9.9-4.6
	c-5.4,1.1-10.5,2.6-15.2,4.4C8.6,308.9,0,321.4,0,335.1v34c0,5,4,9.1,9.1,9.1h93.2c5,0,9.1-4,9.1-9.1v-34
	C111.3,321.4,102.7,308.9,89.9,304z M18.2,335.2c0-6.3,4-12,9.9-14.2c1.8-0.7,3.7-1.3,5.6-1.9l13.9,26.1c3.4,6.5,12.6,6.5,16.1,0
	l13.9-26.1c2,0.6,3.9,1.2,5.7,1.9c5.9,2.3,9.9,7.9,9.9,14.2V360H18.2V335.2z"/>
<path class="st2" d="M93.2,119c0-6.3-3.9-11.9-9.9-14.2c-1.8-0.7-3.7-1.3-5.7-1.9l-13.9,26.1c-3.4,6.5-12.6,6.5-16.1,0l-13.9-26.1
	c-1.9,0.6-3.8,1.2-5.6,1.9c-5.9,2.3-9.9,7.9-9.9,14.2v24.9h74.9L93.2,119L93.2,119z"/>
<path class="st1" d="M89.9,87.9c-4.7-1.8-9.9-3.3-15.2-4.4c-3.9-0.8-7.9,1.1-9.9,4.6l-9.2,17.3l-9.2-17.3c-1.9-3.6-5.9-5.4-9.9-4.6
	c-5.4,1.1-10.5,2.6-15.2,4.4C8.6,92.8,0.1,105.3,0.1,119v34c0,5,4,9.1,9.1,9.1h93.1c5,0,9.1-4,9.1-9.1v-34
	C111.3,105.3,102.7,92.8,89.9,87.9z M18.2,119c0-6.3,4-12,9.9-14.2c1.8-0.7,3.7-1.3,5.6-1.9l13.9,26.1c3.4,6.5,12.6,6.5,16.1,0
	l13.9-26.1c2,0.6,3.9,1.2,5.7,1.9c5.9,2.3,9.9,7.9,9.9,14.2v24.9H18.2V119z"/>
<path class="st3" d="M55.6,248.8c-7.7,0-13.9,6.3-13.9,13.9c0,7.7,6.3,13.9,13.9,13.9s13.9-6.3,13.9-13.9
	C69.7,255,63.4,248.8,55.6,248.8z"/>
<path class="st1" d="M55.6,230.6c-17.7,0-32.1,14.4-32.1,32.1c0,17.7,14.4,32.1,32.1,32.1s32.1-14.4,32.1-32.1
	C87.8,244.9,73.4,230.6,55.6,230.6z M55.6,276.6c-7.7,0-13.9-6.3-13.9-13.9c0-7.7,6.3-13.9,13.9-13.9s13.9,6.3,13.9,13.9
	C69.7,270.4,63.4,276.6,55.6,276.6z"/>
<path class="st2" d="M274.9,196.3c0-15.5-12.6-28-28-28c-15.5,0-28,12.6-28,28s12.6,28,28,28C262.3,224.3,274.9,211.8,274.9,196.3z"
	/>
<path class="st1" d="M169.4,280.7l-47.9,38.7c-3.9,3.2-4.5,8.9-1.3,12.8c3.2,3.9,8.9,4.5,12.8,1.3l47.9-38.7
	c3.9-3.2,4.5-8.9,1.3-12.8C179,278.1,173.3,277.5,169.4,280.7z"/>
<path class="st1" d="M121.6,73.1l47.9,38.7c3.9,3.2,9.6,2.6,12.8-1.3s2.6-9.6-1.3-12.8L133,58.9c-3.9-3.2-9.6-2.6-12.8,1.3
	C117.1,64.2,117.6,69.9,121.6,73.1z"/>
<circle class="st1" cx="247.3" cy="196.4" r="9.2"/>
<g>
	<path class="st4" d="M374.4,137.7c-19.9-19.9-52.3-19.9-72.2,0L266,173.8l-36.1-36.1c-19.9-19.9-52.3-19.9-72.2,0
		s-19.9,52.3,0,72.2L266,318.3l108.3-108.3C394.3,190,394.3,157.6,374.4,137.7z"/>
	<path class="st5" d="M363.9,308.7l-0.7-1.2c-5.8-10.3-14.4-18.8-24.9-24.3c10.4-5.6,19.1-14,24.9-24.3l0.7-1.2l0.7,1.2
		c5.8,10.3,14.4,18.8,24.9,24.3c-10.4,5.6-19.1,14-24.9,24.3L363.9,308.7z"/>
	<path class="st6" d="M327.7,348.1l-0.5-0.9c-4.3-7.7-10.8-14.1-18.6-18.2c7.8-4.2,14.3-10.5,18.6-18.2l0.5-0.9l0.5,0.9
		c4.3,7.7,10.8,14.1,18.6,18.2c-7.8,4.2-14.3,10.5-18.6,18.2L327.7,348.1z"/>
	<g>
		<path class="st7" d="M244.8,203.4c0,4.7-3.8,8.5-8.5,8.5c-4.7,0-8.5-3.8-8.5-8.5c0-4.7,3.8-8.5,8.5-8.5
			C240.9,194.8,244.8,198.6,244.8,203.4z"/>
		<path class="st7" d="M304.3,203.4c0,4.7-3.8,8.5-8.5,8.5c-4.7,0-8.5-3.8-8.5-8.5c0-4.7,3.8-8.5,8.5-8.5
			C300.5,194.8,304.3,198.6,304.3,203.4z"/>
		<path class="st7" d="M266,245.2c-9.9,0-19.6-2.9-27.9-8.5c-2-1.3-2.5-3.9-1.2-5.9c1.3-2,3.9-2.5,5.9-1.2c14,9.4,32.3,9.4,46.4,0
			c2-1.3,4.6-0.8,5.9,1.2c1.3,2,0.8,4.6-1.2,5.9C285.7,242.2,276,245.2,266,245.2z"/>
	</g>
</g>
</svg>
