<?xml version="1.0" encoding="utf-8"?>
<!-- Generator: Adobe Illustrator 23.0.3, SVG Export Plug-In . SVG Version: 6.00 Build 0)  -->
<svg version="1.1" id="圖層_1" xmlns="http://www.w3.org/2000/svg" xmlns:xlink="http://www.w3.org/1999/xlink" x="0px" y="0px"
	 viewBox="0 0 512 512" style="enable-background:new 0 0 512 512;" xml:space="preserve">
<style type="text/css">
	.st0{fill:#FDD7AD;}
	.st1{fill:#F29C1F;}
	.st2{fill:#3B97D3;}
	.st3{fill:#F9C795;}
	.st4{fill:#FB7B76;}
	.st5{fill:#DF4D60;}
	.st6{fill:#D0D8DA;}
	.st7{fill:#93999A;}
	.st8{fill:#656B76;}
	.st9{fill:#57B7EB;}
	.st10{fill:#4891D3;}
	.st11{fill:#A1D51C;}
	.st12{fill:#7AB92D;}
	.st13{fill:#C4F236;}
	.st14{fill:#FCBC04;}
	.st15{fill:#F9E109;}
	.st16{fill:#E59730;}
</style>
<g id="Page-1">
	<g>
		<path id="Shape" class="st0" d="M326.6,390.1c2.1,4.4,1.8,9.5-0.8,13.6c-2.6,4.1-7.1,6.6-11.9,6.6H171.7c-6.1,0-11.4-3.9-13.3-9.7
			c-4-12.4-10.2-23.9-18.3-34.1c-3.6-4.3-8.1-7.8-13.1-10.3c-0.1-0.1-0.2-0.1-0.4-0.2c-20.1,7.3-40.5,13.5-61.2,18.5
			c-10.1,2.2-20.1-4.1-22.6-14.1c-6-17.3,2.3-22.1-0.4-32.4c-1.8-7.2-8.6-9-14-12.8c-4.3-3,3.5-13,3.5-13s-8.2-6.1-11.2-8.8
			c-3.1-2.6,1.2-7,5.1-15.2c1.6-3.6,2.1-7.5,1.3-11.3c-1.4-7.6-12.8-10.4-18.5-14.7c-11.8-8.7-12.4-10.9,18.3-44
			c6.4-7.5,10.5-16.7,11.7-26.5c0.6-3.3,3.9-6.9,3.9-10.9c-0.1-10.1-14.7-14.2-16.1-24c-1.1-7.6,8.7-21.5,11.9-35.1
			c1.7-8.3,4-16.5,6.7-24.6C50.9,70.9,60,56,71.8,43.4c17.3-18.3,41.2-26.2,65.5-31.9C225.9-8.9,270.4,2.3,320.9,42
			c19.1,14.2,33,34.2,39.6,57c5.1,18.8,7.5,38.3,7,57.8c-0.7,51.7-33.6,69.8-48.3,103.3c-9,20.6-12.3,43.3-9.7,65.6
			c1.9,22.2,7.7,43.8,16.9,64.1L326.6,390.1z"/>
		<path class="st1" d="M302.4,417.3c-3,0-5.6-1.8-6.6-4.6c-14.3-38.8-28.9-84.2-20.6-131.2c0.6-3.1,1.2-6.3,1.9-9.5
			c2-7.9,3.1-15.9,3.3-24v-20.5c0-3.9,3.2-7,7-7s7,3.2,7,7v20.4c-0.2,9.1-1.4,18.2-3.6,27c-0.6,3.1-1.3,6.1-1.8,9.1
			c-7.8,43.5,6.2,86.7,19.9,123.8c0.8,2.2,0.5,4.6-0.9,6.4C306.8,416.2,304.7,417.3,302.4,417.3z"/>
		<path class="st2" d="M270.4,417.3c-3,0-5.6-1.8-6.6-4.6c-14.3-38.8-28.9-84.2-20.6-131.2c0.5-3.1,1.2-6.3,1.9-9.5
			c3.7-17.5,7.2-34.1-6.6-50.9c-1.6-1.9-2.1-4.6-1.2-7c0.9-2.4,3-4.1,5.5-4.5c2.5-0.4,5,0.6,6.6,2.6c18,22,13.5,43.7,9.5,62.7
			c-0.6,3-1.3,6.1-1.8,9c-7.8,43.5,6.2,86.7,19.9,123.8c0.8,2.2,0.5,4.6-0.8,6.5C274.8,416.2,272.7,417.3,270.4,417.3L270.4,417.3z"
			/>
		<path class="st3" d="M191,323.7c0.4,17.7-14.7,31.4-44.8,40.7c-1.3,0.4-3.4,1.1-6.1,2.1c-3.6-4.3-8.1-7.8-13.1-10.3
			c1.8-0.6,3.4-1.2,4.9-1.8c4.7-1.6,8.2-2.9,10-3.5c22.8-7.1,35.2-16.7,35-27.1c-0.1-3.9,3-7.1,6.9-7.2
			C187.7,316.7,191,319.8,191,323.7L191,323.7z"/>
		<path class="st4" d="M325.4,148.7c0,8.7-3.1,17.2-8.7,23.9l-0.2,0.2c-0.2,0.3-0.4,0.6-0.7,0.9h-0.1c-1.2,6.9-3.9,13.4-7.8,19.2
			c-4.7,7.3-11.2,13.3-18.9,17.4c4.1,5.7,7.3,12,9.3,18.7c0.5,1.5,0.7,3,0.7,4.5c0,5.9-3.5,11.1-8.9,13.5
			c-6.1,2.5-13.1,0.7-17.3-4.4c-4.6-5.4-10.7-9.4-17.5-11.6c-22.1-7.4-28.8-14.9-30.2-27.6h-0.4c-7.6,0-15.1-1.4-22.1-4.2
			c-8.7,10.1-22.1,14.7-35.1,12.2c-13.1-2.5-23.8-11.8-28.1-24.4h-0.1c-4.4,1.6-9.1,2.6-13.8,3c-1.2,0.1-2.3,0.1-3.5,0.1
			c-19-0.1-36.4-10.8-44.9-27.8s-6.7-37.4,4.6-52.6c-0.8-2.3-1.2-4.7-1.2-7.2c0-10.5,7.4-19.5,17.6-21.6c-0.1-0.8-0.1-1.7-0.1-2.6
			c0-15.7,12.7-28.4,28.4-28.5c4.3,0,8.5,0.9,12.3,2.8c7.5-12.6,21.1-20.4,35.8-20.4c10.1,0,19.9,3.7,27.4,10.4
			c4.3-7,12.2-10.9,20.4-10.3c8.2,0.7,15.3,5.9,18.4,13.4c2-0.2,4-0.3,6-0.4c27.3,0,50.1,21,52.4,48.2h0.1c7.8,0.1,15,4.2,18.9,11
			c3.9,6.7,4,15,0.2,21.8C322.8,133,325.4,140.7,325.4,148.7L325.4,148.7z"/>
		<g>
			<path class="st5" d="M138.8,173.6c-0.4,1.9-0.6,3.9-0.6,5.9c0,2.6,0.3,5.2,1,7.7c-4.4,1.6-9.1,2.6-13.8,3
				c-0.9-3.4-1.3-6.9-1.3-10.4c-12.5-1.3-21.9-11.8-21.9-24.3c0-3.9,3.1-7.1,7-7.1c1.9,0,3.6,0.7,5,2c1.3,1.3,2.1,3.1,2.1,4.9v0.2
				c0.1,5.6,4.5,10.1,10.1,10.4c1-3.2,2.4-6.2,4-9.1c2-3.3,6.4-4.4,9.7-2.4s4.4,6.4,2.4,9.7C140.7,167,139.4,170.2,138.8,173.6
				L138.8,173.6z"/>
			<path class="st5" d="M316.4,172.8c-0.2,0.3-0.4,0.6-0.7,0.9h-0.1c-1.2,6.9-3.9,13.4-7.8,19.2c-3.7,1.1-7.6,1.6-11.5,1.6
				c-7,0-13.9-1.7-20.1-4.9c-3-1.5-5.7-3.4-8.2-5.6c-2.8,1.1-5.8,1.7-8.8,1.8c-9.3,0-17.9-5.2-22-13.6c-0.9-1.7-1-3.6-0.4-5.4
				c0.6-1.8,1.9-3.2,3.6-4.1c3.5-1.7,7.7-0.4,9.4,3.1c2.2,4.3,7,6.6,11.7,5.5s8.1-5.3,8.1-10.2c0-1.6-0.4-3.3-1.1-4.7
				c-1.7-3.5-0.3-7.7,3.2-9.4c1.7-0.9,3.6-1,5.4-0.4c1.8,0.6,3.2,1.9,4.1,3.6c1.7,3.4,2.6,7.2,2.6,11c-0.1,5-1.6,9.8-4.5,13.8
				c1.1,0.8,2.3,1.5,3.5,2.1C293.8,182.7,307.1,181,316.4,172.8L316.4,172.8z"/>
			<path class="st5" d="M183,88.8c0-3.9-3.2-7-7-7c-17.9,0-32.4,14.5-32.4,32.4c0,3.9,3.2,7,7,7c3.9,0,7-3.2,7-7
				c0-10.1,8.2-18.3,18.3-18.3C179.8,95.9,183,92.7,183,88.8z"/>
			<path class="st5" d="M212.9,152.2c17.5-2.9,31.4-16.4,34.8-33.8c0.5-2.5-0.3-5.1-2.3-6.8c-1.9-1.7-4.6-2.2-7-1.3
				s-4.2,2.9-4.6,5.4c-1.4,7.3-5.6,13.7-11.7,17.9c-11.7,7.9-27.4,6.1-37.1-4.2c-2.6-2.9-7.1-3.1-10-0.5c-2.9,2.6-3.1,7.1-0.5,10
				c6,6.6,13.9,11.1,22.6,13c-3.9,5.6-10.3,8.9-17.2,8.9c-3.9,0-7,3.2-7,7c0,3.9,3.2,7,7,7C194.6,174.9,207.7,165.9,212.9,152.2
				L212.9,152.2z"/>
		</g>
	</g>
</g>
<g>
	<circle class="st6" cx="352.3" cy="362.8" r="147.2"/>
	<g>
		<path class="st7" d="M412.2,471.8c-81.3,0-147.2-66-147.2-147.3c0-37.8,14.5-74.1,40.6-101.4c-77.2,25.7-118.9,109.1-93.2,186.2
			s109.1,118.9,186.2,93.2c22.9-7.6,43.6-20.8,60.2-38.2C443.8,469.3,428.1,471.9,412.2,471.8L412.2,471.8z"/>
		<path class="st7" d="M474.3,445.3c-27.4,40.5-73.1,64.7-122,64.7h158.2v-21.8C510.4,467,495.1,448.9,474.3,445.3z"/>
		<path class="st7" d="M230.3,445.3c-20.9,3.6-36.1,21.7-36.2,42.9V510h158.2C303.4,510,257.7,485.8,230.3,445.3z"/>
	</g>
	<path class="st8" d="M480.3,446.8c-2-0.7-4-1.2-6-1.5c-27.4,40.5-73.1,64.7-122,64.7h71.7C448.5,494.9,468,472.9,480.3,446.8z"/>
	<path class="st8" d="M230.3,445.3c-5.3,0.9-10.3,2.7-14.9,5.5c12.3,24.4,31.1,44.9,54.4,59.3h82.6
		C303.4,510,257.7,485.8,230.3,445.3z"/>
	<path class="st9" d="M456.1,422.8c33.3-57.3,13.8-130.7-43.5-164s-130.7-13.8-164,43.5c-21.6,37.3-21.6,83.2,0,120.5H456.1z"/>
	<path class="st10" d="M417.7,422.8c27.1-36.1,19.8-87.4-16.4-114.5s-87.4-19.8-114.5,16.4c-21.8,29.1-21.8,69.1,0,98.2H417.7z"/>
	<path class="st11" d="M275.9,390h152.7c6,0,10.9,4.9,10.9,10.9v21.8l0,0H265l0,0v-21.8C265,394.9,269.9,390,275.9,390z"/>
	<path class="st11" d="M308.6,346.4h87.3c12,0,21.8,9.8,21.8,21.8l0,0c0,12-9.8,21.8-21.8,21.8h-87.3c-12,0-21.8-9.8-21.8-21.8l0,0
		C286.8,356.2,296.6,346.4,308.6,346.4z"/>
	<path class="st12" d="M308.6,346.4h43.6l0,0V390l0,0h-43.6c-12,0-21.8-9.8-21.8-21.8C286.8,356.2,296.6,346.4,308.6,346.4z"/>
	<path class="st7" d="M330.4,368.2h43.6c6,0,10.9,4.9,10.9,10.9V390l0,0h-65.4l0,0v-10.9C319.5,373.1,324.4,368.2,330.4,368.2z"/>
	<path class="st6" d="M335.9,368.2h38.2c6,0,10.9,4.9,10.9,10.9l0,0h-38.2C340.8,379.1,335.9,374.2,335.9,368.2L335.9,368.2z"/>
	<path class="st13" d="M330.4,346.4h65.4c12,0,21.8,9.8,21.8,21.8l0,0h-65.4C340.2,368.2,330.4,358.5,330.4,346.4L330.4,346.4z"/>
	<circle class="st13" cx="352.3" cy="335.5" r="32.7"/>
	<path class="st11" d="M374.1,346.4c-18.1,0-32.7-14.7-32.7-32.7c0-3.2,0.5-6.4,1.4-9.5c-17.3,5.2-27.1,23.5-21.8,40.8
		s23.5,27.1,40.8,21.8c10.5-3.2,18.7-11.4,21.8-21.8C380.5,345.9,377.3,346.4,374.1,346.4z"/>
	<path class="st13" d="M281.4,390h147.2c6,0,10.9,4.9,10.9,10.9v5.5l0,0H297.7C288.7,406.4,281.4,399.1,281.4,390L281.4,390z"/>
	<circle class="st14" cx="292.3" cy="455.5" r="10.9"/>
	<circle class="st15" cx="352.3" cy="455.5" r="10.9"/>
	<circle class="st15" cx="412.2" cy="455.5" r="10.9"/>
	<path class="st9" d="M455.9,193.7h54.5v21.8h-54.5V193.7z"/>
	<path class="st16" d="M286.8,450c0-1.5,0.3-3.1,1-4.5c-5.5,2.4-8,8.9-5.5,14.4s8.9,8,14.4,5.5c2.5-1.1,4.4-3.1,5.5-5.5
		c-1.4,0.6-2.9,1-4.5,1C291.7,460.9,286.8,456.1,286.8,450z"/>
	<path class="st14" d="M346.8,450c0-1.5,0.3-3.1,1-4.5c-5.5,2.4-8,8.9-5.5,14.4c2.4,5.5,8.9,8,14.4,5.5c2.5-1.1,4.4-3.1,5.5-5.5
		c-1.4,0.6-2.9,1-4.5,1C351.7,460.9,346.8,456.1,346.8,450z"/>
	<path class="st14" d="M406.8,450c0-1.5,0.3-3.1,1-4.5c-5.5,2.4-8,8.9-5.5,14.4s8.9,8,14.4,5.5c2.5-1.1,4.4-3.1,5.5-5.5
		c-1.4,0.6-2.9,1-4.5,1C411.7,460.9,406.8,456.1,406.8,450z"/>
	<path class="st16" d="M360.5,462.5l-4.3-1.6c-2-0.3-3.9-1.1-5.5-2.3c-3.1-1.5-6.2-3-9.2-4.6c-0.1,0.5-0.2,1-0.3,1.5
		c0,6,4.9,10.9,11,10.9C355.5,466.3,358.5,464.9,360.5,462.5z"/>
	<path class="st13" d="M505,237.3h-27.3c-3,0-5.5-2.4-5.5-5.5c0-3,2.4-5.5,5.5-5.5H505c3,0,5.5,2.4,5.5,5.5
		C510.4,234.9,508,237.3,505,237.3z"/>
	<path class="st14" d="M401.3,324.6c-3,0-5.4-2.5-5.4-5.5c0-2.2,1.4-4.2,3.4-5l94.7-36.8v-23.6c0-3,2.4-5.5,5.5-5.5
		c3,0,5.5,2.4,5.5,5.5V281c0,2.2-1.4,4.3-3.5,5.1l-98.2,38.2C402.7,324.5,402,324.6,401.3,324.6z"/>
	<path class="st14" d="M297.7,335.5H265c-3,0-5.5-2.4-5.5-5.5v-21.8c0-3,2.4-5.5,5.5-5.5c3,0,5.5,2.4,5.5,5.5v16.4h27.3
		c3,0,5.5,2.4,5.5,5.5C303.2,333.1,300.7,335.5,297.7,335.5z"/>
</g>
</svg>
