<?xml version="1.0" encoding="utf-8"?>
<!-- Generator: Adobe Illustrator 23.0.3, SVG Export Plug-In . SVG Version: 6.00 Build 0)  -->
<svg version="1.1" id="Capa_1" xmlns="http://www.w3.org/2000/svg" xmlns:xlink="http://www.w3.org/1999/xlink" x="0px" y="0px"
	 viewBox="0 0 409.6 409.6" style="enable-background:new 0 0 409.6 409.6;" xml:space="preserve">
<style type="text/css">
	.st0{fill:#64798A;}
	.st1{fill:#FCD462;}
	.st2{fill:#DC8744;}
	.st3{fill:#FFFFFF;}
	.st4{fill:#E56353;}
</style>
<path class="st0" d="M293.1,84h-22.3V31.6h-133V84h-22.3V28.6c0-10.6,8.7-19.3,19.3-19.3h139.1c10.6,0,19.3,8.7,19.3,19.3V84z"/>
<path class="st1" d="M390.8,83.9H18.8C8.4,83.9,0,92.3,0,102.7v278.7c0,10.4,8.4,18.8,18.8,18.8h371.9c10.4,0,18.8-8.4,18.8-18.8
	V102.7C409.6,92.3,401.2,83.9,390.8,83.9z"/>
<g>
	<rect x="327.6" y="84" class="st2" width="23.2" height="316.1"/>
	<rect x="58.8" y="84" class="st2" width="23.2" height="316.1"/>
</g>
<g>
	<path class="st0" d="M81.6,72.8h-42c-2.5,0-4.6,2-4.6,4.6V84h51.1v-6.7C86.1,74.8,84.1,72.8,81.6,72.8z"/>
	<path class="st0" d="M370,72.8h-42c-2.5,0-4.6,2-4.6,4.6V84h51.1v-6.7C374.6,74.8,372.5,72.8,370,72.8z"/>
</g>
<path class="st3" d="M293.2,233c-4.1-41.6-37.8-75.2-79.3-79.3c-56.2-5.6-103,41.3-97.5,97.5c4.1,41.6,37.7,75.2,79.3,79.3
	C251.9,336,298.8,289.2,293.2,233z"/>
<polygon class="st4" points="257.6,225.2 221.7,225.2 221.7,189.3 187.9,189.3 187.9,225.2 152,225.2 152,259 187.9,259 
	187.9,294.9 221.7,294.9 221.7,259 257.6,259 "/>
</svg>
