<?xml version="1.0" encoding="utf-8"?>
<!-- Generator: Adobe Illustrator 23.0.3, SVG Export Plug-In . SVG Version: 6.00 Build 0)  -->
<svg version="1.1" id="圖層_1" xmlns="http://www.w3.org/2000/svg" xmlns:xlink="http://www.w3.org/1999/xlink" x="0px" y="0px"
	 viewBox="0 0 512 512" style="enable-background:new 0 0 512 512;" xml:space="preserve">
<style type="text/css">
	.st0{fill:#93999A;}
	.st1{fill:#656B76;}
	.st2{fill:#F9E109;}
	.st3{fill:#FCBC04;}
	.st4{fill:#D0D8DA;}
	.st5{fill:#C4F236;}
	.st6{fill:#A1D51C;}
	.st7{fill:#7AB92D;}
	.st8{fill:#BDDFF4;}
	.st9{fill:#FEDFC5;}
	.st10{fill:#FECBAA;}
	.st11{fill:#25BED3;}
	.st12{fill:#11A6BF;}
	.st13{fill:#89B4C9;}
	.st14{fill:#71A2B5;}
</style>
<g id="Flat">
	<g id="Color_copy">
		<g>
			<path class="st0" d="M334.9,434.8h25.7c42.6,0,77.2,34.6,77.2,77.2l0,0l0,0H257.7l0,0C257.7,469.4,292.3,434.8,334.9,434.8z"/>
			<path class="st1" d="M418.2,460.7c-14.6-16.5-35.6-25.9-57.6-25.9h-25.7c-42.6,0-77.2,34.6-77.2,77.2l0,0h51.5
				C351.3,512,391.3,493.2,418.2,460.7L418.2,460.7z"/>
			<path class="st2" d="M459.3,248.7l46.6-80.8c5.3-9.2,2.2-21-7.1-26.4c0,0,0,0,0,0c-9.2-5.3-21-2.2-26.4,7.1c0,0,0,0,0,0
				l-46.6,80.8c-5.2,9-13.2,16.1-22.8,20.2c-9.6,4.1-17.6,11.2-22.8,20.2L336.8,345l66.8,38.6l43.4-75.2c5.2-9,7.4-19.5,6.1-29.9
				C451.9,268.2,454.1,257.7,459.3,248.7z"/>
			<path class="st3" d="M498.9,141.5c-1.3-0.7-2.7-1.3-4.1-1.7c1.6,5.1,1,10.6-1.7,15.2l-46.6,80.8c-5.2,9-7.4,19.5-6.1,29.9l0,0.3
				c1.3,14.5-9.5,27.4-24.1,28.6c-1.2,0.1-2.5,0.1-3.7,0.1c-14.1-0.6-27.3-7.4-35.9-18.7l-39.9,69l66.8,38.6l43.4-75.2
				c5.2-9,7.4-19.5,6.1-29.9s0.9-20.9,6.1-29.9l46.7-80.8C511.3,158.7,508.1,146.9,498.9,141.5C498.9,141.5,498.9,141.5,498.9,141.5
				L498.9,141.5z"/>
			<path class="st4" d="M206.2,338.3h283l0,0c0,78.1-63.4,141.5-141.5,141.5S206.2,416.5,206.2,338.3L206.2,338.3z"/>
			<path class="st4" d="M199.8,312.6h295.9c7.1,0,12.9,5.8,12.9,12.9l0,0c0,7.1-5.8,12.9-12.9,12.9H199.8c-7.1,0-12.9-5.8-12.9-12.9
				l0,0C186.9,318.4,192.7,312.6,199.8,312.6z"/>
			<path class="st0" d="M199.8,312.6c-7.1,0-12.9,5.8-12.9,12.9s5.8,12.9,12.9,12.9h295.9c7.1,0,12.9-5.8,12.9-12.9H212.7
				C205.6,325.5,199.8,319.7,199.8,312.6z"/>
			<path class="st0" d="M489.2,338.3h-283c0,78.1,63.4,141.5,141.5,141.5c53.1,0,101.7-29.7,125.9-77
				c-63.9,44.7-151.9,29.2-196.6-34.6c-3.8-5.4-7.2-11.1-10.2-17L489.2,338.3z"/>
			<path class="st5" d="M386.3,389.8h-25.7v-25.7h-25.7v25.7h-25.7v25.7h25.7v25.7h25.7v-25.7h25.7V389.8z"/>
			<g>
				<path class="st6" d="M360.6,424.6c-8.8-2-17.5-4.9-25.7-8.6v25.2h25.7V424.6z"/>
				<path class="st6" d="M333.9,415.5c-8.7-4-17-8.9-24.8-14.6v14.6H333.9z"/>
			</g>
			<g>
				<path class="st5" d="M281.6,167.4c35.5,1.8,62.8,32,61,67.4l-1.9,38.5l0,0c-35.5-1.8-62.8-32-61-67.4L281.6,167.4L281.6,167.4z"
					/>
				<path class="st5" d="M408.5,206L408.5,206l-0.6,12.8c-1.1,21.3-19.2,37.7-40.5,36.6l0,0l0.6-12.8
					C369.1,221.3,387.2,204.9,408.5,206z"/>
				<circle class="st5" cx="275.2" cy="295.9" r="19.3"/>
				<circle class="st5" cx="364.8" cy="306.8" r="12.9"/>
				<path class="st6" d="M279.7,206c-1.8,35.5,25.6,65.7,61,67.4C342.5,237.9,315.1,207.8,279.7,206z"/>
				<path class="st6" d="M406.9,225.2c-18.6-0.6-35,12.1-39,30.2C386.5,256.1,402.9,243.4,406.9,225.2z"/>
				<path class="st6" d="M287.7,303c-10.5-0.4-18.7-9.2-18.3-19.7c0.1-2.1,0.5-4.1,1.2-6c-10.3,2.5-16.7,12.9-14.1,23.2
					c2.5,10.3,12.9,16.7,23.2,14.1c6.3-1.5,11.4-6.2,13.6-12.3C291.4,302.8,289.6,303,287.7,303L287.7,303z"/>
				<path class="st6" d="M370.9,313.6c-7.1-0.3-12.5-6.3-12.2-13.4c0.1-1.9,0.6-3.7,1.4-5.3c-6.6,2.6-9.9,10-7.4,16.6
					c2.6,6.6,10,9.9,16.6,7.4c3-1.1,5.4-3.4,6.8-6.2C374.5,313.4,372.7,313.7,370.9,313.6z"/>
				<path class="st7" d="M333.9,279.5c-3.5-0.2-6.3-3.2-6.1-6.7c1.1-21.2-9.9-41.2-28.4-51.6c-3.1-1.7-4.2-5.7-2.4-8.8
					c1.7-3.1,5.7-4.2,8.8-2.4c22.8,12.8,36.3,37.4,34.9,63.4C340.5,277,337.5,279.7,333.9,279.5L333.9,279.5z"/>
			</g>
		</g>
	</g>
</g>
<g>
	<path class="st8" d="M168.5,147.6c-3.3,0-5.9-2.7-5.9-5.9L163,38c0-3.3,2.7-5.9,5.9-5.9c3.3,0,5.9,2.7,5.9,5.9l-0.4,103.6
		C174.4,145,171.8,147.6,168.5,147.6z"/>
	<path class="st8" d="M240.5,147.9c-3.3,0-5.9-2.7-5.9-5.9L235,38.3c0-3.3,2.7-5.9,5.9-5.9c3.3,0,5.9,2.7,5.9,5.9L246.4,142
		C246.4,145.2,243.7,147.9,240.5,147.9z"/>
	<path class="st8" d="M320,172.7c-3.3,0-5.9-2.7-5.9-5.9l0.5-128.2c0-3.3,2.7-5.9,5.9-5.9c3.3,0,5.9,2.7,5.9,5.9l-0.5,128.2
		C325.9,170.1,323.2,172.7,320,172.7z"/>
	<path class="st9" d="M393.7,134.4c-5.1-5.4-12.1-8.2-19-8.2c-6.1,0-12.2,2-17.1,6.3l-77.1,70.5c-1.6,1.4-3.7,2.2-5.9,2.2l-57.6-0.2
		c-6.7,0-12.1-5.5-12.1-12.2c0-3.4,1.4-6.4,3.6-8.6c2.2-2.2,5.3-3.5,8.6-3.5l41.2,0.2c10.7,0,19.4-8.6,19.4-19.3
		c0-5.3-2.1-10.2-5.6-13.7c-3.5-3.5-8.3-5.7-13.7-5.7l-102.2-0.4c-20.9-0.1-41.1,8-56.2,22.5l-40.1,38.5l27,41.7l42.8,28.6l2.9-2.8
		c8.9-8.6,20.8-13.5,33.2-13.4l117.4,0.4c7.8,0,15.3-3.3,20.5-9.2L394,145.3C396.7,142.2,396.6,137.4,393.7,134.4z"/>
	<g>
		<path class="st10" d="M192.7,204.8l24.3,0.1c-6.7,0-12.1-5.5-12.1-12.2c0-3.4,1.4-6.4,3.6-8.6c2.2-2.2,5.3-3.5,8.6-3.5l-24.3-0.1
			c-3.4,0-6.4,1.3-8.6,3.5c-2.2,2.2-3.6,5.2-3.6,8.6C180.6,199.3,186,204.7,192.7,204.8z"/>
		<path class="st10" d="M253.4,161.3c0,10.7-8.7,19.3-19.4,19.3l24.3,0.1c10.7,0,19.4-8.6,19.4-19.3c0-5.3-2.1-10.2-5.6-13.7
			c-3.5-3.5-8.3-5.7-13.7-5.7l-24.3-0.1c5.3,0,10.2,2.2,13.7,5.7C251.2,151.2,253.4,156,253.4,161.3z"/>
		<path class="st10" d="M393.7,134.4c-5.1-5.4-12.1-8.2-19-8.2c-4.2,0-8.3,0.9-12.1,2.9c2.5,1.3,4.8,3,6.9,5.2c2.9,3,3,7.8,0.2,10.9
			l-90.4,102.7c-5.2,5.9-12.7,9.2-20.5,9.2l24.3,0.1c7.8,0,15.3-3.3,20.5-9.2L394,145.3C396.7,142.2,396.6,137.4,393.7,134.4z"/>
		<path class="st10" d="M119,262.2l10.6,10.7l2.9-2.8c8.9-8.6,20.8-13.5,33.2-13.4l-24.3-0.1C133.5,256.6,125.8,258.6,119,262.2z"/>
	</g>
	<path class="st11" d="M132,284.3l-39.8,39.5c-2.5,2.5-6.5,2.4-8.9,0L6.7,246.6c-2.4-2.5-2.4-6.5,0-8.9l39.8-39.5
		c2.5-2.4,6.5-2.4,8.9,0l76.5,77.1C134.4,277.8,134.4,281.8,132,284.3z"/>
	<path class="st12" d="M132,275.4l-76.5-77.1c-2.5-2.5-6.4-2.5-8.9,0l-10.1,10l37,37.3c18.8,18.9,18.6,49.4-0.3,68.2l10,10.1
		c2.5,2.5,6.4,2.5,8.9,0l39.8-39.5C134.4,281.8,134.4,277.8,132,275.4z"/>
	<path class="st13" d="M186.2,19.9c0,9.8-8,17.7-17.8,17.7c-9.8,0-17.7-8-17.7-17.8c0-9.8,8-17.7,17.8-17.7S186.3,10.1,186.2,19.9z"
		/>
	<path class="st13" d="M258.2,20.1c0,9.8-8,17.7-17.8,17.7c-9.8,0-17.7-8-17.7-17.8c0-9.8,8-17.7,17.8-17.7S258.2,10.3,258.2,20.1z"
		/>
	<path class="st13" d="M337.8,20.4c0,9.8-8,17.7-17.8,17.7s-17.7-8-17.7-17.8c0-9.8,8-17.7,17.8-17.7
		C329.9,2.6,337.8,10.6,337.8,20.4z"/>
	<path class="st14" d="M168.5,2c-2.3,0-4.4,0.4-6.4,1.2c6.6,2.6,11.3,9.1,11.3,16.6c0,7.5-4.8,14-11.4,16.5c2,0.8,4.1,1.2,6.4,1.2
		c9.8,0,17.8-7.9,17.8-17.7C186.3,10.1,178.3,2.1,168.5,2z"/>
	<path class="st14" d="M240.5,2.3c-2.3,0-4.4,0.4-6.4,1.2c6.6,2.6,11.3,9.1,11.3,16.6c0,7.5-4.8,14-11.4,16.5c2,0.8,4.1,1.2,6.4,1.2
		c9.8,0,17.8-7.9,17.8-17.7C258.2,10.3,250.3,2.3,240.5,2.3z"/>
	<path class="st14" d="M320.1,2.6c-2.3,0-4.4,0.4-6.4,1.2c6.6,2.6,11.3,9.1,11.3,16.6c0,7.5-4.8,14-11.4,16.5c2,0.8,4.1,1.2,6.4,1.2
		c9.8,0,17.8-7.9,17.8-17.7C337.8,10.6,329.9,2.6,320.1,2.6z"/>
</g>
</svg>
