<svg xmlns="http://www.w3.org/2000/svg" width="64" height="64" viewBox="0 0 64 64"><g transform="translate(7676 -1888)"><circle cx="32" cy="32" r="32" transform="translate(-7676 1888)" fill="#fff"/><g transform="translate(-7674 1890)"><ellipse cx="29.724" cy="29.729" rx="29.724" ry="29.729" transform="translate(0.276 0.271)" fill="#ffbc00"/><path d="M163.391,320.466a30.021,30.021,0,1,1,5.381-.487A30.042,30.042,0,0,1,163.391,320.466ZM163.417,261a29.465,29.465,0,1,0,28.968,24.193A29.51,29.51,0,0,0,163.417,261Z" transform="translate(-133.404 -260.466)" fill="#004187"/><g transform="translate(5.059 2.322)"><path d="M156.5,325.207l-2.306-1.464.318-.5,2.012.438.417.1q-.1-.125-.285-.369l-1.222-1.622.285-.449,2.307,1.464-.2.321-1.93-1.225,1.465,1.959-.19.3-2.427-.516,1.964,1.246Z" transform="translate(-154.19 -308.841)" fill="#4e4d4d"/><path d="M162.818,317.969l-.31-.229.217-.294.31.229Zm1.888,1.391-1.593-1.173.216-.294,1.593,1.173Z" transform="translate(-160.483 -305.896)" fill="#4e4d4d"/><path d="M169.184,314.612l-1.527-1.259.21-.255.217.179a.755.755,0,0,1,0-.381.921.921,0,0,1,.189-.357.976.976,0,0,1,.243-.216.683.683,0,0,1,.255-.1.507.507,0,0,1,.252.033,1.372,1.372,0,0,1,.341.224l.939.774-.234.284-.928-.765a.771.771,0,0,0-.277-.164.347.347,0,0,0-.219.021.528.528,0,0,0-.2.154.588.588,0,0,0-.153.418.673.673,0,0,0,.29.442l.834.687Z" transform="translate(-164.379 -301.943)" fill="#4e4d4d"/><path d="M172.267,306.453l-.283-.262.248-.268.283.262Zm1.721,1.592-1.452-1.343.248-.268,1.452,1.343Z" transform="translate(-167.653 -297.18)" fill="#4e4d4d"/><path d="M178.7,304.25l.225-.289a.441.441,0,0,0,.342.1.79.79,0,0,0,.549-.513.263.263,0,0,0-.062-.252.2.2,0,0,0-.207-.054,1.7,1.7,0,0,0-.346.179,3.251,3.251,0,0,1-.527.277.553.553,0,0,1-.289.023.447.447,0,0,1-.24-.133.487.487,0,0,1-.131-.446,1,1,0,0,1,.32-.53,1.256,1.256,0,0,1,.35-.247.661.661,0,0,1,.323-.068.648.648,0,0,1,.315.133l-.226.281q-.261-.2-.563.093a.7.7,0,0,0-.205.3.21.21,0,0,0,.044.213.192.192,0,0,0,.2.047,2.368,2.368,0,0,0,.368-.191,3.736,3.736,0,0,1,.544-.284.51.51,0,0,1,.272-.019.467.467,0,0,1,.237.138.544.544,0,0,1,.146.5,1.088,1.088,0,0,1-.349.581A.788.788,0,0,1,178.7,304.25Z" transform="translate(-172.206 -294.434)" fill="#4e4d4d"/><path d="M185,297.712l.23.193a1.436,1.436,0,0,1-.189.2.7.7,0,0,1-.271.157.313.313,0,0,1-.222-.014,1.138,1.138,0,0,1-.288-.271l-.738-.866-.2.174-.169-.2.2-.174-.316-.373.147-.39.448.526.282-.24.169.2-.282.24.75.88a.418.418,0,0,0,.159.137.2.2,0,0,0,.178-.063A1.265,1.265,0,0,0,185,297.712Z" transform="translate(-176.013 -289.785)" fill="#4e4d4d"/><path d="M189.419,295.551l-1.2-1.57.262-.2.183.238a.869.869,0,0,1,.016-.361.431.431,0,0,1,.146-.2.762.762,0,0,1,.364-.142l.091.322a.566.566,0,0,0-.255.1.392.392,0,0,0-.132.179.331.331,0,0,0,0,.219,1.18,1.18,0,0,0,.193.365l.63.822Z" transform="translate(-179.934 -287.641)" fill="#4e4d4d"/><path d="M194.413,291.378l-.206-.241a.881.881,0,0,0,.191-.09.452.452,0,0,0,.142-.135.3.3,0,0,0,.044-.161q0-.031-.059-.353l-1.774-1.2.33-.217,1.006.709q.188.133.382.3a4.072,4.072,0,0,1-.122-.458l-.247-1.217.307-.2.416,2.132a3.107,3.107,0,0,1,.073.576.576.576,0,0,1-.073.274.6.6,0,0,1-.192.195A.816.816,0,0,1,194.413,291.378Z" transform="translate(-183.364 -283.699)" fill="#4e4d4d"/><path d="M207.028,283.78a.991.991,0,0,1-.065-.822,1.138,1.138,0,0,1,1.314-.611.959.959,0,0,1,.581.56,1.026,1.026,0,0,1,.075.84,1.14,1.14,0,0,1-1.318.61A.988.988,0,0,1,207.028,283.78Zm.341-.158a.777.777,0,0,0,.409.438.625.625,0,0,0,.5-.024.6.6,0,0,0,.323-.358.965.965,0,0,0-.48-1.032.627.627,0,0,0-.5.024.6.6,0,0,0-.324.358A.784.784,0,0,0,207.368,283.621Z" transform="translate(-194.072 -279.314)" fill="#4e4d4d"/><path d="M215.85,278.713l-.6-1.608-.3.114-.091-.243.3-.113-.073-.2a.743.743,0,0,1-.061-.35.419.419,0,0,1,.122-.236.8.8,0,0,1,.292-.175,1.961,1.961,0,0,1,.333-.088l.051.292a1.374,1.374,0,0,0-.209.058.347.347,0,0,0-.2.142.326.326,0,0,0,.019.254l.064.17.4-.148.091.243-.4.148.6,1.608Z" transform="translate(-200.088 -274.401)" fill="#4e4d4d"/><path d="M226.356,274.737l-.584-2.668.386-.084.24,1.1,1.516-.332-.24-1.1.386-.084.584,2.668-.386.084-.275-1.258-1.516.331.275,1.258Z" transform="translate(-208.348 -271.187)" fill="#4e4d4d"/><path d="M240.927,274.792l.38,0a.832.832,0,0,1-.289.511,1.1,1.1,0,0,1-.592.225,1.052,1.052,0,0,1-.767-.181.974.974,0,0,1-.363-.721.96.96,0,0,1,.747-1.133.994.994,0,0,1,.149-.019.982.982,0,0,1,.725.189,1,1,0,0,1,.36.73l.007.089-1.607.17a.719.719,0,0,0,.258.478.635.635,0,0,0,.462.122A.578.578,0,0,0,240.927,274.792Zm-1.255-.411,1.2-.128a.629.629,0,0,0-.186-.365.6.6,0,0,0-.467-.136.613.613,0,0,0-.4.2.579.579,0,0,0-.146.432Z" transform="translate(-218.565 -272.625)" fill="#4e4d4d"/><path d="M250.979,274.619a1.408,1.408,0,0,1-.378.223,1.188,1.188,0,0,1-.411.08.865.865,0,0,1-.541-.143.49.49,0,0,1-.208-.408.507.507,0,0,1,.089-.305.631.631,0,0,1,.254-.211,1.715,1.715,0,0,1,.495-.119,3.577,3.577,0,0,0,.653-.127v-.086a.359.359,0,0,0-.1-.283.627.627,0,0,0-.422-.111.734.734,0,0,0-.381.086.481.481,0,0,0-.181.3l-.361-.038a.715.715,0,0,1,.3-.469,1.285,1.285,0,0,1,.669-.157,1.224,1.224,0,0,1,.536.086.452.452,0,0,1,.249.233,1.287,1.287,0,0,1,.058.412l.008.447a4.2,4.2,0,0,0,.034.591.728.728,0,0,0,.1.236l-.382.007A.659.659,0,0,1,250.979,274.619Zm-.043-.748a2.93,2.93,0,0,1-.6.137,1.441,1.441,0,0,0-.321.073.326.326,0,0,0-.141.111.278.278,0,0,0,.073.386.54.54,0,0,0,.324.079.82.82,0,0,0,.355-.083.554.554,0,0,0,.236-.208.713.713,0,0,0,.073-.373Z" transform="translate(-226.255 -272.156)" fill="#4e4d4d"/><path d="M259.7,272.732l.1-2.727.365.013-.1,2.728Z" transform="translate(-234.018 -270.005)" fill="#4e4d4d"/><path d="M264.372,272.97l.029.3a1.4,1.4,0,0,1-.274.01.7.7,0,0,1-.3-.078.315.315,0,0,1-.149-.167,1.142,1.142,0,0,1-.016-.4l.081-1.135-.268-.019.018-.26.268.019.035-.489.379-.175-.049.689.369.026-.018.26-.369-.026-.082,1.154a.418.418,0,0,0,.018.208.2.2,0,0,0,.17.08A1.285,1.285,0,0,0,264.372,272.97Z" transform="translate(-236.872 -270.44)" fill="#4e4d4d"/><path d="M268.684,273.326l.359-2.706.362.049-.129.971a.857.857,0,0,1,.316-.164.928.928,0,0,1,.365-.02.835.835,0,0,1,.519.235.754.754,0,0,1,.119.625l-.165,1.242-.362-.049.165-1.242a.414.414,0,0,0-.274-.517.422.422,0,0,0-.116-.018.6.6,0,0,0-.421.089.644.644,0,0,0-.233.482l-.142,1.073Z" transform="translate(-240.815 -270.47)" fill="#4e4d4d"/><path d="M284.622,278.76a1.4,1.4,0,0,1-.426.108,1.176,1.176,0,0,1-.417-.039.866.866,0,0,1-.479-.289.488.488,0,0,1-.085-.45.507.507,0,0,1,.17-.268.625.625,0,0,1,.3-.131,1.7,1.7,0,0,1,.508.024,3.557,3.557,0,0,0,.663.061l.024-.082a.36.36,0,0,0-.018-.3.63.63,0,0,0-.374-.226.736.736,0,0,0-.389-.024.482.482,0,0,0-.258.238l-.336-.138a.715.715,0,0,1,.423-.365,1.285,1.285,0,0,1,.686.037,1.225,1.225,0,0,1,.49.233.455.455,0,0,1,.174.294,1.3,1.3,0,0,1-.06.413l-.118.431a4.316,4.316,0,0,0-.133.577.713.713,0,0,0,.028.253l-.369-.1A.663.663,0,0,1,284.622,278.76Zm.169-.73a2.9,2.9,0,0,1-.611-.036,1.424,1.424,0,0,0-.329-.02.33.33,0,0,0-.166.066.279.279,0,0,0-.038.391.542.542,0,0,0,.289.167.814.814,0,0,0,.364.02.554.554,0,0,0,.285-.134.711.711,0,0,0,.175-.338Z" transform="translate(-251.792 -275.182)" fill="#4e4d4d"/><path d="M292.577,281.078l.706-1.848.308.118-.1.263a.757.757,0,0,1,.36-.125.929.929,0,0,1,.4.065.978.978,0,0,1,.282.163.681.681,0,0,1,.175.21.51.51,0,0,1,.049.25,1.368,1.368,0,0,1-.1.395l-.434,1.136-.343-.131.429-1.124a.763.763,0,0,0,.067-.315.347.347,0,0,0-.089-.2.528.528,0,0,0-.209-.139.588.588,0,0,0-.445-.012.673.673,0,0,0-.326.416l-.386,1.01Z" transform="translate(-258.892 -276.984)" fill="#4e4d4d"/><path d="M303.464,285.4l.112-.223a.647.647,0,0,1-.327.08.763.763,0,0,1-.335-.085.916.916,0,0,1-.468-.54,1.012,1.012,0,0,1,.095-.807,1.21,1.21,0,0,1,.368-.454.824.824,0,0,1,.453-.162.946.946,0,0,1,.462.107.8.8,0,0,1,.268.216.7.7,0,0,1,.139.295l.442-.874.328.166-1.232,2.437Zm-.589-1.4a.8.8,0,0,0-.1.589.555.555,0,0,0,.285.353.54.54,0,0,0,.442.023.755.755,0,0,0,.4-.4.9.9,0,0,0,.12-.619.555.555,0,0,0-.3-.365.519.519,0,0,0-.438-.015A.839.839,0,0,0,302.875,283.991Z" transform="translate(-266.326 -279.796)" fill="#4e4d4d"/><path d="M316.476,290.677l1.059-2.64.319.249-.745,1.691q-.113.262-.245.518l.417-.316,1.584-1.1.376.295-.516,1.353a7.339,7.339,0,0,1-.412.906q.209-.175.481-.378l1.451-1.094.313.245-2.328,1.647-.3-.234.786-2.028.123-.311q-.144.115-.266.2l-1.781,1.25Z" transform="translate(-276.974 -283.647)" fill="#4e4d4d"/><path d="M329.351,304.779l.233.3a.827.827,0,0,1-.581.089,1.094,1.094,0,0,1-.542-.326,1.053,1.053,0,0,1-.332-.715.974.974,0,0,1,.342-.73.959.959,0,0,1,1.351-.114,1.2,1.2,0,0,1,.407.792,1,1,0,0,1-.352.735l-.065.061-1.127-1.156a.721.721,0,0,0-.216.5.632.632,0,0,0,.191.438A.577.577,0,0,0,329.351,304.779Zm-.452-1.242.842.864a.628.628,0,0,0,.172-.373.6.6,0,0,0-.182-.45.612.612,0,0,0-.4-.193.58.58,0,0,0-.43.154Z" transform="translate(-285.791 -295.01)" fill="#4e4d4d"/><path d="M333.673,309.186l2.081-1.766.236.279-2.081,1.766Z" transform="translate(-289.985 -298.311)" fill="#4e4d4d"/><path d="M336.529,313.451l1.356-1.053-.2-.257.206-.16.2.257.166-.129a.736.736,0,0,1,.316-.163.421.421,0,0,1,.261.047.8.8,0,0,1,.253.226,1.969,1.969,0,0,1,.184.292l-.264.136a1.4,1.4,0,0,0-.118-.182.348.348,0,0,0-.195-.146.329.329,0,0,0-.237.094l-.145.112.259.334-.206.16-.259-.334-1.357,1.053Z" transform="translate(-292.146 -301.732)" fill="#4e4d4d"/><path d="M340.707,319.978a1.394,1.394,0,0,1-.392-.2,1.183,1.183,0,0,1-.29-.3.867.867,0,0,1-.174-.532.49.49,0,0,1,.23-.4.509.509,0,0,1,.3-.091.63.63,0,0,1,.316.1,1.708,1.708,0,0,1,.368.351,3.592,3.592,0,0,0,.462.48l.073-.046a.357.357,0,0,0,.183-.239.625.625,0,0,0-.135-.414.736.736,0,0,0-.279-.273.483.483,0,0,0-.351.011l-.164-.324a.714.714,0,0,1,.56,0,1.288,1.288,0,0,1,.5.476,1.226,1.226,0,0,1,.218.5.454.454,0,0,1-.061.336,1.286,1.286,0,0,1-.315.273l-.371.249a4.284,4.284,0,0,0-.478.35.725.725,0,0,0-.146.21l-.213-.316A.66.66,0,0,1,340.707,319.978Zm.605-.442a2.9,2.9,0,0,1-.438-.426,1.45,1.45,0,0,0-.237-.23.327.327,0,0,0-.17-.058.28.28,0,0,0-.285.271.538.538,0,0,0,.11.315.813.813,0,0,0,.262.253.554.554,0,0,0,.3.085.712.712,0,0,0,.353-.141Z" transform="translate(-294.659 -306.351)" fill="#4e4d4d"/><path d="M344.608,326.835l1.715-.986.165.286-.26.15a.867.867,0,0,1,.356.063.432.432,0,0,1,.177.172.761.761,0,0,1,.093.379l-.331.049a.57.57,0,0,0-.07-.268.391.391,0,0,0-.16-.155.334.334,0,0,0-.216-.033,1.2,1.2,0,0,0-.388.143l-.9.516Z" transform="translate(-298.258 -312.254)" fill="#4e4d4d"/><path d="M349.472,333.962l.127.358a.828.828,0,0,1-.579-.1,1.094,1.094,0,0,1-.414-.478,1.053,1.053,0,0,1-.092-.783.974.974,0,0,1,.553-.588.959.959,0,0,1,1.32.313.97.97,0,0,1,.069.134.982.982,0,0,1,.07.745,1,1,0,0,1-.564.589l-.082.037-.71-1.449a.718.718,0,0,0-.361.407.634.634,0,0,0,.044.476A.577.577,0,0,0,349.472,333.962Zm-.043-1.32.531,1.084a.627.627,0,0,0,.28-.3.6.6,0,0,0-.032-.485.61.61,0,0,0-.323-.309A.582.582,0,0,0,349.429,332.642Z" transform="translate(-301.186 -317.082)" fill="#4e4d4d"/></g><g transform="translate(15.911 50.88)"><path d="M200.184,473.868a1.329,1.329,0,0,1,.241.318.029.029,0,0,1-.036.02l-.007,0a.129.129,0,0,0-.1,0,3.025,3.025,0,0,1-.421.258l-.807,1.666c-.015.029-.043.034-.086.013l-.161-.078c-.032-.016-.041-.038-.027-.067l.669-1.38q-.15.045-.381.092a.144.144,0,0,1-.065-.069c-.023-.042-.049-.086-.078-.134a.053.053,0,0,1-.008-.054q.192-.041.394-.1a2.071,2.071,0,0,0,.495-.205,1.748,1.748,0,0,0,.351-.254C200.166,473.869,200.176,473.863,200.184,473.868Zm.757,2.2-.133.273.48.233c.021.01.024.029.012.056l-.053.109c-.018.036-.037.049-.058.039l-.48-.232-.152.313c-.014.029-.041.034-.082.015l-.165-.08c-.032-.016-.041-.038-.027-.067l.152-.313-1.043-.5c-.021-.01-.023-.033-.005-.07l.053-.109c.013-.027.03-.036.052-.024l.272.132.211-.436c.012-.024.034-.03.066-.014l.722.35.094-.195c.009-.018.029-.019.062,0,.193.093.282.154.269.181s-.033.04-.055.032-.043.007-.062.046l-.035.071.416.2a.037.037,0,0,1,.023.046l0,.009-.054.112c-.017.034-.037.045-.061.034Zm-.363-3.046a1.335,1.335,0,0,1,.241.318.029.029,0,0,1-.035.02l-.007,0a.125.125,0,0,0-.1,0,1.839,1.839,0,0,1-.516.219,3.02,3.02,0,0,1-.418.078.125.125,0,0,1-.063-.064,1.2,1.2,0,0,0-.08-.14.051.051,0,0,1-.01-.051q.155-.024.313-.055a1.558,1.558,0,0,0,.381-.134,1.251,1.251,0,0,0,.271-.17c.011-.017.021-.024.029-.02Zm-.407,2.672-.133.274.5.241.133-.274Zm.365-1.2,1.217.589c.043.021.057.046.043.075l-.261.54c-.014.029-.043.034-.085.013l-1.217-.589c-.043-.021-.057-.046-.043-.075l.261-.54c.014-.03.042-.035.085-.014Zm.36-.953.424.205q.1-.12.195-.259a.054.054,0,0,1,.061,0l.2.154c.031.024.04.049.027.077a.049.049,0,0,1-.062.029l-.013-.007a.073.073,0,0,0-.065.023c-.029.039-.055.077-.079.113l.564.273c.042.02.057.044.044.072l-.224.464.128.062c.024.011.029.031.016.058l-.054.111a.036.036,0,0,1-.045.023l-.009,0-1.536-.744c-.021-.01-.026-.028-.014-.053l.054-.112c.013-.027.03-.035.051-.024l.416.2c.068-.086.142-.18.221-.283l-.388-.188c-.021-.01-.024-.029-.012-.056l.052-.108c.011-.028.028-.037.049-.027Zm.436,1.875.118-.243-.8-.386-.118.243Zm.8-.43,1.009.489a.049.049,0,0,1,.031.061.058.058,0,0,1-.007.013l-.053.11c-.018.036-.043.047-.074.031l-.288-.139-.843,1.741q-.119.243-.584.019l-.128-.062c-.016-.008-.014-.032.006-.073a.489.489,0,0,0,.026-.2l.006-.014a.811.811,0,0,0,.179.121q.207.1.265-.018l.8-1.649-.448-.217c-.033-.015-.04-.041-.021-.078l.053-.109a.049.049,0,0,1,.061-.033l.01,0Zm-.911-.665.468.226.153-.316-.4-.192q-.12.155-.226.282Zm1.428.007.736.356a.049.049,0,0,1,.031.062.068.068,0,0,1-.007.013l-.053.109c-.018.037-.043.047-.074.032l-.736-.357c-.033-.015-.04-.041-.021-.078l.053-.11a.049.049,0,0,1,.061-.032l.01,0Z" transform="translate(-198.772 -472.149)" fill="#4e4d4d"/><path d="M225.124,482.74l.3.159c.028.026.04.047.037.062a.059.059,0,0,1-.064.049.062.062,0,0,0-.076.038q-.129.22-.222.365l1.056.222.141-.669c.006-.029.032-.039.079-.03q.331.07.322.114c-.007.035-.026.051-.056.05s-.049.018-.059.064l-.112.536,1.46.307c.035.008.049.024.043.052l-.032.151c-.009.04-.03.057-.065.049l-1.46-.307-.177.842,1.253.263a.048.048,0,0,1,.044.053.051.051,0,0,1,0,.013l-.026.122c-.008.037-.029.052-.064.045l-1.253-.263-.211,1,1.67.351c.035.008.049.027.042.059l-.031.148c-.008.037-.029.052-.064.045l-3.862-.812a.049.049,0,0,1-.044-.053.044.044,0,0,1,0-.014l.031-.149c.007-.032.028-.045.062-.037l1.879.4.211-1-1.357-.285a.049.049,0,0,1-.044-.053.039.039,0,0,1,0-.013l.024-.122a.049.049,0,0,1,.05-.047l.014,0,1.357.285.177-.842-1.17-.246q-.13.162-.263.3a2.191,2.191,0,0,1-.321.253.321.321,0,0,1-.1-.036q-.084-.052-.17-.1c-.018-.014-.027-.024-.024-.032a.042.042,0,0,1,.024-.033,2.07,2.07,0,0,0,.487-.419,2.622,2.622,0,0,0,.251-.33,3.712,3.712,0,0,0,.265-.484C225.1,482.745,225.11,482.736,225.124,482.74Z" transform="translate(-217.622 -479.506)" fill="#4e4d4d"/><path d="M251.492,487.056l1.564-.024c.036,0,.054.019.054.059l0,.12c0,.04-.017.06-.052.061l-.587.009.037,2.282c0,.032-.023.049-.07.05l-.177,0c-.049,0-.071-.015-.073-.049l-.037-2.281-.657.011c-.035,0-.054-.019-.054-.059l0-.12C251.439,487.078,251.457,487.057,251.492,487.056Zm.167.527.325.059c.033.012.049.027.049.044s-.012.047-.039.05c-.044.016-.072.059-.082.13a7.6,7.6,0,0,1-.024.956q-.045.253-.095.451c0,.023-.017.034-.053.035q-.268-.068-.268-.09a2.979,2.979,0,0,0,.122-.5q.034-.367.031-1.1c0-.026.011-.039.035-.039Zm.032-1.284,1.155-.019c.036,0,.053.019.054.059l0,.12c0,.043-.017.064-.052.065l-1.155.019c-.036,0-.054-.02-.054-.063l0-.12c0-.04.017-.061.052-.061Zm1.105,1.281.16,0c.049,0,.071.02.073.063a1.746,1.746,0,0,0-.046.42,3.187,3.187,0,0,0,.176,1.028c0,.018-.014.031-.043.038l-.258.024-.028-.056a12.768,12.768,0,0,1-.1-1.449c0-.044.022-.066.069-.066Zm.511-1.354,2.151-.035c.036,0,.054.019.054.059l0,.12c0,.04-.017.06-.052.061l-2.151.035c-.036,0-.054-.019-.054-.059l0-.12c0-.04.017-.06.052-.062Zm.027,1.675,2.115-.034c.047,0,.071.014.072.044l.026,1.6c0,.033-.024.049-.07.05l-.178,0c-.049,0-.071-.015-.072-.049l0-.151-1.618.027,0,.151c0,.032-.023.049-.07.05l-.178,0c-.047,0-.071-.015-.071-.049l-.026-1.582c0-.042.023-.064.07-.065Zm.16-1.179,1.777-.029c.049,0,.071.014.073.044l.014.828c0,.032-.024.049-.07.05l-1.777.029c-.047,0-.071-.015-.073-.049l-.013-.828c0-.029.023-.045.07-.046Zm.1,1.8.659-.011-.006-.377-.657.011Zm.01.636.659-.011-.007-.392-.659.011Zm1.43-1.779-.007-.438-1.279.021.007.438Zm-.468.75.006.377.64-.01-.006-.377Zm.017,1.013.64-.011-.007-.392-.639.011Z" transform="translate(-238.619 -482.119)" fill="#4e4d4d"/><path d="M279.1,481.387a.351.351,0,0,0-.07.03,3.562,3.562,0,0,1-.4.23.736.736,0,0,1-.088.047l.175.653.824-.222c.034-.009.057.006.067.045l.031.117c.01.039,0,.063-.036.073l-.776.209a3.043,3.043,0,0,0,.347.314,2.456,2.456,0,0,0,.613.311c.028,0,.045.012.049.026s0,.024-.021.041a1.077,1.077,0,0,1-.1.148.073.073,0,0,1-.039.042.237.237,0,0,1-.083,0,2.465,2.465,0,0,1-.532-.319q-.088-.07-.174-.149l.446,1.66c.007.027-.012.047-.058.059l-.172.046c-.046.012-.073.005-.08-.022l-.415-1.547-.028.085a3.942,3.942,0,0,1-.216.5,3.064,3.064,0,0,1-.306.45.118.118,0,0,1-.083,0c-.066-.031-.133-.058-.2-.083a.1.1,0,0,1-.023-.033,2.421,2.421,0,0,0,.25-.318,2.715,2.715,0,0,0,.261-.5,5.382,5.382,0,0,0,.178-.607l-.931.25c-.035.009-.057-.006-.067-.045l-.031-.117c-.011-.039,0-.063.036-.073l.961-.258-.162-.6c-.049.021-.1.041-.146.059q-.3.111-.546.177a.094.094,0,0,1-.108-.026c-.049-.036-.106-.076-.17-.119-.007-.027.006-.045.041-.054l.257-.069a3.924,3.924,0,0,0,.527-.177,2.394,2.394,0,0,0,.392-.176,1.491,1.491,0,0,0,.361-.249.084.084,0,0,1,.027-.019.118.118,0,0,1,.078,0q.3.118.316.166c.007.027-.006.045-.04.054Zm.687.029q.327-.088.339-.044a.053.053,0,0,1-.026.069h0c-.028.01-.036.038-.024.084l.506,1.883q.012.044-.057.062l-.172.047c-.046.012-.073,0-.081-.024l-.541-2.014c-.008-.029.011-.051.058-.063Zm.785-.649.384-.06c.044,0,.067.009.069.017.007.027-.01.046-.054.057-.057.039-.071.112-.042.219l.733,2.729q.079.3-.4.425l-.309.083c-.023.006-.041-.015-.054-.064a.616.616,0,0,0-.134-.156c-.008-.029,0-.047.022-.053a1.783,1.783,0,0,0,.372-.053q.188-.05.154-.182l-.713-2.656a1.59,1.59,0,0,0-.057-.18.462.462,0,0,1-.029-.074C280.5,480.8,280.525,480.78,280.57,480.767Z" transform="translate(-258.162 -477.969)" fill="#4e4d4d"/><path d="M302.14,470.748q.294-.17.316-.13c.018.03.014.054-.01.071s-.023.049,0,.091l.151.262.755-.435c.031-.018.056-.009.076.026l.061.105c.02.035.015.062-.016.079l-1.833,1.057c-.028.016-.053.007-.073-.028l-.06-.105c-.02-.035-.017-.061.012-.077l.8-.463-.219-.38C302.086,470.8,302.1,470.772,302.14,470.748Zm-.049.949a2.819,2.819,0,0,1,.339.223,1.577,1.577,0,0,1,.262.215,1.288,1.288,0,0,1-.222.219,1.5,1.5,0,0,0-.2-.191,2.218,2.218,0,0,0-.327-.221q-.016-.027.147-.244Zm-.1.969L304,471.51c.028-.016.052-.008.071.024l.061.105c.02.035.016.06-.012.077l-2.006,1.156q-.047.027-.077-.026l-.06-.1a.049.049,0,0,1,.008-.068l.01-.006Zm.513.325,1.481-.854c.041-.024.069-.023.084,0l.651,1.129c.016.029,0,.055-.037.079l-.155.089c-.039.022-.066.019-.082-.009l-.09-.157-1.052.609.091.157c.016.028,0,.055-.037.078l-.155.089c-.041.024-.07.021-.086-.007l-.643-1.116c-.02-.036-.01-.065.032-.089Zm.678.676,1.052-.606-.338-.586-1.052.606Zm-.085-2.581.276-.054c.046-.009.075,0,.088.019s0,.033-.016.053a.056.056,0,0,0-.027.068,2.321,2.321,0,0,1,.022.572c0,.035-.006.055-.016.061a.16.16,0,0,1-.079.015c-.066.009-.127.02-.182.031q-.037.008-.04,0a.045.045,0,0,1,0-.03,2.049,2.049,0,0,0,.015-.341,1.323,1.323,0,0,0-.047-.339c-.008-.028,0-.047.008-.055Zm.795-.9,1.539,2.671q.024.043-.041.08l-.155.089c-.041.024-.07.021-.086-.007l-1.629-2.828c-.015-.026,0-.051.039-.074l1.079-.622a.224.224,0,0,1,.111-.038q.136,0,.151.03l-.009,1.256a.179.179,0,0,0,.015.062.1.1,0,0,0,.057.037,1.773,1.773,0,0,1,.573.228,1.256,1.256,0,0,1,.429.433.658.658,0,0,1,.094.351.506.506,0,0,1-.137.332.9.9,0,0,1-.32.263c-.066.039-.111.038-.134,0a.488.488,0,0,0-.173-.14c-.015-.026-.007-.049.024-.066l.2-.08a.376.376,0,0,0,.209-.243.331.331,0,0,0-.044-.254,1.122,1.122,0,0,0-.343-.347,2.161,2.161,0,0,0-.679-.262c-.031,0-.05-.007-.059-.022a.179.179,0,0,1-.015-.061l.042-1.21Z" transform="translate(-276.49 -469.46)" fill="#4e4d4d"/></g><g transform="translate(6.207 6.218)"><path d="M206.32,309.717a23.708,23.708,0,1,1-23.71-23.71h0A23.71,23.71,0,0,1,206.32,309.717Z" transform="translate(-158.904 -286.007)" fill="#44b9e4"/></g><g transform="translate(17.059 6.54)"><path d="M279.177,326.3c-1.1-.027-2.191-.076-3.263-.036-.312.073-.624.122-.913.216a3.368,3.368,0,0,0-2.572,2.433c-.456,2.51.473,5.513,1.136,8.017.453.9.734,1.542,1.857,1.818a1.943,1.943,0,0,0,.536-.073,2.563,2.563,0,0,0,.454-2.322c-.188-.6-.354-1.2-.521-1.8a34.137,34.137,0,0,1-1.7-4.553c0-.692.011-.56.492-1.036,1.218-.534,2.853-.292,4.279-.56a2.5,2.5,0,0,0,1.215-.869C280.479,326.7,279.737,326.444,279.177,326.3Z" transform="translate(-255.556 -316.772)" fill="#004187"/><path d="M212.269,327.829c-.155-.2-.306-.42-.458-.619a6.263,6.263,0,0,0-1.94-1.2,1.864,1.864,0,0,1-.425-.127,17.545,17.545,0,0,0-5.144-.453,2.237,2.237,0,0,0,.458,1.826,4.278,4.278,0,0,0,2.624.784c1.2.049,2.758-.178,3.284,1.288.079,1.7-.661,3.319-1.191,4.936-.331,1.347-.944,2.912.825,3.518a1.371,1.371,0,0,0,1.136-.417,11.328,11.328,0,0,0,.906-3.372,37.839,37.839,0,0,0,.29-3.871c-.011-.67-.011-.67-.06-1.339C212.466,328.474,212.363,328.162,212.269,327.829Z" transform="translate(-204.048 -316.132)" fill="#004187"/><path d="M290.115,309.712a4.434,4.434,0,0,0-2.291-.79c-1.139.04-2.388.172-2.546,1.494.056.714.012.737.712,1.151.468.082.963.162,1.522.221a4.081,4.081,0,0,0,2.714-.735A1.043,1.043,0,0,0,290.115,309.712Z" transform="translate(-265.369 -303.665)" fill="#004187"/><path d="M204.6,311.11a9.84,9.84,0,0,0,2.232.254,2.955,2.955,0,0,0,1.8-.454c.644-.971-.385-1.513-1.111-1.814-1.436-.29-3.69-.857-4.033,1.116C203.591,310.858,203.955,310.875,204.6,311.11Z" transform="translate(-203.486 -303.567)" fill="#004187"/><path d="M242.114,291.893l0-.281c.013-1.162.013-1.162-.034-4.09-.057-.29-.529-.193-.68-.1l-.061.112c.073,3.128.073,3.128.069,4.223-1.1-.049-3.025-.287-3.705.8-.219.652-.129.56-.766.817l-.008.089a5.027,5.027,0,0,0,.673.056l-.473.3-.019.068a3.691,3.691,0,0,1,.657.056c1.01.587,1.954.169,3.112-.1l.551.01c.014.893.013,1.747.036,2.618l-.3.228a5.557,5.557,0,0,0-2.295,1.289,1.909,1.909,0,0,0,.477,2.517l.061.022v.045a4.577,4.577,0,0,0,1.322.56c.264.04.539.058.809.076.027.536-.013,1.062.044,1.676-1.87.388-3.254.991-2.592,3.193.113.222.238.466.362.694A4.591,4.591,0,0,0,240.9,307.9c.3.02.539.256.762.3.022.6.045,1.122.042,1.509a3.167,3.167,0,0,0,.35.016,2.877,2.877,0,0,0,.342-.026,10.489,10.489,0,0,1,.068-1.672,11.717,11.717,0,0,0,1.962-.783,2.2,2.2,0,0,0,.652-1.475l-.186.07a3.972,3.972,0,0,1-.843.925c-.323.107-1.376.56-1.64.322-.028-1.028-.146-2.113-.1-3.087a3.069,3.069,0,0,0,2.3-1.2,1.7,1.7,0,0,0-.991-2.487c-.448-.1-1.056-.216-1.5-.321-.045-.8-.063-1.531-.086-2.291.243-.115.833-.282,1.475-.516a2.8,2.8,0,0,0,1.845-2.04,4.317,4.317,0,0,0-.03-.961C244.9,292.863,243.272,292.187,242.114,291.893Zm-2.649,1.036-.374.162c-.162-.2-.192-.2-.393-.195l-.115.359a2,2,0,0,1-.4.073c-.32-.151-.232-.241-.1-.423a1.487,1.487,0,0,1,1.373-.135Zm1.994,7.047-.286-.057c-.28-.063-.577-.148-.782-.211-.243-.174-.243-.174-.3-.173v-.045l-.05-.022c-.462-.886.242-1.166.925-1.468l.49-.122c.031.446.019.622.007,2.1Zm.152,7.136-.26-.038c-.992-.279-1.89-1.138-1.537-2.172a2.253,2.253,0,0,1,1.724-.833c.047,1.685.106,1.816.073,3.043Zm1.662-5.4a.666.666,0,0,1-.125.852,2.991,2.991,0,0,1-.879.305l-.075-.036c-.036-.536-.006-1.109,0-1.614a1.293,1.293,0,0,1,1.079.492Zm-.06-6.234.019.045a5.161,5.161,0,0,1-1.18.66c-.034-.781-.05-1.527-.018-2.288a1.6,1.6,0,0,1,1.47.8.835.835,0,0,1-.291.787Z" transform="translate(-228.792 -287.328)" fill="#004187"/></g><path d="M197.756,387.078a1.425,1.425,0,1,0-1.425,1.425h0A1.427,1.427,0,0,0,197.756,387.078Zm5.477-3.534a.142.142,0,0,0-.175-.223,9.633,9.633,0,0,0-1.094.849,22.714,22.714,0,0,0-2.335-4.38,23.458,23.458,0,0,0-2.921-3.484q.852-.993,1.841-1.951a.142.142,0,0,0-.175-.223,16.888,16.888,0,0,0-2.141,1.722,16.861,16.861,0,0,0-2.141-1.722.142.142,0,0,0-.175.223q.991.956,1.841,1.951a23.459,23.459,0,0,0-2.921,3.484,22.682,22.682,0,0,0-2.285,4.258,9.135,9.135,0,0,0-.953-.727.142.142,0,0,0-.175.223c.334.321.644.65.939.982a24.446,24.446,0,0,0-1.168,12.73.142.142,0,0,0,.282-.034,31,31,0,0,1,1.832-11.54,19.605,19.605,0,0,1,3.773,12.124.142.142,0,0,0,.282.034A14.627,14.627,0,0,0,191.56,385a29.37,29.37,0,0,1,4.673-8.129,29.377,29.377,0,0,1,4.728,8.275,14.61,14.61,0,0,0-3.67,12.693.142.142,0,0,0,.282-.034,19.629,19.629,0,0,1,3.643-11.953,30.941,30.941,0,0,1,1.771,11.369.142.142,0,0,0,.282.034,24.487,24.487,0,0,0-1.112-12.582Q202.66,384.1,203.232,383.544Zm-13.427-3.479a2.228,2.228,0,1,0-2.228,2.229,2.228,2.228,0,0,0,2.228-2.229Zm-13.027-5.933a.142.142,0,0,0-.175.223c10.037,9.68,9.079,22.736,9.069,22.867a.142.142,0,0,0,.282.034,23.621,23.621,0,0,0-3.642-17.465,21.639,21.639,0,0,0-5.534-5.658Zm30.342,5.933a2.213,2.213,0,1,0,0,.032v-.032Zm8.758-5.9a.143.143,0,0,0-.188-.033,21.629,21.629,0,0,0-5.534,5.658,23.615,23.615,0,0,0-3.643,17.465.142.142,0,0,0,.282-.034c-.011-.131-.964-13.19,9.07-22.867A.143.143,0,0,0,215.879,374.165Z" transform="translate(-166.056 -346.443)" fill="#ffbc00"/></g></g></svg>