<svg xmlns="http://www.w3.org/2000/svg" data-name="Group 209441" viewBox="0 0 251.2 251.2">
  <defs>
    <clipPath id="a">
      <path fill="none" d="M0 0h251.2v251.2H0z" data-name="Rectangle 184893"/>
    </clipPath>
  </defs>
  <g clip-path="url(#a)" data-name="Group 209440">
    <path fill="#bbb" d="M125.7 1.4A124.3 124.3 0 1 1 1.3 125.7 124.3 124.3 0 0 1 125.7 1.4" data-name="Path 250786"/>
    <path fill="#353535" d="M125.6 251.2a125.6 125.6 0 1 1 22.5-2 125.6 125.6 0 0 1-22.5 2m.1-248.7A123.2 123.2 0 0 0 4.4 147.8 123.5 123.5 0 0 0 125.6 249a123.2 123.2 0 1 0 .1-246.5" data-name="Path 250787"/>
    <path fill="#4d4d4d" d="m31 78.4-9.7-6.1 1.4-2.1L31 72l1.7.4-1.2-1.5-5-6.8 1.1-1.9 9.7 6.1-.9 1.4-8-5.1 6 8.2-.7 1.2-10.1-2 8.2 5.2Z" data-name="Path 250788"/>
    <path fill="#4d4d4d" d="m31.1 60.5-1.3-1 1-1.2 1.2 1Zm8 5.8-6.7-5 .9-1.2 6.6 5Z" data-name="Path 250789"/>
    <path fill="#4d4d4d" d="m41.4 63-6.3-5.3.8-1 1 .7a3.2 3.2 0 0 1 0-1.6 3.9 3.9 0 0 1 .7-1.5 4 4 0 0 1 1-1 2.9 2.9 0 0 1 1.1-.3 2.1 2.1 0 0 1 1 .1 5.7 5.7 0 0 1 1.5 1l4 3.2-1 1.2-4-3.2a3.2 3.2 0 0 0-1.1-.7 1.5 1.5 0 0 0-1 0 2.2 2.2 0 0 0-.8.7 2.5 2.5 0 0 0-.6 1.7 2.8 2.8 0 0 0 1.2 1.9l3.5 2.9Z" data-name="Path 250790"/>
    <path fill="#4d4d4d" d="m40.6 48.7-1.1-1 1-1.2 1.2 1.1Zm7.2 6.7-6-5.6 1-1.1 6 5.6Z" data-name="Path 250791"/>
    <path fill="#4d4d4d" d="m48.5 51 1-1.2a1.8 1.8 0 0 0 1.4.4 3.3 3.3 0 0 0 2.3-2.1 1.1 1.1 0 0 0-.3-1 .8.8 0 0 0-.8-.3 7.1 7.1 0 0 0-1.5.7 13.6 13.6 0 0 1-2.2 1.2 2.3 2.3 0 0 1-1.2.1 1.9 1.9 0 0 1-1-.6 2 2 0 0 1-.6-1.8 4.2 4.2 0 0 1 1.4-2.2 5.3 5.3 0 0 1 1.4-1 2.8 2.8 0 0 1 1.4-.4 2.7 2.7 0 0 1 1.3.6l-1 1.2q-1-.9-2.3.4a3 3 0 0 0-.8 1.2.9.9 0 0 0 .1.9.8.8 0 0 0 .9.2 10 10 0 0 0 1.5-.8 15.7 15.7 0 0 1 2.3-1.2 2.1 2.1 0 0 1 1.1 0 2 2 0 0 1 1 .5 2.3 2.3 0 0 1 .6 2 4.6 4.6 0 0 1-1.4 2.5q-2.4 2.3-4.6.7" data-name="Path 250792"/>
    <path fill="#4d4d4d" d="m59 43.1.9.8a6 6 0 0 1-.8.9 3 3 0 0 1-1.1.6 1.3 1.3 0 0 1-1 0 4.8 4.8 0 0 1-1.2-1.2l-3-3.6-.9.7-.7-.8.8-.7-1.3-1.6.6-1.6 2 2.2 1-1 .8.8-1.2 1 3.2 3.7a1.7 1.7 0 0 0 .6.6.8.8 0 0 0 .8-.3 5.3 5.3 0 0 0 .4-.5" data-name="Path 250793"/>
    <path fill="#4d4d4d" d="m61 43-5-6.5 1-.9.9 1a3.6 3.6 0 0 1 0-1.5 1.8 1.8 0 0 1 .6-.8 3.2 3.2 0 0 1 1.6-.6l.3 1.3a2.4 2.4 0 0 0-1 .5 1.6 1.6 0 0 0-.6.7 1.4 1.4 0 0 0 0 1 5 5 0 0 0 .8 1.5l2.6 3.4Z" data-name="Path 250794"/>
    <path fill="#4d4d4d" d="m67.6 42-.9-1a3.7 3.7 0 0 0 .8-.3 1.9 1.9 0 0 0 .6-.6 1.3 1.3 0 0 0 .2-.6L68 38l-7.4-5 1.4-1 4.2 3 1.6 1.2a17 17 0 0 1-.5-1.9l-1-5 1.2-1 1.8 9a13 13 0 0 1 .3 2.4 2.4 2.4 0 0 1-.3 1.2 2.5 2.5 0 0 1-.8.8 3.4 3.4 0 0 1-1 .4" data-name="Path 250795"/>
    <path fill="#4d4d4d" d="M75.5 28.6a4.1 4.1 0 0 1-.2-3.4 4.8 4.8 0 0 1 5.5-2.6 4 4 0 0 1 2.4 2.4 4.3 4.3 0 0 1 .3 3.5 4.8 4.8 0 0 1-5.5 2.6 4.1 4.1 0 0 1-2.5-2.5M77 28a3.3 3.3 0 0 0 1.7 1.8 2.6 2.6 0 0 0 2-.1 2.5 2.5 0 0 0 1.4-1.5 4 4 0 0 0-2-4.3 2.6 2.6 0 0 0-2 0 2.5 2.5 0 0 0-1.4 1.6A3.3 3.3 0 0 0 77 28Z" data-name="Path 250796"/>
    <path fill="#4d4d4d" d="m87.3 28-2.5-6.7-1.3.4-.4-1 1.3-.5-.3-.8a3.1 3.1 0 0 1-.3-1.4 1.8 1.8 0 0 1 .5-1 3.3 3.3 0 0 1 1.3-.8A8.2 8.2 0 0 1 87 16l.2 1.2a5.8 5.8 0 0 0-1 .2 1.4 1.4 0 0 0-.7.6 1.4 1.4 0 0 0 0 1.1l.3.7 1.7-.6.3 1-1.6.6 2.5 6.8Z" data-name="Path 250797"/>
    <path fill="#4d4d4d" d="m96.7 24.8-2.5-11.2 1.6-.3 1 4.6 6.4-1.4-1-4.6 1.6-.3 2.4 11.1-1.6.4-1.1-5.3-6.4 1.4 1.2 5.3Z" data-name="Path 250798"/>
    <path fill="#4d4d4d" d="M114.9 19h1.6a3.5 3.5 0 0 1-1.2 2.2 4.6 4.6 0 0 1-2.5 1 4.4 4.4 0 0 1-3.2-.8 4 4 0 0 1-1.5-3 4.2 4.2 0 1 1 8.3-1v.3l-6.7.8a3 3 0 0 0 1 2 2.7 2.7 0 0 0 2 .5 2.4 2.4 0 0 0 2.2-2m-5.3-1.7 5-.5a2.6 2.6 0 0 0-.7-1.6 2.5 2.5 0 0 0-2-.5 2.6 2.6 0 0 0-1.6.8 2.4 2.4 0 0 0-.7 1.8Z" data-name="Path 250799"/>
    <path fill="#4d4d4d" d="M124.8 20.3a5.9 5.9 0 0 1-1.6.9 5 5 0 0 1-1.7.3 3.6 3.6 0 0 1-2.3-.6 2 2 0 0 1-.9-1.7 2.1 2.1 0 0 1 .4-1.2 2.6 2.6 0 0 1 1-1 7.2 7.2 0 0 1 2.1-.4 15 15 0 0 0 2.8-.6v-.3a1.5 1.5 0 0 0-.4-1.2 2.6 2.6 0 0 0-1.8-.5 3 3 0 0 0-1.6.4 2 2 0 0 0-.8 1.2l-1.5-.1a3 3 0 0 1 1.3-2 5.4 5.4 0 0 1 2.8-.6 5.1 5.1 0 0 1 2.2.3 1.9 1.9 0 0 1 1 1 5.4 5.4 0 0 1 .3 1.7v1.9a17.6 17.6 0 0 0 .2 2.5 3 3 0 0 0 .4 1h-1.6a2.8 2.8 0 0 1-.3-1m-.2-3.2a12.3 12.3 0 0 1-2.5.6 6 6 0 0 0-1.4.3 1.4 1.4 0 0 0-.5.5 1.2 1.2 0 0 0 .3 1.6 2.3 2.3 0 0 0 1.3.3 3.4 3.4 0 0 0 1.5-.3 2.3 2.3 0 0 0 1-.9 3 3 0 0 0 .3-1.5Z" data-name="Path 250800"/>
    <path fill="#4d4d4d" d="m128.8 21.4.4-11.4h1.5l-.4 11.4Z" data-name="Path 250801"/>
    <path fill="#4d4d4d" d="m136.4 20.5.1 1.3a5.9 5.9 0 0 1-1.1 0 3 3 0 0 1-1.3-.3 1.3 1.3 0 0 1-.6-.7 4.8 4.8 0 0 1-.1-1.6l.3-4.8h-1v-1.2l1.1.1.2-2 1.5-.8-.2 3h1.6v1.1h-1.6l-.4 4.7a1.7 1.7 0 0 0 .1 1 .8.8 0 0 0 .7.2 5.2 5.2 0 0 0 .7 0" data-name="Path 250802"/>
    <path fill="#4d4d4d" d="m138 21.9 1.4-11.3 1.5.2-.5 4a3.6 3.6 0 0 1 1.3-.6 3.9 3.9 0 0 1 1.6-.1 3.5 3.5 0 0 1 2.1 1 3.2 3.2 0 0 1 .5 2.6l-.7 5.2-1.5-.2.7-5.2a1.7 1.7 0 0 0-1.1-2.2 1.8 1.8 0 0 0-.5 0 2.5 2.5 0 0 0-1.8.3 2.7 2.7 0 0 0-1 2l-.6 4.5Z" data-name="Path 250803"/>
    <path fill="#4d4d4d" d="M158.7 25a5.9 5.9 0 0 1-1.8.4 5 5 0 0 1-1.7-.2 3.6 3.6 0 0 1-2-1.2 2 2 0 0 1-.4-1.9 2.1 2.1 0 0 1 .7-1.1 2.6 2.6 0 0 1 1.3-.6 7.1 7.1 0 0 1 2.1.1 14.9 14.9 0 0 0 2.8.3v-.3a1.5 1.5 0 0 0 0-1.3 2.6 2.6 0 0 0-1.6-1 3 3 0 0 0-1.6 0 2 2 0 0 0-1 1l-1.5-.6a3 3 0 0 1 1.8-1.6 5.4 5.4 0 0 1 2.9.2 5.1 5.1 0 0 1 2 1 1.9 1.9 0 0 1 .7 1.2 5.4 5.4 0 0 1-.2 1.7l-.5 1.8a18.1 18.1 0 0 0-.6 2.4 3 3 0 0 0 .2 1.1l-1.6-.4a2.8 2.8 0 0 1 0-1m.7-3.1a12 12 0 0 1-2.6-.2 6 6 0 0 0-1.3 0 1.4 1.4 0 0 0-.7.2 1.2 1.2 0 0 0-.2 1.6 2.3 2.3 0 0 0 1.2.7 3.4 3.4 0 0 0 1.5.1 2.3 2.3 0 0 0 1.2-.5 3 3 0 0 0 .8-1.4Z" data-name="Path 250804"/>
    <path fill="#4d4d4d" d="m162.3 27 3-7.6 1.2.4-.4 1.1a3.2 3.2 0 0 1 1.5-.5 3.9 3.9 0 0 1 1.7.3 4 4 0 0 1 1.1.7 2.9 2.9 0 0 1 .8.9 2.1 2.1 0 0 1 .2 1 5.7 5.7 0 0 1-.5 1.7l-1.8 4.7-1.4-.5 1.8-4.7a3.2 3.2 0 0 0 .3-1.4 1.5 1.5 0 0 0-.4-.8 2.2 2.2 0 0 0-.9-.6 2.5 2.5 0 0 0-1.8 0 2.8 2.8 0 0 0-1.4 1.7l-1.6 4.2Z" data-name="Path 250805"/>
    <path fill="#4d4d4d" d="m176.7 33.4.5-1a2.7 2.7 0 0 1-1.4.4 3.2 3.2 0 0 1-1.4-.4 3.8 3.8 0 0 1-2-2.2 4.2 4.2 0 0 1 .5-3.4 5 5 0 0 1 1.5-2 3.4 3.4 0 0 1 1.9-.6 4 4 0 0 1 2 .5 3.3 3.3 0 0 1 1 .9 3 3 0 0 1 .6 1.2l1.9-3.7 1.3.7L178 34Zm-2.5-5.9a3.3 3.3 0 0 0-.4 2.5 2.3 2.3 0 0 0 1.2 1.4 2.3 2.3 0 0 0 1.9.1 3.2 3.2 0 0 0 1.6-1.7 3.7 3.7 0 0 0 .5-2.5 2.3 2.3 0 0 0-1.2-1.6 2.2 2.2 0 0 0-1.9 0 3.5 3.5 0 0 0-1.7 1.8Z" data-name="Path 250806"/>
    <path fill="#4d4d4d" d="m186.6 39.4 4.4-11 1.4 1-3.2 7-1 2.2 1.8-1.3 6.6-4.6 1.6 1.2-2.2 5.7a30.8 30.8 0 0 1-1.7 3.7l2-1.5 6-4.6 1.4 1-9.8 6.9-1.2-1 3.3-8.5.5-1.3-1.1.9-7.5 5.2Z" data-name="Path 250807"/>
    <path fill="#4d4d4d" d="m203.6 50.8 1 1.3a3.5 3.5 0 0 1-2.5.3 4.6 4.6 0 0 1-2.3-1.3 4.4 4.4 0 0 1-1.3-3 4 4 0 0 1 1.4-3 4 4 0 0 1 5.6-.5 5 5 0 0 1 1.7 3.3 4.2 4.2 0 0 1-1.4 3l-.3.3-4.7-4.8a3 3 0 0 0-1 2 2.6 2.6 0 0 0 .9 1.9 2.4 2.4 0 0 0 2.9.5m-2-5.2 3.6 3.6a2.6 2.6 0 0 0 .7-1.5 2.5 2.5 0 0 0-.7-1.9 2.6 2.6 0 0 0-1.7-.8 2.4 2.4 0 0 0-1.8.6Z" data-name="Path 250808"/>
    <path fill="#4d4d4d" d="m204.1 55.4 8.7-7.3 1 1.1-8.7 7.4z" data-name="Rectangle 184892"/>
    <path fill="#4d4d4d" d="m207 59 5.7-4.4-.8-1.1.8-.7.9 1.1.7-.5a3 3 0 0 1 1.3-.7 1.8 1.8 0 0 1 1 .2 3.4 3.4 0 0 1 1.1 1 8.3 8.3 0 0 1 .8 1.1l-1.1.6a6 6 0 0 0-.5-.7 1.5 1.5 0 0 0-.8-.7 1.4 1.4 0 0 0-1 .4l-.6.5 1 1.4-.8.7-1-1.4-5.7 4.4Z" data-name="Path 250809"/>
    <path fill="#4d4d4d" d="M214 67a5.8 5.8 0 0 1-1.7-.9 5 5 0 0 1-1.2-1.2 3.6 3.6 0 0 1-.7-2.3 2 2 0 0 1 1-1.6 2.1 2.1 0 0 1 1.2-.4 2.6 2.6 0 0 1 1.4.4 7.1 7.1 0 0 1 1.5 1.5 15 15 0 0 0 2 2l.2-.2a1.5 1.5 0 0 0 .8-1 2.6 2.6 0 0 0-.6-1.7 3 3 0 0 0-1.1-1.2 2 2 0 0 0-1.5 0l-.7-1.3a3 3 0 0 1 2.4 0 5.4 5.4 0 0 1 2 2 5.1 5.1 0 0 1 1 2 1.9 1.9 0 0 1-.3 1.5 5.4 5.4 0 0 1-1.3 1.1l-1.6 1a17.9 17.9 0 0 0-2 1.5 3 3 0 0 0-.6 1l-.9-1.4a2.8 2.8 0 0 1 .7-.8m2.5-1.9a12.2 12.2 0 0 1-1.8-1.8 6 6 0 0 0-1-1 1.4 1.4 0 0 0-.7-.2 1.2 1.2 0 0 0-1.2 1.1 2.3 2.3 0 0 0 .4 1.4 3.4 3.4 0 0 0 1.1 1 2.3 2.3 0 0 0 1.3.4 3 3 0 0 0 1.5-.6Z" data-name="Path 250810"/>
    <path fill="#4d4d4d" d="m215.2 71 7.2-4.2.7 1.2-1 .6a3.6 3.6 0 0 1 1.4.3 1.8 1.8 0 0 1 .7.7 3.2 3.2 0 0 1 .4 1.6l-1.4.2a2.4 2.4 0 0 0-.2-1.1 1.6 1.6 0 0 0-.7-.7 1.4 1.4 0 0 0-1 0 5 5 0 0 0-1.5.5l-3.8 2.2Z" data-name="Path 250811"/>
    <path fill="#4d4d4d" d="m223.3 80.6.6 1.5a3.5 3.5 0 0 1-2.4-.4 4.6 4.6 0 0 1-1.8-2 4.4 4.4 0 0 1-.4-3.3 4 4 0 0 1 2.3-2.5 4 4 0 0 1 5.9 1.9 4.1 4.1 0 0 1 .3 3.1 4.2 4.2 0 0 1-2.4 2.5l-.3.1-3-6a3 3 0 0 0-1.5 1.7 2.6 2.6 0 0 0 .2 2 2.4 2.4 0 0 0 2.5 1.4m-.1-5.6 2.2 4.6a2.6 2.6 0 0 0 1.2-1.3 2.5 2.5 0 0 0-.2-2 2.6 2.6 0 0 0-1.3-1.3 2.4 2.4 0 0 0-2 0Z" data-name="Path 250812"/>
    <path fill="#4d4d4d" d="M72.6 220.2a5.5 5.5 0 0 1 1 1.4.2.2 0 0 1-.1 0 .5.5 0 0 0-.5 0 12.6 12.6 0 0 1-1.7 1.1l-3.4 7h-.3l-.7-.3c-.2 0-.2-.2-.1-.3l2.8-5.8-1.6.4a.6.6 0 0 1-.3-.3 11 11 0 0 0-.3-.5.2.2 0 0 1 0-.2l1.6-.5a8.7 8.7 0 0 0 2-.8 7.3 7.3 0 0 0 1.5-1l.1-.2m3.2 9.2-.5 1.2 2 1v.2l-.2.4c0 .2-.2.2-.2.2l-2-1-.7 1.3c0 .2-.2.2-.3 0l-.7-.2c-.2-.1-.2-.2-.1-.3l.6-1.3-4.4-2.1v-.3l.2-.5h.3l1 .5 1-1.9h.3l3 1.4.4-.8h.2c.8.4 1.2.7 1.2.8l-.3.1s-.2 0-.2.2l-.2.3 1.8.8a.2.2 0 0 1 0 .2l-.2.5c0 .2-.1.2-.2.2Zm-1.5-12.7a5.6 5.6 0 0 1 1 1.3.1.1 0 0 1-.2 0 .5.5 0 0 0-.4 0 7.7 7.7 0 0 1-2.2 1 12.7 12.7 0 0 1-1.7.3.5.5 0 0 1-.3-.2 5 5 0 0 0-.3-.6.2.2 0 0 1 0-.2l1.2-.3a6.5 6.5 0 0 0 1.6-.5 5.2 5.2 0 0 0 1.2-.7v-.1Zm-1.7 11.2L72 229l2.1 1 .6-1.1Zm1.5-5 5.1 2.4c.2.1.3.2.2.3l-1.1 2.3c0 .1-.2.1-.4 0l-5-2.4c-.2-.1-.3-.2-.2-.3l1-2.3c.1-.1.2-.1.4 0Zm1.5-4 1.8.8.8-1a.2.2 0 0 1 .3 0l.8.6c.1 0 .2.2.1.3a.2.2 0 0 1-.2.1.2.2 0 0 1-.1 0 .3.3 0 0 0-.3 0c0 .3-.2.4-.3.6l2.4 1.1c.1 0 .2.2.1.3l-.9 2 .5.2c.1 0 .2.1.1.2l-.2.5a.2.2 0 0 1-.2.1l-6.5-3.1v-.2l.2-.5c0-.1.1-.2.2-.1l1.8.8.9-1.1-1.7-.8v-.3l.2-.4c0-.1.1-.2.2-.1Zm1.9 7.8.4-1-3.3-1.6-.5 1Zm3.3-1.8 4.2 2a.2.2 0 0 1 .2.3l-.3.5c0 .2-.2.2-.3.2l-1.2-.6-3.5 7.3q-.5 1-2.5 0l-.5-.2v-.3a2 2 0 0 0 .1-.9 3.4 3.4 0 0 0 .8.5q.9.4 1.1 0l3.3-7-1.8-.9c-.2 0-.2-.2-.1-.3l.2-.5a.2.2 0 0 1 .3-.1Zm-3.8-2.8 2 1 .6-1.3-1.7-.8-1 1.1Zm6 0 3 1.5a.2.2 0 0 1 .2.3l-.3.5c0 .2-.2.2-.3.1l-3-1.4q-.3-.1-.2-.4l.3-.4a.2.2 0 0 1 .2-.2Z" data-name="Path 250813"/>
    <path fill="#4d4d4d" d="m98.1 226.6 1.3.6.1.3a.2.2 0 0 1-.2.2.3.3 0 0 0-.4.2l-.9 1.5 4.4 1 .6-2.9.3-.1q1.4.3 1.4.5l-.2.2c-.1 0-.2 0-.3.2l-.5 2.3 6.2 1.3c.1 0 .2 0 .1.2l-.1.6c0 .2-.1.3-.3.2l-6-1.3-.8 3.6 5.2 1a.2.2 0 0 1 .2.3l-.1.5c0 .2-.1.3-.3.2l-5.2-1-1 4.1 7 1.5a.2.2 0 0 1 .3.2l-.2.7-.2.2-16.2-3.4a.2.2 0 0 1-.2-.3l.2-.7.2-.1 7.9 1.6.9-4.2-5.7-1.1a.2.2 0 0 1-.2-.3l.1-.5a.2.2 0 0 1 .2-.2l5.8 1.2.7-3.6-4.9-1-1.1 1.3a9.2 9.2 0 0 1-1.3 1 1.3 1.3 0 0 1-.4-.1l-.8-.4v-.1a.2.2 0 0 1 0-.2 8.7 8.7 0 0 0 2-1.7 11 11 0 0 0 1.1-1.4 15.5 15.5 0 0 0 1.1-2l.2-.1" data-name="Path 250814"/>
    <path fill="#4d4d4d" d="M120.6 233.7h6.5c.2 0 .3 0 .3.2v.5l-.2.2h-2.5l.2 9.6c0 .1-.1.2-.3.2h-.8c-.2 0-.3 0-.3-.2l-.1-9.5h-2.8c-.1 0-.2 0-.2-.2v-.5c0-.2 0-.3.2-.3m.7 2.2 1.4.3.2.1c0 .2-.1.2-.2.3q-.3 0-.4.5a31.8 31.8 0 0 1 0 4l-.5 1.9-.2.1-1.1-.3a12.5 12.5 0 0 0 .5-2.1q.2-1.6.1-4.6c0-.1 0-.2.2-.2Zm.1-5.4h4.9c.1 0 .2 0 .2.2v.5c0 .2 0 .3-.2.3h-4.9c-.1 0-.2 0-.2-.2v-.5c0-.2 0-.3.2-.3Zm4.7 5.4h.6c.2 0 .3 0 .3.3a7.3 7.3 0 0 0-.2 1.7 13.3 13.3 0 0 0 .8 4.3l-.2.2h-1l-.2-.2a53.2 53.2 0 0 1-.4-6c0-.2 0-.3.3-.3Zm2-5.7 9-.1c.2 0 .3 0 .3.2v.5c0 .2 0 .3-.2.3l-9 .1c-.1 0-.2 0-.2-.2v-.5c0-.2 0-.3.2-.3Zm.2 7 8.9-.1c.2 0 .3 0 .3.2v6.7c0 .1 0 .2-.2.2h-.8c-.2 0-.3 0-.3-.2v-.6h-6.8v.7c0 .2 0 .2-.2.2h-.8c-.2 0-.3 0-.3-.2v-6.6c0-.2 0-.2.2-.2Zm.7-4.9 7.4-.1c.2 0 .3 0 .3.2v3.4c0 .2 0 .2-.2.2l-7.5.2c-.2 0-.3 0-.3-.2v-3.5c0-.1 0-.2.3-.2Zm.4 7.5h2.7v-1.6h-2.7Zm0 2.7h2.8v-1.7h-2.8Zm6-7.5v-1.8l-5.4.1v1.8Zm-2 3.2v1.6h2.8V238Zm.1 4.2h2.7v-1.7h-2.7Z" data-name="Path 250815"/>
    <path fill="#4d4d4d" d="M154.3 227.3a1.5 1.5 0 0 0-.3.2 15 15 0 0 1-1.7 1 3 3 0 0 1-.3.1l.7 2.8 3.5-1c.1 0 .2 0 .2.2l.2.5c0 .2 0 .3-.2.3l-3.2.9a12.8 12.8 0 0 0 1.4 1.3 10.3 10.3 0 0 0 2.6 1.3l.2.1-.1.2a4.6 4.6 0 0 1-.4.6.3.3 0 0 1-.2.2 1 1 0 0 1-.3 0 10.3 10.3 0 0 1-2.3-1.3l-.7-.7 1.9 7s0 .2-.3.2l-.7.2h-.3l-1.7-6.5-.2.3a16.4 16.4 0 0 1-.9 2.1 12.8 12.8 0 0 1-1.2 1.9.5.5 0 0 1-.4 0l-.8-.4a.4.4 0 0 1-.1-.1 10.2 10.2 0 0 0 1-1.3 11.3 11.3 0 0 0 1.1-2.1 22.7 22.7 0 0 0 .7-2.6l-3.8 1c-.2.1-.3 0-.3-.1l-.2-.5c0-.2 0-.3.2-.3l4-1-.7-2.6-.6.2-2.3.8a.4.4 0 0 1-.4-.1l-.7-.5.1-.2 1.1-.3a16.5 16.5 0 0 0 2.2-.8 10.1 10.1 0 0 0 1.7-.7 6.2 6.2 0 0 0 1.5-1 .4.4 0 0 1 0-.1.5.5 0 0 1 .4 0q1.3.5 1.3.7l-.1.2Zm2.9.2q1.4-.4 1.4-.2a.2.2 0 0 1 0 .3q-.3 0-.2.3l2.1 7.9q0 .2-.2.3l-.7.2-.4-.1-2.2-8.5s0-.2.2-.2Zm3.3-2.7 1.6-.3h.3c0 .2 0 .3-.3.3-.2.2-.3.5-.1 1l3 11.3q.4 1.3-1.6 1.8l-1.3.4-.3-.3a2.6 2.6 0 0 0-.5-.6v-.3a7.4 7.4 0 0 0 1.6-.2q.8-.2.7-.8l-3-11a6.6 6.6 0 0 0-.2-.8 2 2 0 0 1-.2-.3c0-.1 0-.2.3-.2Z" data-name="Path 250816"/>
    <path fill="#4d4d4d" d="M174 218.4q1.3-.7 1.4-.5a.2.2 0 0 1 0 .3c-.2 0-.2.2 0 .4l.6 1 3.1-1.7h.3l.3.5v.3l-7.7 4.5c-.2 0-.3 0-.4-.2l-.2-.4v-.3l3.4-2-1-1.6s0-.2.2-.3m-.2 4a11.8 11.8 0 0 1 1.5 1 6.6 6.6 0 0 1 1 .8 5.4 5.4 0 0 1-.9 1 6.3 6.3 0 0 0-.8-.8 9.3 9.3 0 0 0-1.4-1l.7-1Zm-.4 4 8.4-4.8.3.1.3.5v.3l-8.5 4.8h-.3l-.2-.5a.2.2 0 0 1 0-.3Zm2.2 1.4 6.2-3.5q.2-.2.3 0l2.7 4.7c.1.1 0 .2-.1.3l-.7.4h-.3l-.4-.7-4.4 2.5.4.7c0 .1 0 .2-.2.3l-.6.4q-.3.1-.4 0l-2.7-4.7c0-.2 0-.3.2-.4Zm2.8 2.9 4.4-2.6-1.4-2.4-4.4 2.5Zm-.3-10.8 1.1-.3.4.1v.2a.2.2 0 0 0-.2.3 9.7 9.7 0 0 1 .1 2.4v.3a.7.7 0 0 1-.4 0l-.8.2h-.1a.2.2 0 0 1 0-.2 8.6 8.6 0 0 0 0-1.4 5.5 5.5 0 0 0-.2-1.4v-.2Zm3.3-3.8 6.4 11.2-.1.3-.7.4h-.4l-6.8-11.9s0-.2.2-.3l4.5-2.6a1 1 0 0 1 .5-.1h.6v5.3a.7.7 0 0 0 0 .3.4.4 0 0 0 .3.1 7.4 7.4 0 0 1 2.4 1 5.2 5.2 0 0 1 1.8 1.8 2.7 2.7 0 0 1 .4 1.5 2.1 2.1 0 0 1-.6 1.4 3.7 3.7 0 0 1-1.4 1c-.2.2-.4.2-.5 0a2 2 0 0 0-.7-.5v-.3l.9-.3a1.6 1.6 0 0 0 .9-1 1.4 1.4 0 0 0-.2-1.1 4.7 4.7 0 0 0-1.4-1.5 9 9 0 0 0-2.9-1c-.1 0-.2 0-.2-.2a.7.7 0 0 1-.1-.2l.2-5Z" data-name="Path 250817"/>
    <path fill="#9b9b9b" d="M224.5 125.4a99.2 99.2 0 1 1-99.2-99.1 99.2 99.2 0 0 1 99.2 99.1" data-name="Path 250818"/>
    <path fill="#353535" d="M170.4 67.4c-4.6 0-9.2-.3-13.7-.1-1.3.3-2.6.5-3.8.9-6 1.9-8.7 4.2-10.8 10.2-1.9 10.5 2 23 4.8 33.5 1.9 3.8 3 6.4 7.8 7.6a8.1 8.1 0 0 0 2.2-.3c2.5-2.9 2.6-6.3 1.9-9.7l-2.2-7.5c-2.4-6.3-5.7-12.8-7-19 0-3 0-2.4 2-4.4 5-2.2 12-1.2 17.9-2.4 1.7-.7 4-1.8 5-3.6 1.3-3.5-1.8-4.5-4.1-5.2" data-name="Path 250819"/>
    <path fill="#353535" d="m106 76.5-2-2.6c-2.5-2.5-5.3-3.7-8.1-5a7.8 7.8 0 0 1-1.8-.5 73.4 73.4 0 0 0-21.5-2c-1 2.4.6 5.7 2 7.7 3 2.9 6.4 2.9 10.8 3.3 5 .2 11.5-.7 13.7 5.4.4 7.1-2.7 13.9-5 20.6-1.3 5.7-3.9 12.2 3.5 14.8 2.4-.2 2.9-.1 4.8-1.8 2.3-4.4 2.8-9.2 3.7-14a158.3 158.3 0 0 0 1.3-16.3c0-2.8 0-2.8-.3-5.6a69 69 0 0 1-1.3-4" data-name="Path 250820"/>
    <path fill="#353535" d="M175 52.9a18.5 18.5 0 0 0-9.5-3.3c-4.8.2-10 .7-10.7 6.2.3 3 0 3.1 3 4.8l6.4 1c4-.4 8 0 11.3-3.1 1.5-2.2.8-4-.4-5.6" data-name="Path 250821"/>
    <path fill="#353535" d="M76.2 59.1a41.2 41.2 0 0 0 9.3 1.1c2.6-.1 5.1 0 7.6-1.9 2.7-4-1.6-6.3-4.7-7.6-6-1.2-15.4-3.6-16.9 4.7.5 2.7 2 2.8 4.7 3.7" data-name="Path 250822"/>
    <path fill="#353535" d="M127.3 46.7v-1.2l-.2-17c-.2-1.3-2.2-.9-2.8-.5l-.3.5.3 17.6c-4.6-.2-12.6-1.2-15.5 3.4-.9 2.7-.5 2.3-3.2 3.4v.3a21 21 0 0 0 2.8.3l-2 1.2v.3c.7.2 1.7-.1 2.7.2 4.2 2.5 8.2.7 13-.4h2.3c0 3.8 0 7.4.2 11l-1.3 1a23.3 23.3 0 0 0-9.6 5.4c-2.2 4-1.2 7.2 2 10.5l.3.1v.2a19.1 19.1 0 0 0 5.5 2.3c1.1.2 2.3.3 3.4.3.1 2.3 0 4.5.2 7-7.8 1.7-13.6 4.2-10.9 13.4l1.5 3a19.2 19.2 0 0 0 6.5 4.7c1.3 0 2.3 1 3.2 1.2l.2 6.3a13.2 13.2 0 0 0 1.4.1 12 12 0 0 0 1.5-.1c0-.7 0-6.4.3-7 2.7-1 5.4-1.6 8.2-3.3a9.2 9.2 0 0 0 2.7-6.1l-.8.2a16.6 16.6 0 0 1-3.5 4c-1.4.4-5.8 2.3-6.9 1.3-.1-4.3-.6-8.9-.4-13 4-.8 7-1.3 9.6-5 2.4-5 .2-8.2-4.1-10.3l-6.3-1.4-.3-9.6 6-2c4.2-2 6.6-3.9 7.7-8.6a18 18 0 0 0 0-4c-1.9-5.6-8.7-8.4-13.5-9.6m-11 4.2-1.6.7c-.6-.8-.8-.8-1.6-.8l-.5 1.5a8.3 8.3 0 0 1-1.7.3c-1.3-.6-1-1-.4-1.8 2-1.1 3.3-1.2 5.8-.5Zm8.3 29.5-1.2-.2-3.2-1c-1-.7-1-.7-1.3-.6v-.2l-.2-.1c-2-3.7 1-5 3.9-6.2l2-.5v8.8Zm.7 29.8-1.1-.1c-4.2-1.2-8-4.8-6.4-9.1 1.5-2.4 4.4-3.2 7.2-3.5.2 7 .4 7.6.3 12.7Zm7-22.5a2.8 2.8 0 0 1-.6 3.5 12.5 12.5 0 0 1-3.7 1.3l-.3-.1v-6.8a5.4 5.4 0 0 1 4.5 2Zm-.3-26.1v.2a21.6 21.6 0 0 1-4.9 2.7c-.1-3.2-.2-6.3 0-9.5 2.2-.2 5.5 1.4 6 3.3.1 1 0 2.6-1.1 3.3Z" data-name="Path 250823"/>
    <path fill="#bbb" d="M132.8 170.2a6 6 0 1 0-6 6 6 6 0 0 0 6-6m22.9-14.8a.6.6 0 0 0-.7-1 40.3 40.3 0 0 0-4.6 3.6 95 95 0 0 0-9.8-18.3 98.1 98.1 0 0 0-12.2-14.6q3.6-4.1 7.7-8.1a.6.6 0 0 0-.7-1 70.7 70.7 0 0 0-9 7.3 70.5 70.5 0 0 0-9-7.2.6.6 0 0 0-.7.9q4.2 4 7.7 8.1a98.2 98.2 0 0 0-12.2 14.6 94.8 94.8 0 0 0-9.5 17.8 38.3 38.3 0 0 0-4-3 .6.6 0 0 0-.8 1l4 4a102.2 102.2 0 0 0-5 53.3.6.6 0 0 0 1.3-.2c0-.3-1.7-22 7.6-48.2a82 82 0 0 1 15.8 50.7.6.6 0 0 0 1.2.1 62 62 0 0 0-9.6-45.8 62.1 62.1 0 0 0-6.3-7.9 122.8 122.8 0 0 1 19.5-34 122.9 122.9 0 0 1 19.8 34.6 61.7 61.7 0 0 0-5.8 7.3 62 62 0 0 0-9.6 45.8.6.6 0 0 0 1.2-.1c0-.3-2-26.5 15.3-50 9 25.8 7.4 47.2 7.4 47.5a.6.6 0 0 0 1.2.2c3.4-21.4.4-39-4.7-52.7q2.1-2.4 4.5-4.7ZM99.5 141a9.3 9.3 0 1 0-9.3 9.3 9.3 9.3 0 0 0 9.3-9.3ZM45 116a.6.6 0 0 0-.7.9c42 40.5 38 95 38 95.6a.6.6 0 0 0 1.1.2c5.5-34-5.3-58.5-15.2-73A89.4 89.4 0 0 0 45 116Zm127 24.8a9.3 9.3 0 1 0 0 .1v-.1Zm36.6-24.7a.6.6 0 0 0-.8-.1c-.1 0-12.4 7.9-23.1 23.6a98.8 98.8 0 0 0-15.3 73 .6.6 0 0 0 1.2 0c0-.6-4-55.2 38-95.7a.6.6 0 0 0 0-.8Z" data-name="Path 250824"/>
  </g>
</svg>